<svg width="397" height="401" viewBox="0 0 397 401" fill="none" xmlns="http://www.w3.org/2000/svg">
<g opacity="0.5">
<path opacity="0.5" d="M64.38 262.61L250.86 212.64L200.9 399.12L64.38 262.61Z" stroke="#92C3CD" stroke-miterlimit="10"/>
<path opacity="0.5" d="M170.14 235.38L211.65 251.86L228.12 293.36L148.75 314.75L170.14 235.38Z" stroke="#92C3CD" stroke-miterlimit="10"/>
<path opacity="0.5" d="M250.86 212.64L172.06 291.45L64.38 262.61" stroke="#92C3CD" stroke-miterlimit="10"/>
<path opacity="0.5" d="M200.9 399.12L172.06 291.45" stroke="#92C3CD" stroke-miterlimit="10"/>
<path opacity="0.5" d="M169.27 234.5L229 294.23" stroke="#92C3CD" stroke-miterlimit="10"/>
</g>
<g opacity="0.5">
<path opacity="0.5" d="M140.4 354.29L0.719971 391.72L38.15 252.04L140.4 354.29Z" stroke="#92C3CD" stroke-miterlimit="10"/>
<path opacity="0.5" d="M61.18 374.69L30.1 362.34L17.76 331.26L77.21 315.24L61.18 374.69Z" stroke="#92C3CD" stroke-miterlimit="10"/>
<path opacity="0.5" d="M0.719971 391.72L59.75 332.69L140.4 354.29" stroke="#92C3CD" stroke-miterlimit="10"/>
<path opacity="0.5" d="M38.15 252.04L59.75 332.69" stroke="#92C3CD" stroke-miterlimit="10"/>
<path opacity="0.5" d="M61.84 375.34L17.1 330.6" stroke="#92C3CD" stroke-miterlimit="10"/>
</g>
<g opacity="0.5">
<path opacity="0.5" d="M379.17 276L232.97 315.18L272.14 168.97L379.17 276Z" stroke="#92C3CD" stroke-miterlimit="10"/>
<path opacity="0.5" d="M296.25 297.35L263.71 284.43L250.8 251.89L313.02 235.12L296.25 297.35Z" stroke="#92C3CD" stroke-miterlimit="10"/>
<path opacity="0.5" d="M232.97 315.18L294.75 253.39L379.17 276" stroke="#92C3CD" stroke-miterlimit="10"/>
<path opacity="0.5" d="M272.14 168.97L294.75 253.39" stroke="#92C3CD" stroke-miterlimit="10"/>
<path opacity="0.5" d="M296.94 298.04L250.11 251.2" stroke="#92C3CD" stroke-miterlimit="10"/>
</g>
<g opacity="0.5">
<path opacity="0.5" d="M281.82 86.38L165.5 117.55L196.67 1.22998L281.82 86.38Z" stroke="#92C3CD" stroke-miterlimit="10"/>
<path opacity="0.5" d="M215.85 103.37L189.96 93.09L179.68 67.2L229.19 53.86L215.85 103.37Z" stroke="#92C3CD" stroke-miterlimit="10"/>
<path opacity="0.5" d="M165.5 117.55L214.66 68.4L281.82 86.38" stroke="#92C3CD" stroke-miterlimit="10"/>
<path opacity="0.5" d="M196.67 1.22998L214.66 68.4" stroke="#92C3CD" stroke-miterlimit="10"/>
<path opacity="0.5" d="M216.4 103.91L179.14 66.66" stroke="#92C3CD" stroke-miterlimit="10"/>
</g>
<g opacity="0.5">
<path opacity="0.5" d="M188.44 122.84L281.82 97.8199L256.8 191.2L188.44 122.84Z" stroke="#92C3CD" stroke-miterlimit="10"/>
<path opacity="0.5" d="M241.4 109.21L262.18 117.46L270.43 138.24L230.69 148.95L241.4 109.21Z" stroke="#92C3CD" stroke-miterlimit="10"/>
<path opacity="0.5" d="M281.82 97.8199L242.36 137.28L188.44 122.84" stroke="#92C3CD" stroke-miterlimit="10"/>
<path opacity="0.5" d="M256.8 191.2L242.36 137.28" stroke="#92C3CD" stroke-miterlimit="10"/>
<path opacity="0.5" d="M240.96 108.77L270.87 138.68" stroke="#92C3CD" stroke-miterlimit="10"/>
</g>
<g opacity="0.5">
<path opacity="0.5" d="M253.27 201.87L177.42 222.19L197.74 146.34L253.27 201.87Z" stroke="#92C3CD" stroke-miterlimit="10"/>
<path opacity="0.5" d="M210.25 212.94L193.37 206.24L186.67 189.36L218.95 180.66L210.25 212.94Z" stroke="#92C3CD" stroke-miterlimit="10"/>
<path opacity="0.5" d="M177.42 222.19L209.47 190.14L253.27 201.87" stroke="#92C3CD" stroke-miterlimit="10"/>
<path opacity="0.5" d="M197.74 146.34L209.47 190.14" stroke="#92C3CD" stroke-miterlimit="10"/>
<path opacity="0.5" d="M210.61 213.3L186.31 189" stroke="#92C3CD" stroke-miterlimit="10"/>
</g>
<g opacity="0.5">
<path opacity="0.5" d="M266.33 318.03L359.71 293.01L334.69 386.39L266.33 318.03Z" stroke="#92C3CD" stroke-miterlimit="10"/>
<path opacity="0.5" d="M319.29 304.4L340.08 312.65L348.33 333.43L308.58 344.14L319.29 304.4Z" stroke="#92C3CD" stroke-miterlimit="10"/>
<path opacity="0.5" d="M359.71 293.01L320.25 332.47L266.33 318.03" stroke="#92C3CD" stroke-miterlimit="10"/>
<path opacity="0.5" d="M334.69 386.39L320.25 332.47" stroke="#92C3CD" stroke-miterlimit="10"/>
<path opacity="0.5" d="M318.86 303.96L348.77 333.87" stroke="#92C3CD" stroke-miterlimit="10"/>
</g>
<g opacity="0.5">
<path opacity="0.5" d="M277.29 158.65L395.58 126.95L363.88 245.24L277.29 158.65Z" stroke="#92C3CD" stroke-miterlimit="10"/>
<path opacity="0.5" d="M344.38 141.37L370.7 151.83L381.16 178.15L330.81 191.72L344.38 141.37Z" stroke="#92C3CD" stroke-miterlimit="10"/>
<path opacity="0.5" d="M395.58 126.95L345.59 176.94L277.29 158.65" stroke="#92C3CD" stroke-miterlimit="10"/>
<path opacity="0.5" d="M363.88 245.24L345.59 176.94" stroke="#92C3CD" stroke-miterlimit="10"/>
<path opacity="0.5" d="M343.82 140.82L381.71 178.71" stroke="#92C3CD" stroke-miterlimit="10"/>
</g>
<g opacity="0.5">
<path opacity="0.5" d="M360.16 124.5L278.65 146.34L300.49 64.83L360.16 124.5Z" stroke="#92C3CD" stroke-miterlimit="10"/>
<path opacity="0.5" d="M313.93 136.4L295.79 129.2L288.59 111.06L323.28 101.71L313.93 136.4Z" stroke="#92C3CD" stroke-miterlimit="10"/>
<path opacity="0.5" d="M278.65 146.34L313.1 111.9L360.16 124.5" stroke="#92C3CD" stroke-miterlimit="10"/>
<path opacity="0.5" d="M300.49 64.83L313.1 111.9" stroke="#92C3CD" stroke-miterlimit="10"/>
<path opacity="0.5" d="M314.32 136.78L288.21 110.68" stroke="#92C3CD" stroke-miterlimit="10"/>
</g>
</svg>
