<svg width="146" height="149" viewBox="0 0 146 149" fill="none" xmlns="http://www.w3.org/2000/svg">
<g opacity="0.75">
<path opacity="0.75" d="M140.2 1.25H1.41998V143.73H140.2V1.25Z" fill="#004543" stroke="#004543" stroke-width="2" stroke-miterlimit="10"/>
</g>
<path d="M144.2 5.25H5.41998V147.73H144.2V5.25Z" fill="white" stroke="#388D99" stroke-width="2" stroke-miterlimit="10"/>
<path d="M119.19 35.88V125.12H30V35.88H119.19ZM122.19 32.88H119.19H30H27V35.88V125.12V128.12H30H119.19H122.19V125.12V35.88V32.88Z" fill="#388D99"/>
<path d="M74.81 17.6899C107.28 17.6899 133.61 44.01 133.61 76.49C133.61 108.97 107.29 135.29 74.81 135.29C42.33 135.29 16.01 108.97 16.01 76.49C16.01 44.01 42.34 17.6899 74.81 17.6899ZM74.81 14.6899C40.73 14.6899 13.01 42.41 13.01 76.49C13.01 110.57 40.73 138.29 74.81 138.29C108.89 138.29 136.61 110.57 136.61 76.49C136.61 42.41 108.89 14.6899 74.81 14.6899Z" fill="#00423C"/>
<path d="M102.46 122.92C102.46 122.92 103.92 126.9 105.55 125.67C107.18 124.44 108.72 122.98 107.19 122.19C105.66 121.4 104.31 120.45 104.26 119.78C104.2 119.11 103.25 118.27 102.91 117.48C102.57 116.69 100.78 111.03 99.43 109.07C98.08 107.11 93.76 102.06 93.76 102.06C93.76 102.06 92.19 99.9799 91.52 98.6899C90.85 97.3999 85.69 87.8099 83.61 84.0999L82.94 78.0999C82.94 78.0999 82.15 76.2499 82.94 68.2299C82.94 68.2299 84.51 62.6199 85.13 61.8299C85.13 61.8299 87.04 59.75 91.64 59.92C96.24 60.09 98.37 60.26 98.37 60.26C98.37 60.26 100 60.5399 101.74 60.4799C103.48 60.4199 108.53 59.79 109.43 59.91C110.33 60.03 110.72 59.98 111.11 60.37C111.5 60.76 112.79 61.38 113.58 61.55C114.37 61.72 115.94 62.11 115.99 61.77C116.05 61.43 115.54 61.15 114.81 60.76C114.08 60.37 114.08 59.92 114.64 59.89C115.2 59.86 116.66 60.08 117.39 60.36C118.12 60.64 119.8 60.98 118.68 59.88C117.56 58.79 115.37 57.8899 115.15 57.8299C114.93 57.7699 112.85 57.77 111.95 57.61C111.05 57.44 107.74 56.7699 103.48 55.4799C103.48 55.4799 102.13 55.0299 97.76 54.9799H95.46L90.8 54.03L94.95 51.06C94.95 51.06 96.3 49.83 97.36 49.26C98.43 48.7 100.22 48.08 101.9 46.62C103.58 45.16 107.45 41.68 107.45 41.68C107.45 41.68 108.57 41.01 109.58 41.06C110.59 41.12 111.71 40.4399 112.27 40.2199C112.83 39.9999 114.23 39.15 113.56 39.04C112.89 38.93 111.82 39.49 111.6 39.04C111.38 38.59 113.56 37.4699 113.56 37.4699C113.56 37.4699 115.52 36.91 115.52 36.68C115.52 36.46 114.73 36.12 112.49 36.29C110.25 36.46 107.83 38.5899 107.83 38.5899L102.95 40.67C102.95 40.67 99.19 41.96 97.96 42.8C96.73 43.64 93.36 46.17 93.36 46.17L88.87 48.3C88.87 48.3 87.02 49.5299 86.4 50.2099C86.4 50.2099 84.16 50.66 82.02 52.4C82.02 52.4 80.73 52.9 79.94 52.51C79.15 52.12 77.47 51.11 77.81 48.81L78.31 47.41C78.31 47.41 79.21 47.7499 79.71 45.4499C80.21 43.1499 79.54 43.77 79.54 43.77L79.71 41.0799C79.71 41.0799 79.68 36.54 74.4 36.54V89.3299L75.11 89.39L76.13 106.56C76.13 106.56 76.57 109.14 76.9 110.88C76.9 110.88 77.35 113.12 77.24 113.8C77.13 114.47 76.85 119.63 77.35 122.94C77.85 126.25 77.07 127.76 77.07 127.76C77.07 127.76 76.96 128.32 77.07 129.16C77.07 129.16 75.56 134.6 79.15 133.87C79.15 133.87 82.18 133.81 81 131.4C79.82 128.99 80.27 128.31 80.44 128.09C80.61 127.87 80.61 126.24 80.72 125.34C80.83 124.44 82.01 120.4 82.01 120.4C82.01 120.4 82.91 117.43 82.68 113.16C82.46 108.9 81.89 106.65 82.06 105.31C82.23 103.96 83.29 98.3499 83.29 98.3499L88.23 104.52C88.23 104.52 91.93 108.17 92.44 108.84C92.95 109.51 95.81 114.67 99.9 118.32C99.9 118.32 100.74 119.55 100.91 120.28C101.08 121.01 101.58 121.63 101.86 122.02C102.14 122.41 102.46 122.92 102.46 122.92Z" fill="#92C3CD"/>
<path d="M46.78 122.92C46.78 122.92 45.32 126.9 43.69 125.67C42.06 124.44 40.52 122.98 42.05 122.19C43.58 121.4 44.93 120.45 44.98 119.78C45.04 119.11 45.99 118.27 46.33 117.48C46.67 116.69 48.46 111.03 49.81 109.07C51.16 107.11 55.48 102.06 55.48 102.06C55.48 102.06 57.0499 99.9799 57.7199 98.6899C58.3899 97.3999 63.55 87.8099 65.63 84.0999L66.3 78.0999C66.3 78.0999 67.09 76.2499 66.3 68.2299C66.3 68.2299 64.73 62.6199 64.11 61.8299C64.11 61.8299 62.2 59.75 57.6 59.92C53 60.09 50.87 60.26 50.87 60.26C50.87 60.26 49.24 60.5399 47.5 60.4799C45.76 60.4199 40.71 59.79 39.81 59.91C38.91 60.03 38.52 59.98 38.13 60.37C37.74 60.76 36.45 61.38 35.66 61.55C34.87 61.72 33.3 62.11 33.25 61.77C33.19 61.43 33.7 61.15 34.43 60.76C35.16 60.37 35.16 59.92 34.6 59.89C34.04 59.86 32.58 60.08 31.85 60.36C31.12 60.64 29.44 60.98 30.56 59.88C31.68 58.79 33.87 57.8899 34.09 57.8299C34.31 57.7699 36.39 57.77 37.29 57.61C38.19 57.44 41.5 56.7699 45.76 55.4799C45.76 55.4799 47.11 55.0299 51.48 54.9799H53.78L58.44 54.03L54.29 51.06C54.29 51.06 52.94 49.83 51.88 49.26C50.81 48.7 49.02 48.08 47.34 46.62C45.66 45.16 41.79 41.68 41.79 41.68C41.79 41.68 40.67 41.01 39.66 41.06C38.65 41.12 37.5299 40.4399 36.9699 40.2199C36.4099 39.9999 35.01 39.15 35.68 39.04C36.35 38.93 37.42 39.49 37.64 39.04C37.86 38.59 35.68 37.4699 35.68 37.4699C35.68 37.4699 33.7199 36.91 33.7199 36.68C33.7199 36.46 34.51 36.12 36.75 36.29C38.99 36.46 41.41 38.5899 41.41 38.5899L46.29 40.67C46.29 40.67 50.05 41.96 51.28 42.8C52.51 43.64 55.88 46.17 55.88 46.17L60.37 48.3C60.37 48.3 62.22 49.5299 62.84 50.2099C62.84 50.2099 65.0799 50.66 67.2199 52.4C67.2199 52.4 68.51 52.9 69.3 52.51C70.09 52.12 71.77 51.11 71.43 48.81L70.93 47.41C70.93 47.41 70.03 47.7499 69.53 45.4499C69.03 43.1499 69.7 43.77 69.7 43.77L69.53 41.0799C69.53 41.0799 69.56 36.54 74.84 36.54V89.3299L74.13 89.39L73.11 106.56C73.11 106.56 72.67 109.14 72.34 110.88C72.34 110.88 71.89 113.12 72 113.8C72.11 114.47 72.39 119.63 71.89 122.94C71.39 126.25 72.17 127.76 72.17 127.76C72.17 127.76 72.28 128.32 72.17 129.16C72.17 129.16 73.68 134.6 70.09 133.87C70.09 133.87 67.06 133.81 68.24 131.4C69.42 128.99 68.97 128.31 68.8 128.09C68.63 127.87 68.63 126.24 68.52 125.34C68.41 124.44 67.23 120.4 67.23 120.4C67.23 120.4 66.33 117.43 66.56 113.16C66.78 108.9 67.35 106.65 67.18 105.31C67.01 103.96 65.95 98.3499 65.95 98.3499L61.01 104.52C61.01 104.52 57.31 108.17 56.8 108.84C56.29 109.51 53.43 114.67 49.34 118.32C49.34 118.32 48.5 119.55 48.33 120.28C48.16 121.01 47.66 121.63 47.38 122.02C47.06 122.42 46.78 122.92 46.78 122.92Z" fill="#92C3CD"/>
<path d="M58.45 54.03C58.45 54.03 60.69 53.86 61.37 54.03C62.04 54.2 65.02 53.24 66.53 53.53C66.53 53.53 69.38 52.8901 70.22 51.9301C71.05 50.9701 71.81 49.66 70.91 47.42C70.91 47.42 69.84 47.5901 69.45 45.1801C69.06 42.7701 69.68 43.78 69.68 43.78L69.51 41.09C69.51 41.09 69.48 36.55 74.82 36.55V89.34H73.6L65.91 98.37L65.63 84.12L66.3 78.12C66.3 78.12 67.18 71.21 66.3 68.25C65.42 65.29 64.11 61.85 64.11 61.85C64.11 61.85 63.44 59.1601 63.55 58.4301C63.55 58.4101 61.42 55.77 58.45 54.03Z" fill="#388D99"/>
<path d="M91.18 54.03C91.18 54.03 88.94 53.86 88.26 54.03C87.59 54.2 84.61 53.24 83.1 53.53C83.1 53.53 80.25 52.8901 79.41 51.9301C78.58 50.9701 77.82 49.66 78.72 47.42C78.72 47.42 79.79 47.5901 80.18 45.1801C80.57 42.7701 79.95 43.78 79.95 43.78L80.12 41.09C80.12 41.09 80.15 36.55 74.81 36.55V89.34H76.03L83.72 98.37L84 84.12L83.33 78.12C83.33 78.12 82.45 71.21 83.33 68.25C84.21 65.29 85.52 61.85 85.52 61.85C85.52 61.85 86.19 59.1601 86.08 58.4301C86.07 58.4101 88.2 55.77 91.18 54.03Z" fill="#388D99"/>
</svg>
