<?xml version="1.0" encoding="utf-8"?>
<!-- Generator: Adobe Illustrator 23.0.1, SVG Export Plug-In . SVG Version: 6.00 Build 0)  -->
<svg version="1.1" id="Camada_1" xmlns="http://www.w3.org/2000/svg" xmlns:xlink="http://www.w3.org/1999/xlink" x="0px" y="0px"
	 viewBox="0 0 187.05 181.43" style="enable-background:new 0 0 187.05 181.43;" xml:space="preserve">
<style type="text/css">
	.st0{fill:url(#SVGID_1_);}
	.st1{fill:url(#SVGID_2_);}
	.st2{fill:url(#SVGID_3_);}
	.st3{fill:url(#SVGID_4_);}
	.st4{fill:url(#SVGID_5_);}
	.st5{fill:url(#SVGID_6_);}
	.st6{fill:url(#SVGID_7_);}
	.st7{fill:url(#SVGID_8_);}
	.st8{fill:url(#SVGID_9_);}
	.st9{fill:url(#SVGID_10_);}
	.st10{fill:url(#SVGID_11_);}
	.st11{fill:url(#SVGID_12_);}
	.st12{fill:url(#SVGID_13_);}
	.st13{fill:url(#SVGID_14_);}
	.st14{fill:url(#SVGID_15_);}
	.st15{fill:url(#SVGID_16_);}
	.st16{fill:url(#SVGID_17_);}
	.st17{fill:url(#SVGID_18_);}
	.st18{fill:url(#SVGID_19_);}
	.st19{fill:url(#SVGID_20_);}
	.st20{fill:url(#SVGID_21_);}
	.st21{fill:url(#SVGID_22_);}
	.st22{fill:url(#SVGID_23_);}
	.st23{fill:url(#SVGID_24_);}
	.st24{fill:url(#SVGID_25_);}
	.st25{fill:url(#SVGID_26_);}
	.st26{fill:url(#SVGID_27_);}
	.st27{fill:url(#SVGID_28_);}
	.st28{fill:url(#SVGID_29_);}
	.st29{fill:url(#SVGID_30_);}
	.st30{fill:url(#SVGID_31_);}
	.st31{fill:url(#SVGID_32_);}
	.st32{fill:url(#SVGID_33_);}
	.st33{fill:url(#SVGID_34_);}
	.st34{fill:url(#SVGID_35_);}
	.st35{fill:url(#SVGID_36_);}
	.st36{fill:url(#SVGID_37_);}
	.st37{fill:url(#SVGID_38_);}
	.st38{fill:url(#SVGID_39_);}
	.st39{fill:url(#SVGID_40_);}
	.st40{fill:url(#SVGID_41_);}
	.st41{fill:url(#SVGID_42_);}
	.st42{fill:url(#SVGID_43_);}
	.st43{fill:url(#SVGID_44_);}
	.st44{fill:url(#SVGID_45_);}
	.st45{fill:url(#SVGID_46_);}
	.st46{fill:url(#SVGID_47_);}
	.st47{fill:url(#SVGID_48_);}
	.st48{fill:url(#SVGID_49_);}
	.st49{fill:url(#SVGID_50_);}
	.st50{fill:url(#SVGID_51_);}
	.st51{clip-path:url(#SVGID_65_);fill:url(#SVGID_66_);}
	.st52{clip-path:url(#SVGID_65_);fill:url(#SVGID_67_);}
	.st53{clip-path:url(#SVGID_65_);fill:url(#SVGID_68_);}
	.st54{clip-path:url(#SVGID_65_);fill:url(#SVGID_69_);}
	.st55{clip-path:url(#SVGID_65_);fill:url(#SVGID_70_);}
	.st56{fill:none;stroke:#FFFFFF;stroke-miterlimit:10;}
	.st57{opacity:0.5;}
	.st58{fill:none;stroke:#FFFFFF;stroke-width:0.75;stroke-miterlimit:10;}
	.st59{fill:url(#SVGID_73_);}
	.st60{opacity:0.75;}
	.st61{fill:#004441;}
	.st62{fill:#008E9A;}
	.st63{fill:#003936;}
	.st64{fill:#FFFFFF;}
	.st65{fill:url(#SVGID_82_);}
	.st66{fill:url(#SVGID_83_);}
	.st67{fill:url(#SVGID_84_);}
	.st68{fill:url(#SVGID_85_);}
	.st69{fill:url(#SVGID_86_);}
	.st70{fill:url(#SVGID_87_);}
	.st71{fill:url(#SVGID_88_);}
	.st72{fill:url(#SVGID_89_);}
	.st73{fill:url(#SVGID_90_);}
	.st74{fill:url(#SVGID_91_);}
	.st75{fill:url(#SVGID_92_);}
	.st76{fill:#006D68;}
	.st77{fill:url(#SVGID_93_);}
	.st78{fill:url(#SVGID_94_);}
	.st79{fill:url(#SVGID_95_);}
	.st80{fill:url(#SVGID_96_);}
	.st81{fill:url(#SVGID_97_);}
	.st82{fill:url(#SVGID_98_);}
	.st83{fill:url(#SVGID_99_);}
	.st84{fill:url(#SVGID_100_);}
	.st85{fill:url(#SVGID_101_);}
	.st86{fill:url(#SVGID_102_);}
	.st87{fill:#005D57;}
	.st88{fill:#0096A4;}
	.st89{fill:none;stroke:#FFFFFF;stroke-width:2;stroke-miterlimit:10;}
	.st90{fill:none;stroke:#006D68;stroke-width:2;stroke-miterlimit:10;}
	.st91{fill:#004441;stroke:#004441;stroke-width:2;stroke-miterlimit:10;}
	.st92{fill:#FFFFFF;stroke:#008E9A;stroke-width:2;stroke-miterlimit:10;}
	.st93{fill:#004039;}
	.st94{fill:#C6E5EA;}
	.st95{fill:#79C4CF;}
	.st96{fill:#6CBFC4;}
	.st97{fill:#D2E9EC;}
	.st98{fill:#FADFD1;}
	.st99{fill:#EA7B59;}
	.st100{fill:#CFCFD9;}
	.st101{fill:#EC7E0B;}
	.st102{fill:#875B9F;}
	.st103{fill:#D24B51;}
	.st104{fill:#F5BB90;}
	.st105{fill:#54B8C0;}
	.st106{fill:#E5533A;}
	.st107{fill:#E3BC38;}
	.st108{fill:url(#SVGID_103_);}
	.st109{fill:url(#SVGID_104_);}
	.st110{fill:url(#SVGID_105_);}
	.st111{fill:url(#SVGID_106_);}
	.st112{fill:url(#SVGID_107_);}
	.st113{fill:url(#SVGID_108_);}
	.st114{fill:url(#SVGID_109_);}
	.st115{fill:url(#SVGID_110_);}
	.st116{fill:url(#SVGID_111_);}
	.st117{fill:url(#SVGID_112_);}
	.st118{fill:url(#SVGID_113_);}
	.st119{fill:url(#SVGID_114_);}
	.st120{fill:url(#SVGID_115_);}
	.st121{fill:url(#SVGID_116_);}
	.st122{fill:url(#SVGID_117_);}
	.st123{fill:url(#SVGID_118_);}
	.st124{fill:url(#SVGID_119_);}
	.st125{fill:url(#SVGID_120_);}
	.st126{fill:url(#SVGID_121_);}
	.st127{fill:url(#SVGID_122_);}
	.st128{fill:url(#SVGID_123_);}
	.st129{fill:url(#SVGID_124_);}
	.st130{fill:url(#SVGID_125_);}
	.st131{fill:url(#SVGID_126_);}
	.st132{fill:url(#SVGID_127_);}
	.st133{fill:url(#SVGID_128_);}
	.st134{fill:url(#SVGID_129_);}
	.st135{fill:url(#SVGID_130_);}
	.st136{fill:url(#SVGID_131_);}
	.st137{fill:url(#SVGID_132_);}
	.st138{fill:url(#SVGID_133_);}
	.st139{fill:url(#SVGID_134_);}
	.st140{fill:url(#SVGID_135_);}
	.st141{fill:url(#SVGID_136_);}
	.st142{fill:url(#SVGID_137_);}
	.st143{fill:url(#SVGID_138_);}
	.st144{fill:url(#SVGID_139_);}
	.st145{fill:url(#SVGID_140_);}
	.st146{fill:url(#SVGID_141_);}
	.st147{fill:url(#SVGID_142_);}
	.st148{fill:url(#SVGID_143_);}
	.st149{fill:url(#SVGID_144_);}
	.st150{fill:url(#SVGID_145_);}
	.st151{fill:url(#SVGID_146_);}
	.st152{fill:url(#SVGID_147_);}
	.st153{fill:url(#SVGID_148_);}
	.st154{fill:url(#SVGID_149_);}
	.st155{fill:url(#SVGID_150_);}
	.st156{fill:url(#SVGID_151_);}
	.st157{fill:url(#SVGID_152_);}
	.st158{fill:url(#SVGID_153_);}
	.st159{clip-path:url(#SVGID_167_);fill:url(#SVGID_168_);}
	.st160{clip-path:url(#SVGID_167_);fill:url(#SVGID_169_);}
	.st161{clip-path:url(#SVGID_167_);fill:url(#SVGID_170_);}
	.st162{clip-path:url(#SVGID_167_);fill:url(#SVGID_171_);}
	.st163{clip-path:url(#SVGID_167_);fill:url(#SVGID_172_);}
	.st164{fill:#A991B5;}
	.st165{fill:#EE8E34;}
	.st166{fill:#A07F0E;}
	.st167{fill:none;stroke:#54B8C0;stroke-width:4;stroke-miterlimit:10;}
	.st168{fill:none;stroke:#875B9F;stroke-width:5;stroke-miterlimit:10;}
	.st169{fill:#E76F80;}
	.st170{fill:#004745;}
</style>
<g>
	<g>
		<g class="st60">
			<rect x="20.14" y="15.48" class="st91" width="138.78" height="142.48"/>
		</g>
		<g>
			<g>
				<rect x="24.14" y="19.48" class="st92" width="138.78" height="142.48"/>
			</g>
		</g>
	</g>
	<g>
		<g>
			<rect x="48.71" y="50.11" class="st107" width="89.19" height="89.24"/>
			<rect x="48.71" y="50.11" class="st167" width="89.19" height="89.24"/>
			<circle class="st168" cx="93.53" cy="90.72" r="58.8"/>
			<path class="st169" d="M121.18,137.15c0,0,1.46,3.98,3.09,2.75c1.63-1.23,3.17-2.69,1.64-3.48s-2.88-1.74-2.93-2.41
				s-1.01-1.51-1.35-2.3s-2.13-6.45-3.48-8.41c-1.35-1.96-5.67-7.01-5.67-7.01s-1.57-2.08-2.24-3.37s-5.83-10.88-7.91-14.59l-0.67-6
				c0,0-0.79-1.85,0-9.87c0,0,1.57-5.61,2.19-6.4c0,0,1.91-2.08,6.51-1.91s6.73,0.34,6.73,0.34s1.63,0.28,3.37,0.22
				c1.74-0.06,6.79-0.69,7.69-0.57c0.9,0.12,1.29,0.07,1.68,0.46c0.39,0.39,1.68,1.01,2.47,1.18s2.36,0.56,2.41,0.22
				c0.06-0.34-0.45-0.62-1.18-1.01c-0.73-0.39-0.73-0.84-0.17-0.87s2.02,0.19,2.75,0.47c0.73,0.28,2.41,0.62,1.29-0.48
				s-3.31-1.99-3.53-2.05s-2.3-0.06-3.2-0.22c-0.9-0.17-4.21-0.84-8.47-2.13c0,0-1.35-0.45-5.72-0.5h-2.3l-4.66-0.95l4.15-2.97
				c0,0,1.35-1.23,2.41-1.8c1.07-0.56,2.86-1.18,4.54-2.64c1.68-1.46,5.55-4.94,5.55-4.94s1.12-0.67,2.13-0.62s2.13-0.62,2.69-0.84
				c0.56-0.22,1.96-1.07,1.29-1.18s-1.74,0.45-1.96,0s1.96-1.57,1.96-1.57s1.96-0.56,1.96-0.79s-0.79-0.56-3.03-0.39
				c-2.24,0.17-4.66,2.3-4.66,2.3l-4.88,2.08c0,0-3.76,1.29-4.99,2.13c-1.23,0.84-4.6,3.37-4.6,3.37l-4.49,2.13
				c0,0-1.85,1.23-2.47,1.91c0,0-2.24,0.45-4.38,2.19c0,0-1.29,0.5-2.08,0.11s-2.47-1.4-2.13-3.7l0.5-1.4c0,0,0.9,0.34,1.4-1.96
				s-0.17-1.68-0.17-1.68l0.17-2.69c0,0-0.03-4.54-5.31-4.54v52.79l0.71,0.06l1.02,17.17c0,0,0.44,2.58,0.77,4.32
				c0,0,0.45,2.24,0.34,2.92c-0.11,0.67-0.39,5.83,0.11,9.14c0.5,3.31-0.28,4.82-0.28,4.82s-0.11,0.56,0,1.4
				c0,0-1.51,5.44,2.08,4.71c0,0,3.03-0.06,1.85-2.47c-1.18-2.41-0.73-3.09-0.56-3.31s0.17-1.85,0.28-2.75s1.29-4.94,1.29-4.94
				s0.9-2.97,0.67-7.24c-0.22-4.26-0.79-6.51-0.62-7.85c0.17-1.35,1.23-6.96,1.23-6.96l4.94,6.17c0,0,3.7,3.65,4.21,4.32
				c0.5,0.67,3.37,5.83,7.46,9.48c0,0,0.84,1.23,1.01,1.96c0.17,0.73,0.67,1.35,0.95,1.74C120.9,136.64,121.18,137.15,121.18,137.15
				z"/>
			<path class="st169" d="M65.49,137.15c0,0-1.46,3.98-3.09,2.75c-1.63-1.23-3.17-2.69-1.64-3.48s2.88-1.74,2.93-2.41
				s1.01-1.51,1.35-2.3c0.34-0.79,2.13-6.45,3.48-8.41c1.35-1.96,5.67-7.01,5.67-7.01s1.57-2.08,2.24-3.37s5.83-10.88,7.91-14.59
				l0.67-6c0,0,0.79-1.85,0-9.87c0,0-1.57-5.61-2.19-6.4c0,0-1.91-2.08-6.51-1.91s-6.73,0.34-6.73,0.34s-1.63,0.28-3.37,0.22
				c-1.74-0.06-6.79-0.69-7.69-0.57c-0.9,0.12-1.29,0.07-1.68,0.46s-1.68,1.01-2.47,1.18s-2.36,0.56-2.41,0.22s0.45-0.62,1.18-1.01
				c0.73-0.39,0.73-0.84,0.17-0.87c-0.56-0.03-2.02,0.19-2.75,0.47s-2.41,0.62-1.29-0.48c1.12-1.09,3.31-1.99,3.53-2.05
				s2.3-0.06,3.2-0.22c0.9-0.17,4.21-0.84,8.47-2.13c0,0,1.35-0.45,5.72-0.5h2.3l4.66-0.95l-4.15-2.97c0,0-1.35-1.23-2.41-1.8
				s-2.86-1.18-4.54-2.64c-1.68-1.46-5.55-4.94-5.55-4.94s-1.12-0.67-2.13-0.62c-1.01,0.06-2.13-0.62-2.69-0.84
				c-0.56-0.22-1.96-1.07-1.29-1.18s1.74,0.45,1.96,0s-1.96-1.57-1.96-1.57s-1.96-0.56-1.96-0.79s0.79-0.56,3.03-0.39
				s4.66,2.3,4.66,2.3l4.88,2.08c0,0,3.76,1.29,4.99,2.13c1.23,0.84,4.6,3.37,4.6,3.37l4.49,2.13c0,0,1.85,1.23,2.47,1.91
				c0,0,2.24,0.45,4.38,2.19c0,0,1.29,0.5,2.08,0.11s2.47-1.4,2.13-3.7l-0.5-1.4c0,0-0.9,0.34-1.4-1.96s0.17-1.68,0.17-1.68
				l-0.17-2.69c0,0,0.03-4.54,5.31-4.54v52.79l-0.71,0.06l-1.02,17.17c0,0-0.44,2.58-0.77,4.32c0,0-0.45,2.24-0.34,2.92
				c0.11,0.67,0.39,5.83-0.11,9.14c-0.5,3.31,0.28,4.82,0.28,4.82s0.11,0.56,0,1.4c0,0,1.51,5.44-2.08,4.71c0,0-3.03-0.06-1.85-2.47
				c1.18-2.41,0.73-3.09,0.56-3.31s-0.17-1.85-0.28-2.75s-1.29-4.94-1.29-4.94s-0.9-2.97-0.67-7.24c0.22-4.26,0.79-6.51,0.62-7.85
				c-0.17-1.35-1.23-6.96-1.23-6.96l-4.94,6.17c0,0-3.7,3.65-4.21,4.32c-0.5,0.67-3.37,5.83-7.46,9.48c0,0-0.84,1.23-1.01,1.96
				c-0.17,0.73-0.67,1.35-0.95,1.74C65.77,136.64,65.49,137.15,65.49,137.15z"/>
			<path class="st103" d="M77.16,68.26c0,0,2.24-0.17,2.92,0c0.67,0.17,3.65-0.79,5.16-0.5c0,0,2.85-0.64,3.69-1.6
				c0.83-0.96,1.59-2.27,0.69-4.51c0,0-1.07,0.17-1.46-2.24s0.23-1.4,0.23-1.4l-0.17-2.69c0,0-0.03-4.54,5.31-4.54v52.79h-1.22
				l-7.69,9.03l-0.28-14.25l0.67-6c0,0,0.88-6.91,0-9.87c-0.88-2.96-2.19-6.4-2.19-6.4s-0.67-2.69-0.56-3.42
				C82.27,72.63,80.13,70,77.16,68.26z"/>
			<path class="st103" d="M109.89,68.26c0,0-2.24-0.17-2.92,0c-0.67,0.17-3.65-0.79-5.16-0.5c0,0-2.85-0.64-3.69-1.6
				c-0.83-0.96-1.59-2.27-0.69-4.51c0,0,1.07,0.17,1.46-2.24s-0.23-1.4-0.23-1.4l0.17-2.69c0,0,0.03-4.54-5.31-4.54v52.79h1.22
				l7.69,9.03l0.28-14.25l-0.67-6c0,0-0.88-6.91,0-9.87c0.88-2.96,2.19-6.4,2.19-6.4s0.67-2.69,0.56-3.42
				C104.79,72.63,106.92,70,109.89,68.26z"/>
		</g>
	</g>
</g>
</svg>
