<svg width="302" height="370" viewBox="0 0 302 370" fill="none" xmlns="http://www.w3.org/2000/svg">
<path d="M301.62 0H0V369.68H301.62V0Z" fill="url(#paint0_linear)"/>
<path d="M301.13 6.65991H6.54999V369.17H301.13V6.65991Z" fill="white"/>
<path d="M300.63 7.15991V368.67H7.04999V7.15991H300.63ZM301.63 6.15991H6.04999V369.67H301.63V6.15991Z" fill="#388D99"/>
<path d="M301.63 369.67V323.22L255.69 369.67H301.63Z" fill="#004947"/>
<path d="M90.2 49.62C88.53 49.84 88.09 50.06 87.18 52.33C86.49 54.03 83.2 62.01 81.86 65.4H80.94C79.61 61.75 77.26 55.41 75.9 51.9C75.19 50.05 74.78 49.77 73.24 49.62V48.88H79.82V49.62C77.97 49.83 77.89 50.11 78.25 51.05C78.9 52.92 80.74 57.93 82.18 61.73C83.54 58.44 85.13 54.49 86.2 51.62C86.76 50.12 86.49 49.87 84.43 49.62V48.88H90.21V49.62H90.2Z" fill="#388D99"/>
<path d="M90.41 65.13V64.39C92.43 64.17 92.64 64.06 92.64 61.94V52.09C92.64 49.95 92.43 49.83 90.41 49.62V48.88H97.29V49.62C95.25 49.84 95.04 49.95 95.04 52.09V61.94C95.04 64.08 95.24 64.16 97.29 64.39V65.13H90.41Z" fill="#388D99"/>
<path d="M99.37 52.58C100.61 52.06 101.36 51.3 101.36 50.48C101.36 49.59 100.5 49.29 99.66 49.13C99.49 49.1 99.3 48.77 99.3 48.4C99.3 47.73 99.82 47.22 100.65 47.22C101.78 47.22 102.92 48.13 102.92 49.83C102.92 51.69 101.32 52.87 99.68 53.33L99.37 52.58Z" fill="#388D99"/>
<path d="M111.23 57.16C110.74 55.66 110.06 54.6901 108.6 54.6901C107.76 54.6901 107.09 55.2901 107.09 56.2601C107.09 57.3001 107.8 57.7901 109.18 58.4301C111.31 59.4301 112.44 60.2 112.44 61.91C112.44 64.24 110.29 65.4301 108.28 65.4301C106.98 65.4301 105.79 65.01 105.27 64.72C105.15 64.02 104.92 62.5901 104.83 61.7501L105.57 61.6201C106.03 63.2201 106.93 64.55 108.66 64.55C109.61 64.55 110.35 63.91 110.35 62.92C110.35 61.86 109.73 61.2801 108.36 60.6201C106.63 59.7801 105.17 58.9701 105.17 57.1201C105.17 55.2701 106.73 53.8401 109.14 53.8401C110.22 53.8401 111.08 54.09 111.59 54.17C111.67 54.78 111.85 56.36 111.97 56.98L111.23 57.16Z" fill="#388D99"/>
<path d="M130.86 54.84C129.51 55.02 129.33 55.24 128.7 56.68C127.87 58.68 126.46 61.96 125.13 65.41H124.35C123.26 62.49 122.05 59.53 120.87 56.61C120.32 55.23 120.11 55.05 118.81 54.85V54.14H124.12V54.85C122.79 55.03 122.72 55.21 123.1 56.24C123.72 57.96 124.75 60.57 125.39 62.19C126.2 60.17 127.03 58.1 127.59 56.47C127.98 55.33 127.91 55.02 126.28 54.85V54.14H130.86V54.84Z" fill="#388D99"/>
<path d="M131.14 65.13V64.4C132.67 64.25 132.84 64.12 132.84 62.41V57.31C132.84 55.74 132.76 55.64 131.32 55.41V54.77C132.67 54.55 133.92 54.23 135.04 53.79C135.04 54.84 135.04 55.88 135.04 56.93V62.42C135.04 64.12 135.2 64.25 136.79 64.41V65.14H131.14V65.13ZM133.8 51.51C133.06 51.51 132.39 50.85 132.39 50.1C132.39 49.26 133.06 48.65 133.83 48.65C134.58 48.65 135.2 49.26 135.2 50.1C135.19 50.85 134.58 51.51 133.8 51.51Z" fill="#388D99"/>
<path d="M144.66 57.16C144.17 55.66 143.49 54.6901 142.03 54.6901C141.19 54.6901 140.52 55.2901 140.52 56.2601C140.52 57.3001 141.23 57.7901 142.61 58.4301C144.74 59.4301 145.87 60.2 145.87 61.91C145.87 64.24 143.72 65.4301 141.71 65.4301C140.41 65.4301 139.22 65.01 138.7 64.72C138.58 64.02 138.35 62.5901 138.26 61.7501L139 61.6201C139.46 63.2201 140.36 64.55 142.09 64.55C143.04 64.55 143.78 63.91 143.78 62.92C143.78 61.86 143.16 61.2801 141.79 60.6201C140.06 59.7801 138.6 58.9701 138.6 57.1201C138.6 55.2701 140.16 53.8401 142.57 53.8401C143.65 53.8401 144.51 54.09 145.02 54.17C145.1 54.78 145.28 56.36 145.4 56.98L144.66 57.16Z" fill="#388D99"/>
<path d="M147.44 65.13V64.4C148.97 64.25 149.14 64.12 149.14 62.41V57.31C149.14 55.74 149.06 55.64 147.62 55.41V54.77C148.97 54.55 150.22 54.23 151.34 53.79C151.34 54.84 151.34 55.88 151.34 56.93V62.42C151.34 64.12 151.5 64.25 153.09 64.41V65.14H147.44V65.13ZM150.1 51.51C149.36 51.51 148.69 50.85 148.69 50.1C148.69 49.26 149.36 48.65 150.13 48.65C150.88 48.65 151.5 49.26 151.5 50.1C151.49 50.85 150.88 51.51 150.1 51.51Z" fill="#388D99"/>
<path d="M160.09 53.8301C163.29 53.8301 165.59 56.2501 165.59 59.4401C165.59 63.4801 162.61 65.4301 160.07 65.4301C156.56 65.4301 154.45 62.6401 154.45 59.8201C154.45 55.7901 157.62 53.8301 160.09 53.8301ZM159.79 54.7101C158.35 54.7101 157.03 56.12 157.03 59.05C157.03 62.21 158.36 64.5201 160.33 64.5201C161.77 64.5201 163.02 63.4801 163.02 60.0201C163.01 57.0001 161.87 54.7101 159.79 54.7101Z" fill="#388D99"/>
<path d="M174.49 65.13V64.4C175.87 64.25 176 64.09 176 62.38V58.23C176 56.48 175.33 55.41 173.82 55.41C172.86 55.41 171.96 55.95 171.21 56.61V62.49C171.21 64.18 171.35 64.24 172.74 64.39V65.12H167.27V64.39C168.86 64.21 169.01 64.12 169.01 62.47V57.31C169.01 55.71 168.83 55.63 167.53 55.41V54.73C168.8 54.53 170.11 54.21 171.22 53.74C171.22 54.28 171.21 55.09 171.21 55.68C171.71 55.33 172.25 54.96 172.89 54.54C173.6 54.09 174.22 53.81 174.94 53.81C176.94 53.81 178.2 55.28 178.2 57.73V62.47C178.2 64.14 178.35 64.22 179.75 64.37V65.1H174.49V65.13Z" fill="#388D99"/>
<path d="M186.97 65.13V64.4C188.5 64.25 188.67 64.12 188.67 62.41V57.31C188.67 55.74 188.59 55.64 187.15 55.41V54.77C188.5 54.55 189.75 54.23 190.87 53.79C190.87 54.84 190.87 55.88 190.87 56.93V62.42C190.87 64.12 191.03 64.25 192.62 64.41V65.14H186.97V65.13ZM189.62 51.51C188.88 51.51 188.21 50.85 188.21 50.1C188.21 49.26 188.88 48.65 189.65 48.65C190.4 48.65 191.02 49.26 191.02 50.1C191.02 50.85 190.4 51.51 189.62 51.51Z" fill="#388D99"/>
<path d="M200.48 57.16C199.99 55.66 199.31 54.6901 197.85 54.6901C197.01 54.6901 196.34 55.2901 196.34 56.2601C196.34 57.3001 197.05 57.7901 198.43 58.4301C200.56 59.4301 201.69 60.2 201.69 61.91C201.69 64.24 199.54 65.4301 197.53 65.4301C196.23 65.4301 195.04 65.01 194.52 64.72C194.4 64.02 194.17 62.5901 194.08 61.7501L194.82 61.6201C195.28 63.2201 196.18 64.55 197.91 64.55C198.86 64.55 199.6 63.91 199.6 62.92C199.6 61.86 198.98 61.2801 197.61 60.6201C195.88 59.7801 194.42 58.9701 194.42 57.1201C194.42 55.2701 195.98 53.8401 198.39 53.8401C199.47 53.8401 200.33 54.09 200.84 54.17C200.92 54.78 201.1 56.36 201.22 56.98L200.48 57.16Z" fill="#388D99"/>
<path d="M214.06 65.11C213.64 65.33 213.24 65.4301 213 65.4301C211.34 65.4301 210.44 64.47 210.44 62.42V55.2001H208.74L208.63 54.9001L209.31 54.1301H210.44V52.04C210.98 51.52 211.8 50.8501 212.34 50.3301L212.71 50.41C212.66 51.39 212.63 52.8201 212.64 54.1401H215.43C215.65 54.3901 215.58 54.9801 215.27 55.2101H212.64V61.5601C212.64 63.5701 213.44 63.92 214.06 63.92C214.63 63.92 215.16 63.72 215.53 63.55L215.76 64.2501L214.06 65.11Z" fill="#388D99"/>
<path d="M222.56 53.8301C225.76 53.8301 228.06 56.2501 228.06 59.4401C228.06 63.4801 225.08 65.4301 222.54 65.4301C219.03 65.4301 216.92 62.6401 216.92 59.8201C216.93 55.7901 220.1 53.8301 222.56 53.8301ZM222.26 54.7101C220.82 54.7101 219.5 56.12 219.5 59.05C219.5 62.21 220.83 64.5201 222.8 64.5201C224.24 64.5201 225.49 63.4801 225.49 60.0201C225.49 57.0001 224.34 54.7101 222.26 54.7101Z" fill="#388D99"/>
<path d="M42.66 90.67C43.86 90.49 45.23 90.0601 46.46 89.5901C46.46 90.1801 46.46 90.97 46.46 91.55C46.53 91.5 48.46 90.3901 48.56 90.3401C49.16 90.0101 49.69 89.8401 50.04 89.8401C52.79 89.8401 54.45 92.1801 54.45 94.6401C54.45 98.4101 51.47 100.82 48.2 101.43C47.47 101.41 46.82 101.21 46.46 101.02V104.33C46.46 106.1 46.65 106.25 48.53 106.43V107.15H42.47V106.43C44.08 106.26 44.26 106.12 44.26 104.5V93.17C44.26 91.7 44.19 91.5901 42.66 91.3801V90.67ZM46.46 99.2401C47.02 99.8001 47.98 100.21 48.78 100.21C50.8 100.21 52.12 98.4201 52.12 95.6401C52.12 92.8701 50.55 91.41 48.87 91.41C48.04 91.41 47.08 91.9301 46.45 92.3901V99.2401H46.46Z" fill="#388D99"/>
<path d="M62.15 101.13H56.25V100.4C57.78 100.25 57.92 100.12 57.92 98.52V93.27C57.92 91.69 57.82 91.61 56.42 91.42V90.77C57.7 90.57 58.88 90.27 60.12 89.76C60.12 90.59 60.12 91.68 60.12 92.5C61.04 91.12 62.06 89.83 63.27 89.83C64.19 89.83 64.75 90.41 64.75 91.08C64.75 91.77 64.26 92.35 63.82 92.59C63.55 92.74 63.34 92.7 63.15 92.53C62.77 92.16 62.46 91.88 62.02 91.88C61.52 91.88 60.65 92.57 60.12 93.79V98.5C60.12 100.12 60.25 100.24 62.15 100.4V101.13Z" fill="#388D99"/>
<path d="M71.44 89.8301C74.64 89.8301 76.94 92.2501 76.94 95.4401C76.94 99.4801 73.96 101.43 71.42 101.43C67.91 101.43 65.8 98.6401 65.8 95.8201C65.8 91.7901 68.97 89.8301 71.44 89.8301ZM71.14 90.7101C69.7 90.7101 68.38 92.12 68.38 95.05C68.38 98.21 69.71 100.52 71.68 100.52C73.12 100.52 74.37 99.4801 74.37 96.0201C74.36 93.0001 73.22 90.7101 71.14 90.7101Z" fill="#388D99"/>
<path d="M89.71 90.84C88.36 91.02 88.18 91.24 87.55 92.68C86.72 94.68 85.31 97.96 83.98 101.41H83.2C82.11 98.49 80.9 95.53 79.72 92.61C79.17 91.23 78.96 91.05 77.66 90.85V90.14H82.97V90.85C81.64 91.03 81.57 91.21 81.95 92.24C82.57 93.96 83.6 96.57 84.24 98.19C85.05 96.17 85.88 94.1 86.44 92.47C86.83 91.33 86.76 91.02 85.13 90.85V90.14H89.71V90.84V90.84Z" fill="#388D99"/>
<path d="M89.99 101.13V100.4C91.52 100.25 91.69 100.12 91.69 98.41V93.31C91.69 91.74 91.61 91.64 90.17 91.41V90.77C91.52 90.55 92.77 90.23 93.89 89.79C93.89 90.84 93.89 91.88 93.89 92.93V98.42C93.89 100.12 94.05 100.25 95.64 100.41V101.14H89.99V101.13ZM92.65 87.51C91.91 87.51 91.24 86.85 91.24 86.1C91.24 85.26 91.91 84.65 92.68 84.65C93.43 84.65 94.05 85.26 94.05 86.1C94.04 86.85 93.43 87.51 92.65 87.51Z" fill="#388D99"/>
<path d="M109.19 100.5C108.65 100.6 106.7 100.9 105.13 101.43C105.13 100.91 105.13 100.36 105.13 99.84C104.68 100.12 104.03 100.47 103.58 100.75C102.65 101.29 102.03 101.42 101.74 101.42C99.72 101.42 97 99.45 97 95.91C97 92.45 100.04 89.82 103.55 89.82C103.87 89.82 104.62 89.86 105.12 90.06V86.53C105.12 84.98 104.95 84.92 103.22 84.76V84.08C104.54 83.91 106.34 83.56 107.32 83.23C107.32 84.16 107.32 85.22 107.32 86.26V98.18C107.32 99.49 107.49 99.65 108.42 99.72L109.17 99.77V100.5H109.19ZM105.13 92.11C104.61 91.27 103.61 90.84 102.64 90.84C101.52 90.84 99.47 91.59 99.47 95.19C99.47 98.26 101.34 99.79 102.85 99.81C103.67 99.81 104.54 99.43 105.13 99V92.11Z" fill="#388D99"/>
<path d="M119.66 98.9501C118.07 100.99 116.28 101.43 115.43 101.43C112.33 101.43 110.47 98.93 110.47 96.04C110.47 94.33 111.11 92.7301 112.14 91.6401C113.2 90.4701 114.58 89.8301 115.9 89.8301C118.12 89.8301 119.78 91.7301 119.78 93.7401C119.76 94.2301 119.69 94.4901 119.31 94.5801C118.81 94.6801 115.56 94.9001 112.68 95.0001C112.64 98.2201 114.58 99.5901 116.36 99.5901C117.38 99.5901 118.33 99.1801 119.25 98.3401L119.66 98.9501ZM115.32 90.8C114.2 90.8 113.12 91.89 112.81 93.91C114.14 93.91 115.46 93.9001 116.86 93.8401C117.29 93.8401 117.44 93.7201 117.44 93.3401C117.46 92.0201 116.64 90.8 115.32 90.8Z" fill="#388D99"/>
<path d="M136.54 98.85C135.43 100.34 133.76 101.43 132.25 101.43C129.03 101.43 127.13 98.85 127.13 96.16C127.13 94.21 128 92.5401 129.66 91.2801C131.04 90.2201 132.56 89.8301 133.56 89.8301C134.65 89.8301 135.47 90.1701 135.86 90.4901C136.21 90.7601 136.27 90.9601 136.27 91.2501C136.27 91.8701 135.63 92.42 135.33 92.42C135.2 92.42 135.08 92.37 134.84 92.17C134.01 91.43 133.16 91.0801 132.3 91.0801C130.77 91.0801 129.37 92.4001 129.37 95.0201C129.35 98.4701 131.73 99.6 133.12 99.6C134.17 99.6 135 99.3301 136.1 98.2801L136.54 98.85Z" fill="#388D99"/>
<path d="M137.39 101.13V100.4C138.96 100.24 139.13 100.11 139.13 98.48V86.62C139.13 85.14 139 84.99 137.46 84.77V84.09C138.88 83.94 140.46 83.55 141.33 83.24C141.33 84.41 141.33 85.59 141.33 86.76V98.48C141.33 100.13 141.47 100.25 143.06 100.4V101.13H137.39Z" fill="#388D99"/>
<path d="M144.34 101.13V100.4C145.87 100.25 146.04 100.12 146.04 98.41V93.31C146.04 91.74 145.96 91.64 144.52 91.41V90.77C145.87 90.55 147.12 90.23 148.24 89.79C148.24 90.84 148.24 91.88 148.24 92.93V98.42C148.24 100.12 148.4 100.25 149.99 100.41V101.14H144.34V101.13ZM147 87.51C146.26 87.51 145.59 86.85 145.59 86.1C145.59 85.26 146.26 84.65 147.03 84.65C147.78 84.65 148.4 85.26 148.4 86.1C148.39 86.85 147.78 87.51 147 87.51Z" fill="#388D99"/>
<path d="M160.54 98.9501C158.95 100.99 157.16 101.43 156.31 101.43C153.21 101.43 151.35 98.93 151.35 96.04C151.35 94.33 151.99 92.7301 153.02 91.6401C154.08 90.4701 155.46 89.8301 156.78 89.8301C159 89.8301 160.66 91.7301 160.66 93.7401C160.64 94.2301 160.57 94.4901 160.19 94.5801C159.69 94.6801 156.44 94.9001 153.56 95.0001C153.52 98.2201 155.46 99.5901 157.24 99.5901C158.26 99.5901 159.21 99.1801 160.13 98.3401L160.54 98.9501ZM156.2 90.8C155.08 90.8 154 91.89 153.69 93.91C155.02 93.91 156.34 93.9001 157.74 93.8401C158.17 93.8401 158.32 93.7201 158.32 93.3401C158.34 92.0201 157.52 90.8 156.2 90.8Z" fill="#388D99"/>
<path d="M169.29 101.13V100.4C170.67 100.25 170.8 100.09 170.8 98.38V94.23C170.8 92.48 170.13 91.41 168.62 91.41C167.66 91.41 166.76 91.95 166.01 92.61V98.49C166.01 100.18 166.15 100.24 167.54 100.39V101.12H162.07V100.39C163.66 100.21 163.81 100.12 163.81 98.47V93.31C163.81 91.71 163.63 91.63 162.33 91.41V90.73C163.6 90.53 164.91 90.21 166.02 89.74C166.02 90.28 166.01 91.09 166.01 91.68C166.51 91.33 167.05 90.96 167.69 90.54C168.4 90.09 169.02 89.81 169.74 89.81C171.74 89.81 173 91.28 173 93.73V98.47C173 100.14 173.15 100.22 174.55 100.37V101.1H169.29V101.13Z" fill="#388D99"/>
<path d="M181.01 101.11C180.59 101.33 180.19 101.43 179.95 101.43C178.29 101.43 177.39 100.47 177.39 98.42V91.2001H175.69L175.58 90.9001L176.26 90.1301H177.39V88.04C177.93 87.52 178.75 86.8501 179.29 86.3301L179.66 86.41C179.61 87.39 179.58 88.8201 179.59 90.1401H182.38C182.6 90.3901 182.53 90.9801 182.22 91.2101H179.59V97.5601C179.59 99.5701 180.39 99.92 181.01 99.92C181.58 99.92 182.11 99.72 182.48 99.55L182.71 100.25L181.01 101.11Z" fill="#388D99"/>
<path d="M190.38 93.16C189.89 91.66 189.21 90.6901 187.75 90.6901C186.91 90.6901 186.24 91.2901 186.24 92.2601C186.24 93.3001 186.95 93.7901 188.33 94.4301C190.46 95.4301 191.59 96.2 191.59 97.91C191.59 100.24 189.44 101.43 187.43 101.43C186.13 101.43 184.94 101.01 184.42 100.72C184.3 100.02 184.07 98.5901 183.98 97.7501L184.72 97.6201C185.18 99.2201 186.08 100.55 187.81 100.55C188.76 100.55 189.5 99.91 189.5 98.92C189.5 97.86 188.88 97.2801 187.51 96.6201C185.78 95.7801 184.32 94.9701 184.32 93.1201C184.32 91.2701 185.88 89.8401 188.29 89.8401C189.37 89.8401 190.23 90.09 190.74 90.17C190.82 90.78 191 92.36 191.12 92.98L190.38 93.16Z" fill="#388D99"/>
<path d="M207.05 101.43C206.62 101.43 206.07 101.23 205.81 100.95C205.48 100.63 205.33 100.28 205.2 99.86C204.21 100.53 202.98 101.43 202.26 101.43C200.42 101.43 199.15 99.9201 199.15 98.3301C199.15 97.0901 199.81 96.3201 201.18 95.8401C202.7 95.3101 204.59 94.6701 205.14 94.2101V93.6C205.14 91.91 204.32 90.9401 203.06 90.9401C202.51 90.9401 202.16 91.2001 201.92 91.5001C201.64 91.8601 201.48 92.4001 201.26 93.1301C201.13 93.5801 200.87 93.7501 200.47 93.7501C199.96 93.7501 199.3 93.23 199.3 92.61C199.3 92.24 199.62 91.9401 200.13 91.5801C200.93 91.0101 202.38 90.1301 203.8 89.8301C204.59 89.8301 205.38 90.0601 205.99 90.5101C206.9 91.2601 207.28 92.1501 207.28 93.4401V98.17C207.28 99.33 207.7 99.67 208.14 99.67C208.43 99.67 208.74 99.55 209.02 99.41L209.27 100.14L207.05 101.43ZM205.14 95.11C204.61 95.38 203.54 95.86 202.98 96.11C202.06 96.53 201.51 97 201.51 97.91C201.51 99.25 202.51 99.8301 203.26 99.8301C203.86 99.8301 204.66 99.5001 205.14 99.0201C205.14 97.8501 205.14 96.28 205.14 95.11Z" fill="#388D99"/>
<path d="M219.81 98.85C218.7 100.34 217.03 101.43 215.52 101.43C212.3 101.43 210.4 98.85 210.4 96.16C210.4 94.21 211.27 92.5401 212.93 91.2801C214.31 90.2201 215.83 89.8301 216.83 89.8301C217.92 89.8301 218.74 90.1701 219.13 90.4901C219.48 90.7601 219.54 90.9601 219.54 91.2501C219.54 91.8701 218.9 92.42 218.6 92.42C218.47 92.42 218.35 92.37 218.11 92.17C217.28 91.43 216.43 91.0801 215.57 91.0801C214.04 91.0801 212.64 92.4001 212.64 95.0201C212.62 98.4701 215 99.6 216.39 99.6C217.44 99.6 218.27 99.3301 219.37 98.2801L219.81 98.85Z" fill="#388D99"/>
<path d="M230.54 98.85C229.43 100.34 227.76 101.43 226.25 101.43C223.03 101.43 221.13 98.85 221.13 96.16C221.13 94.21 222 92.5401 223.66 91.2801C225.04 90.2201 226.56 89.8301 227.56 89.8301C228.65 89.8301 229.47 90.1701 229.86 90.4901C230.21 90.7601 230.27 90.9601 230.27 91.2501C230.27 91.8701 229.63 92.42 229.33 92.42C229.2 92.42 229.08 92.37 228.84 92.17C228.01 91.43 227.16 91.0801 226.3 91.0801C224.77 91.0801 223.37 92.4001 223.37 95.0201C223.35 98.4701 225.73 99.6 227.12 99.6C228.17 99.6 229 99.3301 230.1 98.2801L230.54 98.85Z" fill="#388D99"/>
<path d="M241.04 98.9501C239.45 100.99 237.66 101.43 236.81 101.43C233.71 101.43 231.85 98.93 231.85 96.04C231.85 94.33 232.49 92.7301 233.52 91.6401C234.58 90.4701 235.96 89.8301 237.28 89.8301C239.5 89.8301 241.16 91.7301 241.16 93.7401C241.14 94.2301 241.07 94.4901 240.69 94.5801C240.19 94.6801 236.94 94.9001 234.06 95.0001C234.02 98.2201 235.96 99.5901 237.74 99.5901C238.76 99.5901 239.71 99.1801 240.63 98.3401L241.04 98.9501ZM236.69 90.8C235.57 90.8 234.49 91.89 234.18 93.91C235.51 93.91 236.83 93.9001 238.23 93.8401C238.66 93.8401 238.81 93.7201 238.81 93.3401C238.84 92.0201 238.02 90.8 236.69 90.8Z" fill="#388D99"/>
<path d="M249.23 93.16C248.74 91.66 248.06 90.6901 246.6 90.6901C245.76 90.6901 245.09 91.2901 245.09 92.2601C245.09 93.3001 245.8 93.7901 247.18 94.4301C249.31 95.4301 250.44 96.2 250.44 97.91C250.44 100.24 248.29 101.43 246.28 101.43C244.98 101.43 243.79 101.01 243.27 100.72C243.15 100.02 242.92 98.5901 242.83 97.7501L243.57 97.6201C244.03 99.2201 244.93 100.55 246.66 100.55C247.61 100.55 248.35 99.91 248.35 98.92C248.35 97.86 247.73 97.2801 246.36 96.6201C244.63 95.7801 243.17 94.9701 243.17 93.1201C243.17 91.2701 244.73 89.8401 247.14 89.8401C248.22 89.8401 249.08 90.09 249.59 90.17C249.67 90.78 249.85 92.36 249.97 92.98L249.23 93.16Z" fill="#388D99"/>
<path d="M258.66 93.16C258.17 91.66 257.49 90.6901 256.03 90.6901C255.19 90.6901 254.52 91.2901 254.52 92.2601C254.52 93.3001 255.23 93.7901 256.61 94.4301C258.74 95.4301 259.87 96.2 259.87 97.91C259.87 100.24 257.72 101.43 255.71 101.43C254.41 101.43 253.22 101.01 252.7 100.72C252.58 100.02 252.35 98.5901 252.26 97.7501L253 97.6201C253.46 99.2201 254.36 100.55 256.09 100.55C257.04 100.55 257.78 99.91 257.78 98.92C257.78 97.86 257.16 97.2801 255.79 96.6201C254.06 95.7801 252.6 94.9701 252.6 93.1201C252.6 91.2701 254.16 89.8401 256.57 89.8401C257.65 89.8401 258.51 90.09 259.02 90.17C259.1 90.78 259.28 92.36 259.4 92.98L258.66 93.16Z" fill="#388D99"/>
<path d="M87.86 137.11C87.44 137.33 87.04 137.43 86.8 137.43C85.14 137.43 84.24 136.47 84.24 134.42V127.2H82.54L82.43 126.9L83.11 126.13H84.24V124.04C84.78 123.52 85.6 122.85 86.14 122.33L86.51 122.41C86.46 123.39 86.44 124.82 86.44 126.14H89.23C89.45 126.39 89.38 126.98 89.07 127.21H86.44V133.56C86.44 135.57 87.24 135.92 87.86 135.92C88.43 135.92 88.96 135.72 89.33 135.55L89.56 136.25L87.86 137.11Z" fill="#388D99"/>
<path d="M96.36 125.83C99.56 125.83 101.86 128.25 101.86 131.44C101.86 135.48 98.88 137.43 96.34 137.43C92.83 137.43 90.72 134.64 90.72 131.82C90.73 127.79 93.9 125.83 96.36 125.83ZM96.06 126.71C94.62 126.71 93.3 128.12 93.3 131.05C93.3 134.21 94.63 136.52 96.6 136.52C98.04 136.52 99.29 135.48 99.29 132.02C99.29 129 98.14 126.71 96.06 126.71Z" fill="#388D99"/>
<path d="M114.36 137.11C113.94 137.33 113.54 137.43 113.3 137.43C111.64 137.43 110.74 136.47 110.74 134.42V127.2H109.04L108.93 126.9L109.61 126.13H110.74V124.04C111.28 123.52 112.1 122.85 112.64 122.33L113.01 122.41C112.96 123.39 112.94 124.82 112.94 126.14H115.73C115.95 126.39 115.88 126.98 115.57 127.21H112.94V133.56C112.94 135.57 113.74 135.92 114.36 135.92C114.93 135.92 115.46 135.72 115.83 135.55L116.06 136.25L114.36 137.11Z" fill="#388D99"/>
<path d="M123.99 137.13V136.4C125.38 136.25 125.55 136.11 125.55 134.52V130.37C125.55 128.32 124.75 127.34 123.2 127.37C122.31 127.37 121.38 127.79 120.7 128.57V134.53C120.7 136.11 120.89 136.26 122.32 136.41V137.14H116.78V136.41C118.19 136.28 118.5 136.16 118.5 134.51V122.55C118.5 121.26 118.41 120.94 116.79 120.78V120.1C118.2 119.97 119.75 119.6 120.7 119.25C120.7 120.22 120.7 121.3 120.7 122.3V127.63C121.6 126.74 122.94 125.84 124.28 125.84C126.35 125.84 127.75 127.14 127.75 130.1V134.53C127.75 136.17 127.95 136.27 129.35 136.41V137.14H123.99V137.13Z" fill="#388D99"/>
<path d="M140.06 134.95C138.47 136.99 136.68 137.43 135.83 137.43C132.73 137.43 130.87 134.93 130.87 132.04C130.87 130.33 131.51 128.73 132.54 127.64C133.6 126.47 134.98 125.83 136.3 125.83C138.52 125.83 140.18 127.73 140.18 129.74C140.16 130.23 140.09 130.49 139.71 130.58C139.21 130.68 135.96 130.9 133.08 131C133.04 134.22 134.98 135.59 136.76 135.59C137.78 135.59 138.73 135.18 139.65 134.34L140.06 134.95ZM135.72 126.8C134.6 126.8 133.52 127.89 133.21 129.91C134.54 129.91 135.86 129.9 137.26 129.84C137.69 129.84 137.84 129.72 137.84 129.34C137.87 128.02 137.04 126.8 135.72 126.8Z" fill="#388D99"/>
<path d="M154.29 137.13V136.4C155.68 136.25 155.85 136.11 155.85 134.52V130.37C155.85 128.32 155.05 127.34 153.5 127.37C152.61 127.37 151.68 127.79 151 128.57V134.53C151 136.11 151.19 136.26 152.62 136.41V137.14H147.08V136.41C148.49 136.28 148.8 136.16 148.8 134.51V122.55C148.8 121.26 148.71 120.94 147.09 120.78V120.1C148.5 119.97 150.05 119.6 151 119.25C151 120.22 151 121.3 151 122.3V127.63C151.9 126.74 153.24 125.84 154.58 125.84C156.65 125.84 158.05 127.14 158.05 130.1V134.53C158.05 136.17 158.25 136.27 159.65 136.41V137.14H154.29V137.13Z" fill="#388D99"/>
<path d="M161.04 137.13V136.4C162.57 136.25 162.74 136.12 162.74 134.41V129.31C162.74 127.74 162.66 127.64 161.22 127.41V126.77C162.57 126.55 163.82 126.23 164.94 125.79C164.94 126.84 164.94 127.88 164.94 128.93V134.42C164.94 136.12 165.1 136.25 166.69 136.41V137.14H161.04V137.13ZM163.7 123.51C162.96 123.51 162.29 122.85 162.29 122.1C162.29 121.26 162.96 120.65 163.73 120.65C164.48 120.65 165.1 121.26 165.1 122.1C165.09 122.85 164.48 123.51 163.7 123.51Z" fill="#388D99"/>
<path d="M171.55 133.43C171.01 133.87 170.79 134.32 170.79 134.61C170.79 135.05 171.22 135.56 172.32 135.56C173.22 135.56 174.3 135.54 175.12 135.54C176.71 135.54 178.79 136.08 178.79 138.55C178.79 141.19 175.65 143.6 172.32 143.6C169.41 143.6 167.9 141.96 167.86 140.5C167.86 139.94 168.09 139.48 168.51 139.08C169.04 138.56 169.96 137.81 170.53 137.38C169.61 137.11 168.99 136.55 168.66 136.02C168.42 135.64 168.33 135.16 168.34 134.89C169.33 134.51 170.22 133.8 170.71 133.15L171.55 133.43ZM172.75 133.68C170.33 133.68 168.42 132.24 168.42 129.91C168.42 127.09 170.98 125.77 172.98 125.77C173.85 125.77 174.67 125.99 175.46 126.4C176.59 126.4 178.14 126.2 178.83 126.03L178.98 126.25C178.83 126.66 178.44 127.38 178.06 127.62C177.68 127.62 176.87 127.52 176.52 127.5C176.94 128.05 177.22 128.83 177.22 129.73C177.21 132.41 174.95 133.68 172.75 133.68ZM173.27 137.46C172.04 137.46 171.47 137.61 171.04 137.98C170.39 138.51 169.93 139.22 169.93 139.91C169.93 141.28 171.32 142.3 173.29 142.3C175.58 142.3 176.91 141.13 176.91 139.58C176.91 138.72 176.47 138.06 175.76 137.77C175.12 137.51 174.3 137.46 173.27 137.46ZM172.75 126.6C171.69 126.6 170.73 127.61 170.73 129.55C170.73 131.47 171.65 132.85 172.99 132.85C174.07 132.81 174.97 131.87 174.97 129.88C174.97 128.01 174.11 126.6 172.75 126.6Z" fill="#388D99"/>
<path d="M186.64 137.13V136.4C188.03 136.25 188.2 136.11 188.2 134.52V130.37C188.2 128.32 187.4 127.34 185.85 127.37C184.96 127.37 184.03 127.79 183.35 128.57V134.53C183.35 136.11 183.54 136.26 184.97 136.41V137.14H179.43V136.41C180.84 136.28 181.15 136.16 181.15 134.51V122.55C181.15 121.26 181.06 120.94 179.44 120.78V120.1C180.85 119.97 182.4 119.6 183.35 119.25C183.35 120.22 183.35 121.3 183.35 122.3V127.63C184.25 126.74 185.59 125.84 186.93 125.84C189 125.84 190.4 127.14 190.4 130.1V134.53C190.4 136.17 190.6 136.27 192 136.41V137.14H186.64V137.13Z" fill="#388D99"/>
<path d="M202.71 134.95C201.12 136.99 199.33 137.43 198.48 137.43C195.38 137.43 193.52 134.93 193.52 132.04C193.52 130.33 194.16 128.73 195.19 127.64C196.25 126.47 197.63 125.83 198.95 125.83C201.17 125.83 202.83 127.73 202.83 129.74C202.81 130.23 202.74 130.49 202.36 130.58C201.86 130.68 198.61 130.9 195.73 131C195.69 134.22 197.63 135.59 199.41 135.59C200.43 135.59 201.38 135.18 202.3 134.34L202.71 134.95ZM198.37 126.8C197.25 126.8 196.17 127.89 195.86 129.91C197.19 129.91 198.51 129.9 199.91 129.84C200.34 129.84 200.49 129.72 200.49 129.34C200.51 128.02 199.69 126.8 198.37 126.8Z" fill="#388D99"/>
<path d="M210.91 129.16C210.42 127.66 209.74 126.69 208.28 126.69C207.44 126.69 206.77 127.29 206.77 128.26C206.77 129.3 207.48 129.79 208.86 130.43C210.99 131.43 212.12 132.2 212.12 133.91C212.12 136.24 209.97 137.43 207.96 137.43C206.66 137.43 205.47 137.01 204.95 136.72C204.83 136.02 204.6 134.59 204.51 133.75L205.25 133.62C205.71 135.22 206.61 136.55 208.34 136.55C209.29 136.55 210.03 135.91 210.03 134.92C210.03 133.86 209.41 133.28 208.04 132.62C206.31 131.78 204.85 130.97 204.85 129.12C204.85 127.27 206.41 125.84 208.82 125.84C209.9 125.84 210.76 126.09 211.27 126.17C211.35 126.78 211.53 128.36 211.65 128.98L210.91 129.16Z" fill="#388D99"/>
<path d="M218.71 137.11C218.29 137.33 217.89 137.43 217.65 137.43C215.99 137.43 215.09 136.47 215.09 134.42V127.2H213.39L213.28 126.9L213.96 126.13H215.09V124.04C215.63 123.52 216.45 122.85 216.99 122.33L217.36 122.41C217.31 123.39 217.28 124.82 217.29 126.14H220.08C220.3 126.39 220.23 126.98 219.92 127.21H217.29V133.56C217.29 135.57 218.09 135.92 218.71 135.92C219.28 135.92 219.81 135.72 220.18 135.55L220.41 136.25L218.71 137.11Z" fill="#388D99"/>
<path d="M95.98 165.16C95.49 163.66 94.81 162.69 93.35 162.69C92.51 162.69 91.84 163.29 91.84 164.26C91.84 165.3 92.55 165.79 93.93 166.43C96.06 167.43 97.19 168.2 97.19 169.91C97.19 172.24 95.04 173.43 93.03 173.43C91.73 173.43 90.54 173.01 90.02 172.72C89.9 172.02 89.67 170.59 89.58 169.75L90.32 169.62C90.78 171.22 91.68 172.55 93.41 172.55C94.36 172.55 95.1 171.91 95.1 170.92C95.1 169.86 94.48 169.28 93.11 168.62C91.38 167.78 89.92 166.97 89.92 165.12C89.92 163.27 91.48 161.84 93.89 161.84C94.97 161.84 95.83 162.09 96.34 162.17C96.42 162.78 96.6 164.36 96.72 164.98L95.98 165.16Z" fill="#388D99"/>
<path d="M103.79 173.11C103.37 173.33 102.97 173.43 102.73 173.43C101.07 173.43 100.17 172.47 100.17 170.42V163.2H98.47L98.36 162.9L99.04 162.13H100.17V160.04C100.71 159.52 101.53 158.85 102.07 158.33L102.44 158.41C102.39 159.39 102.37 160.82 102.37 162.14H105.16C105.38 162.39 105.31 162.98 105 163.21H102.37V169.56C102.37 171.57 103.17 171.92 103.79 171.92C104.36 171.92 104.89 171.72 105.26 171.55L105.49 172.25L103.79 173.11Z" fill="#388D99"/>
<path d="M114.63 173.43C114.2 173.43 113.65 173.23 113.39 172.95C113.06 172.63 112.91 172.28 112.78 171.86C111.79 172.53 110.56 173.43 109.84 173.43C108 173.43 106.73 171.92 106.73 170.33C106.73 169.09 107.39 168.32 108.76 167.84C110.28 167.31 112.17 166.67 112.72 166.21V165.6C112.72 163.91 111.9 162.94 110.64 162.94C110.09 162.94 109.74 163.2 109.5 163.5C109.22 163.86 109.06 164.4 108.84 165.13C108.71 165.58 108.45 165.75 108.05 165.75C107.54 165.75 106.88 165.23 106.88 164.61C106.88 164.24 107.2 163.94 107.71 163.58C108.51 163.01 109.96 162.13 111.38 161.83C112.17 161.83 112.96 162.06 113.57 162.51C114.48 163.26 114.86 164.15 114.86 165.44V170.17C114.86 171.33 115.28 171.67 115.72 171.67C116.01 171.67 116.32 171.55 116.6 171.41L116.85 172.14L114.63 173.43ZM112.72 167.11C112.19 167.38 111.12 167.86 110.56 168.11C109.64 168.53 109.09 169 109.09 169.91C109.09 171.25 110.09 171.83 110.84 171.83C111.44 171.83 112.24 171.5 112.72 171.02C112.72 169.85 112.72 168.28 112.72 167.11Z" fill="#388D99"/>
<path d="M125.04 173.13V172.4C126.42 172.25 126.55 172.09 126.55 170.38V166.23C126.55 164.48 125.88 163.41 124.37 163.41C123.41 163.41 122.51 163.95 121.76 164.61V170.49C121.76 172.18 121.9 172.24 123.29 172.39V173.12H117.82V172.39C119.41 172.21 119.56 172.12 119.56 170.47V165.31C119.56 163.71 119.38 163.63 118.08 163.41V162.73C119.35 162.53 120.66 162.21 121.77 161.74C121.77 162.28 121.76 163.09 121.76 163.68C122.26 163.33 122.8 162.96 123.44 162.54C124.15 162.09 124.77 161.81 125.49 161.81C127.49 161.81 128.75 163.28 128.75 165.73V170.47C128.75 172.14 128.9 172.22 130.3 172.37V173.1H125.04V173.13Z" fill="#388D99"/>
<path d="M144.06 172.5C143.52 172.6 141.57 172.9 140 173.43C140 172.91 140 172.36 140 171.84C139.55 172.12 138.9 172.47 138.45 172.75C137.52 173.29 136.9 173.42 136.61 173.42C134.59 173.42 131.87 171.45 131.87 167.91C131.87 164.45 134.91 161.82 138.42 161.82C138.74 161.82 139.49 161.86 139.99 162.06V158.53C139.99 156.98 139.82 156.92 138.09 156.76V156.08C139.41 155.91 141.21 155.56 142.19 155.23C142.19 156.16 142.19 157.22 142.19 158.26V170.18C142.19 171.49 142.36 171.65 143.29 171.72L144.04 171.77V172.5H144.06ZM140.01 164.11C139.49 163.27 138.49 162.84 137.52 162.84C136.4 162.84 134.35 163.59 134.35 167.19C134.35 170.26 136.22 171.79 137.73 171.81C138.55 171.81 139.42 171.43 140.01 171V164.11Z" fill="#388D99"/>
<path d="M153.33 173.43C152.9 173.43 152.35 173.23 152.09 172.95C151.76 172.63 151.61 172.28 151.48 171.86C150.49 172.53 149.26 173.43 148.54 173.43C146.7 173.43 145.43 171.92 145.43 170.33C145.43 169.09 146.09 168.32 147.46 167.84C148.98 167.31 150.87 166.67 151.42 166.21V165.6C151.42 163.91 150.6 162.94 149.34 162.94C148.79 162.94 148.44 163.2 148.2 163.5C147.92 163.86 147.76 164.4 147.54 165.13C147.41 165.58 147.15 165.75 146.75 165.75C146.24 165.75 145.58 165.23 145.58 164.61C145.58 164.24 145.9 163.94 146.41 163.58C147.21 163.01 148.66 162.13 150.08 161.83C150.87 161.83 151.66 162.06 152.27 162.51C153.18 163.26 153.56 164.15 153.56 165.44V170.17C153.56 171.33 153.98 171.67 154.42 171.67C154.71 171.67 155.02 171.55 155.3 171.41L155.55 172.14L153.33 173.43ZM151.42 167.11C150.89 167.38 149.82 167.86 149.26 168.11C148.34 168.53 147.79 169 147.79 169.91C147.79 171.25 148.79 171.83 149.54 171.83C150.14 171.83 150.94 171.5 151.42 171.02C151.42 169.85 151.42 168.28 151.42 167.11Z" fill="#388D99"/>
<path d="M162.47 173.13H156.57V172.4C158.1 172.25 158.24 172.12 158.24 170.52V165.27C158.24 163.69 158.14 163.61 156.74 163.42V162.77C158.02 162.57 159.2 162.27 160.44 161.76C160.44 162.59 160.44 163.68 160.44 164.5C161.36 163.12 162.38 161.83 163.59 161.83C164.51 161.83 165.07 162.41 165.07 163.08C165.07 163.77 164.58 164.35 164.14 164.59C163.87 164.74 163.66 164.7 163.47 164.53C163.09 164.16 162.78 163.88 162.34 163.88C161.84 163.88 160.97 164.57 160.44 165.79V170.5C160.44 172.12 160.57 172.24 162.47 172.4V173.13V173.13Z" fill="#388D99"/>
<path d="M178.31 172.5C177.77 172.6 175.82 172.9 174.25 173.43C174.25 172.91 174.25 172.36 174.25 171.84C173.8 172.12 173.15 172.47 172.7 172.75C171.77 173.29 171.15 173.42 170.86 173.42C168.84 173.42 166.12 171.45 166.12 167.91C166.12 164.45 169.16 161.82 172.67 161.82C172.99 161.82 173.74 161.86 174.24 162.06V158.53C174.24 156.98 174.07 156.92 172.34 156.76V156.08C173.66 155.91 175.46 155.56 176.44 155.23C176.44 156.16 176.44 157.22 176.44 158.26V170.18C176.44 171.49 176.61 171.65 177.54 171.72L178.29 171.77V172.5H178.31ZM174.25 164.11C173.73 163.27 172.73 162.84 171.76 162.84C170.64 162.84 168.59 163.59 168.59 167.19C168.59 170.26 170.46 171.79 171.97 171.81C172.79 171.81 173.66 171.43 174.25 171V164.11Z" fill="#388D99"/>
<path d="M186.11 165.16C185.62 163.66 184.94 162.69 183.48 162.69C182.64 162.69 181.97 163.29 181.97 164.26C181.97 165.3 182.68 165.79 184.06 166.43C186.19 167.43 187.32 168.2 187.32 169.91C187.32 172.24 185.17 173.43 183.16 173.43C181.86 173.43 180.67 173.01 180.15 172.72C180.03 172.02 179.8 170.59 179.71 169.75L180.45 169.62C180.91 171.22 181.81 172.55 183.54 172.55C184.49 172.55 185.23 171.91 185.23 170.92C185.23 169.86 184.61 169.28 183.24 168.62C181.51 167.78 180.05 166.97 180.05 165.12C180.05 163.27 181.61 161.84 184.02 161.84C185.1 161.84 185.96 162.09 186.47 162.17C186.55 162.78 186.73 164.36 186.85 164.98L186.11 165.16Z" fill="#388D99"/>
<path d="M200.43 161.83C203.63 161.83 205.93 164.25 205.93 167.44C205.93 171.48 202.95 173.43 200.41 173.43C196.9 173.43 194.79 170.64 194.79 167.82C194.8 163.79 197.97 161.83 200.43 161.83ZM200.13 162.71C198.69 162.71 197.37 164.12 197.37 167.05C197.37 170.21 198.7 172.52 200.67 172.52C202.11 172.52 203.36 171.48 203.36 168.02C203.36 165 202.22 162.71 200.13 162.71Z" fill="#388D99"/>
<path d="M209.34 162.13V161.48C209.34 159.7 210.02 157.86 211.57 156.55C212.45 155.78 213.4 155.36 214.42 155.23C215.29 155.25 216.06 155.55 216.47 156.01C216.72 156.3 216.76 156.58 216.63 156.93C216.54 157.22 216.25 157.58 215.98 157.78C215.68 157.97 215.47 157.91 215.22 157.73C214.7 157.25 213.99 156.63 213.19 156.63C211.55 156.63 211.53 158.82 211.54 160.96V162.12H214.13C214.27 162.35 214.15 163.01 213.86 163.19H211.54V170.4C211.54 172.15 211.8 172.2 213.62 172.4V173.13H207.64V172.4C209.18 172.24 209.34 172.14 209.34 170.52V163.19H207.59L207.49 162.91L208.06 162.13H209.34V162.13Z" fill="#388D99"/>
<path d="M49.99 201.16C49.5 199.66 48.82 198.69 47.36 198.69C46.52 198.69 45.85 199.29 45.85 200.26C45.85 201.3 46.56 201.79 47.94 202.43C50.07 203.43 51.2 204.2 51.2 205.91C51.2 208.24 49.05 209.43 47.04 209.43C45.74 209.43 44.55 209.01 44.03 208.72C43.91 208.02 43.68 206.59 43.59 205.75L44.33 205.62C44.79 207.22 45.69 208.55 47.42 208.55C48.37 208.55 49.11 207.91 49.11 206.92C49.11 205.86 48.49 205.28 47.12 204.62C45.39 203.78 43.93 202.97 43.93 201.12C43.93 199.27 45.49 197.84 47.9 197.84C48.98 197.84 49.84 198.09 50.35 198.17C50.43 198.78 50.61 200.36 50.73 200.98L49.99 201.16Z" fill="#388D99"/>
<path d="M62.32 206.85C61.21 208.34 59.54 209.43 58.03 209.43C54.81 209.43 52.91 206.85 52.91 204.16C52.91 202.21 53.78 200.54 55.44 199.28C56.82 198.22 58.34 197.83 59.34 197.83C60.43 197.83 61.25 198.17 61.64 198.49C61.99 198.76 62.05 198.96 62.05 199.25C62.05 199.87 61.41 200.42 61.11 200.42C60.98 200.42 60.86 200.37 60.62 200.17C59.79 199.43 58.94 199.08 58.08 199.08C56.55 199.08 55.15 200.4 55.15 203.02C55.13 206.47 57.51 207.6 58.9 207.6C59.95 207.6 60.78 207.33 61.88 206.28L62.32 206.85Z" fill="#388D99"/>
<path d="M63.49 209.13V208.4C65.02 208.25 65.19 208.12 65.19 206.41V201.31C65.19 199.74 65.11 199.64 63.67 199.41V198.77C65.02 198.55 66.27 198.23 67.39 197.79C67.39 198.84 67.39 199.88 67.39 200.93V206.42C67.39 208.12 67.55 208.25 69.14 208.41V209.14H63.49V209.13ZM66.15 195.51C65.41 195.51 64.74 194.85 64.74 194.1C64.74 193.26 65.41 192.65 66.18 192.65C66.93 192.65 67.55 193.26 67.55 194.1C67.54 194.85 66.93 195.51 66.15 195.51Z" fill="#388D99"/>
<path d="M79.69 206.95C78.1 208.99 76.31 209.43 75.46 209.43C72.36 209.43 70.5 206.93 70.5 204.04C70.5 202.33 71.14 200.73 72.17 199.64C73.23 198.47 74.61 197.83 75.93 197.83C78.15 197.83 79.81 199.73 79.81 201.74C79.79 202.23 79.72 202.49 79.34 202.58C78.84 202.68 75.59 202.9 72.71 203C72.67 206.22 74.61 207.59 76.39 207.59C77.41 207.59 78.36 207.18 79.28 206.34L79.69 206.95ZM75.35 198.8C74.23 198.8 73.15 199.89 72.84 201.91C74.17 201.91 75.49 201.9 76.89 201.84C77.32 201.84 77.47 201.72 77.47 201.34C77.49 200.02 76.67 198.8 75.35 198.8Z" fill="#388D99"/>
<path d="M88.44 209.13V208.4C89.82 208.25 89.95 208.09 89.95 206.38V202.23C89.95 200.48 89.28 199.41 87.77 199.41C86.81 199.41 85.91 199.95 85.16 200.61V206.49C85.16 208.18 85.3 208.24 86.69 208.39V209.12H81.22V208.39C82.81 208.21 82.96 208.12 82.96 206.47V201.31C82.96 199.71 82.78 199.63 81.48 199.41V198.73C82.75 198.53 84.06 198.21 85.17 197.74C85.17 198.28 85.16 199.09 85.16 199.68C85.66 199.33 86.2 198.96 86.84 198.54C87.55 198.09 88.17 197.81 88.89 197.81C90.89 197.81 92.15 199.28 92.15 201.73V206.47C92.15 208.14 92.3 208.22 93.7 208.37V209.1H88.44V209.13Z" fill="#388D99"/>
<path d="M100.16 209.11C99.74 209.33 99.34 209.43 99.1 209.43C97.44 209.43 96.54 208.47 96.54 206.42V199.2H94.84L94.73 198.9L95.41 198.13H96.54V196.04C97.08 195.52 97.9 194.85 98.44 194.33L98.81 194.41C98.76 195.39 98.73 196.82 98.74 198.14H101.53C101.75 198.39 101.68 198.98 101.37 199.21H98.74V205.56C98.74 207.57 99.54 207.92 100.16 207.92C100.73 207.92 101.26 207.72 101.63 207.55L101.86 208.25L100.16 209.11Z" fill="#388D99"/>
<path d="M102.89 209.13V208.4C104.42 208.25 104.59 208.12 104.59 206.41V201.31C104.59 199.74 104.51 199.64 103.07 199.41V198.77C104.42 198.55 105.67 198.23 106.79 197.79C106.79 198.84 106.79 199.88 106.79 200.93V206.42C106.79 208.12 106.95 208.25 108.54 208.41V209.14H102.89V209.13ZM105.55 195.51C104.81 195.51 104.14 194.85 104.14 194.1C104.14 193.26 104.81 192.65 105.58 192.65C106.33 192.65 106.95 193.26 106.95 194.1C106.94 194.85 106.33 195.51 105.55 195.51Z" fill="#388D99"/>
<path d="M116.68 209.13V208.4C118.11 208.25 118.28 208.14 118.28 206.6V200.58C118.28 199.38 118.2 199.2 116.96 199.2H113.65V206.61C113.65 208.09 113.84 208.25 115.35 208.4V209.13H109.72V208.4C111.24 208.25 111.45 208.11 111.45 206.61V199.2H109.72L109.62 198.9L110.17 198.13H111.46C111.46 195.6 112.26 193.88 113.87 192.6C114.92 191.76 116.18 191.29 117.16 191.23C118.84 191.23 119.72 191.94 120.07 192.4C120.24 192.62 120.3 192.86 120.3 193.08C120.27 193.46 119.87 193.97 119.52 194.2C119.16 194.41 118.86 194.4 118.55 194.05C118.04 193.48 117.12 192.54 115.9 192.54C115.18 192.54 114.71 192.84 114.42 193.42C114 194.05 113.66 195.52 113.66 197.4V198.12H115.77C117.63 198.12 119.3 198.05 120.49 197.8V206.59C120.49 208.13 120.67 208.24 122.26 208.39V209.12H116.68V209.13Z" fill="#388D99"/>
<path d="M133.02 206.85C131.91 208.34 130.24 209.43 128.73 209.43C125.51 209.43 123.61 206.85 123.61 204.16C123.61 202.21 124.48 200.54 126.14 199.28C127.52 198.22 129.04 197.83 130.04 197.83C131.13 197.83 131.95 198.17 132.34 198.49C132.69 198.76 132.75 198.96 132.75 199.25C132.75 199.87 132.11 200.42 131.81 200.42C131.68 200.42 131.56 200.37 131.32 200.17C130.49 199.43 129.64 199.08 128.78 199.08C127.25 199.08 125.85 200.4 125.85 203.02C125.83 206.47 128.21 207.6 129.6 207.6C130.65 207.6 131.48 207.33 132.58 206.28L133.02 206.85Z" fill="#388D99"/>
<path d="M145.19 198.12C145.67 197.92 146.08 197.83 146.41 197.83C149.15 197.83 151.36 200.18 151.36 203.12C151.36 206.53 148.46 209.44 145.11 209.42C143.97 209.42 142.59 209.17 141.15 208.52C141.15 207.88 141.15 207.2 141.15 206.53V194.57C141.15 193.04 141.06 192.88 139.5 192.76V192.07C140.7 191.92 142.35 191.55 143.35 191.22C143.35 192.17 143.35 193.16 143.35 194.14V198.9L145.19 198.12ZM143.36 206.26C143.36 206.65 143.39 206.89 143.49 207.13C143.76 207.71 144.69 208.44 145.84 208.44C147.84 208.44 148.9 206.66 148.9 203.79C148.9 200.88 147.2 199.28 145.23 199.28C144.54 199.28 143.82 199.48 143.36 199.7V206.26Z" fill="#388D99"/>
<path d="M162.39 206.95C160.8 208.99 159.01 209.43 158.16 209.43C155.06 209.43 153.2 206.93 153.2 204.04C153.2 202.33 153.84 200.73 154.87 199.64C155.93 198.47 157.31 197.83 158.63 197.83C160.85 197.83 162.51 199.73 162.51 201.74C162.49 202.23 162.42 202.49 162.04 202.58C161.54 202.68 158.29 202.9 155.41 203C155.37 206.22 157.31 207.59 159.09 207.59C160.11 207.59 161.06 207.18 161.98 206.34L162.39 206.95ZM158.05 198.8C156.93 198.8 155.85 199.89 155.54 201.91C156.87 201.91 158.19 201.9 159.59 201.84C160.02 201.84 160.17 201.72 160.17 201.34C160.19 200.02 159.37 198.8 158.05 198.8Z" fill="#388D99"/>
<path d="M170.84 209.13V208.4C172.23 208.25 172.4 208.11 172.4 206.52V202.37C172.4 200.32 171.6 199.34 170.05 199.37C169.16 199.37 168.23 199.79 167.55 200.57V206.53C167.55 208.11 167.74 208.26 169.17 208.41V209.14H163.63V208.41C165.04 208.28 165.35 208.16 165.35 206.51V194.55C165.35 193.26 165.26 192.94 163.64 192.78V192.1C165.05 191.97 166.6 191.6 167.55 191.25C167.55 192.22 167.55 193.3 167.55 194.3V199.63C168.45 198.74 169.79 197.84 171.13 197.84C173.2 197.84 174.6 199.14 174.6 202.1V206.53C174.6 208.17 174.8 208.27 176.2 208.41V209.14H170.84V209.13Z" fill="#388D99"/>
<path d="M185.7 209.43C185.27 209.43 184.72 209.23 184.46 208.95C184.13 208.63 183.98 208.28 183.85 207.86C182.86 208.53 181.63 209.43 180.91 209.43C179.07 209.43 177.8 207.92 177.8 206.33C177.8 205.09 178.46 204.32 179.83 203.84C181.35 203.31 183.24 202.67 183.79 202.21V201.6C183.79 199.91 182.97 198.94 181.71 198.94C181.16 198.94 180.81 199.2 180.57 199.5C180.29 199.86 180.13 200.4 179.91 201.13C179.78 201.58 179.52 201.75 179.12 201.75C178.61 201.75 177.95 201.23 177.95 200.61C177.95 200.24 178.27 199.94 178.78 199.58C179.58 199.01 181.03 198.13 182.45 197.83C183.24 197.83 184.03 198.06 184.64 198.51C185.55 199.26 185.93 200.15 185.93 201.44V206.17C185.93 207.33 186.35 207.67 186.79 207.67C187.08 207.67 187.39 207.55 187.67 207.41L187.92 208.14L185.7 209.43ZM183.79 203.11C183.26 203.38 182.19 203.86 181.63 204.11C180.71 204.53 180.16 205 180.16 205.91C180.16 207.25 181.16 207.83 181.91 207.83C182.51 207.83 183.31 207.5 183.79 207.02C183.79 205.85 183.79 204.28 183.79 203.11Z" fill="#388D99"/>
<path d="M199.99 198.84C198.64 199.02 198.46 199.24 197.83 200.68C197 202.68 195.59 205.96 194.26 209.41H193.48C192.39 206.49 191.18 203.53 190 200.61C189.45 199.23 189.24 199.05 187.94 198.85V198.14H193.25V198.85C191.92 199.03 191.85 199.21 192.23 200.24C192.85 201.96 193.88 204.57 194.52 206.19C195.33 204.17 196.16 202.1 196.72 200.47C197.11 199.33 197.04 199.02 195.41 198.85V198.14H199.99V198.84Z" fill="#388D99"/>
<path d="M200.27 209.13V208.4C201.8 208.25 201.97 208.12 201.97 206.41V201.31C201.97 199.74 201.89 199.64 200.45 199.41V198.77C201.8 198.55 203.05 198.23 204.17 197.79C204.17 198.84 204.17 199.88 204.17 200.93V206.42C204.17 208.12 204.33 208.25 205.92 208.41V209.14H200.27V209.13ZM202.92 195.51C202.18 195.51 201.51 194.85 201.51 194.1C201.51 193.26 202.18 192.65 202.95 192.65C203.7 192.65 204.32 193.26 204.32 194.1C204.32 194.85 203.7 195.51 202.92 195.51Z" fill="#388D99"/>
<path d="M212.91 197.83C216.11 197.83 218.41 200.25 218.41 203.44C218.41 207.48 215.43 209.43 212.89 209.43C209.38 209.43 207.27 206.64 207.27 203.82C207.28 199.79 210.45 197.83 212.91 197.83ZM212.61 198.71C211.17 198.71 209.85 200.12 209.85 203.05C209.85 206.21 211.18 208.52 213.15 208.52C214.59 208.52 215.84 207.48 215.84 204.02C215.84 201 214.69 198.71 212.61 198.71Z" fill="#388D99"/>
<path d="M232.33 208.55C231.08 208.73 229.68 209.05 228.34 209.43C228.34 209 228.34 208.16 228.34 207.55C227.05 208.63 225.96 209.43 224.58 209.43C222.83 209.43 221.43 208.35 221.43 205.71V200.8C221.43 199.49 221.24 199.34 220.61 199.21L219.94 199.08V198.4C221.05 198.35 222.76 198.11 223.71 197.95C223.64 198.79 223.63 200.01 223.63 201.62V205.06C223.63 207.16 224.72 207.77 225.8 207.77C226.68 207.77 227.54 207.42 228.34 206.66V200.8C228.34 199.49 228.07 199.31 227.25 199.18L226.46 199.07V198.39C228.03 198.32 229.85 198.06 230.55 197.94V206.27C230.55 207.53 230.74 207.72 231.66 207.78L232.33 207.81V208.55Z" fill="#388D99"/>
<path d="M239.47 209.13H233.57V208.4C235.1 208.25 235.24 208.12 235.24 206.52V201.27C235.24 199.69 235.14 199.61 233.74 199.42V198.77C235.02 198.57 236.2 198.27 237.44 197.76C237.44 198.59 237.44 199.68 237.44 200.5C238.36 199.12 239.38 197.83 240.59 197.83C241.51 197.83 242.07 198.41 242.07 199.08C242.07 199.77 241.58 200.35 241.14 200.59C240.87 200.74 240.66 200.7 240.47 200.53C240.09 200.16 239.78 199.88 239.34 199.88C238.84 199.88 237.97 200.57 237.44 201.79V206.5C237.44 208.12 237.57 208.24 239.47 208.4V209.13Z" fill="#388D99"/>
<path d="M251.1 209.43C250.67 209.43 250.12 209.23 249.86 208.95C249.53 208.63 249.38 208.28 249.25 207.86C248.26 208.53 247.03 209.43 246.31 209.43C244.47 209.43 243.2 207.92 243.2 206.33C243.2 205.09 243.86 204.32 245.23 203.84C246.75 203.31 248.64 202.67 249.19 202.21V201.6C249.19 199.91 248.37 198.94 247.11 198.94C246.56 198.94 246.21 199.2 245.97 199.5C245.69 199.86 245.53 200.4 245.31 201.13C245.18 201.58 244.92 201.75 244.52 201.75C244.01 201.75 243.35 201.23 243.35 200.61C243.35 200.24 243.67 199.94 244.18 199.58C244.98 199.01 246.43 198.13 247.85 197.83C248.64 197.83 249.43 198.06 250.04 198.51C250.95 199.26 251.33 200.15 251.33 201.44V206.17C251.33 207.33 251.75 207.67 252.19 207.67C252.48 207.67 252.79 207.55 253.07 207.41L253.32 208.14L251.1 209.43ZM249.19 203.11C248.66 203.38 247.59 203.86 247.03 204.11C246.11 204.53 245.56 205 245.56 205.91C245.56 207.25 246.56 207.83 247.31 207.83C247.91 207.83 248.71 207.5 249.19 207.02C249.19 205.85 249.19 204.28 249.19 203.11Z" fill="#388D99"/>
<path d="M253.99 209.13V208.4C255.56 208.24 255.73 208.11 255.73 206.48V194.62C255.73 193.14 255.6 192.99 254.06 192.77V192.09C255.48 191.94 257.06 191.55 257.93 191.24C257.93 192.41 257.93 193.59 257.93 194.76V206.48C257.93 208.13 258.07 208.25 259.66 208.4V209.13H253.99Z" fill="#388D99"/>
<path d="M53.62 245.43C53.19 245.43 52.64 245.23 52.38 244.95C52.05 244.63 51.9 244.28 51.77 243.86C50.78 244.53 49.55 245.43 48.83 245.43C46.99 245.43 45.72 243.92 45.72 242.33C45.72 241.09 46.38 240.32 47.75 239.84C49.27 239.31 51.16 238.67 51.71 238.21V237.6C51.71 235.91 50.89 234.94 49.63 234.94C49.08 234.94 48.73 235.2 48.49 235.5C48.21 235.86 48.05 236.4 47.83 237.13C47.7 237.58 47.44 237.75 47.04 237.75C46.53 237.75 45.87 237.23 45.87 236.61C45.87 236.24 46.19 235.94 46.7 235.58C47.5 235.01 48.95 234.13 50.37 233.83C51.16 233.83 51.95 234.06 52.56 234.51C53.47 235.26 53.85 236.15 53.85 237.44V242.17C53.85 243.33 54.27 243.67 54.71 243.67C55 243.67 55.31 243.55 55.59 243.41L55.84 244.14L53.62 245.43ZM51.71 239.11C51.18 239.38 50.11 239.86 49.55 240.11C48.63 240.53 48.08 241 48.08 241.91C48.08 243.25 49.08 243.83 49.83 243.83C50.43 243.83 51.23 243.5 51.71 243.02C51.71 241.85 51.71 240.28 51.71 239.11Z" fill="#388D99"/>
<path d="M64.0299 245.13V244.4C65.4099 244.25 65.5399 244.09 65.5399 242.38V238.23C65.5399 236.48 64.8699 235.41 63.3599 235.41C62.3999 235.41 61.4999 235.95 60.7499 236.61V242.49C60.7499 244.18 60.8899 244.24 62.2799 244.39V245.12H56.8099V244.39C58.3999 244.21 58.5499 244.12 58.5499 242.47V237.31C58.5499 235.71 58.3699 235.63 57.0699 235.41V234.73C58.3399 234.53 59.6499 234.21 60.7599 233.74C60.7599 234.28 60.7499 235.09 60.7499 235.68C61.2499 235.33 61.7899 234.96 62.4299 234.54C63.1399 234.09 63.7599 233.81 64.4799 233.81C66.4799 233.81 67.7399 235.28 67.7399 237.73V242.47C67.7399 244.14 67.8899 244.22 69.2899 244.37V245.1H64.0299V245.13Z" fill="#388D99"/>
<path d="M78.8399 245.43C78.4099 245.43 77.8599 245.23 77.5999 244.95C77.2699 244.63 77.1199 244.28 76.9899 243.86C75.9999 244.53 74.7699 245.43 74.0499 245.43C72.2099 245.43 70.9399 243.92 70.9399 242.33C70.9399 241.09 71.5999 240.32 72.9699 239.84C74.4899 239.31 76.3799 238.67 76.9299 238.21V237.6C76.9299 235.91 76.1099 234.94 74.8499 234.94C74.2999 234.94 73.9499 235.2 73.7099 235.5C73.4299 235.86 73.2699 236.4 73.0499 237.13C72.9199 237.58 72.6599 237.75 72.2599 237.75C71.7499 237.75 71.0899 237.23 71.0899 236.61C71.0899 236.24 71.4099 235.94 71.9199 235.58C72.7199 235.01 74.1699 234.13 75.5899 233.83C76.3799 233.83 77.1699 234.06 77.7799 234.51C78.6899 235.26 79.0699 236.15 79.0699 237.44V242.17C79.0699 243.33 79.4899 243.67 79.9299 243.67C80.2199 243.67 80.5299 243.55 80.8099 243.41L81.0599 244.14L78.8399 245.43ZM76.9299 239.11C76.3999 239.38 75.3299 239.86 74.7699 240.11C73.8499 240.53 73.2999 241 73.2999 241.91C73.2999 243.25 74.2999 243.83 75.0499 243.83C75.6499 243.83 76.4499 243.5 76.9299 243.02C76.9299 241.85 76.9299 240.28 76.9299 239.11Z" fill="#388D99"/>
<path d="M81.73 245.13V244.4C83.3 244.24 83.47 244.11 83.47 242.48V230.62C83.47 229.14 83.34 228.99 81.8 228.77V228.09C83.22 227.94 84.8 227.55 85.67 227.24C85.67 228.41 85.67 229.59 85.67 230.76V242.48C85.67 244.13 85.81 244.25 87.4 244.4V245.13H81.73Z" fill="#388D99"/>
<path d="M99.73 234.84C98.45 235.04 98.18 235.24 97.55 236.66C96.93 238.04 96.25 239.77 94.57 243.96C92.93 247.97 92.48 249.54 92.06 250.86C91.91 251.39 91.63 251.52 91.28 251.52C90.45 251.52 89.67 250.92 89.67 250.25C89.67 249.91 89.84 249.69 90.24 249.37C91.07 248.76 91.66 248.18 91.99 247.53C92.47 246.59 92.82 245.75 92.94 245.43C93.04 245.06 93.03 244.83 92.88 244.42C91.85 241.44 90.45 238.3 89.76 236.63C89.23 235.31 88.99 235.01 87.65 234.84V234.13H92.91V234.84C91.77 235.01 91.64 235.25 91.96 236.15L94.3 242.14C94.97 240.48 95.95 237.79 96.47 236.25C96.76 235.33 96.56 235.04 95.15 234.84V234.13H99.72V234.84H99.73Z" fill="#388D99"/>
<path d="M106.62 237.16C106.13 235.66 105.45 234.69 103.99 234.69C103.15 234.69 102.48 235.29 102.48 236.26C102.48 237.3 103.19 237.79 104.57 238.43C106.7 239.43 107.83 240.2 107.83 241.91C107.83 244.24 105.68 245.43 103.67 245.43C102.37 245.43 101.18 245.01 100.66 244.72C100.54 244.02 100.31 242.59 100.22 241.75L100.96 241.62C101.42 243.22 102.32 244.55 104.05 244.55C105 244.55 105.74 243.91 105.74 242.92C105.74 241.86 105.12 241.28 103.75 240.62C102.02 239.78 100.56 238.97 100.56 237.12C100.56 235.27 102.12 233.84 104.53 233.84C105.61 233.84 106.47 234.09 106.98 234.17C107.06 234.78 107.24 236.36 107.36 236.98L106.62 237.16Z" fill="#388D99"/>
<path d="M109.4 245.13V244.4C110.93 244.25 111.1 244.12 111.1 242.41V237.31C111.1 235.74 111.02 235.64 109.58 235.41V234.77C110.93 234.55 112.18 234.23 113.3 233.79C113.3 234.84 113.3 235.88 113.3 236.93V242.42C113.3 244.12 113.46 244.25 115.05 244.41V245.14H109.4V245.13ZM112.06 231.51C111.32 231.51 110.65 230.85 110.65 230.1C110.65 229.26 111.32 228.65 112.09 228.65C112.84 228.65 113.46 229.26 113.46 230.1C113.46 230.85 112.84 231.51 112.06 231.51Z" fill="#388D99"/>
<path d="M122.92 237.16C122.43 235.66 121.75 234.69 120.29 234.69C119.45 234.69 118.78 235.29 118.78 236.26C118.78 237.3 119.49 237.79 120.87 238.43C123 239.43 124.13 240.2 124.13 241.91C124.13 244.24 121.98 245.43 119.97 245.43C118.67 245.43 117.48 245.01 116.96 244.72C116.84 244.02 116.61 242.59 116.52 241.75L117.26 241.62C117.72 243.22 118.62 244.55 120.35 244.55C121.3 244.55 122.04 243.91 122.04 242.92C122.04 241.86 121.42 241.28 120.05 240.62C118.32 239.78 116.86 238.97 116.86 237.12C116.86 235.27 118.42 233.84 120.83 233.84C121.91 233.84 122.77 234.09 123.28 234.17C123.36 234.78 123.54 236.36 123.66 236.98L122.92 237.16Z" fill="#388D99"/>
<path d="M138.31 249.96C134.78 247.32 132.54 243.05 132.54 238.35C132.54 233.68 134.81 229.45 138.31 226.79L138.85 227.44C136.42 229.77 134.75 233.84 134.75 238.37C134.75 242.82 136.52 247.11 138.85 249.31L138.31 249.96Z" fill="#388D99"/>
<path d="M147.3 237.16C146.81 235.66 146.13 234.69 144.67 234.69C143.83 234.69 143.16 235.29 143.16 236.26C143.16 237.3 143.87 237.79 145.25 238.43C147.38 239.43 148.51 240.2 148.51 241.91C148.51 244.24 146.36 245.43 144.35 245.43C143.05 245.43 141.86 245.01 141.34 244.72C141.22 244.02 140.99 242.59 140.9 241.75L141.64 241.62C142.1 243.22 143 244.55 144.73 244.55C145.68 244.55 146.42 243.91 146.42 242.92C146.42 241.86 145.8 241.28 144.43 240.62C142.7 239.78 141.24 238.97 141.24 237.12C141.24 235.27 142.8 233.84 145.21 233.84C146.29 233.84 147.15 234.09 147.66 234.17C147.74 234.78 147.92 236.36 148.04 236.98L147.3 237.16Z" fill="#388D99"/>
<path d="M149.89 234.67C151.09 234.49 152.46 234.06 153.69 233.59C153.69 234.18 153.69 234.97 153.69 235.55C153.76 235.5 155.69 234.39 155.79 234.34C156.39 234.01 156.92 233.84 157.27 233.84C160.02 233.84 161.68 236.18 161.68 238.64C161.68 242.41 158.7 244.82 155.43 245.43C154.7 245.41 154.05 245.21 153.69 245.02V248.33C153.69 250.1 153.88 250.25 155.76 250.43V251.15H149.7V250.43C151.31 250.26 151.49 250.12 151.49 248.5V237.17C151.49 235.7 151.42 235.59 149.89 235.38V234.67V234.67ZM153.69 243.24C154.25 243.8 155.21 244.21 156.01 244.21C158.03 244.21 159.35 242.42 159.35 239.64C159.35 236.87 157.78 235.41 156.1 235.41C155.27 235.41 154.31 235.93 153.68 236.39V243.24H153.69Z" fill="#388D99"/>
<path d="M172.78 242.95C171.19 244.99 169.4 245.43 168.55 245.43C165.45 245.43 163.59 242.93 163.59 240.04C163.59 238.33 164.23 236.73 165.26 235.64C166.32 234.47 167.7 233.83 169.02 233.83C171.24 233.83 172.9 235.73 172.9 237.74C172.88 238.23 172.81 238.49 172.43 238.58C171.93 238.68 168.68 238.9 165.8 239C165.76 242.22 167.7 243.59 169.48 243.59C170.5 243.59 171.45 243.18 172.37 242.34L172.78 242.95ZM168.43 234.8C167.31 234.8 166.23 235.89 165.92 237.91C167.25 237.91 168.57 237.9 169.97 237.84C170.4 237.84 170.55 237.72 170.55 237.34C170.58 236.02 169.76 234.8 168.43 234.8Z" fill="#388D99"/>
<path d="M183.88 242.85C182.77 244.34 181.1 245.43 179.59 245.43C176.37 245.43 174.47 242.85 174.47 240.16C174.47 238.21 175.34 236.54 177 235.28C178.38 234.22 179.9 233.83 180.9 233.83C181.99 233.83 182.81 234.17 183.2 234.49C183.55 234.76 183.61 234.96 183.61 235.25C183.61 235.87 182.97 236.42 182.67 236.42C182.54 236.42 182.42 236.37 182.18 236.17C181.35 235.43 180.5 235.08 179.64 235.08C178.11 235.08 176.71 236.4 176.71 239.02C176.69 242.47 179.07 243.6 180.46 243.6C181.51 243.6 182.34 243.33 183.44 242.28L183.88 242.85Z" fill="#388D99"/>
<path d="M185.05 245.13V244.4C186.58 244.25 186.75 244.12 186.75 242.41V237.31C186.75 235.74 186.67 235.64 185.23 235.41V234.77C186.58 234.55 187.83 234.23 188.95 233.79C188.95 234.84 188.95 235.88 188.95 236.93V242.42C188.95 244.12 189.11 244.25 190.7 244.41V245.14H185.05V245.13ZM187.71 231.51C186.97 231.51 186.3 230.85 186.3 230.1C186.3 229.26 186.97 228.65 187.74 228.65C188.49 228.65 189.11 229.26 189.11 230.1C189.1 230.85 188.49 231.51 187.71 231.51Z" fill="#388D99"/>
<path d="M200.04 245.43C199.61 245.43 199.06 245.23 198.8 244.95C198.47 244.63 198.32 244.28 198.19 243.86C197.2 244.53 195.97 245.43 195.25 245.43C193.41 245.43 192.14 243.92 192.14 242.33C192.14 241.09 192.8 240.32 194.17 239.84C195.69 239.31 197.58 238.67 198.13 238.21V237.6C198.13 235.91 197.31 234.94 196.05 234.94C195.5 234.94 195.15 235.2 194.91 235.5C194.63 235.86 194.47 236.4 194.25 237.13C194.12 237.58 193.86 237.75 193.46 237.75C192.95 237.75 192.29 237.23 192.29 236.61C192.29 236.24 192.61 235.94 193.12 235.58C193.92 235.01 195.37 234.13 196.79 233.83C197.58 233.83 198.37 234.06 198.98 234.51C199.89 235.26 200.27 236.15 200.27 237.44V242.17C200.27 243.33 200.69 243.67 201.13 243.67C201.42 243.67 201.73 243.55 202.01 243.41L202.26 244.14L200.04 245.43ZM198.13 239.11C197.6 239.38 196.53 239.86 195.97 240.11C195.05 240.53 194.5 241 194.5 241.91C194.5 243.25 195.5 243.83 196.25 243.83C196.85 243.83 197.65 243.5 198.13 243.02C198.13 241.85 198.13 240.28 198.13 239.11Z" fill="#388D99"/>
<path d="M202.92 245.13V244.4C204.49 244.24 204.66 244.11 204.66 242.48V230.62C204.66 229.14 204.53 228.99 202.99 228.77V228.09C204.41 227.94 205.99 227.55 206.86 227.24C206.86 228.41 206.86 229.59 206.86 230.76V242.48C206.86 244.13 207 244.25 208.59 244.4V245.13H202.92Z" fill="#388D99"/>
<path d="M209.88 245.13V244.4C211.41 244.25 211.58 244.12 211.58 242.41V237.31C211.58 235.74 211.5 235.64 210.06 235.41V234.77C211.41 234.55 212.66 234.23 213.78 233.79C213.78 234.84 213.78 235.88 213.78 236.93V242.42C213.78 244.12 213.94 244.25 215.53 244.41V245.14H209.88V245.13ZM212.53 231.51C211.79 231.51 211.12 230.85 211.12 230.1C211.12 229.26 211.79 228.65 212.56 228.65C213.31 228.65 213.93 229.26 213.93 230.1C213.93 230.85 213.31 231.51 212.53 231.51Z" fill="#388D99"/>
<path d="M223.39 237.16C222.9 235.66 222.22 234.69 220.76 234.69C219.92 234.69 219.25 235.29 219.25 236.26C219.25 237.3 219.96 237.79 221.34 238.43C223.47 239.43 224.6 240.2 224.6 241.91C224.6 244.24 222.45 245.43 220.44 245.43C219.14 245.43 217.95 245.01 217.43 244.72C217.31 244.02 217.08 242.59 216.99 241.75L217.73 241.62C218.19 243.22 219.09 244.55 220.82 244.55C221.77 244.55 222.51 243.91 222.51 242.92C222.51 241.86 221.89 241.28 220.52 240.62C218.79 239.78 217.33 238.97 217.33 237.12C217.33 235.27 218.89 233.84 221.3 233.84C222.38 233.84 223.24 234.09 223.75 234.17C223.83 234.78 224.01 236.36 224.13 236.98L223.39 237.16Z" fill="#388D99"/>
<path d="M226.18 245.13V244.4C227.71 244.25 227.88 244.12 227.88 242.41V237.31C227.88 235.74 227.8 235.64 226.36 235.41V234.77C227.71 234.55 228.96 234.23 230.08 233.79C230.08 234.84 230.08 235.88 230.08 236.93V242.42C230.08 244.12 230.24 244.25 231.83 244.41V245.14H226.18V245.13ZM228.83 231.51C228.09 231.51 227.42 230.85 227.42 230.1C227.42 229.26 228.09 228.65 228.86 228.65C229.61 228.65 230.23 229.26 230.23 230.1C230.23 230.85 229.61 231.51 228.83 231.51Z" fill="#388D99"/>
<path d="M240.25 245.13V244.4C241.63 244.25 241.76 244.09 241.76 242.38V238.23C241.76 236.48 241.09 235.41 239.58 235.41C238.62 235.41 237.72 235.95 236.97 236.61V242.49C236.97 244.18 237.11 244.24 238.5 244.39V245.12H233.03V244.39C234.62 244.21 234.77 244.12 234.77 242.47V237.31C234.77 235.71 234.59 235.63 233.29 235.41V234.73C234.56 234.53 235.87 234.21 236.98 233.74C236.98 234.28 236.97 235.09 236.97 235.68C237.47 235.33 238.01 234.96 238.65 234.54C239.36 234.09 239.98 233.81 240.7 233.81C242.7 233.81 243.96 235.28 243.96 237.73V242.47C243.96 244.14 244.11 244.22 245.51 244.37V245.1H240.25V245.13Z" fill="#388D99"/>
<path d="M250.58 241.43C250.04 241.87 249.82 242.32 249.82 242.61C249.82 243.05 250.25 243.56 251.35 243.56C252.25 243.56 253.33 243.54 254.15 243.54C255.74 243.54 257.82 244.08 257.82 246.55C257.82 249.19 254.68 251.6 251.35 251.6C248.44 251.6 246.93 249.96 246.89 248.5C246.89 247.94 247.12 247.48 247.54 247.08C248.07 246.56 248.99 245.81 249.56 245.38C248.64 245.11 248.02 244.55 247.69 244.02C247.45 243.64 247.36 243.16 247.37 242.89C248.36 242.51 249.25 241.8 249.74 241.15L250.58 241.43ZM251.78 241.68C249.36 241.68 247.45 240.24 247.45 237.91C247.45 235.09 250.01 233.77 252.01 233.77C252.88 233.77 253.7 233.99 254.49 234.4C255.62 234.4 257.17 234.2 257.86 234.03L258.01 234.25C257.86 234.66 257.47 235.38 257.09 235.62C256.71 235.62 255.9 235.52 255.55 235.5C255.97 236.05 256.25 236.83 256.25 237.73C256.24 240.41 253.98 241.68 251.78 241.68ZM252.31 245.46C251.08 245.46 250.51 245.61 250.08 245.98C249.43 246.51 248.97 247.22 248.97 247.91C248.97 249.28 250.36 250.3 252.33 250.3C254.62 250.3 255.95 249.13 255.95 247.58C255.95 246.72 255.51 246.06 254.8 245.77C254.15 245.51 253.33 245.46 252.31 245.46ZM251.79 234.6C250.73 234.6 249.77 235.61 249.77 237.55C249.77 239.47 250.69 240.85 252.03 240.85C253.11 240.81 254.01 239.87 254.01 237.88C254 236.01 253.15 234.6 251.79 234.6Z" fill="#388D99"/>
<path d="M83.39 281.13V280.4C84.92 280.25 85.09 280.12 85.09 278.41V273.31C85.09 271.74 85.01 271.64 83.57 271.41V270.77C84.92 270.55 86.17 270.23 87.29 269.79C87.29 270.84 87.29 271.88 87.29 272.93V278.42C87.29 280.12 87.45 280.25 89.04 280.41V281.14H83.39V281.13ZM86.05 267.51C85.31 267.51 84.64 266.85 84.64 266.1C84.64 265.26 85.31 264.65 86.08 264.65C86.83 264.65 87.45 265.26 87.45 266.1C87.44 266.85 86.83 267.51 86.05 267.51Z" fill="#388D99"/>
<path d="M97.47 281.13V280.4C98.85 280.25 98.98 280.09 98.98 278.38V274.23C98.98 272.48 98.31 271.41 96.8 271.41C95.84 271.41 94.94 271.95 94.19 272.61V278.49C94.19 280.18 94.33 280.24 95.72 280.39V281.12H90.25V280.39C91.84 280.21 91.99 280.12 91.99 278.47V273.31C91.99 271.71 91.81 271.63 90.51 271.41V270.73C91.78 270.53 93.09 270.21 94.2 269.74C94.2 270.28 94.19 271.09 94.19 271.68C94.69 271.33 95.23 270.96 95.87 270.54C96.58 270.09 97.2 269.81 97.92 269.81C99.92 269.81 101.18 271.28 101.18 273.73V278.47C101.18 280.14 101.33 280.22 102.73 280.37V281.1H97.47V281.13Z" fill="#388D99"/>
<path d="M109.94 281.13V280.4C111.47 280.25 111.64 280.12 111.64 278.41V273.31C111.64 271.74 111.56 271.64 110.12 271.41V270.77C111.47 270.55 112.72 270.23 113.84 269.79C113.84 270.84 113.84 271.88 113.84 272.93V278.42C113.84 280.12 114 280.25 115.59 280.41V281.14H109.94V281.13ZM112.6 267.51C111.86 267.51 111.19 266.85 111.19 266.1C111.19 265.26 111.86 264.65 112.63 264.65C113.38 264.65 114 265.26 114 266.1C113.99 266.85 113.38 267.51 112.6 267.51Z" fill="#388D99"/>
<path d="M129.14 280.5C128.6 280.6 126.65 280.9 125.08 281.43C125.08 280.91 125.08 280.36 125.08 279.84C124.63 280.12 123.98 280.47 123.53 280.75C122.6 281.29 121.98 281.42 121.69 281.42C119.67 281.42 116.95 279.45 116.95 275.91C116.95 272.45 119.99 269.82 123.5 269.82C123.82 269.82 124.57 269.86 125.07 270.06V266.53C125.07 264.98 124.9 264.92 123.17 264.76V264.08C124.49 263.91 126.29 263.56 127.27 263.23C127.27 264.16 127.27 265.22 127.27 266.26V278.18C127.27 279.49 127.44 279.65 128.37 279.72L129.12 279.77V280.5H129.14ZM125.08 272.11C124.56 271.27 123.56 270.84 122.59 270.84C121.47 270.84 119.42 271.59 119.42 275.19C119.42 278.26 121.29 279.79 122.8 279.81C123.62 279.81 124.49 279.43 125.08 279V272.11Z" fill="#388D99"/>
<path d="M139.61 278.95C138.02 280.99 136.23 281.43 135.38 281.43C132.28 281.43 130.42 278.93 130.42 276.04C130.42 274.33 131.06 272.73 132.09 271.64C133.15 270.47 134.53 269.83 135.85 269.83C138.07 269.83 139.73 271.73 139.73 273.74C139.71 274.23 139.64 274.49 139.26 274.58C138.76 274.68 135.51 274.9 132.63 275C132.59 278.22 134.53 279.59 136.31 279.59C137.33 279.59 138.28 279.18 139.2 278.34L139.61 278.95ZM135.27 270.8C134.15 270.8 133.07 271.89 132.76 273.91C134.09 273.91 135.41 273.9 136.81 273.84C137.24 273.84 137.39 273.72 137.39 273.34C137.41 272.02 136.59 270.8 135.27 270.8Z" fill="#388D99"/>
<path d="M148.37 281.13V280.4C149.75 280.25 149.88 280.09 149.88 278.38V274.23C149.88 272.48 149.21 271.41 147.7 271.41C146.74 271.41 145.84 271.95 145.09 272.61V278.49C145.09 280.18 145.23 280.24 146.62 280.39V281.12H141.15V280.39C142.74 280.21 142.89 280.12 142.89 278.47V273.31C142.89 271.71 142.71 271.63 141.41 271.41V270.73C142.68 270.53 143.99 270.21 145.1 269.74C145.1 270.28 145.09 271.09 145.09 271.68C145.59 271.33 146.13 270.96 146.77 270.54C147.48 270.09 148.1 269.81 148.82 269.81C150.82 269.81 152.08 271.28 152.08 273.73V278.47C152.08 280.14 152.23 280.22 153.63 280.37V281.1H148.37V281.13Z" fill="#388D99"/>
<path d="M160.09 281.11C159.67 281.33 159.27 281.43 159.03 281.43C157.37 281.43 156.47 280.47 156.47 278.42V271.2H154.77L154.66 270.9L155.34 270.13H156.47V268.04C157.01 267.52 157.83 266.85 158.37 266.33L158.74 266.41C158.69 267.39 158.66 268.82 158.67 270.14H161.46C161.68 270.39 161.61 270.98 161.3 271.21H158.67V277.56C158.67 279.57 159.47 279.92 160.09 279.92C160.66 279.92 161.19 279.72 161.56 279.55L161.79 280.25L160.09 281.11Z" fill="#388D99"/>
<path d="M162.82 281.13V280.4C164.35 280.25 164.52 280.12 164.52 278.41V273.31C164.52 271.74 164.44 271.64 163 271.41V270.77C164.35 270.55 165.6 270.23 166.72 269.79C166.72 270.84 166.72 271.88 166.72 272.93V278.42C166.72 280.12 166.88 280.25 168.47 280.41V281.14H162.82V281.13ZM165.47 267.51C164.73 267.51 164.06 266.85 164.06 266.1C164.06 265.26 164.73 264.65 165.5 264.65C166.25 264.65 166.87 265.26 166.87 266.1C166.87 266.85 166.25 267.51 165.47 267.51Z" fill="#388D99"/>
<path d="M171.4 270.13V269.48C171.4 267.7 172.08 265.86 173.63 264.55C174.51 263.78 175.46 263.36 176.48 263.23C177.35 263.25 178.12 263.55 178.53 264.01C178.78 264.3 178.82 264.58 178.69 264.93C178.6 265.22 178.31 265.58 178.04 265.78C177.74 265.97 177.53 265.91 177.28 265.73C176.76 265.25 176.05 264.63 175.25 264.63C173.61 264.63 173.59 266.82 173.6 268.96V270.12H176.19C176.33 270.35 176.21 271.01 175.92 271.19H173.6V278.4C173.6 280.15 173.86 280.2 175.68 280.4V281.13H169.7V280.4C171.24 280.24 171.4 280.14 171.4 278.52V271.19H169.65L169.55 270.91L170.12 270.13H171.4V270.13Z" fill="#388D99"/>
<path d="M188.04 270.84C186.76 271.04 186.49 271.24 185.86 272.66C185.24 274.04 184.56 275.77 182.88 279.96C181.24 283.97 180.79 285.54 180.37 286.86C180.22 287.39 179.94 287.52 179.59 287.52C178.76 287.52 177.98 286.92 177.98 286.25C177.98 285.91 178.15 285.69 178.55 285.37C179.38 284.76 179.97 284.18 180.3 283.53C180.78 282.59 181.13 281.75 181.25 281.43C181.35 281.06 181.34 280.83 181.19 280.42C180.16 277.44 178.76 274.3 178.07 272.63C177.54 271.31 177.3 271.01 175.96 270.84V270.13H181.22V270.84C180.08 271.01 179.95 271.25 180.27 272.15L182.61 278.14C183.28 276.48 184.26 273.79 184.78 272.25C185.07 271.33 184.87 271.04 183.46 270.84V270.13H188.03V270.84H188.04Z" fill="#388D99"/>
<path d="M188.29 281.13V280.4C189.82 280.25 189.99 280.12 189.99 278.41V273.31C189.99 271.74 189.91 271.64 188.47 271.41V270.77C189.82 270.55 191.07 270.23 192.19 269.79C192.19 270.84 192.19 271.88 192.19 272.93V278.42C192.19 280.12 192.35 280.25 193.94 280.41V281.14H188.29V281.13ZM190.95 267.51C190.21 267.51 189.54 266.85 189.54 266.1C189.54 265.26 190.21 264.65 190.98 264.65C191.73 264.65 192.35 265.26 192.35 266.1C192.34 266.85 191.73 267.51 190.95 267.51Z" fill="#388D99"/>
<path d="M202.37 281.13V280.4C203.75 280.25 203.88 280.09 203.88 278.38V274.23C203.88 272.48 203.21 271.41 201.7 271.41C200.74 271.41 199.84 271.95 199.09 272.61V278.49C199.09 280.18 199.23 280.24 200.62 280.39V281.12H195.15V280.39C196.74 280.21 196.89 280.12 196.89 278.47V273.31C196.89 271.71 196.71 271.63 195.41 271.41V270.73C196.68 270.53 197.99 270.21 199.1 269.74C199.1 270.28 199.09 271.09 199.09 271.68C199.59 271.33 200.13 270.96 200.77 270.54C201.48 270.09 202.1 269.81 202.82 269.81C204.82 269.81 206.08 271.28 206.08 273.73V278.47C206.08 280.14 206.23 280.22 207.63 280.37V281.1H202.37V281.13Z" fill="#388D99"/>
<path d="M212.7 277.43C212.16 277.87 211.94 278.32 211.94 278.61C211.94 279.05 212.37 279.56 213.47 279.56C214.37 279.56 215.45 279.54 216.27 279.54C217.86 279.54 219.94 280.08 219.94 282.55C219.94 285.19 216.8 287.6 213.47 287.6C210.56 287.6 209.05 285.96 209.01 284.5C209.01 283.94 209.24 283.48 209.66 283.08C210.19 282.56 211.11 281.81 211.68 281.38C210.76 281.11 210.14 280.55 209.81 280.02C209.57 279.64 209.48 279.16 209.49 278.89C210.48 278.51 211.37 277.8 211.86 277.15L212.7 277.43ZM213.9 277.68C211.48 277.68 209.57 276.24 209.57 273.91C209.57 271.09 212.13 269.77 214.13 269.77C215 269.77 215.82 269.99 216.61 270.4C217.74 270.4 219.29 270.2 219.98 270.03L220.13 270.25C219.98 270.66 219.59 271.38 219.21 271.62C218.83 271.62 218.02 271.52 217.67 271.5C218.09 272.05 218.37 272.83 218.37 273.73C218.36 276.41 216.1 277.68 213.9 277.68ZM214.42 281.46C213.19 281.46 212.62 281.61 212.19 281.98C211.54 282.51 211.08 283.22 211.08 283.91C211.08 285.28 212.47 286.3 214.44 286.3C216.73 286.3 218.06 285.13 218.06 283.58C218.06 282.72 217.62 282.06 216.91 281.77C216.27 281.51 215.45 281.46 214.42 281.46ZM213.9 270.6C212.84 270.6 211.88 271.61 211.88 273.55C211.88 275.47 212.8 276.85 214.14 276.85C215.22 276.81 216.12 275.87 216.12 273.88C216.12 272.01 215.26 270.6 213.9 270.6Z" fill="#388D99"/>
<path d="M106.73 316.5C106.19 316.6 104.24 316.9 102.67 317.43C102.67 316.91 102.67 316.36 102.67 315.84C102.22 316.12 101.57 316.47 101.12 316.75C100.19 317.29 99.57 317.42 99.28 317.42C97.26 317.42 94.54 315.45 94.54 311.91C94.54 308.45 97.58 305.82 101.09 305.82C101.41 305.82 102.16 305.86 102.66 306.06V302.53C102.66 300.98 102.49 300.92 100.76 300.76V300.08C102.08 299.91 103.88 299.56 104.86 299.23C104.86 300.16 104.86 301.22 104.86 302.26V314.18C104.86 315.49 105.03 315.65 105.96 315.72L106.71 315.77V316.5H106.73ZM102.67 308.11C102.15 307.27 101.15 306.84 100.18 306.84C99.06 306.84 97.01 307.59 97.01 311.19C97.01 314.26 98.88 315.79 100.39 315.81C101.21 315.81 102.08 315.43 102.67 315V308.11Z" fill="#388D99"/>
<path d="M117.2 314.95C115.61 316.99 113.82 317.43 112.97 317.43C109.87 317.43 108.01 314.93 108.01 312.04C108.01 310.33 108.65 308.73 109.68 307.64C110.74 306.47 112.12 305.83 113.44 305.83C115.66 305.83 117.32 307.73 117.32 309.74C117.3 310.23 117.23 310.49 116.85 310.58C116.35 310.68 113.1 310.9 110.22 311C110.18 314.22 112.12 315.59 113.9 315.59C114.92 315.59 115.87 315.18 116.79 314.34L117.2 314.95ZM112.86 306.8C111.74 306.8 110.66 307.89 110.35 309.91C111.68 309.91 113 309.9 114.4 309.84C114.83 309.84 114.98 309.72 114.98 309.34C115 308.02 114.18 306.8 112.86 306.8Z" fill="#388D99"/>
<path d="M128.3 314.85C127.19 316.34 125.52 317.43 124.01 317.43C120.79 317.43 118.89 314.85 118.89 312.16C118.89 310.21 119.76 308.54 121.42 307.28C122.8 306.22 124.32 305.83 125.32 305.83C126.41 305.83 127.23 306.17 127.62 306.49C127.97 306.76 128.03 306.96 128.03 307.25C128.03 307.87 127.39 308.42 127.09 308.42C126.96 308.42 126.84 308.37 126.6 308.17C125.77 307.43 124.92 307.08 124.06 307.08C122.53 307.08 121.13 308.4 121.13 311.02C121.11 314.47 123.49 315.6 124.88 315.6C125.93 315.6 126.76 315.33 127.86 314.28L128.3 314.85Z" fill="#388D99"/>
<path d="M138.8 314.95C137.21 316.99 135.42 317.43 134.57 317.43C131.47 317.43 129.61 314.93 129.61 312.04C129.61 310.33 130.25 308.73 131.28 307.64C132.34 306.47 133.72 305.83 135.04 305.83C137.26 305.83 138.92 307.73 138.92 309.74C138.9 310.23 138.83 310.49 138.45 310.58C137.95 310.68 134.7 310.9 131.82 311C131.78 314.22 133.72 315.59 135.5 315.59C136.52 315.59 137.47 315.18 138.39 314.34L138.8 314.95ZM134.46 306.8C133.34 306.8 132.26 307.89 131.95 309.91C133.28 309.91 134.6 309.9 136 309.84C136.43 309.84 136.58 309.72 136.58 309.34C136.6 308.02 135.78 306.8 134.46 306.8Z" fill="#388D99"/>
<path d="M140.17 306.67C141.37 306.49 142.74 306.06 143.97 305.59C143.97 306.18 143.97 306.97 143.97 307.55C144.04 307.5 145.97 306.39 146.07 306.34C146.67 306.01 147.2 305.84 147.55 305.84C150.3 305.84 151.96 308.18 151.96 310.64C151.96 314.41 148.98 316.82 145.71 317.43C144.98 317.41 144.33 317.21 143.97 317.02V320.33C143.97 322.1 144.16 322.25 146.04 322.43V323.15H139.98V322.43C141.59 322.26 141.77 322.12 141.77 320.5V309.17C141.77 307.7 141.7 307.59 140.17 307.38V306.67V306.67ZM143.97 315.24C144.53 315.8 145.49 316.21 146.29 316.21C148.31 316.21 149.63 314.42 149.63 311.64C149.63 308.87 148.06 307.41 146.38 307.41C145.55 307.41 144.59 307.93 143.96 308.39V315.24H143.97Z" fill="#388D99"/>
<path d="M158.75 317.11C158.33 317.33 157.93 317.43 157.69 317.43C156.03 317.43 155.13 316.47 155.13 314.42V307.2H153.43L153.32 306.9L154 306.13H155.13V304.04C155.67 303.52 156.49 302.85 157.03 302.33L157.4 302.41C157.35 303.39 157.33 304.82 157.33 306.14H160.12C160.34 306.39 160.27 306.98 159.96 307.21H157.33V313.56C157.33 315.57 158.13 315.92 158.75 315.92C159.32 315.92 159.85 315.72 160.22 315.55L160.45 316.25L158.75 317.11Z" fill="#388D99"/>
<path d="M161.48 317.13V316.4C163.01 316.25 163.18 316.12 163.18 314.41V309.31C163.18 307.74 163.1 307.64 161.66 307.41V306.77C163.01 306.55 164.26 306.23 165.38 305.79C165.38 306.84 165.38 307.88 165.38 308.93V314.42C165.38 316.12 165.54 316.25 167.13 316.41V317.14H161.48V317.13ZM164.13 303.51C163.39 303.51 162.72 302.85 162.72 302.1C162.72 301.26 163.39 300.65 164.16 300.65C164.91 300.65 165.53 301.26 165.53 302.1C165.53 302.85 164.91 303.51 164.13 303.51Z" fill="#388D99"/>
<path d="M174.12 305.83C177.32 305.83 179.62 308.25 179.62 311.44C179.62 315.48 176.64 317.43 174.1 317.43C170.59 317.43 168.48 314.64 168.48 311.82C168.49 307.79 171.66 305.83 174.12 305.83ZM173.82 306.71C172.38 306.71 171.06 308.12 171.06 311.05C171.06 314.21 172.39 316.52 174.36 316.52C175.8 316.52 177.05 315.48 177.05 312.02C177.05 309 175.91 306.71 173.82 306.71Z" fill="#388D99"/>
<path d="M188.53 317.13V316.4C189.91 316.25 190.04 316.09 190.04 314.38V310.23C190.04 308.48 189.37 307.41 187.86 307.41C186.9 307.41 186 307.95 185.25 308.61V314.49C185.25 316.18 185.39 316.24 186.78 316.39V317.12H181.31V316.39C182.9 316.21 183.05 316.12 183.05 314.47V309.31C183.05 307.71 182.87 307.63 181.57 307.41V306.73C182.84 306.53 184.15 306.21 185.26 305.74C185.26 306.28 185.25 307.09 185.25 307.68C185.75 307.33 186.29 306.96 186.93 306.54C187.64 306.09 188.26 305.81 188.98 305.81C190.98 305.81 192.24 307.28 192.24 309.73V314.47C192.24 316.14 192.39 316.22 193.79 316.37V317.1H188.53V317.13Z" fill="#388D99"/>
<path d="M196 298.79C199.53 301.45 201.77 305.7 201.77 310.4C201.77 315.07 199.5 319.3 196 321.96L195.44 321.31C197.85 319.02 199.56 314.91 199.56 310.4C199.56 305.97 197.82 301.66 195.44 299.44L196 298.79Z" fill="#388D99"/>
<path d="M206.34 317.47C205.39 317.47 204.73 316.78 204.73 315.78C204.73 314.83 205.4 314.09 206.34 314.09C207.28 314.09 208 314.82 208 315.78C208 316.78 207.3 317.47 206.34 317.47Z" fill="#388D99"/>
<defs>
<linearGradient id="paint0_linear" x1="9.118" y1="1.917" x2="321.544" y2="405.23" gradientUnits="userSpaceOnUse">
<stop stop-color="#004A48"/>
<stop offset="0.1386" stop-color="#1B5B5C"/>
<stop offset="0.3173" stop-color="#287075"/>
<stop offset="0.4892" stop-color="#317F88"/>
<stop offset="0.6495" stop-color="#368994"/>
<stop offset="0.7867" stop-color="#388C98"/>
</linearGradient>
</defs>
</svg>
