<svg width="302" height="370" viewBox="0 0 302 370" fill="none" xmlns="http://www.w3.org/2000/svg">
<path d="M301.62 0H0V369.68H301.62V0Z" fill="url(#paint0_linear)"/>
<path d="M301.13 6.65991H6.55005V369.17H301.13V6.65991Z" fill="white"/>
<path d="M300.62 7.15991V368.67H7.05005V7.15991H300.62ZM301.62 6.15991H6.05005V369.67H301.63V6.15991H301.62Z" fill="#388D99"/>
<path d="M301.62 369.67V323.22L255.68 369.67H301.62Z" fill="#004947"/>
<path d="M101.18 49.92C99.42 50.17 99.16 50.4001 98.48 52.4501C97.69 54.8501 95.71 61.1201 94.3 65.7001H93.35C92.06 61.8501 90.43 57.23 89.1 53.53C87.68 57.73 86.24 61.9001 84.97 65.7001H84.03C82.82 61.5401 81.3699 56.7801 80.0099 52.3901C79.3599 50.3901 79.07 50.09 77.47 49.92V49.1801H83.89V49.92C82.04 50.12 81.99 50.41 82.34 51.67C83.29 54.95 84.2599 58.21 85.2499 61.59C86.6099 57.7 88.05 53.4501 89.3 49.3901H90.1899C91.5899 53.5601 92.99 57.47 94.43 61.61C95.46 58.4 96.84 54 97.36 51.96C97.73 50.51 97.52 50.16 95.39 49.92V49.1801H101.18V49.92V49.92Z" fill="#388D99"/>
<path d="M110.81 63.2501C109.22 65.2901 107.43 65.7301 106.58 65.7301C103.48 65.7301 101.62 63.2301 101.62 60.3401C101.62 58.6301 102.26 57.0301 103.29 55.9401C104.35 54.7701 105.73 54.1301 107.05 54.1301C109.27 54.1301 110.93 56.0301 110.93 58.0401C110.91 58.5301 110.84 58.7901 110.46 58.8801C109.96 58.9801 106.71 59.2001 103.83 59.3001C103.79 62.5201 105.73 63.8901 107.51 63.8901C108.53 63.8901 109.48 63.4801 110.4 62.6401L110.81 63.2501ZM106.47 55.1001C105.35 55.1001 104.27 56.1901 103.96 58.2101C105.29 58.2101 106.61 58.2001 108.01 58.1401C108.44 58.1401 108.59 58.0201 108.59 57.6401C108.61 56.3201 107.79 55.1001 106.47 55.1001Z" fill="#388D99"/>
<path d="M130.46 64.8C129.92 64.9 127.97 65.2 126.4 65.73C126.4 65.21 126.4 64.6601 126.4 64.1401C125.95 64.4201 125.31 64.77 124.86 65.05C123.93 65.59 123.31 65.72 123.02 65.72C121 65.72 118.28 63.75 118.28 60.21C118.28 56.75 121.32 54.1201 124.83 54.1201C125.15 54.1201 125.9 54.16 126.4 54.36V50.8301C126.4 49.2801 126.23 49.2201 124.5 49.0601V48.3801C125.82 48.2101 127.62 47.86 128.6 47.53C128.6 48.46 128.6 49.5201 128.6 50.5601V62.48C128.6 63.79 128.77 63.95 129.7 64.02L130.45 64.0701V64.8H130.46ZM126.4 56.41C125.88 55.57 124.88 55.1401 123.91 55.1401C122.79 55.1401 120.74 55.8901 120.74 59.4901C120.74 62.5601 122.61 64.09 124.12 64.11C124.94 64.11 125.81 63.73 126.4 63.3V56.41Z" fill="#388D99"/>
<path d="M140.94 63.2501C139.35 65.2901 137.56 65.7301 136.71 65.7301C133.61 65.7301 131.75 63.2301 131.75 60.3401C131.75 58.6301 132.39 57.0301 133.42 55.9401C134.48 54.7701 135.86 54.1301 137.17 54.1301C139.39 54.1301 141.05 56.0301 141.05 58.0401C141.03 58.5301 140.96 58.7901 140.58 58.8801C140.08 58.9801 136.83 59.2001 133.95 59.3001C133.91 62.5201 135.85 63.8901 137.63 63.8901C138.65 63.8901 139.6 63.4801 140.52 62.6401L140.94 63.2501ZM136.59 55.1001C135.47 55.1001 134.39 56.1901 134.08 58.2101C135.41 58.2101 136.73 58.2001 138.13 58.1401C138.56 58.1401 138.71 58.0201 138.71 57.6401C138.74 56.3201 137.92 55.1001 136.59 55.1001Z" fill="#388D99"/>
<path d="M142.16 65.4301V64.7001C143.73 64.5401 143.9 64.41 143.9 62.78V50.92C143.9 49.44 143.77 49.2901 142.23 49.0701V48.3901C143.65 48.2401 145.23 47.85 146.1 47.54C146.1 48.71 146.1 49.8901 146.1 51.0601V62.78C146.1 64.43 146.24 64.5501 147.83 64.7001V65.4301H142.16Z" fill="#388D99"/>
<path d="M149.11 65.4301V64.7001C150.64 64.5501 150.82 64.42 150.82 62.71V57.61C150.82 56.04 150.74 55.94 149.29 55.71V55.0701C150.64 54.8501 151.89 54.53 153.01 54.09C153.01 55.14 153.01 56.18 153.01 57.23V62.72C153.01 64.42 153.17 64.55 154.76 64.71V65.4401H149.11V65.4301ZM151.77 51.8101C151.02 51.8101 150.36 51.15 150.36 50.4C150.36 49.56 151.03 48.9501 151.8 48.9501C152.55 48.9501 153.17 49.56 153.17 50.4C153.17 51.15 152.55 51.8101 151.77 51.8101Z" fill="#388D99"/>
<path d="M167.06 55.1401C165.71 55.3201 165.53 55.54 164.9 56.98C164.07 58.98 162.66 62.26 161.33 65.71H160.55C159.46 62.79 158.25 59.83 157.07 56.91C156.52 55.53 156.31 55.35 155.01 55.15V54.4401H160.32V55.15C158.99 55.33 158.92 55.51 159.3 56.54C159.92 58.26 160.95 60.8701 161.59 62.4901C162.4 60.4701 163.23 58.4 163.79 56.77C164.18 55.63 164.11 55.32 162.48 55.15V54.4401H167.06V55.1401V55.1401Z" fill="#388D99"/>
<path d="M176.66 63.2501C175.07 65.2901 173.28 65.7301 172.43 65.7301C169.33 65.7301 167.47 63.2301 167.47 60.3401C167.47 58.6301 168.11 57.0301 169.14 55.9401C170.2 54.7701 171.58 54.1301 172.9 54.1301C175.12 54.1301 176.78 56.0301 176.78 58.0401C176.76 58.5301 176.69 58.7901 176.31 58.8801C175.81 58.9801 172.56 59.2001 169.68 59.3001C169.64 62.5201 171.58 63.8901 173.36 63.8901C174.38 63.8901 175.33 63.4801 176.25 62.6401L176.66 63.2501ZM172.32 55.1001C171.2 55.1001 170.12 56.1901 169.81 58.2101C171.14 58.2101 172.46 58.2001 173.86 58.1401C174.29 58.1401 174.44 58.0201 174.44 57.6401C174.46 56.3201 173.64 55.1001 172.32 55.1001Z" fill="#388D99"/>
<path d="M184.14 65.4301H178.24V64.7001C179.77 64.5501 179.91 64.4201 179.91 62.8201V57.5701C179.91 55.9901 179.81 55.91 178.41 55.72V55.0701C179.69 54.8701 180.87 54.5701 182.11 54.0601C182.11 54.8901 182.11 55.98 182.11 56.8C183.03 55.42 184.05 54.1301 185.26 54.1301C186.18 54.1301 186.74 54.7101 186.74 55.3801C186.74 56.0701 186.25 56.6501 185.81 56.8901C185.54 57.0401 185.33 57.0001 185.14 56.8301C184.76 56.4601 184.45 56.1801 184.01 56.1801C183.51 56.1801 182.64 56.87 182.11 58.09V62.8C182.11 64.42 182.24 64.5401 184.14 64.7001V65.4301V65.4301Z" fill="#388D99"/>
<path d="M199.21 54.1301C202.41 54.1301 204.71 56.5501 204.71 59.7401C204.71 63.7801 201.73 65.7301 199.19 65.7301C195.68 65.7301 193.57 62.9401 193.57 60.1201C193.57 56.0901 196.74 54.1301 199.21 54.1301ZM198.91 55.0101C197.47 55.0101 196.15 56.4201 196.15 59.3501C196.15 62.5101 197.48 64.8201 199.45 64.8201C200.89 64.8201 202.14 63.7801 202.14 60.3201C202.14 57.3001 200.99 55.0101 198.91 55.0101Z" fill="#388D99"/>
<path d="M218.63 64.85C217.38 65.03 215.98 65.35 214.64 65.73C214.64 65.3 214.64 64.46 214.64 63.85C213.35 64.93 212.26 65.73 210.88 65.73C209.13 65.73 207.73 64.65 207.73 62.01V57.1C207.73 55.79 207.54 55.64 206.91 55.51L206.24 55.38V54.7C207.35 54.65 209.06 54.41 210.01 54.25C209.94 55.09 209.93 56.31 209.93 57.92V61.36C209.93 63.46 211.02 64.07 212.1 64.07C212.98 64.07 213.84 63.72 214.64 62.96V57.1C214.64 55.79 214.37 55.61 213.55 55.48L212.76 55.37V54.69C214.33 54.62 216.15 54.36 216.85 54.24V62.57C216.85 63.83 217.04 64.02 217.96 64.08L218.63 64.11V64.85V64.85Z" fill="#388D99"/>
<path d="M225.77 65.4301H219.87V64.7001C221.4 64.5501 221.54 64.4201 221.54 62.8201V57.5701C221.54 55.9901 221.44 55.91 220.04 55.72V55.0701C221.32 54.8701 222.5 54.5701 223.74 54.0601C223.74 54.8901 223.74 55.98 223.74 56.8C224.66 55.42 225.68 54.1301 226.89 54.1301C227.81 54.1301 228.37 54.7101 228.37 55.3801C228.37 56.0701 227.88 56.6501 227.44 56.8901C227.17 57.0401 226.96 57.0001 226.77 56.8301C226.39 56.4601 226.08 56.1801 225.64 56.1801C225.14 56.1801 224.27 56.87 223.74 58.09V62.8C223.74 64.42 223.87 64.5401 225.77 64.7001V65.4301V65.4301Z" fill="#388D99"/>
<path d="M57.15 99.1501C56.04 100.64 54.37 101.73 52.86 101.73C49.64 101.73 47.74 99.1501 47.74 96.4601C47.74 94.5101 48.61 92.8401 50.27 91.5801C51.65 90.5201 53.17 90.1301 54.17 90.1301C55.26 90.1301 56.08 90.4701 56.47 90.7901C56.82 91.0601 56.8799 91.2601 56.8799 91.5501C56.8799 92.1701 56.2399 92.7201 55.9399 92.7201C55.8099 92.7201 55.69 92.6701 55.45 92.4701C54.62 91.7301 53.77 91.3801 52.91 91.3801C51.38 91.3801 49.98 92.7001 49.98 95.3201C49.96 98.7701 52.34 99.9001 53.73 99.9001C54.78 99.9001 55.61 99.6301 56.71 98.5801L57.15 99.1501Z" fill="#388D99"/>
<path d="M64.1 90.1301C67.3 90.1301 69.6 92.5501 69.6 95.7401C69.6 99.7801 66.62 101.73 64.08 101.73C60.57 101.73 58.46 98.9401 58.46 96.1201C58.46 92.0901 61.63 90.1301 64.1 90.1301ZM63.8 91.0101C62.36 91.0101 61.04 92.4201 61.04 95.3501C61.04 98.5101 62.37 100.82 64.34 100.82C65.78 100.82 67.03 99.7801 67.03 96.3201C67.03 93.3001 65.88 91.0101 63.8 91.0101Z" fill="#388D99"/>
<path d="M78.5 101.43V100.7C79.88 100.55 80.01 100.39 80.01 98.6801V94.53C80.01 92.78 79.34 91.71 77.83 91.71C76.87 91.71 75.97 92.25 75.22 92.91V98.79C75.22 100.48 75.36 100.54 76.75 100.69V101.42H71.28V100.69C72.87 100.51 73.02 100.42 73.02 98.77V93.61C73.02 92.01 72.84 91.93 71.54 91.71V91.03C72.8 90.83 74.12 90.51 75.23 90.04C75.23 90.58 75.22 91.39 75.22 91.98C75.72 91.63 76.26 91.26 76.9 90.84C77.61 90.39 78.23 90.11 78.95 90.11C80.95 90.11 82.21 91.58 82.21 94.03V98.77C82.21 100.44 82.36 100.52 83.76 100.67V101.4H78.5V101.43Z" fill="#388D99"/>
<path d="M91.84 93.4601C91.35 91.9601 90.67 90.9901 89.21 90.9901C88.37 90.9901 87.7 91.5901 87.7 92.5601C87.7 93.6001 88.41 94.0901 89.79 94.7301C91.92 95.7301 93.05 96.5001 93.05 98.2101C93.05 100.54 90.9 101.73 88.89 101.73C87.59 101.73 86.3999 101.31 85.8799 101.02C85.7599 100.32 85.5399 98.8901 85.4399 98.0501L86.18 97.9201C86.64 99.5201 87.54 100.85 89.27 100.85C90.22 100.85 90.96 100.21 90.96 99.2201C90.96 98.1601 90.34 97.5801 88.97 96.9201C87.24 96.0801 85.78 95.2701 85.78 93.4201C85.78 91.5701 87.3399 90.1401 89.7499 90.1401C90.8299 90.1401 91.69 90.3901 92.2 90.4701C92.28 91.0801 92.46 92.6601 92.58 93.2801L91.84 93.4601Z" fill="#388D99"/>
<path d="M106.84 100.85C105.59 101.03 104.19 101.35 102.85 101.73C102.85 101.3 102.85 100.46 102.85 99.85C101.56 100.93 100.47 101.73 99.09 101.73C97.34 101.73 95.9399 100.65 95.9399 98.01V93.1C95.9399 91.79 95.7499 91.64 95.1199 91.51L94.45 91.38V90.7C95.56 90.65 97.27 90.41 98.22 90.25C98.15 91.09 98.14 92.31 98.14 93.92V97.36C98.14 99.46 99.2299 100.07 100.31 100.07C101.19 100.07 102.05 99.72 102.85 98.96V93.1C102.85 91.79 102.58 91.61 101.76 91.48L100.97 91.37V90.69C102.54 90.62 104.36 90.36 105.06 90.24V98.57C105.06 99.83 105.25 100.02 106.17 100.08L106.84 100.11V100.85V100.85Z" fill="#388D99"/>
<path d="M107.72 101.43V100.7C109.29 100.54 109.46 100.41 109.46 98.78V86.92C109.46 85.44 109.33 85.2901 107.79 85.0701V84.3901C109.21 84.2401 110.79 83.85 111.66 83.54C111.66 84.71 111.66 85.8901 111.66 87.0601V98.78C111.66 100.43 111.8 100.55 113.39 100.7V101.43H107.72Z" fill="#388D99"/>
<path d="M119.7 101.41C119.28 101.63 118.87 101.73 118.64 101.73C116.98 101.73 116.08 100.77 116.08 98.7201V91.5001H114.38L114.27 91.2001L114.95 90.4301H116.08V88.3401C116.62 87.8201 117.44 87.1501 117.98 86.6301L118.35 86.7101C118.3 87.6901 118.27 89.1201 118.28 90.4401H121.07C121.29 90.6901 121.22 91.2801 120.91 91.5101H118.28V97.8601C118.28 99.8701 119.08 100.22 119.7 100.22C120.27 100.22 120.8 100.02 121.17 99.8501L121.4 100.55L119.7 101.41Z" fill="#388D99"/>
<path d="M130.54 101.73C130.11 101.73 129.56 101.53 129.3 101.25C128.97 100.93 128.82 100.58 128.69 100.16C127.7 100.83 126.47 101.73 125.75 101.73C123.91 101.73 122.64 100.22 122.64 98.6301C122.64 97.3901 123.3 96.6201 124.67 96.1401C126.19 95.6101 128.08 94.9701 128.63 94.5101V93.9001C128.63 92.2101 127.81 91.2401 126.55 91.2401C126 91.2401 125.65 91.5001 125.41 91.8001C125.13 92.1601 124.97 92.7001 124.75 93.4301C124.62 93.8801 124.36 94.0501 123.96 94.0501C123.45 94.0501 122.79 93.5301 122.79 92.9101C122.79 92.5401 123.11 92.2401 123.62 91.8801C124.42 91.3101 125.87 90.4301 127.29 90.1301C128.08 90.1301 128.87 90.3601 129.47 90.8101C130.38 91.5601 130.76 92.4501 130.76 93.7401V98.4701C130.76 99.6301 131.18 99.9701 131.62 99.9701C131.91 99.9701 132.22 99.8501 132.5 99.7101L132.75 100.44L130.54 101.73ZM128.63 95.4101C128.1 95.6801 127.03 96.1601 126.47 96.4101C125.55 96.8301 125 97.3001 125 98.2101C125 99.5501 126 100.13 126.75 100.13C127.35 100.13 128.15 99.8001 128.63 99.3201C128.63 98.1501 128.63 96.5801 128.63 95.4101Z" fill="#388D99"/>
<path d="M138.77 101.41C138.35 101.63 137.95 101.73 137.71 101.73C136.05 101.73 135.15 100.77 135.15 98.7201V91.5001H133.45L133.34 91.2001L134.02 90.4301H135.15V88.3401C135.69 87.8201 136.51 87.1501 137.05 86.6301L137.42 86.7101C137.37 87.6901 137.34 89.1201 137.35 90.4401H140.14C140.36 90.6901 140.28 91.2801 139.98 91.5101H137.35V97.8601C137.35 99.8701 138.15 100.22 138.77 100.22C139.34 100.22 139.87 100.02 140.24 99.8501L140.47 100.55L138.77 101.41Z" fill="#388D99"/>
<path d="M141.5 101.43V100.7C143.03 100.55 143.2 100.42 143.2 98.71V93.61C143.2 92.04 143.12 91.94 141.68 91.71V91.0701C143.03 90.8501 144.28 90.53 145.4 90.09C145.4 91.14 145.4 92.18 145.4 93.23V98.72C145.4 100.42 145.56 100.55 147.15 100.71V101.44H141.5V101.43ZM144.16 87.8101C143.42 87.8101 142.75 87.15 142.75 86.4C142.75 85.56 143.42 84.9501 144.19 84.9501C144.94 84.9501 145.56 85.56 145.56 86.4C145.55 87.15 144.94 87.8101 144.16 87.8101Z" fill="#388D99"/>
<path d="M154.15 90.1301C157.35 90.1301 159.65 92.5501 159.65 95.7401C159.65 99.7801 156.67 101.73 154.13 101.73C150.62 101.73 148.51 98.9401 148.51 96.1201C148.51 92.0901 151.68 90.1301 154.15 90.1301ZM153.85 91.0101C152.41 91.0101 151.09 92.4201 151.09 95.3501C151.09 98.5101 152.42 100.82 154.39 100.82C155.83 100.82 157.08 99.7801 157.08 96.3201C157.07 93.3001 155.93 91.0101 153.85 91.0101Z" fill="#388D99"/>
<path d="M168.55 101.43V100.7C169.93 100.55 170.06 100.39 170.06 98.6801V94.53C170.06 92.78 169.39 91.71 167.88 91.71C166.92 91.71 166.02 92.25 165.27 92.91V98.79C165.27 100.48 165.41 100.54 166.81 100.69V101.42H161.34V100.69C162.93 100.51 163.08 100.42 163.08 98.77V93.61C163.08 92.01 162.9 91.93 161.6 91.71V91.03C162.87 90.83 164.18 90.51 165.29 90.04C165.29 90.58 165.28 91.39 165.28 91.98C165.78 91.63 166.32 91.26 166.96 90.84C167.67 90.39 168.29 90.11 169.01 90.11C171.01 90.11 172.27 91.58 172.27 94.03V98.77C172.27 100.44 172.42 100.52 173.82 100.67V101.4H168.55V101.43Z" fill="#388D99"/>
<path d="M187.67 93.4601C187.18 91.9601 186.5 90.9901 185.04 90.9901C184.2 90.9901 183.53 91.5901 183.53 92.5601C183.53 93.6001 184.24 94.0901 185.62 94.7301C187.75 95.7301 188.88 96.5001 188.88 98.2101C188.88 100.54 186.73 101.73 184.72 101.73C183.42 101.73 182.23 101.31 181.71 101.02C181.59 100.32 181.37 98.8901 181.27 98.0501L182.01 97.9201C182.47 99.5201 183.37 100.85 185.1 100.85C186.05 100.85 186.79 100.21 186.79 99.2201C186.79 98.1601 186.17 97.5801 184.8 96.9201C183.07 96.0801 181.61 95.2701 181.61 93.4201C181.61 91.5701 183.17 90.1401 185.58 90.1401C186.66 90.1401 187.52 90.3901 188.03 90.4701C188.11 91.0801 188.29 92.6601 188.41 93.2801L187.67 93.4601Z" fill="#388D99"/>
<path d="M199.77 99.2501C198.18 101.29 196.39 101.73 195.54 101.73C192.44 101.73 190.58 99.2301 190.58 96.3401C190.58 94.6301 191.22 93.0301 192.25 91.9401C193.31 90.7701 194.69 90.1301 196 90.1301C198.22 90.1301 199.88 92.0301 199.88 94.0401C199.86 94.5301 199.79 94.7901 199.41 94.8801C198.91 94.9801 195.66 95.2001 192.78 95.3001C192.74 98.5201 194.68 99.8901 196.46 99.8901C197.48 99.8901 198.43 99.4801 199.35 98.6401L199.77 99.2501ZM195.43 91.1001C194.31 91.1001 193.23 92.1901 192.92 94.2101C194.25 94.2101 195.57 94.2001 196.97 94.1401C197.4 94.1401 197.55 94.0201 197.55 93.6401C197.57 92.3201 196.75 91.1001 195.43 91.1001Z" fill="#388D99"/>
<path d="M207.26 101.43H201.36V100.7C202.89 100.55 203.03 100.42 203.03 98.8201V93.5701C203.03 91.9901 202.93 91.91 201.53 91.72V91.0701C202.81 90.8701 203.99 90.5701 205.23 90.0601C205.23 90.8901 205.23 91.98 205.23 92.8C206.15 91.42 207.17 90.1301 208.38 90.1301C209.3 90.1301 209.86 90.7101 209.86 91.3801C209.86 92.0701 209.37 92.6501 208.93 92.8901C208.66 93.0401 208.45 93.0001 208.26 92.8301C207.88 92.4601 207.57 92.1801 207.13 92.1801C206.63 92.1801 205.76 92.87 205.23 94.09V98.8C205.23 100.42 205.36 100.54 207.26 100.7V101.43V101.43Z" fill="#388D99"/>
<path d="M221.85 91.1401C220.5 91.3201 220.32 91.54 219.69 92.98C218.86 94.98 217.45 98.26 216.12 101.71H215.34C214.25 98.79 213.04 95.83 211.86 92.91C211.31 91.53 211.1 91.35 209.8 91.15V90.4401H215.11V91.15C213.78 91.33 213.71 91.51 214.09 92.54C214.71 94.26 215.74 96.8701 216.38 98.4901C217.19 96.4701 218.02 94.4 218.58 92.77C218.97 91.63 218.9 91.32 217.27 91.15V90.4401H221.85V91.1401V91.1401Z" fill="#388D99"/>
<path d="M222.12 101.43V100.7C223.65 100.55 223.83 100.42 223.83 98.71V93.61C223.83 92.04 223.75 91.94 222.3 91.71V91.0701C223.65 90.8501 224.9 90.53 226.02 90.09C226.02 91.14 226.02 92.18 226.02 93.23V98.72C226.02 100.42 226.18 100.55 227.77 100.71V101.44H222.12V101.43ZM224.78 87.8101C224.03 87.8101 223.37 87.15 223.37 86.4C223.37 85.56 224.04 84.9501 224.81 84.9501C225.56 84.9501 226.18 85.56 226.18 86.4C226.18 87.15 225.56 87.8101 224.78 87.8101Z" fill="#388D99"/>
<path d="M238.55 99.1501C237.44 100.64 235.77 101.73 234.26 101.73C231.04 101.73 229.14 99.1501 229.14 96.4601C229.14 94.5101 230.01 92.8401 231.67 91.5801C233.05 90.5201 234.57 90.1301 235.57 90.1301C236.66 90.1301 237.48 90.4701 237.87 90.7901C238.22 91.0601 238.28 91.2601 238.28 91.5501C238.28 92.1701 237.64 92.7201 237.34 92.7201C237.21 92.7201 237.09 92.6701 236.85 92.4701C236.02 91.7301 235.17 91.3801 234.31 91.3801C232.78 91.3801 231.38 92.7001 231.38 95.3201C231.36 98.7701 233.74 99.9001 235.13 99.9001C236.18 99.9001 237.01 99.6301 238.11 98.5801L238.55 99.1501Z" fill="#388D99"/>
<path d="M249.05 99.2501C247.46 101.29 245.67 101.73 244.82 101.73C241.72 101.73 239.86 99.2301 239.86 96.3401C239.86 94.6301 240.5 93.0301 241.53 91.9401C242.59 90.7701 243.97 90.1301 245.28 90.1301C247.5 90.1301 249.16 92.0301 249.16 94.0401C249.14 94.5301 249.07 94.7901 248.69 94.8801C248.19 94.9801 244.94 95.2001 242.06 95.3001C242.02 98.5201 243.96 99.8901 245.74 99.8901C246.76 99.8901 247.71 99.4801 248.63 98.6401L249.05 99.2501ZM244.7 91.1001C243.58 91.1001 242.5 92.1901 242.19 94.2101C243.52 94.2101 244.84 94.2001 246.24 94.1401C246.67 94.1401 246.82 94.0201 246.82 93.6401C246.85 92.3201 246.03 91.1001 244.7 91.1001Z" fill="#388D99"/>
<path d="M257.24 93.4601C256.75 91.9601 256.07 90.9901 254.61 90.9901C253.77 90.9901 253.1 91.5901 253.1 92.5601C253.1 93.6001 253.81 94.0901 255.19 94.7301C257.32 95.7301 258.45 96.5001 258.45 98.2101C258.45 100.54 256.3 101.73 254.29 101.73C252.99 101.73 251.8 101.31 251.28 101.02C251.16 100.32 250.94 98.8901 250.84 98.0501L251.58 97.9201C252.04 99.5201 252.94 100.85 254.67 100.85C255.62 100.85 256.36 100.21 256.36 99.2201C256.36 98.1601 255.74 97.5801 254.37 96.9201C252.64 96.0801 251.18 95.2701 251.18 93.4201C251.18 91.5701 252.74 90.1401 255.15 90.1401C256.23 90.1401 257.09 90.3901 257.6 90.4701C257.68 91.0801 257.86 92.6601 257.98 93.2801L257.24 93.4601Z" fill="#388D99"/>
<path d="M34.7401 137.41C34.3201 137.63 33.9201 137.73 33.6801 137.73C32.0201 137.73 31.1201 136.77 31.1201 134.72V127.5H29.4201L29.3101 127.2L29.9901 126.43H31.1201V124.34C31.6601 123.82 32.4801 123.15 33.0201 122.63L33.3901 122.71C33.3401 123.69 33.3101 125.12 33.3201 126.44H36.1101C36.3301 126.69 36.2501 127.28 35.9501 127.51H33.3201V133.86C33.3201 135.87 34.1201 136.22 34.7401 136.22C35.3101 136.22 35.8401 136.02 36.2101 135.85L36.4401 136.55L34.7401 137.41Z" fill="#388D99"/>
<path d="M44.36 137.43V136.7C45.75 136.55 45.92 136.41 45.92 134.82V130.67C45.92 128.62 45.12 127.64 43.57 127.67C42.68 127.67 41.75 128.09 41.07 128.87V134.83C41.07 136.41 41.26 136.56 42.69 136.71V137.44H37.15V136.71C38.56 136.58 38.87 136.46 38.87 134.81V122.85C38.87 121.56 38.78 121.24 37.16 121.08V120.4C38.57 120.27 40.12 119.9 41.07 119.55C41.07 120.52 41.07 121.6 41.07 122.6V127.93C41.96 127.04 43.31 126.14 44.65 126.14C46.72 126.14 48.12 127.44 48.12 130.4V134.83C48.12 136.47 48.32 136.57 49.72 136.71V137.44H44.36V137.43Z" fill="#388D99"/>
<path d="M57.05 137.43H51.15V136.7C52.68 136.55 52.82 136.42 52.82 134.82V129.57C52.82 127.99 52.72 127.91 51.32 127.72V127.07C52.6 126.87 53.78 126.57 55.02 126.06C55.02 126.89 55.02 127.98 55.02 128.8C55.94 127.42 56.96 126.13 58.17 126.13C59.09 126.13 59.65 126.71 59.65 127.38C59.65 128.07 59.16 128.65 58.72 128.89C58.45 129.04 58.24 129 58.05 128.83C57.67 128.46 57.36 128.18 56.92 128.18C56.42 128.18 55.55 128.87 55.02 130.09V134.8C55.02 136.42 55.15 136.54 57.05 136.7V137.43V137.43Z" fill="#388D99"/>
<path d="M66.33 126.13C69.53 126.13 71.83 128.55 71.83 131.74C71.83 135.78 68.8499 137.73 66.3099 137.73C62.7999 137.73 60.6899 134.94 60.6899 132.12C60.6999 128.09 63.87 126.13 66.33 126.13ZM66.03 127.01C64.59 127.01 63.27 128.42 63.27 131.35C63.27 134.51 64.5999 136.82 66.5699 136.82C68.0099 136.82 69.2599 135.78 69.2599 132.32C69.2599 129.3 68.12 127.01 66.03 127.01Z" fill="#388D99"/>
<path d="M85.76 136.85C84.51 137.03 83.11 137.35 81.77 137.73C81.77 137.3 81.77 136.46 81.77 135.85C80.48 136.93 79.39 137.73 78.01 137.73C76.26 137.73 74.86 136.65 74.86 134.01V129.1C74.86 127.79 74.67 127.64 74.04 127.51L73.37 127.38V126.7C74.48 126.65 76.19 126.41 77.14 126.25C77.07 127.09 77.06 128.31 77.06 129.92V133.36C77.06 135.46 78.15 136.07 79.23 136.07C80.11 136.07 80.97 135.72 81.77 134.96V129.1C81.77 127.79 81.5001 127.61 80.6801 127.48L79.89 127.37V126.69C81.46 126.62 83.28 126.36 83.98 126.24V134.57C83.98 135.83 84.17 136.02 85.09 136.08L85.76 136.11V136.85V136.85Z" fill="#388D99"/>
<path d="M90.59 133.73C90.05 134.17 89.83 134.62 89.83 134.91C89.83 135.35 90.26 135.86 91.36 135.86C92.26 135.86 93.34 135.84 94.16 135.84C95.75 135.84 97.83 136.38 97.83 138.85C97.83 141.49 94.69 143.9 91.36 143.9C88.45 143.9 86.94 142.26 86.9 140.8C86.9 140.24 87.12 139.78 87.55 139.38C88.08 138.86 89 138.11 89.57 137.68C88.65 137.41 88.03 136.85 87.7 136.32C87.46 135.94 87.37 135.46 87.38 135.19C88.37 134.81 89.26 134.1 89.75 133.45L90.59 133.73ZM91.79 133.98C89.37 133.98 87.46 132.54 87.46 130.21C87.46 127.39 90.02 126.07 92.02 126.07C92.89 126.07 93.71 126.29 94.5 126.7C95.63 126.7 97.18 126.5 97.87 126.33L98.02 126.55C97.87 126.96 97.48 127.68 97.1 127.92C96.72 127.92 95.91 127.82 95.56 127.8C95.98 128.35 96.26 129.13 96.26 130.03C96.26 132.71 94 133.98 91.79 133.98ZM92.32 137.76C91.09 137.76 90.52 137.91 90.09 138.28C89.44 138.81 88.98 139.52 88.98 140.21C88.98 141.58 90.37 142.6 92.34 142.6C94.63 142.6 95.96 141.43 95.96 139.88C95.96 139.02 95.52 138.36 94.81 138.07C94.17 137.81 93.35 137.76 92.32 137.76ZM91.8 126.9C90.74 126.9 89.78 127.91 89.78 129.85C89.78 131.77 90.7 133.15 92.04 133.15C93.12 133.11 94.02 132.17 94.02 130.18C94.01 128.31 93.16 126.9 91.8 126.9Z" fill="#388D99"/>
<path d="M105.69 137.43V136.7C107.08 136.55 107.25 136.41 107.25 134.82V130.67C107.25 128.62 106.45 127.64 104.9 127.67C104.01 127.67 103.08 128.09 102.4 128.87V134.83C102.4 136.41 102.59 136.56 104.02 136.71V137.44H98.48V136.71C99.89 136.58 100.2 136.46 100.2 134.81V122.85C100.2 121.56 100.11 121.24 98.49 121.08V120.4C99.9 120.27 101.45 119.9 102.4 119.55C102.4 120.52 102.4 121.6 102.4 122.6V127.93C103.29 127.04 104.64 126.14 105.98 126.14C108.05 126.14 109.45 127.44 109.45 130.4V134.83C109.45 136.47 109.65 136.57 111.05 136.71V137.44H105.69V137.43Z" fill="#388D99"/>
<path d="M123.24 137.41C122.82 137.63 122.42 137.73 122.18 137.73C120.52 137.73 119.62 136.77 119.62 134.72V127.5H117.92L117.81 127.2L118.49 126.43H119.62V124.34C120.16 123.82 120.98 123.15 121.52 122.63L121.89 122.71C121.84 123.69 121.81 125.12 121.82 126.44H124.61C124.83 126.69 124.75 127.28 124.45 127.51H121.82V133.86C121.82 135.87 122.62 136.22 123.24 136.22C123.81 136.22 124.34 136.02 124.71 135.85L124.94 136.55L123.24 137.41Z" fill="#388D99"/>
<path d="M132.86 137.43V136.7C134.25 136.55 134.42 136.41 134.42 134.82V130.67C134.42 128.62 133.62 127.64 132.07 127.67C131.18 127.67 130.25 128.09 129.57 128.87V134.83C129.57 136.41 129.76 136.56 131.19 136.71V137.44H125.65V136.71C127.06 136.58 127.37 136.46 127.37 134.81V122.85C127.37 121.56 127.28 121.24 125.66 121.08V120.4C127.07 120.27 128.62 119.9 129.57 119.55C129.57 120.52 129.57 121.6 129.57 122.6V127.93C130.46 127.04 131.81 126.14 133.15 126.14C135.22 126.14 136.62 127.44 136.62 130.4V134.83C136.62 136.47 136.82 136.57 138.22 136.71V137.44H132.86V137.43Z" fill="#388D99"/>
<path d="M148.94 135.25C147.35 137.29 145.56 137.73 144.71 137.73C141.61 137.73 139.75 135.23 139.75 132.34C139.75 130.63 140.39 129.03 141.42 127.94C142.48 126.77 143.86 126.13 145.17 126.13C147.39 126.13 149.05 128.03 149.05 130.04C149.03 130.53 148.96 130.79 148.58 130.88C148.08 130.98 144.83 131.2 141.95 131.3C141.91 134.52 143.85 135.89 145.63 135.89C146.65 135.89 147.6 135.48 148.52 134.64L148.94 135.25ZM144.59 127.1C143.47 127.1 142.39 128.19 142.08 130.21C143.41 130.21 144.73 130.2 146.13 130.14C146.56 130.14 146.71 130.02 146.71 129.64C146.74 128.32 145.92 127.1 144.59 127.1Z" fill="#388D99"/>
<path d="M168.59 136.8C168.05 136.9 166.1 137.2 164.53 137.73C164.53 137.21 164.53 136.66 164.53 136.14C164.08 136.42 163.43 136.77 162.98 137.05C162.05 137.59 161.43 137.72 161.14 137.72C159.12 137.72 156.4 135.75 156.4 132.21C156.4 128.75 159.44 126.12 162.95 126.12C163.27 126.12 164.02 126.16 164.52 126.36V122.83C164.52 121.28 164.35 121.22 162.62 121.06V120.38C163.94 120.21 165.74 119.86 166.72 119.53C166.72 120.46 166.72 121.52 166.72 122.56V134.48C166.72 135.79 166.89 135.95 167.82 136.02L168.57 136.07V136.8H168.59ZM164.53 128.41C164.01 127.57 163.01 127.14 162.04 127.14C160.92 127.14 158.87 127.89 158.87 131.49C158.87 134.56 160.74 136.09 162.25 136.11C163.07 136.11 163.94 135.73 164.53 135.3V128.41Z" fill="#388D99"/>
<path d="M179.06 135.25C177.47 137.29 175.68 137.73 174.83 137.73C171.73 137.73 169.87 135.23 169.87 132.34C169.87 130.63 170.51 129.03 171.54 127.94C172.6 126.77 173.98 126.13 175.3 126.13C177.52 126.13 179.18 128.03 179.18 130.04C179.16 130.53 179.09 130.79 178.71 130.88C178.21 130.98 174.96 131.2 172.08 131.3C172.04 134.52 173.98 135.89 175.76 135.89C176.78 135.89 177.73 135.48 178.65 134.64L179.06 135.25ZM174.72 127.1C173.6 127.1 172.52 128.19 172.21 130.21C173.54 130.21 174.86 130.2 176.26 130.14C176.69 130.14 176.84 130.02 176.84 129.64C176.86 128.32 176.04 127.1 174.72 127.1Z" fill="#388D99"/>
<path d="M180.43 126.97C181.63 126.79 183 126.36 184.23 125.89C184.23 126.48 184.23 127.27 184.23 127.85C184.3 127.8 186.23 126.69 186.33 126.64C186.93 126.31 187.46 126.14 187.81 126.14C190.56 126.14 192.22 128.48 192.22 130.94C192.22 134.71 189.24 137.12 185.97 137.73C185.24 137.71 184.59 137.51 184.23 137.32V140.63C184.23 142.4 184.42 142.55 186.3 142.73V143.45H180.24V142.73C181.85 142.56 182.03 142.42 182.03 140.8V129.47C182.03 128 181.96 127.89 180.43 127.68V126.97ZM184.23 135.54C184.79 136.1 185.75 136.51 186.55 136.51C188.57 136.51 189.89 134.72 189.89 131.94C189.89 129.17 188.32 127.71 186.64 127.71C185.81 127.71 184.85 128.23 184.22 128.69V135.54H184.23Z" fill="#388D99"/>
<path d="M193.66 137.43V136.7C195.23 136.54 195.4 136.41 195.4 134.78V122.92C195.4 121.44 195.27 121.29 193.73 121.07V120.39C195.15 120.24 196.73 119.85 197.6 119.54C197.6 120.71 197.6 121.89 197.6 123.06V134.78C197.6 136.43 197.74 136.55 199.33 136.7V137.43H193.66Z" fill="#388D99"/>
<path d="M206.38 126.13C209.58 126.13 211.88 128.55 211.88 131.74C211.88 135.78 208.9 137.73 206.36 137.73C202.85 137.73 200.74 134.94 200.74 132.12C200.75 128.09 203.92 126.13 206.38 126.13ZM206.08 127.01C204.64 127.01 203.32 128.42 203.32 131.35C203.32 134.51 204.65 136.82 206.62 136.82C208.06 136.82 209.31 135.78 209.31 132.32C209.31 129.3 208.17 127.01 206.08 127.01Z" fill="#388D99"/>
<path d="M224.64 127.14C223.36 127.34 223.09 127.54 222.46 128.96C221.84 130.34 221.16 132.07 219.48 136.26C217.84 140.27 217.39 141.84 216.97 143.16C216.82 143.69 216.54 143.82 216.19 143.82C215.36 143.82 214.58 143.22 214.58 142.55C214.58 142.21 214.75 141.99 215.15 141.67C215.98 141.06 216.57 140.48 216.9 139.83C217.38 138.89 217.73 138.05 217.85 137.73C217.95 137.36 217.94 137.13 217.79 136.72C216.76 133.74 215.36 130.6 214.67 128.93C214.14 127.61 213.9 127.31 212.56 127.14V126.43H217.82V127.14C216.68 127.31 216.55 127.55 216.87 128.45L219.21 134.44C219.88 132.78 220.87 130.09 221.38 128.55C221.67 127.63 221.47 127.34 220.06 127.14V126.43H224.63V127.14H224.64Z" fill="#388D99"/>
<path d="M238.65 137.43V136.7C240.04 136.55 240.21 136.45 240.21 134.74V130.54C240.21 128.71 239.54 127.72 238.13 127.72C237.26 127.72 236.44 128.18 235.52 128.93C235.55 129.23 235.59 129.54 235.59 130V134.88C235.59 136.42 235.79 136.55 237.12 136.7V137.43H231.72V136.7C233.19 136.55 233.39 136.45 233.39 134.84V130.5C233.39 128.66 232.79 127.72 231.38 127.72C230.45 127.72 229.54 128.31 228.78 128.92V134.84C228.78 136.44 228.95 136.55 230.28 136.7V137.43H224.84V136.7C226.44 136.55 226.58 136.45 226.58 134.82V129.62C226.58 128.06 226.49 127.93 225.13 127.7V127.04C226.34 126.87 227.56 126.54 228.77 126.05C228.77 126.65 228.77 127.45 228.77 128.05C229.3 127.65 229.81 127.25 230.56 126.8C231.21 126.39 231.77 126.13 232.56 126.13C233.8 126.13 234.8 126.88 235.3 128.15C235.98 127.62 236.6 127.21 237.23 126.78C237.78 126.43 238.48 126.13 239.21 126.13C241.2 126.13 242.39 127.54 242.39 130.01V134.84C242.39 136.46 242.53 136.54 243.92 136.7V137.43H238.65V137.43Z" fill="#388D99"/>
<path d="M254.71 135.25C253.12 137.29 251.33 137.73 250.48 137.73C247.38 137.73 245.52 135.23 245.52 132.34C245.52 130.63 246.16 129.03 247.19 127.94C248.25 126.77 249.63 126.13 250.95 126.13C253.17 126.13 254.83 128.03 254.83 130.04C254.81 130.53 254.74 130.79 254.36 130.88C253.86 130.98 250.61 131.2 247.73 131.3C247.69 134.52 249.63 135.89 251.41 135.89C252.43 135.89 253.38 135.48 254.3 134.64L254.71 135.25ZM250.37 127.1C249.25 127.1 248.17 128.19 247.86 130.21C249.19 130.21 250.51 130.2 251.91 130.14C252.34 130.14 252.49 130.02 252.49 129.64C252.51 128.32 251.69 127.1 250.37 127.1Z" fill="#388D99"/>
<path d="M263.46 137.43V136.7C264.84 136.55 264.97 136.39 264.97 134.68V130.53C264.97 128.78 264.3 127.71 262.79 127.71C261.83 127.71 260.93 128.25 260.18 128.91V134.79C260.18 136.48 260.32 136.54 261.71 136.69V137.42H256.24V136.69C257.83 136.51 257.98 136.42 257.98 134.77V129.61C257.98 128.01 257.8 127.93 256.5 127.71V127.03C257.76 126.83 259.08 126.51 260.19 126.04C260.19 126.58 260.18 127.39 260.18 127.98C260.68 127.63 261.22 127.26 261.86 126.84C262.57 126.39 263.19 126.11 263.91 126.11C265.91 126.11 267.17 127.58 267.17 130.03V134.77C267.17 136.44 267.32 136.52 268.72 136.67V137.4H263.46V137.43Z" fill="#388D99"/>
<path d="M275.19 137.41C274.77 137.63 274.36 137.73 274.13 137.73C272.47 137.73 271.57 136.77 271.57 134.72V127.5H269.87L269.76 127.2L270.44 126.43H271.57V124.34C272.11 123.82 272.93 123.15 273.47 122.63L273.84 122.71C273.79 123.69 273.76 125.12 273.77 126.44H276.56C276.78 126.69 276.71 127.28 276.4 127.51H273.77V133.86C273.77 135.87 274.57 136.22 275.19 136.22C275.76 136.22 276.29 136.02 276.66 135.85L276.89 136.55L275.19 137.41Z" fill="#388D99"/>
<path d="M30.41 162.13C33.61 162.13 35.91 164.55 35.91 167.74C35.91 171.78 32.93 173.73 30.39 173.73C26.88 173.73 24.77 170.94 24.77 168.12C24.78 164.09 27.95 162.13 30.41 162.13ZM30.11 163.01C28.67 163.01 27.35 164.42 27.35 167.35C27.35 170.51 28.68 172.82 30.65 172.82C32.09 172.82 33.34 171.78 33.34 168.32C33.34 165.3 32.19 163.01 30.11 163.01Z" fill="#388D99"/>
<path d="M39.3199 162.43V161.78C39.3199 160 40 158.16 41.55 156.85C42.43 156.08 43.38 155.66 44.4 155.53C45.27 155.55 46.04 155.85 46.45 156.31C46.7 156.6 46.74 156.88 46.61 157.23C46.52 157.52 46.23 157.88 45.96 158.08C45.66 158.27 45.45 158.21 45.2 158.03C44.68 157.55 43.97 156.93 43.17 156.93C41.53 156.93 41.51 159.12 41.52 161.26V162.42H44.11C44.25 162.65 44.13 163.31 43.84 163.49H41.52V170.7C41.52 172.45 41.78 172.5 43.6 172.7V173.43H37.6199V172.7C39.1599 172.54 39.3199 172.44 39.3199 170.82V163.49H37.5699L37.47 163.21L38.04 162.43H39.3199V162.43Z" fill="#388D99"/>
<path d="M58.8 173.73C58.37 173.73 57.82 173.53 57.56 173.25C57.23 172.93 57.08 172.58 56.95 172.16C55.96 172.83 54.73 173.73 54.01 173.73C52.17 173.73 50.9 172.22 50.9 170.63C50.9 169.39 51.5601 168.62 52.9301 168.14C54.4501 167.61 56.34 166.97 56.89 166.51V165.9C56.89 164.21 56.07 163.24 54.81 163.24C54.26 163.24 53.91 163.5 53.67 163.8C53.39 164.16 53.23 164.7 53.01 165.43C52.88 165.88 52.62 166.05 52.22 166.05C51.71 166.05 51.05 165.53 51.05 164.91C51.05 164.54 51.37 164.24 51.88 163.88C52.68 163.31 54.13 162.43 55.55 162.13C56.34 162.13 57.1301 162.36 57.7401 162.81C58.6501 163.56 59.03 164.45 59.03 165.74V170.47C59.03 171.63 59.45 171.97 59.89 171.97C60.18 171.97 60.49 171.85 60.77 171.71L61.02 172.44L58.8 173.73ZM56.89 167.41C56.36 167.68 55.29 168.16 54.73 168.41C53.81 168.83 53.26 169.3 53.26 170.21C53.26 171.55 54.26 172.13 55.01 172.13C55.61 172.13 56.41 171.8 56.89 171.32C56.89 170.15 56.89 168.58 56.89 167.41Z" fill="#388D99"/>
<path d="M71.56 171.15C70.45 172.64 68.78 173.73 67.27 173.73C64.05 173.73 62.15 171.15 62.15 168.46C62.15 166.51 63.0201 164.84 64.6801 163.58C66.0601 162.52 67.58 162.13 68.58 162.13C69.67 162.13 70.49 162.47 70.88 162.79C71.23 163.06 71.29 163.26 71.29 163.55C71.29 164.17 70.65 164.72 70.35 164.72C70.22 164.72 70.1 164.67 69.86 164.47C69.03 163.73 68.18 163.38 67.32 163.38C65.79 163.38 64.39 164.7 64.39 167.32C64.37 170.77 66.75 171.9 68.14 171.9C69.19 171.9 70.02 171.63 71.12 170.58L71.56 171.15Z" fill="#388D99"/>
<path d="M82.29 171.15C81.18 172.64 79.51 173.73 78 173.73C74.78 173.73 72.88 171.15 72.88 168.46C72.88 166.51 73.75 164.84 75.41 163.58C76.79 162.52 78.31 162.13 79.31 162.13C80.4 162.13 81.22 162.47 81.61 162.79C81.96 163.06 82.02 163.26 82.02 163.55C82.02 164.17 81.38 164.72 81.08 164.72C80.95 164.72 80.83 164.67 80.59 164.47C79.76 163.73 78.91 163.38 78.05 163.38C76.52 163.38 75.12 164.7 75.12 167.32C75.1 170.77 77.48 171.9 78.87 171.9C79.92 171.9 80.75 171.63 81.85 170.58L82.29 171.15Z" fill="#388D99"/>
<path d="M89.4 173.43H83.5V172.7C85.03 172.55 85.17 172.42 85.17 170.82V165.57C85.17 163.99 85.07 163.91 83.67 163.72V163.07C84.95 162.87 86.13 162.57 87.37 162.06C87.37 162.89 87.37 163.98 87.37 164.8C88.29 163.42 89.31 162.13 90.52 162.13C91.44 162.13 92 162.71 92 163.38C92 164.07 91.51 164.65 91.07 164.89C90.8 165.04 90.59 165 90.4 164.83C90.02 164.46 89.71 164.18 89.27 164.18C88.77 164.18 87.9 164.87 87.37 166.09V170.8C87.37 172.42 87.5 172.54 89.4 172.7V173.43V173.43Z" fill="#388D99"/>
<path d="M102.24 171.25C100.65 173.29 98.86 173.73 98.01 173.73C94.91 173.73 93.05 171.23 93.05 168.34C93.05 166.63 93.69 165.03 94.72 163.94C95.78 162.77 97.16 162.13 98.48 162.13C100.7 162.13 102.36 164.03 102.36 166.04C102.34 166.53 102.27 166.79 101.89 166.88C101.39 166.98 98.14 167.2 95.26 167.3C95.22 170.52 97.16 171.89 98.94 171.89C99.96 171.89 100.91 171.48 101.83 170.64L102.24 171.25ZM97.89 163.1C96.77 163.1 95.69 164.19 95.38 166.21C96.71 166.21 98.0301 166.2 99.4301 166.14C99.8601 166.14 100.01 166.02 100.01 165.64C100.04 164.32 99.22 163.1 97.89 163.1Z" fill="#388D99"/>
<path d="M116.11 172.8C115.57 172.9 113.62 173.2 112.05 173.73C112.05 173.21 112.05 172.66 112.05 172.14C111.6 172.42 110.95 172.77 110.5 173.05C109.57 173.59 108.95 173.72 108.66 173.72C106.64 173.72 103.92 171.75 103.92 168.21C103.92 164.75 106.96 162.12 110.47 162.12C110.79 162.12 111.54 162.16 112.04 162.36V158.83C112.04 157.28 111.87 157.22 110.14 157.06V156.38C111.46 156.21 113.26 155.86 114.24 155.53C114.24 156.46 114.24 157.52 114.24 158.56V170.48C114.24 171.79 114.41 171.95 115.34 172.02L116.09 172.07V172.8H116.11ZM112.05 164.41C111.53 163.57 110.53 163.14 109.56 163.14C108.44 163.14 106.39 163.89 106.39 167.49C106.39 170.56 108.26 172.09 109.77 172.11C110.59 172.11 111.46 171.73 112.05 171.3V164.41Z" fill="#388D99"/>
<path d="M117.26 173.43V172.7C118.79 172.55 118.96 172.42 118.96 170.71V165.61C118.96 164.04 118.88 163.94 117.44 163.71V163.07C118.79 162.85 120.04 162.53 121.16 162.09C121.16 163.14 121.16 164.18 121.16 165.23V170.72C121.16 172.42 121.32 172.55 122.91 172.71V173.44H117.26V173.43ZM119.92 159.81C119.18 159.81 118.51 159.15 118.51 158.4C118.51 157.56 119.18 156.95 119.95 156.95C120.7 156.95 121.32 157.56 121.32 158.4C121.32 159.15 120.7 159.81 119.92 159.81Z" fill="#388D99"/>
<path d="M129.16 173.41C128.74 173.63 128.34 173.73 128.1 173.73C126.44 173.73 125.54 172.77 125.54 170.72V163.5H123.84L123.73 163.2L124.41 162.43H125.54V160.34C126.08 159.82 126.9 159.15 127.44 158.63L127.81 158.71C127.76 159.69 127.73 161.12 127.74 162.44H130.53C130.75 162.69 130.67 163.28 130.37 163.51H127.74V169.86C127.74 171.87 128.54 172.22 129.16 172.22C129.73 172.22 130.26 172.02 130.63 171.85L130.86 172.55L129.16 173.41Z" fill="#388D99"/>
<path d="M141.21 171.25C139.62 173.29 137.83 173.73 136.98 173.73C133.88 173.73 132.02 171.23 132.02 168.34C132.02 166.63 132.66 165.03 133.69 163.94C134.75 162.77 136.13 162.13 137.45 162.13C139.67 162.13 141.33 164.03 141.33 166.04C141.31 166.53 141.24 166.79 140.86 166.88C140.36 166.98 137.11 167.2 134.23 167.3C134.19 170.52 136.13 171.89 137.91 171.89C138.93 171.89 139.88 171.48 140.8 170.64L141.21 171.25ZM136.87 163.1C135.75 163.1 134.67 164.19 134.36 166.21C135.69 166.21 137.01 166.2 138.41 166.14C138.84 166.14 138.99 166.02 138.99 165.64C139.01 164.32 138.19 163.1 136.87 163.1Z" fill="#388D99"/>
<path d="M155.09 172.8C154.55 172.9 152.6 173.2 151.03 173.73C151.03 173.21 151.03 172.66 151.03 172.14C150.58 172.42 149.93 172.77 149.48 173.05C148.55 173.59 147.93 173.72 147.64 173.72C145.62 173.72 142.9 171.75 142.9 168.21C142.9 164.75 145.94 162.12 149.45 162.12C149.77 162.12 150.52 162.16 151.02 162.36V158.83C151.02 157.28 150.85 157.22 149.12 157.06V156.38C150.44 156.21 152.24 155.86 153.22 155.53C153.22 156.46 153.22 157.52 153.22 158.56V170.48C153.22 171.79 153.39 171.95 154.32 172.02L155.07 172.07V172.8H155.09ZM151.03 164.41C150.51 163.57 149.51 163.14 148.54 163.14C147.42 163.14 145.37 163.89 145.37 167.49C145.37 170.56 147.24 172.09 148.75 172.11C149.57 172.11 150.44 171.73 151.03 171.3V164.41Z" fill="#388D99"/>
<path d="M167.24 162.42C167.72 162.22 168.13 162.13 168.46 162.13C171.2 162.13 173.41 164.48 173.41 167.42C173.41 170.83 170.51 173.74 167.16 173.72C166.02 173.72 164.64 173.47 163.2 172.82C163.2 172.18 163.2 171.5 163.2 170.83V158.87C163.2 157.34 163.11 157.18 161.55 157.06V156.37C162.75 156.22 164.4 155.85 165.4 155.52C165.4 156.47 165.4 157.46 165.4 158.44V163.2L167.24 162.42ZM165.41 170.56C165.41 170.95 165.44 171.19 165.54 171.43C165.81 172.01 166.74 172.74 167.89 172.74C169.89 172.74 170.95 170.96 170.95 168.09C170.95 165.18 169.25 163.58 167.28 163.58C166.59 163.58 165.87 163.78 165.41 164V170.56Z" fill="#388D99"/>
<path d="M184.44 171.25C182.85 173.29 181.06 173.73 180.21 173.73C177.11 173.73 175.25 171.23 175.25 168.34C175.25 166.63 175.89 165.03 176.92 163.94C177.98 162.77 179.36 162.13 180.67 162.13C182.89 162.13 184.55 164.03 184.55 166.04C184.53 166.53 184.46 166.79 184.08 166.88C183.58 166.98 180.33 167.2 177.45 167.3C177.41 170.52 179.35 171.89 181.13 171.89C182.15 171.89 183.1 171.48 184.02 170.64L184.44 171.25ZM180.09 163.1C178.97 163.1 177.89 164.19 177.58 166.21C178.91 166.21 180.23 166.2 181.63 166.14C182.06 166.14 182.21 166.02 182.21 165.64C182.24 164.32 181.42 163.1 180.09 163.1Z" fill="#388D99"/>
<path d="M192.89 173.43V172.7C194.28 172.55 194.45 172.41 194.45 170.82V166.67C194.45 164.62 193.65 163.64 192.1 163.67C191.21 163.67 190.28 164.09 189.6 164.87V170.83C189.6 172.41 189.79 172.56 191.22 172.71V173.44H185.68V172.71C187.09 172.58 187.4 172.46 187.4 170.81V158.85C187.4 157.56 187.31 157.24 185.69 157.08V156.4C187.11 156.27 188.65 155.9 189.6 155.55C189.6 156.52 189.6 157.6 189.6 158.6V163.93C190.5 163.04 191.84 162.14 193.18 162.14C195.25 162.14 196.65 163.44 196.65 166.4V170.83C196.65 172.47 196.85 172.57 198.25 172.71V173.44H192.89V173.43Z" fill="#388D99"/>
<path d="M207.75 173.73C207.32 173.73 206.77 173.53 206.51 173.25C206.18 172.93 206.03 172.58 205.9 172.16C204.91 172.83 203.68 173.73 202.96 173.73C201.12 173.73 199.85 172.22 199.85 170.63C199.85 169.39 200.51 168.62 201.88 168.14C203.4 167.61 205.29 166.97 205.84 166.51V165.9C205.84 164.21 205.02 163.24 203.76 163.24C203.21 163.24 202.86 163.5 202.62 163.8C202.34 164.16 202.18 164.7 201.96 165.43C201.83 165.88 201.57 166.05 201.17 166.05C200.66 166.05 200 165.53 200 164.91C200 164.54 200.32 164.24 200.83 163.88C201.63 163.31 203.08 162.43 204.5 162.13C205.29 162.13 206.08 162.36 206.69 162.81C207.6 163.56 207.98 164.45 207.98 165.74V170.47C207.98 171.63 208.4 171.97 208.84 171.97C209.13 171.97 209.44 171.85 209.72 171.71L209.97 172.44L207.75 173.73ZM205.84 167.41C205.31 167.68 204.24 168.16 203.68 168.41C202.76 168.83 202.21 169.3 202.21 170.21C202.21 171.55 203.21 172.13 203.96 172.13C204.56 172.13 205.36 171.8 205.84 171.32C205.84 170.15 205.84 168.58 205.84 167.41Z" fill="#388D99"/>
<path d="M222.04 163.14C220.69 163.32 220.51 163.54 219.88 164.98C219.05 166.98 217.64 170.26 216.31 173.71H215.53C214.44 170.79 213.23 167.83 212.05 164.91C211.5 163.53 211.29 163.35 209.99 163.15V162.44H215.3V163.15C213.97 163.33 213.9 163.51 214.28 164.54C214.9 166.26 215.93 168.87 216.57 170.49C217.38 168.47 218.21 166.4 218.77 164.77C219.16 163.63 219.09 163.32 217.46 163.15V162.44H222.04V163.14V163.14Z" fill="#388D99"/>
<path d="M222.31 173.43V172.7C223.84 172.55 224.01 172.42 224.01 170.71V165.61C224.01 164.04 223.93 163.94 222.49 163.71V163.07C223.84 162.85 225.09 162.53 226.21 162.09C226.21 163.14 226.21 164.18 226.21 165.23V170.72C226.21 172.42 226.37 172.55 227.96 172.71V173.44H222.31V173.43ZM224.97 159.81C224.23 159.81 223.56 159.15 223.56 158.4C223.56 157.56 224.23 156.95 225 156.95C225.75 156.95 226.37 157.56 226.37 158.4C226.36 159.15 225.75 159.81 224.97 159.81Z" fill="#388D99"/>
<path d="M234.96 162.13C238.16 162.13 240.46 164.55 240.46 167.74C240.46 171.78 237.48 173.73 234.94 173.73C231.43 173.73 229.32 170.94 229.32 168.12C229.32 164.09 232.49 162.13 234.96 162.13ZM234.66 163.01C233.22 163.01 231.9 164.42 231.9 167.35C231.9 170.51 233.23 172.82 235.2 172.82C236.64 172.82 237.89 171.78 237.89 168.32C237.89 165.3 236.74 163.01 234.66 163.01Z" fill="#388D99"/>
<path d="M254.38 172.85C253.13 173.03 251.73 173.35 250.39 173.73C250.39 173.3 250.39 172.46 250.39 171.85C249.1 172.93 248.01 173.73 246.63 173.73C244.88 173.73 243.48 172.65 243.48 170.01V165.1C243.48 163.79 243.29 163.64 242.66 163.51L241.99 163.38V162.7C243.1 162.65 244.81 162.41 245.76 162.25C245.69 163.09 245.68 164.31 245.68 165.92V169.36C245.68 171.46 246.77 172.07 247.85 172.07C248.73 172.07 249.59 171.72 250.39 170.96V165.1C250.39 163.79 250.12 163.61 249.3 163.48L248.51 163.37V162.69C250.08 162.62 251.9 162.36 252.6 162.24V170.57C252.6 171.83 252.79 172.02 253.71 172.08L254.38 172.11V172.85V172.85Z" fill="#388D99"/>
<path d="M261.52 173.43H255.62V172.7C257.15 172.55 257.29 172.42 257.29 170.82V165.57C257.29 163.99 257.19 163.91 255.79 163.72V163.07C257.07 162.87 258.25 162.57 259.49 162.06C259.49 162.89 259.49 163.98 259.49 164.8C260.41 163.42 261.43 162.13 262.64 162.13C263.56 162.13 264.12 162.71 264.12 163.38C264.12 164.07 263.63 164.65 263.19 164.89C262.92 165.04 262.71 165 262.52 164.83C262.14 164.46 261.83 164.18 261.39 164.18C260.89 164.18 260.02 164.87 259.49 166.09V170.8C259.49 172.42 259.62 172.54 261.52 172.7V173.43V173.43Z" fill="#388D99"/>
<path d="M273.15 173.73C272.72 173.73 272.17 173.53 271.91 173.25C271.58 172.93 271.43 172.58 271.3 172.16C270.31 172.83 269.08 173.73 268.36 173.73C266.52 173.73 265.25 172.22 265.25 170.63C265.25 169.39 265.91 168.62 267.28 168.14C268.8 167.61 270.69 166.97 271.24 166.51V165.9C271.24 164.21 270.42 163.24 269.16 163.24C268.61 163.24 268.26 163.5 268.02 163.8C267.74 164.16 267.58 164.7 267.36 165.43C267.23 165.88 266.97 166.05 266.57 166.05C266.06 166.05 265.4 165.53 265.4 164.91C265.4 164.54 265.72 164.24 266.23 163.88C267.03 163.31 268.48 162.43 269.9 162.13C270.69 162.13 271.48 162.36 272.09 162.81C273 163.56 273.38 164.45 273.38 165.74V170.47C273.38 171.63 273.8 171.97 274.24 171.97C274.53 171.97 274.84 171.85 275.12 171.71L275.37 172.44L273.15 173.73ZM271.24 167.41C270.71 167.68 269.64 168.16 269.08 168.41C268.16 168.83 267.61 169.3 267.61 170.21C267.61 171.55 268.61 172.13 269.36 172.13C269.96 172.13 270.76 171.8 271.24 171.32C271.24 170.15 271.24 168.58 271.24 167.41Z" fill="#388D99"/>
<path d="M276.03 173.43V172.7C277.6 172.54 277.77 172.41 277.77 170.78V158.92C277.77 157.44 277.64 157.29 276.1 157.07V156.39C277.52 156.24 279.1 155.85 279.97 155.54C279.97 156.71 279.97 157.89 279.97 159.06V170.78C279.97 172.43 280.11 172.55 281.7 172.7V173.43H276.03Z" fill="#388D99"/>
<path d="M50.76 209.43V208.7C52.33 208.54 52.5 208.41 52.5 206.78V194.92C52.5 193.44 52.37 193.29 50.83 193.07V192.39C52.25 192.24 53.83 191.85 54.7 191.54C54.7 192.71 54.7 193.89 54.7 195.06V206.78C54.7 208.43 54.8401 208.55 56.4301 208.7V209.43H50.76Z" fill="#388D99"/>
<path d="M65.82 209.73C65.39 209.73 64.84 209.53 64.58 209.25C64.25 208.93 64.1 208.58 63.97 208.16C62.98 208.83 61.75 209.73 61.03 209.73C59.19 209.73 57.92 208.22 57.92 206.63C57.92 205.39 58.58 204.62 59.95 204.14C61.47 203.61 63.36 202.97 63.91 202.51V201.9C63.91 200.21 63.09 199.24 61.83 199.24C61.28 199.24 60.93 199.5 60.69 199.8C60.41 200.16 60.25 200.7 60.03 201.43C59.9 201.88 59.6401 202.05 59.2401 202.05C58.7301 202.05 58.07 201.53 58.07 200.91C58.07 200.54 58.39 200.24 58.9 199.88C59.7 199.31 61.15 198.43 62.57 198.13C63.36 198.13 64.15 198.36 64.75 198.81C65.66 199.56 66.04 200.45 66.04 201.74V206.47C66.04 207.63 66.46 207.97 66.9 207.97C67.19 207.97 67.5 207.85 67.78 207.71L68.03 208.44L65.82 209.73ZM63.91 203.41C63.38 203.68 62.31 204.16 61.75 204.41C60.83 204.83 60.28 205.3 60.28 206.21C60.28 207.55 61.28 208.13 62.03 208.13C62.63 208.13 63.43 207.8 63.91 207.32C63.91 206.15 63.91 204.58 63.91 203.41Z" fill="#388D99"/>
<path d="M76.2401 209.43V208.7C77.6201 208.55 77.75 208.39 77.75 206.68V202.53C77.75 200.78 77.08 199.71 75.57 199.71C74.61 199.71 73.71 200.25 72.96 200.91V206.79C72.96 208.48 73.1001 208.54 74.4901 208.69V209.42H69.02V208.69C70.61 208.51 70.76 208.42 70.76 206.77V201.61C70.76 200.01 70.58 199.93 69.28 199.71V199.03C70.54 198.83 71.86 198.51 72.97 198.04C72.97 198.58 72.96 199.39 72.96 199.98C73.46 199.63 74 199.26 74.64 198.84C75.35 198.39 75.97 198.11 76.69 198.11C78.69 198.11 79.95 199.58 79.95 202.03V206.77C79.95 208.44 80.1 208.52 81.5 208.67V209.4H76.2401V209.43Z" fill="#388D99"/>
<path d="M86.57 205.73C86.03 206.17 85.81 206.62 85.81 206.91C85.81 207.35 86.24 207.86 87.34 207.86C88.24 207.86 89.32 207.84 90.14 207.84C91.73 207.84 93.81 208.38 93.81 210.85C93.81 213.49 90.67 215.9 87.34 215.9C84.43 215.9 82.92 214.26 82.88 212.8C82.88 212.24 83.1 211.78 83.53 211.38C84.06 210.86 84.98 210.11 85.55 209.68C84.63 209.41 84.0101 208.85 83.6801 208.32C83.4401 207.94 83.35 207.46 83.36 207.19C84.35 206.81 85.24 206.1 85.73 205.45L86.57 205.73ZM87.77 205.98C85.35 205.98 83.44 204.54 83.44 202.21C83.44 199.39 86 198.07 88 198.07C88.87 198.07 89.69 198.29 90.48 198.7C91.61 198.7 93.16 198.5 93.85 198.33L94 198.55C93.85 198.96 93.46 199.68 93.08 199.92C92.7 199.92 91.89 199.82 91.54 199.8C91.96 200.35 92.2401 201.13 92.2401 202.03C92.2301 204.71 89.97 205.98 87.77 205.98ZM88.29 209.76C87.06 209.76 86.49 209.91 86.06 210.28C85.41 210.81 84.95 211.52 84.95 212.21C84.95 213.58 86.34 214.6 88.31 214.6C90.6 214.6 91.9301 213.43 91.9301 211.88C91.9301 211.02 91.49 210.36 90.78 210.07C90.14 209.81 89.32 209.76 88.29 209.76ZM87.77 198.9C86.71 198.9 85.75 199.91 85.75 201.85C85.75 203.77 86.67 205.15 88.01 205.15C89.09 205.11 89.9901 204.17 89.9901 202.18C89.9901 200.31 89.14 198.9 87.77 198.9Z" fill="#388D99"/>
<path d="M106.98 208.85C105.73 209.03 104.33 209.35 102.99 209.73C102.99 209.3 102.99 208.46 102.99 207.85C101.7 208.93 100.61 209.73 99.2301 209.73C97.4801 209.73 96.0801 208.65 96.0801 206.01V201.1C96.0801 199.79 95.8901 199.64 95.2501 199.51L94.5801 199.38V198.7C95.6901 198.65 97.4001 198.41 98.3501 198.25C98.2801 199.09 98.2701 200.31 98.2701 201.92V205.36C98.2701 207.46 99.3601 208.07 100.44 208.07C101.32 208.07 102.18 207.72 102.98 206.96V201.1C102.98 199.79 102.71 199.61 101.89 199.48L101.1 199.37V198.69C102.67 198.62 104.49 198.36 105.19 198.24V206.57C105.19 207.83 105.38 208.02 106.3 208.08L106.97 208.11V208.85H106.98Z" fill="#388D99"/>
<path d="M116.3 209.73C115.87 209.73 115.32 209.53 115.06 209.25C114.73 208.93 114.58 208.58 114.45 208.16C113.46 208.83 112.23 209.73 111.51 209.73C109.67 209.73 108.4 208.22 108.4 206.63C108.4 205.39 109.06 204.62 110.43 204.14C111.95 203.61 113.84 202.97 114.39 202.51V201.9C114.39 200.21 113.57 199.24 112.31 199.24C111.76 199.24 111.41 199.5 111.17 199.8C110.89 200.16 110.73 200.7 110.51 201.43C110.38 201.88 110.12 202.05 109.72 202.05C109.21 202.05 108.55 201.53 108.55 200.91C108.55 200.54 108.87 200.24 109.38 199.88C110.18 199.31 111.63 198.43 113.05 198.13C113.84 198.13 114.63 198.36 115.24 198.81C116.15 199.56 116.53 200.45 116.53 201.74V206.47C116.53 207.63 116.95 207.97 117.39 207.97C117.68 207.97 117.99 207.85 118.27 207.71L118.52 208.44L116.3 209.73ZM114.39 203.41C113.86 203.68 112.79 204.16 112.23 204.41C111.31 204.83 110.76 205.3 110.76 206.21C110.76 207.55 111.76 208.13 112.51 208.13C113.11 208.13 113.91 207.8 114.39 207.32C114.39 206.15 114.39 204.58 114.39 203.41Z" fill="#388D99"/>
<path d="M123.14 205.73C122.6 206.17 122.38 206.62 122.38 206.91C122.38 207.35 122.81 207.86 123.91 207.86C124.81 207.86 125.89 207.84 126.71 207.84C128.3 207.84 130.38 208.38 130.38 210.85C130.38 213.49 127.24 215.9 123.91 215.9C121 215.9 119.49 214.26 119.45 212.8C119.45 212.24 119.67 211.78 120.1 211.38C120.63 210.86 121.55 210.11 122.12 209.68C121.2 209.41 120.58 208.85 120.25 208.32C120.01 207.94 119.92 207.46 119.93 207.19C120.92 206.81 121.81 206.1 122.3 205.45L123.14 205.73ZM124.34 205.98C121.92 205.98 120.01 204.54 120.01 202.21C120.01 199.39 122.57 198.07 124.57 198.07C125.44 198.07 126.26 198.29 127.05 198.7C128.18 198.7 129.73 198.5 130.42 198.33L130.57 198.55C130.42 198.96 130.03 199.68 129.65 199.92C129.27 199.92 128.46 199.82 128.11 199.8C128.53 200.35 128.81 201.13 128.81 202.03C128.8 204.71 126.55 205.98 124.34 205.98ZM124.87 209.76C123.64 209.76 123.07 209.91 122.64 210.28C121.99 210.81 121.53 211.52 121.53 212.21C121.53 213.58 122.92 214.6 124.89 214.6C127.18 214.6 128.51 213.43 128.51 211.88C128.51 211.02 128.07 210.36 127.36 210.07C126.72 209.81 125.9 209.76 124.87 209.76ZM124.35 198.9C123.29 198.9 122.33 199.91 122.33 201.85C122.33 203.77 123.25 205.15 124.59 205.15C125.67 205.11 126.57 204.17 126.57 202.18C126.56 200.31 125.71 198.9 124.35 198.9Z" fill="#388D99"/>
<path d="M140.66 207.25C139.07 209.29 137.28 209.73 136.43 209.73C133.33 209.73 131.47 207.23 131.47 204.34C131.47 202.63 132.11 201.03 133.14 199.94C134.2 198.77 135.58 198.13 136.9 198.13C139.12 198.13 140.78 200.03 140.78 202.04C140.76 202.53 140.69 202.79 140.31 202.88C139.81 202.98 136.56 203.2 133.68 203.3C133.64 206.52 135.58 207.89 137.36 207.89C138.38 207.89 139.33 207.48 140.25 206.64L140.66 207.25ZM136.32 199.1C135.2 199.1 134.12 200.19 133.81 202.21C135.14 202.21 136.46 202.2 137.86 202.14C138.29 202.14 138.44 202.02 138.44 201.64C138.46 200.32 137.64 199.1 136.32 199.1Z" fill="#388D99"/>
<path d="M154.63 201.46C154.14 199.96 153.46 198.99 152 198.99C151.16 198.99 150.49 199.59 150.49 200.56C150.49 201.6 151.2 202.09 152.58 202.73C154.71 203.73 155.84 204.5 155.84 206.21C155.84 208.54 153.69 209.73 151.68 209.73C150.38 209.73 149.19 209.31 148.67 209.02C148.55 208.32 148.33 206.89 148.23 206.05L148.97 205.92C149.43 207.52 150.33 208.85 152.06 208.85C153.01 208.85 153.75 208.21 153.75 207.22C153.75 206.16 153.13 205.58 151.76 204.92C150.03 204.08 148.57 203.27 148.57 201.42C148.57 199.57 150.13 198.14 152.54 198.14C153.62 198.14 154.48 198.39 154.99 198.47C155.07 199.08 155.25 200.66 155.37 201.28L154.63 201.46Z" fill="#388D99"/>
<path d="M157.23 198.97C158.43 198.79 159.8 198.36 161.03 197.89C161.03 198.48 161.03 199.27 161.03 199.85C161.1 199.8 163.03 198.69 163.13 198.64C163.73 198.31 164.26 198.14 164.61 198.14C167.36 198.14 169.02 200.48 169.02 202.94C169.02 206.71 166.04 209.12 162.77 209.73C162.04 209.71 161.39 209.51 161.03 209.32V212.63C161.03 214.4 161.22 214.55 163.11 214.73V215.45H157.05V214.73C158.66 214.56 158.84 214.42 158.84 212.8V201.47C158.84 200 158.77 199.89 157.24 199.68V198.97H157.23ZM161.03 207.54C161.59 208.1 162.55 208.51 163.35 208.51C165.37 208.51 166.69 206.72 166.69 203.94C166.69 201.17 165.12 199.71 163.44 199.71C162.61 199.71 161.65 200.23 161.02 200.69V207.54H161.03Z" fill="#388D99"/>
<path d="M180.11 207.25C178.52 209.29 176.73 209.73 175.88 209.73C172.78 209.73 170.92 207.23 170.92 204.34C170.92 202.63 171.56 201.03 172.59 199.94C173.65 198.77 175.03 198.13 176.35 198.13C178.57 198.13 180.23 200.03 180.23 202.04C180.21 202.53 180.14 202.79 179.76 202.88C179.26 202.98 176.01 203.2 173.13 203.3C173.09 206.52 175.03 207.89 176.81 207.89C177.83 207.89 178.78 207.48 179.7 206.64L180.11 207.25ZM175.77 199.1C174.65 199.1 173.57 200.19 173.26 202.21C174.59 202.21 175.91 202.2 177.31 202.14C177.74 202.14 177.89 202.02 177.89 201.64C177.91 200.32 177.09 199.1 175.77 199.1Z" fill="#388D99"/>
<path d="M191.21 207.15C190.1 208.64 188.43 209.73 186.92 209.73C183.7 209.73 181.8 207.15 181.8 204.46C181.8 202.51 182.67 200.84 184.33 199.58C185.71 198.52 187.23 198.13 188.23 198.13C189.32 198.13 190.14 198.47 190.53 198.79C190.88 199.06 190.94 199.26 190.94 199.55C190.94 200.17 190.3 200.72 190 200.72C189.87 200.72 189.75 200.67 189.51 200.47C188.68 199.73 187.83 199.38 186.97 199.38C185.44 199.38 184.04 200.7 184.04 203.32C184.02 206.77 186.4 207.9 187.79 207.9C188.83 207.9 189.67 207.63 190.77 206.58L191.21 207.15Z" fill="#388D99"/>
<path d="M192.39 209.43V208.7C193.92 208.55 194.09 208.42 194.09 206.71V201.61C194.09 200.04 194.01 199.94 192.57 199.71V199.07C193.92 198.85 195.17 198.53 196.29 198.09C196.29 199.14 196.29 200.18 196.29 201.23V206.72C196.29 208.42 196.45 208.55 198.04 208.71V209.44H192.39V209.43ZM195.04 195.81C194.3 195.81 193.63 195.15 193.63 194.4C193.63 193.56 194.3 192.95 195.07 192.95C195.82 192.95 196.44 193.56 196.44 194.4C196.44 195.15 195.82 195.81 195.04 195.81Z" fill="#388D99"/>
<path d="M207.37 209.73C206.94 209.73 206.39 209.53 206.13 209.25C205.8 208.93 205.65 208.58 205.52 208.16C204.53 208.83 203.3 209.73 202.58 209.73C200.74 209.73 199.47 208.22 199.47 206.63C199.47 205.39 200.13 204.62 201.5 204.14C203.02 203.61 204.91 202.97 205.46 202.51V201.9C205.46 200.21 204.64 199.24 203.38 199.24C202.83 199.24 202.48 199.5 202.24 199.8C201.96 200.16 201.8 200.7 201.58 201.43C201.45 201.88 201.19 202.05 200.79 202.05C200.28 202.05 199.62 201.53 199.62 200.91C199.62 200.54 199.94 200.24 200.45 199.88C201.25 199.31 202.7 198.43 204.12 198.13C204.91 198.13 205.7 198.36 206.31 198.81C207.22 199.56 207.6 200.45 207.6 201.74V206.47C207.6 207.63 208.02 207.97 208.46 207.97C208.75 207.97 209.06 207.85 209.34 207.71L209.59 208.44L207.37 209.73ZM205.46 203.41C204.93 203.68 203.86 204.16 203.3 204.41C202.38 204.83 201.83 205.3 201.83 206.21C201.83 207.55 202.83 208.13 203.58 208.13C204.18 208.13 204.98 207.8 205.46 207.32C205.46 206.15 205.46 204.58 205.46 203.41Z" fill="#388D99"/>
<path d="M210.26 209.43V208.7C211.83 208.54 212 208.41 212 206.78V194.92C212 193.44 211.87 193.29 210.33 193.07V192.39C211.75 192.24 213.33 191.85 214.2 191.54C214.2 192.71 214.2 193.89 214.2 195.06V206.78C214.2 208.43 214.34 208.55 215.93 208.7V209.43H210.26Z" fill="#388D99"/>
<path d="M217.21 209.43V208.7C218.74 208.55 218.92 208.42 218.92 206.71V201.61C218.92 200.04 218.84 199.94 217.39 199.71V199.07C218.74 198.85 219.99 198.53 221.11 198.09C221.11 199.14 221.11 200.18 221.11 201.23V206.72C221.11 208.42 221.27 208.55 222.86 208.71V209.44H217.21V209.43ZM219.87 195.81C219.12 195.81 218.46 195.15 218.46 194.4C218.46 193.56 219.13 192.95 219.9 192.95C220.65 192.95 221.27 193.56 221.27 194.4C221.26 195.15 220.65 195.81 219.87 195.81Z" fill="#388D99"/>
<path d="M230.73 201.46C230.24 199.96 229.56 198.99 228.1 198.99C227.26 198.99 226.59 199.59 226.59 200.56C226.59 201.6 227.3 202.09 228.68 202.73C230.81 203.73 231.94 204.5 231.94 206.21C231.94 208.54 229.79 209.73 227.78 209.73C226.48 209.73 225.29 209.31 224.77 209.02C224.65 208.32 224.43 206.89 224.33 206.05L225.07 205.92C225.53 207.52 226.43 208.85 228.16 208.85C229.11 208.85 229.85 208.21 229.85 207.22C229.85 206.16 229.23 205.58 227.86 204.92C226.13 204.08 224.67 203.27 224.67 201.42C224.67 199.57 226.23 198.14 228.64 198.14C229.72 198.14 230.58 198.39 231.09 198.47C231.17 199.08 231.35 200.66 231.47 201.28L230.73 201.46Z" fill="#388D99"/>
<path d="M238.53 209.41C238.11 209.63 237.7 209.73 237.47 209.73C235.81 209.73 234.91 208.77 234.91 206.72V199.5H233.21L233.1 199.2L233.78 198.43H234.91V196.34C235.45 195.82 236.27 195.15 236.81 194.63L237.18 194.71C237.13 195.69 237.1 197.12 237.11 198.44H239.9C240.12 198.69 240.05 199.28 239.74 199.51H237.11V205.86C237.11 207.87 237.91 208.22 238.53 208.22C239.1 208.22 239.63 208.02 240 207.85L240.23 208.55L238.53 209.41Z" fill="#388D99"/>
<path d="M247.9 201.46C247.41 199.96 246.73 198.99 245.27 198.99C244.43 198.99 243.76 199.59 243.76 200.56C243.76 201.6 244.47 202.09 245.85 202.73C247.98 203.73 249.11 204.5 249.11 206.21C249.11 208.54 246.96 209.73 244.95 209.73C243.65 209.73 242.46 209.31 241.94 209.02C241.82 208.32 241.6 206.89 241.5 206.05L242.24 205.92C242.7 207.52 243.6 208.85 245.33 208.85C246.28 208.85 247.02 208.21 247.02 207.22C247.02 206.16 246.4 205.58 245.03 204.92C243.3 204.08 241.84 203.27 241.84 201.42C241.84 199.57 243.4 198.14 245.81 198.14C246.89 198.14 247.75 198.39 248.26 198.47C248.34 199.08 248.52 200.66 248.64 201.28L247.9 201.46Z" fill="#388D99"/>
<path d="M250.98 211.73C252.17 211.18 253.05 210.48 253.05 209.53C253.05 208.65 252.34 208.38 251.38 208.14C251.23 208.11 250.98 207.8 250.98 207.32C250.98 206.66 251.49 206 252.45 206C253.43 206 254.66 206.89 254.66 208.74C254.66 210.78 252.84 212.04 251.3 212.48L250.98 211.73Z" fill="#388D99"/>
<path d="M39.94 245.41C39.52 245.63 39.11 245.73 38.88 245.73C37.22 245.73 36.32 244.77 36.32 242.72V235.5H34.62L34.51 235.2L35.19 234.43H36.32V232.34C36.86 231.82 37.68 231.15 38.22 230.63L38.59 230.71C38.54 231.69 38.51 233.12 38.52 234.44H41.31C41.53 234.69 41.46 235.28 41.15 235.51H38.52V241.86C38.52 243.87 39.32 244.22 39.94 244.22C40.51 244.22 41.04 244.02 41.41 243.85L41.64 244.55L39.94 245.41Z" fill="#388D99"/>
<path d="M48.6 245.43H42.7V244.7C44.23 244.55 44.3699 244.42 44.3699 242.82V237.57C44.3699 235.99 44.2699 235.91 42.8699 235.72V235.07C44.1499 234.87 45.3299 234.57 46.5699 234.06C46.5699 234.89 46.5699 235.98 46.5699 236.8C47.4899 235.42 48.51 234.13 49.72 234.13C50.64 234.13 51.2 234.71 51.2 235.38C51.2 236.07 50.71 236.65 50.27 236.89C50 237.04 49.79 237 49.6 236.83C49.22 236.46 48.91 236.18 48.47 236.18C47.97 236.18 47.0999 236.87 46.5699 238.09V242.8C46.5699 244.42 46.7 244.54 48.6 244.7V245.43V245.43Z" fill="#388D99"/>
<path d="M60.2301 245.73C59.8001 245.73 59.2501 245.53 58.9901 245.25C58.6601 244.93 58.5101 244.58 58.3801 244.16C57.3901 244.83 56.1601 245.73 55.4401 245.73C53.6001 245.73 52.3301 244.22 52.3301 242.63C52.3301 241.39 52.9901 240.62 54.3601 240.14C55.8801 239.61 57.7701 238.97 58.3201 238.51V237.9C58.3201 236.21 57.5001 235.24 56.2401 235.24C55.6901 235.24 55.3401 235.5 55.1001 235.8C54.8201 236.16 54.6601 236.7 54.4401 237.43C54.3101 237.88 54.0501 238.05 53.6501 238.05C53.1401 238.05 52.4801 237.53 52.4801 236.91C52.4801 236.54 52.8001 236.24 53.3101 235.88C54.1101 235.31 55.5601 234.43 56.9801 234.13C57.7701 234.13 58.5601 234.36 59.1701 234.81C60.0801 235.56 60.4601 236.45 60.4601 237.74V242.47C60.4601 243.63 60.8801 243.97 61.3201 243.97C61.6101 243.97 61.9201 243.85 62.2001 243.71L62.4501 244.44L60.2301 245.73ZM58.3201 239.41C57.7901 239.68 56.7201 240.16 56.1601 240.41C55.2401 240.83 54.6901 241.3 54.6901 242.21C54.6901 243.55 55.6901 244.13 56.4401 244.13C57.0401 244.13 57.8401 243.8 58.3201 243.32C58.3201 242.15 58.3201 240.58 58.3201 239.41Z" fill="#388D99"/>
<path d="M63.4399 245.43V244.7C64.9699 244.55 65.15 244.42 65.15 242.71V237.61C65.15 236.04 65.0699 235.94 63.6199 235.71V235.07C64.9699 234.85 66.22 234.53 67.34 234.09C67.34 235.14 67.34 236.18 67.34 237.23V242.72C67.34 244.42 67.5 244.55 69.09 244.71V245.44H63.4399V245.43ZM66.1 231.81C65.35 231.81 64.6899 231.15 64.6899 230.4C64.6899 229.56 65.3599 228.95 66.1299 228.95C66.8799 228.95 67.4999 229.56 67.4999 230.4C67.4899 231.15 66.88 231.81 66.1 231.81Z" fill="#388D99"/>
<path d="M77.5201 245.43V244.7C78.9001 244.55 79.0301 244.39 79.0301 242.68V238.53C79.0301 236.78 78.3601 235.71 76.8501 235.71C75.8901 235.71 74.9901 236.25 74.2401 236.91V242.79C74.2401 244.48 74.3801 244.54 75.7801 244.69V245.42H70.3101V244.69C71.9001 244.51 72.0501 244.42 72.0501 242.77V237.61C72.0501 236.01 71.8701 235.93 70.5701 235.71V235.03C71.8401 234.83 73.1501 234.51 74.2601 234.04C74.2601 234.58 74.2501 235.39 74.2501 235.98C74.7501 235.63 75.2901 235.26 75.9301 234.84C76.6401 234.39 77.2601 234.11 77.9801 234.11C79.9801 234.11 81.2401 235.58 81.2401 238.03V242.77C81.2401 244.44 81.3901 244.52 82.7901 244.67V245.4H77.5201V245.43Z" fill="#388D99"/>
<path d="M93.5401 243.25C91.9501 245.29 90.1601 245.73 89.3101 245.73C86.2101 245.73 84.3501 243.23 84.3501 240.34C84.3501 238.63 84.9901 237.03 86.0201 235.94C87.0801 234.77 88.4601 234.13 89.7801 234.13C92.0001 234.13 93.6601 236.03 93.6601 238.04C93.6401 238.53 93.5701 238.79 93.1901 238.88C92.6901 238.98 89.4401 239.2 86.5601 239.3C86.5201 242.52 88.4601 243.89 90.2401 243.89C91.2601 243.89 92.2101 243.48 93.1301 242.64L93.5401 243.25ZM89.1901 235.1C88.0701 235.1 86.9901 236.19 86.6801 238.21C88.0101 238.21 89.3301 238.2 90.7301 238.14C91.1601 238.14 91.3101 238.02 91.3101 237.64C91.3401 236.32 90.5201 235.1 89.1901 235.1Z" fill="#388D99"/>
<path d="M107.41 244.8C106.87 244.9 104.92 245.2 103.35 245.73C103.35 245.21 103.35 244.66 103.35 244.14C102.9 244.42 102.25 244.77 101.8 245.05C100.87 245.59 100.25 245.72 99.96 245.72C97.94 245.72 95.22 243.75 95.22 240.21C95.22 236.75 98.26 234.12 101.77 234.12C102.09 234.12 102.84 234.16 103.34 234.36V230.83C103.34 229.28 103.17 229.22 101.44 229.06V228.38C102.76 228.21 104.56 227.86 105.54 227.53C105.54 228.46 105.54 229.52 105.54 230.56V242.48C105.54 243.79 105.71 243.95 106.64 244.02L107.39 244.07V244.8H107.41ZM103.35 236.41C102.83 235.57 101.83 235.14 100.86 235.14C99.74 235.14 97.6899 235.89 97.6899 239.49C97.6899 242.56 99.5599 244.09 101.07 244.11C101.89 244.11 102.76 243.73 103.35 243.3V236.41Z" fill="#388D99"/>
<path d="M122.45 245.73C122.02 245.73 121.47 245.53 121.21 245.25C120.88 244.93 120.73 244.58 120.6 244.16C119.61 244.83 118.38 245.73 117.66 245.73C115.82 245.73 114.55 244.22 114.55 242.63C114.55 241.39 115.21 240.62 116.58 240.14C118.1 239.61 119.99 238.97 120.54 238.51V237.9C120.54 236.21 119.72 235.24 118.46 235.24C117.91 235.24 117.56 235.5 117.32 235.8C117.04 236.16 116.88 236.7 116.66 237.43C116.53 237.88 116.27 238.05 115.87 238.05C115.36 238.05 114.7 237.53 114.7 236.91C114.7 236.54 115.02 236.24 115.53 235.88C116.33 235.31 117.78 234.43 119.2 234.13C119.99 234.13 120.78 234.36 121.38 234.81C122.29 235.56 122.67 236.45 122.67 237.74V242.47C122.67 243.63 123.09 243.97 123.53 243.97C123.82 243.97 124.13 243.85 124.41 243.71L124.66 244.44L122.45 245.73ZM120.54 239.41C120.01 239.68 118.94 240.16 118.38 240.41C117.46 240.83 116.91 241.3 116.91 242.21C116.91 243.55 117.91 244.13 118.66 244.13C119.26 244.13 120.06 243.8 120.54 243.32C120.54 242.15 120.54 240.58 120.54 239.41Z" fill="#388D99"/>
<path d="M132.87 245.43V244.7C134.25 244.55 134.38 244.39 134.38 242.68V238.53C134.38 236.78 133.71 235.71 132.2 235.71C131.24 235.71 130.34 236.25 129.59 236.91V242.79C129.59 244.48 129.73 244.54 131.12 244.69V245.42H125.65V244.69C127.24 244.51 127.39 244.42 127.39 242.77V237.61C127.39 236.01 127.21 235.93 125.91 235.71V235.03C127.17 234.83 128.49 234.51 129.6 234.04C129.6 234.58 129.59 235.39 129.59 235.98C130.09 235.63 130.63 235.26 131.27 234.84C131.98 234.39 132.6 234.11 133.32 234.11C135.32 234.11 136.58 235.58 136.58 238.03V242.77C136.58 244.44 136.73 244.52 138.13 244.67V245.4H132.87V245.43Z" fill="#388D99"/>
<path d="M151.89 244.8C151.35 244.9 149.4 245.2 147.83 245.73C147.83 245.21 147.83 244.66 147.83 244.14C147.38 244.42 146.74 244.77 146.29 245.05C145.36 245.59 144.74 245.72 144.45 245.72C142.43 245.72 139.71 243.75 139.71 240.21C139.71 236.75 142.75 234.12 146.26 234.12C146.58 234.12 147.33 234.16 147.83 234.36V230.83C147.83 229.28 147.66 229.22 145.93 229.06V228.38C147.25 228.21 149.05 227.86 150.03 227.53C150.03 228.46 150.03 229.52 150.03 230.56V242.48C150.03 243.79 150.2 243.95 151.13 244.02L151.88 244.07V244.8H151.89ZM147.83 236.41C147.31 235.57 146.31 235.14 145.34 235.14C144.22 235.14 142.17 235.89 142.17 239.49C142.17 242.56 144.04 244.09 145.55 244.11C146.37 244.11 147.24 243.73 147.83 243.3V236.41Z" fill="#388D99"/>
<path d="M168.36 243.15C167.25 244.64 165.58 245.73 164.07 245.73C160.85 245.73 158.95 243.15 158.95 240.46C158.95 238.51 159.82 236.84 161.48 235.58C162.86 234.52 164.38 234.13 165.38 234.13C166.47 234.13 167.29 234.47 167.68 234.79C168.03 235.06 168.09 235.26 168.09 235.55C168.09 236.17 167.45 236.72 167.15 236.72C167.02 236.72 166.9 236.67 166.66 236.47C165.83 235.73 164.98 235.38 164.12 235.38C162.59 235.38 161.19 236.7 161.19 239.32C161.17 242.77 163.55 243.9 164.94 243.9C165.98 243.9 166.82 243.63 167.92 242.58L168.36 243.15Z" fill="#388D99"/>
<path d="M178.86 243.25C177.27 245.29 175.48 245.73 174.63 245.73C171.53 245.73 169.67 243.23 169.67 240.34C169.67 238.63 170.31 237.03 171.34 235.94C172.4 234.77 173.78 234.13 175.1 234.13C177.32 234.13 178.98 236.03 178.98 238.04C178.96 238.53 178.89 238.79 178.51 238.88C178.01 238.98 174.76 239.2 171.88 239.3C171.84 242.52 173.78 243.89 175.56 243.89C176.58 243.89 177.53 243.48 178.45 242.64L178.86 243.25ZM174.52 235.1C173.4 235.1 172.32 236.19 172.01 238.21C173.34 238.21 174.66 238.2 176.06 238.14C176.49 238.14 176.64 238.02 176.64 237.64C176.66 236.32 175.84 235.1 174.52 235.1Z" fill="#388D99"/>
<path d="M186.34 245.43H180.44V244.7C181.97 244.55 182.11 244.42 182.11 242.82V237.57C182.11 235.99 182.01 235.91 180.61 235.72V235.07C181.89 234.87 183.07 234.57 184.31 234.06C184.31 234.89 184.31 235.98 184.31 236.8C185.23 235.42 186.25 234.13 187.46 234.13C188.38 234.13 188.94 234.71 188.94 235.38C188.94 236.07 188.45 236.65 188.01 236.89C187.74 237.04 187.53 237 187.34 236.83C186.96 236.46 186.65 236.18 186.21 236.18C185.71 236.18 184.84 236.87 184.31 238.09V242.8C184.31 244.42 184.44 244.54 186.34 244.7V245.43V245.43Z" fill="#388D99"/>
<path d="M194.89 245.41C194.47 245.63 194.06 245.73 193.83 245.73C192.17 245.73 191.27 244.77 191.27 242.72V235.5H189.57L189.46 235.2L190.14 234.43H191.27V232.34C191.81 231.82 192.63 231.15 193.17 230.63L193.54 230.71C193.49 231.69 193.46 233.12 193.47 234.44H196.26C196.48 234.69 196.41 235.28 196.1 235.51H193.47V241.86C193.47 243.87 194.27 244.22 194.89 244.22C195.46 244.22 195.99 244.02 196.36 243.85L196.59 244.55L194.89 245.41Z" fill="#388D99"/>
<path d="M197.61 245.43V244.7C199.14 244.55 199.32 244.42 199.32 242.71V237.61C199.32 236.04 199.24 235.94 197.79 235.71V235.07C199.14 234.85 200.39 234.53 201.51 234.09C201.51 235.14 201.51 236.18 201.51 237.23V242.72C201.51 244.42 201.67 244.55 203.26 244.71V245.44H197.61V245.43ZM200.27 231.81C199.52 231.81 198.86 231.15 198.86 230.4C198.86 229.56 199.53 228.95 200.3 228.95C201.05 228.95 201.67 229.56 201.67 230.4C201.66 231.15 201.05 231.81 200.27 231.81Z" fill="#388D99"/>
<path d="M211.4 245.43V244.7C212.83 244.55 213 244.44 213 242.9V236.88C213 235.68 212.92 235.5 211.68 235.5H208.37V242.91C208.37 244.39 208.56 244.55 210.07 244.7V245.43H204.44V244.7C205.96 244.55 206.17 244.41 206.17 242.91V235.5H204.44L204.34 235.2L204.89 234.43H206.18C206.18 231.9 206.98 230.18 208.59 228.9C209.64 228.06 210.9 227.59 211.88 227.53C213.56 227.53 214.44 228.24 214.79 228.7C214.96 228.92 215.02 229.16 215.02 229.38C214.99 229.76 214.59 230.27 214.24 230.5C213.88 230.71 213.58 230.7 213.27 230.35C212.76 229.78 211.84 228.84 210.62 228.84C209.9 228.84 209.43 229.14 209.15 229.72C208.73 230.35 208.39 231.82 208.39 233.7V234.42H210.5C212.36 234.42 214.03 234.35 215.22 234.1V242.89C215.22 244.43 215.39 244.54 216.99 244.69V245.42H211.4V245.43Z" fill="#388D99"/>
<path d="M227.51 243.25C225.92 245.29 224.13 245.73 223.28 245.73C220.18 245.73 218.32 243.23 218.32 240.34C218.32 238.63 218.96 237.03 219.99 235.94C221.05 234.77 222.43 234.13 223.75 234.13C225.97 234.13 227.63 236.03 227.63 238.04C227.61 238.53 227.54 238.79 227.16 238.88C226.66 238.98 223.41 239.2 220.53 239.3C220.49 242.52 222.43 243.89 224.21 243.89C225.23 243.89 226.18 243.48 227.1 242.64L227.51 243.25ZM223.17 235.1C222.05 235.1 220.97 236.19 220.66 238.21C221.99 238.21 223.31 238.2 224.71 238.14C225.14 238.14 225.29 238.02 225.29 237.64C225.31 236.32 224.49 235.1 223.17 235.1Z" fill="#388D99"/>
<path d="M241.39 244.8C240.85 244.9 238.9 245.2 237.33 245.73C237.33 245.21 237.33 244.66 237.33 244.14C236.88 244.42 236.23 244.77 235.78 245.05C234.85 245.59 234.23 245.72 233.94 245.72C231.92 245.72 229.2 243.75 229.2 240.21C229.2 236.75 232.24 234.12 235.75 234.12C236.07 234.12 236.82 234.16 237.32 234.36V230.83C237.32 229.28 237.15 229.22 235.42 229.06V228.38C236.74 228.21 238.54 227.86 239.52 227.53C239.52 228.46 239.52 229.52 239.52 230.56V242.48C239.52 243.79 239.69 243.95 240.62 244.02L241.37 244.07V244.8H241.39ZM237.33 236.41C236.81 235.57 235.81 235.14 234.84 235.14C233.72 235.14 231.67 235.89 231.67 239.49C231.67 242.56 233.54 244.09 235.05 244.11C235.87 244.11 236.74 243.73 237.33 243.3V236.41Z" fill="#388D99"/>
<path d="M253.53 234.42C254.01 234.22 254.42 234.13 254.75 234.13C257.49 234.13 259.7 236.48 259.7 239.42C259.7 242.83 256.8 245.74 253.45 245.72C252.31 245.72 250.93 245.47 249.49 244.82C249.49 244.18 249.49 243.5 249.49 242.83V230.87C249.49 229.34 249.4 229.18 247.84 229.06V228.37C249.04 228.22 250.69 227.85 251.69 227.52C251.69 228.47 251.69 229.46 251.69 230.44V235.2L253.53 234.42ZM251.71 242.56C251.71 242.95 251.74 243.19 251.84 243.43C252.11 244.01 253.04 244.74 254.19 244.74C256.19 244.74 257.25 242.96 257.25 240.09C257.25 237.18 255.55 235.58 253.58 235.58C252.89 235.58 252.17 235.78 251.71 236V242.56Z" fill="#388D99"/>
<path d="M272.46 235.14C271.18 235.34 270.91 235.54 270.28 236.96C269.66 238.34 268.98 240.07 267.3 244.26C265.66 248.27 265.21 249.84 264.79 251.16C264.64 251.69 264.36 251.82 264.01 251.82C263.18 251.82 262.4 251.22 262.4 250.55C262.4 250.21 262.57 249.99 262.97 249.67C263.8 249.06 264.39 248.48 264.72 247.83C265.2 246.89 265.55 246.05 265.67 245.73C265.77 245.36 265.76 245.13 265.61 244.72C264.58 241.74 263.18 238.6 262.49 236.93C261.96 235.61 261.72 235.31 260.38 235.14V234.43H265.64V235.14C264.5 235.31 264.37 235.55 264.69 236.45L267.03 242.44C267.7 240.78 268.68 238.09 269.2 236.55C269.49 235.63 269.29 235.34 267.87 235.14V234.43H272.44V235.14H272.46Z" fill="#388D99"/>
<path d="M90.0101 281.73C89.5801 281.73 89.0301 281.53 88.7701 281.25C88.4401 280.93 88.2901 280.58 88.1601 280.16C87.1701 280.83 85.9401 281.73 85.2201 281.73C83.3801 281.73 82.1101 280.22 82.1101 278.63C82.1101 277.39 82.7701 276.62 84.1401 276.14C85.6601 275.61 87.5501 274.97 88.1001 274.51V273.9C88.1001 272.21 87.2801 271.24 86.0201 271.24C85.4701 271.24 85.1201 271.5 84.8801 271.8C84.6001 272.16 84.4401 272.7 84.2201 273.43C84.0901 273.88 83.8301 274.05 83.4301 274.05C82.9201 274.05 82.2601 273.53 82.2601 272.91C82.2601 272.54 82.5801 272.24 83.0901 271.88C83.8901 271.31 85.3401 270.43 86.7601 270.13C87.5501 270.13 88.3401 270.36 88.9401 270.81C89.8501 271.56 90.2301 272.45 90.2301 273.74V278.47C90.2301 279.63 90.6501 279.97 91.0901 279.97C91.3801 279.97 91.6901 279.85 91.9701 279.71L92.2201 280.44L90.0101 281.73ZM88.1001 275.41C87.5701 275.68 86.5001 276.16 85.9401 276.41C85.0201 276.83 84.4701 277.3 84.4701 278.21C84.4701 279.55 85.4701 280.13 86.2201 280.13C86.8201 280.13 87.6201 279.8 88.1001 279.32C88.1001 278.15 88.1001 276.58 88.1001 275.41Z" fill="#388D99"/>
<path d="M105.64 273.46C105.15 271.96 104.47 270.99 103.01 270.99C102.17 270.99 101.5 271.59 101.5 272.56C101.5 273.6 102.21 274.09 103.59 274.73C105.72 275.73 106.85 276.5 106.85 278.21C106.85 280.54 104.7 281.73 102.69 281.73C101.39 281.73 100.2 281.31 99.68 281.02C99.56 280.32 99.34 278.89 99.24 278.05L99.98 277.92C100.44 279.52 101.34 280.85 103.07 280.85C104.02 280.85 104.76 280.21 104.76 279.22C104.76 278.16 104.14 277.58 102.77 276.92C101.04 276.08 99.58 275.27 99.58 273.42C99.58 271.57 101.14 270.14 103.55 270.14C104.63 270.14 105.49 270.39 106 270.47C106.08 271.08 106.26 272.66 106.38 273.28L105.64 273.46Z" fill="#388D99"/>
<path d="M117.98 279.15C116.87 280.64 115.2 281.73 113.69 281.73C110.47 281.73 108.57 279.15 108.57 276.46C108.57 274.51 109.44 272.84 111.1 271.58C112.48 270.52 114 270.13 115 270.13C116.09 270.13 116.91 270.47 117.3 270.79C117.65 271.06 117.71 271.26 117.71 271.55C117.71 272.17 117.07 272.72 116.77 272.72C116.64 272.72 116.52 272.67 116.28 272.47C115.45 271.73 114.6 271.38 113.74 271.38C112.21 271.38 110.81 272.7 110.81 275.32C110.79 278.77 113.17 279.9 114.56 279.9C115.61 279.9 116.44 279.63 117.54 278.58L117.98 279.15Z" fill="#388D99"/>
<path d="M119.15 281.43V280.7C120.68 280.55 120.86 280.42 120.86 278.71V273.61C120.86 272.04 120.78 271.94 119.33 271.71V271.07C120.68 270.85 121.93 270.53 123.05 270.09C123.05 271.14 123.05 272.18 123.05 273.23V278.72C123.05 280.42 123.21 280.55 124.8 280.71V281.44H119.15V281.43ZM121.81 267.81C121.06 267.81 120.4 267.15 120.4 266.4C120.4 265.56 121.07 264.95 121.84 264.95C122.59 264.95 123.21 265.56 123.21 266.4C123.2 267.15 122.59 267.81 121.81 267.81Z" fill="#388D99"/>
<path d="M135.35 279.25C133.76 281.29 131.97 281.73 131.12 281.73C128.02 281.73 126.16 279.23 126.16 276.34C126.16 274.63 126.8 273.03 127.83 271.94C128.89 270.77 130.27 270.13 131.58 270.13C133.8 270.13 135.46 272.03 135.46 274.04C135.44 274.53 135.37 274.79 134.99 274.88C134.49 274.98 131.24 275.2 128.36 275.3C128.32 278.52 130.26 279.89 132.04 279.89C133.06 279.89 134.01 279.48 134.93 278.64L135.35 279.25ZM131.01 271.1C129.89 271.1 128.81 272.19 128.5 274.21C129.83 274.21 131.15 274.2 132.55 274.14C132.98 274.14 133.13 274.02 133.13 273.64C133.15 272.32 132.33 271.1 131.01 271.1Z" fill="#388D99"/>
<path d="M144.1 281.43V280.7C145.48 280.55 145.61 280.39 145.61 278.68V274.53C145.61 272.78 144.94 271.71 143.43 271.71C142.47 271.71 141.57 272.25 140.82 272.91V278.79C140.82 280.48 140.96 280.54 142.36 280.69V281.42H136.89V280.69C138.48 280.51 138.63 280.42 138.63 278.77V273.61C138.63 272.01 138.45 271.93 137.15 271.71V271.03C138.42 270.83 139.73 270.51 140.84 270.04C140.84 270.58 140.83 271.39 140.83 271.98C141.33 271.63 141.87 271.26 142.51 270.84C143.22 270.39 143.84 270.11 144.56 270.11C146.56 270.11 147.82 271.58 147.82 274.03V278.77C147.82 280.44 147.97 280.52 149.37 280.67V281.4H144.1V281.43Z" fill="#388D99"/>
<path d="M155.82 281.41C155.4 281.63 155 281.73 154.76 281.73C153.1 281.73 152.2 280.77 152.2 278.72V271.5H150.5L150.39 271.2L151.07 270.43H152.2V268.34C152.74 267.82 153.56 267.15 154.1 266.63L154.47 266.71C154.42 267.69 154.39 269.12 154.4 270.44H157.19C157.41 270.69 157.33 271.28 157.03 271.51H154.4V277.86C154.4 279.87 155.2 280.22 155.82 280.22C156.39 280.22 156.92 280.02 157.29 279.85L157.52 280.55L155.82 281.41Z" fill="#388D99"/>
<path d="M158.55 281.43V280.7C160.08 280.55 160.25 280.42 160.25 278.71V273.61C160.25 272.04 160.17 271.94 158.73 271.71V271.07C160.08 270.85 161.33 270.53 162.45 270.09C162.45 271.14 162.45 272.18 162.45 273.23V278.72C162.45 280.42 162.61 280.55 164.2 280.71V281.44H158.55V281.43ZM161.21 267.81C160.47 267.81 159.8 267.15 159.8 266.4C159.8 265.56 160.47 264.95 161.24 264.95C161.99 264.95 162.61 265.56 162.61 266.4C162.6 267.15 161.99 267.81 161.21 267.81Z" fill="#388D99"/>
<path d="M172.34 281.43V280.7C173.77 280.55 173.94 280.44 173.94 278.9V272.88C173.94 271.68 173.86 271.5 172.62 271.5H169.31V278.91C169.31 280.39 169.5 280.55 171.01 280.7V281.43H165.38V280.7C166.91 280.55 167.11 280.41 167.11 278.91V271.5H165.38L165.28 271.2L165.83 270.43H167.12C167.12 267.9 167.92 266.18 169.53 264.9C170.58 264.06 171.84 263.59 172.82 263.53C174.5 263.53 175.38 264.24 175.73 264.7C175.9 264.92 175.96 265.16 175.96 265.38C175.93 265.76 175.53 266.27 175.18 266.5C174.82 266.71 174.52 266.7 174.21 266.35C173.7 265.78 172.78 264.84 171.56 264.84C170.84 264.84 170.37 265.14 170.08 265.72C169.66 266.35 169.32 267.82 169.32 269.7V270.42H171.43C173.29 270.42 174.96 270.35 176.15 270.1V278.89C176.15 280.43 176.33 280.54 177.92 280.69V281.42H172.34V281.43Z" fill="#388D99"/>
<path d="M188.67 279.15C187.56 280.64 185.89 281.73 184.38 281.73C181.16 281.73 179.26 279.15 179.26 276.46C179.26 274.51 180.13 272.84 181.79 271.58C183.17 270.52 184.69 270.13 185.69 270.13C186.78 270.13 187.6 270.47 187.99 270.79C188.34 271.06 188.4 271.26 188.4 271.55C188.4 272.17 187.76 272.72 187.46 272.72C187.33 272.72 187.21 272.67 186.97 272.47C186.14 271.73 185.29 271.38 184.43 271.38C182.9 271.38 181.5 272.7 181.5 275.32C181.48 278.77 183.86 279.9 185.25 279.9C186.3 279.9 187.13 279.63 188.23 278.58L188.67 279.15Z" fill="#388D99"/>
<path d="M197.96 281.73C197.53 281.73 196.98 281.53 196.72 281.25C196.39 280.93 196.24 280.58 196.11 280.16C195.12 280.83 193.89 281.73 193.17 281.73C191.33 281.73 190.06 280.22 190.06 278.63C190.06 277.39 190.72 276.62 192.09 276.14C193.61 275.61 195.5 274.97 196.05 274.51V273.9C196.05 272.21 195.23 271.24 193.97 271.24C193.42 271.24 193.07 271.5 192.83 271.8C192.55 272.16 192.39 272.7 192.17 273.43C192.04 273.88 191.78 274.05 191.38 274.05C190.87 274.05 190.21 273.53 190.21 272.91C190.21 272.54 190.53 272.24 191.04 271.88C191.84 271.31 193.29 270.43 194.71 270.13C195.5 270.13 196.29 270.36 196.89 270.81C197.8 271.56 198.18 272.45 198.18 273.74V278.47C198.18 279.63 198.6 279.97 199.04 279.97C199.33 279.97 199.64 279.85 199.92 279.71L200.17 280.44L197.96 281.73ZM196.05 275.41C195.52 275.68 194.45 276.16 193.89 276.41C192.97 276.83 192.42 277.3 192.42 278.21C192.42 279.55 193.42 280.13 194.17 280.13C194.77 280.13 195.57 279.8 196.05 279.32C196.05 278.15 196.05 276.58 196.05 275.41Z" fill="#388D99"/>
<path d="M200.85 281.43V280.7C202.42 280.54 202.59 280.41 202.59 278.78V266.92C202.59 265.44 202.46 265.29 200.92 265.07V264.39C202.34 264.24 203.92 263.85 204.8 263.54C204.8 264.71 204.8 265.89 204.8 267.06V278.78C204.8 280.43 204.94 280.55 206.52 280.7V281.43H200.85Z" fill="#388D99"/>
<path d="M207.47 281.43V280.7C209.04 280.54 209.21 280.41 209.21 278.78V266.92C209.21 265.44 209.08 265.29 207.54 265.07V264.39C208.96 264.24 210.54 263.85 211.42 263.54C211.42 264.71 211.42 265.89 211.42 267.06V278.78C211.42 280.43 211.56 280.55 213.14 280.7V281.43H207.47Z" fill="#388D99"/>
<path d="M225.48 271.14C224.2 271.34 223.93 271.54 223.3 272.96C222.68 274.34 222 276.07 220.32 280.26C218.68 284.27 218.23 285.84 217.81 287.16C217.66 287.69 217.38 287.82 217.03 287.82C216.2 287.82 215.42 287.22 215.42 286.55C215.42 286.21 215.59 285.99 215.99 285.67C216.82 285.06 217.41 284.48 217.74 283.83C218.22 282.89 218.57 282.05 218.69 281.73C218.79 281.36 218.78 281.13 218.63 280.72C217.6 277.74 216.2 274.6 215.51 272.93C214.98 271.61 214.74 271.31 213.4 271.14V270.43H218.66V271.14C217.52 271.31 217.39 271.55 217.71 272.45L220.05 278.44C220.72 276.78 221.71 274.09 222.22 272.55C222.51 271.63 222.31 271.34 220.9 271.14V270.43H225.47V271.14H225.48Z" fill="#388D99"/>
<path d="M67.98 315.25C66.39 317.29 64.6 317.73 63.75 317.73C60.65 317.73 58.79 315.23 58.79 312.34C58.79 310.63 59.43 309.03 60.46 307.94C61.52 306.77 62.9 306.13 64.21 306.13C66.43 306.13 68.09 308.03 68.09 310.04C68.07 310.53 68 310.79 67.62 310.88C67.12 310.98 63.8701 311.2 60.9901 311.3C60.9501 314.52 62.89 315.89 64.67 315.89C65.69 315.89 66.64 315.48 67.56 314.64L67.98 315.25ZM63.63 307.1C62.51 307.1 61.43 308.19 61.12 310.21C62.45 310.21 63.77 310.2 65.17 310.14C65.6 310.14 65.75 310.02 65.75 309.64C65.77 308.32 64.95 307.1 63.63 307.1Z" fill="#388D99"/>
<path d="M76.73 317.43V316.7C78.11 316.55 78.2401 316.39 78.2401 314.68V310.53C78.2401 308.78 77.57 307.71 76.06 307.71C75.1 307.71 74.2 308.25 73.45 308.91V314.79C73.45 316.48 73.5901 316.54 74.9901 316.69V317.42H69.52V316.69C71.11 316.51 71.26 316.42 71.26 314.77V309.61C71.26 308.01 71.08 307.93 69.78 307.71V307.03C71.05 306.83 72.36 306.51 73.47 306.04C73.47 306.58 73.46 307.39 73.46 307.98C73.96 307.63 74.5 307.26 75.14 306.84C75.85 306.39 76.47 306.11 77.19 306.11C79.19 306.11 80.45 307.58 80.45 310.03V314.77C80.45 316.44 80.6 316.52 82 316.67V317.4H76.73V317.43Z" fill="#388D99"/>
<path d="M95.7501 316.8C95.2101 316.9 93.2601 317.2 91.6901 317.73C91.6901 317.21 91.6901 316.66 91.6901 316.14C91.2401 316.42 90.5901 316.77 90.1401 317.05C89.2101 317.59 88.5901 317.72 88.3001 317.72C86.2801 317.72 83.5601 315.75 83.5601 312.21C83.5601 308.75 86.6001 306.12 90.1101 306.12C90.4301 306.12 91.1801 306.16 91.6801 306.36V302.83C91.6801 301.28 91.5101 301.22 89.7801 301.06V300.38C91.1001 300.21 92.9001 299.86 93.8801 299.53C93.8801 300.46 93.8801 301.52 93.8801 302.56V314.48C93.8801 315.79 94.0501 315.95 94.9801 316.02L95.7301 316.07V316.8H95.7501ZM91.6901 308.41C91.1701 307.57 90.1701 307.14 89.2001 307.14C88.0801 307.14 86.0301 307.89 86.0301 311.49C86.0301 314.56 87.9001 316.09 89.4101 316.11C90.2301 316.11 91.1001 315.73 91.6901 315.3V308.41Z" fill="#388D99"/>
<path d="M102.67 306.13C105.87 306.13 108.17 308.55 108.17 311.74C108.17 315.78 105.19 317.73 102.65 317.73C99.14 317.73 97.03 314.94 97.03 312.12C97.04 308.09 100.21 306.13 102.67 306.13ZM102.37 307.01C100.93 307.01 99.61 308.42 99.61 311.35C99.61 314.51 100.94 316.82 102.91 316.82C104.35 316.82 105.6 315.78 105.6 312.32C105.6 309.3 104.45 307.01 102.37 307.01Z" fill="#388D99"/>
<path d="M115.81 317.43H109.91V316.7C111.44 316.55 111.58 316.42 111.58 314.82V309.57C111.58 307.99 111.48 307.91 110.08 307.72V307.07C111.36 306.87 112.54 306.57 113.78 306.06C113.78 306.89 113.78 307.98 113.78 308.8C114.7 307.42 115.72 306.13 116.93 306.13C117.85 306.13 118.41 306.71 118.41 307.38C118.41 308.07 117.92 308.65 117.48 308.89C117.21 309.04 117 309 116.81 308.83C116.43 308.46 116.12 308.18 115.68 308.18C115.18 308.18 114.31 308.87 113.78 310.09V314.8C113.78 316.42 113.91 316.54 115.81 316.7V317.43V317.43Z" fill="#388D99"/>
<path d="M125.97 309.46C125.48 307.96 124.8 306.99 123.34 306.99C122.5 306.99 121.83 307.59 121.83 308.56C121.83 309.6 122.54 310.09 123.92 310.73C126.05 311.73 127.18 312.5 127.18 314.21C127.18 316.54 125.03 317.73 123.02 317.73C121.72 317.73 120.53 317.31 120.01 317.02C119.89 316.32 119.66 314.89 119.57 314.05L120.31 313.92C120.77 315.52 121.68 316.85 123.4 316.85C124.35 316.85 125.09 316.21 125.09 315.22C125.09 314.16 124.47 313.58 123.1 312.92C121.37 312.08 119.91 311.27 119.91 309.42C119.91 307.57 121.47 306.14 123.88 306.14C124.96 306.14 125.82 306.39 126.33 306.47C126.41 307.08 126.59 308.66 126.71 309.28L125.97 309.46Z" fill="#388D99"/>
<path d="M138.07 315.25C136.48 317.29 134.69 317.73 133.84 317.73C130.74 317.73 128.88 315.23 128.88 312.34C128.88 310.63 129.52 309.03 130.55 307.94C131.61 306.77 132.99 306.13 134.31 306.13C136.53 306.13 138.19 308.03 138.19 310.04C138.17 310.53 138.1 310.79 137.72 310.88C137.22 310.98 133.97 311.2 131.09 311.3C131.05 314.52 132.99 315.89 134.77 315.89C135.79 315.89 136.74 315.48 137.66 314.64L138.07 315.25ZM133.73 307.1C132.61 307.1 131.53 308.19 131.22 310.21C132.55 310.21 133.87 310.2 135.27 310.14C135.7 310.14 135.85 310.02 135.85 309.64C135.87 308.32 135.05 307.1 133.73 307.1Z" fill="#388D99"/>
<path d="M151.95 316.8C151.41 316.9 149.46 317.2 147.89 317.73C147.89 317.21 147.89 316.66 147.89 316.14C147.44 316.42 146.79 316.77 146.34 317.05C145.41 317.59 144.79 317.72 144.5 317.72C142.48 317.72 139.76 315.75 139.76 312.21C139.76 308.75 142.8 306.12 146.31 306.12C146.63 306.12 147.38 306.16 147.88 306.36V302.83C147.88 301.28 147.71 301.22 145.98 301.06V300.38C147.3 300.21 149.1 299.86 150.08 299.53C150.08 300.46 150.08 301.52 150.08 302.56V314.48C150.08 315.79 150.25 315.95 151.18 316.02L151.93 316.07V316.8H151.95ZM147.89 308.41C147.37 307.57 146.37 307.14 145.4 307.14C144.28 307.14 142.23 307.89 142.23 311.49C142.23 314.56 144.1 316.09 145.61 316.11C146.43 316.11 147.3 315.73 147.89 315.3V308.41Z" fill="#388D99"/>
<path d="M158.87 317.43V316.7C160.4 316.55 160.58 316.42 160.58 314.71V309.61C160.58 308.04 160.5 307.94 159.05 307.71V307.07C160.4 306.85 161.65 306.53 162.77 306.09C162.77 307.14 162.77 308.18 162.77 309.23V314.72C162.77 316.42 162.93 316.55 164.52 316.71V317.44H158.87V317.43ZM161.53 303.81C160.78 303.81 160.12 303.15 160.12 302.4C160.12 301.56 160.79 300.95 161.56 300.95C162.31 300.95 162.93 301.56 162.93 302.4C162.93 303.15 162.31 303.81 161.53 303.81Z" fill="#388D99"/>
<path d="M172.95 317.43V316.7C174.33 316.55 174.46 316.39 174.46 314.68V310.53C174.46 308.78 173.79 307.71 172.28 307.71C171.32 307.71 170.42 308.25 169.67 308.91V314.79C169.67 316.48 169.81 316.54 171.21 316.69V317.42H165.74V316.69C167.33 316.51 167.48 316.42 167.48 314.77V309.61C167.48 308.01 167.3 307.93 166 307.71V307.03C167.27 306.83 168.58 306.51 169.69 306.04C169.69 306.58 169.68 307.39 169.68 307.98C170.18 307.63 170.72 307.26 171.36 306.84C172.07 306.39 172.69 306.11 173.41 306.11C175.41 306.11 176.67 307.58 176.67 310.03V314.77C176.67 316.44 176.82 316.52 178.22 316.67V317.4H172.95V317.43Z" fill="#388D99"/>
<path d="M186.29 309.46C185.8 307.96 185.12 306.99 183.66 306.99C182.82 306.99 182.15 307.59 182.15 308.56C182.15 309.6 182.86 310.09 184.24 310.73C186.37 311.73 187.5 312.5 187.5 314.21C187.5 316.54 185.35 317.73 183.34 317.73C182.04 317.73 180.85 317.31 180.33 317.02C180.21 316.32 179.98 314.89 179.89 314.05L180.63 313.92C181.09 315.52 182 316.85 183.72 316.85C184.67 316.85 185.41 316.21 185.41 315.22C185.41 314.16 184.79 313.58 183.42 312.92C181.69 312.08 180.23 311.27 180.23 309.42C180.23 307.57 181.79 306.14 184.2 306.14C185.28 306.14 186.14 306.39 186.65 306.47C186.73 307.08 186.91 308.66 187.03 309.28L186.29 309.46Z" fill="#388D99"/>
<path d="M194.1 317.41C193.68 317.63 193.28 317.73 193.04 317.73C191.38 317.73 190.48 316.77 190.48 314.72V307.5H188.78L188.67 307.2L189.35 306.43H190.48V304.34C191.02 303.82 191.84 303.15 192.38 302.63L192.75 302.71C192.7 303.69 192.67 305.12 192.68 306.44H195.47C195.69 306.69 195.61 307.28 195.31 307.51H192.68V313.86C192.68 315.87 193.48 316.22 194.1 316.22C194.67 316.22 195.2 316.02 195.57 315.85L195.8 316.55L194.1 317.41Z" fill="#388D99"/>
<path d="M196.82 317.43V316.7C198.35 316.55 198.52 316.42 198.52 314.71V309.61C198.52 308.04 198.44 307.94 197 307.71V307.07C198.35 306.85 199.6 306.53 200.72 306.09C200.72 307.14 200.72 308.18 200.72 309.23V314.72C200.72 316.42 200.88 316.55 202.47 316.71V317.44H196.82V317.43ZM199.48 303.81C198.74 303.81 198.07 303.15 198.07 302.4C198.07 301.56 198.74 300.95 199.51 300.95C200.26 300.95 200.88 301.56 200.88 302.4C200.88 303.15 200.26 303.81 199.48 303.81Z" fill="#388D99"/>
<path d="M208.72 317.41C208.3 317.63 207.9 317.73 207.66 317.73C206 317.73 205.1 316.77 205.1 314.72V307.5H203.4L203.29 307.2L203.97 306.43H205.1V304.34C205.64 303.82 206.46 303.15 207 302.63L207.37 302.71C207.32 303.69 207.29 305.12 207.3 306.44H210.09C210.31 306.69 210.23 307.28 209.93 307.51H207.3V313.86C207.3 315.87 208.1 316.22 208.72 316.22C209.29 316.22 209.82 316.02 210.19 315.85L210.42 316.55L208.72 317.41Z" fill="#388D99"/>
<path d="M223.67 316.85C222.42 317.03 221.02 317.35 219.68 317.73C219.68 317.3 219.68 316.46 219.68 315.85C218.39 316.93 217.3 317.73 215.92 317.73C214.17 317.73 212.77 316.65 212.77 314.01V309.1C212.77 307.79 212.58 307.64 211.94 307.51L211.27 307.38V306.7C212.38 306.65 214.09 306.41 215.04 306.25C214.97 307.09 214.96 308.31 214.96 309.92V313.36C214.96 315.46 216.05 316.07 217.13 316.07C218.01 316.07 218.87 315.72 219.67 314.96V309.1C219.67 307.79 219.4 307.61 218.58 307.48L217.79 307.37V306.69C219.36 306.62 221.18 306.36 221.88 306.24V314.57C221.88 315.83 222.07 316.02 222.99 316.08L223.66 316.11V316.85H223.67Z" fill="#388D99"/>
<path d="M229.9 317.41C229.48 317.63 229.08 317.73 228.84 317.73C227.18 317.73 226.28 316.77 226.28 314.72V307.5H224.58L224.47 307.2L225.15 306.43H226.28V304.34C226.82 303.82 227.64 303.15 228.18 302.63L228.55 302.71C228.5 303.69 228.47 305.12 228.48 306.44H231.27C231.49 306.69 231.41 307.28 231.11 307.51H228.48V313.86C228.48 315.87 229.28 316.22 229.9 316.22C230.47 316.22 231 316.02 231.37 315.85L231.6 316.55L229.9 317.41Z" fill="#388D99"/>
<path d="M241.95 315.25C240.36 317.29 238.57 317.73 237.72 317.73C234.62 317.73 232.76 315.23 232.76 312.34C232.76 310.63 233.4 309.03 234.43 307.94C235.49 306.77 236.87 306.13 238.19 306.13C240.41 306.13 242.07 308.03 242.07 310.04C242.05 310.53 241.98 310.79 241.6 310.88C241.1 310.98 237.85 311.2 234.97 311.3C234.93 314.52 236.87 315.89 238.65 315.89C239.67 315.89 240.62 315.48 241.54 314.64L241.95 315.25ZM237.6 307.1C236.48 307.1 235.4 308.19 235.09 310.21C236.42 310.21 237.74 310.2 239.14 310.14C239.57 310.14 239.72 310.02 239.72 309.64C239.75 308.32 238.93 307.1 237.6 307.1Z" fill="#388D99"/>
<path d="M245.44 317.77C244.49 317.77 243.83 317.08 243.83 316.08C243.83 315.13 244.5 314.39 245.44 314.39C246.38 314.39 247.1 315.12 247.1 316.08C247.1 317.08 246.39 317.77 245.44 317.77Z" fill="#388D99"/>
<defs>
<linearGradient id="paint0_linear" x1="9.11411" y1="1.91699" x2="321.54" y2="405.23" gradientUnits="userSpaceOnUse">
<stop stop-color="#004A48"/>
<stop offset="0.1386" stop-color="#1B5B5C"/>
<stop offset="0.3173" stop-color="#287075"/>
<stop offset="0.4892" stop-color="#317F88"/>
<stop offset="0.6495" stop-color="#368994"/>
<stop offset="0.7867" stop-color="#388C98"/>
</linearGradient>
</defs>
</svg>
