<?xml version="1.0" encoding="utf-8"?>
<!-- Generator: Adobe Illustrator 23.0.1, SVG Export Plug-In . SVG Version: 6.00 Build 0)  -->
<svg version="1.1" id="Camada_1" xmlns="http://www.w3.org/2000/svg" xmlns:xlink="http://www.w3.org/1999/xlink" x="0px" y="0px"
	 viewBox="0 0 187.05 181.43" style="enable-background:new 0 0 187.05 181.43;" xml:space="preserve">
<style type="text/css">
	.st0{fill:url(#SVGID_1_);}
	.st1{fill:url(#SVGID_2_);}
	.st2{fill:url(#SVGID_3_);}
	.st3{fill:url(#SVGID_4_);}
	.st4{fill:url(#SVGID_5_);}
	.st5{fill:url(#SVGID_6_);}
	.st6{fill:url(#SVGID_7_);}
	.st7{fill:url(#SVGID_8_);}
	.st8{fill:url(#SVGID_9_);}
	.st9{fill:url(#SVGID_10_);}
	.st10{fill:url(#SVGID_11_);}
	.st11{fill:url(#SVGID_12_);}
	.st12{fill:url(#SVGID_13_);}
	.st13{fill:url(#SVGID_14_);}
	.st14{fill:url(#SVGID_15_);}
	.st15{fill:url(#SVGID_16_);}
	.st16{fill:url(#SVGID_17_);}
	.st17{fill:url(#SVGID_18_);}
	.st18{fill:url(#SVGID_19_);}
	.st19{fill:url(#SVGID_20_);}
	.st20{fill:url(#SVGID_21_);}
	.st21{fill:url(#SVGID_22_);}
	.st22{fill:url(#SVGID_23_);}
	.st23{fill:url(#SVGID_24_);}
	.st24{fill:url(#SVGID_25_);}
	.st25{fill:url(#SVGID_26_);}
	.st26{fill:url(#SVGID_27_);}
	.st27{fill:url(#SVGID_28_);}
	.st28{fill:url(#SVGID_29_);}
	.st29{fill:url(#SVGID_30_);}
	.st30{fill:url(#SVGID_31_);}
	.st31{fill:url(#SVGID_32_);}
	.st32{fill:url(#SVGID_33_);}
	.st33{fill:url(#SVGID_34_);}
	.st34{fill:url(#SVGID_35_);}
	.st35{fill:url(#SVGID_36_);}
	.st36{fill:url(#SVGID_37_);}
	.st37{fill:url(#SVGID_38_);}
	.st38{fill:url(#SVGID_39_);}
	.st39{fill:url(#SVGID_40_);}
	.st40{fill:url(#SVGID_41_);}
	.st41{fill:url(#SVGID_42_);}
	.st42{fill:url(#SVGID_43_);}
	.st43{fill:url(#SVGID_44_);}
	.st44{fill:url(#SVGID_45_);}
	.st45{fill:url(#SVGID_46_);}
	.st46{fill:url(#SVGID_47_);}
	.st47{fill:url(#SVGID_48_);}
	.st48{fill:url(#SVGID_49_);}
	.st49{fill:url(#SVGID_50_);}
	.st50{fill:url(#SVGID_51_);}
	.st51{clip-path:url(#SVGID_65_);fill:url(#SVGID_66_);}
	.st52{clip-path:url(#SVGID_65_);fill:url(#SVGID_67_);}
	.st53{clip-path:url(#SVGID_65_);fill:url(#SVGID_68_);}
	.st54{clip-path:url(#SVGID_65_);fill:url(#SVGID_69_);}
	.st55{clip-path:url(#SVGID_65_);fill:url(#SVGID_70_);}
	.st56{fill:none;stroke:#FFFFFF;stroke-miterlimit:10;}
	.st57{opacity:0.5;}
	.st58{fill:none;stroke:#FFFFFF;stroke-width:0.75;stroke-miterlimit:10;}
	.st59{fill:url(#SVGID_73_);}
	.st60{opacity:0.75;}
	.st61{fill:#004441;}
	.st62{fill:#008E9A;}
	.st63{fill:#003936;}
	.st64{fill:#FFFFFF;}
	.st65{fill:url(#SVGID_82_);}
	.st66{fill:url(#SVGID_83_);}
	.st67{fill:url(#SVGID_84_);}
	.st68{fill:url(#SVGID_85_);}
	.st69{fill:url(#SVGID_86_);}
	.st70{fill:url(#SVGID_87_);}
	.st71{fill:url(#SVGID_88_);}
	.st72{fill:url(#SVGID_89_);}
	.st73{fill:url(#SVGID_90_);}
	.st74{fill:url(#SVGID_91_);}
	.st75{fill:url(#SVGID_92_);}
	.st76{fill:#006D68;}
	.st77{fill:url(#SVGID_93_);}
	.st78{fill:url(#SVGID_94_);}
	.st79{fill:url(#SVGID_95_);}
	.st80{fill:url(#SVGID_96_);}
	.st81{fill:url(#SVGID_97_);}
	.st82{fill:url(#SVGID_98_);}
	.st83{fill:url(#SVGID_99_);}
	.st84{fill:url(#SVGID_100_);}
	.st85{fill:url(#SVGID_101_);}
	.st86{fill:url(#SVGID_102_);}
	.st87{fill:#005D57;}
	.st88{fill:#0096A4;}
	.st89{fill:none;stroke:#FFFFFF;stroke-width:2;stroke-miterlimit:10;}
	.st90{fill:none;stroke:#006D68;stroke-width:2;stroke-miterlimit:10;}
	.st91{fill:#004441;stroke:#004441;stroke-width:2;stroke-miterlimit:10;}
	.st92{fill:#FFFFFF;stroke:#008E9A;stroke-width:2;stroke-miterlimit:10;}
	.st93{fill:#004039;}
	.st94{fill:#C6E5EA;}
	.st95{fill:#79C4CF;}
	.st96{fill:#6CBFC4;}
	.st97{fill:#D2E9EC;}
	.st98{fill:#FADFD1;}
	.st99{fill:#EA7B59;}
	.st100{fill:#CFCFD9;}
	.st101{fill:#EC7E0B;}
	.st102{fill:#875B9F;}
	.st103{fill:#D24B51;}
	.st104{fill:#F5BB90;}
	.st105{fill:#54B8C0;}
	.st106{fill:#E5533A;}
	.st107{fill:#E3BC38;}
	.st108{fill:url(#SVGID_103_);}
	.st109{fill:url(#SVGID_104_);}
	.st110{fill:url(#SVGID_105_);}
	.st111{fill:url(#SVGID_106_);}
	.st112{fill:url(#SVGID_107_);}
	.st113{fill:url(#SVGID_108_);}
	.st114{fill:url(#SVGID_109_);}
	.st115{fill:url(#SVGID_110_);}
	.st116{fill:url(#SVGID_111_);}
	.st117{fill:url(#SVGID_112_);}
	.st118{fill:url(#SVGID_113_);}
	.st119{fill:url(#SVGID_114_);}
	.st120{fill:url(#SVGID_115_);}
	.st121{fill:url(#SVGID_116_);}
	.st122{fill:url(#SVGID_117_);}
	.st123{fill:url(#SVGID_118_);}
	.st124{fill:url(#SVGID_119_);}
	.st125{fill:url(#SVGID_120_);}
	.st126{fill:url(#SVGID_121_);}
	.st127{fill:url(#SVGID_122_);}
	.st128{fill:url(#SVGID_123_);}
	.st129{fill:url(#SVGID_124_);}
	.st130{fill:url(#SVGID_125_);}
	.st131{fill:url(#SVGID_126_);}
	.st132{fill:url(#SVGID_127_);}
	.st133{fill:url(#SVGID_128_);}
	.st134{fill:url(#SVGID_129_);}
	.st135{fill:url(#SVGID_130_);}
	.st136{fill:url(#SVGID_131_);}
	.st137{fill:url(#SVGID_132_);}
	.st138{fill:url(#SVGID_133_);}
	.st139{fill:url(#SVGID_134_);}
	.st140{fill:url(#SVGID_135_);}
	.st141{fill:url(#SVGID_136_);}
	.st142{fill:url(#SVGID_137_);}
	.st143{fill:url(#SVGID_138_);}
	.st144{fill:url(#SVGID_139_);}
	.st145{fill:url(#SVGID_140_);}
	.st146{fill:url(#SVGID_141_);}
	.st147{fill:url(#SVGID_142_);}
	.st148{fill:url(#SVGID_143_);}
	.st149{fill:url(#SVGID_144_);}
	.st150{fill:url(#SVGID_145_);}
	.st151{fill:url(#SVGID_146_);}
	.st152{fill:url(#SVGID_147_);}
	.st153{fill:url(#SVGID_148_);}
	.st154{fill:url(#SVGID_149_);}
	.st155{fill:url(#SVGID_150_);}
	.st156{fill:url(#SVGID_151_);}
	.st157{fill:url(#SVGID_152_);}
	.st158{fill:url(#SVGID_153_);}
	.st159{clip-path:url(#SVGID_167_);fill:url(#SVGID_168_);}
	.st160{clip-path:url(#SVGID_167_);fill:url(#SVGID_169_);}
	.st161{clip-path:url(#SVGID_167_);fill:url(#SVGID_170_);}
	.st162{clip-path:url(#SVGID_167_);fill:url(#SVGID_171_);}
	.st163{clip-path:url(#SVGID_167_);fill:url(#SVGID_172_);}
	.st164{fill:#A991B5;}
	.st165{fill:#EE8E34;}
	.st166{fill:#A07F0E;}
	.st167{fill:none;stroke:#54B8C0;stroke-width:4;stroke-miterlimit:10;}
	.st168{fill:none;stroke:#875B9F;stroke-width:5;stroke-miterlimit:10;}
	.st169{fill:#E76F80;}
	.st170{fill:#004745;}
</style>
<g>
	<g>
		<g class="st60">
			<rect x="20.14" y="15.48" class="st91" width="138.78" height="142.48"/>
		</g>
		<g>
			<g>
				<rect x="24.14" y="19.48" class="st92" width="138.78" height="142.48"/>
			</g>
		</g>
	</g>
	<g>
		<path class="st93" d="M42.82,86.81c0.17-0.7,0.31-1.41,0.51-2.1c1.69-6.02,7.07-10.14,13.32-10.17c6.5-0.03,13-0.01,19.5-0.01
			c1.59,0,2.53,0.76,2.51,2.01c-0.02,1.22-0.93,1.95-2.47,1.95c-6.34,0-12.67,0-19.01,0c-6.15,0.01-10.39,4.24-10.4,10.38
			c-0.01,9.87-0.01,19.73,0,29.6c0,6.07,4.27,10.32,10.35,10.33c3.93,0.01,7.85,0.02,11.78-0.01c1.08-0.01,1.8,0.36,2.53,1.2
			c1.38,1.59,2.95,3.01,4.65,4.71c0-1.28,0-2.33,0-3.39c0.01-1.82,0.69-2.5,2.52-2.5c6.77,0,13.53,0,20.3,0
			c6.22,0,10.45-4.22,10.46-10.42c0.01-4.29-0.01-8.58,0.01-12.87c0.01-1.71,1.44-2.74,2.82-2.05c0.75,0.37,1.13,1,1.13,1.83
			c0,4.82,0.13,9.64-0.05,14.45c-0.26,7.09-6.36,12.92-13.47,12.99c-6.14,0.06-12.28,0.02-18.41,0.02c-0.39,0-0.79,0-1.34,0
			c0,0.88,0,1.72,0,2.56c0,1.16-0.06,2.31,0.02,3.46c0.08,1.22-0.33,2.11-1.4,2.69c-0.4,0-0.79,0-1.19,0
			c-0.52-0.44-1.07-0.86-1.56-1.34c-2.27-2.25-4.51-4.53-6.8-6.75c-0.35-0.34-0.95-0.59-1.44-0.6c-3.72-0.05-7.44,0-11.17-0.04
			c-6.09-0.05-11.42-4.12-13.13-9.98c-0.22-0.75-0.38-1.53-0.57-2.29C42.82,109.26,42.82,98.04,42.82,86.81z"/>
		<path class="st64" d="M42.82,120.48c0.19,0.76,0.35,1.53,0.57,2.29c1.71,5.86,7.04,9.93,13.13,9.98
			c3.72,0.03,7.45-0.01,11.17,0.04c0.49,0.01,1.09,0.26,1.44,0.6c2.3,2.22,4.53,4.51,6.8,6.75c0.49,0.48,1.04,0.89,1.56,1.34
			c-11.55,0-23.11,0-34.66,0C42.82,134.48,42.82,127.48,42.82,120.48z"/>
		<path class="st93" d="M112.91,39.97c5.34-0.15,10.45,0.68,15.27,3.07c10.3,5.09,16.72,16.01,16,27.44
			c-0.51,8.09-3.88,14.84-9.99,20.18c-0.5,0.44-0.67,0.88-0.67,1.52c0.03,3.33,0,6.67,0.02,10c0.01,1.04-0.21,1.93-1.26,2.35
			c-1.04,0.41-1.82-0.08-2.55-0.81c-1.99-2.02-4.05-3.98-6-6.04c-0.69-0.73-1.31-0.85-2.3-0.7c-6.94,1.06-13.92,1.49-20.62-1.04
			C89.69,91.72,83.15,83.56,81.86,71.7c-1.55-14.24,7.51-27.01,21.34-30.69c1.14-0.3,2.31-0.57,3.49-0.68
			C108.75,40.14,110.83,40.08,112.91,39.97z M129.57,97.99c0-2.48,0.06-4.64-0.02-6.8c-0.05-1.32,0.44-2.19,1.45-3.03
			c7.44-6.26,10.55-14.28,8.8-23.82c-1.71-9.29-7.32-15.64-16.2-18.9c-5.67-2.08-11.6-1.86-17.42-0.98
			c-13.69,2.08-23,15.91-20.05,29.43c2.41,11.02,11.24,18.83,22.54,19.68c4.53,0.34,9.11,0.48,13.56-0.84
			c1.19-0.35,2.09-0.13,2.93,0.78C126.53,94.96,127.96,96.36,129.57,97.99z"/>
		<path class="st102" d="M76.41,101.47c6.69,0,13.39,0,20.08,0c0.3,0,0.6-0.01,0.89,0.01c1.08,0.09,1.86,0.91,1.88,1.94
			c0.02,1.06-0.79,1.91-1.91,2c-0.26,0.02-0.53,0.01-0.79,0.01c-13.45,0-26.91,0-40.36,0c-0.33,0-0.66,0.02-0.99-0.03
			c-1-0.16-1.71-1.03-1.68-2.02c0.03-0.95,0.75-1.75,1.72-1.88c0.32-0.05,0.66-0.03,0.99-0.03
			C62.95,101.47,69.68,101.47,76.41,101.47z"/>
		<path class="st102" d="M72.51,112.56c5.41,0,10.82,0,16.23,0c0.3,0,0.6-0.02,0.89,0.02c1.06,0.11,1.85,0.96,1.83,1.98
			c-0.01,1.02-0.8,1.85-1.87,1.95c-0.23,0.02-0.46,0.01-0.69,0.01c-10.95,0-21.91,0-32.86,0c-0.26,0-0.53,0.01-0.79-0.02
			c-1.01-0.14-1.74-0.99-1.73-1.98c0.01-0.99,0.75-1.82,1.77-1.94c0.33-0.04,0.66-0.02,0.99-0.02
			C61.69,112.56,67.1,112.56,72.51,112.56z"/>
		<path class="st102" d="M69.94,94.34c-4.58,0-9.16,0-13.75,0c-0.33,0-0.66,0.02-0.99-0.03c-1-0.16-1.72-1.03-1.68-2.01
			c0.03-0.95,0.75-1.74,1.71-1.89c0.13-0.02,0.26-0.02,0.39-0.02c9.56,0,19.12-0.01,28.68,0.01c1.21,0,2.06,0.84,2.08,1.94
			c0.02,1.13-0.85,2-2.11,2.01C79.5,94.35,74.72,94.34,69.94,94.34z"/>
		<path class="st102" d="M97.33,116.51c-1.06,0.02-1.97-0.85-2.01-1.91c-0.04-1.06,0.82-1.99,1.88-2.04
			c1.1-0.05,2.05,0.86,2.06,1.96C99.27,115.59,98.39,116.49,97.33,116.51z"/>
		<path class="st105" d="M129.57,97.99c-1.61-1.63-3.05-3.03-4.41-4.49c-0.84-0.9-1.74-1.13-2.93-0.78
			c-4.45,1.31-9.03,1.18-13.56,0.84c-11.3-0.85-20.14-8.65-22.54-19.68c-2.95-13.52,6.36-27.35,20.05-29.43
			c5.82-0.88,11.75-1.11,17.42,0.98c8.88,3.26,14.49,9.61,16.2,18.9c1.76,9.54-1.35,17.56-8.8,23.82c-1.01,0.85-1.5,1.71-1.45,3.03
			C129.64,93.35,129.57,95.52,129.57,97.99z M111.53,72.61C111.53,72.61,111.53,72.61,111.53,72.61c-0.01,0.73-0.01,1.45-0.01,2.18
			c0.02,1.36,0.79,2.26,1.94,2.28c1.15,0.02,1.99-0.89,2.01-2.23c0.02-1.12,0.06-2.25-0.01-3.36c-0.06-0.77,0.24-1.06,0.94-1.31
			c3.33-1.19,5.46-4.29,5.46-7.83c0-3.55-2.2-6.69-5.54-7.89c-3.29-1.19-6.97-0.21-9.23,2.49c-1.27,1.52-1.93,3.28-1.96,5.27
			c-0.01,1.17,0.73,2,1.82,2.07c1.12,0.07,1.91-0.61,2.09-1.78c0.04-0.26,0.06-0.52,0.1-0.79c0.31-2.16,2.11-3.76,4.27-3.8
			c2.11-0.04,3.98,1.45,4.43,3.53c0.45,2.1-0.72,4.23-2.75,5.02c-0.31,0.12-0.63,0.2-0.94,0.31c-1.6,0.55-2.54,1.79-2.6,3.47
			C111.51,71.02,111.53,71.82,111.53,72.61z M113.48,84.87c1.09,0,1.97-0.84,2-1.91c0.03-1.07-0.94-2.04-2.02-2.02
			c-1.06,0.02-1.93,0.92-1.92,1.99C111.54,84.02,112.38,84.86,113.48,84.87z"/>
		<path class="st103" d="M111.53,72.61c0-0.79-0.02-1.58,0-2.37c0.05-1.68,1-2.92,2.6-3.47c0.31-0.11,0.63-0.19,0.94-0.31
			c2.04-0.78,3.2-2.92,2.75-5.02c-0.45-2.08-2.31-3.57-4.43-3.53c-2.16,0.04-3.96,1.65-4.27,3.8c-0.04,0.26-0.06,0.52-0.1,0.79
			c-0.18,1.17-0.98,1.85-2.09,1.78c-1.08-0.07-1.83-0.9-1.82-2.07c0.03-1.98,0.69-3.75,1.96-5.27c2.26-2.7,5.94-3.68,9.23-2.49
			c3.34,1.21,5.54,4.34,5.54,7.89c0,3.54-2.12,6.64-5.46,7.83c-0.69,0.25-0.99,0.53-0.94,1.31c0.08,1.12,0.04,2.24,0.01,3.36
			c-0.03,1.34-0.86,2.25-2.01,2.23c-1.15-0.02-1.92-0.91-1.94-2.28C111.52,74.06,111.53,73.33,111.53,72.61
			C111.53,72.61,111.53,72.61,111.53,72.61z"/>
		<path class="st103" d="M113.48,84.87c-1.1,0-1.94-0.84-1.94-1.94c-0.01-1.07,0.86-1.97,1.92-1.99c1.08-0.02,2.04,0.94,2.02,2.02
			C115.45,84.03,114.57,84.87,113.48,84.87z"/>
	</g>
</g>
</svg>
