<svg width="145" height="149" viewBox="0 0 145 149" fill="none" xmlns="http://www.w3.org/2000/svg">
<g opacity="0.75">
<path opacity="0.75" d="M139.84 1.25H1.06V143.73H139.84V1.25Z" fill="#004543" stroke="#004543" stroke-width="2" stroke-miterlimit="10"/>
</g>
<path d="M143.84 5.25H5.06V147.73H143.84V5.25Z" fill="white" stroke="#388D99" stroke-width="2" stroke-miterlimit="10"/>
<path d="M23.74 72.58C23.91 71.88 24.05 71.17 24.25 70.48C25.94 64.46 31.32 60.3401 37.57 60.3101C44.07 60.2801 50.57 60.3001 57.07 60.3001C58.66 60.3001 59.6 61.0601 59.58 62.3101C59.56 63.5301 58.65 64.2601 57.11 64.2601C50.77 64.2601 44.44 64.2601 38.1 64.2601C31.95 64.2701 27.71 68.5001 27.7 74.6401C27.69 84.5101 27.69 94.37 27.7 104.24C27.7 110.31 31.97 114.56 38.05 114.57C41.98 114.58 45.9 114.59 49.83 114.56C50.91 114.55 51.63 114.92 52.36 115.76C53.74 117.35 55.31 118.77 57.01 120.47C57.01 119.19 57.01 118.14 57.01 117.08C57.02 115.26 57.7 114.58 59.53 114.58C66.3 114.58 73.06 114.58 79.83 114.58C86.05 114.58 90.28 110.36 90.29 104.16C90.3 99.8701 90.28 95.5801 90.3 91.2901C90.31 89.5801 91.74 88.55 93.12 89.24C93.87 89.61 94.25 90.24 94.25 91.07C94.25 95.89 94.38 100.71 94.2 105.52C93.94 112.61 87.84 118.44 80.73 118.51C74.59 118.57 68.45 118.53 62.32 118.53C61.93 118.53 61.53 118.53 60.98 118.53C60.98 119.41 60.98 120.25 60.98 121.09C60.98 122.25 60.92 123.4 61 124.55C61.08 125.77 60.67 126.66 59.6 127.24C59.2 127.24 58.81 127.24 58.41 127.24C57.89 126.8 57.34 126.38 56.85 125.9C54.58 123.65 52.34 121.37 50.05 119.15C49.7 118.81 49.1 118.56 48.61 118.55C44.89 118.5 41.17 118.55 37.44 118.51C31.35 118.46 26.02 114.39 24.31 108.53C24.09 107.78 23.93 107 23.74 106.24C23.74 95.03 23.74 83.81 23.74 72.58Z" fill="#00423C"/>
<path d="M23.74 106.26C23.93 107.02 24.09 107.79 24.31 108.55C26.02 114.41 31.35 118.48 37.44 118.53C41.16 118.56 44.89 118.52 48.61 118.57C49.1 118.58 49.7 118.83 50.05 119.17C52.35 121.39 54.58 123.68 56.85 125.92C57.34 126.4 57.89 126.81 58.41 127.26C46.86 127.26 35.3 127.26 23.75 127.26C23.74 120.25 23.74 113.25 23.74 106.26Z" fill="white"/>
<path d="M93.83 25.75C99.17 25.6 104.28 26.4299 109.1 28.8199C119.4 33.9099 125.82 44.83 125.1 56.26C124.59 64.35 121.22 71.0999 115.11 76.4399C114.61 76.8799 114.44 77.32 114.44 77.96C114.47 81.29 114.44 84.63 114.46 87.96C114.47 89 114.25 89.8901 113.2 90.3101C112.16 90.7201 111.38 90.23 110.65 89.5C108.66 87.48 106.6 85.52 104.65 83.46C103.96 82.73 103.34 82.61 102.35 82.76C95.41 83.82 88.43 84.25 81.73 81.72C70.59 77.51 64.04 69.36 62.75 57.5C61.2 43.26 70.26 30.4901 84.09 26.8101C85.23 26.5101 86.4 26.24 87.58 26.13C89.68 25.91 91.76 25.86 93.83 25.75ZM110.5 83.76C110.5 81.28 110.56 79.12 110.48 76.96C110.43 75.64 110.92 74.7701 111.93 73.9301C119.37 67.6701 122.48 59.65 120.73 50.11C119.02 40.82 113.41 34.47 104.53 31.21C98.86 29.13 92.93 29.35 87.11 30.23C73.42 32.31 64.11 46.14 67.06 59.66C69.47 70.68 78.3 78.49 89.6 79.34C94.13 79.68 98.71 79.82 103.16 78.5C104.35 78.15 105.25 78.37 106.09 79.28C107.45 80.74 108.88 82.13 110.5 83.76Z" fill="#00423C"/>
<path d="M57.33 87.24C64.02 87.24 70.72 87.24 77.41 87.24C77.71 87.24 78.01 87.23 78.3 87.25C79.38 87.34 80.16 88.16 80.18 89.19C80.2 90.25 79.39 91.1 78.27 91.19C78.01 91.21 77.74 91.2 77.48 91.2C64.03 91.2 50.57 91.2 37.12 91.2C36.79 91.2 36.46 91.2201 36.13 91.1701C35.13 91.0101 34.42 90.1401 34.45 89.1501C34.48 88.2001 35.2 87.4001 36.17 87.2701C36.49 87.2201 36.83 87.24 37.16 87.24C43.88 87.24 50.6 87.24 57.33 87.24Z" fill="#92C3CD"/>
<path d="M53.44 98.3299C58.85 98.3299 64.26 98.3299 69.67 98.3299C69.97 98.3299 70.27 98.31 70.56 98.35C71.62 98.46 72.41 99.3099 72.39 100.33C72.38 101.35 71.59 102.18 70.52 102.28C70.29 102.3 70.06 102.29 69.83 102.29C58.88 102.29 47.92 102.29 36.97 102.29C36.71 102.29 36.44 102.3 36.18 102.27C35.17 102.13 34.44 101.28 34.45 100.29C34.46 99.3 35.2 98.47 36.22 98.35C36.55 98.31 36.88 98.3299 37.21 98.3299C42.61 98.3299 48.03 98.3299 53.44 98.3299Z" fill="#92C3CD"/>
<path d="M50.86 80.11C46.28 80.11 41.7 80.11 37.11 80.11C36.78 80.11 36.45 80.13 36.12 80.08C35.12 79.92 34.4 79.05 34.44 78.07C34.47 77.12 35.19 76.3301 36.15 76.1801C36.28 76.1601 36.41 76.1601 36.54 76.1601C46.1 76.1601 55.66 76.1501 65.22 76.1701C66.43 76.1701 67.28 77.01 67.3 78.11C67.32 79.24 66.45 80.11 65.19 80.12C60.42 80.12 55.64 80.11 50.86 80.11Z" fill="#92C3CD"/>
<path d="M78.25 102.29C77.19 102.31 76.28 101.44 76.24 100.38C76.2 99.32 77.06 98.39 78.12 98.34C79.22 98.29 80.17 99.2001 80.18 100.3C80.19 101.36 79.31 102.26 78.25 102.29Z" fill="#92C3CD"/>
<path d="M110.5 83.76C108.89 82.13 107.45 80.73 106.09 79.27C105.25 78.37 104.35 78.14 103.16 78.49C98.71 79.8 94.13 79.6699 89.6 79.3299C78.3 78.4799 69.46 70.68 67.06 59.65C64.11 46.13 73.42 32.3 87.11 30.22C92.93 29.34 98.86 29.1099 104.53 31.1999C113.41 34.4599 119.02 40.81 120.73 50.1C122.49 59.64 119.38 67.66 111.93 73.92C110.92 74.77 110.43 75.6299 110.48 76.9499C110.56 79.1199 110.5 81.29 110.5 83.76ZM92.45 58.38C92.44 59.11 92.44 59.83 92.44 60.56C92.46 61.92 93.23 62.82 94.38 62.84C95.53 62.86 96.37 61.95 96.39 60.61C96.41 59.49 96.45 58.36 96.38 57.25C96.32 56.48 96.62 56.1899 97.32 55.9399C100.65 54.7499 102.78 51.65 102.78 48.11C102.78 44.56 100.58 41.42 97.24 40.22C93.95 39.03 90.27 40.01 88.01 42.71C86.74 44.23 86.08 45.99 86.05 47.98C86.04 49.15 86.78 49.98 87.87 50.05C88.99 50.12 89.78 49.44 89.96 48.27C90 48.01 90.02 47.75 90.06 47.48C90.37 45.32 92.17 43.72 94.33 43.68C96.44 43.64 98.31 45.13 98.76 47.21C99.21 49.31 98.04 51.44 96.01 52.23C95.7 52.35 95.38 52.43 95.07 52.54C93.47 53.09 92.53 54.33 92.47 56.01C92.43 56.8 92.45 57.59 92.45 58.38ZM94.4 70.64C95.49 70.64 96.37 69.8 96.4 68.73C96.43 67.66 95.46 66.6899 94.38 66.7099C93.32 66.7299 92.45 67.6299 92.46 68.6999C92.46 69.7899 93.3 70.63 94.4 70.64Z" fill="#CEE4EA"/>
<path d="M92.45 58.38C92.45 57.59 92.43 56.8 92.45 56.01C92.5 54.33 93.45 53.09 95.05 52.54C95.36 52.43 95.68 52.35 95.99 52.23C98.03 51.45 99.19 49.3099 98.74 47.2099C98.29 45.1299 96.43 43.64 94.31 43.68C92.15 43.72 90.35 45.33 90.04 47.48C90 47.74 89.98 48 89.94 48.27C89.76 49.44 88.96 50.12 87.85 50.05C86.77 49.98 86.02 49.15 86.03 47.98C86.06 46 86.72 44.2299 87.99 42.7099C90.25 40.0099 93.93 39.03 97.22 40.22C100.56 41.43 102.76 44.56 102.76 48.11C102.76 51.65 100.64 54.7499 97.3 55.9399C96.61 56.1899 96.31 56.47 96.36 57.25C96.44 58.37 96.4 59.49 96.37 60.61C96.34 61.95 95.51 62.86 94.36 62.84C93.21 62.82 92.44 61.93 92.42 60.56C92.44 59.83 92.45 59.1 92.45 58.38Z" fill="#388D99"/>
<path d="M94.4 70.64C93.3 70.64 92.46 69.7999 92.46 68.6999C92.45 67.6299 93.32 66.7299 94.38 66.7099C95.46 66.6899 96.42 67.6499 96.4 68.7299C96.37 69.7999 95.49 70.64 94.4 70.64Z" fill="#388D99"/>
</svg>
