<svg width="222" height="272" viewBox="0 0 222 272" fill="none" xmlns="http://www.w3.org/2000/svg">
<path d="M221.27 0.629883H0.630005V271.05H221.27V0.629883Z" fill="url(#paint0_linear)"/>
<path d="M220.76 5.63989H5.54999V270.55H220.76V5.63989Z" fill="white"/>
<path d="M220.26 6.13989V270.05H6.04999V6.13989H220.26ZM221.26 5.13989H5.04999V271.05H221.26V5.13989Z" fill="#388D99"/>
<path d="M221.26 224.98H5.04999V271.05H221.26V224.98Z" fill="#92C3CD"/>
<path d="M221.26 271.05V237.07L187.66 271.05H221.26Z" fill="#004947"/>
<path d="M53.26 237.95C56.44 237.95 58.66 238.61 60.18 240.04C61.39 241.18 62.3 242.86 62.3 245.24C62.3 248.02 61.15 250.19 59.3 251.58C57.51 252.93 55.21 253.55 52.4 253.55H46.14V252.74C48.05 252.58 48.22 252.38 48.22 250.4V241.12C48.22 239.09 47.95 238.93 46.14 238.77V237.96H53.26V237.95ZM51.12 250.22C51.12 251.96 51.67 252.51 53.44 252.51C57.06 252.51 59.05 250.01 59.05 245.59C59.05 243.19 58.33 241.2 56.95 240.13C55.91 239.23 54.61 238.92 53 238.92C52.04 238.92 51.58 239.1 51.4 239.26C51.18 239.45 51.12 239.81 51.12 240.59V250.22Z" fill="white"/>
<path d="M64.35 253.56V252.75C66.22 252.57 66.43 252.44 66.43 250.41V241.13C66.43 239.1 66.21 238.94 64.35 238.77V237.96H71.42V238.77C69.55 238.95 69.33 239.1 69.33 241.13V250.41C69.33 252.43 69.54 252.55 71.42 252.75V253.56H64.35Z" fill="white"/>
<path d="M82.17 241.81C81.72 240.26 81.04 238.57 78.82 238.57C77.26 238.57 76.44 239.69 76.44 241C76.44 242.44 77.39 243.25 79.46 244.29C82.14 245.64 83.63 246.83 83.63 249.18C83.63 251.9 81.34 253.92 78.02 253.92C76.52 253.92 75.19 253.51 74.11 253.16C73.95 252.57 73.58 250.37 73.42 249.18L74.29 248.97C74.77 250.52 76.01 252.95 78.42 252.95C79.98 252.95 80.92 251.94 80.92 250.39C80.92 248.84 80.01 248.05 77.96 246.94C75.46 245.59 73.9 244.4 73.9 242C73.9 239.61 75.8 237.61 79.25 237.61C80.8 237.61 82.07 237.97 82.59 238.05C82.69 238.93 82.83 240.08 83.02 241.61L82.17 241.81Z" fill="white"/>
<path d="M100.36 249.53C100.02 250.71 99.4 252.5 99.02 253.31C98.37 253.45 96.44 253.92 94.61 253.92C88.4 253.92 85.65 249.88 85.65 245.93C85.65 240.99 89.42 237.62 95.04 237.62C97.12 237.62 98.91 238.1 99.58 238.19C99.69 239.3 99.86 240.96 100.04 242.07L99.16 242.24C98.66 240.46 97.99 239.54 96.74 239.03C96.15 238.77 95.24 238.65 94.5 238.65C90.85 238.65 88.98 241.56 88.98 245.4C88.98 249.88 91.29 252.85 94.79 252.85C96.96 252.85 98.25 251.77 99.52 249.21L100.36 249.53Z" fill="white"/>
<path d="M102.29 253.56V252.75C104.16 252.57 104.37 252.44 104.37 250.41V241.13C104.37 239.1 104.15 238.94 102.29 238.77V237.96H109.36V238.77C107.49 238.95 107.27 239.1 107.27 241.13V250.41C107.27 252.43 107.48 252.55 109.36 252.75V253.56H102.29Z" fill="white"/>
<path d="M117.96 237.95C119.79 237.95 121.2 238.28 122.19 238.95C123.3 239.71 123.96 240.85 123.96 242.48C123.96 245.97 120.99 247.42 118.52 247.43C118.27 247.43 117.98 247.41 117.83 247.38L116.35 247V250.43C116.35 252.45 116.52 252.52 118.65 252.73V253.54H111.37V252.73C113.26 252.51 113.45 252.42 113.45 250.41V241.12C113.45 239.06 113.2 238.91 111.37 238.76V237.95H117.96ZM116.35 246.06C116.64 246.2 117.18 246.32 117.79 246.32C119.07 246.32 120.94 245.61 120.94 242.5C120.94 239.83 119.38 238.88 117.66 238.88C117.09 238.88 116.72 239 116.58 239.14C116.4 239.29 116.35 239.55 116.35 240.01V246.06Z" fill="white"/>
<path d="M138.25 249.42C138.08 250.35 137.39 252.88 137.16 253.56H125.52V252.75C127.66 252.58 127.85 252.43 127.85 250.41V241.13C127.85 239.11 127.61 238.94 125.77 238.78V237.97H132.89V238.78C131 238.96 130.75 239.1 130.75 241.13V250.6C130.75 251.97 130.85 252.48 132.19 252.5C132.23 252.52 133.55 252.52 133.66 252.52C134.98 252.52 135.34 252.28 135.91 251.65C136.42 251.12 137 250.11 137.41 249.16L138.25 249.42Z" fill="white"/>
<path d="M139.68 253.56V252.75C141.56 252.57 141.76 252.44 141.76 250.41V241.13C141.76 239.1 141.54 238.94 139.68 238.77V237.96H146.75V238.77C144.88 238.95 144.66 239.1 144.66 241.13V250.41C144.66 252.43 144.87 252.55 146.75 252.75V253.56H139.68Z" fill="white"/>
<path d="M165.43 238.77C163.94 238.95 163.47 239.24 163.4 240.33C163.35 241.21 163.28 242.09 163.28 244.23V253.81H162.09L151.99 241.62V247.25C151.99 249.36 152.05 250.35 152.11 251.05C152.19 252.17 152.73 252.65 154.49 252.76V253.57H148.58V252.76C149.99 252.64 150.58 252.28 150.71 251.14C150.8 250.31 150.85 249.37 150.85 247.25V241.41C150.85 240.66 150.8 240.18 150.35 239.59C149.91 238.99 149.36 238.89 148.29 238.79V237.98H152.59L162.1 249.12V244.25C162.1 242.11 162.07 241.24 162 240.41C161.93 239.36 161.49 238.92 159.52 238.8V237.99H165.45V238.77H165.43Z" fill="white"/>
<path d="M179.78 249.57C179.65 250.21 178.99 252.87 178.76 253.56H166.58V252.76C168.78 252.56 168.93 252.41 168.93 250.41V241.13C168.93 239.06 168.65 238.92 166.96 238.77V237.96H174.6C177.03 237.96 177.9 237.94 178.22 237.91C178.24 238.4 178.36 240.31 178.45 241.72L177.59 241.84C177.37 241.02 177.02 240.21 176.67 239.75C176.25 239.16 175.86 239.01 174.56 239.01H172.75C171.9 239.01 171.82 239.07 171.82 239.84V244.96H174.28C175.78 244.96 175.98 244.6 176.32 242.92H177.19V248.13H176.32C175.96 246.37 175.77 246.1 174.26 246.1H171.82V250.46C171.82 252.12 172.04 252.5 173.42 252.53H175.31C176.7 252.53 177.01 252.35 177.54 251.71C178.09 251.08 178.58 250.16 178.95 249.38L179.78 249.57Z" fill="white"/>
<path d="M60.52 39.52C60.4 40.07 59.83 42.2799 59.62 42.8999H49.3V42.28C51.25 42.13 51.39 41.95 51.39 40.22V31.98C51.39 30.13 51.15 30.0201 49.61 29.8701V29.25H56.11C58.13 29.25 58.93 29.23 59.19 29.21C59.21 29.71 59.3 31.31 59.38 32.46L58.7199 32.5701C58.5299 31.8601 58.2999 31.3399 58.0399 30.9099C57.6999 30.2699 57.25 30.1201 56.03 30.1201H54.15C53.47 30.1201 53.42 30.1801 53.42 30.8101V35.3999H55.7C57.2 35.3999 57.33 35.0799 57.59 33.6499H58.27V38.04H57.59C57.31 36.52 57.14 36.3 55.68 36.3H53.42V40.3799C53.42 41.8499 53.81 42.03 54.9 42.05H56.77C58.03 42.05 58.2599 41.8701 58.7199 41.3201C59.1399 40.8501 59.58 40.0001 59.88 39.3601L60.52 39.52Z" fill="#388D99"/>
<path d="M67.7299 42.8999V42.29C68.8899 42.16 69 42.0301 69 40.6001V37.1101C69 35.6401 68.44 34.74 67.17 34.74C66.37 34.74 65.61 35.19 64.9799 35.75V40.6899C64.9799 42.1099 65.1 42.16 66.27 42.28V42.8899H61.67V42.28C63 42.13 63.13 42.0499 63.13 40.6699V36.3401C63.13 34.9901 62.98 34.93 61.88 34.74V34.1699C62.94 34.0099 64.0499 33.7301 64.9799 33.3401C64.9799 33.7901 64.9699 34.47 64.9699 34.97C65.3899 34.68 65.85 34.36 66.38 34.02C66.98 33.64 67.4999 33.3999 68.0999 33.3999C69.7799 33.3999 70.84 34.6399 70.84 36.6899V40.6799C70.84 42.0799 70.97 42.15 72.15 42.28V42.8899H67.7299V42.8999Z" fill="#388D99"/>
<path d="M78.93 36.21C78.52 34.95 77.9499 34.1399 76.7199 34.1399C76.0099 34.1399 75.45 34.65 75.45 35.46C75.45 36.33 76.04 36.75 77.2 37.28C78.99 38.12 79.94 38.77 79.94 40.2C79.94 42.16 78.13 43.1599 76.45 43.1599C75.36 43.1599 74.36 42.8101 73.92 42.5601C73.82 41.9701 73.63 40.7701 73.55 40.0701L74.17 39.96C74.56 41.3 75.32 42.4199 76.77 42.4199C77.57 42.4199 78.19 41.89 78.19 41.05C78.19 40.16 77.67 39.6701 76.52 39.1101C75.07 38.4001 73.84 37.7199 73.84 36.1699C73.84 34.6099 75.15 33.4199 77.17 33.4199C78.07 33.4199 78.8 33.63 79.2299 33.7C79.2899 34.22 79.45 35.5401 79.55 36.0601L78.93 36.21Z" fill="#388D99"/>
<path d="M91.53 42.4199C90.48 42.5699 89.3 42.8399 88.18 43.1599C88.18 42.7999 88.18 42.0901 88.18 41.5801C87.1 42.4801 86.18 43.1599 85.02 43.1599C83.55 43.1599 82.37 42.25 82.37 40.04V35.9199C82.37 34.8199 82.21 34.6901 81.68 34.5801L81.12 34.47V33.8999C82.05 33.8599 83.4899 33.66 84.2899 33.53C84.2299 34.24 84.2299 35.2601 84.2299 36.6101V39.5C84.2299 41.26 85.15 41.77 86.05 41.77C86.79 41.77 87.51 41.4701 88.18 40.8301V35.9099C88.18 34.8099 87.95 34.66 87.26 34.55L86.5999 34.46V33.8899C87.9199 33.8299 89.45 33.61 90.03 33.52V40.52C90.03 41.58 90.1899 41.74 90.9699 41.79L91.5399 41.8101V42.4199H91.53Z" fill="#388D99"/>
<path d="M97.53 42.8999H92.57V42.29C93.85 42.16 93.9799 42.06 93.9799 40.71V36.3C93.9799 34.97 93.8999 34.9 92.7199 34.75V34.2C93.7999 34.04 94.78 33.7801 95.83 33.3501C95.83 34.0401 95.83 34.9599 95.83 35.6499C96.6 34.4899 97.4599 33.4099 98.4799 33.4099C99.2599 33.4099 99.7199 33.9 99.7199 34.46C99.7199 35.04 99.31 35.53 98.94 35.73C98.72 35.86 98.54 35.8199 98.38 35.6799C98.06 35.3699 97.8 35.1399 97.43 35.1399C97.01 35.1399 96.28 35.72 95.83 36.74V40.7C95.83 42.06 95.94 42.16 97.53 42.29V42.8999Z" fill="#388D99"/>
<path d="M108.32 41.0701C106.99 42.7901 105.48 43.1599 104.77 43.1599C102.16 43.1599 100.6 41.0599 100.6 38.6299C100.6 37.1899 101.14 35.8499 102 34.9399C102.89 33.9599 104.05 33.4199 105.16 33.4199C107.03 33.4199 108.42 35.02 108.42 36.71C108.4 37.12 108.35 37.3399 108.03 37.4199C107.61 37.5099 104.88 37.69 102.46 37.77C102.42 40.48 104.06 41.6299 105.55 41.6299C106.4 41.6299 107.21 41.2901 107.98 40.5801L108.32 41.0701ZM104.67 34.22C103.73 34.22 102.82 35.1401 102.56 36.8301C103.68 36.8301 104.79 36.82 105.96 36.77C106.32 36.77 106.45 36.6701 106.45 36.3501C106.47 35.2501 105.78 34.22 104.67 34.22Z" fill="#388D99"/>
<path d="M118.69 42.8899C118.33 43.0799 118 43.1599 117.8 43.1599C116.41 43.1599 115.65 42.3499 115.65 40.6299V34.5601H114.22L114.13 34.3101L114.7 33.6699H115.65V31.9099C116.11 31.4799 116.79 30.91 117.25 30.47L117.56 30.53C117.52 31.36 117.5 32.5499 117.5 33.6599H119.84C120.03 33.8699 119.96 34.37 119.71 34.55H117.5V39.8799C117.5 41.5699 118.17 41.8601 118.69 41.8601C119.17 41.8601 119.61 41.69 119.92 41.55L120.11 42.1299L118.69 42.8899Z" fill="#388D99"/>
<path d="M126.78 42.8999V42.29C127.95 42.16 128.09 42.05 128.09 40.71V37.22C128.09 35.5 127.42 34.68 126.12 34.7C125.37 34.7 124.59 35.05 124.02 35.7V40.71C124.02 42.03 124.18 42.16 125.38 42.29V42.8999H120.73V42.29C121.91 42.18 122.17 42.0799 122.17 40.6899V30.6399C122.17 29.5499 122.1 29.2899 120.73 29.1499V28.5801C121.92 28.4701 123.22 28.1601 124.02 27.8701C124.02 28.6801 124.02 29.5899 124.02 30.4399V34.9199C124.77 34.1699 125.9 33.4199 127.03 33.4199C128.77 33.4199 129.95 34.51 129.95 37V40.72C129.95 42.1 130.11 42.18 131.29 42.3V42.9099H126.78V42.8999Z" fill="#388D99"/>
<path d="M139.26 43.1599C138.9 43.1599 138.44 42.99 138.22 42.75C137.94 42.48 137.81 42.1901 137.71 41.8301C136.88 42.3901 135.85 43.1499 135.24 43.1499C133.69 43.1499 132.63 41.88 132.63 40.54C132.63 39.5 133.19 38.85 134.33 38.45C135.6 38.01 137.19 37.4701 137.66 37.0801V36.5701C137.66 35.1501 136.97 34.3401 135.91 34.3401C135.45 34.3401 135.16 34.5601 134.95 34.8101C134.72 35.1101 134.58 35.5699 134.39 36.1799C134.28 36.5599 134.06 36.7 133.73 36.7C133.3 36.7 132.75 36.27 132.75 35.75C132.75 35.44 133.02 35.1899 133.45 34.8799C134.12 34.4099 135.34 33.6599 136.53 33.4099C137.2 33.4099 137.86 33.6 138.36 33.98C139.13 34.61 139.45 35.3499 139.45 36.4399V40.4199C139.45 41.3899 139.8 41.6799 140.17 41.6799C140.41 41.6799 140.68 41.58 140.91 41.46L141.12 42.0701L139.26 43.1599ZM137.66 37.8501C137.21 38.0801 136.32 38.4799 135.85 38.6899C135.08 39.0399 134.61 39.44 134.61 40.2C134.61 41.32 135.45 41.8101 136.08 41.8101C136.58 41.8101 137.25 41.5299 137.66 41.1299C137.66 40.1499 137.66 38.8301 137.66 37.8501Z" fill="#388D99"/>
<path d="M146.18 42.8899C145.82 43.0799 145.49 43.1599 145.29 43.1599C143.9 43.1599 143.14 42.3499 143.14 40.6299V34.5601H141.71L141.62 34.3101L142.19 33.6699H143.14V31.9099C143.6 31.4799 144.28 30.91 144.74 30.47L145.05 30.53C145.01 31.36 144.99 32.5499 144.99 33.6599H147.33C147.52 33.8699 147.45 34.37 147.2 34.55H144.99V39.8799C144.99 41.5699 145.66 41.8601 146.18 41.8601C146.66 41.8601 147.1 41.69 147.41 41.55L147.6 42.1299L146.18 42.8899Z" fill="#388D99"/>
<path d="M160.13 43.1599C159.77 43.1599 159.31 42.99 159.09 42.75C158.81 42.48 158.68 42.1901 158.58 41.8301C157.75 42.3901 156.72 43.1499 156.11 43.1499C154.56 43.1499 153.5 41.88 153.5 40.54C153.5 39.5 154.06 38.85 155.2 38.45C156.47 38.01 158.06 37.4701 158.53 37.0801V36.5701C158.53 35.1501 157.84 34.3401 156.78 34.3401C156.32 34.3401 156.03 34.5601 155.82 34.8101C155.59 35.1101 155.45 35.5699 155.26 36.1799C155.15 36.5599 154.93 36.7 154.6 36.7C154.17 36.7 153.62 36.27 153.62 35.75C153.62 35.44 153.89 35.1899 154.32 34.8799C154.99 34.4099 156.21 33.6599 157.4 33.4099C158.07 33.4099 158.73 33.6 159.23 33.98C160 34.61 160.32 35.3499 160.32 36.4399V40.4199C160.32 41.3899 160.67 41.6799 161.04 41.6799C161.28 41.6799 161.55 41.58 161.78 41.46L161.99 42.0701L160.13 43.1599ZM158.53 37.8501C158.08 38.0801 157.19 38.4799 156.72 38.6899C155.95 39.0399 155.48 39.44 155.48 40.2C155.48 41.32 156.32 41.8101 156.95 41.8101C157.45 41.8101 158.12 41.5299 158.53 41.1299C158.53 40.1499 158.53 38.8301 158.53 37.8501Z" fill="#388D99"/>
<path d="M162.56 42.8999V42.29C163.88 42.15 164.02 42.0499 164.02 40.6699V30.7C164.02 29.45 163.91 29.3299 162.61 29.1499V28.5801C163.8 28.4501 165.13 28.1301 165.86 27.8701C165.86 28.8501 165.86 29.8501 165.86 30.8301V40.6699C165.86 42.0599 165.97 42.16 167.31 42.29V42.8999H162.56Z" fill="#388D99"/>
<path d="M168.12 42.8999V42.29C169.44 42.15 169.58 42.0499 169.58 40.6699V30.7C169.58 29.45 169.47 29.3299 168.17 29.1499V28.5801C169.36 28.4501 170.69 28.1301 171.42 27.8701C171.42 28.8501 171.42 29.8501 171.42 30.8301V40.6699C171.42 42.0599 171.54 42.16 172.87 42.29V42.8999H168.12Z" fill="#388D99"/>
<path d="M61 59.6599C61.4 59.4899 61.74 59.4199 62.03 59.4199C64.33 59.4199 66.19 61.4001 66.19 63.8701C66.19 66.7301 63.75 69.1799 60.94 69.1599C59.98 69.1599 58.82 68.9499 57.62 68.3999C57.62 67.8599 57.62 67.29 57.62 66.73V56.6799C57.62 55.3999 57.55 55.2599 56.2299 55.1599V54.5801C57.2399 54.4601 58.6199 54.1501 59.4699 53.8701C59.4699 54.6701 59.4699 55.5001 59.4699 56.3201V60.3201L61 59.6599ZM59.4699 66.49C59.4699 66.82 59.5 67.02 59.58 67.22C59.81 67.71 60.59 68.3201 61.55 68.3201C63.23 68.3201 64.12 66.8199 64.12 64.4099C64.12 61.9599 62.6899 60.6201 61.0399 60.6201C60.4599 60.6201 59.8599 60.79 59.4699 60.97V66.49Z" fill="#388D99"/>
<path d="M77.88 68.4199C76.83 68.5699 75.65 68.8399 74.53 69.1599C74.53 68.7999 74.53 68.0901 74.53 67.5801C73.45 68.4801 72.53 69.1599 71.37 69.1599C69.9 69.1599 68.7199 68.25 68.7199 66.04V61.9199C68.7199 60.8199 68.56 60.6901 68.03 60.5801L67.4699 60.47V59.8999C68.3999 59.8599 69.84 59.66 70.64 59.53C70.58 60.24 70.58 61.2601 70.58 62.6101V65.5C70.58 67.26 71.5 67.77 72.4 67.77C73.14 67.77 73.86 67.4701 74.53 66.8301V61.9099C74.53 60.8099 74.3 60.66 73.61 60.55L72.95 60.46V59.8899C74.27 59.8299 75.8 59.61 76.38 59.52V66.52C76.38 67.58 76.54 67.74 77.32 67.79L77.89 67.8101V68.4199H77.88Z" fill="#388D99"/>
<path d="M84.4799 62.21C84.07 60.95 83.5 60.1399 82.27 60.1399C81.56 60.1399 81 60.65 81 61.46C81 62.33 81.59 62.75 82.75 63.28C84.54 64.12 85.4799 64.77 85.4799 66.2C85.4799 68.16 83.68 69.1599 81.99 69.1599C80.9 69.1599 79.9 68.8101 79.46 68.5601C79.36 67.9701 79.17 66.7701 79.09 66.0701L79.71 65.96C80.1 67.3 80.86 68.4199 82.31 68.4199C83.11 68.4199 83.7299 67.89 83.7299 67.05C83.7299 66.16 83.21 65.6701 82.06 65.1101C80.6 64.4001 79.38 63.7199 79.38 62.1699C79.38 60.6099 80.69 59.4199 82.71 59.4199C83.61 59.4199 84.34 59.63 84.77 59.7C84.83 60.22 84.99 61.5401 85.09 62.0601L84.4799 62.21Z" fill="#388D99"/>
<path d="M86.81 68.8999V68.29C88.1 68.16 88.24 68.0601 88.24 66.6201V62.3401C88.24 61.0201 88.17 60.94 86.96 60.74V60.2C88.09 60.02 89.14 59.7401 90.09 59.3701C90.09 60.2501 90.09 61.13 90.09 62.01V66.6201C90.09 68.0501 90.22 68.16 91.56 68.29V68.8999H86.81ZM89.05 57.46C88.42 57.46 87.87 56.91 87.87 56.28C87.87 55.57 88.43 55.0701 89.08 55.0701C89.71 55.0701 90.2299 55.58 90.2299 56.28C90.2199 56.91 89.7 57.46 89.05 57.46Z" fill="#388D99"/>
<path d="M98.64 68.8999V68.29C99.8 68.16 99.9099 68.0301 99.9099 66.6001V63.1101C99.9099 61.6401 99.35 60.74 98.08 60.74C97.28 60.74 96.52 61.19 95.89 61.75V66.6899C95.89 68.1099 96.01 68.16 97.18 68.28V68.8899H92.58V68.28C93.91 68.13 94.0399 68.0499 94.0399 66.6699V62.3401C94.0399 60.9901 93.8899 60.93 92.7899 60.74V60.1699C93.8499 60.0099 94.96 59.7301 95.89 59.3401C95.89 59.7901 95.88 60.47 95.88 60.97C96.3 60.68 96.7599 60.36 97.2899 60.02C97.8899 59.64 98.41 59.3999 99.01 59.3999C100.69 59.3999 101.75 60.6399 101.75 62.6899V66.6799C101.75 68.0799 101.88 68.15 103.06 68.28V68.8899H98.64V68.8999Z" fill="#388D99"/>
<path d="M112.1 67.0701C110.77 68.7901 109.26 69.1599 108.55 69.1599C105.94 69.1599 104.38 67.0599 104.38 64.6299C104.38 63.1899 104.92 61.8499 105.78 60.9399C106.67 59.9599 107.83 59.4199 108.94 59.4199C110.81 59.4199 112.2 61.02 112.2 62.71C112.18 63.12 112.13 63.3399 111.81 63.4199C111.39 63.5099 108.66 63.69 106.24 63.77C106.2 66.48 107.84 67.6299 109.33 67.6299C110.18 67.6299 110.99 67.2901 111.76 66.5801L112.1 67.0701ZM108.45 60.22C107.51 60.22 106.6 61.1401 106.34 62.8301C107.46 62.8301 108.57 62.82 109.74 62.77C110.1 62.77 110.23 62.6701 110.23 62.3501C110.25 61.2501 109.56 60.22 108.45 60.22Z" fill="#388D99"/>
<path d="M118.98 62.21C118.57 60.95 118 60.1399 116.77 60.1399C116.06 60.1399 115.5 60.65 115.5 61.46C115.5 62.33 116.09 62.75 117.25 63.28C119.04 64.12 119.99 64.77 119.99 66.2C119.99 68.16 118.18 69.1599 116.5 69.1599C115.41 69.1599 114.41 68.8101 113.97 68.5601C113.87 67.9701 113.68 66.7701 113.6 66.0701L114.22 65.96C114.61 67.3 115.37 68.4199 116.82 68.4199C117.62 68.4199 118.24 67.89 118.24 67.05C118.24 66.16 117.72 65.6701 116.57 65.1101C115.12 64.4001 113.89 63.7199 113.89 62.1699C113.89 60.6099 115.2 59.4199 117.22 59.4199C118.12 59.4199 118.85 59.63 119.28 59.7C119.34 60.22 119.5 61.5401 119.6 62.0601L118.98 62.21Z" fill="#388D99"/>
<path d="M126.9 62.21C126.49 60.95 125.92 60.1399 124.69 60.1399C123.98 60.1399 123.42 60.65 123.42 61.46C123.42 62.33 124.01 62.75 125.17 63.28C126.96 64.12 127.91 64.77 127.91 66.2C127.91 68.16 126.1 69.1599 124.42 69.1599C123.33 69.1599 122.33 68.8101 121.89 68.5601C121.79 67.9701 121.6 66.7701 121.52 66.0701L122.14 65.96C122.53 67.3 123.29 68.4199 124.74 68.4199C125.54 68.4199 126.16 67.89 126.16 67.05C126.16 66.16 125.64 65.6701 124.49 65.1101C123.04 64.4001 121.81 63.7199 121.81 62.1699C121.81 60.6099 123.12 59.4199 125.14 59.4199C126.04 59.4199 126.77 59.63 127.2 59.7C127.26 60.22 127.42 61.5401 127.52 62.0601L126.9 62.21Z" fill="#388D99"/>
<path d="M140.9 69.1599C140.54 69.1599 140.08 68.99 139.86 68.75C139.58 68.48 139.45 68.1901 139.35 67.8301C138.52 68.3901 137.49 69.1499 136.88 69.1499C135.33 69.1499 134.27 67.88 134.27 66.54C134.27 65.5 134.83 64.85 135.97 64.45C137.24 64.01 138.83 63.4701 139.3 63.0801V62.5701C139.3 61.1501 138.61 60.3401 137.55 60.3401C137.09 60.3401 136.8 60.5601 136.59 60.8101C136.36 61.1101 136.22 61.5699 136.03 62.1799C135.92 62.5599 135.7 62.7 135.37 62.7C134.94 62.7 134.39 62.27 134.39 61.75C134.39 61.44 134.66 61.1899 135.09 60.8799C135.76 60.4099 136.98 59.6599 138.17 59.4099C138.84 59.4099 139.5 59.6 140 59.98C140.77 60.61 141.09 61.3499 141.09 62.4399V66.4199C141.09 67.3899 141.44 67.6799 141.81 67.6799C142.05 67.6799 142.32 67.58 142.55 67.46L142.76 68.0701L140.9 69.1599ZM139.29 63.8501C138.84 64.0801 137.95 64.4799 137.48 64.6899C136.71 65.0399 136.24 65.44 136.24 66.2C136.24 67.32 137.08 67.8101 137.71 67.8101C138.21 67.8101 138.88 67.5299 139.29 67.1299C139.29 66.1499 139.29 64.8301 139.29 63.8501Z" fill="#388D99"/>
<path d="M149.65 68.8999V68.29C150.81 68.16 150.92 68.0301 150.92 66.6001V63.1101C150.92 61.6401 150.36 60.74 149.09 60.74C148.29 60.74 147.53 61.19 146.9 61.75V66.6899C146.9 68.1099 147.02 68.16 148.19 68.28V68.8899H143.59V68.28C144.92 68.13 145.05 68.0499 145.05 66.6699V62.3401C145.05 60.9901 144.9 60.93 143.8 60.74V60.1699C144.86 60.0099 145.97 59.7301 146.9 59.3401C146.9 59.7901 146.89 60.47 146.89 60.97C147.31 60.68 147.77 60.36 148.3 60.02C148.9 59.64 149.42 59.3999 150.02 59.3999C151.7 59.3999 152.76 60.6399 152.76 62.6899V66.6799C152.76 68.0799 152.89 68.15 154.07 68.28V68.8899H149.65V68.8999Z" fill="#388D99"/>
<path d="M165.62 68.3799C165.17 68.4599 163.53 68.7199 162.21 69.1599C162.21 68.7299 162.21 68.2601 162.21 67.8201C161.83 68.0601 161.29 68.3501 160.91 68.5901C160.13 69.0401 159.61 69.1599 159.36 69.1599C157.66 69.1599 155.38 67.51 155.38 64.53C155.38 61.62 157.94 59.4199 160.89 59.4199C161.16 59.4199 161.79 59.4501 162.21 59.6201V56.6499C162.21 55.3499 162.07 55.2899 160.61 55.1599V54.5901C161.72 54.4401 163.23 54.1499 164.06 53.8799C164.06 54.6599 164.06 55.5499 164.06 56.4199V66.4299C164.06 67.5299 164.2 67.67 164.98 67.72L165.61 67.77V68.3799H165.62ZM162.21 61.3201C161.77 60.6101 160.93 60.25 160.12 60.25C159.18 60.25 157.46 60.8799 157.46 63.9099C157.46 66.4899 159.03 67.77 160.3 67.79C160.99 67.79 161.72 67.4701 162.21 67.1101V61.3201Z" fill="#388D99"/>
<path d="M54.67 92.99C53.74 94.24 52.33 95.1599 51.07 95.1599C48.36 95.1599 46.77 92.99 46.77 90.73C46.77 89.09 47.5 87.6899 48.89 86.6299C50.05 85.7399 51.3199 85.4099 52.1599 85.4099C53.0799 85.4099 53.77 85.69 54.09 85.97C54.38 86.2 54.44 86.3601 54.44 86.6101C54.44 87.1301 53.9 87.6001 53.65 87.6001C53.54 87.6001 53.44 87.5499 53.24 87.3899C52.54 86.7699 51.83 86.47 51.11 86.47C49.83 86.47 48.65 87.58 48.65 89.78C48.63 92.68 50.64 93.6299 51.8 93.6299C52.68 93.6299 53.38 93.4 54.3 92.52L54.67 92.99Z" fill="#388D99"/>
<path d="M60.51 85.4199C63.2 85.4199 65.13 87.4599 65.13 90.1299C65.13 93.5299 62.63 95.1599 60.49 95.1599C57.54 95.1599 55.77 92.82 55.77 90.45C55.78 87.06 58.44 85.4199 60.51 85.4199ZM60.26 86.1499C59.05 86.1499 57.94 87.34 57.94 89.8C57.94 92.46 59.06 94.3999 60.71 94.3999C61.92 94.3999 62.9699 93.5301 62.9699 90.6201C62.9699 88.0701 62.01 86.1499 60.26 86.1499Z" fill="#388D99"/>
<path d="M72.61 94.8999V94.29C73.77 94.16 73.88 94.0301 73.88 92.6001V89.1101C73.88 87.6401 73.32 86.74 72.05 86.74C71.25 86.74 70.49 87.19 69.86 87.75V92.6899C69.86 94.1099 69.98 94.16 71.15 94.28V94.8899H66.55V94.28C67.88 94.13 68.01 94.0499 68.01 92.6699V88.3401C68.01 86.9901 67.86 86.93 66.76 86.74V86.1699C67.82 86.0099 68.93 85.7301 69.86 85.3401C69.86 85.7901 69.8499 86.47 69.8499 86.97C70.2699 86.68 70.73 86.36 71.26 86.02C71.86 85.64 72.38 85.3999 72.9799 85.3999C74.66 85.3999 75.7199 86.6399 75.7199 88.6899V92.6799C75.7199 94.0799 75.85 94.15 77.03 94.28V94.8899H72.61V94.8999Z" fill="#388D99"/>
<path d="M83.82 88.21C83.41 86.95 82.84 86.1399 81.61 86.1399C80.9 86.1399 80.34 86.65 80.34 87.46C80.34 88.33 80.93 88.75 82.09 89.28C83.88 90.12 84.83 90.77 84.83 92.2C84.83 94.16 83.02 95.1599 81.34 95.1599C80.25 95.1599 79.25 94.8101 78.81 94.5601C78.71 93.9701 78.52 92.7701 78.44 92.0701L79.06 91.96C79.45 93.3 80.2099 94.4199 81.6599 94.4199C82.4599 94.4199 83.08 93.89 83.08 93.05C83.08 92.16 82.5599 91.6701 81.4099 91.1101C79.9599 90.4001 78.7299 89.7199 78.7299 88.1699C78.7299 86.6099 80.04 85.4199 82.06 85.4199C82.96 85.4199 83.69 85.63 84.12 85.7C84.18 86.22 84.34 87.5401 84.44 88.0601L83.82 88.21Z" fill="#388D99"/>
<path d="M96.42 94.4199C95.37 94.5699 94.19 94.8399 93.07 95.1599C93.07 94.7999 93.07 94.0901 93.07 93.5801C91.99 94.4801 91.0699 95.1599 89.9099 95.1599C88.4399 95.1599 87.26 94.25 87.26 92.04V87.9199C87.26 86.8199 87.1 86.6901 86.57 86.5801L86.01 86.47V85.8999C86.94 85.8599 88.38 85.66 89.18 85.53C89.12 86.24 89.12 87.2601 89.12 88.6101V91.5C89.12 93.26 90.04 93.77 90.94 93.77C91.68 93.77 92.4 93.4701 93.07 92.8301V87.9099C93.07 86.8099 92.84 86.66 92.15 86.55L91.49 86.46V85.8899C92.81 85.8299 94.34 85.61 94.92 85.52V92.52C94.92 93.58 95.08 93.74 95.86 93.79L96.43 93.8101V94.4199H96.42Z" fill="#388D99"/>
<path d="M97.15 94.8999V94.29C98.47 94.15 98.61 94.0499 98.61 92.6699V82.7C98.61 81.45 98.5 81.3299 97.2 81.1499V80.5801C98.39 80.4501 99.72 80.1301 100.45 79.8701C100.45 80.8501 100.45 81.8501 100.45 82.8301V92.6699C100.45 94.0599 100.57 94.16 101.9 94.29V94.8999H97.15Z" fill="#388D99"/>
<path d="M107.21 94.8899C106.85 95.0799 106.52 95.1599 106.32 95.1599C104.93 95.1599 104.17 94.3499 104.17 92.6299V86.5601H102.74L102.65 86.3101L103.22 85.6699H104.17V83.9099C104.63 83.4799 105.31 82.91 105.77 82.47L106.08 82.53C106.04 83.36 106.02 84.5499 106.02 85.6599H108.36C108.55 85.8699 108.48 86.37 108.23 86.55H106.02V91.8799C106.02 93.5699 106.69 93.8601 107.21 93.8601C107.69 93.8601 108.13 93.69 108.44 93.55L108.63 94.1299L107.21 94.8899Z" fill="#388D99"/>
<path d="M116.32 95.1599C115.96 95.1599 115.5 94.99 115.28 94.75C115 94.48 114.87 94.1901 114.77 93.8301C113.94 94.3901 112.91 95.1499 112.3 95.1499C110.75 95.1499 109.69 93.88 109.69 92.54C109.69 91.5 110.25 90.85 111.39 90.45C112.66 90.01 114.25 89.4701 114.72 89.0801V88.5701C114.72 87.1501 114.03 86.3401 112.97 86.3401C112.51 86.3401 112.22 86.5601 112.01 86.8101C111.78 87.1101 111.64 87.5699 111.45 88.1799C111.34 88.5599 111.12 88.7 110.79 88.7C110.36 88.7 109.81 88.27 109.81 87.75C109.81 87.44 110.08 87.1899 110.51 86.8799C111.18 86.4099 112.4 85.6599 113.59 85.4099C114.26 85.4099 114.92 85.6 115.42 85.98C116.19 86.61 116.51 87.3499 116.51 88.4399V92.4199C116.51 93.3899 116.86 93.6799 117.23 93.6799C117.47 93.6799 117.74 93.58 117.97 93.46L118.18 94.0701L116.32 95.1599ZM114.71 89.8501C114.26 90.0801 113.37 90.4799 112.9 90.6899C112.13 91.0399 111.66 91.44 111.66 92.2C111.66 93.32 112.5 93.8101 113.13 93.8101C113.63 93.8101 114.3 93.5299 114.71 93.1299C114.71 92.1499 114.71 90.8301 114.71 89.8501Z" fill="#388D99"/>
<path d="M125.07 94.8999V94.29C126.23 94.16 126.34 94.0301 126.34 92.6001V89.1101C126.34 87.6401 125.78 86.74 124.51 86.74C123.71 86.74 122.95 87.19 122.32 87.75V92.6899C122.32 94.1099 122.44 94.16 123.61 94.28V94.8899H119.01V94.28C120.34 94.13 120.47 94.0499 120.47 92.6699V88.3401C120.47 86.9901 120.32 86.93 119.22 86.74V86.1699C120.28 86.0099 121.39 85.7301 122.32 85.3401C122.32 85.7901 122.31 86.47 122.31 86.97C122.73 86.68 123.19 86.36 123.72 86.02C124.32 85.64 124.84 85.3999 125.44 85.3999C127.12 85.3999 128.18 86.6399 128.18 88.6899V92.6799C128.18 94.0799 128.31 94.15 129.49 94.28V94.8899H125.07V94.8999Z" fill="#388D99"/>
<path d="M134.91 94.8899C134.55 95.0799 134.22 95.1599 134.02 95.1599C132.63 95.1599 131.87 94.3499 131.87 92.6299V86.5601H130.44L130.35 86.3101L130.92 85.6699H131.87V83.9099C132.33 83.4799 133.01 82.91 133.47 82.47L133.78 82.53C133.74 83.36 133.72 84.5499 133.72 85.6599H136.06C136.25 85.8699 136.18 86.37 135.93 86.55H133.72V91.8799C133.72 93.5699 134.39 93.8601 134.91 93.8601C135.39 93.8601 135.83 93.69 136.14 93.55L136.33 94.1299L134.91 94.8899Z" fill="#388D99"/>
<path d="M142.78 88.21C142.37 86.95 141.8 86.1399 140.57 86.1399C139.86 86.1399 139.3 86.65 139.3 87.46C139.3 88.33 139.89 88.75 141.05 89.28C142.84 90.12 143.79 90.77 143.79 92.2C143.79 94.16 141.98 95.1599 140.3 95.1599C139.21 95.1599 138.21 94.8101 137.77 94.5601C137.67 93.9701 137.48 92.7701 137.4 92.0701L138.02 91.96C138.41 93.3 139.17 94.4199 140.62 94.4199C141.42 94.4199 142.04 93.89 142.04 93.05C142.04 92.16 141.52 91.6701 140.37 91.1101C138.92 90.4001 137.69 89.7199 137.69 88.1699C137.69 86.6099 139 85.4199 141.02 85.4199C141.92 85.4199 142.65 85.63 143.08 85.7C143.14 86.22 143.3 87.5401 143.4 88.0601L142.78 88.21Z" fill="#388D99"/>
<path d="M156.78 95.1599C156.42 95.1599 155.96 94.99 155.74 94.75C155.46 94.48 155.33 94.1901 155.23 93.8301C154.4 94.3901 153.37 95.1499 152.76 95.1499C151.21 95.1499 150.15 93.88 150.15 92.54C150.15 91.5 150.71 90.85 151.85 90.45C153.12 90.01 154.71 89.4701 155.18 89.0801V88.5701C155.18 87.1501 154.49 86.3401 153.43 86.3401C152.97 86.3401 152.68 86.5601 152.47 86.8101C152.24 87.1101 152.1 87.5699 151.91 88.1799C151.8 88.5599 151.58 88.7 151.25 88.7C150.82 88.7 150.27 88.27 150.27 87.75C150.27 87.44 150.54 87.1899 150.97 86.8799C151.64 86.4099 152.86 85.6599 154.05 85.4099C154.72 85.4099 155.38 85.6 155.88 85.98C156.65 86.61 156.97 87.3499 156.97 88.4399V92.4199C156.97 93.3899 157.32 93.6799 157.69 93.6799C157.93 93.6799 158.2 93.58 158.43 93.46L158.64 94.0701L156.78 95.1599ZM155.18 89.8501C154.73 90.0801 153.84 90.4799 153.37 90.6899C152.6 91.0399 152.13 91.44 152.13 92.2C152.13 93.32 152.97 93.8101 153.6 93.8101C154.1 93.8101 154.77 93.5299 155.18 93.1299C155.18 92.1499 155.18 90.8301 155.18 89.8501Z" fill="#388D99"/>
<path d="M164.46 94.8999H159.5V94.29C160.79 94.16 160.91 94.06 160.91 92.71V88.3C160.91 86.97 160.83 86.9 159.65 86.75V86.2C160.73 86.04 161.71 85.7801 162.76 85.3501C162.76 86.0401 162.76 86.9599 162.76 87.6499C163.53 86.4899 164.39 85.4099 165.41 85.4099C166.19 85.4099 166.65 85.9 166.65 86.46C166.65 87.04 166.24 87.53 165.87 87.73C165.64 87.86 165.47 87.8199 165.3 87.6799C164.98 87.3699 164.72 87.1399 164.35 87.1399C163.93 87.1399 163.2 87.72 162.75 88.74V92.7C162.75 94.06 162.86 94.16 164.45 94.29V94.8999H164.46Z" fill="#388D99"/>
<path d="M175.25 93.0701C173.92 94.7901 172.41 95.1599 171.7 95.1599C169.09 95.1599 167.53 93.0599 167.53 90.6299C167.53 89.1899 168.07 87.8499 168.93 86.9399C169.82 85.9599 170.98 85.4199 172.08 85.4199C173.95 85.4199 175.34 87.02 175.34 88.71C175.32 89.12 175.27 89.3399 174.95 89.4199C174.53 89.5099 171.8 89.69 169.38 89.77C169.34 92.48 170.98 93.6299 172.47 93.6299C173.32 93.6299 174.12 93.2901 174.9 92.5801L175.25 93.0701ZM171.6 86.22C170.66 86.22 169.75 87.1401 169.49 88.8301C170.61 88.8301 171.72 88.82 172.89 88.77C173.25 88.77 173.38 88.6701 173.38 88.3501C173.4 87.2501 172.71 86.22 171.6 86.22Z" fill="#388D99"/>
<path d="M68.59 118.99C67.66 120.24 66.25 121.16 64.99 121.16C62.28 121.16 60.69 118.99 60.69 116.73C60.69 115.09 61.42 113.69 62.81 112.63C63.97 111.74 65.24 111.41 66.08 111.41C67 111.41 67.69 111.69 68.01 111.97C68.3 112.2 68.36 112.36 68.36 112.61C68.36 113.13 67.82 113.6 67.57 113.6C67.46 113.6 67.3599 113.55 67.1599 113.39C66.4599 112.77 65.75 112.47 65.03 112.47C63.75 112.47 62.57 113.58 62.57 115.78C62.55 118.68 64.5599 119.63 65.7199 119.63C66.5999 119.63 67.2999 119.4 68.2199 118.52L68.59 118.99Z" fill="#388D99"/>
<path d="M74.42 111.42C77.11 111.42 79.0399 113.46 79.0399 116.13C79.0399 119.53 76.54 121.16 74.4 121.16C71.45 121.16 69.68 118.82 69.68 116.45C69.69 113.06 72.35 111.42 74.42 111.42ZM74.17 112.15C72.96 112.15 71.8499 113.34 71.8499 115.8C71.8499 118.46 72.97 120.4 74.62 120.4C75.83 120.4 76.88 119.53 76.88 116.62C76.88 114.07 75.92 112.15 74.17 112.15Z" fill="#388D99"/>
<path d="M86.52 120.9V120.29C87.68 120.16 87.7899 120.03 87.7899 118.6V115.11C87.7899 113.64 87.23 112.74 85.96 112.74C85.16 112.74 84.4 113.19 83.77 113.75V118.69C83.77 120.11 83.89 120.16 85.06 120.28V120.89H80.46V120.28C81.79 120.13 81.92 120.05 81.92 118.67V114.34C81.92 112.99 81.77 112.93 80.67 112.74V112.17C81.73 112.01 82.84 111.73 83.77 111.34C83.77 111.79 83.76 112.47 83.76 112.97C84.18 112.68 84.64 112.36 85.17 112.02C85.77 111.64 86.29 111.4 86.89 111.4C88.57 111.4 89.63 112.64 89.63 114.69V118.68C89.63 120.08 89.76 120.15 90.94 120.28V120.89H86.52V120.9Z" fill="#388D99"/>
<path d="M97.7299 114.21C97.32 112.95 96.75 112.14 95.52 112.14C94.81 112.14 94.25 112.65 94.25 113.46C94.25 114.33 94.84 114.75 96 115.28C97.79 116.12 98.74 116.77 98.74 118.2C98.74 120.16 96.93 121.16 95.25 121.16C94.16 121.16 93.1599 120.81 92.7199 120.56C92.6199 119.97 92.4299 118.77 92.3499 118.07L92.9699 117.96C93.3599 119.3 94.12 120.42 95.57 120.42C96.37 120.42 96.99 119.89 96.99 119.05C96.99 118.16 96.47 117.67 95.32 117.11C93.87 116.4 92.64 115.72 92.64 114.17C92.64 112.61 93.9499 111.42 95.9699 111.42C96.8699 111.42 97.6 111.63 98.03 111.7C98.09 112.22 98.2499 113.54 98.3499 114.06L97.7299 114.21Z" fill="#388D99"/>
<path d="M100.06 120.9V120.29C101.35 120.16 101.49 120.06 101.49 118.62V114.34C101.49 113.02 101.42 112.94 100.21 112.74V112.2C101.34 112.02 102.39 111.74 103.34 111.37C103.34 112.25 103.34 113.13 103.34 114.01V118.62C103.34 120.05 103.48 120.16 104.81 120.29V120.9H100.06ZM102.3 109.46C101.67 109.46 101.12 108.91 101.12 108.28C101.12 107.57 101.68 107.07 102.33 107.07C102.96 107.07 103.48 107.58 103.48 108.28C103.47 108.91 102.95 109.46 102.3 109.46Z" fill="#388D99"/>
<path d="M111.42 114.21C111.01 112.95 110.44 112.14 109.21 112.14C108.5 112.14 107.94 112.65 107.94 113.46C107.94 114.33 108.53 114.75 109.69 115.28C111.48 116.12 112.42 116.77 112.42 118.2C112.42 120.16 110.62 121.16 108.93 121.16C107.84 121.16 106.84 120.81 106.4 120.56C106.3 119.97 106.11 118.77 106.03 118.07L106.65 117.96C107.04 119.3 107.8 120.42 109.25 120.42C110.05 120.42 110.67 119.89 110.67 119.05C110.67 118.16 110.15 117.67 109 117.11C107.54 116.4 106.32 115.72 106.32 114.17C106.32 112.61 107.63 111.42 109.65 111.42C110.55 111.42 111.28 111.63 111.71 111.7C111.77 112.22 111.93 113.54 112.03 114.06L111.42 114.21Z" fill="#388D99"/>
<path d="M117.98 120.89C117.62 121.08 117.29 121.16 117.09 121.16C115.7 121.16 114.94 120.35 114.94 118.63V112.56H113.51L113.42 112.31L114 111.67H114.95V109.91C115.41 109.48 116.09 108.91 116.55 108.47L116.86 108.53C116.82 109.36 116.8 110.55 116.8 111.66H119.14C119.33 111.87 119.26 112.37 119.01 112.55H116.8V117.88C116.8 119.57 117.47 119.86 117.99 119.86C118.47 119.86 118.91 119.69 119.22 119.55L119.41 120.13L117.98 120.89Z" fill="#388D99"/>
<path d="M128.1 119.07C126.77 120.79 125.26 121.16 124.55 121.16C121.94 121.16 120.38 119.06 120.38 116.63C120.38 115.19 120.92 113.85 121.78 112.94C122.67 111.96 123.83 111.42 124.93 111.42C126.8 111.42 128.19 113.02 128.19 114.71C128.17 115.12 128.12 115.34 127.8 115.42C127.38 115.51 124.65 115.69 122.23 115.77C122.19 118.48 123.83 119.63 125.32 119.63C126.17 119.63 126.97 119.29 127.75 118.58L128.1 119.07ZM124.45 112.22C123.51 112.22 122.6 113.14 122.34 114.83C123.46 114.83 124.57 114.82 125.74 114.77C126.1 114.77 126.23 114.67 126.23 114.35C126.25 113.25 125.56 112.22 124.45 112.22Z" fill="#388D99"/>
<path d="M135.45 120.9V120.29C136.61 120.16 136.72 120.03 136.72 118.6V115.11C136.72 113.64 136.16 112.74 134.89 112.74C134.09 112.74 133.33 113.19 132.7 113.75V118.69C132.7 120.11 132.82 120.16 133.99 120.28V120.89H129.39V120.28C130.72 120.13 130.85 120.05 130.85 118.67V114.34C130.85 112.99 130.7 112.93 129.6 112.74V112.17C130.66 112.01 131.77 111.73 132.7 111.34C132.7 111.79 132.69 112.47 132.69 112.97C133.11 112.68 133.57 112.36 134.1 112.02C134.69 111.64 135.21 111.4 135.82 111.4C137.5 111.4 138.56 112.64 138.56 114.69V118.68C138.56 120.08 138.69 120.15 139.87 120.28V120.89H135.45V120.9Z" fill="#388D99"/>
<path d="M145.3 120.89C144.94 121.08 144.61 121.16 144.41 121.16C143.02 121.16 142.26 120.35 142.26 118.63V112.56H140.83L140.74 112.31L141.32 111.67H142.27V109.91C142.73 109.48 143.41 108.91 143.87 108.47L144.18 108.53C144.14 109.36 144.12 110.55 144.12 111.66H146.46C146.65 111.87 146.58 112.37 146.33 112.55H144.12V117.88C144.12 119.57 144.79 119.86 145.31 119.86C145.79 119.86 146.23 119.69 146.54 119.55L146.73 120.13L145.3 120.89Z" fill="#388D99"/>
<path d="M147.31 120.9V120.29C148.63 120.15 148.77 120.05 148.77 118.67V108.7C148.77 107.45 148.66 107.33 147.36 107.15V106.58C148.55 106.45 149.88 106.13 150.61 105.87C150.61 106.85 150.61 107.85 150.61 108.83V118.67C150.61 120.06 150.73 120.16 152.06 120.29V120.9H147.31Z" fill="#388D99"/>
<path d="M162.44 112.26C161.36 112.42 161.14 112.6 160.61 113.78C160.09 114.94 159.51 116.4 158.11 119.92C156.73 123.29 156.35 124.6 156.01 125.71C155.88 126.16 155.65 126.27 155.36 126.27C154.66 126.27 154.01 125.76 154.01 125.2C154.01 124.92 154.15 124.73 154.49 124.46C155.19 123.95 155.69 123.46 155.96 122.91C156.36 122.12 156.66 121.42 156.76 121.15C156.84 120.84 156.84 120.65 156.71 120.3C155.84 117.79 154.67 115.16 154.09 113.76C153.64 112.65 153.44 112.4 152.31 112.26V111.67H156.73V112.26C155.77 112.41 155.66 112.61 155.93 113.36L157.89 118.39C158.46 116.99 159.28 114.74 159.71 113.44C159.95 112.66 159.78 112.43 158.6 112.26V111.67H162.44V112.26Z" fill="#388D99"/>
<path d="M59.15 138.12C60.16 137.97 61.31 137.61 62.34 137.21C62.34 137.7 62.34 138.37 62.34 138.86C62.4 138.82 64.0199 137.88 64.0999 137.84C64.6099 137.56 65.05 137.42 65.34 137.42C67.65 137.42 69.0399 139.39 69.0399 141.45C69.0399 144.62 66.5399 146.64 63.7899 147.16C63.1799 147.14 62.63 146.98 62.33 146.82V149.6C62.33 151.09 62.49 151.21 64.07 151.37V151.98H58.9799V151.37C60.3299 151.23 60.4799 151.11 60.4799 149.75V140.23C60.4799 138.99 60.42 138.9 59.14 138.72V138.12H59.15ZM62.34 145.32C62.81 145.79 63.6199 146.13 64.2899 146.13C65.9899 146.13 67.0999 144.63 67.0999 142.29C67.0999 139.97 65.78 138.74 64.37 138.74C63.67 138.74 62.87 139.17 62.34 139.56V145.32Z" fill="#388D99"/>
<path d="M75.52 146.9H70.56V146.29C71.85 146.16 71.9699 146.06 71.9699 144.71V140.3C71.9699 138.97 71.89 138.9 70.71 138.75V138.2C71.79 138.04 72.77 137.78 73.82 137.35C73.82 138.04 73.82 138.96 73.82 139.65C74.59 138.49 75.4499 137.41 76.4699 137.41C77.2499 137.41 77.71 137.9 77.71 138.46C77.71 139.04 77.3 139.53 76.93 139.73C76.7 139.86 76.53 139.82 76.36 139.68C76.04 139.37 75.7799 139.14 75.4099 139.14C74.9899 139.14 74.26 139.72 73.81 140.74V144.7C73.81 146.06 73.92 146.16 75.51 146.29V146.9H75.52Z" fill="#388D99"/>
<path d="M83.32 137.42C86.01 137.42 87.94 139.46 87.94 142.13C87.94 145.53 85.44 147.16 83.3 147.16C80.35 147.16 78.58 144.82 78.58 142.45C78.59 139.06 81.25 137.42 83.32 137.42ZM83.07 138.15C81.86 138.15 80.75 139.34 80.75 141.8C80.75 144.46 81.87 146.4 83.52 146.4C84.73 146.4 85.78 145.53 85.78 142.62C85.78 140.07 84.82 138.15 83.07 138.15Z" fill="#388D99"/>
<path d="M90.81 137.67V137.13C90.81 135.63 91.38 134.09 92.68 132.99C93.42 132.34 94.22 131.99 95.07 131.88C95.8 131.9 96.4499 132.15 96.7899 132.54C96.9999 132.78 97.03 133.01 96.93 133.31C96.86 133.55 96.61 133.85 96.38 134.03C96.13 134.19 95.95 134.14 95.74 133.99C95.31 133.59 94.7099 133.07 94.0399 133.07C92.6599 133.07 92.65 134.91 92.65 136.71V137.68H94.82C94.94 137.87 94.84 138.42 94.59 138.57H92.64V144.62C92.64 146.09 92.86 146.13 94.39 146.3V146.91H89.37V146.3C90.67 146.17 90.8 146.08 90.8 144.72V138.56H89.33L89.24 138.32L89.7199 137.66H90.81V137.67Z" fill="#388D99"/>
<path d="M103.34 145.07C102.01 146.79 100.5 147.16 99.7899 147.16C97.1799 147.16 95.62 145.06 95.62 142.63C95.62 141.19 96.16 139.85 97.02 138.94C97.91 137.96 99.07 137.42 100.18 137.42C102.05 137.42 103.44 139.02 103.44 140.71C103.42 141.12 103.37 141.34 103.05 141.42C102.63 141.51 99.9 141.69 97.4799 141.77C97.4399 144.48 99.08 145.63 100.57 145.63C101.42 145.63 102.23 145.29 103 144.58L103.34 145.07ZM99.69 138.22C98.75 138.22 97.84 139.14 97.58 140.83C98.7 140.83 99.8099 140.82 100.98 140.77C101.34 140.77 101.47 140.67 101.47 140.35C101.49 139.25 100.8 138.22 99.69 138.22Z" fill="#388D99"/>
<path d="M110.22 140.21C109.81 138.95 109.24 138.14 108.01 138.14C107.3 138.14 106.74 138.65 106.74 139.46C106.74 140.33 107.33 140.75 108.49 141.28C110.28 142.12 111.23 142.77 111.23 144.2C111.23 146.16 109.42 147.16 107.74 147.16C106.65 147.16 105.65 146.81 105.21 146.56C105.11 145.97 104.92 144.77 104.84 144.07L105.46 143.96C105.85 145.3 106.61 146.42 108.06 146.42C108.86 146.42 109.48 145.89 109.48 145.05C109.48 144.16 108.96 143.67 107.81 143.11C106.36 142.4 105.13 141.72 105.13 140.17C105.13 138.61 106.44 137.42 108.46 137.42C109.36 137.42 110.09 137.63 110.52 137.7C110.58 138.22 110.74 139.54 110.84 140.06L110.22 140.21Z" fill="#388D99"/>
<path d="M118.14 140.21C117.73 138.95 117.16 138.14 115.93 138.14C115.22 138.14 114.66 138.65 114.66 139.46C114.66 140.33 115.25 140.75 116.41 141.28C118.2 142.12 119.15 142.77 119.15 144.2C119.15 146.16 117.34 147.16 115.66 147.16C114.57 147.16 113.57 146.81 113.13 146.56C113.03 145.97 112.84 144.77 112.76 144.07L113.38 143.96C113.77 145.3 114.53 146.42 115.98 146.42C116.78 146.42 117.4 145.89 117.4 145.05C117.4 144.16 116.88 143.67 115.73 143.11C114.28 142.4 113.05 141.72 113.05 140.17C113.05 138.61 114.36 137.42 116.38 137.42C117.28 137.42 118.01 137.63 118.44 137.7C118.5 138.22 118.66 139.54 118.76 140.06L118.14 140.21Z" fill="#388D99"/>
<path d="M120.48 146.9V146.29C121.77 146.16 121.91 146.06 121.91 144.62V140.34C121.91 139.02 121.84 138.94 120.63 138.74V138.2C121.76 138.02 122.81 137.74 123.76 137.37C123.76 138.25 123.76 139.13 123.76 140.01V144.62C123.76 146.05 123.9 146.16 125.23 146.29V146.9H120.48ZM122.71 135.46C122.08 135.46 121.53 134.91 121.53 134.28C121.53 133.57 122.09 133.07 122.74 133.07C123.37 133.07 123.89 133.58 123.89 134.28C123.88 134.91 123.36 135.46 122.71 135.46Z" fill="#388D99"/>
<path d="M131.1 137.42C133.79 137.42 135.72 139.46 135.72 142.13C135.72 145.53 133.22 147.16 131.08 147.16C128.13 147.16 126.36 144.82 126.36 142.45C126.37 139.06 129.03 137.42 131.1 137.42ZM130.85 138.15C129.64 138.15 128.53 139.34 128.53 141.8C128.53 144.46 129.65 146.4 131.3 146.4C132.51 146.4 133.56 145.53 133.56 142.62C133.56 140.07 132.6 138.15 130.85 138.15Z" fill="#388D99"/>
<path d="M143.2 146.9V146.29C144.36 146.16 144.47 146.03 144.47 144.6V141.11C144.47 139.64 143.91 138.74 142.64 138.74C141.84 138.74 141.08 139.19 140.45 139.75V144.69C140.45 146.11 140.57 146.16 141.74 146.28V146.89H137.14V146.28C138.47 146.13 138.6 146.05 138.6 144.67V140.34C138.6 138.99 138.45 138.93 137.35 138.74V138.17C138.41 138.01 139.52 137.73 140.45 137.34C140.45 137.79 140.44 138.47 140.44 138.97C140.86 138.68 141.32 138.36 141.85 138.02C142.45 137.64 142.97 137.4 143.57 137.4C145.25 137.4 146.31 138.64 146.31 140.69V144.68C146.31 146.08 146.44 146.15 147.62 146.28V146.89H143.2V146.9Z" fill="#388D99"/>
<path d="M155.64 147.16C155.28 147.16 154.82 146.99 154.6 146.75C154.32 146.48 154.19 146.19 154.09 145.83C153.26 146.39 152.23 147.15 151.62 147.15C150.07 147.15 149.01 145.88 149.01 144.54C149.01 143.5 149.57 142.85 150.71 142.45C151.98 142.01 153.57 141.47 154.04 141.08V140.57C154.04 139.15 153.35 138.34 152.29 138.34C151.83 138.34 151.54 138.56 151.33 138.81C151.1 139.11 150.96 139.57 150.77 140.18C150.66 140.56 150.44 140.7 150.11 140.7C149.68 140.7 149.13 140.27 149.13 139.75C149.13 139.44 149.4 139.19 149.83 138.88C150.5 138.41 151.72 137.66 152.91 137.41C153.58 137.41 154.24 137.6 154.74 137.98C155.51 138.61 155.83 139.35 155.83 140.44V144.42C155.83 145.39 156.18 145.68 156.55 145.68C156.79 145.68 157.06 145.58 157.29 145.46L157.5 146.07L155.64 147.16ZM154.04 141.85C153.59 142.08 152.7 142.48 152.23 142.69C151.46 143.04 150.99 143.44 150.99 144.2C150.99 145.32 151.83 145.81 152.46 145.81C152.96 145.81 153.63 145.53 154.04 145.13C154.04 144.15 154.04 142.83 154.04 141.85Z" fill="#388D99"/>
<path d="M158.06 146.9V146.29C159.38 146.15 159.52 146.05 159.52 144.67V134.7C159.52 133.45 159.41 133.33 158.11 133.15V132.58C159.3 132.45 160.63 132.13 161.36 131.87C161.36 132.85 161.36 133.85 161.36 134.83V144.67C161.36 146.06 161.47 146.16 162.81 146.29V146.9H158.06Z" fill="#388D99"/>
<path d="M50.76 172.89C50.4 173.08 50.07 173.16 49.87 173.16C48.48 173.16 47.7199 172.35 47.7199 170.63V164.56H46.2899L46.2 164.31L46.78 163.67H47.7299V161.91C48.1899 161.48 48.87 160.91 49.33 160.47L49.64 160.53C49.6 161.36 49.58 162.55 49.58 163.66H51.92C52.11 163.87 52.0399 164.37 51.7899 164.55H49.58V169.88C49.58 171.57 50.25 171.86 50.77 171.86C51.25 171.86 51.69 171.69 52 171.55L52.19 172.13L50.76 172.89Z" fill="#388D99"/>
<path d="M58.84 172.9V172.29C60.01 172.16 60.15 172.05 60.15 170.71V167.22C60.15 165.5 59.48 164.68 58.18 164.7C57.43 164.7 56.65 165.05 56.08 165.7V170.71C56.08 172.03 56.24 172.16 57.44 172.29V172.9H52.7899V172.29C53.9699 172.18 54.2299 172.08 54.2299 170.69V160.64C54.2299 159.55 54.1599 159.29 52.7899 159.15V158.58C53.9799 158.47 55.28 158.16 56.08 157.87C56.08 158.68 56.08 159.59 56.08 160.44V164.92C56.83 164.17 57.96 163.42 59.09 163.42C60.83 163.42 62.01 164.51 62.01 167V170.72C62.01 172.1 62.1699 172.18 63.3499 172.3V172.91H58.84V172.9Z" fill="#388D99"/>
<path d="M69.49 172.9H64.53V172.29C65.81 172.16 65.94 172.06 65.94 170.71V166.3C65.94 164.97 65.86 164.9 64.68 164.75V164.2C65.76 164.04 66.7399 163.78 67.7899 163.35C67.7899 164.04 67.7899 164.96 67.7899 165.65C68.5599 164.49 69.42 163.41 70.44 163.41C71.22 163.41 71.68 163.9 71.68 164.46C71.68 165.04 71.27 165.53 70.9 165.73C70.68 165.86 70.5 165.82 70.34 165.68C70.02 165.37 69.76 165.14 69.39 165.14C68.97 165.14 68.2399 165.72 67.7899 166.74V170.7C67.7899 172.06 67.9 172.16 69.49 172.29V172.9Z" fill="#388D99"/>
<path d="M77.3 163.42C79.98 163.42 81.92 165.46 81.92 168.13C81.92 171.53 79.42 173.16 77.28 173.16C74.33 173.16 72.56 170.82 72.56 168.45C72.56 165.06 75.23 163.42 77.3 163.42ZM77.05 164.15C75.84 164.15 74.7299 165.34 74.7299 167.8C74.7299 170.46 75.85 172.4 77.5 172.4C78.71 172.4 79.76 171.53 79.76 168.62C79.76 166.07 78.79 164.15 77.05 164.15Z" fill="#388D99"/>
<path d="M93.61 172.42C92.56 172.57 91.39 172.84 90.26 173.16C90.26 172.8 90.26 172.09 90.26 171.58C89.18 172.48 88.2599 173.16 87.0999 173.16C85.6299 173.16 84.45 172.25 84.45 170.04V165.92C84.45 164.82 84.29 164.69 83.76 164.58L83.2 164.47V163.9C84.13 163.86 85.57 163.66 86.37 163.53C86.31 164.24 86.31 165.26 86.31 166.61V169.5C86.31 171.26 87.23 171.77 88.13 171.77C88.87 171.77 89.59 171.47 90.26 170.83V165.91C90.26 164.81 90.03 164.66 89.34 164.55L88.67 164.46V163.89C89.99 163.83 91.5199 163.61 92.0999 163.52V170.52C92.0999 171.58 92.2599 171.74 93.0399 171.79L93.61 171.81V172.42Z" fill="#388D99"/>
<path d="M97.67 169.8C97.22 170.17 97.03 170.55 97.03 170.79C97.03 171.16 97.39 171.58 98.31 171.58C99.07 171.58 99.9699 171.56 100.66 171.56C101.99 171.56 103.74 172.02 103.74 174.09C103.74 176.31 101.1 178.34 98.31 178.34C95.87 178.34 94.6 176.96 94.56 175.74C94.56 175.27 94.7499 174.88 95.0999 174.55C95.5499 174.12 96.32 173.48 96.8 173.12C96.03 172.89 95.4999 172.42 95.2199 171.98C95.0199 171.66 94.95 171.26 94.95 171.03C95.78 170.71 96.53 170.12 96.94 169.57L97.67 169.8ZM98.68 170.01C96.65 170.01 95.0399 168.8 95.0399 166.84C95.0399 164.47 97.19 163.36 98.87 163.36C99.6 163.36 100.29 163.55 100.95 163.89C101.9 163.89 103.2 163.73 103.78 163.58L103.9 163.77C103.77 164.11 103.45 164.72 103.12 164.92C102.8 164.92 102.12 164.84 101.83 164.81C102.18 165.27 102.42 165.92 102.42 166.69C102.43 168.94 100.53 170.01 98.68 170.01ZM99.12 173.19C98.08 173.19 97.61 173.32 97.24 173.62C96.69 174.07 96.31 174.66 96.31 175.24C96.31 176.39 97.48 177.25 99.13 177.25C101.06 177.25 102.17 176.27 102.17 174.96C102.17 174.23 101.8 173.68 101.2 173.44C100.68 173.23 99.99 173.19 99.12 173.19ZM98.69 164.06C97.8 164.06 96.99 164.91 96.99 166.54C96.99 168.16 97.77 169.32 98.89 169.32C99.79 169.29 100.55 168.49 100.55 166.83C100.55 165.24 99.83 164.06 98.69 164.06Z" fill="#388D99"/>
<path d="M110.35 172.9V172.29C111.52 172.16 111.66 172.05 111.66 170.71V167.22C111.66 165.5 110.99 164.68 109.69 164.7C108.94 164.7 108.16 165.05 107.59 165.7V170.71C107.59 172.03 107.75 172.16 108.95 172.29V172.9H104.3V172.29C105.48 172.18 105.74 172.08 105.74 170.69V160.64C105.74 159.55 105.67 159.29 104.3 159.15V158.58C105.49 158.47 106.79 158.16 107.59 157.87C107.59 158.68 107.59 159.59 107.59 160.44V164.92C108.34 164.17 109.47 163.42 110.6 163.42C112.34 163.42 113.52 164.51 113.52 167V170.72C113.52 172.1 113.68 172.18 114.86 172.3V172.91H110.35V172.9Z" fill="#388D99"/>
<path d="M120.87 163.42C123.55 163.42 125.49 165.46 125.49 168.13C125.49 171.53 122.99 173.16 120.85 173.16C117.9 173.16 116.13 170.82 116.13 168.45C116.14 165.06 118.8 163.42 120.87 163.42ZM120.62 164.15C119.41 164.15 118.3 165.34 118.3 167.8C118.3 170.46 119.42 172.4 121.07 172.4C122.28 172.4 123.33 171.53 123.33 168.62C123.33 166.07 122.37 164.15 120.62 164.15Z" fill="#388D99"/>
<path d="M137.19 172.42C136.14 172.57 134.97 172.84 133.84 173.16C133.84 172.8 133.84 172.09 133.84 171.58C132.76 172.48 131.84 173.16 130.68 173.16C129.21 173.16 128.03 172.25 128.03 170.04V165.92C128.03 164.82 127.87 164.69 127.34 164.58L126.78 164.47V163.9C127.71 163.86 129.15 163.66 129.95 163.53C129.89 164.24 129.89 165.26 129.89 166.61V169.5C129.89 171.26 130.81 171.77 131.71 171.77C132.45 171.77 133.17 171.47 133.84 170.83V165.91C133.84 164.81 133.61 164.66 132.92 164.55L132.25 164.46V163.89C133.57 163.83 135.1 163.61 135.68 163.52V170.52C135.68 171.58 135.84 171.74 136.62 171.79L137.19 171.81V172.42Z" fill="#388D99"/>
<path d="M142.42 172.89C142.06 173.08 141.73 173.16 141.53 173.16C140.14 173.16 139.38 172.35 139.38 170.63V164.56H137.95L137.86 164.31L138.43 163.67H139.38V161.91C139.84 161.48 140.52 160.91 140.98 160.47L141.29 160.53C141.25 161.36 141.23 162.55 141.23 163.66H143.57C143.76 163.87 143.69 164.37 143.44 164.55H141.23V169.88C141.23 171.57 141.9 171.86 142.42 171.86C142.9 171.86 143.34 171.69 143.65 171.55L143.84 172.13L142.42 172.89Z" fill="#388D99"/>
<path d="M153.78 172.89C153.42 173.08 153.09 173.16 152.89 173.16C151.5 173.16 150.74 172.35 150.74 170.63V164.56H149.31L149.22 164.31L149.79 163.67H150.74V161.91C151.2 161.48 151.88 160.91 152.34 160.47L152.65 160.53C152.61 161.36 152.59 162.55 152.59 163.66H154.93C155.12 163.87 155.05 164.37 154.8 164.55H152.59V169.88C152.59 171.57 153.26 171.86 153.78 171.86C154.26 171.86 154.7 171.69 155.01 171.55L155.2 172.13L153.78 172.89Z" fill="#388D99"/>
<path d="M161.87 172.9V172.29C163.04 172.16 163.18 172.05 163.18 170.71V167.22C163.18 165.5 162.51 164.68 161.21 164.7C160.46 164.7 159.68 165.05 159.11 165.7V170.71C159.11 172.03 159.27 172.16 160.47 172.29V172.9H155.82V172.29C157 172.18 157.26 172.08 157.26 170.69V160.64C157.26 159.55 157.19 159.29 155.82 159.15V158.58C157.01 158.47 158.31 158.16 159.11 157.87C159.11 158.68 159.11 159.59 159.11 160.44V164.92C159.86 164.17 160.99 163.42 162.12 163.42C163.86 163.42 165.04 164.51 165.04 167V170.72C165.04 172.1 165.2 172.18 166.38 172.3V172.91H161.87V172.9Z" fill="#388D99"/>
<path d="M175.37 171.07C174.04 172.79 172.53 173.16 171.82 173.16C169.21 173.16 167.65 171.06 167.65 168.63C167.65 167.19 168.19 165.85 169.05 164.94C169.94 163.96 171.1 163.42 172.21 163.42C174.08 163.42 175.47 165.02 175.47 166.71C175.45 167.12 175.4 167.34 175.08 167.42C174.66 167.51 171.93 167.69 169.51 167.77C169.47 170.48 171.11 171.63 172.6 171.63C173.45 171.63 174.26 171.29 175.03 170.58L175.37 171.07ZM171.72 164.22C170.78 164.22 169.87 165.14 169.61 166.83C170.73 166.83 171.84 166.82 173.01 166.77C173.37 166.77 173.5 166.67 173.5 166.35C173.52 165.25 172.83 164.22 171.72 164.22Z" fill="#388D99"/>
<path d="M85.71 198.38C85.26 198.46 83.62 198.72 82.3 199.16C82.3 198.73 82.3 198.26 82.3 197.82C81.92 198.06 81.38 198.35 81 198.59C80.22 199.04 79.7 199.16 79.45 199.16C77.75 199.16 75.4699 197.51 75.4699 194.53C75.4699 191.62 78.0299 189.42 80.9799 189.42C81.2499 189.42 81.88 189.45 82.3 189.62V186.65C82.3 185.35 82.16 185.29 80.7 185.16V184.59C81.81 184.44 83.32 184.15 84.15 183.88C84.15 184.66 84.15 185.55 84.15 186.42V196.43C84.15 197.53 84.29 197.67 85.07 197.72L85.7 197.77V198.38H85.71ZM82.3 191.32C81.86 190.61 81.02 190.25 80.21 190.25C79.27 190.25 77.55 190.88 77.55 193.91C77.55 196.49 79.12 197.77 80.39 197.79C81.08 197.79 81.81 197.47 82.3 197.11V191.32Z" fill="#388D99"/>
<path d="M94.51 197.07C93.18 198.79 91.67 199.16 90.96 199.16C88.35 199.16 86.7899 197.06 86.7899 194.63C86.7899 193.19 87.33 191.85 88.19 190.94C89.08 189.96 90.24 189.42 91.34 189.42C93.21 189.42 94.5999 191.02 94.5999 192.71C94.5799 193.12 94.53 193.34 94.21 193.42C93.79 193.51 91.06 193.69 88.64 193.77C88.6 196.48 90.2399 197.63 91.7299 197.63C92.5799 197.63 93.3799 197.29 94.1599 196.58L94.51 197.07ZM90.86 190.22C89.92 190.22 89.01 191.14 88.75 192.83C89.87 192.83 90.98 192.82 92.15 192.77C92.51 192.77 92.64 192.67 92.64 192.35C92.66 191.25 91.97 190.22 90.86 190.22Z" fill="#388D99"/>
<path d="M95.5399 198.9V198.29C96.8599 198.15 97 198.05 97 196.67V186.7C97 185.45 96.89 185.33 95.59 185.15V184.58C96.78 184.45 98.11 184.13 98.84 183.87C98.84 184.85 98.84 185.85 98.84 186.83V196.67C98.84 198.06 98.9599 198.16 100.29 198.29V198.9H95.5399Z" fill="#388D99"/>
<path d="M101.38 198.9V198.29C102.67 198.16 102.81 198.06 102.81 196.62V192.34C102.81 191.02 102.74 190.94 101.53 190.74V190.2C102.66 190.02 103.71 189.74 104.66 189.37C104.66 190.25 104.66 191.13 104.66 192.01V196.62C104.66 198.05 104.8 198.16 106.13 198.29V198.9H101.38ZM103.61 187.46C102.98 187.46 102.43 186.91 102.43 186.28C102.43 185.57 102.99 185.07 103.64 185.07C104.27 185.07 104.79 185.58 104.79 186.28C104.78 186.91 104.26 187.46 103.61 187.46Z" fill="#388D99"/>
<path d="M116.45 190.26C115.32 190.41 115.17 190.59 114.64 191.8C113.94 193.48 112.76 196.23 111.64 199.13H110.98C110.07 196.68 109.05 194.19 108.06 191.74C107.6 190.58 107.42 190.43 106.33 190.26V189.67H110.79V190.26C109.67 190.41 109.62 190.56 109.94 191.43C110.47 192.88 111.32 195.07 111.87 196.43C112.55 194.73 113.25 192.99 113.72 191.63C114.05 190.67 113.99 190.41 112.62 190.26V189.67H116.46V190.26H116.45Z" fill="#388D99"/>
<path d="M124.52 197.07C123.19 198.79 121.68 199.16 120.97 199.16C118.36 199.16 116.8 197.06 116.8 194.63C116.8 193.19 117.34 191.85 118.2 190.94C119.09 189.96 120.25 189.42 121.36 189.42C123.23 189.42 124.62 191.02 124.62 192.71C124.6 193.12 124.55 193.34 124.23 193.42C123.81 193.51 121.08 193.69 118.66 193.77C118.62 196.48 120.26 197.63 121.75 197.63C122.6 197.63 123.41 197.29 124.18 196.58L124.52 197.07ZM120.87 190.22C119.93 190.22 119.02 191.14 118.76 192.83C119.88 192.83 120.99 192.82 122.16 192.77C122.52 192.77 122.65 192.67 122.65 192.35C122.67 191.25 121.98 190.22 120.87 190.22Z" fill="#388D99"/>
<path d="M130.8 198.9H125.84V198.29C127.13 198.16 127.25 198.06 127.25 196.71V192.3C127.25 190.97 127.17 190.9 125.99 190.75V190.2C127.07 190.04 128.05 189.78 129.1 189.35C129.1 190.04 129.1 190.96 129.1 191.65C129.87 190.49 130.73 189.41 131.75 189.41C132.53 189.41 132.99 189.9 132.99 190.46C132.99 191.04 132.58 191.53 132.21 191.73C131.98 191.86 131.81 191.82 131.64 191.68C131.32 191.37 131.06 191.14 130.69 191.14C130.27 191.14 129.54 191.72 129.09 192.74V196.7C129.09 198.06 129.2 198.16 130.79 198.29V198.9H130.8Z" fill="#388D99"/>
<path d="M143.04 190.26C141.96 190.42 141.74 190.6 141.21 191.78C140.68 192.94 140.11 194.4 138.71 197.92C137.33 201.29 136.95 202.6 136.6 203.71C136.47 204.16 136.24 204.27 135.95 204.27C135.25 204.27 134.6 203.76 134.6 203.2C134.6 202.92 134.74 202.73 135.08 202.46C135.78 201.95 136.28 201.46 136.55 200.91C136.95 200.12 137.25 199.42 137.35 199.15C137.43 198.84 137.43 198.65 137.3 198.3C136.43 195.79 135.26 193.16 134.68 191.76C134.23 190.65 134.03 190.4 132.9 190.26V189.67H137.32V190.26C136.37 190.41 136.25 190.61 136.52 191.36L138.48 196.39C139.05 194.99 139.87 192.74 140.3 191.44C140.55 190.66 140.38 190.43 139.19 190.26V189.67H143.03V190.26H143.04Z" fill="#388D99"/>
<path d="M144.88 199.19C144.08 199.19 143.52 198.61 143.52 197.77C143.52 196.97 144.08 196.35 144.88 196.35C145.68 196.35 146.27 196.96 146.27 197.77C146.27 198.61 145.68 199.19 144.88 199.19Z" fill="#388D99"/>
<defs>
<linearGradient id="paint0_linear" x1="7.29631" y1="2.03428" x2="235.833" y2="297.055" gradientUnits="userSpaceOnUse">
<stop stop-color="#004A48"/>
<stop offset="0.1386" stop-color="#1B5B5C"/>
<stop offset="0.3173" stop-color="#287075"/>
<stop offset="0.4892" stop-color="#317F88"/>
<stop offset="0.6495" stop-color="#368994"/>
<stop offset="0.7867" stop-color="#388C98"/>
</linearGradient>
</defs>
</svg>
