<?xml version="1.0" encoding="utf-8"?>
<!-- Generator: Adobe Illustrator 23.0.1, SVG Export Plug-In . SVG Version: 6.00 Build 0)  -->
<svg version="1.1" id="Camada_1" xmlns="http://www.w3.org/2000/svg" xmlns:xlink="http://www.w3.org/1999/xlink" x="0px" y="0px"
	 viewBox="0 0 187.05 181.43" style="enable-background:new 0 0 187.05 181.43;" xml:space="preserve">
<style type="text/css">
	.st0{fill:url(#SVGID_1_);}
	.st1{fill:url(#SVGID_2_);}
	.st2{fill:url(#SVGID_3_);}
	.st3{fill:url(#SVGID_4_);}
	.st4{fill:url(#SVGID_5_);}
	.st5{fill:url(#SVGID_6_);}
	.st6{fill:url(#SVGID_7_);}
	.st7{fill:url(#SVGID_8_);}
	.st8{fill:url(#SVGID_9_);}
	.st9{fill:url(#SVGID_10_);}
	.st10{fill:url(#SVGID_11_);}
	.st11{fill:url(#SVGID_12_);}
	.st12{fill:url(#SVGID_13_);}
	.st13{fill:url(#SVGID_14_);}
	.st14{fill:url(#SVGID_15_);}
	.st15{fill:url(#SVGID_16_);}
	.st16{fill:url(#SVGID_17_);}
	.st17{fill:url(#SVGID_18_);}
	.st18{fill:url(#SVGID_19_);}
	.st19{fill:url(#SVGID_20_);}
	.st20{fill:url(#SVGID_21_);}
	.st21{fill:url(#SVGID_22_);}
	.st22{fill:url(#SVGID_23_);}
	.st23{fill:url(#SVGID_24_);}
	.st24{fill:url(#SVGID_25_);}
	.st25{fill:url(#SVGID_26_);}
	.st26{fill:url(#SVGID_27_);}
	.st27{fill:url(#SVGID_28_);}
	.st28{fill:url(#SVGID_29_);}
	.st29{fill:url(#SVGID_30_);}
	.st30{fill:url(#SVGID_31_);}
	.st31{fill:url(#SVGID_32_);}
	.st32{fill:url(#SVGID_33_);}
	.st33{fill:url(#SVGID_34_);}
	.st34{fill:url(#SVGID_35_);}
	.st35{fill:url(#SVGID_36_);}
	.st36{fill:url(#SVGID_37_);}
	.st37{fill:url(#SVGID_38_);}
	.st38{fill:url(#SVGID_39_);}
	.st39{fill:url(#SVGID_40_);}
	.st40{fill:url(#SVGID_41_);}
	.st41{fill:url(#SVGID_42_);}
	.st42{fill:url(#SVGID_43_);}
	.st43{fill:url(#SVGID_44_);}
	.st44{fill:url(#SVGID_45_);}
	.st45{fill:url(#SVGID_46_);}
	.st46{fill:url(#SVGID_47_);}
	.st47{fill:url(#SVGID_48_);}
	.st48{fill:url(#SVGID_49_);}
	.st49{fill:url(#SVGID_50_);}
	.st50{fill:url(#SVGID_51_);}
	.st51{clip-path:url(#SVGID_65_);fill:url(#SVGID_66_);}
	.st52{clip-path:url(#SVGID_65_);fill:url(#SVGID_67_);}
	.st53{clip-path:url(#SVGID_65_);fill:url(#SVGID_68_);}
	.st54{clip-path:url(#SVGID_65_);fill:url(#SVGID_69_);}
	.st55{clip-path:url(#SVGID_65_);fill:url(#SVGID_70_);}
	.st56{fill:none;stroke:#FFFFFF;stroke-miterlimit:10;}
	.st57{opacity:0.5;}
	.st58{fill:none;stroke:#FFFFFF;stroke-width:0.75;stroke-miterlimit:10;}
	.st59{fill:url(#SVGID_73_);}
	.st60{opacity:0.75;}
	.st61{fill:#004441;}
	.st62{fill:#008E9A;}
	.st63{fill:#003936;}
	.st64{fill:#FFFFFF;}
	.st65{fill:url(#SVGID_82_);}
	.st66{fill:url(#SVGID_83_);}
	.st67{fill:url(#SVGID_84_);}
	.st68{fill:url(#SVGID_85_);}
	.st69{fill:url(#SVGID_86_);}
	.st70{fill:url(#SVGID_87_);}
	.st71{fill:url(#SVGID_88_);}
	.st72{fill:url(#SVGID_89_);}
	.st73{fill:url(#SVGID_90_);}
	.st74{fill:url(#SVGID_91_);}
	.st75{fill:url(#SVGID_92_);}
	.st76{fill:#006D68;}
	.st77{fill:url(#SVGID_93_);}
	.st78{fill:url(#SVGID_94_);}
	.st79{fill:url(#SVGID_95_);}
	.st80{fill:url(#SVGID_96_);}
	.st81{fill:url(#SVGID_97_);}
	.st82{fill:url(#SVGID_98_);}
	.st83{fill:url(#SVGID_99_);}
	.st84{fill:url(#SVGID_100_);}
	.st85{fill:url(#SVGID_101_);}
	.st86{fill:url(#SVGID_102_);}
	.st87{fill:#005D57;}
	.st88{fill:#0096A4;}
	.st89{fill:none;stroke:#FFFFFF;stroke-width:2;stroke-miterlimit:10;}
	.st90{fill:none;stroke:#006D68;stroke-width:2;stroke-miterlimit:10;}
	.st91{fill:#004441;stroke:#004441;stroke-width:2;stroke-miterlimit:10;}
	.st92{fill:#FFFFFF;stroke:#008E9A;stroke-width:2;stroke-miterlimit:10;}
	.st93{fill:#004039;}
	.st94{fill:#C6E5EA;}
	.st95{fill:#79C4CF;}
	.st96{fill:#6CBFC4;}
	.st97{fill:#D2E9EC;}
	.st98{fill:#FADFD1;}
	.st99{fill:#EA7B59;}
	.st100{fill:#CFCFD9;}
	.st101{fill:#EC7E0B;}
	.st102{fill:#875B9F;}
	.st103{fill:#D24B51;}
	.st104{fill:#F5BB90;}
	.st105{fill:#54B8C0;}
	.st106{fill:#E5533A;}
	.st107{fill:#E3BC38;}
	.st108{fill:url(#SVGID_103_);}
	.st109{fill:url(#SVGID_104_);}
	.st110{fill:url(#SVGID_105_);}
	.st111{fill:url(#SVGID_106_);}
	.st112{fill:url(#SVGID_107_);}
	.st113{fill:url(#SVGID_108_);}
	.st114{fill:url(#SVGID_109_);}
	.st115{fill:url(#SVGID_110_);}
	.st116{fill:url(#SVGID_111_);}
	.st117{fill:url(#SVGID_112_);}
	.st118{fill:url(#SVGID_113_);}
	.st119{fill:url(#SVGID_114_);}
	.st120{fill:url(#SVGID_115_);}
	.st121{fill:url(#SVGID_116_);}
	.st122{fill:url(#SVGID_117_);}
	.st123{fill:url(#SVGID_118_);}
	.st124{fill:url(#SVGID_119_);}
	.st125{fill:url(#SVGID_120_);}
	.st126{fill:url(#SVGID_121_);}
	.st127{fill:url(#SVGID_122_);}
	.st128{fill:url(#SVGID_123_);}
	.st129{fill:url(#SVGID_124_);}
	.st130{fill:url(#SVGID_125_);}
	.st131{fill:url(#SVGID_126_);}
	.st132{fill:url(#SVGID_127_);}
	.st133{fill:url(#SVGID_128_);}
	.st134{fill:url(#SVGID_129_);}
	.st135{fill:url(#SVGID_130_);}
	.st136{fill:url(#SVGID_131_);}
	.st137{fill:url(#SVGID_132_);}
	.st138{fill:url(#SVGID_133_);}
	.st139{fill:url(#SVGID_134_);}
	.st140{fill:url(#SVGID_135_);}
	.st141{fill:url(#SVGID_136_);}
	.st142{fill:url(#SVGID_137_);}
	.st143{fill:url(#SVGID_138_);}
	.st144{fill:url(#SVGID_139_);}
	.st145{fill:url(#SVGID_140_);}
	.st146{fill:url(#SVGID_141_);}
	.st147{fill:url(#SVGID_142_);}
	.st148{fill:url(#SVGID_143_);}
	.st149{fill:url(#SVGID_144_);}
	.st150{fill:url(#SVGID_145_);}
	.st151{fill:url(#SVGID_146_);}
	.st152{fill:url(#SVGID_147_);}
	.st153{fill:url(#SVGID_148_);}
	.st154{fill:url(#SVGID_149_);}
	.st155{fill:url(#SVGID_150_);}
	.st156{fill:url(#SVGID_151_);}
	.st157{fill:url(#SVGID_152_);}
	.st158{fill:url(#SVGID_153_);}
	.st159{clip-path:url(#SVGID_167_);fill:url(#SVGID_168_);}
	.st160{clip-path:url(#SVGID_167_);fill:url(#SVGID_169_);}
	.st161{clip-path:url(#SVGID_167_);fill:url(#SVGID_170_);}
	.st162{clip-path:url(#SVGID_167_);fill:url(#SVGID_171_);}
	.st163{clip-path:url(#SVGID_167_);fill:url(#SVGID_172_);}
	.st164{fill:#A991B5;}
	.st165{fill:#EE8E34;}
	.st166{fill:#A07F0E;}
	.st167{fill:none;stroke:#54B8C0;stroke-width:4;stroke-miterlimit:10;}
	.st168{fill:none;stroke:#875B9F;stroke-width:5;stroke-miterlimit:10;}
	.st169{fill:#E76F80;}
	.st170{fill:#004745;}
</style>
<g>
	<g>
		<g class="st60">
			<rect x="20.14" y="15.48" class="st91" width="138.78" height="142.48"/>
		</g>
		<g>
			<g>
				<rect x="24.14" y="19.48" class="st92" width="138.78" height="142.48"/>
			</g>
		</g>
	</g>
	<g>
		<path class="st166" d="M65.97,88.62c-0.49-4.52-0.37-9.01,0.7-13.45c0.19-0.77,0.06-1.36-0.41-2.03
			c-1.49-2.09-2.05-4.54-2.39-7.04c-0.53-3.82-0.4-7.62,0.6-11.35c0.19-0.7,0.47-1.39,0.83-2.02c0.82-1.44,1.62-1.62,2.86-0.54
			c1.65,1.43,3.41,2.53,5.65,2.63c1.66,0.08,3.31,0.02,4.97-0.09c6.28-0.42,12.56-0.81,18.85-0.54c3.21,0.14,6.37,0.63,9.29,2.1
			c1.91,0.97,3.46,2.31,4.19,4.41c0.16,0.47,0.47,0.78,0.84,1.07c5.2,4.18,7.58,9.85,8.56,16.26c0.54,3.53,0.45,7.07,0.19,10.62
			c-0.87,0.26-1.78,0.4-2.54,0.96c-0.31-0.17-0.61-0.33-0.92-0.5c-0.27-0.89-0.42-1.82-0.91-2.63c-0.48-1.77-0.92-3.54-1.47-5.29
			c-0.18-0.59-0.04-0.88,0.37-1.28c1.5-1.51,1.17-3.73-0.66-4.76c-1.37-0.77-2.42-0.5-3.96,1.01c-0.54-0.71-1.24-1.24-1.95-1.76
			c-1.3-0.95-2.71-1.39-4.3-0.76c-1.56,0.62-3.12,1.21-4.68,1.82c-1.16,0.14-2.29-0.24-3.43-0.22c-0.48,0.01-0.55-0.35-0.69-0.64
			c-0.54-1.1-1.39-1.68-2.63-1.7c-1.3-0.02-2.17,0.62-2.74,1.73c-0.14,0.28-0.22,0.61-0.6,0.59c-0.93-0.05-1.81,0.35-2.74,0.21
			c-1.6-0.61-3.2-1.23-4.8-1.84c-1.15-0.44-2.25-0.28-3.3,0.32c-1.18,0.67-2.15,1.59-3.11,2.54c-0.09-0.07-0.2-0.12-0.27-0.21
			c-1.29-1.68-2.97-1.97-4.47-0.76c-1.43,1.16-1.48,2.83-0.06,4.44c0.33,0.38,0.24,0.64,0.15,1.02c-0.61,2.33-1.24,4.66-1.76,7.02
			c-0.2,0.9-0.65,1.23-1.48,1.23C67.13,89,66.55,88.81,65.97,88.62z"/>
		<path class="st104" d="M108.09,117.5c-0.78,0.44-1.04,1.08-1.06,1.99c-0.06,2.77,0.09,5.52,0.29,8.27
			c0.15,1.97,1.42,3.28,3.24,3.95c1.87,0.69,3.78,1.26,5.66,1.9c0.35,0.12,0.77,0.12,1.02,0.47c-0.09,0.21-0.17,0.43-0.26,0.64
			c-4.59,10.08-12.41,15.63-23.48,16.19c-7.05,0.36-13.25-2.14-18.46-6.89c-2.88-2.62-5.15-5.72-6.45-9.45
			c1.83-0.99,3.85-1.49,5.82-2.07c4.35-1.28,5.77-2.6,5.54-7.73c-0.04-0.85,0-1.7,0-2.54c-0.01-1.49,0.14-2.99-0.4-4.43
			c2.73,1.42,5.47,2.82,8.19,4.25c1.07,0.56,2.49,0.83,2.27,2.56c-0.01,0.1,0.09,0.21,0.15,0.31c0.65,1.22,1.88,1.9,3.13,1.72
			c1.22-0.17,2.35-1.29,2.56-2.64c0.08-0.52,0.15-0.92,0.69-1.2c3.45-1.79,6.89-3.61,10.31-5.44
			C107.35,117.09,107.72,117.11,108.09,117.5z"/>
		<path class="st106" d="M68.59,134.56c1.3,3.73,3.57,6.83,6.45,9.45c5.21,4.75,11.41,7.25,18.46,6.89
			c11.07-0.56,18.88-6.1,23.48-16.19c0.1-0.21,0.18-0.43,0.26-0.64c2.49,0.8,5.01,1.52,7.44,2.51c-1.43,0.01-2.85-0.01-4.27,0.05
			c-2.28,0.09-3.76,2.08-3.16,4.21c0.39,1.38,1.6,2.26,3.23,2.27c6.16,0.03,12.32,0.03,18.49,0.05c2.76,3.08,4.26,6.67,4.37,10.83
			c-33.17,0-66.34,0-99.51-0.01c0-4.2,1.55-7.77,4.38-10.83c6.1-0.01,12.19-0.02,18.29-0.04c2.07-0.01,3.48-1.31,3.5-3.17
			c0.02-1.89-1.44-3.28-3.53-3.32c-1.35-0.03-2.7-0.03-4.05-0.04C64.43,135.8,66.48,135.08,68.59,134.56z"/>
		<path class="st62" d="M108.09,117.5c-0.37-0.38-0.74-0.41-1.23-0.15c-3.43,1.84-6.86,3.65-10.31,5.44
			c-0.54,0.28-0.61,0.68-0.69,1.2c-0.21,1.35-1.34,2.47-2.56,2.64c-1.25,0.17-2.48-0.5-3.13-1.72c-0.05-0.1-0.16-0.21-0.15-0.31
			c0.21-1.72-1.21-1.99-2.27-2.56c-2.72-1.43-5.46-2.84-8.19-4.25c0,0-0.03,0.03-0.03,0.03c-0.16-0.11-0.32-0.21-0.47-0.32
			c-0.36-0.34-0.7-0.29-1.13-0.05c-1.37,0.77-2.8,0.54-3.74-0.54c-0.97-1.12-1.07-2.58-0.1-3.79c0.51-0.64,0.46-1.14,0.1-1.75
			c-0.29-1.02-0.62-2.04-0.86-3.07c-0.16-0.71-0.58-0.93-1.23-0.91c-0.65-0.42-1.17-0.98-1.62-1.59c-0.17-0.84-0.34-1.67,0.01-2.5
			c0.22-0.52,1.03-0.74,0.77-1.51c-0.56-1.7-0.97-3.45-1.69-5.1c-0.09-1.01-0.41-1.68-1.55-2.06c-1.58-0.53-2.21-2.24-1.65-3.77
			c0.26-0.72,0.88-1.14,1.36-1.68c0.83,0,1.29-0.33,1.48-1.23c0.52-2.35,1.15-4.68,1.76-7.02c0.1-0.38,0.19-0.65-0.15-1.02
			c-1.42-1.6-1.36-3.28,0.06-4.44c1.5-1.21,3.18-0.93,4.47,0.76c0.07,0.09,0.18,0.14,0.27,0.21c0.1,0.04,0.21,0.12,0.31,0.11
			c3.63-0.37,7.27-0.76,10.9-1.14c0.93,0.15,1.82-0.26,2.74-0.21c0.38,0.02,0.46-0.31,0.6-0.59c0.57-1.11,1.44-1.75,2.74-1.73
			c1.24,0.02,2.09,0.6,2.63,1.7c0.14,0.29,0.21,0.65,0.69,0.64c1.15-0.03,2.28,0.35,3.43,0.22c0.15,0.04,0.29,0.11,0.44,0.12
			c3.31,0.34,6.62,0.67,9.93,1.01c0.33,0.03,0.5-0.13,0.57-0.43c1.54-1.51,2.59-1.78,3.96-1.01c1.83,1.03,2.17,3.26,0.66,4.76
			c-0.4,0.4-0.55,0.69-0.37,1.28c0.54,1.75,0.99,3.52,1.47,5.29c0.15,0.93-0.05,1.98,0.91,2.63c0.31,0.17,0.61,0.33,0.92,0.5
			c1.59,2.12,1.28,3.86-0.9,5.11c-0.56,0-0.65,0.42-0.78,0.83c-0.41,1.32-0.77,2.66-1.27,3.94c-0.6,1.52-0.91,2.95,0.45,4.23
			c0.07,0.68,0.07,1.36-0.11,2.04c-0.29,0.38-0.58,0.76-0.87,1.14c-1.91,0.35-2.53,1.76-2.85,3.44c-0.08,0.45-0.21,0.9-0.42,1.3
			c-0.3,0.61-0.03,0.92,0.48,1.16c1.29,2.07,1.01,3.81-0.82,4.79C110.07,118.13,109.07,117.94,108.09,117.5z M91.95,86.22
			C91.96,86.22,91.96,86.22,91.95,86.22c0.01-1.5,0.01-3.01,0.01-4.51c0-1.53,0.35-3.13-1.45-4.09c-0.43-0.23-0.72-0.56-1.27-0.5
			c-3.86,0.39-7.73,0.93-11.6,1.07c-2.24,0.08-2.8,2.43-4.68,2.82c-0.1,0.02-0.14,0.34-0.19,0.52c-0.61,2.34-1.21,4.69-1.8,7.04
			c-0.08,0.33-0.18,0.66,0.02,1c1.09,1.92,1.09,1.92,3.46,2.42c0.53,0.11,1.05,0.24,1.58,0.35c4.37,0.86,8.75,1.71,13.12,2.56
			c1.4,0.27,2.8-0.89,2.8-2.31C91.96,90.46,91.95,88.34,91.95,86.22z M93.83,86.21c0,2.12,0,4.24,0,6.36c0,1.56,1.3,2.6,2.84,2.3
			c4.9-0.98,9.8-1.97,14.71-2.91c0.99-0.19,1.96-0.25,2.23-1.52c0.07-0.33,0.44-0.64,0.74-0.86c0.45-0.31,0.53-0.61,0.39-1.15
			c-0.62-2.3-1.05-4.67-1.81-6.92c-0.48-1.41-2.29-1.78-3.08-3.06c-0.01-0.02-0.07-0.01-0.11-0.01c-0.73-0.07-1.45-0.15-2.18-0.22
			c-3.6-0.35-7.21-0.68-10.8-1.05c-1.16-0.12-2.91,1.28-2.92,2.44C93.83,81.81,93.83,84.01,93.83,86.21z M100.35,113.97
			c1.51,0,3.01-0.01,4.51,0c1.11,0.01,2.26,0.22,2.81-1.15c0.06-0.15,0.28-0.29,0.45-0.34c1.2-0.3,1.5-1.24,1.76-2.28
			c0.21-0.86,0.52-1.69,0.79-2.53c0.12-0.38,0.2-0.74-0.14-1.07c-0.5-0.47-0.69-1.1-0.79-1.76c-0.06-0.44-0.2-0.76-0.69-0.95
			c-4.42-1.7-8.83-3.44-13.25-5.14c-0.88-0.34-1.97,0.44-1.97,1.38c-0.01,4.32,0.01,8.64-0.02,12.97c-0.01,0.76,0.32,0.88,0.97,0.87
			C96.64,113.95,98.49,113.97,100.35,113.97z M91.96,106.72C91.96,106.72,91.96,106.72,91.96,106.72c0-2.12,0.01-4.24-0.01-6.37
			c-0.01-1.26-1.01-1.94-2.14-1.46c-4.28,1.84-8.56,3.68-12.84,5.53c-0.24,0.1-0.58,0.21-0.67,0.41c-0.64,1.5-1.85,2.93-0.65,4.71
			c0.21,0.31,0.27,0.72,0.35,1.09c0.19,0.83,0.51,1.46,1.49,1.61c0.56,0.09,1.06,0.51,1.32,1.05c0.26,0.52,0.62,0.69,1.19,0.68
			c3.67-0.02,7.33-0.03,11,0c0.79,0.01,0.98-0.28,0.96-1.01C91.93,110.89,91.96,108.8,91.96,106.72z M89.29,97.06
			c-0.01-0.07-0.01-0.15-0.02-0.22c-1.5-0.3-3-0.6-4.51-0.9c-4.03-0.8-8.06-1.6-12.1-2.38c-1.28-0.25-1.88,0.46-1.49,1.71
			c0.42,1.36,0.91,2.7,1.28,4.07c0.33,1.23,0.82,2.01,2.11,2.72c1.32,0.73,2.14,0.43,3.2-0.03c0.49-0.21,0.99-0.43,1.48-0.64
			C82.6,99.94,85.95,98.5,89.29,97.06z M96.26,96.87c4.83,1.88,9.37,3.67,13.93,5.41c0.71,0.27,2.43-0.75,2.66-1.48
			c0.56-1.76,1.1-3.52,1.64-5.29c0.38-1.22-0.48-2.11-1.77-1.85c-0.57,0.11-1.13,0.21-1.7,0.32
			C106.2,94.93,101.39,95.87,96.26,96.87z M80.85,115.95c-0.03,0.08-0.05,0.17-0.08,0.25c3.19,1.68,6.37,3.37,9.57,5.02
			c0.68,0.35,1.6-0.27,1.62-1.04c0.03-1.12-0.02-2.24,0.01-3.35c0.02-0.62-0.16-0.9-0.84-0.89
			C87.7,115.96,84.28,115.95,80.85,115.95z M105.02,116.18c-0.02-0.08-0.04-0.15-0.06-0.23c-3.43,0-6.86,0.01-10.3-0.01
			c-0.56,0-0.86,0.12-0.84,0.76c0.04,1.16-0.01,2.32,0.02,3.47c0.02,0.83,0.87,1.41,1.59,1.04
			C98.64,119.56,101.82,117.86,105.02,116.18z"/>
		<path class="st102" d="M138.96,143.16c-6.16-0.02-12.32-0.02-18.49-0.05c-1.63-0.01-2.84-0.89-3.23-2.27
			c-0.59-2.13,0.88-4.12,3.16-4.21c1.42-0.06,2.85-0.03,4.27-0.05c4.59,0.02,9.18,0.01,13.77,0.07c0.92,0.01,0.84-0.51,0.84-1.11
			c-0.01-5.9-0.01-11.8,0-17.7c0-0.5,0.02-1.01,0.11-1.49c0.35-1.76,1.74-2.81,3.49-2.67c1.64,0.13,2.86,1.43,2.86,3.2
			c0.02,6.21,0.01,12.42,0.01,18.63c0,1.47,0.02,2.93-0.01,4.4c-0.04,1.91-1.3,3.15-3.22,3.21
			C141.35,143.15,140.16,143.15,138.96,143.16z"/>
		<path class="st102" d="M62.41,136.58c1.35,0.01,2.7,0.02,4.05,0.04c2.08,0.04,3.54,1.42,3.53,3.32c-0.02,1.87-1.43,3.17-3.5,3.17
			c-6.1,0.02-12.19,0.03-18.29,0.04c-1.2-0.01-2.39-0.01-3.58-0.04c-1.98-0.05-3.33-1.37-3.33-3.37c-0.02-7.56-0.02-15.12,0-22.67
			c0.01-2.01,1.45-3.43,3.31-3.4c1.82,0.03,3.16,1.45,3.16,3.42c0.01,6.09,0.03,12.19-0.02,18.28c-0.01,0.99,0.2,1.32,1.25,1.3
			C53.46,136.58,57.94,136.6,62.41,136.58z"/>
		<path class="st102" d="M48.09,38.25c6.16,0.02,12.32,0.02,18.49,0.05c1.63,0.01,2.84,0.89,3.23,2.27
			c0.59,2.13-0.88,4.12-3.16,4.21c-1.42,0.06-2.85,0.03-4.27,0.05c-4.59-0.02-9.18-0.01-13.77-0.07c-0.92-0.01-0.84,0.51-0.84,1.11
			c0.01,5.9,0.01,11.8,0,17.7c0,0.5-0.02,1.01-0.11,1.49c-0.35,1.76-1.74,2.81-3.49,2.67c-1.64-0.13-2.86-1.43-2.86-3.2
			c-0.02-6.21-0.01-12.42-0.01-18.63c0-1.47-0.02-2.93,0.01-4.4c0.04-1.91,1.3-3.15,3.22-3.21C45.7,38.26,46.9,38.26,48.09,38.25z"
			/>
		<path class="st102" d="M124.64,44.83c-1.35-0.01-2.7-0.02-4.05-0.04c-2.08-0.04-3.54-1.42-3.53-3.32c0.02-1.87,1.43-3.17,3.5-3.17
			c6.1-0.02,12.19-0.03,18.29-0.04c1.2,0.01,2.39,0.01,3.58,0.04c1.98,0.05,3.33,1.37,3.33,3.37c0.02,7.56,0.02,15.12,0,22.67
			c-0.01,2.01-1.45,3.43-3.31,3.4c-1.82-0.03-3.16-1.45-3.16-3.42c-0.01-6.09-0.03-12.19,0.02-18.28c0.01-0.99-0.2-1.32-1.25-1.3
			C133.59,44.83,129.12,44.81,124.64,44.83z"/>
		<path class="st165" d="M43.82,153.99c33.17,0,66.34,0,99.51,0.01c0.14,1,0.07,2,0.04,3.01c-0.06,0.06-0.12,0.13-0.18,0.19
			c-0.46,0.01-0.92,0.04-1.39,0.04c-32.13,0-64.27,0-96.4,0c-1.66,0-1.67,0-1.66-1.63C43.75,155.06,43.79,154.52,43.82,153.99z"/>
		<path class="st104" d="M115.54,105.75c0.18-0.67,0.17-1.35,0.11-2.04c1.12-2.9,1.61-5.91,1.61-9c2.18-1.25,2.48-2.99,0.9-5.11
			c0.76-0.56,1.67-0.69,2.54-0.96c1.67-0.25,2.78,0.59,3.42,1.99c1.82,3.95,2.25,7.94,0.09,11.95c-1.49,2.76-4.71,3.71-7.4,3.34
			C116.37,105.86,115.95,105.81,115.54,105.75z"/>
		<path class="st104" d="M67.71,89.18c-0.48,0.54-1.1,0.96-1.36,1.68c-0.55,1.52,0.07,3.24,1.65,3.77c1.13,0.38,1.46,1.05,1.55,2.06
			c0,0.68,0.01,1.35,0.1,2.04c0.2,1.54,0.81,3,0.82,4.57c-0.35,0.83-0.18,1.67-0.01,2.5c-3.07,0.58-5.84-0.06-7.73-2.62
			c-1.63-2.21-2.04-4.88-1.7-7.59c0.18-1.47,0.51-2.92,1.12-4.32c0.75-1.72,1.78-2.86,3.81-2.65C66.55,88.81,67.13,89,67.71,89.18z"
			/>
		<path class="st98" d="M79.05,117.5c0.16,0.11,0.32,0.21,0.47,0.32C79.27,117.85,79.09,117.78,79.05,117.5z"/>
		<path class="st99" d="M143.19,157.19c0.06-0.06,0.12-0.13,0.18-0.19C143.4,157.15,143.34,157.21,143.19,157.19z"/>
		<path class="st100" d="M117.23,89.11c-0.95-0.65-0.76-1.7-0.91-2.63C116.8,87.29,116.96,88.21,117.23,89.11z"/>
		<g>
			<path class="st104" d="M96.26,96.87c5.13-1.01,9.95-1.95,14.76-2.89c0.57-0.11,1.13-0.21,1.7-0.32c1.29-0.26,2.14,0.63,1.77,1.85
				c-0.54,1.76-1.09,3.53-1.64,5.29c-0.23,0.73-1.95,1.76-2.66,1.48C105.63,100.54,101.09,98.76,96.26,96.87z"/>
			<g>
				<path class="st104" d="M111.88,112.8c-0.51-0.24-0.78-0.55-0.48-1.16c0.2-0.4,0.33-0.86,0.42-1.3c0.32-1.68,0.94-3.09,2.85-3.44
					c-0.53,1.7-1.43,3.22-2.27,4.77C112.2,112.03,111.95,112.37,111.88,112.8z"/>
				<path class="st104" d="M72.09,107.39c0.65-0.02,1.07,0.2,1.23,0.91c0.24,1.04,0.57,2.05,0.86,3.07
					C73.12,110.24,72.71,108.76,72.09,107.39z"/>
				<path class="st104" d="M110.59,76.15c-0.07,0.3-0.24,0.46-0.57,0.43c-3.31-0.34-6.62-0.67-9.93-1.01
					c-0.15-0.02-0.29-0.08-0.44-0.12c1.56-0.6,3.13-1.2,4.68-1.82c1.59-0.63,2.99-0.2,4.3,0.76
					C109.35,74.91,110.05,75.44,110.59,76.15z"/>
				<path class="st104" d="M86.82,75.42c-3.63,0.38-7.27,0.76-10.9,1.14c-0.1,0.01-0.21-0.07-0.31-0.11
					c0.95-0.95,1.93-1.86,3.11-2.54c1.06-0.6,2.15-0.76,3.3-0.32C83.62,74.19,85.22,74.81,86.82,75.42z"/>
				<path class="st104" d="M91.95,86.22c0,2.12,0,4.24,0,6.36c0,1.42-1.4,2.58-2.8,2.31c-4.38-0.85-8.75-1.7-13.12-2.56
					c-0.53-0.1-1.05-0.24-1.58-0.35c-2.37-0.5-2.36-0.5-3.46-2.42c-0.2-0.35-0.1-0.68-0.02-1c0.59-2.35,1.2-4.69,1.8-7.04
					c0.05-0.19,0.1-0.5,0.19-0.52c1.88-0.38,2.43-2.74,4.68-2.82c3.87-0.14,7.74-0.68,11.6-1.07c0.55-0.06,0.84,0.27,1.27,0.5
					c1.8,0.97,1.45,2.57,1.45,4.09C91.97,83.21,91.96,84.71,91.95,86.22C91.96,86.22,91.96,86.22,91.95,86.22z"/>
				<path class="st104" d="M93.83,86.21c0-2.2,0-4.4,0-6.6c0-1.16,1.76-2.56,2.92-2.44c3.6,0.37,7.2,0.7,10.8,1.05
					c0.73,0.07,1.45,0.15,2.18,0.22c0.04,0,0.1-0.01,0.11,0.01c0.79,1.27,2.6,1.65,3.08,3.06c0.77,2.25,1.19,4.61,1.81,6.92
					c0.15,0.54,0.06,0.84-0.39,1.15c-0.31,0.21-0.67,0.53-0.74,0.86c-0.27,1.27-1.24,1.32-2.23,1.52
					c-4.91,0.95-9.81,1.94-14.71,2.91c-1.55,0.31-2.84-0.73-2.84-2.3C93.83,90.46,93.83,88.33,93.83,86.21z"/>
				<path class="st104" d="M100.35,113.97c-1.85,0-3.7-0.02-5.56,0.01c-0.65,0.01-0.97-0.11-0.97-0.87
					c0.03-4.32,0.01-8.64,0.02-12.97c0-0.94,1.1-1.72,1.97-1.38c4.42,1.7,8.82,3.44,13.25,5.14c0.49,0.19,0.63,0.51,0.69,0.95
					c0.09,0.66,0.28,1.28,0.79,1.76c0.35,0.33,0.26,0.69,0.14,1.07c-0.27,0.84-0.58,1.67-0.79,2.53c-0.25,1.04-0.56,1.98-1.76,2.28
					c-0.17,0.04-0.39,0.18-0.45,0.34c-0.54,1.37-1.7,1.17-2.81,1.15C103.36,113.95,101.85,113.97,100.35,113.97z"/>
				<path class="st104" d="M91.96,106.72c0,2.08-0.02,4.17,0.01,6.25c0.01,0.73-0.17,1.02-0.96,1.01c-3.66-0.04-7.33-0.03-11,0
					c-0.57,0-0.93-0.16-1.19-0.68c-0.26-0.54-0.76-0.96-1.32-1.05c-0.98-0.15-1.3-0.78-1.49-1.61c-0.08-0.37-0.15-0.79-0.35-1.09
					c-1.2-1.77,0-3.21,0.65-4.71c0.08-0.2,0.43-0.3,0.67-0.41c4.28-1.85,8.56-3.69,12.84-5.53c1.13-0.48,2.13,0.19,2.14,1.46
					C91.96,102.48,91.95,104.6,91.96,106.72C91.96,106.72,91.96,106.72,91.96,106.72z"/>
				<path class="st104" d="M89.29,97.06c-3.35,1.44-6.69,2.88-10.04,4.33c-0.49,0.21-0.99,0.43-1.48,0.64
					c-1.06,0.46-1.87,0.76-3.2,0.03c-1.29-0.71-1.78-1.5-2.11-2.72c-0.37-1.37-0.86-2.71-1.28-4.07c-0.39-1.25,0.21-1.95,1.49-1.71
					c4.04,0.78,8.07,1.59,12.1,2.38c1.5,0.3,3.01,0.6,4.51,0.9C89.28,96.91,89.29,96.98,89.29,97.06z"/>
				<path class="st104" d="M80.85,115.95c3.43,0,6.86,0.01,10.28-0.01c0.68-0.01,0.86,0.27,0.84,0.89
					c-0.03,1.12,0.02,2.24-0.01,3.35c-0.02,0.77-0.94,1.38-1.62,1.04c-3.2-1.65-6.38-3.34-9.57-5.02
					C80.79,116.12,80.82,116.03,80.85,115.95z"/>
				<path class="st104" d="M105.02,116.18c-3.19,1.69-6.38,3.39-9.58,5.04c-0.72,0.37-1.57-0.21-1.59-1.04
					c-0.03-1.16,0.02-2.32-0.02-3.47c-0.02-0.64,0.28-0.76,0.84-0.76c3.43,0.02,6.86,0.01,10.3,0.01
					C104.98,116.03,105,116.1,105.02,116.18z"/>
			</g>
			<path class="st104" d="M117.25,94.71c0,3.1-0.48,6.11-1.61,9c-1.36-1.29-1.05-2.71-0.45-4.23c0.5-1.28,0.86-2.62,1.27-3.94
				C116.6,95.13,116.69,94.71,117.25,94.71z"/>
			<path class="st104" d="M70.47,103.29c-0.02-1.57-0.62-3.03-0.82-4.57c-0.09-0.69-0.1-1.36-0.1-2.04c0.72,1.65,1.13,3.4,1.69,5.1
				C71.5,102.55,70.69,102.77,70.47,103.29z"/>
		</g>
	</g>
</g>
</svg>
