<svg width="146" height="149" viewBox="0 0 146 149" fill="none" xmlns="http://www.w3.org/2000/svg">
<g opacity="0.75">
<path opacity="0.75" d="M140.52 1.25H1.73999V143.73H140.52V1.25Z" fill="#004543" stroke="#004543" stroke-width="2" stroke-miterlimit="10"/>
</g>
<path d="M144.52 5.25H5.73999V147.73H144.52V5.25Z" fill="white" stroke="#388D99" stroke-width="2" stroke-miterlimit="10"/>
<path d="M47.57 74.3901C47.08 69.8701 47.2 65.38 48.27 60.94C48.46 60.17 48.33 59.5801 47.86 58.9101C46.37 56.8201 45.81 54.3701 45.47 51.8701C44.94 48.0501 45.07 44.2501 46.07 40.5201C46.26 39.8201 46.54 39.1301 46.9 38.5001C47.72 37.0601 48.52 36.88 49.76 37.96C51.41 39.39 53.17 40.49 55.41 40.59C57.07 40.66 58.72 40.6101 60.38 40.5001C66.66 40.0801 72.94 39.69 79.23 39.96C82.44 40.1 85.6 40.5901 88.52 42.0601C90.43 43.0301 91.98 44.37 92.71 46.47C92.87 46.94 93.18 47.2501 93.55 47.5401C98.75 51.7201 101.13 57.3901 102.11 63.8001C102.65 67.3301 102.56 70.8701 102.3 74.4201C101.43 74.6801 100.52 74.8201 99.76 75.3801C99.45 75.2101 99.15 75.0501 98.84 74.8801C98.57 73.9901 98.42 73.0601 97.93 72.2501C97.45 70.4801 97.01 68.71 96.46 66.96C96.28 66.37 96.42 66.0801 96.83 65.6801C98.33 64.1701 98 61.9501 96.17 60.9201C94.8 60.1501 93.75 60.4201 92.21 61.9301C91.67 61.2201 90.97 60.6901 90.26 60.1701C88.96 59.2201 87.55 58.7801 85.96 59.4101C84.4 60.0301 82.84 60.62 81.28 61.23C80.12 61.37 78.99 60.9901 77.85 61.0101C77.37 61.0201 77.3 60.6601 77.16 60.3701C76.62 59.2701 75.77 58.6901 74.53 58.6701C73.23 58.6501 72.36 59.2901 71.79 60.4001C71.65 60.6801 71.57 61.01 71.19 60.99C70.26 60.94 69.38 61.34 68.45 61.2C66.85 60.59 65.25 59.97 63.65 59.36C62.5 58.92 61.4 59.0801 60.35 59.6801C59.17 60.3501 58.2 61.27 57.24 62.22C57.15 62.15 57.04 62.1001 56.97 62.0101C55.68 60.3301 54 60.0401 52.5 61.2501C51.07 62.4101 51.02 64.08 52.44 65.69C52.77 66.07 52.68 66.33 52.59 66.71C51.98 69.04 51.35 71.37 50.83 73.73C50.63 74.63 50.18 74.96 49.35 74.96C48.73 74.77 48.15 74.5801 47.57 74.3901Z" fill="#00423C"/>
<path d="M89.69 103.27C88.91 103.71 88.65 104.35 88.63 105.26C88.57 108.03 88.72 110.78 88.92 113.53C89.07 115.5 90.34 116.81 92.16 117.48C94.03 118.17 95.94 118.74 97.82 119.38C98.17 119.5 98.59 119.5 98.84 119.85C98.75 120.06 98.67 120.28 98.58 120.49C93.99 130.57 86.17 136.12 75.1 136.68C68.05 137.04 61.85 134.54 56.64 129.79C53.76 127.17 51.49 124.07 50.19 120.34C52.02 119.35 54.04 118.85 56.01 118.27C60.36 116.99 61.78 115.67 61.55 110.54C61.51 109.69 61.55 108.84 61.55 108C61.54 106.51 61.69 105.01 61.15 103.57C63.88 104.99 66.62 106.39 69.34 107.82C70.41 108.38 71.83 108.65 71.61 110.38C71.6 110.48 71.7 110.59 71.76 110.69C72.41 111.91 73.64 112.59 74.89 112.41C76.11 112.24 77.24 111.12 77.45 109.77C77.53 109.25 77.6 108.85 78.14 108.57C81.59 106.78 85.03 104.96 88.45 103.13C88.95 102.86 89.32 102.88 89.69 103.27Z" fill="#D8E8EC"/>
<path d="M50.2 120.34C51.5 124.07 53.77 127.17 56.65 129.79C61.86 134.54 68.06 137.04 75.11 136.68C86.18 136.12 93.99 130.58 98.59 120.49C98.69 120.28 98.77 120.06 98.85 119.85C101.34 120.65 103.86 121.37 106.29 122.36C104.87 122.37 103.44 122.35 102.02 122.41C99.74 122.5 98.26 124.49 98.86 126.62C99.25 128 100.46 128.88 102.09 128.89C108.25 128.92 114.41 128.92 120.58 128.94C123.34 132.02 124.84 135.61 124.95 139.77C91.78 139.77 58.61 139.77 25.44 139.76C25.44 135.56 26.99 131.99 29.82 128.93C35.92 128.92 42.01 128.91 48.11 128.89C50.18 128.88 51.59 127.58 51.61 125.72C51.63 123.83 50.17 122.44 48.08 122.4C46.73 122.37 45.38 122.37 44.03 122.36C46.04 121.57 48.08 120.85 50.2 120.34Z" fill="#92C3CD"/>
<path d="M89.69 103.27C89.32 102.89 88.95 102.86 88.46 103.12C85.03 104.96 81.6 106.77 78.15 108.56C77.61 108.84 77.54 109.24 77.46 109.76C77.25 111.11 76.12 112.23 74.9 112.4C73.65 112.57 72.42 111.9 71.77 110.68C71.72 110.58 71.61 110.47 71.62 110.37C71.83 108.65 70.41 108.38 69.35 107.81C66.63 106.38 63.89 104.97 61.16 103.56L61.13 103.59C60.97 103.48 60.81 103.38 60.66 103.27C60.3 102.93 59.96 102.98 59.53 103.22C58.16 103.99 56.73 103.76 55.79 102.68C54.82 101.56 54.72 100.1 55.69 98.89C56.2 98.25 56.15 97.75 55.79 97.14C55.5 96.12 55.17 95.0999 54.93 94.0699C54.77 93.3599 54.35 93.14 53.7 93.16C53.05 92.74 52.53 92.1799 52.08 91.5699C51.91 90.7299 51.74 89.8999 52.09 89.0699C52.31 88.5499 53.12 88.33 52.86 87.56C52.3 85.86 51.89 84.1099 51.17 82.4599C51.08 81.4499 50.76 80.78 49.62 80.4C48.04 79.87 47.41 78.16 47.97 76.63C48.23 75.91 48.85 75.4899 49.33 74.9499C50.17 74.9499 50.62 74.6199 50.81 73.7199C51.33 71.3699 51.96 69.0399 52.57 66.6999C52.67 66.3199 52.76 66.05 52.42 65.68C51 64.08 51.06 62.4 52.48 61.24C53.98 60.03 55.66 60.31 56.95 62C57.02 62.09 57.13 62.1399 57.22 62.2099C57.32 62.2499 57.43 62.3299 57.53 62.3199C61.16 61.9499 64.8 61.56 68.43 61.18C69.36 61.33 70.25 60.9199 71.17 60.9699C71.55 60.9899 71.63 60.66 71.77 60.38C72.34 59.27 73.21 58.63 74.51 58.65C75.75 58.67 76.6 59.2499 77.14 60.3499C77.28 60.6399 77.35 61 77.83 60.99C78.98 60.96 80.11 61.3399 81.26 61.2099C81.41 61.2499 81.55 61.3199 81.7 61.3299C85.01 61.6699 88.32 61.9999 91.63 62.3399C91.96 62.3699 92.13 62.21 92.2 61.91C93.74 60.4 94.79 60.13 96.16 60.9C97.99 61.93 98.33 64.16 96.82 65.66C96.42 66.06 96.27 66.3499 96.45 66.9399C96.99 68.6899 97.44 70.4599 97.92 72.2299C98.07 73.1599 97.87 74.21 98.83 74.86C99.14 75.03 99.44 75.19 99.75 75.36C101.34 77.48 101.03 79.2199 98.85 80.4699C98.29 80.4699 98.2 80.89 98.07 81.3C97.66 82.62 97.3 83.96 96.8 85.24C96.2 86.76 95.89 88.1899 97.25 89.4699C97.32 90.1499 97.32 90.83 97.14 91.51C96.85 91.89 96.56 92.27 96.27 92.65C94.36 93 93.74 94.4099 93.42 96.0899C93.34 96.5399 93.21 96.99 93 97.39C92.7 98 92.97 98.31 93.48 98.55C94.77 100.62 94.49 102.36 92.66 103.34C91.67 103.91 90.67 103.71 89.69 103.27ZM73.56 71.99C73.57 70.49 73.57 68.9799 73.57 67.4799C73.57 65.9499 73.92 64.35 72.12 63.39C71.69 63.16 71.4 62.83 70.85 62.89C66.99 63.28 63.12 63.8199 59.25 63.9599C57.01 64.0399 56.45 66.39 54.57 66.78C54.47 66.8 54.43 67.12 54.38 67.3C53.77 69.64 53.17 71.9899 52.58 74.3399C52.5 74.6699 52.4 74.9999 52.6 75.3399C53.69 77.2599 53.69 77.26 56.06 77.76C56.59 77.87 57.11 78 57.64 78.11C62.01 78.97 66.39 79.82 70.76 80.67C72.16 80.94 73.56 79.78 73.56 78.36C73.56 76.23 73.56 74.11 73.56 71.99ZM75.43 71.9799C75.43 74.0999 75.43 76.2199 75.43 78.3399C75.43 79.8999 76.73 80.94 78.27 80.64C83.17 79.66 88.07 78.6699 92.98 77.7299C93.97 77.5399 94.94 77.4799 95.21 76.2099C95.28 75.8799 95.65 75.5699 95.95 75.3499C96.4 75.0399 96.48 74.7399 96.34 74.1999C95.72 71.8999 95.29 69.53 94.53 67.28C94.05 65.87 92.24 65.4999 91.45 64.2199C91.44 64.1999 91.38 64.2099 91.34 64.2099C90.61 64.1399 89.89 64.06 89.16 63.99C85.56 63.64 81.95 63.3099 78.36 62.9399C77.2 62.8199 75.45 64.22 75.44 65.38C75.43 67.59 75.44 69.7899 75.43 71.9799ZM81.95 99.74C83.46 99.74 84.96 99.73 86.46 99.74C87.57 99.75 88.72 99.9599 89.27 98.5899C89.33 98.4399 89.55 98.3 89.72 98.25C90.92 97.95 91.22 97.0099 91.48 95.9699C91.69 95.1099 92 94.2799 92.27 93.4399C92.39 93.0599 92.47 92.7 92.13 92.37C91.63 91.9 91.44 91.27 91.34 90.61C91.28 90.17 91.14 89.85 90.65 89.66C86.23 87.96 81.82 86.22 77.4 84.52C76.52 84.18 75.43 84.96 75.43 85.9C75.42 90.22 75.44 94.54 75.41 98.87C75.4 99.63 75.73 99.75 76.38 99.74C78.24 99.72 80.1 99.74 81.95 99.74ZM73.56 92.49C73.56 90.37 73.57 88.25 73.55 86.12C73.54 84.86 72.54 84.18 71.41 84.66C67.13 86.5 62.85 88.3399 58.57 90.1899C58.33 90.2899 57.99 90.3999 57.9 90.5999C57.26 92.0999 56.05 93.53 57.25 95.31C57.46 95.62 57.52 96.03 57.6 96.4C57.79 97.23 58.11 97.86 59.09 98.01C59.65 98.1 60.15 98.52 60.41 99.06C60.67 99.58 61.03 99.75 61.6 99.74C65.27 99.72 68.93 99.71 72.6 99.74C73.39 99.75 73.58 99.4599 73.56 98.7299C73.54 96.6599 73.56 94.58 73.56 92.49ZM70.9 82.8299C70.89 82.7599 70.89 82.68 70.88 82.61C69.38 82.31 67.88 82.0099 66.37 81.7099C62.34 80.9099 58.31 80.1099 54.27 79.3299C52.99 79.0799 52.39 79.79 52.78 81.04C53.2 82.4 53.69 83.74 54.06 85.11C54.39 86.34 54.88 87.1199 56.17 87.8299C57.49 88.5599 58.31 88.26 59.37 87.8C59.86 87.59 60.36 87.37 60.85 87.16C64.2 85.71 67.55 84.2699 70.9 82.8299ZM77.86 82.65C82.69 84.53 87.23 86.32 91.79 88.06C92.5 88.33 94.22 87.3099 94.45 86.5799C95.01 84.8199 95.55 83.06 96.09 81.29C96.47 80.07 95.61 79.1799 94.32 79.4399C93.75 79.5499 93.19 79.65 92.62 79.76C87.81 80.7 82.99 81.64 77.86 82.65ZM62.45 101.72C62.42 101.8 62.4 101.89 62.37 101.97C65.56 103.65 68.74 105.34 71.94 106.99C72.62 107.34 73.54 106.72 73.56 105.95C73.59 104.83 73.54 103.71 73.57 102.6C73.59 101.98 73.41 101.7 72.73 101.71C69.31 101.74 65.88 101.72 62.45 101.72ZM86.62 101.95C86.6 101.87 86.58 101.8 86.56 101.72C83.13 101.72 79.7 101.73 76.26 101.71C75.7 101.71 75.4 101.83 75.42 102.47C75.46 103.63 75.41 104.79 75.44 105.94C75.46 106.77 76.3101 107.35 77.0301 106.98C80.2401 105.33 83.43 103.63 86.62 101.95Z" fill="#388D99"/>
<path d="M120.57 128.94C114.41 128.92 108.25 128.92 102.08 128.89C100.45 128.88 99.24 128 98.85 126.62C98.26 124.49 99.73 122.5 102.01 122.41C103.43 122.35 104.86 122.38 106.28 122.36C110.87 122.38 115.46 122.37 120.05 122.43C120.97 122.44 120.89 121.92 120.89 121.32C120.88 115.42 120.88 109.52 120.89 103.62C120.89 103.12 120.91 102.61 121 102.13C121.35 100.37 122.74 99.32 124.49 99.46C126.13 99.59 127.35 100.89 127.35 102.66C127.37 108.87 127.36 115.08 127.36 121.29C127.36 122.76 127.38 124.22 127.35 125.69C127.31 127.6 126.05 128.84 124.13 128.9C122.96 128.92 121.76 128.92 120.57 128.94Z" fill="#00423C"/>
<path d="M44.01 122.35C45.36 122.36 46.71 122.37 48.06 122.39C50.14 122.43 51.6 123.81 51.59 125.71C51.57 127.58 50.16 128.88 48.09 128.88C41.99 128.9 35.9 128.91 29.8 128.92C28.6 128.91 27.41 128.91 26.22 128.88C24.24 128.83 22.89 127.51 22.89 125.51C22.87 117.95 22.87 110.39 22.89 102.84C22.9 100.83 24.34 99.4099 26.2 99.4399C28.02 99.4699 29.36 100.89 29.36 102.86C29.37 108.95 29.39 115.05 29.34 121.14C29.33 122.13 29.54 122.46 30.59 122.44C35.07 122.35 39.54 122.37 44.01 122.35Z" fill="#00423C"/>
<path d="M29.69 24.02C35.85 24.04 42.01 24.0399 48.18 24.0699C49.81 24.0799 51.0199 24.96 51.4099 26.34C51.9999 28.47 50.53 30.46 48.25 30.55C46.83 30.61 45.4 30.58 43.9799 30.6C39.3899 30.58 34.8 30.59 30.21 30.53C29.29 30.52 29.37 31.04 29.37 31.64C29.38 37.54 29.38 43.44 29.37 49.34C29.37 49.84 29.35 50.35 29.26 50.83C28.91 52.59 27.52 53.64 25.77 53.5C24.13 53.37 22.9099 52.07 22.9099 50.3C22.8899 44.09 22.9 37.88 22.9 31.67C22.9 30.2 22.8799 28.74 22.9099 27.27C22.9499 25.36 24.21 24.1201 26.13 24.0601C27.3 24.0301 28.5 24.03 29.69 24.02Z" fill="#00423C"/>
<path d="M106.25 30.6C104.9 30.59 103.55 30.5801 102.2 30.5601C100.12 30.5201 98.66 29.14 98.67 27.24C98.69 25.37 100.1 24.0699 102.17 24.0699C108.27 24.0499 114.36 24.04 120.46 24.03C121.66 24.04 122.85 24.0399 124.04 24.0699C126.02 24.1199 127.37 25.4399 127.37 27.4399C127.39 34.9999 127.39 42.56 127.37 50.11C127.36 52.12 125.92 53.54 124.06 53.51C122.24 53.48 120.9 52.06 120.9 50.09C120.89 44 120.87 37.9001 120.92 31.8101C120.93 30.8201 120.72 30.49 119.67 30.51C115.19 30.6 110.72 30.58 106.25 30.6Z" fill="#00423C"/>
<path d="M25.42 139.76C58.59 139.76 91.76 139.76 124.93 139.77C125.07 140.77 125 141.77 124.97 142.78C124.91 142.84 124.85 142.91 124.79 142.97C124.33 142.98 123.87 143.01 123.4 143.01C91.2701 143.01 59.13 143.01 27 143.01C25.34 143.01 25.3301 143.01 25.3401 141.38C25.3501 140.83 25.4 140.29 25.42 139.76Z" fill="#388D99"/>
<path d="M97.14 91.52C97.32 90.85 97.31 90.17 97.25 89.48C98.37 86.58 98.86 83.57 98.86 80.48C101.04 79.23 101.34 77.49 99.76 75.37C100.52 74.81 101.43 74.6801 102.3 74.4101C103.97 74.1601 105.08 75 105.72 76.4C107.54 80.35 107.97 84.34 105.81 88.35C104.32 91.11 101.1 92.06 98.41 91.69C97.98 91.64 97.56 91.58 97.14 91.52Z" fill="#D8E8EC"/>
<path d="M49.32 74.9599C48.84 75.4999 48.22 75.92 47.96 76.64C47.41 78.16 48.03 79.88 49.61 80.41C50.74 80.79 51.07 81.4599 51.16 82.4699C51.16 83.1499 51.17 83.82 51.26 84.51C51.46 86.05 52.07 87.5099 52.08 89.0799C51.73 89.9099 51.9 90.7499 52.07 91.5799C49 92.1599 46.23 91.5199 44.34 88.9599C42.71 86.7499 42.3 84.08 42.64 81.37C42.82 79.9 43.15 78.45 43.76 77.05C44.51 75.33 45.54 74.19 47.57 74.4C48.15 74.58 48.73 74.7699 49.32 74.9599Z" fill="#D8E8EC"/>
<path d="M60.65 103.27C60.81 103.38 60.97 103.48 61.12 103.59C60.87 103.62 60.69 103.55 60.65 103.27Z" fill="#F2DED1"/>
<path d="M124.79 142.96C124.85 142.9 124.91 142.83 124.97 142.77C125 142.92 124.94 142.98 124.79 142.96Z" fill="#D17A5B"/>
<path d="M98.83 74.88C97.88 74.23 98.07 73.18 97.92 72.25C98.41 73.06 98.56 73.99 98.83 74.88Z" fill="#CECED8"/>
<path d="M77.86 82.6501C82.99 81.6401 87.81 80.7001 92.62 79.7601C93.19 79.6501 93.75 79.55 94.32 79.44C95.61 79.18 96.46 80.0701 96.09 81.2901C95.55 83.0501 95 84.82 94.45 86.58C94.22 87.31 92.5 88.3401 91.79 88.0601C87.23 86.3201 82.69 84.5301 77.86 82.6501Z" fill="#D8E8EC"/>
<path d="M93.49 98.5699C92.98 98.3299 92.71 98.02 93.01 97.41C93.21 97.01 93.34 96.55 93.43 96.11C93.75 94.43 94.37 93.02 96.28 92.67C95.75 94.37 94.85 95.8899 94.01 97.4399C93.81 97.8099 93.55 98.1399 93.49 98.5699Z" fill="#D8E8EC"/>
<path d="M53.69 93.16C54.34 93.14 54.76 93.36 54.92 94.07C55.16 95.11 55.49 96.12 55.78 97.14C54.72 96.01 54.31 94.53 53.69 93.16Z" fill="#D8E8EC"/>
<path d="M92.2 61.9201C92.13 62.2201 91.96 62.38 91.63 62.35C88.32 62.01 85.01 61.68 81.7 61.34C81.55 61.32 81.41 61.26 81.26 61.22C82.82 60.62 84.39 60.0201 85.94 59.4001C87.53 58.7701 88.93 59.2001 90.24 60.1601C90.95 60.6801 91.65 61.2101 92.2 61.9201Z" fill="#D8E8EC"/>
<path d="M68.43 61.19C64.8 61.57 61.16 61.95 57.53 62.33C57.43 62.34 57.32 62.26 57.22 62.22C58.17 61.27 59.15 60.3601 60.33 59.6801C61.39 59.0801 62.48 58.92 63.63 59.36C65.23 59.97 66.83 60.58 68.43 61.19Z" fill="#D8E8EC"/>
<path d="M73.56 71.99C73.56 74.11 73.56 76.2299 73.56 78.3499C73.56 79.7699 72.16 80.93 70.76 80.66C66.38 79.81 62.01 78.9599 57.64 78.0999C57.11 77.9999 56.59 77.86 56.06 77.75C53.69 77.25 53.7 77.2499 52.6 75.3299C52.4 74.9799 52.5 74.6499 52.58 74.3299C53.17 71.9799 53.78 69.64 54.38 67.29C54.43 67.1 54.48 66.79 54.57 66.77C56.45 66.39 57 64.0299 59.25 63.9499C63.12 63.8099 66.99 63.27 70.85 62.88C71.4 62.82 71.69 63.15 72.12 63.38C73.92 64.35 73.57 65.9499 73.57 67.4699C73.57 68.9799 73.57 70.49 73.56 71.99Z" fill="#D8E8EC"/>
<path d="M75.44 71.98C75.44 69.78 75.44 67.58 75.44 65.38C75.44 64.22 77.2 62.82 78.36 62.94C81.96 63.31 85.56 63.64 89.16 63.99C89.89 64.06 90.61 64.14 91.34 64.21C91.38 64.21 91.44 64.2 91.45 64.22C92.24 65.49 94.05 65.87 94.53 67.28C95.3 69.53 95.72 71.89 96.34 74.2C96.49 74.74 96.4 75.04 95.95 75.35C95.64 75.56 95.28 75.88 95.21 76.21C94.94 77.48 93.97 77.53 92.98 77.73C88.07 78.68 83.17 79.67 78.27 80.64C76.72 80.95 75.43 79.91 75.43 78.34C75.43 76.23 75.43 74.11 75.44 71.98Z" fill="#D8E8EC"/>
<path d="M81.95 99.74C80.1 99.74 78.25 99.72 76.39 99.75C75.74 99.76 75.42 99.64 75.42 98.88C75.45 94.56 75.43 90.24 75.44 85.91C75.44 84.97 76.54 84.19 77.41 84.53C81.83 86.23 86.23 87.97 90.66 89.67C91.15 89.86 91.29 90.18 91.35 90.62C91.44 91.28 91.63 91.9 92.14 92.38C92.49 92.71 92.4 93.0699 92.28 93.4499C92.01 94.2899 91.7 95.1199 91.49 95.9799C91.24 97.0199 90.93 97.96 89.73 98.26C89.56 98.3 89.34 98.4399 89.28 98.5999C88.74 99.9699 87.58 99.77 86.47 99.75C84.96 99.72 83.45 99.74 81.95 99.74Z" fill="#D8E8EC"/>
<path d="M73.56 92.49C73.56 94.57 73.54 96.66 73.57 98.74C73.58 99.47 73.4 99.76 72.61 99.75C68.95 99.71 65.28 99.72 61.61 99.75C61.04 99.75 60.68 99.59 60.42 99.07C60.16 98.53 59.66 98.1101 59.1 98.0201C58.12 97.8701 57.8 97.2401 57.61 96.4101C57.53 96.0401 57.46 95.62 57.26 95.32C56.06 93.55 57.26 92.11 57.91 90.61C57.99 90.41 58.34 90.31 58.58 90.2C62.86 88.35 67.14 86.5101 71.42 84.6701C72.55 84.1901 73.55 84.86 73.56 86.13C73.57 88.25 73.56 90.37 73.56 92.49Z" fill="#D8E8EC"/>
<path d="M70.9 82.83C67.55 84.27 64.21 85.7101 60.86 87.1601C60.37 87.3701 59.87 87.5901 59.38 87.8001C58.32 88.2601 57.51 88.56 56.18 87.83C54.89 87.12 54.4 86.33 54.07 85.11C53.7 83.74 53.2099 82.4001 52.7899 81.0401C52.3999 79.7901 53 79.09 54.28 79.33C58.32 80.11 62.35 80.92 66.38 81.71C67.88 82.01 69.39 82.31 70.89 82.61C70.88 82.68 70.89 82.76 70.9 82.83Z" fill="#D8E8EC"/>
<path d="M62.45 101.72C65.88 101.72 69.31 101.73 72.73 101.71C73.41 101.7 73.59 101.98 73.57 102.6C73.54 103.72 73.59 104.84 73.56 105.95C73.54 106.72 72.62 107.33 71.94 106.99C68.74 105.34 65.56 103.65 62.37 101.97C62.4 101.89 62.42 101.81 62.45 101.72Z" fill="#D8E8EC"/>
<path d="M86.62 101.95C83.43 103.64 80.24 105.34 77.04 106.99C76.32 107.36 75.47 106.78 75.45 105.95C75.42 104.79 75.47 103.63 75.43 102.48C75.41 101.84 75.71 101.72 76.27 101.72C79.7 101.74 83.13 101.73 86.57 101.73C86.58 101.8 86.6 101.87 86.62 101.95Z" fill="#D8E8EC"/>
<path d="M98.85 80.49C98.85 83.59 98.37 86.6 97.24 89.49C95.88 88.2 96.19 86.7801 96.79 85.2601C97.29 83.9801 97.65 82.64 98.06 81.32C98.2 80.9 98.29 80.48 98.85 80.49Z" fill="#D8E8EC"/>
<path d="M52.08 89.0699C52.06 87.4999 51.46 86.04 51.26 84.5C51.17 83.81 51.16 83.14 51.16 82.46C51.88 84.11 52.29 85.8601 52.85 87.5601C53.1 88.3201 52.3 88.5399 52.08 89.0699Z" fill="#D8E8EC"/>
</svg>
