<svg width="222" height="272" viewBox="0 0 222 272" fill="none" xmlns="http://www.w3.org/2000/svg">
<path d="M221.16 0.629883H0.519989V271.05H221.16V0.629883Z" fill="url(#paint0_linear)"/>
<path d="M220.66 5.63989H5.44998V270.55H220.66V5.63989Z" fill="white"/>
<path d="M220.16 6.13989V270.05H5.94998V6.13989H220.16ZM221.16 5.13989H4.94998V271.05H221.16V5.13989Z" fill="#388D99"/>
<path d="M221.16 224.98H4.94998V271.05H221.16V224.98Z" fill="#92C3CD"/>
<path d="M221.16 271.05V237.07L187.55 271.05H221.16Z" fill="#004947"/>
<path d="M47.82 253.56V252.75C49.69 252.57 49.9 252.44 49.9 250.41V241.13C49.9 239.1 49.68 238.94 47.82 238.77V237.96H54.89V238.77C53.02 238.95 52.8 239.1 52.8 241.13V250.41C52.8 252.43 53.01 252.55 54.89 252.75V253.56H47.82Z" fill="white"/>
<path d="M73.57 238.77C72.08 238.95 71.6099 239.24 71.5399 240.33C71.4799 241.21 71.42 242.09 71.42 244.23V253.81H70.2299L60.13 241.62V247.25C60.13 249.36 60.19 250.35 60.25 251.05C60.33 252.17 60.87 252.65 62.63 252.76V253.57H56.7199V252.76C58.1299 252.64 58.7199 252.28 58.8499 251.14C58.9399 250.31 58.99 249.37 58.99 247.25V241.41C58.99 240.66 58.94 240.18 58.49 239.59C58.05 238.99 57.5 238.89 56.43 238.79V237.98H60.7299L70.24 249.12V244.25C70.24 242.11 70.21 241.24 70.14 240.41C70.07 239.36 69.6299 238.92 67.6599 238.8V237.99H73.59V238.77H73.57Z" fill="white"/>
<path d="M87.9699 241.97C87.7199 240.98 87.28 240.11 87.03 239.74C86.61 239.19 86.41 239 85.02 239H83.18V250.42C83.18 252.39 83.4 252.57 85.59 252.73V253.54H77.9699V252.73C80.0799 252.57 80.28 252.39 80.28 250.42V239H78.56C77.22 239 76.84 239.19 76.4 239.82C76.08 240.28 75.7999 241.05 75.4799 241.98H74.64C74.8 240.33 74.96 238.58 75.02 237.36H75.68C76.04 237.92 76.32 237.94 77.02 237.94H86.59C87.25 237.94 87.53 237.81 87.92 237.36H88.57C88.59 238.41 88.68 240.39 88.8 241.89L87.9699 241.97Z" fill="white"/>
<path d="M103.4 249.57C103.27 250.21 102.61 252.87 102.38 253.56H90.2V252.76C92.4 252.56 92.55 252.41 92.55 250.41V241.13C92.55 239.06 92.27 238.92 90.58 238.77V237.96H98.2199C100.65 237.96 101.52 237.94 101.84 237.91C101.86 238.4 101.98 240.31 102.07 241.72L101.21 241.84C100.99 241.02 100.64 240.21 100.29 239.75C99.8699 239.16 99.48 239.01 98.18 239.01H96.37C95.52 239.01 95.44 239.07 95.44 239.84V244.96H97.9C99.4 244.96 99.6 244.6 99.94 242.92H100.81V248.13H99.94C99.58 246.37 99.39 246.1 97.88 246.1H95.44V250.46C95.44 252.12 95.6599 252.5 97.0399 252.53H98.93C100.32 252.53 100.63 252.35 101.16 251.71C101.71 251.08 102.2 250.16 102.57 249.38L103.4 249.57Z" fill="white"/>
<path d="M120.86 246.99C119.45 247.21 119.31 247.33 119.31 248.88V250.79C119.31 251.65 119.33 252.45 119.45 253.1C118.13 253.36 115.74 253.92 113.77 253.92C108.2 253.92 104.93 250.5 104.93 245.73C104.93 240.45 109.23 237.63 114.23 237.63C116.35 237.63 118.35 238.11 119.13 238.2C119.18 239.2 119.34 240.9 119.52 242.28L118.66 242.44C118.08 240.4 117.26 239.43 115.77 238.92C115.22 238.73 114.3 238.62 113.66 238.62C110.49 238.62 108.24 241.14 108.24 245.36C108.24 249.44 109.9 252.94 114.08 252.94C114.68 252.94 115.34 252.83 115.79 252.58C116.2 252.34 116.43 251.98 116.43 251.15V249.09C116.43 247.38 116.14 247.21 114.03 246.99V246.17H120.85V246.99H120.86Z" fill="white"/>
<path d="M137.45 253.72C137.25 253.72 136.97 253.71 136.67 253.69C134.08 253.56 133.17 252.97 132.33 251.8C131.4 250.51 130.64 249.03 129.84 247.67C129.44 246.98 129.11 246.84 128.18 246.84L127.57 246.82V250.42C127.57 252.4 127.82 252.55 129.66 252.76V253.57H122.64V252.76C124.52 252.56 124.72 252.4 124.72 250.42V241.09C124.72 239.14 124.47 238.95 122.64 238.78V237.97H129.31C131.31 237.97 132.52 238.2 133.48 238.85C134.45 239.49 135.1 240.55 135.1 242.03C135.1 244.14 133.72 245.33 132.07 246C132.46 246.73 133.43 248.3 134.15 249.4C135.01 250.7 135.51 251.33 136 251.89C136.58 252.54 136.95 252.76 137.6 252.96L137.45 253.72ZM128.41 245.88C129.52 245.88 130.31 245.7 130.86 245.23C131.7 244.55 132.06 243.62 132.06 242.37C132.06 239.82 130.51 238.9 128.99 238.9C128.33 238.9 127.98 239 127.83 239.14C127.64 239.29 127.59 239.56 127.59 240.09V245.88H128.41Z" fill="white"/>
<path d="M137.97 253.56V252.75C139.84 252.57 140.05 252.44 140.05 250.41V241.13C140.05 239.1 139.83 238.94 137.97 238.77V237.96H145.04V238.77C143.17 238.95 142.95 239.1 142.95 241.13V250.41C142.95 252.43 143.16 252.55 145.04 252.75V253.56H137.97Z" fill="white"/>
<path d="M160.01 241.97C159.76 240.98 159.32 240.11 159.07 239.74C158.65 239.19 158.45 239 157.06 239H155.22V250.42C155.22 252.39 155.44 252.57 157.63 252.73V253.54H150.01V252.73C152.12 252.57 152.32 252.39 152.32 250.42V239H150.6C149.26 239 148.88 239.19 148.44 239.82C148.12 240.28 147.84 241.05 147.52 241.98H146.68C146.84 240.33 147 238.58 147.06 237.36H147.72C148.08 237.92 148.36 237.94 149.06 237.94H158.63C159.29 237.94 159.57 237.81 159.96 237.36H160.61C160.63 238.41 160.72 240.39 160.84 241.89L160.01 241.97Z" fill="white"/>
<path d="M176.05 238.77C174.46 238.95 174 239.26 173.11 240.75C172.17 242.33 171.38 243.77 170.2 246.08C169.97 246.52 169.9 246.81 169.9 247.4V250.37C169.9 252.42 170.1 252.52 172.16 252.75V253.56H164.82V252.75C166.82 252.49 166.99 252.43 166.99 250.37V247.49C166.99 246.98 166.89 246.75 166.65 246.28C165.9 244.81 165.04 243.24 163.65 240.81C162.75 239.22 162.43 238.92 160.95 238.77V237.96H167.59V238.77C165.94 238.99 166 239.31 166.42 240.14C167.29 241.8 168.35 243.81 169.3 245.57C170.07 244.13 171.3 241.72 171.97 240.31C172.46 239.27 172.31 238.98 170.52 238.77V237.96H176.05V238.77Z" fill="white"/>
<path d="M64.2199 42.77C64.0199 42.05 63.73 41.33 63.51 40.97C63.17 40.43 62.9599 40.27 61.7899 40.27H59.83V50.4299C59.83 52.0899 60.0099 52.2999 61.9799 52.4299V53.05H55.7199V52.4299C57.6399 52.2999 57.81 52.1099 57.81 50.4299V40.27H56C54.84 40.27 54.5 40.41 54.14 41.02C53.88 41.44 53.69 41.98 53.42 42.77H52.76C52.89 41.44 53.02 40.0599 53.08 38.9199H53.59C53.9 39.4199 54.14 39.4099 54.7299 39.4099H63.06C63.64 39.4099 63.8299 39.3199 64.1599 38.9199H64.68C64.68 39.8899 64.77 41.46 64.87 42.7L64.2199 42.77Z" fill="#388D99"/>
<path d="M71.96 53.0601V52.45C73.13 52.32 73.27 52.2101 73.27 50.8701V47.3799C73.27 45.6599 72.6 44.8401 71.3 44.8601C70.55 44.8601 69.77 45.2101 69.2 45.8601V50.8701C69.2 52.1901 69.36 52.32 70.56 52.45V53.0601H65.9099V52.45C67.0899 52.34 67.3499 52.2401 67.3499 50.8501V40.8C67.3499 39.71 67.2799 39.4501 65.9099 39.3101V38.74C67.0999 38.63 68.4 38.32 69.2 38.03C69.2 38.84 69.2 39.7501 69.2 40.6001V45.0801C69.95 44.3301 71.08 43.5801 72.21 43.5801C73.95 43.5801 75.13 44.6699 75.13 47.1599V50.8799C75.13 52.2599 75.2899 52.34 76.4699 52.46V53.0701H71.96V53.0601Z" fill="#388D99"/>
<path d="M84.44 53.3101C84.08 53.3101 83.62 53.1399 83.4 52.8999C83.12 52.6299 82.99 52.34 82.89 51.98C82.06 52.54 81.03 53.3 80.42 53.3C78.87 53.3 77.81 52.0299 77.81 50.6899C77.81 49.6499 78.37 49.0001 79.51 48.6001C80.78 48.1601 82.37 47.62 82.84 47.23V46.72C82.84 45.3 82.15 44.49 81.09 44.49C80.63 44.49 80.34 44.71 80.13 44.96C79.9 45.26 79.76 45.7201 79.57 46.3301C79.46 46.7101 79.2399 46.8501 78.9099 46.8501C78.4799 46.8501 77.93 46.4199 77.93 45.8999C77.93 45.5899 78.2 45.34 78.63 45.03C79.3 44.56 80.52 43.8101 81.71 43.5601C82.38 43.5601 83.0399 43.7499 83.5399 44.1299C84.3099 44.7599 84.63 45.5001 84.63 46.5901V50.5701C84.63 51.5401 84.9799 51.8301 85.3499 51.8301C85.5899 51.8301 85.86 51.7301 86.09 51.6101L86.3 52.22L84.44 53.3101ZM82.83 48C82.38 48.23 81.49 48.6301 81.02 48.8401C80.25 49.1901 79.78 49.5901 79.78 50.3501C79.78 51.4701 80.62 51.96 81.25 51.96C81.75 51.96 82.42 51.68 82.83 51.28C82.83 50.3 82.83 48.99 82.83 48Z" fill="#388D99"/>
<path d="M91.36 53.05C91 53.24 90.6699 53.3201 90.4699 53.3201C89.0799 53.3201 88.32 52.51 88.32 50.79V44.72H86.89L86.8 44.47L87.37 43.8301H88.32V42.0701C88.78 41.6401 89.46 41.0699 89.92 40.6299L90.2299 40.6899C90.1899 41.5199 90.17 42.7101 90.17 43.8201H92.51C92.7 44.0301 92.63 44.53 92.38 44.71H90.17V50.04C90.17 51.73 90.84 52.02 91.36 52.02C91.84 52.02 92.28 51.85 92.59 51.71L92.78 52.29L91.36 53.05Z" fill="#388D99"/>
<path d="M98.5 53.0601V52.45C99.79 52.32 99.93 52.22 99.93 50.78V46.5C99.93 45.18 99.86 45.0999 98.65 44.8999V44.3601C99.78 44.1801 100.83 43.9 101.78 43.53C101.78 44.41 101.78 45.2899 101.78 46.1699V50.78C101.78 52.21 101.92 52.32 103.25 52.45V53.0601H98.5ZM100.73 41.6201C100.1 41.6201 99.55 41.0699 99.55 40.4399C99.55 39.7299 100.11 39.23 100.76 39.23C101.39 39.23 101.91 39.7399 101.91 40.4399C101.9 41.0699 101.39 41.6201 100.73 41.6201Z" fill="#388D99"/>
<path d="M109.26 53.0601H104.3V52.45C105.58 52.32 105.71 52.2201 105.71 50.8701V46.46C105.71 45.13 105.63 45.0599 104.45 44.9099V44.3601C105.53 44.2001 106.51 43.94 107.56 43.51C107.56 44.2 107.56 45.1201 107.56 45.8101C108.33 44.6501 109.19 43.5701 110.21 43.5701C110.99 43.5701 111.45 44.0601 111.45 44.6201C111.45 45.2001 111.04 45.6899 110.67 45.8899C110.45 46.0199 110.27 45.9801 110.11 45.8401C109.79 45.5301 109.53 45.3 109.16 45.3C108.74 45.3 108.01 45.8799 107.56 46.8999V50.8501C107.56 52.2101 107.67 52.3099 109.26 52.4399V53.0601Z" fill="#388D99"/>
<path d="M117.06 43.5701C119.74 43.5701 121.68 45.61 121.68 48.28C121.68 51.68 119.18 53.3101 117.04 53.3101C114.09 53.3101 112.32 50.9701 112.32 48.6001C112.33 45.2201 114.99 43.5701 117.06 43.5701ZM116.81 44.3101C115.6 44.3101 114.49 45.5 114.49 47.96C114.49 50.62 115.61 52.5601 117.26 52.5601C118.47 52.5601 119.52 51.69 119.52 48.78C119.52 46.23 118.56 44.3101 116.81 44.3101Z" fill="#388D99"/>
<path d="M129.16 53.0601V52.45C130.32 52.32 130.43 52.19 130.43 50.76V47.27C130.43 45.8 129.87 44.8999 128.6 44.8999C127.8 44.8999 127.04 45.3499 126.41 45.9099V50.8501C126.41 52.2701 126.53 52.3199 127.7 52.4399V53.05H123.1V52.4399C124.43 52.2899 124.56 52.2101 124.56 50.8301V46.5C124.56 45.15 124.41 45.0899 123.31 44.8999V44.3301C124.37 44.1701 125.48 43.89 126.41 43.5C126.41 43.95 126.4 44.6299 126.4 45.1299C126.82 44.8399 127.28 44.5199 127.81 44.1799C128.4 43.7999 128.92 43.5601 129.53 43.5601C131.21 43.5601 132.27 44.8001 132.27 46.8501V50.8401C132.27 52.2401 132.4 52.3099 133.58 52.4399V53.05H129.16V53.0601Z" fill="#388D99"/>
<path d="M142.81 51.1399C141.88 52.3899 140.47 53.3101 139.21 53.3101C136.5 53.3101 134.91 51.1399 134.91 48.8799C134.91 47.2399 135.64 45.84 137.03 44.78C138.19 43.89 139.46 43.5601 140.3 43.5601C141.22 43.5601 141.91 43.8401 142.23 44.1201C142.52 44.3501 142.58 44.51 142.58 44.76C142.58 45.28 142.04 45.75 141.79 45.75C141.68 45.75 141.58 45.7 141.38 45.54C140.68 44.92 139.97 44.6201 139.25 44.6201C137.97 44.6201 136.79 45.7299 136.79 47.9299C136.77 50.8299 138.78 51.78 139.94 51.78C140.82 51.78 141.52 51.5499 142.44 50.6699L142.81 51.1399Z" fill="#388D99"/>
<path d="M143.52 53.0601V52.45C144.84 52.31 144.98 52.2101 144.98 50.8301V40.8601C144.98 39.6101 144.87 39.4901 143.57 39.3101V38.74C144.76 38.61 146.09 38.29 146.82 38.03C146.82 39.01 146.82 40.01 146.82 40.99V50.8301C146.82 52.2201 146.94 52.32 148.27 52.45V53.0601H143.52Z" fill="#388D99"/>
<path d="M156.17 53.3101C155.81 53.3101 155.35 53.1399 155.13 52.8999C154.85 52.6299 154.72 52.34 154.62 51.98C153.79 52.54 152.76 53.3 152.15 53.3C150.6 53.3 149.54 52.0299 149.54 50.6899C149.54 49.6499 150.1 49.0001 151.24 48.6001C152.51 48.1601 154.1 47.62 154.57 47.23V46.72C154.57 45.3 153.88 44.49 152.82 44.49C152.36 44.49 152.07 44.71 151.86 44.96C151.63 45.26 151.49 45.7201 151.3 46.3301C151.19 46.7101 150.97 46.8501 150.64 46.8501C150.21 46.8501 149.66 46.4199 149.66 45.8999C149.66 45.5899 149.93 45.34 150.36 45.03C151.03 44.56 152.25 43.8101 153.44 43.5601C154.11 43.5601 154.77 43.7499 155.27 44.1299C156.04 44.7599 156.36 45.5001 156.36 46.5901V50.5701C156.36 51.5401 156.71 51.8301 157.08 51.8301C157.32 51.8301 157.59 51.7301 157.82 51.6101L158.03 52.22L156.17 53.3101ZM154.57 48C154.12 48.23 153.23 48.6301 152.76 48.8401C151.99 49.1901 151.52 49.5901 151.52 50.3501C151.52 51.4701 152.36 51.96 152.99 51.96C153.49 51.96 154.16 51.68 154.57 51.28C154.57 50.3 154.57 48.99 154.57 48Z" fill="#388D99"/>
<path d="M169.22 52.53C168.77 52.61 167.13 52.8701 165.81 53.3101C165.81 52.8801 165.81 52.41 165.81 51.97C165.43 52.21 164.89 52.5 164.51 52.74C163.73 53.19 163.21 53.3101 162.96 53.3101C161.26 53.3101 158.98 51.6599 158.98 48.6799C158.98 45.7699 161.54 43.5701 164.49 43.5701C164.76 43.5701 165.39 43.6 165.81 43.77V40.8C165.81 39.5 165.67 39.4401 164.21 39.3101V38.74C165.32 38.59 166.83 38.3 167.66 38.03C167.66 38.81 167.66 39.7001 167.66 40.5701V50.5801C167.66 51.6801 167.8 51.8201 168.58 51.8701L169.21 51.9199V52.53H169.22ZM165.82 45.48C165.38 44.77 164.54 44.4099 163.73 44.4099C162.79 44.4099 161.07 45.0401 161.07 48.0701C161.07 50.6501 162.64 51.93 163.91 51.95C164.6 51.95 165.33 51.63 165.82 51.27V45.48Z" fill="#388D99"/>
<path d="M48.07 77.1399C47.14 78.3899 45.7299 79.3101 44.4699 79.3101C41.7599 79.3101 40.1599 77.1399 40.1599 74.8799C40.1599 73.2399 40.89 71.84 42.28 70.78C43.44 69.89 44.71 69.5601 45.55 69.5601C46.47 69.5601 47.1599 69.8401 47.4799 70.1201C47.7699 70.3501 47.83 70.51 47.83 70.76C47.83 71.28 47.2899 71.75 47.0399 71.75C46.9299 71.75 46.83 71.7 46.63 71.54C45.93 70.92 45.22 70.6201 44.5 70.6201C43.22 70.6201 42.0399 71.7299 42.0399 73.9299C42.0199 76.8299 44.03 77.78 45.19 77.78C46.07 77.78 46.77 77.5499 47.69 76.6699L48.07 77.1399Z" fill="#388D99"/>
<path d="M53.9 69.5701C56.58 69.5701 58.52 71.61 58.52 74.28C58.52 77.68 56.02 79.3101 53.88 79.3101C50.93 79.3101 49.1599 76.9701 49.1599 74.6001C49.1699 71.2201 51.83 69.5701 53.9 69.5701ZM53.65 70.3101C52.44 70.3101 51.33 71.5 51.33 73.96C51.33 76.62 52.4499 78.5601 54.0999 78.5601C55.3099 78.5601 56.36 77.69 56.36 74.78C56.36 72.23 55.4 70.3101 53.65 70.3101Z" fill="#388D99"/>
<path d="M66 79.0601V78.45C67.16 78.32 67.27 78.19 67.27 76.76V73.27C67.27 71.8 66.71 70.8999 65.44 70.8999C64.64 70.8999 63.88 71.3499 63.25 71.9099V76.8501C63.25 78.2701 63.3699 78.3199 64.5399 78.4399V79.05H59.94V78.4399C61.27 78.2899 61.4 78.2101 61.4 76.8301V72.5C61.4 71.15 61.25 71.0899 60.15 70.8999V70.3301C61.21 70.1701 62.32 69.89 63.25 69.5C63.25 69.95 63.24 70.6299 63.24 71.1299C63.66 70.8399 64.12 70.5199 64.65 70.1799C65.24 69.7999 65.76 69.5601 66.37 69.5601C68.05 69.5601 69.11 70.8001 69.11 72.8501V76.8401C69.11 78.2401 69.24 78.3099 70.42 78.4399V79.05H66V79.0601Z" fill="#388D99"/>
<path d="M77.44 79.0601V78.45C78.64 78.32 78.78 78.2299 78.78 76.9399V71.8799C78.78 70.8699 78.72 70.72 77.67 70.72H74.89V76.9399C74.89 78.1799 75.05 78.3099 76.32 78.4399V79.05H71.59V78.4399C72.87 78.3099 73.0399 78.1999 73.0399 76.9399V70.72H71.58L71.49 70.46L71.95 69.8201H73.03C73.03 67.6901 73.7 66.2499 75.05 65.1799C75.93 64.4799 76.99 64.08 77.81 64.03C79.22 64.03 79.96 64.63 80.25 65.02C80.39 65.2 80.44 65.4101 80.44 65.5901C80.42 65.9101 80.0799 66.34 79.7899 66.53C79.4899 66.71 79.2399 66.6899 78.9699 66.4099C78.5399 65.9299 77.77 65.1499 76.75 65.1499C76.14 65.1499 75.75 65.3999 75.51 65.8899C75.16 66.4199 74.87 67.66 74.87 69.23V69.8301H76.64C78.2 69.8301 79.6 69.7701 80.61 69.5601V76.9399C80.61 78.2299 80.7599 78.33 82.0999 78.45V79.0601H77.44Z" fill="#388D99"/>
<path d="M93.49 78.53C93.04 78.61 91.4 78.8701 90.08 79.3101C90.08 78.8801 90.08 78.41 90.08 77.97C89.7 78.21 89.16 78.5 88.78 78.74C88 79.19 87.4799 79.3101 87.2299 79.3101C85.5299 79.3101 83.25 77.6599 83.25 74.6799C83.25 71.7699 85.81 69.5701 88.76 69.5701C89.03 69.5701 89.66 69.6 90.08 69.77V66.8C90.08 65.5 89.9399 65.4401 88.4799 65.3101V64.74C89.59 64.59 91.1 64.3 91.93 64.03C91.93 64.81 91.93 65.7001 91.93 66.5701V76.5801C91.93 77.6801 92.0699 77.8201 92.8499 77.8701L93.4799 77.9199V78.53H93.49ZM90.08 71.48C89.64 70.77 88.8 70.4099 87.99 70.4099C87.05 70.4099 85.33 71.0401 85.33 74.0701C85.33 76.6501 86.9 77.93 88.17 77.95C88.86 77.95 89.59 77.63 90.08 77.27V71.48Z" fill="#388D99"/>
<path d="M102.29 77.23C100.96 78.95 99.45 79.3201 98.74 79.3201C96.13 79.3201 94.57 77.22 94.57 74.79C94.57 73.35 95.1099 72.0101 95.9699 71.1001C96.8599 70.1201 98.02 69.5801 99.13 69.5801C101 69.5801 102.39 71.1801 102.39 72.8701C102.37 73.2801 102.32 73.5001 102 73.5801C101.58 73.6701 98.85 73.8499 96.43 73.9299C96.39 76.6399 98.03 77.79 99.52 77.79C100.37 77.79 101.18 77.45 101.95 76.74L102.29 77.23ZM98.64 70.3799C97.7 70.3799 96.79 71.3 96.53 72.99C97.65 72.99 98.76 72.9799 99.93 72.9299C100.29 72.9299 100.42 72.83 100.42 72.51C100.44 71.41 99.75 70.3799 98.64 70.3799Z" fill="#388D99"/>
<path d="M109.64 79.0601V78.45C110.8 78.32 110.91 78.19 110.91 76.76V73.27C110.91 71.8 110.35 70.8999 109.08 70.8999C108.28 70.8999 107.52 71.3499 106.89 71.9099V76.8501C106.89 78.2701 107.01 78.3199 108.18 78.4399V79.05H103.58V78.4399C104.91 78.2899 105.04 78.2101 105.04 76.8301V72.5C105.04 71.15 104.89 71.0899 103.79 70.8999V70.3301C104.85 70.1701 105.96 69.89 106.89 69.5C106.89 69.95 106.88 70.6299 106.88 71.1299C107.3 70.8399 107.76 70.5199 108.29 70.1799C108.89 69.7999 109.41 69.5601 110.01 69.5601C111.69 69.5601 112.75 70.8001 112.75 72.8501V76.8401C112.75 78.2401 112.88 78.3099 114.06 78.4399V79.05H109.64V79.0601Z" fill="#388D99"/>
<path d="M119.49 79.05C119.13 79.24 118.8 79.3201 118.6 79.3201C117.21 79.3201 116.45 78.51 116.45 76.79V70.72H115.02L114.93 70.47L115.5 69.8301H116.45V68.0701C116.91 67.6401 117.59 67.0699 118.05 66.6299L118.36 66.6899C118.32 67.5199 118.3 68.7101 118.3 69.8201H120.64C120.83 70.0301 120.76 70.53 120.51 70.71H118.3V76.04C118.3 77.73 118.97 78.02 119.49 78.02C119.97 78.02 120.41 77.85 120.72 77.71L120.91 78.29L119.49 79.05Z" fill="#388D99"/>
<path d="M121.78 79.0601V78.45C123.07 78.32 123.21 78.22 123.21 76.78V72.5C123.21 71.18 123.14 71.0999 121.93 70.8999V70.3601C123.06 70.1801 124.11 69.9 125.06 69.53C125.06 70.41 125.06 71.2899 125.06 72.1699V76.78C125.06 78.21 125.2 78.32 126.53 78.45V79.0601H121.78ZM124.01 67.6201C123.38 67.6201 122.83 67.0699 122.83 66.4399C122.83 65.7299 123.39 65.23 124.04 65.23C124.67 65.23 125.19 65.7399 125.19 66.4399C125.18 67.0699 124.66 67.6201 124.01 67.6201Z" fill="#388D99"/>
<path d="M134.37 79.3101C134.01 79.3101 133.55 79.1399 133.33 78.8999C133.05 78.6299 132.92 78.34 132.82 77.98C131.99 78.54 130.96 79.3 130.35 79.3C128.8 79.3 127.74 78.0299 127.74 76.6899C127.74 75.6499 128.3 75.0001 129.44 74.6001C130.71 74.1601 132.3 73.62 132.77 73.23V72.72C132.77 71.3 132.08 70.49 131.02 70.49C130.56 70.49 130.27 70.71 130.06 70.96C129.82 71.26 129.69 71.7201 129.5 72.3301C129.39 72.7101 129.17 72.8501 128.84 72.8501C128.41 72.8501 127.86 72.4199 127.86 71.8999C127.86 71.5899 128.13 71.34 128.56 71.03C129.23 70.56 130.45 69.8101 131.64 69.5601C132.31 69.5601 132.97 69.7499 133.48 70.1299C134.24 70.7599 134.57 71.5001 134.57 72.5901V76.5701C134.57 77.5401 134.92 77.8301 135.29 77.8301C135.53 77.8301 135.8 77.7301 136.03 77.6101L136.24 78.22L134.37 79.3101ZM132.76 74C132.31 74.23 131.42 74.6301 130.95 74.8401C130.18 75.1901 129.71 75.5901 129.71 76.3501C129.71 77.4701 130.55 77.96 131.18 77.96C131.68 77.96 132.35 77.68 132.76 77.28C132.76 76.3 132.76 74.99 132.76 74Z" fill="#388D99"/>
<path d="M136.79 79.0601V78.45C138.11 78.31 138.25 78.2101 138.25 76.8301V66.8601C138.25 65.6101 138.14 65.4901 136.84 65.3101V64.74C138.03 64.61 139.36 64.29 140.09 64.03C140.09 65.01 140.09 66.01 140.09 66.99V76.8301C140.09 78.2201 140.21 78.32 141.54 78.45V79.0601H136.79Z" fill="#388D99"/>
<path d="M142.63 79.0601V78.45C143.92 78.32 144.06 78.22 144.06 76.78V72.5C144.06 71.18 143.99 71.0999 142.78 70.8999V70.3601C143.91 70.1801 144.96 69.9 145.91 69.53C145.91 70.41 145.91 71.2899 145.91 72.1699V76.78C145.91 78.21 146.05 78.32 147.38 78.45V79.0601H142.63ZM144.86 67.6201C144.23 67.6201 143.68 67.0699 143.68 66.4399C143.68 65.7299 144.24 65.23 144.89 65.23C145.52 65.23 146.04 65.7399 146.04 66.4399C146.03 67.0699 145.52 67.6201 144.86 67.6201Z" fill="#388D99"/>
<path d="M152.62 79.05C152.26 79.24 151.93 79.3201 151.73 79.3201C150.34 79.3201 149.58 78.51 149.58 76.79V70.72H148.15L148.06 70.47L148.64 69.8301H149.59V68.0701C150.05 67.6401 150.73 67.0699 151.19 66.6299L151.5 66.6899C151.46 67.5199 151.44 68.7101 151.44 69.8201H153.78C153.97 70.0301 153.9 70.53 153.65 70.71H151.44V76.04C151.44 77.73 152.11 78.02 152.63 78.02C153.11 78.02 153.55 77.85 153.86 77.71L154.05 78.29L152.62 79.05Z" fill="#388D99"/>
<path d="M164.2 70.4199C163.12 70.5799 162.9 70.76 162.37 71.95C161.84 73.11 161.27 74.5601 159.87 78.0901C158.49 81.4601 158.11 82.7699 157.76 83.8799C157.63 84.3299 157.4 84.4399 157.11 84.4399C156.41 84.4399 155.76 83.9301 155.76 83.3701C155.76 83.0901 155.9 82.8999 156.24 82.6299C156.94 82.1199 157.44 81.6301 157.71 81.0801C158.11 80.2901 158.41 79.5901 158.51 79.3201C158.59 79.0101 158.59 78.82 158.46 78.47C157.59 75.96 156.42 73.3299 155.84 71.9299C155.39 70.8199 155.19 70.5699 154.06 70.4299V69.8401H158.48V70.4299C157.53 70.5799 157.41 70.78 157.68 71.53L159.64 76.5601C160.21 75.1601 161.03 72.9101 161.46 71.6101C161.71 70.8301 161.54 70.5999 160.35 70.4299V69.8401H164.19V70.4199H164.2Z" fill="#388D99"/>
<path d="M169.26 79.0601V78.45C170.55 78.32 170.69 78.22 170.69 76.78V72.5C170.69 71.18 170.62 71.0999 169.41 70.8999V70.3601C170.54 70.1801 171.59 69.9 172.54 69.53C172.54 70.41 172.54 71.2899 172.54 72.1699V76.78C172.54 78.21 172.68 78.32 174.01 78.45V79.0601H169.26ZM171.49 67.6201C170.86 67.6201 170.31 67.0699 170.31 66.4399C170.31 65.7299 170.87 65.23 171.52 65.23C172.15 65.23 172.67 65.7399 172.67 66.4399C172.66 67.0699 172.14 67.6201 171.49 67.6201Z" fill="#388D99"/>
<path d="M180.61 72.3601C180.2 71.1001 179.63 70.29 178.4 70.29C177.69 70.29 177.13 70.8001 177.13 71.6101C177.13 72.4801 177.72 72.8999 178.88 73.4299C180.67 74.2699 181.61 74.9201 181.61 76.3501C181.61 78.3101 179.81 79.3101 178.12 79.3101C177.03 79.3101 176.03 78.96 175.59 78.71C175.49 78.12 175.3 76.92 175.22 76.22L175.84 76.1101C176.23 77.4501 176.99 78.5701 178.44 78.5701C179.24 78.5701 179.86 78.04 179.86 77.2C179.86 76.31 179.34 75.82 178.19 75.26C176.73 74.55 175.51 73.8701 175.51 72.3201C175.51 70.7601 176.82 69.5701 178.84 69.5701C179.74 69.5701 180.47 69.7801 180.9 69.8501C180.96 70.3701 181.12 71.69 181.22 72.21L180.61 72.3601Z" fill="#388D99"/>
<path d="M62.8499 105.06V104.45C64.0199 104.32 64.1599 104.24 64.1599 102.8V99.27C64.1599 97.73 63.5999 96.8999 62.4099 96.8999C61.6799 96.8999 60.9899 97.2799 60.2199 97.9099C60.2399 98.1599 60.28 98.4301 60.28 98.8101V102.91C60.28 104.21 60.45 104.31 61.57 104.44V105.05H57.03V104.44C58.26 104.31 58.43 104.23 58.43 102.88V99.23C58.43 97.69 57.93 96.8999 56.74 96.8999C55.96 96.8999 55.2 97.3999 54.56 97.9099V102.89C54.56 104.24 54.7 104.33 55.82 104.45V105.06H51.25V104.45C52.59 104.32 52.71 104.24 52.71 102.87V98.5C52.71 97.19 52.64 97.0799 51.5 96.8799V96.3301C52.52 96.1901 53.55 95.91 54.56 95.5C54.56 96 54.56 96.6799 54.56 97.1799C55 96.8499 55.43 96.5099 56.06 96.1299C56.61 95.7799 57.08 95.5701 57.74 95.5701C58.78 95.5701 59.6199 96.2 60.0399 97.27C60.6099 96.82 61.1399 96.4801 61.6599 96.1201C62.1199 95.8301 62.71 95.5701 63.32 95.5701C64.99 95.5701 65.99 96.7601 65.99 98.8301V102.89C65.99 104.25 66.11 104.32 67.28 104.45V105.06H62.8499Z" fill="#388D99"/>
<path d="M75.33 105.31C74.97 105.31 74.5099 105.14 74.2899 104.9C74.0099 104.63 73.88 104.34 73.78 103.98C72.95 104.54 71.92 105.3 71.31 105.3C69.76 105.3 68.7 104.03 68.7 102.69C68.7 101.65 69.26 101 70.4 100.6C71.67 100.16 73.26 99.62 73.7299 99.23V98.72C73.7299 97.3 73.0399 96.49 71.9799 96.49C71.5199 96.49 71.23 96.71 71.02 96.96C70.78 97.26 70.65 97.7201 70.46 98.3301C70.35 98.7101 70.13 98.8501 69.8 98.8501C69.37 98.8501 68.82 98.4199 68.82 97.8999C68.82 97.5899 69.09 97.34 69.52 97.03C70.19 96.56 71.4099 95.8101 72.5999 95.5601C73.2699 95.5601 73.93 95.7499 74.44 96.1299C75.2 96.7599 75.53 97.5001 75.53 98.5901V102.57C75.53 103.54 75.88 103.83 76.25 103.83C76.49 103.83 76.76 103.73 76.99 103.61L77.2 104.22L75.33 105.31ZM73.7199 100C73.2699 100.23 72.3799 100.63 71.9099 100.84C71.1399 101.19 70.67 101.59 70.67 102.35C70.67 103.47 71.51 103.96 72.14 103.96C72.64 103.96 73.3099 103.68 73.7199 103.28C73.7199 102.3 73.7199 100.99 73.7199 100Z" fill="#388D99"/>
<path d="M78.02 105.06V104.45C79.31 104.32 79.45 104.22 79.45 102.78V98.5C79.45 97.18 79.38 97.0999 78.17 96.8999V96.3601C79.3 96.1801 80.35 95.9 81.3 95.53C81.3 96.41 81.3 97.2899 81.3 98.1699V102.78C81.3 104.21 81.43 104.32 82.77 104.45V105.06H78.02ZM80.26 93.6201C79.63 93.6201 79.08 93.0699 79.08 92.4399C79.08 91.7299 79.6399 91.23 80.2899 91.23C80.9199 91.23 81.44 91.7399 81.44 92.4399C81.43 93.0699 80.91 93.6201 80.26 93.6201Z" fill="#388D99"/>
<path d="M89.8499 105.06V104.45C91.0099 104.32 91.12 104.19 91.12 102.76V99.27C91.12 97.8 90.5599 96.8999 89.2899 96.8999C88.4899 96.8999 87.7299 97.3499 87.0999 97.9099V102.85C87.0999 104.27 87.22 104.32 88.39 104.44V105.05H83.7899V104.44C85.1199 104.29 85.25 104.21 85.25 102.83V98.5C85.25 97.15 85.1 97.0899 84 96.8999V96.3301C85.06 96.1701 86.1699 95.89 87.0999 95.5C87.0999 95.95 87.09 96.6299 87.09 97.1299C87.51 96.8399 87.97 96.5199 88.5 96.1799C89.1 95.7999 89.6199 95.5601 90.2199 95.5601C91.8999 95.5601 92.96 96.8001 92.96 98.8501V102.84C92.96 104.24 93.09 104.31 94.27 104.44V105.05H89.8499V105.06Z" fill="#388D99"/>
<path d="M99.69 105.05C99.33 105.24 99 105.32 98.8 105.32C97.41 105.32 96.65 104.51 96.65 102.79V96.72H95.2199L95.13 96.47L95.7 95.8301H96.65V94.0701C97.11 93.6401 97.79 93.0699 98.25 92.6299L98.56 92.6899C98.52 93.5199 98.5 94.7101 98.5 95.8201H100.84C101.03 96.0301 100.96 96.53 100.71 96.71H98.5V102.04C98.5 103.73 99.17 104.02 99.69 104.02C100.17 104.02 100.61 103.85 100.92 103.71L101.11 104.29L99.69 105.05Z" fill="#388D99"/>
<path d="M108.8 105.31C108.44 105.31 107.98 105.14 107.76 104.9C107.48 104.63 107.35 104.34 107.25 103.98C106.42 104.54 105.39 105.3 104.78 105.3C103.23 105.3 102.17 104.03 102.17 102.69C102.17 101.65 102.73 101 103.87 100.6C105.14 100.16 106.73 99.62 107.2 99.23V98.72C107.2 97.3 106.51 96.49 105.45 96.49C104.99 96.49 104.7 96.71 104.49 96.96C104.26 97.26 104.12 97.7201 103.93 98.3301C103.82 98.7101 103.6 98.8501 103.27 98.8501C102.84 98.8501 102.29 98.4199 102.29 97.8999C102.29 97.5899 102.56 97.34 102.99 97.03C103.66 96.56 104.88 95.8101 106.07 95.5601C106.74 95.5601 107.4 95.7499 107.9 96.1299C108.67 96.7599 108.99 97.5001 108.99 98.5901V102.57C108.99 103.54 109.34 103.83 109.71 103.83C109.95 103.83 110.22 103.73 110.45 103.61L110.66 104.22L108.8 105.31ZM107.19 100C106.74 100.23 105.85 100.63 105.38 100.84C104.61 101.19 104.14 101.59 104.14 102.35C104.14 103.47 104.98 103.96 105.61 103.96C106.11 103.96 106.78 103.68 107.19 103.28C107.19 102.3 107.19 100.99 107.19 100Z" fill="#388D99"/>
<path d="M111.5 105.06V104.45C112.79 104.32 112.93 104.22 112.93 102.78V98.5C112.93 97.18 112.86 97.0999 111.65 96.8999V96.3601C112.78 96.1801 113.83 95.9 114.78 95.53C114.78 96.41 114.78 97.2899 114.78 98.1699V102.78C114.78 104.21 114.92 104.32 116.25 104.45V105.06H111.5ZM113.73 93.6201C113.1 93.6201 112.55 93.0699 112.55 92.4399C112.55 91.7299 113.11 91.23 113.76 91.23C114.39 91.23 114.91 91.7399 114.91 92.4399C114.9 93.0699 114.38 93.6201 113.73 93.6201Z" fill="#388D99"/>
<path d="M123.32 105.06V104.45C124.48 104.32 124.59 104.19 124.59 102.76V99.27C124.59 97.8 124.03 96.8999 122.76 96.8999C121.96 96.8999 121.2 97.3499 120.57 97.9099V102.85C120.57 104.27 120.69 104.32 121.86 104.44V105.05H117.26V104.44C118.59 104.29 118.72 104.21 118.72 102.83V98.5C118.72 97.15 118.57 97.0899 117.47 96.8999V96.3301C118.53 96.1701 119.64 95.89 120.57 95.5C120.57 95.95 120.56 96.6299 120.56 97.1299C120.98 96.8399 121.44 96.5199 121.97 96.1799C122.56 95.7999 123.08 95.5601 123.69 95.5601C125.37 95.5601 126.43 96.8001 126.43 98.8501V102.84C126.43 104.24 126.56 104.31 127.74 104.44V105.05H123.32V105.06Z" fill="#388D99"/>
<path d="M136.78 103.23C135.45 104.95 133.94 105.32 133.23 105.32C130.62 105.32 129.06 103.22 129.06 100.79C129.06 99.35 129.6 98.0101 130.46 97.1001C131.35 96.1201 132.51 95.5801 133.61 95.5801C135.48 95.5801 136.87 97.1801 136.87 98.8701C136.85 99.2801 136.8 99.5001 136.48 99.5801C136.06 99.6701 133.33 99.8499 130.91 99.9299C130.87 102.64 132.51 103.79 134 103.79C134.85 103.79 135.65 103.45 136.43 102.74L136.78 103.23ZM133.13 96.3799C132.19 96.3799 131.28 97.3 131.02 98.99C132.14 98.99 133.25 98.9799 134.42 98.9299C134.78 98.9299 134.91 98.83 134.91 98.51C134.93 97.41 134.24 96.3799 133.13 96.3799Z" fill="#388D99"/>
<path d="M148.44 104.53C147.99 104.61 146.35 104.87 145.03 105.31C145.03 104.88 145.03 104.41 145.03 103.97C144.65 104.21 144.11 104.5 143.73 104.74C142.95 105.19 142.43 105.31 142.18 105.31C140.48 105.31 138.2 103.66 138.2 100.68C138.2 97.7699 140.76 95.5701 143.71 95.5701C143.98 95.5701 144.61 95.6 145.03 95.77V92.8C145.03 91.5 144.89 91.4401 143.43 91.3101V90.74C144.54 90.59 146.05 90.3 146.88 90.03C146.88 90.81 146.88 91.7001 146.88 92.5701V102.58C146.88 103.68 147.02 103.82 147.8 103.87L148.43 103.92V104.53H148.44ZM145.03 97.48C144.59 96.77 143.75 96.4099 142.94 96.4099C142 96.4099 140.28 97.0401 140.28 100.07C140.28 102.65 141.85 103.93 143.12 103.95C143.81 103.95 144.54 103.63 145.03 103.27V97.48Z" fill="#388D99"/>
<path d="M154.25 105.06V104.45C155.54 104.32 155.68 104.22 155.68 102.78V98.5C155.68 97.18 155.61 97.0999 154.4 96.8999V96.3601C155.53 96.1801 156.58 95.9 157.53 95.53C157.53 96.41 157.53 97.2899 157.53 98.1699V102.78C157.53 104.21 157.67 104.32 159 104.45V105.06H154.25ZM156.49 93.6201C155.86 93.6201 155.31 93.0699 155.31 92.4399C155.31 91.7299 155.87 91.23 156.52 91.23C157.15 91.23 157.67 91.7399 157.67 92.4399C157.66 93.0699 157.14 93.6201 156.49 93.6201Z" fill="#388D99"/>
<path d="M166.08 105.06V104.45C167.24 104.32 167.35 104.19 167.35 102.76V99.27C167.35 97.8 166.79 96.8999 165.52 96.8999C164.72 96.8999 163.96 97.3499 163.33 97.9099V102.85C163.33 104.27 163.45 104.32 164.62 104.44V105.05H160.02V104.44C161.35 104.29 161.48 104.21 161.48 102.83V98.5C161.48 97.15 161.33 97.0899 160.23 96.8999V96.3301C161.29 96.1701 162.4 95.89 163.33 95.5C163.33 95.95 163.32 96.6299 163.32 97.1299C163.74 96.8399 164.2 96.5199 164.73 96.1799C165.32 95.7999 165.84 95.5601 166.45 95.5601C168.13 95.5601 169.19 96.8001 169.19 98.8501V102.84C169.19 104.24 169.32 104.31 170.5 104.44V105.05H166.08V105.06Z" fill="#388D99"/>
<path d="M32.27 131.06H27.31V130.45C28.6 130.32 28.7199 130.22 28.7199 128.87V124.46C28.7199 123.13 28.64 123.06 27.46 122.91V122.36C28.54 122.2 29.52 121.94 30.57 121.51C30.57 122.2 30.57 123.12 30.57 123.81C31.34 122.65 32.1999 121.57 33.2199 121.57C33.9999 121.57 34.46 122.06 34.46 122.62C34.46 123.2 34.05 123.69 33.68 123.89C33.45 124.02 33.28 123.98 33.11 123.84C32.79 123.53 32.5299 123.3 32.1599 123.3C31.7399 123.3 31.01 123.88 30.56 124.9V128.85C30.56 130.21 30.67 130.31 32.26 130.44V131.06H32.27Z" fill="#388D99"/>
<path d="M43.06 129.23C41.73 130.95 40.22 131.32 39.51 131.32C36.9 131.32 35.34 129.22 35.34 126.79C35.34 125.35 35.88 124.01 36.74 123.1C37.63 122.12 38.79 121.58 39.89 121.58C41.76 121.58 43.15 123.18 43.15 124.87C43.13 125.28 43.08 125.5 42.76 125.58C42.34 125.67 39.61 125.85 37.19 125.93C37.15 128.64 38.79 129.79 40.28 129.79C41.13 129.79 41.93 129.45 42.71 128.74L43.06 129.23ZM39.4099 122.38C38.4699 122.38 37.56 123.3 37.3 124.99C38.42 124.99 39.53 124.98 40.7 124.93C41.06 124.93 41.19 124.83 41.19 124.51C41.21 123.41 40.5199 122.38 39.4099 122.38Z" fill="#388D99"/>
<path d="M47.4099 127.96C46.9599 128.33 46.77 128.71 46.77 128.95C46.77 129.32 47.14 129.74 48.05 129.74C48.81 129.74 49.7099 129.72 50.4099 129.72C51.7399 129.72 53.49 130.18 53.49 132.25C53.49 134.47 50.85 136.5 48.06 136.5C45.62 136.5 44.35 135.12 44.31 133.9C44.31 133.43 44.4999 133.04 44.8499 132.71C45.2999 132.28 46.07 131.64 46.55 131.28C45.78 131.05 45.2499 130.58 44.9799 130.14C44.7799 129.82 44.7 129.42 44.71 129.19C45.54 128.87 46.29 128.28 46.7 127.73L47.4099 127.96ZM48.42 128.17C46.39 128.17 44.78 126.96 44.78 125C44.78 122.63 46.93 121.52 48.61 121.52C49.34 121.52 50.03 121.71 50.69 122.05C51.64 122.05 52.94 121.88 53.52 121.74L53.64 121.93C53.51 122.27 53.19 122.88 52.86 123.08C52.54 123.08 51.86 123 51.57 122.97C51.92 123.43 52.1599 124.08 52.1599 124.85C52.1699 127.1 50.27 128.17 48.42 128.17ZM48.86 131.34C47.82 131.34 47.3499 131.47 46.9799 131.77C46.4299 132.22 46.05 132.81 46.05 133.39C46.05 134.54 47.22 135.4 48.87 135.4C50.8 135.4 51.9099 134.42 51.9099 133.11C51.9099 132.38 51.54 131.83 50.95 131.59C50.41 131.38 49.72 131.34 48.86 131.34ZM48.42 122.21C47.53 122.21 46.7199 123.06 46.7199 124.69C46.7199 126.31 47.5 127.47 48.62 127.47C49.53 127.44 50.28 126.64 50.28 124.98C50.29 123.4 49.57 122.21 48.42 122.21Z" fill="#388D99"/>
<path d="M61.11 131.31C60.75 131.31 60.29 131.14 60.07 130.9C59.79 130.63 59.66 130.34 59.56 129.98C58.73 130.54 57.7 131.3 57.09 131.3C55.54 131.3 54.4799 130.03 54.4799 128.69C54.4799 127.65 55.04 127 56.18 126.6C57.45 126.16 59.04 125.62 59.51 125.23V124.72C59.51 123.3 58.82 122.49 57.76 122.49C57.3 122.49 57.01 122.71 56.8 122.96C56.56 123.26 56.43 123.72 56.24 124.33C56.13 124.71 55.91 124.85 55.58 124.85C55.15 124.85 54.5999 124.42 54.5999 123.9C54.5999 123.59 54.87 123.34 55.3 123.03C55.97 122.56 57.19 121.81 58.38 121.56C59.05 121.56 59.7099 121.75 60.2199 122.13C60.9799 122.76 61.31 123.5 61.31 124.59V128.57C61.31 129.54 61.66 129.83 62.03 129.83C62.27 129.83 62.54 129.73 62.77 129.61L62.9799 130.22L61.11 131.31ZM59.5 126C59.05 126.23 58.16 126.63 57.69 126.84C56.92 127.19 56.45 127.59 56.45 128.35C56.45 129.47 57.29 129.96 57.92 129.96C58.42 129.96 59.09 129.68 59.5 129.28C59.5 128.3 59.5 126.99 59.5 126Z" fill="#388D99"/>
<path d="M68.7899 131.06H63.83V130.45C65.11 130.32 65.24 130.22 65.24 128.87V124.46C65.24 123.13 65.1599 123.06 63.9799 122.91V122.36C65.0599 122.2 66.04 121.94 67.09 121.51C67.09 122.2 67.09 123.12 67.09 123.81C67.86 122.65 68.72 121.57 69.74 121.57C70.52 121.57 70.9799 122.06 70.9799 122.62C70.9799 123.2 70.57 123.69 70.2 123.89C69.98 124.02 69.8 123.98 69.64 123.84C69.32 123.53 69.06 123.3 68.69 123.3C68.27 123.3 67.54 123.88 67.09 124.9V128.85C67.09 130.21 67.1999 130.31 68.7899 130.44V131.06Z" fill="#388D99"/>
<path d="M82.0999 130.53C81.6499 130.61 80.01 130.87 78.69 131.31C78.69 130.88 78.69 130.41 78.69 129.97C78.31 130.21 77.77 130.5 77.39 130.74C76.61 131.19 76.09 131.31 75.84 131.31C74.14 131.31 71.86 129.66 71.86 126.68C71.86 123.77 74.42 121.57 77.37 121.57C77.64 121.57 78.27 121.6 78.69 121.77V118.8C78.69 117.5 78.55 117.44 77.09 117.31V116.74C78.2 116.59 79.7099 116.3 80.5399 116.03C80.5399 116.81 80.5399 117.7 80.5399 118.57V128.58C80.5399 129.68 80.68 129.82 81.46 129.87L82.09 129.92V130.53H82.0999ZM78.69 123.48C78.25 122.77 77.4099 122.41 76.5999 122.41C75.6599 122.41 73.94 123.04 73.94 126.07C73.94 128.65 75.51 129.93 76.78 129.95C77.47 129.95 78.2 129.63 78.69 129.27V123.48Z" fill="#388D99"/>
<path d="M88.65 124.36C88.24 123.1 87.67 122.29 86.44 122.29C85.73 122.29 85.17 122.8 85.17 123.61C85.17 124.48 85.76 124.9 86.92 125.43C88.71 126.27 89.65 126.92 89.65 128.35C89.65 130.31 87.8499 131.31 86.1599 131.31C85.0699 131.31 84.07 130.96 83.63 130.71C83.53 130.12 83.34 128.92 83.26 128.22L83.88 128.11C84.27 129.45 85.0299 130.57 86.4799 130.57C87.28 130.57 87.9 130.04 87.9 129.2C87.9 128.31 87.38 127.82 86.2299 127.26C84.7699 126.55 83.55 125.87 83.55 124.32C83.55 122.76 84.86 121.57 86.88 121.57C87.78 121.57 88.51 121.78 88.94 121.85C89 122.37 89.16 123.69 89.26 124.21L88.65 124.36Z" fill="#388D99"/>
<path d="M100.05 131.05C99.69 131.24 99.3599 131.32 99.1599 131.32C97.7699 131.32 97.01 130.51 97.01 128.79V122.72H95.58L95.49 122.47L96.07 121.83H97.02V120.07C97.48 119.64 98.16 119.07 98.62 118.63L98.93 118.69C98.89 119.52 98.87 120.71 98.87 121.82H101.21C101.4 122.03 101.33 122.53 101.08 122.71H98.87V128.04C98.87 129.73 99.54 130.02 100.06 130.02C100.54 130.02 100.98 129.85 101.29 129.71L101.48 130.29L100.05 131.05Z" fill="#388D99"/>
<path d="M107.19 121.57C109.88 121.57 111.81 123.61 111.81 126.28C111.81 129.68 109.31 131.31 107.17 131.31C104.22 131.31 102.45 128.97 102.45 126.6C102.46 123.22 105.12 121.57 107.19 121.57ZM106.94 122.31C105.73 122.31 104.62 123.5 104.62 125.96C104.62 128.62 105.74 130.56 107.39 130.56C108.6 130.56 109.65 129.69 109.65 126.78C109.65 124.23 108.69 122.31 106.94 122.31Z" fill="#388D99"/>
<path d="M128.44 130.53C127.99 130.61 126.35 130.87 125.03 131.31C125.03 130.88 125.03 130.41 125.03 129.97C124.65 130.21 124.11 130.5 123.73 130.74C122.95 131.19 122.43 131.31 122.18 131.31C120.48 131.31 118.2 129.66 118.2 126.68C118.2 123.77 120.76 121.57 123.71 121.57C123.98 121.57 124.61 121.6 125.03 121.77V118.8C125.03 117.5 124.89 117.44 123.43 117.31V116.74C124.54 116.59 126.05 116.3 126.88 116.03C126.88 116.81 126.88 117.7 126.88 118.57V128.58C126.88 129.68 127.02 129.82 127.8 129.87L128.43 129.92V130.53H128.44ZM125.03 123.48C124.59 122.77 123.75 122.41 122.94 122.41C122 122.41 120.28 123.04 120.28 126.07C120.28 128.65 121.85 129.93 123.12 129.95C123.81 129.95 124.54 129.63 125.03 129.27V123.48Z" fill="#388D99"/>
<path d="M137.24 129.23C135.91 130.95 134.4 131.32 133.69 131.32C131.08 131.32 129.52 129.22 129.52 126.79C129.52 125.35 130.06 124.01 130.92 123.1C131.81 122.12 132.97 121.58 134.07 121.58C135.94 121.58 137.33 123.18 137.33 124.87C137.31 125.28 137.26 125.5 136.94 125.58C136.52 125.67 133.79 125.85 131.37 125.93C131.33 128.64 132.97 129.79 134.46 129.79C135.31 129.79 136.11 129.45 136.89 128.74L137.24 129.23ZM133.59 122.38C132.65 122.38 131.74 123.3 131.48 124.99C132.6 124.99 133.71 124.98 134.88 124.93C135.24 124.93 135.37 124.83 135.37 124.51C135.39 123.41 134.71 122.38 133.59 122.38Z" fill="#388D99"/>
<path d="M142.76 131.05C142.4 131.24 142.07 131.32 141.87 131.32C140.48 131.32 139.72 130.51 139.72 128.79V122.72H138.29L138.2 122.47L138.78 121.83H139.73V120.07C140.19 119.64 140.87 119.07 141.33 118.63L141.64 118.69C141.6 119.52 141.58 120.71 141.58 121.82H143.92C144.11 122.03 144.04 122.53 143.79 122.71H141.58V128.04C141.58 129.73 142.25 130.02 142.77 130.02C143.25 130.02 143.69 129.85 144 129.71L144.19 130.29L142.76 131.05Z" fill="#388D99"/>
<path d="M151.87 131.31C151.51 131.31 151.05 131.14 150.83 130.9C150.55 130.63 150.42 130.34 150.32 129.98C149.49 130.54 148.46 131.3 147.85 131.3C146.3 131.3 145.24 130.03 145.24 128.69C145.24 127.65 145.8 127 146.94 126.6C148.21 126.16 149.8 125.62 150.27 125.23V124.72C150.27 123.3 149.58 122.49 148.52 122.49C148.06 122.49 147.77 122.71 147.56 122.96C147.32 123.26 147.19 123.72 147 124.33C146.89 124.71 146.67 124.85 146.34 124.85C145.91 124.85 145.36 124.42 145.36 123.9C145.36 123.59 145.63 123.34 146.06 123.03C146.73 122.56 147.95 121.81 149.14 121.56C149.81 121.56 150.47 121.75 150.98 122.13C151.74 122.76 152.07 123.5 152.07 124.59V128.57C152.07 129.54 152.42 129.83 152.79 129.83C153.03 129.83 153.3 129.73 153.53 129.61L153.74 130.22L151.87 131.31ZM150.26 126C149.81 126.23 148.92 126.63 148.45 126.84C147.68 127.19 147.21 127.59 147.21 128.35C147.21 129.47 148.05 129.96 148.68 129.96C149.18 129.96 149.85 129.68 150.26 129.28C150.26 128.3 150.26 126.99 150.26 126Z" fill="#388D99"/>
<path d="M154.57 131.06V130.45C155.86 130.32 156 130.22 156 128.78V124.5C156 123.18 155.93 123.1 154.72 122.9V122.36C155.85 122.18 156.9 121.9 157.85 121.53C157.85 122.41 157.85 123.29 157.85 124.17V128.78C157.85 130.21 157.98 130.32 159.32 130.45V131.06H154.57ZM156.8 119.62C156.17 119.62 155.62 119.07 155.62 118.44C155.62 117.73 156.18 117.23 156.83 117.23C157.46 117.23 157.98 117.74 157.98 118.44C157.97 119.07 157.46 119.62 156.8 119.62Z" fill="#388D99"/>
<path d="M160.07 131.06V130.45C161.39 130.31 161.53 130.21 161.53 128.83V118.86C161.53 117.61 161.42 117.49 160.12 117.31V116.74C161.31 116.61 162.64 116.29 163.37 116.03C163.37 117.01 163.37 118.01 163.37 118.99V128.83C163.37 130.22 163.48 130.32 164.82 130.45V131.06H160.07Z" fill="#388D99"/>
<path d="M171.49 124.36C171.08 123.1 170.51 122.29 169.28 122.29C168.57 122.29 168.01 122.8 168.01 123.61C168.01 124.48 168.6 124.9 169.76 125.43C171.55 126.27 172.49 126.92 172.49 128.35C172.49 130.31 170.69 131.31 169 131.31C167.91 131.31 166.91 130.96 166.47 130.71C166.37 130.12 166.18 128.92 166.1 128.22L166.72 128.11C167.11 129.45 167.87 130.57 169.32 130.57C170.12 130.57 170.74 130.04 170.74 129.2C170.74 128.31 170.22 127.82 169.07 127.26C167.61 126.55 166.39 125.87 166.39 124.32C166.39 122.76 167.7 121.57 169.72 121.57C170.62 121.57 171.35 121.78 171.78 121.85C171.84 122.37 172 123.69 172.1 124.21L171.49 124.36Z" fill="#388D99"/>
<path d="M183.52 121.57C186.21 121.57 188.14 123.61 188.14 126.28C188.14 129.68 185.64 131.31 183.5 131.31C180.55 131.31 178.78 128.97 178.78 126.6C178.79 123.22 181.45 121.57 183.52 121.57ZM183.27 122.31C182.06 122.31 180.95 123.5 180.95 125.96C180.95 128.62 182.07 130.56 183.72 130.56C184.93 130.56 185.98 129.69 185.98 126.78C185.98 124.23 185.02 122.31 183.27 122.31Z" fill="#388D99"/>
<path d="M191.01 121.82V121.28C191.01 119.78 191.58 118.24 192.88 117.14C193.62 116.49 194.42 116.14 195.27 116.03C196 116.05 196.65 116.3 196.99 116.69C197.2 116.93 197.23 117.16 197.13 117.46C197.06 117.7 196.81 118 196.58 118.18C196.33 118.34 196.15 118.29 195.94 118.14C195.51 117.74 194.91 117.22 194.24 117.22C192.86 117.22 192.85 119.06 192.85 120.86V121.83H195.02C195.14 122.02 195.04 122.57 194.79 122.72H192.84V128.77C192.84 130.24 193.06 130.28 194.59 130.45V131.06H189.57V130.45C190.87 130.32 191 130.23 191 128.87V122.71H189.53L189.44 122.47L189.92 121.81H191.01V121.82Z" fill="#388D99"/>
<path d="M41.45 157.31C41.09 157.31 40.6299 157.14 40.4099 156.9C40.1299 156.63 40 156.34 39.9 155.98C39.07 156.54 38.04 157.3 37.43 157.3C35.88 157.3 34.82 156.03 34.82 154.69C34.82 153.65 35.38 153 36.52 152.6C37.79 152.16 39.3799 151.62 39.8499 151.23V150.72C39.8499 149.3 39.1599 148.49 38.0999 148.49C37.6399 148.49 37.35 148.71 37.14 148.96C36.9 149.26 36.77 149.72 36.58 150.33C36.47 150.71 36.25 150.85 35.92 150.85C35.49 150.85 34.94 150.42 34.94 149.9C34.94 149.59 35.21 149.34 35.64 149.03C36.31 148.56 37.5299 147.81 38.7199 147.56C39.3899 147.56 40.05 147.75 40.56 148.13C41.32 148.76 41.65 149.5 41.65 150.59V154.57C41.65 155.54 42 155.83 42.37 155.83C42.61 155.83 42.88 155.73 43.11 155.61L43.32 156.22L41.45 157.31ZM39.8499 152C39.3999 152.23 38.5099 152.63 38.0399 152.84C37.2699 153.19 36.8 153.59 36.8 154.35C36.8 155.47 37.64 155.96 38.27 155.96C38.77 155.96 39.4399 155.68 39.8499 155.28C39.8499 154.3 39.8499 152.99 39.8499 152Z" fill="#388D99"/>
<path d="M43.88 157.06V156.45C45.2 156.31 45.34 156.21 45.34 154.83V144.86C45.34 143.61 45.23 143.49 43.93 143.31V142.74C45.12 142.61 46.45 142.29 47.18 142.03C47.18 143.01 47.18 144.01 47.18 144.99V154.83C47.18 156.22 47.3 156.32 48.63 156.45V157.06H43.88Z" fill="#388D99"/>
<path d="M49.44 157.06V156.45C50.76 156.31 50.9 156.21 50.9 154.83V144.86C50.9 143.61 50.79 143.49 49.49 143.31V142.74C50.68 142.61 52.01 142.29 52.74 142.03C52.74 143.01 52.74 144.01 52.74 144.99V154.83C52.74 156.22 52.85 156.32 54.19 156.45V157.06H49.44Z" fill="#388D99"/>
<path d="M68.1599 155.14C67.2299 156.39 65.82 157.31 64.56 157.31C61.85 157.31 60.26 155.14 60.26 152.88C60.26 151.24 60.99 149.84 62.38 148.78C63.54 147.89 64.81 147.56 65.65 147.56C66.57 147.56 67.26 147.84 67.58 148.12C67.87 148.35 67.93 148.51 67.93 148.76C67.93 149.28 67.39 149.75 67.14 149.75C67.03 149.75 66.9299 149.7 66.7299 149.54C66.03 148.92 65.3199 148.62 64.5999 148.62C63.3199 148.62 62.14 149.73 62.14 151.93C62.12 154.83 64.1299 155.78 65.2899 155.78C66.1699 155.78 66.8699 155.55 67.7899 154.67L68.1599 155.14Z" fill="#388D99"/>
<path d="M75.96 157.31C75.6 157.31 75.14 157.14 74.92 156.9C74.64 156.63 74.5099 156.34 74.4099 155.98C73.5799 156.54 72.55 157.3 71.94 157.3C70.39 157.3 69.33 156.03 69.33 154.69C69.33 153.65 69.89 153 71.03 152.6C72.3 152.16 73.89 151.62 74.36 151.23V150.72C74.36 149.3 73.67 148.49 72.61 148.49C72.15 148.49 71.86 148.71 71.65 148.96C71.41 149.26 71.28 149.72 71.09 150.33C70.98 150.71 70.76 150.85 70.43 150.85C70 150.85 69.45 150.42 69.45 149.9C69.45 149.59 69.72 149.34 70.15 149.03C70.82 148.56 72.0399 147.81 73.2299 147.56C73.9 147.56 74.56 147.75 75.07 148.13C75.83 148.76 76.1599 149.5 76.1599 150.59V154.57C76.1599 155.54 76.51 155.83 76.88 155.83C77.12 155.83 77.39 155.73 77.62 155.61L77.83 156.22L75.96 157.31ZM74.3499 152C73.8999 152.23 73.0099 152.63 72.5399 152.84C71.7699 153.19 71.3 153.59 71.3 154.35C71.3 155.47 72.14 155.96 72.77 155.96C73.27 155.96 73.9399 155.68 74.3499 155.28C74.3499 154.3 74.3499 152.99 74.3499 152Z" fill="#388D99"/>
<path d="M84.24 150.36C83.83 149.1 83.26 148.29 82.03 148.29C81.32 148.29 80.76 148.8 80.76 149.61C80.76 150.48 81.35 150.9 82.51 151.43C84.3 152.27 85.24 152.92 85.24 154.35C85.24 156.31 83.44 157.31 81.75 157.31C80.66 157.31 79.6599 156.96 79.2199 156.71C79.1199 156.12 78.9299 154.92 78.8499 154.22L79.4699 154.11C79.8599 155.45 80.62 156.57 82.07 156.57C82.87 156.57 83.49 156.04 83.49 155.2C83.49 154.31 82.97 153.82 81.82 153.26C80.36 152.55 79.14 151.87 79.14 150.32C79.14 148.76 80.4499 147.57 82.4699 147.57C83.3699 147.57 84.1 147.78 84.53 147.85C84.59 148.37 84.7499 149.69 84.8499 150.21L84.24 150.36Z" fill="#388D99"/>
<path d="M94.4 155.23C93.07 156.95 91.5599 157.32 90.8499 157.32C88.2399 157.32 86.68 155.22 86.68 152.79C86.68 151.35 87.22 150.01 88.08 149.1C88.97 148.12 90.13 147.58 91.2299 147.58C93.0999 147.58 94.49 149.18 94.49 150.87C94.47 151.28 94.4199 151.5 94.0999 151.58C93.6799 151.67 90.95 151.85 88.53 151.93C88.49 154.64 90.13 155.79 91.62 155.79C92.47 155.79 93.27 155.45 94.05 154.74L94.4 155.23ZM90.75 148.38C89.81 148.38 88.9 149.3 88.64 150.99C89.76 150.99 90.8699 150.98 92.0399 150.93C92.3999 150.93 92.53 150.83 92.53 150.51C92.56 149.41 91.87 148.38 90.75 148.38Z" fill="#388D99"/>
<path d="M101.29 150.36C100.88 149.1 100.31 148.29 99.08 148.29C98.37 148.29 97.81 148.8 97.81 149.61C97.81 150.48 98.4 150.9 99.56 151.43C101.35 152.27 102.29 152.92 102.29 154.35C102.29 156.31 100.49 157.31 98.8 157.31C97.71 157.31 96.71 156.96 96.27 156.71C96.17 156.12 95.98 154.92 95.9 154.22L96.52 154.11C96.91 155.45 97.67 156.57 99.12 156.57C99.92 156.57 100.54 156.04 100.54 155.2C100.54 154.31 100.02 153.82 98.87 153.26C97.41 152.55 96.19 151.87 96.19 150.32C96.19 148.76 97.5 147.57 99.52 147.57C100.42 147.57 101.15 147.78 101.58 147.85C101.64 148.37 101.8 149.69 101.9 150.21L101.29 150.36Z" fill="#388D99"/>
<path d="M115.29 157.31C114.93 157.31 114.47 157.14 114.25 156.9C113.97 156.63 113.84 156.34 113.74 155.98C112.91 156.54 111.88 157.3 111.27 157.3C109.72 157.3 108.66 156.03 108.66 154.69C108.66 153.65 109.22 153 110.36 152.6C111.63 152.16 113.22 151.62 113.69 151.23V150.72C113.69 149.3 113 148.49 111.94 148.49C111.48 148.49 111.19 148.71 110.98 148.96C110.74 149.26 110.61 149.72 110.42 150.33C110.31 150.71 110.09 150.85 109.76 150.85C109.33 150.85 108.78 150.42 108.78 149.9C108.78 149.59 109.05 149.34 109.48 149.03C110.15 148.56 111.37 147.81 112.56 147.56C113.23 147.56 113.89 147.75 114.4 148.13C115.16 148.76 115.49 149.5 115.49 150.59V154.57C115.49 155.54 115.84 155.83 116.21 155.83C116.45 155.83 116.72 155.73 116.95 155.61L117.16 156.22L115.29 157.31ZM113.68 152C113.23 152.23 112.34 152.63 111.87 152.84C111.1 153.19 110.63 153.59 110.63 154.35C110.63 155.47 111.47 155.96 112.1 155.96C112.6 155.96 113.27 155.68 113.68 155.28C113.68 154.3 113.68 152.99 113.68 152Z" fill="#388D99"/>
<path d="M124.04 157.06V156.45C125.2 156.32 125.31 156.19 125.31 154.76V151.27C125.31 149.8 124.75 148.9 123.48 148.9C122.68 148.9 121.92 149.35 121.29 149.91V154.85C121.29 156.27 121.41 156.32 122.58 156.44V157.05H117.98V156.44C119.31 156.29 119.44 156.21 119.44 154.83V150.5C119.44 149.15 119.29 149.09 118.19 148.9V148.33C119.25 148.17 120.36 147.89 121.29 147.5C121.29 147.95 121.28 148.63 121.28 149.13C121.7 148.84 122.16 148.52 122.69 148.18C123.28 147.8 123.8 147.56 124.41 147.56C126.09 147.56 127.15 148.8 127.15 150.85V154.84C127.15 156.24 127.28 156.31 128.46 156.44V157.05H124.04V157.06Z" fill="#388D99"/>
<path d="M140.01 156.53C139.56 156.61 137.92 156.87 136.6 157.31C136.6 156.88 136.6 156.41 136.6 155.97C136.22 156.21 135.68 156.5 135.3 156.74C134.52 157.19 134 157.31 133.75 157.31C132.05 157.31 129.77 155.66 129.77 152.68C129.77 149.77 132.33 147.57 135.28 147.57C135.55 147.57 136.18 147.6 136.6 147.77V144.8C136.6 143.5 136.46 143.44 135 143.31V142.74C136.11 142.59 137.62 142.3 138.45 142.03C138.45 142.81 138.45 143.7 138.45 144.57V154.58C138.45 155.68 138.59 155.82 139.37 155.87L140 155.92V156.53H140.01ZM136.6 149.48C136.16 148.77 135.32 148.41 134.51 148.41C133.57 148.41 131.85 149.04 131.85 152.07C131.85 154.65 133.42 155.93 134.69 155.95C135.38 155.95 136.11 155.63 136.6 155.27V149.48Z" fill="#388D99"/>
<path d="M150.68 147.57C153.36 147.57 155.3 149.61 155.3 152.28C155.3 155.68 152.8 157.31 150.66 157.31C147.71 157.31 145.94 154.97 145.94 152.6C145.95 149.22 148.61 147.57 150.68 147.57ZM150.43 148.31C149.22 148.31 148.11 149.5 148.11 151.96C148.11 154.62 149.23 156.56 150.88 156.56C152.09 156.56 153.14 155.69 153.14 152.78C153.14 150.23 152.18 148.31 150.43 148.31Z" fill="#388D99"/>
<path d="M158.16 147.82V147.28C158.16 145.78 158.73 144.24 160.03 143.14C160.77 142.49 161.57 142.14 162.42 142.03C163.15 142.05 163.8 142.3 164.14 142.69C164.35 142.93 164.38 143.16 164.28 143.46C164.2 143.7 163.96 144 163.73 144.18C163.48 144.34 163.3 144.29 163.09 144.14C162.65 143.74 162.06 143.22 161.38 143.22C160 143.22 159.99 145.06 159.99 146.86V147.83H162.16C162.28 148.02 162.18 148.57 161.94 148.72H159.99V154.77C159.99 156.24 160.21 156.28 161.74 156.45V157.06H156.71V156.45C158.01 156.32 158.14 156.23 158.14 154.87V148.71H156.67L156.58 148.47L157.06 147.81H158.16V147.82Z" fill="#388D99"/>
<path d="M174.53 157.31C174.17 157.31 173.71 157.14 173.49 156.9C173.21 156.63 173.08 156.34 172.98 155.98C172.15 156.54 171.12 157.3 170.51 157.3C168.96 157.3 167.9 156.03 167.9 154.69C167.9 153.65 168.46 153 169.6 152.6C170.87 152.16 172.46 151.62 172.93 151.23V150.72C172.93 149.3 172.24 148.49 171.18 148.49C170.72 148.49 170.43 148.71 170.22 148.96C169.98 149.26 169.85 149.72 169.66 150.33C169.55 150.71 169.33 150.85 169 150.85C168.57 150.85 168.02 150.42 168.02 149.9C168.02 149.59 168.29 149.34 168.72 149.03C169.39 148.56 170.61 147.81 171.8 147.56C172.47 147.56 173.13 147.75 173.64 148.13C174.4 148.76 174.73 149.5 174.73 150.59V154.57C174.73 155.54 175.08 155.83 175.45 155.83C175.69 155.83 175.96 155.73 176.19 155.61L176.4 156.22L174.53 157.31ZM172.92 152C172.47 152.23 171.58 152.63 171.11 152.84C170.34 153.19 169.87 153.59 169.87 154.35C169.87 155.47 170.71 155.96 171.34 155.96C171.84 155.96 172.51 155.68 172.92 155.28C172.92 154.3 172.92 152.99 172.92 152Z" fill="#388D99"/>
<path d="M176.95 157.06V156.45C178.27 156.31 178.41 156.21 178.41 154.83V144.86C178.41 143.61 178.3 143.49 177 143.31V142.74C178.19 142.61 179.52 142.29 180.25 142.03C180.25 143.01 180.25 144.01 180.25 144.99V154.83C180.25 156.22 180.37 156.32 181.7 156.45V157.06H176.95Z" fill="#388D99"/>
<path d="M182.52 157.06V156.45C183.84 156.31 183.98 156.21 183.98 154.83V144.86C183.98 143.61 183.87 143.49 182.57 143.31V142.74C183.76 142.61 185.09 142.29 185.82 142.03C185.82 143.01 185.82 144.01 185.82 144.99V154.83C185.82 156.22 185.93 156.32 187.27 156.45V157.06H182.52Z" fill="#388D99"/>
<path d="M40.89 174.27C41.9 174.12 43.05 173.76 44.08 173.36C44.08 173.85 44.08 174.52 44.08 175.01C44.14 174.97 45.76 174.03 45.84 173.99C46.35 173.71 46.79 173.57 47.08 173.57C49.39 173.57 50.78 175.54 50.78 177.6C50.78 180.77 48.28 182.79 45.53 183.31C44.92 183.29 44.37 183.13 44.07 182.97V185.75C44.07 187.24 44.23 187.36 45.81 187.52V188.13H40.7199V187.52C42.0699 187.38 42.2199 187.26 42.2199 185.9V176.38C42.2199 175.14 42.16 175.05 40.88 174.87V174.27H40.89ZM44.08 181.48C44.55 181.95 45.36 182.29 46.03 182.29C47.73 182.29 48.84 180.79 48.84 178.45C48.84 176.13 47.52 174.9 46.11 174.9C45.41 174.9 44.61 175.33 44.08 175.72V181.48Z" fill="#388D99"/>
<path d="M59.09 183.31C58.73 183.31 58.27 183.14 58.05 182.9C57.77 182.63 57.6399 182.34 57.5399 181.98C56.7099 182.54 55.68 183.3 55.07 183.3C53.52 183.3 52.46 182.03 52.46 180.69C52.46 179.65 53.0199 179 54.1599 178.6C55.4299 178.16 57.02 177.62 57.49 177.23V176.72C57.49 175.3 56.8 174.49 55.74 174.49C55.28 174.49 54.99 174.71 54.78 174.96C54.55 175.26 54.4099 175.72 54.2199 176.33C54.1099 176.71 53.89 176.85 53.56 176.85C53.13 176.85 52.58 176.42 52.58 175.9C52.58 175.59 52.85 175.34 53.28 175.03C53.95 174.56 55.17 173.81 56.36 173.56C57.03 173.56 57.69 173.75 58.19 174.13C58.96 174.76 59.28 175.5 59.28 176.59V180.57C59.28 181.54 59.63 181.83 60 181.83C60.24 181.83 60.51 181.73 60.74 181.61L60.95 182.22L59.09 183.31ZM57.49 178C57.04 178.23 56.15 178.63 55.68 178.84C54.91 179.19 54.44 179.59 54.44 180.35C54.44 181.47 55.2799 181.96 55.9099 181.96C56.4099 181.96 57.08 181.68 57.49 181.28C57.49 180.3 57.49 178.99 57.49 178Z" fill="#388D99"/>
<path d="M66.77 183.06H61.81V182.45C63.1 182.32 63.2199 182.22 63.2199 180.87V176.46C63.2199 175.13 63.14 175.06 61.96 174.91V174.36C63.04 174.2 64.02 173.94 65.07 173.51C65.07 174.2 65.07 175.12 65.07 175.81C65.84 174.65 66.6999 173.57 67.7199 173.57C68.4999 173.57 68.96 174.06 68.96 174.62C68.96 175.2 68.55 175.69 68.18 175.89C67.95 176.02 67.78 175.98 67.61 175.84C67.29 175.53 67.0299 175.3 66.6599 175.3C66.2399 175.3 65.51 175.88 65.06 176.9V180.85C65.06 182.21 65.17 182.31 66.76 182.44V183.06H66.77Z" fill="#388D99"/>
<path d="M73.95 183.05C73.59 183.24 73.26 183.32 73.06 183.32C71.67 183.32 70.9099 182.51 70.9099 180.79V174.72H69.4799L69.39 174.47L69.9699 173.83H70.92V172.07C71.38 171.64 72.06 171.07 72.52 170.63L72.83 170.69C72.79 171.52 72.77 172.71 72.77 173.82H75.11C75.3 174.03 75.2299 174.53 74.9799 174.71H72.77V180.04C72.77 181.73 73.44 182.02 73.96 182.02C74.44 182.02 74.88 181.85 75.19 181.71L75.38 182.29L73.95 183.05Z" fill="#388D99"/>
<path d="M76.24 183.06V182.45C77.53 182.32 77.67 182.22 77.67 180.78V176.5C77.67 175.18 77.6 175.1 76.39 174.9V174.36C77.52 174.18 78.57 173.9 79.52 173.53C79.52 174.41 79.52 175.29 79.52 176.17V180.78C79.52 182.21 79.65 182.32 80.99 182.45V183.06H76.24ZM78.4699 171.62C77.8399 171.62 77.2899 171.07 77.2899 170.44C77.2899 169.73 77.85 169.23 78.5 169.23C79.13 169.23 79.65 169.74 79.65 170.44C79.64 171.07 79.1299 171.62 78.4699 171.62Z" fill="#388D99"/>
<path d="M89.8499 181.23C88.5199 182.95 87.01 183.32 86.3 183.32C83.69 183.32 82.13 181.22 82.13 178.79C82.13 177.35 82.67 176.01 83.53 175.1C84.42 174.12 85.58 173.58 86.69 173.58C88.56 173.58 89.95 175.18 89.95 176.87C89.93 177.28 89.88 177.5 89.56 177.58C89.14 177.67 86.41 177.85 83.99 177.93C83.95 180.64 85.59 181.79 87.08 181.79C87.93 181.79 88.74 181.45 89.51 180.74L89.8499 181.23ZM86.2 174.38C85.26 174.38 84.35 175.3 84.09 176.99C85.21 176.99 86.32 176.98 87.49 176.93C87.85 176.93 87.9799 176.83 87.9799 176.51C87.9999 175.41 87.31 174.38 86.2 174.38Z" fill="#388D99"/>
<path d="M96.7299 176.36C96.32 175.1 95.75 174.29 94.52 174.29C93.81 174.29 93.25 174.8 93.25 175.61C93.25 176.48 93.84 176.9 95 177.43C96.79 178.27 97.74 178.92 97.74 180.35C97.74 182.31 95.93 183.31 94.25 183.31C93.16 183.31 92.1599 182.96 91.7199 182.71C91.6199 182.12 91.4299 180.92 91.3499 180.22L91.9699 180.11C92.3599 181.45 93.12 182.57 94.57 182.57C95.37 182.57 95.99 182.04 95.99 181.2C95.99 180.31 95.47 179.82 94.32 179.26C92.87 178.55 91.64 177.87 91.64 176.32C91.64 174.76 92.9499 173.57 94.9699 173.57C95.8699 173.57 96.6 173.78 97.03 173.85C97.09 174.37 97.2499 175.69 97.3499 176.21L96.7299 176.36Z" fill="#388D99"/>
<path d="M103.92 183.06V182.45C105.21 182.32 105.35 182.22 105.35 180.78V176.5C105.35 175.18 105.28 175.1 104.07 174.9V174.36C105.2 174.18 106.25 173.9 107.2 173.53C107.2 174.41 107.2 175.29 107.2 176.17V180.78C107.2 182.21 107.34 182.32 108.67 182.45V183.06H103.92ZM106.15 171.62C105.52 171.62 104.97 171.07 104.97 170.44C104.97 169.73 105.53 169.23 106.18 169.23C106.81 169.23 107.33 169.74 107.33 170.44C107.32 171.07 106.8 171.62 106.15 171.62Z" fill="#388D99"/>
<path d="M115.74 183.06V182.45C116.9 182.32 117.01 182.19 117.01 180.76V177.27C117.01 175.8 116.45 174.9 115.18 174.9C114.38 174.9 113.62 175.35 112.99 175.91V180.85C112.99 182.27 113.11 182.32 114.28 182.44V183.05H109.68V182.44C111.01 182.29 111.14 182.21 111.14 180.83V176.5C111.14 175.15 110.99 175.09 109.89 174.9V174.33C110.95 174.17 112.06 173.89 112.99 173.5C112.99 173.95 112.98 174.63 112.98 175.13C113.4 174.84 113.86 174.52 114.39 174.18C114.98 173.8 115.5 173.56 116.11 173.56C117.79 173.56 118.85 174.8 118.85 176.85V180.84C118.85 182.24 118.98 182.31 120.16 182.44V183.05H115.74V183.06Z" fill="#388D99"/>
<path d="M130.67 174.42C129.54 174.57 129.39 174.75 128.86 175.96C128.16 177.64 126.98 180.39 125.86 183.29H125.2C124.29 180.84 123.27 178.35 122.28 175.9C121.82 174.74 121.64 174.59 120.55 174.42V173.83H125.01V174.42C123.89 174.57 123.84 174.72 124.16 175.59C124.69 177.04 125.54 179.23 126.09 180.59C126.77 178.89 127.47 177.15 127.94 175.79C128.27 174.83 128.21 174.57 126.84 174.42V173.83H130.68V174.42H130.67Z" fill="#388D99"/>
<path d="M135.75 173.57C138.43 173.57 140.37 175.61 140.37 178.28C140.37 181.68 137.87 183.31 135.73 183.31C132.78 183.31 131.01 180.97 131.01 178.6C131.02 175.22 133.68 173.57 135.75 173.57ZM135.5 174.31C134.29 174.31 133.18 175.5 133.18 177.96C133.18 180.62 134.3 182.56 135.95 182.56C137.16 182.56 138.21 181.69 138.21 178.78C138.21 176.23 137.25 174.31 135.5 174.31Z" fill="#388D99"/>
<path d="M141.53 183.06V182.45C142.85 182.31 142.99 182.21 142.99 180.83V170.86C142.99 169.61 142.88 169.49 141.58 169.31V168.74C142.77 168.61 144.1 168.29 144.83 168.03C144.83 169.01 144.83 170.01 144.83 170.99V180.83C144.83 182.22 144.95 182.32 146.28 182.45V183.06H141.53Z" fill="#388D99"/>
<path d="M156.67 174.42C155.54 174.57 155.38 174.75 154.86 175.96C154.16 177.64 152.98 180.39 151.86 183.29H151.2C150.29 180.84 149.27 178.35 148.28 175.9C147.82 174.74 147.64 174.59 146.55 174.42V173.83H151V174.42C149.88 174.57 149.83 174.72 150.15 175.59C150.67 177.04 151.53 179.23 152.08 180.59C152.76 178.89 153.46 177.15 153.93 175.79C154.26 174.83 154.2 174.57 152.83 174.42V173.83H156.67V174.42Z" fill="#388D99"/>
<path d="M164.73 181.23C163.4 182.95 161.89 183.32 161.18 183.32C158.57 183.32 157.01 181.22 157.01 178.79C157.01 177.35 157.55 176.01 158.41 175.1C159.3 174.12 160.46 173.58 161.56 173.58C163.43 173.58 164.82 175.18 164.82 176.87C164.8 177.28 164.75 177.5 164.43 177.58C164.01 177.67 161.28 177.85 158.86 177.93C158.82 180.64 160.46 181.79 161.95 181.79C162.8 181.79 163.6 181.45 164.38 180.74L164.73 181.23ZM161.08 174.38C160.14 174.38 159.23 175.3 158.97 176.99C160.09 176.99 161.2 176.98 162.37 176.93C162.73 176.93 162.86 176.83 162.86 176.51C162.88 175.41 162.19 174.38 161.08 174.38Z" fill="#388D99"/>
<path d="M176.39 182.53C175.94 182.61 174.3 182.87 172.98 183.31C172.98 182.88 172.98 182.41 172.98 181.97C172.6 182.21 172.06 182.5 171.68 182.74C170.9 183.19 170.38 183.31 170.13 183.31C168.43 183.31 166.15 181.66 166.15 178.68C166.15 175.77 168.71 173.57 171.66 173.57C171.93 173.57 172.56 173.6 172.98 173.77V170.8C172.98 169.5 172.84 169.44 171.38 169.31V168.74C172.49 168.59 174 168.3 174.83 168.03C174.83 168.81 174.83 169.7 174.83 170.57V180.58C174.83 181.68 174.97 181.82 175.75 181.87L176.38 181.92V182.53H176.39ZM172.98 175.48C172.54 174.77 171.7 174.41 170.89 174.41C169.95 174.41 168.23 175.04 168.23 178.07C168.23 180.65 169.8 181.93 171.07 181.95C171.76 181.95 172.49 181.63 172.98 181.27V175.48Z" fill="#388D99"/>
<path d="M178.98 183.35C178.18 183.35 177.62 182.77 177.62 181.93C177.62 181.13 178.18 180.51 178.98 180.51C179.78 180.51 180.37 181.12 180.37 181.93C180.38 182.77 179.78 183.35 178.98 183.35Z" fill="#388D99"/>
<defs>
<linearGradient id="paint0_linear" x1="7.19089" y1="2.03428" x2="235.728" y2="297.055" gradientUnits="userSpaceOnUse">
<stop stop-color="#004A48"/>
<stop offset="0.1386" stop-color="#1B5B5C"/>
<stop offset="0.3173" stop-color="#287075"/>
<stop offset="0.4892" stop-color="#317F88"/>
<stop offset="0.6495" stop-color="#368994"/>
<stop offset="0.7867" stop-color="#388C98"/>
</linearGradient>
</defs>
</svg>
