<svg width="222" height="272" viewBox="0 0 222 272" fill="none" xmlns="http://www.w3.org/2000/svg">
<path d="M221.38 0.629883H0.73999V271.05H221.38V0.629883Z" fill="url(#paint0_linear)"/>
<path d="M220.87 5.63989H5.66V270.55H220.87V5.63989Z" fill="white"/>
<path d="M220.37 6.13989V270.05H6.16V6.13989H220.37ZM221.37 5.13989H5.16V271.05H221.37V5.13989Z" fill="#388D99"/>
<path d="M221.37 224.98H5.16V271.05H221.37V224.98Z" fill="#92C3CD"/>
<path d="M221.37 271.05V237.07L187.76 271.05H221.37Z" fill="#004947"/>
<path d="M26.05 253.56V252.75C27.92 252.57 28.13 252.44 28.13 250.41V241.13C28.13 239.1 27.91 238.94 26.05 238.77V237.96H33.12V238.77C31.25 238.95 31.03 239.1 31.03 241.13V250.41C31.03 252.43 31.24 252.55 33.12 252.75V253.56H26.05Z" fill="white"/>
<path d="M51.81 238.77C50.32 238.95 49.85 239.24 49.78 240.33C49.72 241.21 49.66 242.09 49.66 244.23V253.81H48.47L38.37 241.62V247.25C38.37 249.36 38.43 250.35 38.49 251.05C38.57 252.17 39.11 252.65 40.87 252.76V253.57H34.96V252.76C36.37 252.64 36.96 252.28 37.09 251.14C37.18 250.31 37.23 249.37 37.23 247.25V241.41C37.23 240.66 37.18 240.18 36.73 239.59C36.29 238.99 35.74 238.89 34.67 238.79V237.98H38.97L48.48 249.12V244.25C48.48 242.11 48.45 241.24 48.38 240.41C48.31 239.36 47.87 238.92 45.9 238.8V237.99H51.83V238.77H51.81Z" fill="white"/>
<path d="M66.2 241.97C65.95 240.98 65.51 240.11 65.26 239.74C64.84 239.19 64.64 239 63.25 239H61.41V250.42C61.41 252.39 61.63 252.57 63.82 252.73V253.54H56.2V252.73C58.31 252.57 58.51 252.39 58.51 250.42V239H56.79C55.45 239 55.07 239.19 54.63 239.82C54.31 240.28 54.03 241.05 53.71 241.98H52.87C53.03 240.33 53.19 238.58 53.25 237.36H53.91C54.27 237.92 54.55 237.94 55.25 237.94H64.82C65.48 237.94 65.76 237.81 66.15 237.36H66.8C66.82 238.41 66.91 240.39 67.03 241.89L66.2 241.97Z" fill="white"/>
<path d="M81.63 249.57C81.5 250.21 80.84 252.87 80.61 253.56H68.43V252.76C70.63 252.56 70.78 252.41 70.78 250.41V241.13C70.78 239.06 70.5 238.92 68.81 238.77V237.96H76.45C78.88 237.96 79.75 237.94 80.07 237.91C80.09 238.4 80.21 240.31 80.3 241.72L79.44 241.84C79.22 241.02 78.87 240.21 78.52 239.75C78.1 239.16 77.71 239.01 76.41 239.01H74.6C73.75 239.01 73.67 239.07 73.67 239.84V244.96H76.13C77.63 244.96 77.83 244.6 78.17 242.92H79.04V248.13H78.17C77.81 246.37 77.62 246.1 76.11 246.1H73.67V250.46C73.67 252.12 73.89 252.5 75.27 252.53H77.16C78.55 252.53 78.86 252.35 79.39 251.71C79.94 251.08 80.43 250.16 80.8 249.38L81.63 249.57Z" fill="white"/>
<path d="M95.61 249.42C95.44 250.35 94.75 252.88 94.52 253.56H82.88V252.75C85.02 252.58 85.21 252.43 85.21 250.41V241.13C85.21 239.11 84.97 238.94 83.13 238.78V237.97H90.25V238.78C88.36 238.96 88.11 239.1 88.11 241.13V250.6C88.11 251.97 88.21 252.48 89.55 252.5C89.59 252.52 90.91 252.52 91.03 252.52C92.35 252.52 92.71 252.28 93.28 251.65C93.79 251.12 94.37 250.11 94.78 249.16L95.61 249.42Z" fill="white"/>
<path d="M109.53 249.42C109.36 250.35 108.67 252.88 108.44 253.56H96.8V252.75C98.94 252.58 99.13 252.43 99.13 250.41V241.13C99.13 239.11 98.89 238.94 97.05 238.78V237.97H104.17V238.78C102.28 238.96 102.03 239.1 102.03 241.13V250.6C102.03 251.97 102.13 252.48 103.47 252.5C103.51 252.52 104.83 252.52 104.95 252.52C106.27 252.52 106.63 252.28 107.2 251.65C107.71 251.12 108.29 250.11 108.7 249.16L109.53 249.42Z" fill="white"/>
<path d="M110.97 253.56V252.75C112.84 252.57 113.05 252.44 113.05 250.41V241.13C113.05 239.1 112.83 238.94 110.97 238.77V237.96H118.04V238.77C116.17 238.95 115.95 239.1 115.95 241.13V250.41C115.95 252.43 116.16 252.55 118.04 252.75V253.56H110.97Z" fill="white"/>
<path d="M136.01 246.99C134.6 247.21 134.46 247.33 134.46 248.88V250.79C134.46 251.65 134.48 252.45 134.6 253.1C133.28 253.36 130.89 253.92 128.92 253.92C123.35 253.92 120.08 250.5 120.08 245.73C120.08 240.45 124.38 237.63 129.38 237.63C131.5 237.63 133.5 238.11 134.28 238.2C134.33 239.2 134.49 240.9 134.67 242.28L133.81 242.44C133.23 240.4 132.41 239.43 130.92 238.92C130.37 238.73 129.45 238.62 128.81 238.62C125.64 238.62 123.39 241.14 123.39 245.36C123.39 249.44 125.05 252.94 129.23 252.94C129.83 252.94 130.49 252.83 130.94 252.58C131.35 252.34 131.58 251.98 131.58 251.15V249.09C131.58 247.38 131.29 247.21 129.18 246.99V246.17H136V246.99H136.01Z" fill="white"/>
<path d="M150.72 249.57C150.59 250.21 149.93 252.87 149.7 253.56H137.52V252.76C139.72 252.56 139.87 252.41 139.87 250.41V241.13C139.87 239.06 139.59 238.92 137.9 238.77V237.96H145.54C147.97 237.96 148.84 237.94 149.16 237.91C149.18 238.4 149.3 240.31 149.39 241.72L148.53 241.84C148.31 241.02 147.96 240.21 147.61 239.75C147.19 239.16 146.8 239.01 145.5 239.01H143.69C142.84 239.01 142.76 239.07 142.76 239.84V244.96H145.22C146.72 244.96 146.92 244.6 147.26 242.92H148.13V248.13H147.26C146.9 246.37 146.71 246.1 145.2 246.1H142.76V250.46C142.76 252.12 142.98 252.5 144.36 252.53H146.25C147.64 252.53 147.95 252.35 148.48 251.71C149.03 251.08 149.52 250.16 149.89 249.38L150.72 249.57Z" fill="white"/>
<path d="M168.9 238.77C167.41 238.95 166.94 239.24 166.87 240.33C166.81 241.21 166.75 242.09 166.75 244.23V253.81H165.56L155.46 241.62V247.25C155.46 249.36 155.52 250.35 155.58 251.05C155.66 252.17 156.2 252.65 157.96 252.76V253.57H152.05V252.76C153.46 252.64 154.05 252.28 154.18 251.14C154.27 250.31 154.32 249.37 154.32 247.25V241.41C154.32 240.66 154.27 240.18 153.82 239.59C153.38 238.99 152.83 238.89 151.76 238.79V237.98H156.06L165.57 249.12V244.25C165.57 242.11 165.54 241.24 165.47 240.41C165.4 239.36 164.96 238.92 162.99 238.8V237.99H168.92V238.77H168.9Z" fill="white"/>
<path d="M185.06 249.53C184.72 250.71 184.1 252.5 183.72 253.31C183.07 253.45 181.14 253.92 179.31 253.92C173.11 253.92 170.35 249.88 170.35 245.93C170.35 240.99 174.12 237.62 179.74 237.62C181.82 237.62 183.61 238.1 184.28 238.19C184.39 239.3 184.56 240.96 184.74 242.07L183.86 242.24C183.36 240.46 182.69 239.54 181.44 239.03C180.85 238.77 179.94 238.65 179.2 238.65C175.55 238.65 173.68 241.56 173.68 245.4C173.68 249.88 175.99 252.85 179.48 252.85C181.65 252.85 182.94 251.77 184.21 249.21L185.06 249.53Z" fill="white"/>
<path d="M199.92 249.57C199.79 250.21 199.13 252.87 198.9 253.56H186.72V252.76C188.92 252.56 189.07 252.41 189.07 250.41V241.13C189.07 239.06 188.79 238.92 187.1 238.77V237.96H194.74C197.17 237.96 198.04 237.94 198.36 237.91C198.38 238.4 198.5 240.31 198.59 241.72L197.73 241.84C197.51 241.02 197.16 240.21 196.81 239.75C196.39 239.16 196 239.01 194.7 239.01H192.89C192.04 239.01 191.96 239.07 191.96 239.84V244.96H194.42C195.92 244.96 196.12 244.6 196.46 242.92H197.33V248.13H196.46C196.1 246.37 195.91 246.1 194.4 246.1H191.96V250.46C191.96 252.12 192.18 252.5 193.56 252.53H195.45C196.84 252.53 197.15 252.35 197.68 251.71C198.23 251.08 198.72 250.16 199.09 249.38L199.92 249.57Z" fill="white"/>
<path d="M38.29 19.24C38.09 18.52 37.8 17.7999 37.58 17.4399C37.24 16.8999 37.03 16.74 35.86 16.74H33.9V26.8999C33.9 28.5599 34.08 28.7699 36.05 28.8999V29.52H29.79V28.8999C31.71 28.7699 31.88 28.5799 31.88 26.8999V16.74H30.08C28.92 16.74 28.59 16.88 28.22 17.48C27.96 17.9 27.77 18.44 27.5 19.23H26.84C26.97 17.9 27.1 16.5199 27.16 15.3799H27.67C27.98 15.8799 28.22 15.8701 28.82 15.8701H37.15C37.73 15.8701 37.92 15.7799 38.25 15.3799H38.77C38.77 16.3499 38.86 17.9199 38.96 19.1699L38.29 19.24Z" fill="#388D99"/>
<path d="M46.03 29.54V28.9299C47.2 28.7999 47.34 28.6901 47.34 27.3501V23.8601C47.34 22.1401 46.67 21.3201 45.37 21.3301C44.62 21.3301 43.84 21.6801 43.27 22.3401V27.3501C43.27 28.6701 43.43 28.7999 44.63 28.9299V29.54H39.98V28.9299C41.16 28.8199 41.42 28.7201 41.42 27.3301V17.28C41.42 16.19 41.35 15.93 39.98 15.79V15.22C41.17 15.11 42.47 14.8 43.27 14.51C43.27 15.32 43.27 16.2301 43.27 17.0801V21.5601C44.02 20.8101 45.15 20.0601 46.28 20.0601C48.02 20.0601 49.2 21.1499 49.2 23.6299V27.3501C49.2 28.7301 49.36 28.8099 50.54 28.9299V29.54H46.03Z" fill="#388D99"/>
<path d="M58.52 29.79C58.16 29.79 57.7 29.6199 57.48 29.3799C57.2 29.1099 57.07 28.82 56.97 28.46C56.14 29.02 55.11 29.78 54.5 29.78C52.95 29.78 51.89 28.5099 51.89 27.1699C51.89 26.1299 52.45 25.4801 53.59 25.0801C54.86 24.6301 56.45 24.1 56.92 23.71V23.2C56.92 21.78 56.23 20.97 55.17 20.97C54.71 20.97 54.42 21.1899 54.21 21.4399C53.98 21.7399 53.84 22.2001 53.65 22.8101C53.54 23.1901 53.32 23.3301 52.99 23.3301C52.56 23.3301 52.01 22.8999 52.01 22.3799C52.01 22.0699 52.28 21.82 52.71 21.51C53.38 21.04 54.6 20.29 55.79 20.04C56.46 20.04 57.12 20.2301 57.63 20.6101C58.4 21.2401 58.72 21.9801 58.72 23.0701V27.05C58.72 28.02 59.07 28.3101 59.44 28.3101C59.68 28.3101 59.95 28.2101 60.18 28.0901L60.39 28.7L58.52 29.79ZM56.91 24.48C56.46 24.71 55.57 25.1101 55.1 25.3201C54.33 25.6701 53.86 26.0701 53.86 26.8301C53.86 27.9501 54.7 28.4399 55.33 28.4399C55.83 28.4399 56.5 28.16 56.91 27.76C56.91 26.78 56.91 25.46 56.91 24.48Z" fill="#388D99"/>
<path d="M65.43 29.52C65.07 29.71 64.74 29.79 64.54 29.79C63.15 29.79 62.39 28.98 62.39 27.26V21.2H60.96L60.87 20.95L61.44 20.3101H62.39V18.55C62.85 18.11 63.53 17.5501 63.99 17.1101L64.3 17.1699C64.26 17.9999 64.24 19.2 64.24 20.3H66.58C66.77 20.51 66.7 21.0099 66.45 21.1899H64.24V26.52C64.24 28.21 64.91 28.5 65.43 28.5C65.91 28.5 66.35 28.3299 66.66 28.1899L66.85 28.77L65.43 29.52Z" fill="#388D99"/>
<path d="M79.39 29.79C79.03 29.79 78.57 29.6199 78.35 29.3799C78.07 29.1099 77.94 28.82 77.84 28.46C77.01 29.02 75.98 29.78 75.37 29.78C73.82 29.78 72.76 28.5099 72.76 27.1699C72.76 26.1299 73.32 25.4801 74.46 25.0801C75.73 24.6301 77.32 24.1 77.79 23.71V23.2C77.79 21.78 77.1 20.97 76.04 20.97C75.58 20.97 75.29 21.1899 75.08 21.4399C74.85 21.7399 74.71 22.2001 74.52 22.8101C74.41 23.1901 74.19 23.3301 73.86 23.3301C73.43 23.3301 72.88 22.8999 72.88 22.3799C72.88 22.0699 73.15 21.82 73.58 21.51C74.25 21.04 75.47 20.29 76.66 20.04C77.33 20.04 77.99 20.2301 78.5 20.6101C79.27 21.2401 79.59 21.9801 79.59 23.0701V27.05C79.59 28.02 79.94 28.3101 80.31 28.3101C80.55 28.3101 80.82 28.2101 81.05 28.0901L81.26 28.7L79.39 29.79ZM77.78 24.48C77.33 24.71 76.44 25.1101 75.97 25.3201C75.2 25.6701 74.73 26.0701 74.73 26.8301C74.73 27.9501 75.57 28.4399 76.2 28.4399C76.7 28.4399 77.37 28.16 77.78 27.76C77.78 26.78 77.78 25.46 77.78 24.48Z" fill="#388D99"/>
<path d="M81.81 29.54V28.9299C83.13 28.7899 83.27 28.6901 83.27 27.3101V17.3501C83.27 16.1001 83.16 15.98 81.86 15.8V15.23C83.05 15.1 84.38 14.78 85.11 14.52C85.11 15.5 85.11 16.5 85.11 17.48V27.3201C85.11 28.7101 85.22 28.8099 86.56 28.9399V29.55H81.81V29.54Z" fill="#388D99"/>
<path d="M87.38 29.54V28.9299C88.7 28.7899 88.84 28.6901 88.84 27.3101V17.3501C88.84 16.1001 88.73 15.98 87.43 15.8V15.23C88.62 15.1 89.95 14.78 90.68 14.52C90.68 15.5 90.68 16.5 90.68 17.48V27.3201C90.68 28.7101 90.79 28.8099 92.13 28.9399V29.55H87.38V29.54Z" fill="#388D99"/>
<path d="M106.09 27.6201C105.16 28.8701 103.75 29.79 102.49 29.79C99.78 29.79 98.18 27.6201 98.18 25.3601C98.18 23.7201 98.91 22.32 100.3 21.26C101.46 20.37 102.73 20.05 103.57 20.05C104.49 20.05 105.18 20.3301 105.5 20.6001C105.79 20.8301 105.85 20.99 105.85 21.24C105.85 21.76 105.31 22.23 105.06 22.23C104.95 22.23 104.85 22.18 104.65 22.02C103.95 21.4 103.24 21.1001 102.52 21.1001C101.24 21.1001 100.06 22.2099 100.06 24.4099C100.04 27.3099 102.05 28.26 103.21 28.26C104.09 28.26 104.79 28.0299 105.71 27.1499L106.09 27.6201Z" fill="#388D99"/>
<path d="M111.93 20.05C114.62 20.05 116.55 22.09 116.55 24.76C116.55 28.16 114.05 29.79 111.91 29.79C108.96 29.79 107.19 27.4501 107.19 25.0801C107.19 21.6901 109.85 20.05 111.93 20.05ZM111.67 20.78C110.46 20.78 109.35 21.9699 109.35 24.4299C109.35 27.0799 110.47 29.03 112.12 29.03C113.33 29.03 114.38 28.16 114.38 25.25C114.39 22.71 113.42 20.78 111.67 20.78Z" fill="#388D99"/>
<path d="M124.03 29.54V28.9299C125.19 28.8099 125.3 28.67 125.3 27.24V23.75C125.3 22.28 124.74 21.3799 123.47 21.3799C122.67 21.3799 121.91 21.8299 121.28 22.3899V27.3301C121.28 28.7501 121.4 28.7999 122.57 28.9199V29.53H117.97V28.9199C119.3 28.7699 119.43 28.6901 119.43 27.3101V22.98C119.43 21.63 119.28 21.5699 118.18 21.3799V20.8101C119.24 20.6501 120.35 20.37 121.28 19.98C121.28 20.43 121.27 21.1101 121.27 21.6101C121.69 21.3201 122.15 20.9999 122.68 20.6599C123.28 20.2799 123.79 20.04 124.4 20.04C126.08 20.04 127.14 21.2801 127.14 23.3301V27.3101C127.14 28.7101 127.27 28.7799 128.45 28.9099V29.52H124.03V29.54Z" fill="#388D99"/>
<path d="M135.23 22.8401C134.82 21.5801 134.25 20.77 133.02 20.77C132.31 20.77 131.75 21.2801 131.75 22.0901C131.75 22.9601 132.34 23.3799 133.5 23.9099C135.29 24.7499 136.23 25.4001 136.23 26.8301C136.23 28.7901 134.42 29.79 132.74 29.79C131.65 29.79 130.65 29.4399 130.21 29.1899C130.11 28.5999 129.92 27.4 129.84 26.7L130.46 26.5901C130.85 27.9301 131.61 29.05 133.06 29.05C133.86 29.05 134.48 28.5099 134.48 27.6799C134.48 26.7899 133.96 26.3 132.81 25.74C131.36 25.03 130.13 24.35 130.13 22.8C130.13 21.24 131.44 20.05 133.46 20.05C134.36 20.05 135.09 20.2601 135.52 20.3301C135.58 20.8501 135.74 22.1699 135.84 22.6899L135.23 22.8401Z" fill="#388D99"/>
<path d="M147.83 29.05C146.78 29.2 145.6 29.47 144.48 29.79C144.48 29.43 144.48 28.72 144.48 28.21C143.4 29.11 142.48 29.79 141.32 29.79C139.85 29.79 138.67 28.8799 138.67 26.6699V22.55C138.67 21.45 138.51 21.33 137.98 21.21L137.42 21.1001V20.53C138.35 20.49 139.79 20.2899 140.59 20.1599C140.53 20.8699 140.53 21.89 140.53 23.24V26.1299C140.53 27.8899 141.45 28.4099 142.35 28.4099C143.09 28.4099 143.81 28.11 144.48 27.47V22.55C144.48 21.45 144.25 21.2999 143.56 21.1899L142.9 21.1001V20.53C144.22 20.47 145.75 20.2499 146.33 20.1599V27.1599C146.33 28.2199 146.49 28.3799 147.27 28.4299L147.84 28.46V29.05H147.83Z" fill="#388D99"/>
<path d="M148.57 29.54V28.9299C149.89 28.7899 150.03 28.6901 150.03 27.3101V17.3501C150.03 16.1001 149.92 15.98 148.62 15.8V15.23C149.81 15.1 151.14 14.78 151.87 14.52C151.87 15.5 151.87 16.5 151.87 17.48V27.3201C151.87 28.7101 151.98 28.8099 153.32 28.9399V29.55H148.57V29.54Z" fill="#388D99"/>
<path d="M158.63 29.52C158.27 29.71 157.94 29.79 157.74 29.79C156.35 29.79 155.59 28.98 155.59 27.26V21.2H154.16L154.07 20.95L154.64 20.3101H155.59V18.55C156.05 18.11 156.73 17.5501 157.19 17.1101L157.5 17.1699C157.46 17.9999 157.44 19.2 157.44 20.3H159.78C159.97 20.51 159.9 21.0099 159.65 21.1899H157.44V26.52C157.44 28.21 158.11 28.5 158.63 28.5C159.11 28.5 159.55 28.3299 159.86 28.1899L160.05 28.77L158.63 29.52Z" fill="#388D99"/>
<path d="M167.73 29.79C167.37 29.79 166.91 29.6199 166.69 29.3799C166.41 29.1099 166.28 28.82 166.18 28.46C165.35 29.02 164.32 29.78 163.71 29.78C162.16 29.78 161.1 28.5099 161.1 27.1699C161.1 26.1299 161.66 25.4801 162.8 25.0801C164.07 24.6301 165.66 24.1 166.13 23.71V23.2C166.13 21.78 165.44 20.97 164.38 20.97C163.92 20.97 163.63 21.1899 163.42 21.4399C163.19 21.7399 163.05 22.2001 162.86 22.8101C162.75 23.1901 162.53 23.3301 162.2 23.3301C161.77 23.3301 161.22 22.8999 161.22 22.3799C161.22 22.0699 161.49 21.82 161.92 21.51C162.59 21.04 163.81 20.29 165 20.04C165.67 20.04 166.33 20.2301 166.84 20.6101C167.61 21.2401 167.93 21.9801 167.93 23.0701V27.05C167.93 28.02 168.28 28.3101 168.65 28.3101C168.89 28.3101 169.16 28.2101 169.39 28.0901L169.6 28.7L167.73 29.79ZM166.13 24.48C165.68 24.71 164.79 25.1101 164.32 25.3201C163.55 25.6701 163.08 26.0701 163.08 26.8301C163.08 27.9501 163.92 28.4399 164.55 28.4399C165.05 28.4399 165.72 28.16 166.13 27.76C166.13 26.78 166.13 25.46 166.13 24.48Z" fill="#388D99"/>
<path d="M176.48 29.54V28.9299C177.64 28.8099 177.75 28.67 177.75 27.24V23.75C177.75 22.28 177.19 21.3799 175.92 21.3799C175.12 21.3799 174.36 21.8299 173.73 22.3899V27.3301C173.73 28.7501 173.85 28.7999 175.02 28.9199V29.53H170.42V28.9199C171.75 28.7699 171.88 28.6901 171.88 27.3101V22.98C171.88 21.63 171.73 21.5699 170.63 21.3799V20.8101C171.69 20.6501 172.8 20.37 173.73 19.98C173.73 20.43 173.72 21.1101 173.72 21.6101C174.14 21.3201 174.6 20.9999 175.13 20.6599C175.73 20.2799 176.24 20.04 176.85 20.04C178.53 20.04 179.59 21.2801 179.59 23.3301V27.3101C179.59 28.7101 179.72 28.7799 180.9 28.9099V29.52H176.48V29.54Z" fill="#388D99"/>
<path d="M186.33 29.52C185.97 29.71 185.64 29.79 185.44 29.79C184.05 29.79 183.29 28.98 183.29 27.26V21.2H181.86L181.77 20.95L182.34 20.3101H183.29V18.55C183.75 18.11 184.43 17.5501 184.89 17.1101L185.2 17.1699C185.16 17.9999 185.14 19.2 185.14 20.3H187.48C187.67 20.51 187.6 21.0099 187.35 21.1899H185.14V26.52C185.14 28.21 185.81 28.5 186.33 28.5C186.81 28.5 187.25 28.3299 187.56 28.1899L187.75 28.77L186.33 29.52Z" fill="#388D99"/>
<path d="M194.2 22.8401C193.79 21.5801 193.22 20.77 191.99 20.77C191.28 20.77 190.72 21.2801 190.72 22.0901C190.72 22.9601 191.31 23.3799 192.47 23.9099C194.26 24.7499 195.2 25.4001 195.2 26.8301C195.2 28.7901 193.39 29.79 191.71 29.79C190.62 29.79 189.62 29.4399 189.18 29.1899C189.08 28.5999 188.89 27.4 188.81 26.7L189.43 26.5901C189.82 27.9301 190.58 29.05 192.03 29.05C192.83 29.05 193.45 28.5099 193.45 27.6799C193.45 26.7899 192.93 26.3 191.78 25.74C190.33 25.03 189.1 24.35 189.1 22.8C189.1 21.24 190.41 20.05 192.43 20.05C193.33 20.05 194.06 20.2601 194.49 20.3301C194.55 20.8501 194.71 22.1699 194.81 22.6899L194.2 22.8401Z" fill="#388D99"/>
<path d="M45.38 55.79C45.02 55.79 44.56 55.6199 44.34 55.3799C44.06 55.1099 43.93 54.82 43.83 54.46C43 55.02 41.97 55.78 41.36 55.78C39.81 55.78 38.75 54.5099 38.75 53.1699C38.75 52.1299 39.31 51.4801 40.45 51.0801C41.72 50.6301 43.31 50.1 43.78 49.71V49.2C43.78 47.78 43.09 46.97 42.03 46.97C41.57 46.97 41.28 47.1899 41.07 47.4399C40.84 47.7399 40.7 48.2001 40.51 48.8101C40.4 49.1901 40.18 49.3301 39.85 49.3301C39.42 49.3301 38.87 48.8999 38.87 48.3799C38.87 48.0699 39.14 47.82 39.57 47.51C40.24 47.04 41.46 46.29 42.65 46.04C43.32 46.04 43.98 46.2301 44.49 46.6101C45.26 47.2401 45.58 47.9801 45.58 49.0701V53.05C45.58 54.02 45.93 54.3101 46.3 54.3101C46.54 54.3101 46.81 54.2101 47.04 54.0901L47.25 54.7L45.38 55.79ZM43.78 50.48C43.33 50.71 42.44 51.1101 41.97 51.3201C41.2 51.6701 40.73 52.0701 40.73 52.8301C40.73 53.9501 41.57 54.4399 42.2 54.4399C42.7 54.4399 43.37 54.16 43.78 53.76C43.78 52.78 43.78 51.46 43.78 50.48Z" fill="#388D99"/>
<path d="M53.06 55.54H48.1V54.9299C49.38 54.8099 49.51 54.7001 49.51 53.3501V48.9399C49.51 47.6099 49.43 47.5399 48.25 47.3899V46.8401C49.33 46.6801 50.31 46.42 51.36 45.99C51.36 46.68 51.36 47.6 51.36 48.29C52.13 47.13 52.99 46.05 54.01 46.05C54.79 46.05 55.25 46.5401 55.25 47.1001C55.25 47.6801 54.84 48.1701 54.47 48.3701C54.24 48.5001 54.07 48.4601 53.91 48.3201C53.59 48.0101 53.33 47.78 52.96 47.78C52.54 47.78 51.81 48.3599 51.36 49.3799V53.3401C51.36 54.7001 51.47 54.7999 53.06 54.9299V55.54Z" fill="#388D99"/>
<path d="M63.85 53.7C62.52 55.42 61.01 55.79 60.3 55.79C57.69 55.79 56.13 53.69 56.13 51.26C56.13 49.82 56.67 48.4801 57.53 47.5701C58.42 46.5901 59.58 46.05 60.68 46.05C62.55 46.05 63.94 47.6501 63.94 49.3401C63.92 49.7501 63.87 49.97 63.55 50.05C63.13 50.14 60.4 50.3199 57.98 50.3999C57.94 53.1099 59.58 54.26 61.07 54.26C61.92 54.26 62.72 53.92 63.5 53.21L63.85 53.7ZM60.2 46.8601C59.26 46.8601 58.35 47.78 58.09 49.47C59.21 49.47 60.32 49.4599 61.49 49.4099C61.85 49.4099 61.98 49.31 61.98 48.99C62 47.88 61.31 46.8601 60.2 46.8601Z" fill="#388D99"/>
<path d="M75.15 60.59V59.9799C76.78 59.8299 76.88 59.7299 76.88 58.2799V54.9298L74.73 55.7799C71.59 55.7799 70.11 53.3099 70.11 51.2699C70.11 48.1899 72.85 46.0199 75.8 46.0399C76.51 46.0899 77.06 46.21 77.34 46.31C77.62 46.39 77.73 46.4198 77.93 46.4198C78.07 46.3998 78.35 46.3398 78.7 46.1898L78.79 46.2599C78.77 46.6899 78.73 47.1099 78.73 48.5099V58.32C78.73 59.73 78.87 59.8099 80.29 59.9799V60.59H75.15ZM76.88 47.7699C76.42 47.1999 75.55 46.9098 74.9 46.9098C73.5 46.9098 72.13 48.11 72.13 50.6C72.13 53.38 73.87 54.58 75.44 54.58C76.04 54.58 76.49 54.4399 76.87 54.2599V47.7699H76.88Z" fill="#388D99"/>
<path d="M91.31 55.05C90.26 55.2 89.08 55.47 87.96 55.79C87.96 55.43 87.96 54.72 87.96 54.21C86.88 55.11 85.96 55.79 84.8 55.79C83.33 55.79 82.15 54.8799 82.15 52.6699V48.55C82.15 47.45 81.99 47.33 81.46 47.21L80.9 47.1001V46.53C81.83 46.49 83.27 46.2899 84.07 46.1599C84.01 46.8699 84.01 47.89 84.01 49.24V52.1299C84.01 53.8899 84.93 54.4099 85.83 54.4099C86.57 54.4099 87.29 54.11 87.96 53.47V48.55C87.96 47.45 87.73 47.2999 87.04 47.1899L86.38 47.1001V46.53C87.7 46.47 89.23 46.2499 89.81 46.1599V53.1599C89.81 54.2199 89.97 54.3799 90.75 54.4299L91.32 54.46V55.05H91.31Z" fill="#388D99"/>
<path d="M99.14 55.79C98.78 55.79 98.32 55.6199 98.1 55.3799C97.82 55.1099 97.69 54.82 97.59 54.46C96.76 55.02 95.73 55.78 95.12 55.78C93.57 55.78 92.51 54.5099 92.51 53.1699C92.51 52.1299 93.07 51.4801 94.21 51.0801C95.48 50.6301 97.07 50.1 97.54 49.71V49.2C97.54 47.78 96.85 46.97 95.79 46.97C95.33 46.97 95.04 47.1899 94.83 47.4399C94.6 47.7399 94.46 48.2001 94.27 48.8101C94.16 49.1901 93.94 49.3301 93.61 49.3301C93.18 49.3301 92.63 48.8999 92.63 48.3799C92.63 48.0699 92.9 47.82 93.33 47.51C94 47.04 95.22 46.29 96.41 46.04C97.08 46.04 97.74 46.2301 98.25 46.6101C99.02 47.2401 99.34 47.9801 99.34 49.0701V53.05C99.34 54.02 99.69 54.3101 100.06 54.3101C100.3 54.3101 100.57 54.2101 100.8 54.0901L101.01 54.7L99.14 55.79ZM97.54 50.48C97.09 50.71 96.2 51.1101 95.73 51.3201C94.96 51.6701 94.49 52.0701 94.49 52.8301C94.49 53.9501 95.33 54.4399 95.96 54.4399C96.46 54.4399 97.13 54.16 97.54 53.76C97.54 52.78 97.54 51.46 97.54 50.48Z" fill="#388D99"/>
<path d="M101.56 55.54V54.9299C102.88 54.7899 103.02 54.6901 103.02 53.3101V43.3501C103.02 42.1001 102.91 41.98 101.61 41.8V41.23C102.8 41.1 104.13 40.78 104.86 40.52C104.86 41.5 104.86 42.5 104.86 43.48V53.3201C104.86 54.7101 104.97 54.8099 106.31 54.9399V55.55H101.56V55.54Z" fill="#388D99"/>
<path d="M107.4 55.54V54.9299C108.69 54.7999 108.83 54.7 108.83 53.26V48.98C108.83 47.66 108.76 47.5799 107.55 47.3799V46.8401C108.68 46.6601 109.73 46.38 110.68 46.01C110.68 46.89 110.68 47.7699 110.68 48.6499V53.26C110.68 54.69 110.82 54.7999 112.15 54.9299V55.54H107.4ZM109.64 44.0901C109.01 44.0901 108.46 43.5399 108.46 42.9099C108.46 42.1999 109.02 41.7 109.67 41.7C110.3 41.7 110.82 42.2099 110.82 42.9099C110.81 43.5399 110.29 44.0901 109.64 44.0901Z" fill="#388D99"/>
<path d="M118.99 55.54V54.9299C120.19 54.8099 120.33 54.7099 120.33 53.4199V48.3701C120.33 47.3601 120.27 47.21 119.22 47.21H116.44V53.4299C116.44 54.6699 116.6 54.8099 117.87 54.9299V55.54H113.14V54.9299C114.42 54.8099 114.59 54.6899 114.59 53.4299V47.21H113.14L113.05 46.95L113.51 46.3101H114.59C114.59 44.1801 115.26 42.7399 116.61 41.6699C117.49 40.9599 118.55 40.57 119.37 40.52C120.78 40.52 121.52 41.12 121.81 41.51C121.96 41.69 122 41.9001 122 42.0801C121.98 42.4001 121.64 42.83 121.35 43.02C121.05 43.2 120.8 43.1799 120.53 42.8999C120.1 42.4199 119.33 41.6299 118.31 41.6299C117.7 41.6299 117.31 41.8901 117.07 42.3701C116.72 42.9001 116.43 44.14 116.43 45.71V46.3101H118.2C119.76 46.3101 121.16 46.25 122.17 46.04V53.4199C122.17 54.7099 122.32 54.8099 123.66 54.9299V55.54H118.99Z" fill="#388D99"/>
<path d="M132.52 53.7C131.19 55.42 129.68 55.79 128.97 55.79C126.36 55.79 124.8 53.69 124.8 51.26C124.8 49.82 125.34 48.4801 126.2 47.5701C127.09 46.5901 128.25 46.05 129.35 46.05C131.22 46.05 132.61 47.6501 132.61 49.3401C132.59 49.7501 132.54 49.97 132.22 50.05C131.8 50.14 129.07 50.3199 126.65 50.3999C126.61 53.1099 128.25 54.26 129.74 54.26C130.59 54.26 131.39 53.92 132.17 53.21L132.52 53.7ZM128.87 46.8601C127.93 46.8601 127.02 47.78 126.76 49.47C127.88 49.47 128.99 49.4599 130.16 49.4099C130.52 49.4099 130.65 49.31 130.65 48.99C130.67 47.88 129.98 46.8601 128.87 46.8601Z" fill="#388D99"/>
<path d="M144.17 55.01C143.72 55.09 142.08 55.35 140.76 55.8C140.76 55.37 140.76 54.9 140.76 54.46C140.38 54.7 139.84 54.99 139.46 55.23C138.68 55.68 138.16 55.8 137.91 55.8C136.21 55.8 133.93 54.1499 133.93 51.1699C133.93 48.2599 136.49 46.0601 139.44 46.0601C139.71 46.0601 140.34 46.09 140.76 46.26V43.29C140.76 41.99 140.62 41.93 139.16 41.8V41.23C140.27 41.08 141.78 40.79 142.61 40.52C142.61 41.31 142.61 42.2001 142.61 43.0601V53.0701C142.61 54.1701 142.75 54.3101 143.53 54.3601L144.16 54.3999V55.01H144.17ZM140.76 47.96C140.32 47.25 139.48 46.8899 138.67 46.8899C137.73 46.8899 136.01 47.52 136.01 50.55C136.01 53.13 137.58 54.4099 138.85 54.4299C139.54 54.4299 140.27 54.11 140.76 53.75V47.96Z" fill="#388D99"/>
<path d="M154.38 46.29C154.78 46.12 155.12 46.05 155.41 46.05C157.71 46.05 159.57 48.02 159.57 50.5C159.57 53.36 157.13 55.81 154.32 55.79C153.36 55.79 152.2 55.58 151 55.03C151 54.49 151 53.9201 151 53.3601V43.3101C151 42.0301 150.93 41.89 149.61 41.79V41.21C150.62 41.09 152 40.78 152.85 40.5C152.85 41.3 152.85 42.13 152.85 42.95V46.95L154.38 46.29ZM152.85 53.1201C152.85 53.4501 152.88 53.6501 152.96 53.8501C153.19 54.3401 153.97 54.95 154.93 54.95C156.61 54.95 157.5 53.45 157.5 51.04C157.5 48.59 156.07 47.25 154.42 47.25C153.84 47.25 153.24 47.4201 152.85 47.6001V53.1201Z" fill="#388D99"/>
<path d="M170.28 46.8899C169.2 47.0499 168.98 47.2299 168.45 48.4199C167.93 49.5799 167.35 51.03 165.95 54.55C164.57 57.92 164.19 59.2301 163.85 60.3401C163.72 60.7901 163.49 60.8999 163.2 60.8999C162.5 60.8999 161.85 60.3901 161.85 59.8301C161.85 59.5501 161.99 59.3601 162.33 59.0901C163.03 58.5801 163.53 58.09 163.8 57.54C164.2 56.75 164.5 56.05 164.6 55.78C164.68 55.47 164.68 55.2799 164.55 54.9299C163.68 52.4199 162.51 49.7899 161.93 48.3899C161.48 47.2799 161.28 47.0299 160.15 46.8899V46.3H164.57V46.8899C163.62 47.0399 163.5 47.24 163.77 47.99L165.73 53.02C166.3 51.63 167.12 49.3701 167.55 48.0701C167.79 47.2901 167.62 47.0599 166.44 46.8899V46.3H170.28V46.8899Z" fill="#388D99"/>
<path d="M182.15 55.79C181.79 55.79 181.33 55.6199 181.11 55.3799C180.83 55.1099 180.7 54.82 180.6 54.46C179.77 55.02 178.74 55.78 178.13 55.78C176.58 55.78 175.52 54.5099 175.52 53.1699C175.52 52.1299 176.08 51.4801 177.22 51.0801C178.49 50.6301 180.08 50.1 180.55 49.71V49.2C180.55 47.78 179.86 46.97 178.8 46.97C178.34 46.97 178.05 47.1899 177.84 47.4399C177.61 47.7399 177.47 48.2001 177.28 48.8101C177.17 49.1901 176.95 49.3301 176.62 49.3301C176.19 49.3301 175.64 48.8999 175.64 48.3799C175.64 48.0699 175.91 47.82 176.34 47.51C177.01 47.04 178.23 46.29 179.42 46.04C180.09 46.04 180.75 46.2301 181.26 46.6101C182.03 47.2401 182.35 47.9801 182.35 49.0701V53.05C182.35 54.02 182.7 54.3101 183.07 54.3101C183.31 54.3101 183.58 54.2101 183.81 54.0901L184.02 54.7L182.15 55.79ZM180.55 50.48C180.1 50.71 179.21 51.1101 178.74 51.3201C177.97 51.6701 177.5 52.0701 177.5 52.8301C177.5 53.9501 178.34 54.4399 178.97 54.4399C179.47 54.4399 180.14 54.16 180.55 53.76C180.55 52.78 180.55 51.46 180.55 50.48Z" fill="#388D99"/>
<path d="M27.86 81.54H22.9V80.9299C24.18 80.8099 24.31 80.7001 24.31 79.3501V74.9399C24.31 73.6099 24.23 73.5399 23.05 73.3899V72.8401C24.13 72.6801 25.11 72.42 26.16 71.99C26.16 72.68 26.16 73.6 26.16 74.29C26.93 73.13 27.79 72.05 28.81 72.05C29.59 72.05 30.05 72.5401 30.05 73.1001C30.05 73.6801 29.64 74.1701 29.27 74.3701C29.04 74.5001 28.87 74.4601 28.71 74.3201C28.39 74.0101 28.13 73.78 27.76 73.78C27.34 73.78 26.61 74.3599 26.16 75.3799V79.3401C26.16 80.7001 26.27 80.7999 27.86 80.9299V81.54Z" fill="#388D99"/>
<path d="M38.65 79.7C37.32 81.42 35.81 81.79 35.1 81.79C32.49 81.79 30.93 79.69 30.93 77.26C30.93 75.82 31.47 74.4801 32.33 73.5701C33.22 72.5901 34.38 72.05 35.48 72.05C37.35 72.05 38.74 73.6501 38.74 75.3401C38.72 75.7501 38.67 75.97 38.35 76.05C37.93 76.14 35.2 76.3199 32.78 76.3999C32.74 79.1099 34.38 80.26 35.87 80.26C36.72 80.26 37.52 79.92 38.3 79.21L38.65 79.7ZM35 72.8601C34.06 72.8601 33.15 73.78 32.89 75.47C34.01 75.47 35.12 75.4599 36.29 75.4099C36.65 75.4099 36.78 75.31 36.78 74.99C36.8 73.88 36.11 72.8601 35 72.8601Z" fill="#388D99"/>
<path d="M47.98 79.6201C47.05 80.8701 45.64 81.79 44.38 81.79C41.67 81.79 40.07 79.6201 40.07 77.3601C40.07 75.7201 40.8 74.32 42.19 73.26C43.35 72.37 44.62 72.05 45.46 72.05C46.38 72.05 47.07 72.3301 47.39 72.6001C47.68 72.8301 47.74 72.99 47.74 73.24C47.74 73.76 47.2 74.23 46.95 74.23C46.84 74.23 46.74 74.18 46.54 74.02C45.84 73.4 45.13 73.1001 44.41 73.1001C43.13 73.1001 41.95 74.2099 41.95 76.4099C41.93 79.3099 43.94 80.26 45.1 80.26C45.98 80.26 46.68 80.0299 47.6 79.1499L47.98 79.6201Z" fill="#388D99"/>
<path d="M53.81 72.05C56.5 72.05 58.43 74.09 58.43 76.76C58.43 80.16 55.93 81.79 53.79 81.79C50.84 81.79 49.07 79.4501 49.07 77.0801C49.08 73.6901 51.74 72.05 53.81 72.05ZM53.56 72.78C52.35 72.78 51.24 73.9699 51.24 76.4299C51.24 79.0799 52.36 81.03 54.01 81.03C55.22 81.03 56.27 80.16 56.27 77.25C56.27 74.71 55.31 72.78 53.56 72.78Z" fill="#388D99"/>
<path d="M62.91 78.4299C62.46 78.7999 62.27 79.1699 62.27 79.4199C62.27 79.7899 62.63 80.21 63.55 80.21C64.31 80.21 65.21 80.1899 65.9 80.1899C67.23 80.1899 68.98 80.65 68.98 82.72C68.98 84.94 66.34 86.96 63.55 86.96C61.11 86.96 59.84 85.5801 59.8 84.3601C59.8 83.8901 59.99 83.4999 60.34 83.1699C60.79 82.7399 61.56 82.11 62.04 81.74C61.27 81.51 60.74 81.0401 60.47 80.6001C60.27 80.2801 60.2 79.8799 60.2 79.6499C61.03 79.3299 61.78 78.7399 62.19 78.1899L62.91 78.4299ZM63.92 78.6399C61.89 78.6399 60.28 77.43 60.28 75.47C60.28 73.1 62.43 71.99 64.11 71.99C64.84 71.99 65.53 72.18 66.19 72.52C67.14 72.52 68.44 72.36 69.02 72.21L69.14 72.3999C69.01 72.7399 68.69 73.35 68.36 73.55C68.04 73.55 67.36 73.4699 67.07 73.4399C67.42 73.8999 67.66 74.5501 67.66 75.3201C67.67 77.5701 65.77 78.6399 63.92 78.6399ZM64.36 81.8201C63.32 81.8201 62.85 81.95 62.48 82.25C61.93 82.7 61.55 83.2901 61.55 83.8701C61.55 85.0201 62.72 85.8799 64.37 85.8799C66.3 85.8799 67.41 84.9001 67.41 83.5901C67.41 82.8701 67.04 82.3101 66.44 82.0701C65.91 81.8601 65.22 81.8201 64.36 81.8201ZM63.92 72.6899C63.03 72.6899 62.22 73.5399 62.22 75.1699C62.22 76.7899 63 77.95 64.12 77.95C65.02 77.91 65.78 77.12 65.78 75.46C65.78 73.87 65.07 72.6899 63.92 72.6899Z" fill="#388D99"/>
<path d="M75.84 81.54V80.9299C77 80.8099 77.11 80.67 77.11 79.24V75.75C77.11 74.28 76.55 73.3799 75.28 73.3799C74.48 73.3799 73.72 73.8299 73.09 74.3899V79.3301C73.09 80.7501 73.21 80.7999 74.38 80.9199V81.53H69.78V80.9199C71.11 80.7699 71.24 80.6901 71.24 79.3101V74.98C71.24 73.63 71.09 73.5699 69.99 73.3799V72.8101C71.05 72.6501 72.16 72.37 73.09 71.98C73.09 72.43 73.08 73.1101 73.08 73.6101C73.5 73.3201 73.96 72.9999 74.49 72.6599C75.09 72.2799 75.6 72.04 76.21 72.04C77.89 72.04 78.95 73.2801 78.95 75.3301V79.3101C78.95 80.7101 79.08 80.7799 80.26 80.9099V81.52H75.84V81.54Z" fill="#388D99"/>
<path d="M81.47 81.54V80.9299C82.76 80.7999 82.9 80.7 82.9 79.26V74.98C82.9 73.66 82.83 73.5799 81.62 73.3799V72.8401C82.75 72.6601 83.8 72.38 84.75 72.01C84.75 72.89 84.75 73.7699 84.75 74.6499V79.26C84.75 80.69 84.89 80.7999 86.22 80.9299V81.54H81.47ZM83.7 70.0901C83.07 70.0901 82.52 69.5399 82.52 68.9099C82.52 68.1999 83.08 67.7 83.73 67.7C84.36 67.7 84.88 68.2099 84.88 68.9099C84.87 69.5399 84.36 70.0901 83.7 70.0901Z" fill="#388D99"/>
<path d="M92.82 74.8401C92.41 73.5801 91.84 72.77 90.61 72.77C89.9 72.77 89.34 73.2801 89.34 74.0901C89.34 74.9601 89.93 75.3799 91.09 75.9099C92.88 76.7499 93.82 77.4001 93.82 78.8301C93.82 80.7901 92.01 81.79 90.33 81.79C89.24 81.79 88.24 81.4399 87.8 81.1899C87.7 80.5999 87.51 79.4 87.43 78.7L88.05 78.5901C88.44 79.9301 89.2 81.05 90.65 81.05C91.45 81.05 92.07 80.5099 92.07 79.6799C92.07 78.7899 91.55 78.3 90.4 77.74C88.95 77.03 87.72 76.35 87.72 74.8C87.72 73.24 89.03 72.05 91.05 72.05C91.95 72.05 92.68 72.2601 93.11 72.3301C93.17 72.8501 93.33 74.1699 93.43 74.6899L92.82 74.8401Z" fill="#388D99"/>
<path d="M102.99 79.7C101.66 81.42 100.15 81.79 99.44 81.79C96.83 81.79 95.27 79.69 95.27 77.26C95.27 75.82 95.81 74.4801 96.67 73.5701C97.56 72.5901 98.72 72.05 99.82 72.05C101.69 72.05 103.08 73.6501 103.08 75.3401C103.06 75.7501 103.01 75.97 102.69 76.05C102.27 76.14 99.54 76.3199 97.12 76.3999C97.08 79.1099 98.72 80.26 100.21 80.26C101.06 80.26 101.86 79.92 102.64 79.21L102.99 79.7ZM99.34 72.8601C98.4 72.8601 97.49 73.78 97.23 75.47C98.35 75.47 99.46 75.4599 100.63 75.4099C100.99 75.4099 101.12 75.31 101.12 74.99C101.15 73.88 100.46 72.8601 99.34 72.8601Z" fill="#388D99"/>
<path d="M114.65 81.01C114.2 81.09 112.56 81.35 111.24 81.8C111.24 81.37 111.24 80.9 111.24 80.46C110.86 80.7 110.32 80.99 109.94 81.23C109.16 81.68 108.64 81.8 108.39 81.8C106.69 81.8 104.41 80.1499 104.41 77.1699C104.41 74.2599 106.97 72.0601 109.92 72.0601C110.19 72.0601 110.82 72.09 111.24 72.26V69.29C111.24 67.99 111.1 67.93 109.64 67.8V67.23C110.75 67.08 112.26 66.79 113.09 66.52C113.09 67.31 113.09 68.2001 113.09 69.0601V79.0701C113.09 80.1701 113.23 80.3101 114.01 80.3601L114.64 80.3999V81.01H114.65ZM111.24 73.96C110.8 73.25 109.96 72.8899 109.15 72.8899C108.21 72.8899 106.49 73.52 106.49 76.55C106.49 79.13 108.06 80.4099 109.33 80.4299C110.02 80.4299 110.75 80.11 111.24 79.75V73.96Z" fill="#388D99"/>
<path d="M124.85 72.29C125.25 72.12 125.59 72.05 125.88 72.05C128.18 72.05 130.04 74.02 130.04 76.5C130.04 79.36 127.6 81.81 124.79 81.79C123.83 81.79 122.67 81.58 121.47 81.03C121.47 80.49 121.47 79.9201 121.47 79.3601V69.3101C121.47 68.0301 121.4 67.89 120.08 67.79V67.21C121.09 67.09 122.47 66.78 123.32 66.5C123.32 67.3 123.32 68.13 123.32 68.95V72.95L124.85 72.29ZM123.32 79.1201C123.32 79.4501 123.35 79.6501 123.43 79.8501C123.66 80.3401 124.44 80.95 125.4 80.95C127.08 80.95 127.97 79.45 127.97 77.04C127.97 74.59 126.54 73.25 124.89 73.25C124.31 73.25 123.71 73.4201 123.32 73.6001V79.1201Z" fill="#388D99"/>
<path d="M136.32 72.05C139.01 72.05 140.94 74.09 140.94 76.76C140.94 80.16 138.44 81.79 136.3 81.79C133.35 81.79 131.58 79.4501 131.58 77.0801C131.58 73.6901 134.25 72.05 136.32 72.05ZM136.06 72.78C134.85 72.78 133.74 73.9699 133.74 76.4299C133.74 79.0799 134.86 81.03 136.51 81.03C137.72 81.03 138.77 80.16 138.77 77.25C138.78 74.71 137.81 72.78 136.06 72.78Z" fill="#388D99"/>
<path d="M152.72 81.01C152.27 81.09 150.63 81.35 149.31 81.8C149.31 81.37 149.31 80.9 149.31 80.46C148.93 80.7 148.39 80.99 148.01 81.23C147.23 81.68 146.71 81.8 146.46 81.8C144.76 81.8 142.48 80.1499 142.48 77.1699C142.48 74.2599 145.04 72.0601 147.99 72.0601C148.26 72.0601 148.89 72.09 149.31 72.26V69.29C149.31 67.99 149.17 67.93 147.71 67.8V67.23C148.82 67.08 150.33 66.79 151.16 66.52C151.16 67.31 151.16 68.2001 151.16 69.0601V79.0701C151.16 80.1701 151.3 80.3101 152.08 80.3601L152.71 80.3999V81.01H152.72ZM149.31 73.96C148.87 73.25 148.03 72.8899 147.22 72.8899C146.28 72.8899 144.56 73.52 144.56 76.55C144.56 79.13 146.13 80.4099 147.4 80.4299C148.09 80.4299 148.82 80.11 149.31 79.75V73.96Z" fill="#388D99"/>
<path d="M162.97 72.8899C161.89 73.0499 161.67 73.2299 161.14 74.4199C160.62 75.5799 160.04 77.03 158.64 80.55C157.26 83.92 156.88 85.2301 156.54 86.3401C156.41 86.7901 156.18 86.8999 155.89 86.8999C155.19 86.8999 154.54 86.3901 154.54 85.8301C154.54 85.5501 154.68 85.3601 155.02 85.0901C155.72 84.5801 156.22 84.09 156.49 83.54C156.89 82.75 157.19 82.05 157.29 81.78C157.37 81.47 157.37 81.2799 157.24 80.9299C156.37 78.4199 155.2 75.7899 154.62 74.3899C154.17 73.2799 153.97 73.0299 152.84 72.8899V72.3H157.26V72.8899C156.31 73.0399 156.19 73.24 156.46 73.99L158.42 79.02C158.99 77.63 159.81 75.3701 160.24 74.0701C160.48 73.2901 160.31 73.0599 159.13 72.8899V72.3H162.97V72.8899Z" fill="#388D99"/>
<path d="M174.84 81.79C174.48 81.79 174.02 81.6199 173.8 81.3799C173.52 81.1099 173.39 80.82 173.29 80.46C172.46 81.02 171.43 81.78 170.82 81.78C169.27 81.78 168.21 80.5099 168.21 79.1699C168.21 78.1299 168.77 77.4801 169.91 77.0801C171.18 76.6301 172.77 76.1 173.24 75.71V75.2C173.24 73.78 172.55 72.97 171.49 72.97C171.03 72.97 170.74 73.1899 170.53 73.4399C170.3 73.7399 170.16 74.2001 169.97 74.8101C169.86 75.1901 169.64 75.3301 169.31 75.3301C168.88 75.3301 168.33 74.8999 168.33 74.3799C168.33 74.0699 168.6 73.82 169.03 73.51C169.7 73.04 170.92 72.29 172.11 72.04C172.78 72.04 173.44 72.2301 173.95 72.6101C174.72 73.2401 175.04 73.9801 175.04 75.0701V79.05C175.04 80.02 175.39 80.3101 175.76 80.3101C176 80.3101 176.27 80.2101 176.5 80.0901L176.71 80.7L174.84 81.79ZM173.24 76.48C172.79 76.71 171.9 77.1101 171.43 77.3201C170.66 77.6701 170.19 78.0701 170.19 78.8301C170.19 79.9501 171.03 80.4399 171.66 80.4399C172.16 80.4399 172.83 80.16 173.24 79.76C173.24 78.78 173.24 77.46 173.24 76.48Z" fill="#388D99"/>
<path d="M183.59 81.54V80.9299C184.75 80.8099 184.86 80.67 184.86 79.24V75.75C184.86 74.28 184.3 73.3799 183.03 73.3799C182.23 73.3799 181.47 73.8299 180.84 74.3899V79.3301C180.84 80.7501 180.96 80.7999 182.13 80.9199V81.53H177.53V80.9199C178.86 80.7699 178.99 80.6901 178.99 79.3101V74.98C178.99 73.63 178.84 73.5699 177.74 73.3799V72.8101C178.8 72.6501 179.91 72.37 180.84 71.98C180.84 72.43 180.83 73.1101 180.83 73.6101C181.25 73.3201 181.71 72.9999 182.24 72.6599C182.84 72.2799 183.35 72.04 183.96 72.04C185.64 72.04 186.7 73.2801 186.7 75.3301V79.3101C186.7 80.7101 186.83 80.7799 188.01 80.9099V81.52H183.59V81.54Z" fill="#388D99"/>
<path d="M199.57 81.01C199.12 81.09 197.48 81.35 196.16 81.8C196.16 81.37 196.16 80.9 196.16 80.46C195.78 80.7 195.24 80.99 194.86 81.23C194.08 81.68 193.56 81.8 193.31 81.8C191.61 81.8 189.33 80.1499 189.33 77.1699C189.33 74.2599 191.89 72.0601 194.84 72.0601C195.11 72.0601 195.74 72.09 196.16 72.26V69.29C196.16 67.99 196.02 67.93 194.56 67.8V67.23C195.67 67.08 197.18 66.79 198.01 66.52C198.01 67.31 198.01 68.2001 198.01 69.0601V79.0701C198.01 80.1701 198.15 80.3101 198.93 80.3601L199.56 80.3999V81.01H199.57ZM196.16 73.96C195.72 73.25 194.88 72.8899 194.07 72.8899C193.13 72.8899 191.41 73.52 191.41 76.55C191.41 79.13 192.98 80.4099 194.25 80.4299C194.94 80.4299 195.67 80.11 196.16 79.75V73.96Z" fill="#388D99"/>
<path d="M24.09 107.01C23.64 107.09 22 107.35 20.68 107.8C20.68 107.37 20.68 106.9 20.68 106.46C20.3 106.7 19.76 106.99 19.38 107.23C18.6 107.68 18.08 107.8 17.83 107.8C16.13 107.8 13.85 106.15 13.85 103.17C13.85 100.26 16.41 98.0601 19.36 98.0601C19.63 98.0601 20.26 98.09 20.68 98.26V95.29C20.68 93.99 20.54 93.93 19.08 93.8V93.23C20.19 93.08 21.7 92.79 22.53 92.52C22.53 93.31 22.53 94.2001 22.53 95.0601V105.07C22.53 106.17 22.67 106.31 23.45 106.36L24.08 106.4V107.01H24.09ZM20.68 99.96C20.24 99.25 19.4 98.8899 18.59 98.8899C17.65 98.8899 15.93 99.52 15.93 102.55C15.93 105.13 17.5 106.41 18.77 106.43C19.46 106.43 20.19 106.11 20.68 105.75V99.96Z" fill="#388D99"/>
<path d="M32.89 105.7C31.56 107.42 30.05 107.79 29.34 107.79C26.73 107.79 25.17 105.69 25.17 103.26C25.17 101.82 25.71 100.48 26.57 99.5701C27.46 98.5901 28.62 98.05 29.72 98.05C31.59 98.05 32.98 99.6501 32.98 101.34C32.96 101.75 32.91 101.97 32.59 102.05C32.17 102.14 29.44 102.32 27.02 102.4C26.98 105.11 28.62 106.26 30.11 106.26C30.96 106.26 31.76 105.92 32.54 105.21L32.89 105.7ZM29.24 98.8601C28.3 98.8601 27.39 99.78 27.13 101.47C28.25 101.47 29.36 101.46 30.53 101.41C30.89 101.41 31.02 101.31 31.02 100.99C31.04 99.88 30.35 98.8601 29.24 98.8601Z" fill="#388D99"/>
<path d="M33.91 107.54V106.93C35.23 106.79 35.37 106.69 35.37 105.31V95.3501C35.37 94.1001 35.26 93.98 33.96 93.8V93.23C35.15 93.1 36.48 92.78 37.21 92.52C37.21 93.5 37.21 94.5 37.21 95.48V105.32C37.21 106.71 37.32 106.81 38.66 106.94V107.55H33.91V107.54Z" fill="#388D99"/>
<path d="M39.75 107.54V106.93C41.04 106.8 41.18 106.7 41.18 105.26V100.98C41.18 99.66 41.11 99.5799 39.9 99.3799V98.8401C41.03 98.6601 42.08 98.38 43.03 98.01C43.03 98.89 43.03 99.7699 43.03 100.65V105.26C43.03 106.69 43.17 106.8 44.5 106.93V107.54H39.75ZM41.99 96.0901C41.36 96.0901 40.81 95.5399 40.81 94.9099C40.81 94.1999 41.37 93.7 42.02 93.7C42.65 93.7 43.17 94.2099 43.17 94.9099C43.16 95.5399 42.64 96.0901 41.99 96.0901Z" fill="#388D99"/>
<path d="M54.83 98.8899C53.7 99.0399 53.55 99.2199 53.02 100.43C52.32 102.11 51.14 104.87 50.02 107.76H49.36C48.45 105.31 47.43 102.82 46.44 100.37C45.98 99.2101 45.8 99.0599 44.71 98.8899V98.3H49.17V98.8899C48.05 99.0399 48 99.1901 48.32 100.06C48.84 101.51 49.7 103.7 50.25 105.06C50.93 103.36 51.63 101.62 52.1 100.26C52.43 99.3 52.37 99.0399 51 98.8899V98.3H54.84V98.8899H54.83Z" fill="#388D99"/>
<path d="M62.9 105.7C61.57 107.42 60.06 107.79 59.35 107.79C56.74 107.79 55.18 105.69 55.18 103.26C55.18 101.82 55.72 100.48 56.58 99.5701C57.47 98.5901 58.63 98.05 59.73 98.05C61.6 98.05 62.99 99.6501 62.99 101.34C62.97 101.75 62.92 101.97 62.6 102.05C62.18 102.14 59.45 102.32 57.03 102.4C56.99 105.11 58.63 106.26 60.12 106.26C60.97 106.26 61.77 105.92 62.55 105.21L62.9 105.7ZM59.25 98.8601C58.31 98.8601 57.4 99.78 57.14 101.47C58.26 101.47 59.37 101.46 60.54 101.41C60.9 101.41 61.03 101.31 61.03 100.99C61.05 99.88 60.36 98.8601 59.25 98.8601Z" fill="#388D99"/>
<path d="M69.18 107.54H64.22V106.93C65.5 106.81 65.63 106.7 65.63 105.35V100.94C65.63 99.6099 65.55 99.5399 64.37 99.3899V98.8401C65.45 98.6801 66.43 98.42 67.48 97.99C67.48 98.68 67.48 99.6 67.48 100.29C68.25 99.13 69.11 98.05 70.13 98.05C70.91 98.05 71.37 98.5401 71.37 99.1001C71.37 99.6801 70.96 100.17 70.59 100.37C70.36 100.5 70.19 100.46 70.03 100.32C69.71 100.01 69.45 99.78 69.08 99.78C68.66 99.78 67.93 100.36 67.48 101.38V105.34C67.48 106.7 67.59 106.8 69.18 106.93V107.54Z" fill="#388D99"/>
<path d="M81.42 98.8899C80.34 99.0499 80.12 99.2299 79.59 100.42C79.07 101.58 78.49 103.03 77.09 106.55C75.71 109.92 75.33 111.23 74.99 112.34C74.86 112.79 74.63 112.9 74.34 112.9C73.64 112.9 72.99 112.39 72.99 111.83C72.99 111.55 73.13 111.36 73.47 111.09C74.17 110.58 74.67 110.09 74.94 109.54C75.34 108.75 75.64 108.05 75.74 107.78C75.82 107.47 75.82 107.28 75.69 106.93C74.82 104.42 73.65 101.79 73.07 100.39C72.62 99.2799 72.42 99.0299 71.29 98.8899V98.3H75.71V98.8899C74.76 99.0399 74.64 99.24 74.91 99.99L76.87 105.02C77.44 103.63 78.26 101.37 78.69 100.07C78.93 99.2901 78.76 99.0599 77.58 98.8899V98.3H81.42V98.8899Z" fill="#388D99"/>
<path d="M91.33 98.05C94.02 98.05 95.95 100.09 95.95 102.76C95.95 106.16 93.45 107.79 91.31 107.79C88.36 107.79 86.59 105.45 86.59 103.08C86.59 99.6901 89.25 98.05 91.33 98.05ZM91.07 98.78C89.86 98.78 88.75 99.9699 88.75 102.43C88.75 105.08 89.87 107.03 91.52 107.03C92.73 107.03 93.78 106.16 93.78 103.25C93.79 100.71 92.82 98.78 91.07 98.78Z" fill="#388D99"/>
<path d="M98.81 98.3V97.76C98.81 96.26 99.38 94.7201 100.68 93.6201C101.42 92.9701 102.22 92.62 103.07 92.51C103.8 92.53 104.45 92.7799 104.79 93.1699C105 93.4099 105.03 93.6399 104.93 93.9399C104.86 94.1799 104.61 94.4799 104.38 94.6599C104.13 94.8199 103.95 94.7701 103.74 94.6201C103.3 94.2201 102.71 93.7 102.04 93.7C100.66 93.7 100.65 95.5401 100.65 97.3401V98.3101H102.82C102.94 98.5001 102.84 99.05 102.59 99.2H100.64V105.25C100.64 106.72 100.86 106.76 102.39 106.93V107.54H97.37V106.93C98.67 106.8 98.8 106.71 98.8 105.36V99.2H97.33L97.24 98.96L97.72 98.3H98.81Z" fill="#388D99"/>
<path d="M113.21 98.05C115.9 98.05 117.83 100.09 117.83 102.76C117.83 106.16 115.33 107.79 113.19 107.79C110.24 107.79 108.47 105.45 108.47 103.08C108.47 99.6901 111.14 98.05 113.21 98.05ZM112.95 98.78C111.74 98.78 110.63 99.9699 110.63 102.43C110.63 105.08 111.75 107.03 113.4 107.03C114.61 107.03 115.66 106.16 115.66 103.25C115.67 100.71 114.7 98.78 112.95 98.78Z" fill="#388D99"/>
<path d="M129.52 107.05C128.47 107.2 127.29 107.47 126.17 107.79C126.17 107.43 126.17 106.72 126.17 106.21C125.09 107.11 124.17 107.79 123.01 107.79C121.54 107.79 120.36 106.88 120.36 104.67V100.55C120.36 99.45 120.2 99.33 119.67 99.21L119.11 99.1001V98.53C120.04 98.49 121.48 98.2899 122.28 98.1599C122.22 98.8699 122.22 99.89 122.22 101.24V104.13C122.22 105.89 123.14 106.41 124.04 106.41C124.78 106.41 125.5 106.11 126.17 105.47V100.55C126.17 99.45 125.94 99.2999 125.25 99.1899L124.59 99.1001V98.53C125.91 98.47 127.44 98.2499 128.02 98.1599V105.16C128.02 106.22 128.18 106.38 128.96 106.43L129.53 106.46V107.05H129.52Z" fill="#388D99"/>
<path d="M135.52 107.54H130.56V106.93C131.84 106.81 131.97 106.7 131.97 105.35V100.94C131.97 99.6099 131.89 99.5399 130.71 99.3899V98.8401C131.79 98.6801 132.77 98.42 133.82 97.99C133.82 98.68 133.82 99.6 133.82 100.29C134.59 99.13 135.45 98.05 136.47 98.05C137.25 98.05 137.71 98.5401 137.71 99.1001C137.71 99.6801 137.3 100.17 136.93 100.37C136.7 100.5 136.53 100.46 136.37 100.32C136.05 100.01 135.79 99.78 135.42 99.78C135 99.78 134.27 100.36 133.82 101.38V105.34C133.82 106.7 133.93 106.8 135.52 106.93V107.54Z" fill="#388D99"/>
<path d="M148.9 100.84C148.49 99.5801 147.92 98.77 146.69 98.77C145.98 98.77 145.42 99.2801 145.42 100.09C145.42 100.96 146.01 101.38 147.17 101.91C148.96 102.75 149.9 103.4 149.9 104.83C149.9 106.79 148.09 107.79 146.41 107.79C145.32 107.79 144.32 107.44 143.88 107.19C143.78 106.6 143.59 105.4 143.51 104.7L144.13 104.59C144.52 105.93 145.28 107.05 146.73 107.05C147.53 107.05 148.15 106.51 148.15 105.68C148.15 104.79 147.63 104.3 146.48 103.74C145.03 103.03 143.8 102.35 143.8 100.8C143.8 99.24 145.11 98.05 147.13 98.05C148.03 98.05 148.76 98.2601 149.19 98.3301C149.25 98.8501 149.41 100.17 149.51 100.69L148.9 100.84Z" fill="#388D99"/>
<path d="M159.07 105.7C157.74 107.42 156.23 107.79 155.52 107.79C152.91 107.79 151.35 105.69 151.35 103.26C151.35 101.82 151.89 100.48 152.75 99.5701C153.64 98.5901 154.8 98.05 155.9 98.05C157.77 98.05 159.16 99.6501 159.16 101.34C159.14 101.75 159.09 101.97 158.77 102.05C158.35 102.14 155.62 102.32 153.2 102.4C153.16 105.11 154.8 106.26 156.29 106.26C157.14 106.26 157.94 105.92 158.72 105.21L159.07 105.7ZM155.42 98.8601C154.48 98.8601 153.57 99.78 153.31 101.47C154.43 101.47 155.54 101.46 156.71 101.41C157.07 101.41 157.2 101.31 157.2 100.99C157.22 99.88 156.54 98.8601 155.42 98.8601Z" fill="#388D99"/>
<path d="M165.36 107.54H160.4V106.93C161.68 106.81 161.81 106.7 161.81 105.35V100.94C161.81 99.6099 161.73 99.5399 160.55 99.3899V98.8401C161.63 98.6801 162.61 98.42 163.66 97.99C163.66 98.68 163.66 99.6 163.66 100.29C164.43 99.13 165.29 98.05 166.31 98.05C167.09 98.05 167.55 98.5401 167.55 99.1001C167.55 99.6801 167.14 100.17 166.77 100.37C166.54 100.5 166.37 100.46 166.21 100.32C165.89 100.01 165.63 99.78 165.26 99.78C164.84 99.78 164.11 100.36 163.66 101.38V105.34C163.66 106.7 163.77 106.8 165.36 106.93V107.54Z" fill="#388D99"/>
<path d="M177.62 98.8899C176.49 99.0399 176.34 99.2199 175.81 100.43C175.11 102.11 173.93 104.87 172.81 107.76H172.15C171.24 105.31 170.22 102.82 169.23 100.37C168.77 99.2101 168.59 99.0599 167.5 98.8899V98.3H171.96V98.8899C170.84 99.0399 170.79 99.1901 171.11 100.06C171.63 101.51 172.49 103.7 173.04 105.06C173.72 103.36 174.42 101.62 174.89 100.26C175.22 99.3 175.16 99.0399 173.79 98.8899V98.3H177.63V98.8899H177.62Z" fill="#388D99"/>
<path d="M177.85 107.54V106.93C179.14 106.8 179.28 106.7 179.28 105.26V100.98C179.28 99.66 179.21 99.5799 178 99.3799V98.8401C179.13 98.6601 180.18 98.38 181.13 98.01C181.13 98.89 181.13 99.7699 181.13 100.65V105.26C181.13 106.69 181.27 106.8 182.6 106.93V107.54H177.85ZM180.08 96.0901C179.45 96.0901 178.9 95.5399 178.9 94.9099C178.9 94.1999 179.46 93.7 180.11 93.7C180.74 93.7 181.26 94.2099 181.26 94.9099C181.25 95.5399 180.73 96.0901 180.08 96.0901Z" fill="#388D99"/>
<path d="M191.64 105.62C190.71 106.87 189.3 107.79 188.04 107.79C185.33 107.79 183.73 105.62 183.73 103.36C183.73 101.72 184.46 100.32 185.85 99.26C187.01 98.37 188.28 98.05 189.12 98.05C190.04 98.05 190.73 98.3301 191.05 98.6001C191.34 98.8301 191.4 98.99 191.4 99.24C191.4 99.76 190.86 100.23 190.61 100.23C190.5 100.23 190.4 100.18 190.2 100.02C189.5 99.4 188.79 99.1001 188.07 99.1001C186.79 99.1001 185.61 100.21 185.61 102.41C185.59 105.31 187.6 106.26 188.76 106.26C189.64 106.26 190.34 106.03 191.26 105.15L191.64 105.62Z" fill="#388D99"/>
<path d="M200.46 105.7C199.13 107.42 197.62 107.79 196.91 107.79C194.3 107.79 192.74 105.69 192.74 103.26C192.74 101.82 193.28 100.48 194.14 99.5701C195.03 98.5901 196.19 98.05 197.29 98.05C199.16 98.05 200.55 99.6501 200.55 101.34C200.53 101.75 200.48 101.97 200.16 102.05C199.74 102.14 197.01 102.32 194.59 102.4C194.55 105.11 196.19 106.26 197.68 106.26C198.53 106.26 199.33 105.92 200.11 105.21L200.46 105.7ZM196.81 98.8601C195.87 98.8601 194.96 99.78 194.7 101.47C195.82 101.47 196.93 101.46 198.1 101.41C198.46 101.41 198.59 101.31 198.59 100.99C198.61 99.88 197.93 98.8601 196.81 98.8601Z" fill="#388D99"/>
<path d="M207.35 100.84C206.94 99.5801 206.37 98.77 205.14 98.77C204.43 98.77 203.87 99.2801 203.87 100.09C203.87 100.96 204.46 101.38 205.62 101.91C207.41 102.75 208.35 103.4 208.35 104.83C208.35 106.79 206.54 107.79 204.86 107.79C203.77 107.79 202.77 107.44 202.33 107.19C202.23 106.6 202.04 105.4 201.96 104.7L202.58 104.59C202.97 105.93 203.73 107.05 205.18 107.05C205.98 107.05 206.6 106.51 206.6 105.68C206.6 104.79 206.08 104.3 204.93 103.74C203.48 103.03 202.25 102.35 202.25 100.8C202.25 99.24 203.56 98.05 205.58 98.05C206.48 98.05 207.21 98.2601 207.64 98.3301C207.7 98.8501 207.86 100.17 207.96 100.69L207.35 100.84Z" fill="#388D99"/>
<path d="M21.64 133.79C21.28 133.79 20.82 133.62 20.6 133.38C20.32 133.11 20.19 132.82 20.09 132.46C19.26 133.02 18.23 133.78 17.62 133.78C16.07 133.78 15.01 132.51 15.01 131.17C15.01 130.13 15.57 129.48 16.71 129.08C17.98 128.63 19.57 128.1 20.04 127.71V127.2C20.04 125.78 19.35 124.97 18.29 124.97C17.83 124.97 17.54 125.19 17.33 125.44C17.1 125.74 16.96 126.2 16.77 126.81C16.66 127.19 16.44 127.33 16.11 127.33C15.68 127.33 15.13 126.9 15.13 126.38C15.13 126.07 15.4 125.82 15.83 125.51C16.5 125.04 17.72 124.29 18.91 124.04C19.58 124.04 20.24 124.23 20.75 124.61C21.52 125.24 21.84 125.98 21.84 127.07V131.05C21.84 132.02 22.19 132.31 22.56 132.31C22.8 132.31 23.07 132.21 23.3 132.09L23.51 132.7L21.64 133.79ZM20.04 128.48C19.59 128.71 18.7 129.11 18.23 129.32C17.46 129.67 16.99 130.07 16.99 130.83C16.99 131.95 17.83 132.44 18.46 132.44C18.96 132.44 19.63 132.16 20.04 131.76C20.04 130.78 20.04 129.46 20.04 128.48Z" fill="#388D99"/>
<path d="M29.32 133.54H24.36V132.93C25.64 132.81 25.77 132.7 25.77 131.35V126.94C25.77 125.61 25.69 125.54 24.51 125.39V124.84C25.59 124.68 26.57 124.42 27.62 123.99C27.62 124.68 27.62 125.6 27.62 126.29C28.39 125.13 29.25 124.05 30.27 124.05C31.05 124.05 31.51 124.54 31.51 125.1C31.51 125.68 31.1 126.17 30.73 126.37C30.5 126.5 30.33 126.46 30.17 126.32C29.85 126.01 29.59 125.78 29.22 125.78C28.8 125.78 28.07 126.36 27.62 127.38V131.34C27.62 132.7 27.73 132.8 29.32 132.93V133.54Z" fill="#388D99"/>
<path d="M40.11 131.7C38.78 133.42 37.27 133.79 36.56 133.79C33.95 133.79 32.39 131.69 32.39 129.26C32.39 127.82 32.93 126.48 33.79 125.57C34.68 124.59 35.84 124.05 36.94 124.05C38.81 124.05 40.2 125.65 40.2 127.34C40.18 127.75 40.13 127.97 39.81 128.05C39.39 128.14 36.66 128.32 34.24 128.4C34.2 131.11 35.84 132.26 37.33 132.26C38.18 132.26 38.98 131.92 39.76 131.21L40.11 131.7ZM36.46 124.86C35.52 124.86 34.61 125.78 34.35 127.47C35.47 127.47 36.58 127.46 37.75 127.41C38.11 127.41 38.24 127.31 38.24 126.99C38.26 125.88 37.57 124.86 36.46 124.86Z" fill="#388D99"/>
<path d="M50.65 124.29C51.05 124.12 51.39 124.05 51.68 124.05C53.98 124.05 55.84 126.02 55.84 128.5C55.84 131.36 53.4 133.81 50.59 133.79C49.63 133.79 48.47 133.58 47.27 133.03C47.27 132.49 47.27 131.92 47.27 131.36V121.31C47.27 120.03 47.2 119.89 45.88 119.79V119.21C46.89 119.09 48.27 118.78 49.12 118.5C49.12 119.3 49.12 120.13 49.12 120.95V124.95L50.65 124.29ZM49.12 131.12C49.12 131.45 49.15 131.65 49.23 131.85C49.46 132.34 50.24 132.95 51.2 132.95C52.88 132.95 53.77 131.45 53.77 129.04C53.77 126.59 52.34 125.25 50.69 125.25C50.11 125.25 49.51 125.42 49.12 125.6V131.12Z" fill="#388D99"/>
<path d="M64.08 133.79C63.72 133.79 63.26 133.62 63.04 133.38C62.76 133.11 62.63 132.82 62.53 132.46C61.7 133.02 60.67 133.78 60.06 133.78C58.51 133.78 57.45 132.51 57.45 131.17C57.45 130.13 58.01 129.48 59.15 129.08C60.42 128.63 62.01 128.1 62.48 127.71V127.2C62.48 125.78 61.79 124.97 60.73 124.97C60.27 124.97 59.98 125.19 59.77 125.44C59.54 125.74 59.4 126.2 59.21 126.81C59.1 127.19 58.88 127.33 58.55 127.33C58.12 127.33 57.57 126.9 57.57 126.38C57.57 126.07 57.84 125.82 58.27 125.51C58.94 125.04 60.16 124.29 61.35 124.04C62.02 124.04 62.68 124.23 63.19 124.61C63.96 125.24 64.28 125.98 64.28 127.07V131.05C64.28 132.02 64.63 132.31 65 132.31C65.24 132.31 65.51 132.21 65.74 132.09L65.95 132.7L64.08 133.79ZM62.48 128.48C62.03 128.71 61.14 129.11 60.67 129.32C59.9 129.67 59.43 130.07 59.43 130.83C59.43 131.95 60.27 132.44 60.9 132.44C61.4 132.44 62.07 132.16 62.48 131.76C62.48 130.78 62.48 129.46 62.48 128.48Z" fill="#388D99"/>
<path d="M72.36 126.84C71.95 125.58 71.38 124.77 70.15 124.77C69.44 124.77 68.88 125.28 68.88 126.09C68.88 126.96 69.47 127.38 70.63 127.91C72.42 128.75 73.36 129.4 73.36 130.83C73.36 132.79 71.55 133.79 69.87 133.79C68.78 133.79 67.78 133.44 67.34 133.19C67.24 132.6 67.05 131.4 66.97 130.7L67.59 130.59C67.98 131.93 68.74 133.05 70.19 133.05C70.99 133.05 71.61 132.51 71.61 131.68C71.61 130.79 71.09 130.3 69.94 129.74C68.49 129.03 67.26 128.35 67.26 126.8C67.26 125.24 68.57 124.05 70.59 124.05C71.49 124.05 72.22 124.26 72.65 124.33C72.71 124.85 72.87 126.17 72.97 126.69L72.36 126.84Z" fill="#388D99"/>
<path d="M82.53 131.7C81.2 133.42 79.69 133.79 78.98 133.79C76.37 133.79 74.81 131.69 74.81 129.26C74.81 127.82 75.35 126.48 76.21 125.57C77.1 124.59 78.26 124.05 79.36 124.05C81.23 124.05 82.62 125.65 82.62 127.34C82.6 127.75 82.55 127.97 82.23 128.05C81.81 128.14 79.08 128.32 76.66 128.4C76.62 131.11 78.26 132.26 79.75 132.26C80.6 132.26 81.4 131.92 82.18 131.21L82.53 131.7ZM78.88 124.86C77.94 124.86 77.03 125.78 76.77 127.47C77.89 127.47 79 127.46 80.17 127.41C80.53 127.41 80.66 127.31 80.66 126.99C80.68 125.88 79.99 124.86 78.88 124.86Z" fill="#388D99"/>
<path d="M94.18 133.01C93.73 133.09 92.09 133.35 90.77 133.8C90.77 133.37 90.77 132.9 90.77 132.46C90.39 132.7 89.85 132.99 89.47 133.23C88.69 133.68 88.17 133.8 87.92 133.8C86.22 133.8 83.94 132.15 83.94 129.17C83.94 126.26 86.5 124.06 89.45 124.06C89.72 124.06 90.35 124.09 90.77 124.26V121.29C90.77 119.99 90.63 119.93 89.17 119.8V119.23C90.28 119.08 91.79 118.79 92.62 118.52C92.62 119.31 92.62 120.2 92.62 121.06V131.07C92.62 132.17 92.76 132.31 93.54 132.36L94.17 132.4V133.01H94.18ZM90.77 125.96C90.33 125.25 89.49 124.89 88.68 124.89C87.74 124.89 86.02 125.52 86.02 128.55C86.02 131.13 87.59 132.41 88.86 132.43C89.55 132.43 90.28 132.11 90.77 131.75V125.96Z" fill="#388D99"/>
<path d="M104.85 124.05C107.54 124.05 109.47 126.09 109.47 128.76C109.47 132.16 106.97 133.79 104.83 133.79C101.88 133.79 100.11 131.45 100.11 129.08C100.12 125.69 102.78 124.05 104.85 124.05ZM104.6 124.78C103.39 124.78 102.28 125.97 102.28 128.43C102.28 131.08 103.4 133.03 105.05 133.03C106.26 133.03 107.31 132.16 107.31 129.25C107.31 126.71 106.35 124.78 104.6 124.78Z" fill="#388D99"/>
<path d="M116.95 133.54V132.93C118.11 132.81 118.22 132.67 118.22 131.24V127.75C118.22 126.28 117.66 125.38 116.39 125.38C115.59 125.38 114.83 125.83 114.2 126.39V131.33C114.2 132.75 114.32 132.8 115.49 132.92V133.53H110.89V132.92C112.22 132.77 112.35 132.69 112.35 131.31V126.98C112.35 125.63 112.2 125.57 111.1 125.38V124.81C112.16 124.65 113.27 124.37 114.2 123.98C114.2 124.43 114.19 125.11 114.19 125.61C114.61 125.32 115.07 125 115.6 124.66C116.2 124.28 116.71 124.04 117.32 124.04C119 124.04 120.06 125.28 120.06 127.33V131.31C120.06 132.71 120.19 132.78 121.37 132.91V133.52H116.95V133.54Z" fill="#388D99"/>
<path d="M135.26 131.7C133.93 133.42 132.42 133.79 131.71 133.79C129.1 133.79 127.54 131.69 127.54 129.26C127.54 127.82 128.08 126.48 128.94 125.57C129.83 124.59 130.99 124.05 132.09 124.05C133.96 124.05 135.35 125.65 135.35 127.34C135.33 127.75 135.28 127.97 134.96 128.05C134.54 128.14 131.81 128.32 129.39 128.4C129.35 131.11 130.99 132.26 132.48 132.26C133.33 132.26 134.13 131.92 134.91 131.21L135.26 131.7ZM131.61 124.86C130.67 124.86 129.76 125.78 129.5 127.47C130.62 127.47 131.73 127.46 132.9 127.41C133.26 127.41 133.39 127.31 133.39 126.99C133.41 125.88 132.72 124.86 131.61 124.86Z" fill="#388D99"/>
<path d="M148.12 133.54V132.93C149.29 132.81 149.43 132.72 149.43 131.29V127.76C149.43 126.22 148.87 125.39 147.68 125.39C146.95 125.39 146.26 125.77 145.49 126.4C145.51 126.65 145.55 126.92 145.55 127.3V131.4C145.55 132.7 145.72 132.8 146.84 132.93V133.54H142.3V132.93C143.53 132.81 143.7 132.72 143.7 131.37V127.72C143.7 126.18 143.2 125.39 142.01 125.39C141.23 125.39 140.47 125.89 139.83 126.4V131.38C139.83 132.73 139.97 132.82 141.09 132.94V133.55H136.52V132.94C137.86 132.81 137.98 132.73 137.98 131.36V126.99C137.98 125.68 137.91 125.57 136.77 125.37V124.82C137.79 124.68 138.82 124.4 139.83 123.99C139.83 124.49 139.83 125.17 139.83 125.67C140.27 125.34 140.7 125 141.33 124.62C141.88 124.27 142.35 124.06 143.01 124.06C144.05 124.06 144.89 124.69 145.31 125.76C145.88 125.31 146.41 124.97 146.93 124.61C147.39 124.32 147.98 124.06 148.59 124.06C150.26 124.06 151.26 125.25 151.26 127.32V131.38C151.26 132.74 151.38 132.81 152.55 132.94V133.55H148.12V133.54Z" fill="#388D99"/>
<path d="M153.62 124.75C154.63 124.6 155.78 124.24 156.81 123.84C156.81 124.33 156.81 125 156.81 125.49C156.87 125.45 158.49 124.51 158.57 124.47C159.08 124.19 159.52 124.05 159.81 124.05C162.12 124.05 163.51 126.01 163.51 128.08C163.51 131.25 161.01 133.27 158.26 133.79C157.65 133.77 157.1 133.61 156.8 133.45V136.23C156.8 137.72 156.96 137.84 158.54 138V138.61H153.45V138C154.8 137.86 154.95 137.74 154.95 136.38V126.86C154.95 125.62 154.89 125.53 153.61 125.35V124.75H153.62ZM156.82 131.95C157.29 132.42 158.1 132.76 158.77 132.76C160.47 132.76 161.58 131.26 161.58 128.92C161.58 126.6 160.26 125.37 158.85 125.37C158.15 125.37 157.35 125.8 156.82 126.19V131.95Z" fill="#388D99"/>
<path d="M165.02 133.54V132.93C166.31 132.8 166.45 132.7 166.45 131.26V126.98C166.45 125.66 166.38 125.58 165.17 125.38V124.84C166.3 124.66 167.35 124.38 168.3 124.01C168.3 124.89 168.3 125.77 168.3 126.65V131.26C168.3 132.69 168.44 132.8 169.77 132.93V133.54H165.02ZM167.25 122.09C166.62 122.09 166.07 121.54 166.07 120.91C166.07 120.2 166.63 119.7 167.28 119.7C167.91 119.7 168.43 120.21 168.43 120.91C168.42 121.54 167.9 122.09 167.25 122.09Z" fill="#388D99"/>
<path d="M175.77 133.54H170.81V132.93C172.09 132.81 172.22 132.7 172.22 131.35V126.94C172.22 125.61 172.14 125.54 170.96 125.39V124.84C172.04 124.68 173.02 124.42 174.07 123.99C174.07 124.68 174.07 125.6 174.07 126.29C174.84 125.13 175.7 124.05 176.72 124.05C177.5 124.05 177.96 124.54 177.96 125.1C177.96 125.68 177.55 126.17 177.18 126.37C176.95 126.5 176.78 126.46 176.62 126.32C176.3 126.01 176.04 125.78 175.67 125.78C175.25 125.78 174.52 126.36 174.07 127.38V131.34C174.07 132.7 174.18 132.8 175.77 132.93V133.54Z" fill="#388D99"/>
<path d="M178.73 133.54V132.93C180.02 132.8 180.16 132.7 180.16 131.26V126.98C180.16 125.66 180.09 125.58 178.88 125.38V124.84C180.01 124.66 181.06 124.38 182.01 124.01C182.01 124.89 182.01 125.77 182.01 126.65V131.26C182.01 132.69 182.15 132.8 183.48 132.93V133.54H178.73ZM180.96 122.09C180.33 122.09 179.78 121.54 179.78 120.91C179.78 120.2 180.34 119.7 180.99 119.7C181.62 119.7 182.14 120.21 182.14 120.91C182.13 121.54 181.62 122.09 180.96 122.09Z" fill="#388D99"/>
<path d="M192.53 131.62C191.6 132.87 190.19 133.79 188.93 133.79C186.22 133.79 184.62 131.62 184.62 129.36C184.62 127.72 185.35 126.32 186.74 125.26C187.9 124.37 189.17 124.05 190.01 124.05C190.93 124.05 191.62 124.33 191.94 124.6C192.23 124.83 192.29 124.99 192.29 125.24C192.29 125.76 191.75 126.23 191.5 126.23C191.39 126.23 191.29 126.18 191.09 126.02C190.39 125.4 189.68 125.1 188.96 125.1C187.68 125.1 186.5 126.21 186.5 128.41C186.48 131.31 188.49 132.26 189.65 132.26C190.53 132.26 191.23 132.03 192.15 131.15L192.53 131.62Z" fill="#388D99"/>
<path d="M200.33 133.79C199.97 133.79 199.51 133.62 199.29 133.38C199.01 133.11 198.88 132.82 198.78 132.46C197.95 133.02 196.92 133.78 196.31 133.78C194.76 133.78 193.7 132.51 193.7 131.17C193.7 130.13 194.26 129.48 195.4 129.08C196.67 128.63 198.26 128.1 198.73 127.71V127.2C198.73 125.78 198.04 124.97 196.98 124.97C196.52 124.97 196.23 125.19 196.02 125.44C195.79 125.74 195.65 126.2 195.46 126.81C195.35 127.19 195.13 127.33 194.8 127.33C194.37 127.33 193.82 126.9 193.82 126.38C193.82 126.07 194.09 125.82 194.52 125.51C195.19 125.04 196.41 124.29 197.6 124.04C198.27 124.04 198.93 124.23 199.44 124.61C200.21 125.24 200.53 125.98 200.53 127.07V131.05C200.53 132.02 200.88 132.31 201.25 132.31C201.49 132.31 201.76 132.21 201.99 132.09L202.2 132.7L200.33 133.79ZM198.72 128.48C198.27 128.71 197.38 129.11 196.91 129.32C196.14 129.67 195.67 130.07 195.67 130.83C195.67 131.95 196.51 132.44 197.14 132.44C197.64 132.44 198.31 132.16 198.72 131.76C198.72 130.78 198.72 129.46 198.72 128.48Z" fill="#388D99"/>
<path d="M202.75 133.54V132.93C204.07 132.79 204.21 132.69 204.21 131.31V121.35C204.21 120.1 204.1 119.98 202.8 119.8V119.23C203.99 119.1 205.32 118.78 206.05 118.52C206.05 119.5 206.05 120.5 206.05 121.48V131.32C206.05 132.71 206.16 132.81 207.5 132.94V133.55H202.75V133.54Z" fill="#388D99"/>
<path d="M41.71 159.54H36.75V158.93C38.03 158.81 38.16 158.7 38.16 157.35V152.94C38.16 151.61 38.08 151.54 36.9 151.39V150.84C37.98 150.68 38.96 150.42 40.01 149.99C40.01 150.68 40.01 151.6 40.01 152.29C40.78 151.13 41.64 150.05 42.66 150.05C43.44 150.05 43.9 150.54 43.9 151.1C43.9 151.68 43.49 152.17 43.12 152.37C42.89 152.5 42.72 152.46 42.56 152.32C42.24 152.01 41.98 151.78 41.61 151.78C41.19 151.78 40.46 152.36 40.01 153.38V157.34C40.01 158.7 40.12 158.8 41.71 158.93V159.54Z" fill="#388D99"/>
<path d="M52.5 157.7C51.17 159.42 49.66 159.79 48.95 159.79C46.34 159.79 44.78 157.69 44.78 155.26C44.78 153.82 45.32 152.48 46.18 151.57C47.07 150.59 48.23 150.05 49.33 150.05C51.2 150.05 52.59 151.65 52.59 153.34C52.57 153.75 52.52 153.97 52.2 154.05C51.78 154.14 49.05 154.32 46.63 154.4C46.59 157.11 48.23 158.26 49.72 158.26C50.57 158.26 51.37 157.92 52.15 157.21L52.5 157.7ZM48.85 150.86C47.91 150.86 47 151.78 46.74 153.47C47.86 153.47 48.97 153.46 50.14 153.41C50.5 153.41 50.63 153.31 50.63 152.99C50.65 151.88 49.96 150.86 48.85 150.86Z" fill="#388D99"/>
<path d="M59.38 152.84C58.97 151.58 58.4 150.77 57.17 150.77C56.46 150.77 55.9 151.28 55.9 152.09C55.9 152.96 56.49 153.38 57.65 153.91C59.44 154.75 60.38 155.4 60.38 156.83C60.38 158.79 58.57 159.79 56.89 159.79C55.8 159.79 54.8 159.44 54.36 159.19C54.26 158.6 54.07 157.4 53.99 156.7L54.61 156.59C55 157.93 55.76 159.05 57.21 159.05C58.01 159.05 58.63 158.51 58.63 157.68C58.63 156.79 58.11 156.3 56.96 155.74C55.51 155.03 54.28 154.35 54.28 152.8C54.28 151.24 55.59 150.05 57.61 150.05C58.51 150.05 59.24 150.26 59.67 150.33C59.73 150.85 59.89 152.17 59.99 152.69L59.38 152.84Z" fill="#388D99"/>
<path d="M66.57 150.05C69.26 150.05 71.19 152.09 71.19 154.76C71.19 158.16 68.69 159.79 66.55 159.79C63.6 159.79 61.83 157.45 61.83 155.08C61.83 151.69 64.5 150.05 66.57 150.05ZM66.32 150.78C65.11 150.78 64 151.97 64 154.43C64 157.08 65.12 159.03 66.77 159.03C67.98 159.03 69.03 158.16 69.03 155.25C69.03 152.71 68.06 150.78 66.32 150.78Z" fill="#388D99"/>
<path d="M82.88 159.05C81.83 159.2 80.65 159.47 79.53 159.79C79.53 159.43 79.53 158.72 79.53 158.21C78.45 159.11 77.53 159.79 76.37 159.79C74.9 159.79 73.72 158.88 73.72 156.67V152.55C73.72 151.45 73.56 151.33 73.03 151.21L72.47 151.1V150.53C73.4 150.49 74.84 150.29 75.64 150.16C75.58 150.87 75.58 151.89 75.58 153.24V156.13C75.58 157.89 76.5 158.41 77.4 158.41C78.14 158.41 78.86 158.11 79.53 157.47V152.55C79.53 151.45 79.3 151.3 78.61 151.19L77.95 151.1V150.53C79.27 150.47 80.8 150.25 81.38 150.16V157.16C81.38 158.22 81.54 158.38 82.32 158.43L82.89 158.46V159.05H82.88Z" fill="#388D99"/>
<path d="M88.88 159.54H83.92V158.93C85.2 158.81 85.33 158.7 85.33 157.35V152.94C85.33 151.61 85.25 151.54 84.07 151.39V150.84C85.15 150.68 86.13 150.42 87.18 149.99C87.18 150.68 87.18 151.6 87.18 152.29C87.95 151.13 88.81 150.05 89.83 150.05C90.61 150.05 91.07 150.54 91.07 151.1C91.07 151.68 90.66 152.17 90.29 152.37C90.06 152.5 89.89 152.46 89.73 152.32C89.41 152.01 89.15 151.78 88.78 151.78C88.36 151.78 87.63 152.36 87.18 153.38V157.34C87.18 158.7 87.29 158.8 88.88 158.93V159.54Z" fill="#388D99"/>
<path d="M99.86 157.62C98.93 158.87 97.52 159.79 96.26 159.79C93.55 159.79 91.95 157.62 91.95 155.36C91.95 153.72 92.68 152.32 94.07 151.26C95.23 150.37 96.5 150.05 97.34 150.05C98.26 150.05 98.95 150.33 99.27 150.6C99.56 150.83 99.62 150.99 99.62 151.24C99.62 151.76 99.08 152.23 98.83 152.23C98.72 152.23 98.62 152.18 98.42 152.02C97.72 151.4 97.01 151.1 96.29 151.1C95.01 151.1 93.83 152.21 93.83 154.41C93.81 157.31 95.82 158.26 96.98 158.26C97.86 158.26 98.56 158.03 99.48 157.15L99.86 157.62Z" fill="#388D99"/>
<path d="M108.67 157.7C107.34 159.42 105.83 159.79 105.12 159.79C102.51 159.79 100.95 157.69 100.95 155.26C100.95 153.82 101.49 152.48 102.35 151.57C103.24 150.59 104.4 150.05 105.5 150.05C107.37 150.05 108.76 151.65 108.76 153.34C108.74 153.75 108.69 153.97 108.37 154.05C107.95 154.14 105.22 154.32 102.8 154.4C102.76 157.11 104.4 158.26 105.89 158.26C106.74 158.26 107.54 157.92 108.32 157.21L108.67 157.7ZM105.03 150.86C104.09 150.86 103.18 151.78 102.92 153.47C104.04 153.47 105.15 153.46 106.32 153.41C106.68 153.41 106.81 153.31 106.81 152.99C106.83 151.88 106.14 150.86 105.03 150.86Z" fill="#388D99"/>
<path d="M115.56 152.84C115.15 151.58 114.58 150.77 113.35 150.77C112.64 150.77 112.08 151.28 112.08 152.09C112.08 152.96 112.67 153.38 113.83 153.91C115.62 154.75 116.56 155.4 116.56 156.83C116.56 158.79 114.75 159.79 113.07 159.79C111.98 159.79 110.98 159.44 110.54 159.19C110.44 158.6 110.25 157.4 110.17 156.7L110.79 156.59C111.18 157.93 111.94 159.05 113.39 159.05C114.19 159.05 114.81 158.51 114.81 157.68C114.81 156.79 114.29 156.3 113.14 155.74C111.69 155.03 110.46 154.35 110.46 152.8C110.46 151.24 111.77 150.05 113.79 150.05C114.69 150.05 115.42 150.26 115.85 150.33C115.91 150.85 116.07 152.17 116.17 152.69L115.56 152.84Z" fill="#388D99"/>
<path d="M129.56 159.79C129.2 159.79 128.74 159.62 128.52 159.38C128.24 159.11 128.11 158.82 128.01 158.46C127.18 159.02 126.15 159.78 125.54 159.78C123.99 159.78 122.93 158.51 122.93 157.17C122.93 156.13 123.49 155.48 124.63 155.08C125.9 154.63 127.49 154.1 127.96 153.71V153.2C127.96 151.78 127.27 150.97 126.21 150.97C125.75 150.97 125.46 151.19 125.25 151.44C125.02 151.74 124.88 152.2 124.69 152.81C124.58 153.19 124.36 153.33 124.03 153.33C123.6 153.33 123.05 152.9 123.05 152.38C123.05 152.07 123.32 151.82 123.75 151.51C124.42 151.04 125.64 150.29 126.83 150.04C127.5 150.04 128.16 150.23 128.67 150.61C129.44 151.24 129.76 151.98 129.76 153.07V157.05C129.76 158.02 130.11 158.31 130.48 158.31C130.72 158.31 130.99 158.21 131.22 158.09L131.43 158.7L129.56 159.79ZM127.95 154.48C127.5 154.71 126.61 155.11 126.14 155.32C125.37 155.67 124.9 156.07 124.9 156.83C124.9 157.95 125.74 158.44 126.37 158.44C126.87 158.44 127.54 158.16 127.95 157.76C127.95 156.78 127.95 155.46 127.95 154.48Z" fill="#388D99"/>
<path d="M138.31 159.54V158.93C139.47 158.81 139.58 158.67 139.58 157.24V153.75C139.58 152.28 139.02 151.38 137.75 151.38C136.95 151.38 136.19 151.83 135.56 152.39V157.33C135.56 158.75 135.68 158.8 136.85 158.92V159.53H132.25V158.92C133.58 158.77 133.71 158.69 133.71 157.31V152.98C133.71 151.63 133.56 151.57 132.46 151.38V150.81C133.52 150.65 134.63 150.37 135.56 149.98C135.56 150.43 135.55 151.11 135.55 151.61C135.97 151.32 136.43 151 136.96 150.66C137.56 150.28 138.07 150.04 138.68 150.04C140.36 150.04 141.42 151.28 141.42 153.33V157.31C141.42 158.71 141.55 158.78 142.73 158.91V159.52H138.31V159.54Z" fill="#388D99"/>
<path d="M154.29 159.01C153.84 159.09 152.2 159.35 150.88 159.8C150.88 159.37 150.88 158.9 150.88 158.46C150.5 158.7 149.96 158.99 149.58 159.23C148.8 159.68 148.28 159.8 148.03 159.8C146.33 159.8 144.05 158.15 144.05 155.17C144.05 152.26 146.61 150.06 149.56 150.06C149.83 150.06 150.46 150.09 150.88 150.26V147.29C150.88 145.99 150.74 145.93 149.28 145.8V145.23C150.39 145.08 151.9 144.79 152.73 144.52C152.73 145.31 152.73 146.2 152.73 147.06V157.07C152.73 158.17 152.87 158.31 153.65 158.36L154.28 158.4V159.01H154.29ZM150.88 151.96C150.44 151.25 149.6 150.89 148.79 150.89C147.85 150.89 146.13 151.52 146.13 154.55C146.13 157.13 147.7 158.41 148.97 158.43C149.66 158.43 150.39 158.11 150.88 157.75V151.96Z" fill="#388D99"/>
<path d="M166.92 159.79C166.56 159.79 166.1 159.62 165.88 159.38C165.6 159.11 165.47 158.82 165.37 158.46C164.54 159.02 163.51 159.78 162.9 159.78C161.35 159.78 160.29 158.51 160.29 157.17C160.29 156.13 160.85 155.48 161.99 155.08C163.26 154.63 164.85 154.1 165.32 153.71V153.2C165.32 151.78 164.63 150.97 163.57 150.97C163.11 150.97 162.82 151.19 162.61 151.44C162.38 151.74 162.24 152.2 162.05 152.81C161.94 153.19 161.72 153.33 161.39 153.33C160.96 153.33 160.41 152.9 160.41 152.38C160.41 152.07 160.68 151.82 161.11 151.51C161.78 151.04 163 150.29 164.19 150.04C164.86 150.04 165.52 150.23 166.03 150.61C166.8 151.24 167.12 151.98 167.12 153.07V157.05C167.12 158.02 167.47 158.31 167.84 158.31C168.08 158.31 168.35 158.21 168.58 158.09L168.79 158.7L166.92 159.79ZM165.31 154.48C164.86 154.71 163.97 155.11 163.5 155.32C162.73 155.67 162.26 156.07 162.26 156.83C162.26 157.95 163.1 158.44 163.73 158.44C164.23 158.44 164.9 158.16 165.31 157.76C165.31 156.78 165.31 155.46 165.31 154.48Z" fill="#388D99"/>
<path d="M174.6 159.54H169.64V158.93C170.92 158.81 171.05 158.7 171.05 157.35V152.94C171.05 151.61 170.97 151.54 169.79 151.39V150.84C170.87 150.68 171.85 150.42 172.9 149.99C172.9 150.68 172.9 151.6 172.9 152.29C173.67 151.13 174.53 150.05 175.55 150.05C176.33 150.05 176.79 150.54 176.79 151.1C176.79 151.68 176.38 152.17 176.01 152.37C175.78 152.5 175.61 152.46 175.45 152.32C175.13 152.01 174.87 151.78 174.5 151.78C174.08 151.78 173.35 152.36 172.9 153.38V157.34C172.9 158.7 173.01 158.8 174.6 158.93V159.54Z" fill="#388D99"/>
<path d="M185.39 157.7C184.06 159.42 182.55 159.79 181.84 159.79C179.23 159.79 177.67 157.69 177.67 155.26C177.67 153.82 178.21 152.48 179.07 151.57C179.96 150.59 181.12 150.05 182.22 150.05C184.09 150.05 185.48 151.65 185.48 153.34C185.46 153.75 185.41 153.97 185.09 154.05C184.67 154.14 181.94 154.32 179.52 154.4C179.48 157.11 181.12 158.26 182.61 158.26C183.46 158.26 184.26 157.92 185.04 157.21L185.39 157.7ZM181.74 150.86C180.8 150.86 179.89 151.78 179.63 153.47C180.75 153.47 181.86 153.46 183.03 153.41C183.39 153.41 183.52 153.31 183.52 152.99C183.54 151.88 182.85 150.86 181.74 150.86Z" fill="#388D99"/>
<path d="M50.74 183.62C49.81 184.87 48.4 185.79 47.14 185.79C44.43 185.79 42.83 183.62 42.83 181.36C42.83 179.72 43.56 178.32 44.95 177.26C46.11 176.37 47.38 176.05 48.22 176.05C49.14 176.05 49.83 176.33 50.15 176.6C50.44 176.83 50.5 176.99 50.5 177.24C50.5 177.76 49.96 178.23 49.71 178.23C49.6 178.23 49.5 178.18 49.3 178.02C48.6 177.4 47.89 177.1 47.17 177.1C45.89 177.1 44.71 178.21 44.71 180.41C44.69 183.31 46.7 184.26 47.86 184.26C48.74 184.26 49.44 184.03 50.36 183.15L50.74 183.62Z" fill="#388D99"/>
<path d="M56.57 176.05C59.26 176.05 61.19 178.09 61.19 180.76C61.19 184.16 58.69 185.79 56.55 185.79C53.6 185.79 51.83 183.45 51.83 181.08C51.84 177.69 54.5 176.05 56.57 176.05ZM56.32 176.78C55.11 176.78 54 177.97 54 180.43C54 183.08 55.12 185.03 56.77 185.03C57.98 185.03 59.03 184.16 59.03 181.25C59.03 178.71 58.07 176.78 56.32 176.78Z" fill="#388D99"/>
<path d="M68.67 185.54V184.93C69.83 184.81 69.94 184.67 69.94 183.24V179.75C69.94 178.28 69.38 177.38 68.11 177.38C67.31 177.38 66.55 177.83 65.92 178.39V183.33C65.92 184.75 66.04 184.8 67.21 184.92V185.53H62.61V184.92C63.94 184.77 64.07 184.69 64.07 183.31V178.98C64.07 177.63 63.92 177.57 62.82 177.38V176.81C63.88 176.65 64.99 176.37 65.92 175.98C65.92 176.43 65.91 177.11 65.91 177.61C66.33 177.32 66.79 177 67.32 176.66C67.92 176.28 68.43 176.04 69.04 176.04C70.72 176.04 71.78 177.28 71.78 179.33V183.31C71.78 184.71 71.91 184.78 73.09 184.91V185.52H68.67V185.54Z" fill="#388D99"/>
<path d="M82.32 183.62C81.39 184.87 79.98 185.79 78.72 185.79C76.01 185.79 74.41 183.62 74.41 181.36C74.41 179.72 75.14 178.32 76.53 177.26C77.69 176.37 78.96 176.05 79.8 176.05C80.72 176.05 81.41 176.33 81.73 176.6C82.02 176.83 82.08 176.99 82.08 177.24C82.08 177.76 81.54 178.23 81.29 178.23C81.18 178.23 81.08 178.18 80.88 178.02C80.18 177.4 79.47 177.1 78.75 177.1C77.47 177.1 76.29 178.21 76.29 180.41C76.27 183.31 78.28 184.26 79.44 184.26C80.32 184.26 81.02 184.03 81.94 183.15L82.32 183.62Z" fill="#388D99"/>
<path d="M93.57 185.05C92.52 185.2 91.34 185.47 90.22 185.79C90.22 185.43 90.22 184.72 90.22 184.21C89.14 185.11 88.22 185.79 87.06 185.79C85.59 185.79 84.41 184.88 84.41 182.67V178.55C84.41 177.45 84.25 177.33 83.72 177.21L83.16 177.1V176.53C84.09 176.49 85.53 176.29 86.33 176.16C86.27 176.87 86.27 177.89 86.27 179.24V182.13C86.27 183.89 87.19 184.41 88.09 184.41C88.83 184.41 89.55 184.11 90.22 183.47V178.55C90.22 177.45 89.99 177.3 89.3 177.19L88.64 177.1V176.53C89.96 176.47 91.49 176.25 92.07 176.16V183.16C92.07 184.22 92.23 184.38 93.01 184.43L93.58 184.46V185.05H93.57Z" fill="#388D99"/>
<path d="M99.57 185.54H94.61V184.93C95.89 184.81 96.02 184.7 96.02 183.35V178.94C96.02 177.61 95.94 177.54 94.76 177.39V176.84C95.84 176.68 96.82 176.42 97.87 175.99C97.87 176.68 97.87 177.6 97.87 178.29C98.64 177.13 99.5 176.05 100.52 176.05C101.3 176.05 101.76 176.54 101.76 177.1C101.76 177.68 101.35 178.17 100.98 178.37C100.75 178.5 100.58 178.46 100.42 178.32C100.1 178.01 99.84 177.78 99.47 177.78C99.05 177.78 98.32 178.36 97.87 179.38V183.34C97.87 184.7 97.98 184.8 99.57 184.93V185.54Z" fill="#388D99"/>
<path d="M107.5 185.54H102.54V184.93C103.82 184.81 103.95 184.7 103.95 183.35V178.94C103.95 177.61 103.87 177.54 102.69 177.39V176.84C103.77 176.68 104.75 176.42 105.8 175.99C105.8 176.68 105.8 177.6 105.8 178.29C106.57 177.13 107.43 176.05 108.45 176.05C109.23 176.05 109.69 176.54 109.69 177.1C109.69 177.68 109.28 178.17 108.91 178.37C108.68 178.5 108.51 178.46 108.35 178.32C108.03 178.01 107.77 177.78 107.4 177.78C106.98 177.78 106.25 178.36 105.8 179.38V183.34C105.8 184.7 105.91 184.8 107.5 184.93V185.54Z" fill="#388D99"/>
<path d="M118.29 183.7C116.96 185.42 115.45 185.79 114.74 185.79C112.13 185.79 110.57 183.69 110.57 181.26C110.57 179.82 111.11 178.48 111.97 177.57C112.86 176.59 114.02 176.05 115.12 176.05C116.99 176.05 118.38 177.65 118.38 179.34C118.36 179.75 118.31 179.97 117.99 180.05C117.57 180.14 114.84 180.32 112.42 180.4C112.38 183.11 114.02 184.26 115.51 184.26C116.36 184.26 117.16 183.92 117.94 183.21L118.29 183.7ZM114.64 176.86C113.7 176.86 112.79 177.78 112.53 179.47C113.65 179.47 114.76 179.46 115.93 179.41C116.29 179.41 116.42 179.31 116.42 178.99C116.44 177.88 115.75 176.86 114.64 176.86Z" fill="#388D99"/>
<path d="M125.65 185.54V184.93C126.81 184.81 126.92 184.67 126.92 183.24V179.75C126.92 178.28 126.36 177.38 125.09 177.38C124.29 177.38 123.53 177.83 122.9 178.39V183.33C122.9 184.75 123.02 184.8 124.19 184.92V185.53H119.59V184.92C120.92 184.77 121.05 184.69 121.05 183.31V178.98C121.05 177.63 120.9 177.57 119.8 177.38V176.81C120.86 176.65 121.97 176.37 122.9 175.98C122.9 176.43 122.89 177.11 122.89 177.61C123.31 177.32 123.77 177 124.3 176.66C124.9 176.28 125.41 176.04 126.02 176.04C127.7 176.04 128.76 177.28 128.76 179.33V183.31C128.76 184.71 128.89 184.78 130.07 184.91V185.52H125.65V185.54Z" fill="#388D99"/>
<path d="M135.49 185.52C135.13 185.71 134.8 185.79 134.6 185.79C133.21 185.79 132.45 184.98 132.45 183.26V177.2H131.02L130.93 176.95L131.5 176.31H132.45V174.55C132.91 174.11 133.59 173.55 134.05 173.11L134.36 173.17C134.32 174 134.3 175.2 134.3 176.3H136.64C136.83 176.51 136.76 177.01 136.51 177.19H134.3V182.52C134.3 184.21 134.97 184.5 135.49 184.5C135.97 184.5 136.41 184.33 136.72 184.19L136.91 184.77L135.49 185.52Z" fill="#388D99"/>
<path d="M156.64 176.89C155.58 177.06 155.4 177.27 154.95 178.43C154.31 180.11 153.33 182.96 152.4 185.76H151.71C150.88 183.57 150.02 181.41 149.21 179.31C148.43 181.25 147.51 183.49 146.69 185.76H146.02C145.25 183.25 144.43 180.75 143.59 178.26C143.22 177.15 143.04 177.02 142.02 176.89V176.3H146.56V176.89C145.31 177.09 145.22 177.22 145.5 178.13C145.97 179.7 146.51 181.37 146.99 182.89C147.82 180.8 148.64 178.64 149.43 176.4H150.05C150.82 178.53 151.67 180.75 152.54 182.95C152.98 181.72 153.66 179.66 154.02 178.24C154.28 177.2 154.09 177.07 152.66 176.89V176.3H156.64V176.89Z" fill="#388D99"/>
<path d="M156.95 185.54V184.93C158.24 184.8 158.38 184.7 158.38 183.26V178.98C158.38 177.66 158.31 177.58 157.1 177.38V176.84C158.23 176.66 159.28 176.38 160.23 176.01C160.23 176.89 160.23 177.77 160.23 178.65V183.26C160.23 184.69 160.37 184.8 161.7 184.93V185.54H156.95ZM159.19 174.09C158.56 174.09 158.01 173.54 158.01 172.91C158.01 172.2 158.57 171.7 159.22 171.7C159.85 171.7 160.37 172.21 160.37 172.91C160.36 173.54 159.84 174.09 159.19 174.09Z" fill="#388D99"/>
<path d="M166.95 185.52C166.59 185.71 166.26 185.79 166.06 185.79C164.67 185.79 163.91 184.98 163.91 183.26V177.2H162.48L162.39 176.95L162.96 176.31H163.91V174.55C164.37 174.11 165.05 173.55 165.51 173.11L165.82 173.17C165.78 174 165.76 175.2 165.76 176.3H168.1C168.29 176.51 168.22 177.01 167.97 177.19H165.76V182.52C165.76 184.21 166.43 184.5 166.95 184.5C167.43 184.5 167.87 184.33 168.18 184.19L168.37 184.77L166.95 185.52Z" fill="#388D99"/>
<path d="M175.03 185.54V184.93C176.2 184.8 176.34 184.69 176.34 183.35V179.86C176.34 178.14 175.67 177.32 174.37 177.33C173.62 177.33 172.84 177.68 172.27 178.34V183.35C172.27 184.67 172.43 184.8 173.63 184.93V185.54H168.98V184.93C170.16 184.82 170.42 184.72 170.42 183.33V173.28C170.42 172.19 170.35 171.93 168.98 171.79V171.22C170.17 171.11 171.47 170.8 172.27 170.51C172.27 171.32 172.27 172.23 172.27 173.08V177.56C173.02 176.81 174.15 176.06 175.28 176.06C177.02 176.06 178.2 177.15 178.2 179.63V183.35C178.2 184.73 178.36 184.81 179.54 184.93V185.54H175.03Z" fill="#388D99"/>
<path d="M19.37 209.62C18.44 210.87 17.03 211.79 15.77 211.79C13.06 211.79 11.46 209.62 11.46 207.36C11.46 205.72 12.19 204.32 13.58 203.26C14.74 202.37 16.01 202.05 16.85 202.05C17.77 202.05 18.46 202.33 18.78 202.6C19.07 202.83 19.13 202.99 19.13 203.24C19.13 203.76 18.59 204.23 18.34 204.23C18.23 204.23 18.13 204.18 17.93 204.02C17.23 203.4 16.52 203.1 15.8 203.1C14.52 203.1 13.34 204.21 13.34 206.41C13.32 209.31 15.33 210.26 16.49 210.26C17.37 210.26 18.07 210.03 18.99 209.15L19.37 209.62Z" fill="#388D99"/>
<path d="M25.21 202.05C27.9 202.05 29.83 204.09 29.83 206.76C29.83 210.16 27.33 211.79 25.19 211.79C22.24 211.79 20.47 209.45 20.47 207.08C20.48 203.69 23.14 202.05 25.21 202.05ZM24.96 202.78C23.75 202.78 22.64 203.97 22.64 206.43C22.64 209.08 23.76 211.03 25.41 211.03C26.62 211.03 27.67 210.16 27.67 207.25C27.67 204.71 26.71 202.78 24.96 202.78Z" fill="#388D99"/>
<path d="M37.31 211.54V210.93C38.47 210.81 38.58 210.67 38.58 209.24V205.75C38.58 204.28 38.02 203.38 36.75 203.38C35.95 203.38 35.19 203.83 34.56 204.39V209.33C34.56 210.75 34.68 210.8 35.85 210.92V211.53H31.25V210.92C32.58 210.77 32.71 210.69 32.71 209.31V204.98C32.71 203.63 32.56 203.57 31.46 203.38V202.81C32.52 202.65 33.63 202.37 34.56 201.98C34.56 202.43 34.55 203.11 34.55 203.61C34.97 203.32 35.43 203 35.96 202.66C36.56 202.28 37.07 202.04 37.68 202.04C39.36 202.04 40.42 203.28 40.42 205.33V209.31C40.42 210.71 40.55 210.78 41.73 210.91V211.52H37.31V211.54Z" fill="#388D99"/>
<path d="M47.15 211.52C46.79 211.71 46.46 211.79 46.26 211.79C44.87 211.79 44.11 210.98 44.11 209.26V203.2H42.68L42.59 202.95L43.16 202.31H44.11V200.55C44.57 200.11 45.25 199.55 45.71 199.11L46.02 199.17C45.98 200 45.96 201.2 45.96 202.3H48.3C48.49 202.51 48.42 203.01 48.17 203.19H45.96V208.52C45.96 210.21 46.63 210.5 47.15 210.5C47.63 210.5 48.07 210.33 48.38 210.19L48.57 210.77L47.15 211.52Z" fill="#388D99"/>
<path d="M57.28 209.7C55.95 211.42 54.44 211.79 53.73 211.79C51.12 211.79 49.56 209.69 49.56 207.26C49.56 205.82 50.1 204.48 50.96 203.57C51.85 202.59 53.01 202.05 54.11 202.05C55.98 202.05 57.37 203.65 57.37 205.34C57.35 205.75 57.3 205.97 56.98 206.05C56.56 206.14 53.83 206.32 51.41 206.4C51.37 209.11 53.01 210.26 54.5 210.26C55.35 210.26 56.15 209.92 56.93 209.21L57.28 209.7ZM53.63 202.86C52.69 202.86 51.78 203.78 51.52 205.47C52.64 205.47 53.75 205.46 54.92 205.41C55.28 205.41 55.41 205.31 55.41 204.99C55.43 203.88 54.74 202.86 53.63 202.86Z" fill="#388D99"/>
<path d="M70.14 211.54V210.93C71.31 210.81 71.45 210.72 71.45 209.29V205.76C71.45 204.22 70.89 203.39 69.7 203.39C68.97 203.39 68.28 203.77 67.51 204.4C67.53 204.65 67.57 204.92 67.57 205.3V209.4C67.57 210.7 67.74 210.8 68.86 210.93V211.54H64.32V210.93C65.55 210.81 65.72 210.72 65.72 209.37V205.72C65.72 204.18 65.22 203.39 64.03 203.39C63.25 203.39 62.49 203.89 61.85 204.4V209.38C61.85 210.73 61.99 210.82 63.11 210.94V211.55H58.54V210.94C59.88 210.81 60 210.73 60 209.36V204.99C60 203.68 59.93 203.57 58.79 203.37V202.82C59.81 202.68 60.84 202.4 61.85 201.99C61.85 202.49 61.85 203.17 61.85 203.67C62.29 203.34 62.72 203 63.35 202.62C63.9 202.27 64.37 202.06 65.03 202.06C66.07 202.06 66.91 202.69 67.33 203.76C67.9 203.31 68.43 202.97 68.95 202.61C69.41 202.32 70 202.06 70.61 202.06C72.28 202.06 73.28 203.25 73.28 205.32V209.38C73.28 210.74 73.4 210.81 74.57 210.94V211.55H70.14V211.54Z" fill="#388D99"/>
<path d="M75.64 202.75C76.65 202.6 77.8 202.24 78.83 201.84C78.83 202.33 78.83 203 78.83 203.49C78.89 203.45 80.51 202.51 80.59 202.47C81.1 202.19 81.54 202.05 81.83 202.05C84.14 202.05 85.53 204.01 85.53 206.08C85.53 209.25 83.03 211.27 80.28 211.79C79.67 211.77 79.12 211.61 78.82 211.45V214.23C78.82 215.72 78.98 215.84 80.56 216V216.61H75.47V216C76.82 215.86 76.97 215.74 76.97 214.38V204.86C76.97 203.62 76.91 203.53 75.63 203.35V202.75H75.64ZM78.83 209.95C79.3 210.42 80.11 210.76 80.78 210.76C82.48 210.76 83.59 209.26 83.59 206.92C83.59 204.6 82.27 203.37 80.86 203.37C80.16 203.37 79.36 203.8 78.83 204.19V209.95Z" fill="#388D99"/>
<path d="M91.88 202.05C94.57 202.05 96.5 204.09 96.5 206.76C96.5 210.16 94 211.79 91.86 211.79C88.91 211.79 87.14 209.45 87.14 207.08C87.15 203.69 89.81 202.05 91.88 202.05ZM91.63 202.78C90.42 202.78 89.31 203.97 89.31 206.43C89.31 209.08 90.43 211.03 92.08 211.03C93.29 211.03 94.34 210.16 94.34 207.25C94.34 204.71 93.38 202.78 91.63 202.78Z" fill="#388D99"/>
<path d="M102.92 211.54H97.96V210.93C99.24 210.81 99.37 210.7 99.37 209.35V204.94C99.37 203.61 99.29 203.54 98.11 203.39V202.84C99.19 202.68 100.17 202.42 101.22 201.99C101.22 202.68 101.22 203.6 101.22 204.29C101.99 203.13 102.85 202.05 103.87 202.05C104.65 202.05 105.11 202.54 105.11 203.1C105.11 203.68 104.7 204.17 104.33 204.37C104.1 204.5 103.93 204.46 103.77 204.32C103.45 204.01 103.19 203.78 102.82 203.78C102.4 203.78 101.67 204.36 101.22 205.38V209.34C101.22 210.7 101.33 210.8 102.92 210.93V211.54Z" fill="#388D99"/>
<path d="M112.68 211.79C112.32 211.79 111.86 211.62 111.64 211.38C111.36 211.11 111.23 210.82 111.13 210.46C110.3 211.02 109.27 211.78 108.66 211.78C107.11 211.78 106.05 210.51 106.05 209.17C106.05 208.13 106.61 207.48 107.75 207.08C109.02 206.63 110.61 206.1 111.08 205.71V205.2C111.08 203.78 110.39 202.97 109.33 202.97C108.87 202.97 108.58 203.19 108.37 203.44C108.14 203.74 108 204.2 107.81 204.81C107.7 205.19 107.48 205.33 107.15 205.33C106.72 205.33 106.17 204.9 106.17 204.38C106.17 204.07 106.44 203.82 106.87 203.51C107.54 203.04 108.76 202.29 109.95 202.04C110.62 202.04 111.28 202.23 111.79 202.61C112.56 203.24 112.88 203.98 112.88 205.07V209.05C112.88 210.02 113.23 210.31 113.6 210.31C113.84 210.31 114.11 210.21 114.34 210.09L114.55 210.7L112.68 211.79ZM111.08 206.48C110.63 206.71 109.74 207.11 109.27 207.32C108.5 207.67 108.03 208.07 108.03 208.83C108.03 209.95 108.87 210.44 109.5 210.44C110 210.44 110.67 210.16 111.08 209.76C111.08 208.78 111.08 207.46 111.08 206.48Z" fill="#388D99"/>
<path d="M120.37 211.54H115.41V210.93C116.69 210.81 116.82 210.7 116.82 209.35V204.94C116.82 203.61 116.74 203.54 115.56 203.39V202.84C116.64 202.68 117.62 202.42 118.67 201.99C118.67 202.68 118.67 203.6 118.67 204.29C119.44 203.13 120.3 202.05 121.32 202.05C122.1 202.05 122.56 202.54 122.56 203.1C122.56 203.68 122.15 204.17 121.78 204.37C121.55 204.5 121.38 204.46 121.22 204.32C120.9 204.01 120.64 203.78 120.27 203.78C119.85 203.78 119.12 204.36 118.67 205.38V209.34C118.67 210.7 118.78 210.8 120.37 210.93V211.54Z" fill="#388D99"/>
<path d="M132.61 202.89C131.53 203.05 131.31 203.23 130.78 204.42C130.26 205.58 129.68 207.03 128.28 210.55C126.9 213.92 126.52 215.23 126.18 216.34C126.05 216.79 125.82 216.9 125.53 216.9C124.83 216.9 124.18 216.39 124.18 215.83C124.18 215.55 124.32 215.36 124.66 215.09C125.36 214.58 125.86 214.09 126.13 213.54C126.53 212.75 126.83 212.05 126.93 211.78C127.01 211.47 127.01 211.28 126.88 210.93C126.01 208.42 124.84 205.79 124.26 204.39C123.81 203.28 123.61 203.03 122.48 202.89V202.3H126.9V202.89C125.95 203.04 125.83 203.24 126.1 203.99L128.06 209.02C128.63 207.63 129.45 205.37 129.88 204.07C130.12 203.29 129.95 203.06 128.77 202.89V202.3H132.61V202.89Z" fill="#388D99"/>
<path d="M143.48 211.54V210.93C144.68 210.81 144.82 210.71 144.82 209.42V204.37C144.82 203.36 144.76 203.21 143.71 203.21H140.93V209.43C140.93 210.67 141.09 210.81 142.36 210.93V211.54H137.63V210.93C138.91 210.81 139.08 210.69 139.08 209.43V203.21H137.63L137.54 202.95L138 202.31H139.08C139.08 200.18 139.75 198.74 141.1 197.67C141.98 196.96 143.04 196.57 143.86 196.52C145.27 196.52 146.01 197.12 146.3 197.51C146.45 197.69 146.49 197.9 146.49 198.08C146.47 198.4 146.13 198.83 145.84 199.02C145.54 199.2 145.29 199.18 145.02 198.9C144.59 198.42 143.82 197.63 142.8 197.63C142.19 197.63 141.8 197.89 141.56 198.37C141.21 198.9 140.92 200.14 140.92 201.71V202.31H142.69C144.25 202.31 145.65 202.25 146.66 202.04V209.42C146.66 210.71 146.81 210.81 148.15 210.93V211.54H143.48Z" fill="#388D99"/>
<path d="M155.22 211.54V210.93C156.38 210.81 156.49 210.67 156.49 209.24V205.75C156.49 204.28 155.93 203.38 154.66 203.38C153.86 203.38 153.1 203.83 152.47 204.39V209.33C152.47 210.75 152.59 210.8 153.76 210.92V211.53H149.16V210.92C150.49 210.77 150.62 210.69 150.62 209.31V204.98C150.62 203.63 150.47 203.57 149.37 203.38V202.81C150.43 202.65 151.54 202.37 152.47 201.98C152.47 202.43 152.46 203.11 152.46 203.61C152.88 203.32 153.34 203 153.87 202.66C154.47 202.28 154.98 202.04 155.59 202.04C157.27 202.04 158.33 203.28 158.33 205.33V209.31C158.33 210.71 158.46 210.78 159.64 210.91V211.52H155.22V211.54Z" fill="#388D99"/>
<path d="M171.2 211.01C170.75 211.09 169.11 211.35 167.79 211.8C167.79 211.37 167.79 210.9 167.79 210.46C167.41 210.7 166.87 210.99 166.49 211.23C165.71 211.68 165.19 211.8 164.94 211.8C163.24 211.8 160.96 210.15 160.96 207.17C160.96 204.26 163.52 202.06 166.47 202.06C166.74 202.06 167.37 202.09 167.79 202.26V199.29C167.79 197.99 167.65 197.93 166.19 197.8V197.23C167.3 197.08 168.81 196.79 169.64 196.52C169.64 197.31 169.64 198.2 169.64 199.06V209.07C169.64 210.17 169.78 210.31 170.56 210.36L171.19 210.4V211.01H171.2ZM167.79 203.96C167.35 203.25 166.51 202.89 165.7 202.89C164.76 202.89 163.04 203.52 163.04 206.55C163.04 209.13 164.61 210.41 165.88 210.43C166.57 210.43 167.3 210.11 167.79 209.75V203.96Z" fill="#388D99"/>
<path d="M172.17 211.54V210.93C173.46 210.8 173.6 210.7 173.6 209.26V204.98C173.6 203.66 173.53 203.58 172.32 203.38V202.84C173.45 202.66 174.5 202.38 175.45 202.01C175.45 202.89 175.45 203.77 175.45 204.65V209.26C175.45 210.69 175.59 210.8 176.92 210.93V211.54H172.17ZM174.4 200.09C173.77 200.09 173.22 199.54 173.22 198.91C173.22 198.2 173.78 197.7 174.43 197.7C175.06 197.7 175.58 198.21 175.58 198.91C175.57 199.54 175.05 200.09 174.4 200.09Z" fill="#388D99"/>
<path d="M183.99 211.54V210.93C185.15 210.81 185.26 210.67 185.26 209.24V205.75C185.26 204.28 184.7 203.38 183.43 203.38C182.63 203.38 181.87 203.83 181.24 204.39V209.33C181.24 210.75 181.36 210.8 182.53 210.92V211.53H177.93V210.92C179.26 210.77 179.39 210.69 179.39 209.31V204.98C179.39 203.63 179.24 203.57 178.14 203.38V202.81C179.2 202.65 180.31 202.37 181.24 201.98C181.24 202.43 181.23 203.11 181.23 203.61C181.65 203.32 182.11 203 182.64 202.66C183.24 202.28 183.75 202.04 184.36 202.04C186.04 202.04 187.1 203.28 187.1 205.33V209.31C187.1 210.71 187.23 210.78 188.41 210.91V211.52H183.99V211.54Z" fill="#388D99"/>
<path d="M192.67 208.43C192.22 208.8 192.03 209.17 192.03 209.42C192.03 209.79 192.39 210.21 193.31 210.21C194.07 210.21 194.97 210.19 195.67 210.19C197 210.19 198.75 210.65 198.75 212.72C198.75 214.94 196.11 216.96 193.32 216.96C190.88 216.96 189.61 215.58 189.57 214.36C189.57 213.89 189.76 213.5 190.11 213.17C190.56 212.74 191.33 212.11 191.81 211.74C191.04 211.51 190.51 211.04 190.24 210.6C190.04 210.28 189.97 209.88 189.97 209.65C190.8 209.33 191.55 208.74 191.96 208.19L192.67 208.43ZM193.67 208.64C191.64 208.64 190.03 207.43 190.03 205.47C190.03 203.1 192.18 201.99 193.86 201.99C194.59 201.99 195.28 202.18 195.94 202.52C196.89 202.52 198.19 202.36 198.77 202.21L198.89 202.4C198.76 202.74 198.44 203.35 198.11 203.55C197.79 203.55 197.11 203.47 196.82 203.44C197.17 203.9 197.41 204.55 197.41 205.32C197.42 207.57 195.53 208.64 193.67 208.64ZM194.12 211.82C193.08 211.82 192.61 211.95 192.24 212.25C191.69 212.7 191.31 213.29 191.31 213.87C191.31 215.02 192.48 215.88 194.13 215.88C196.06 215.88 197.17 214.9 197.17 213.59C197.17 212.87 196.8 212.31 196.2 212.07C195.67 211.86 194.98 211.82 194.12 211.82ZM193.68 202.69C192.79 202.69 191.98 203.54 191.98 205.17C191.98 206.79 192.76 207.95 193.88 207.95C194.78 207.91 195.54 207.12 195.54 205.46C195.54 203.87 194.82 202.69 193.68 202.69Z" fill="#388D99"/>
<path d="M205.13 204.84C204.72 203.58 204.15 202.77 202.92 202.77C202.21 202.77 201.65 203.28 201.65 204.09C201.65 204.96 202.24 205.38 203.4 205.91C205.19 206.75 206.13 207.4 206.13 208.83C206.13 210.79 204.32 211.79 202.64 211.79C201.55 211.79 200.55 211.44 200.11 211.19C200.01 210.6 199.82 209.4 199.74 208.7L200.36 208.59C200.75 209.93 201.51 211.05 202.96 211.05C203.76 211.05 204.38 210.51 204.38 209.68C204.38 208.79 203.86 208.3 202.71 207.74C201.26 207.03 200.03 206.35 200.03 204.8C200.03 203.24 201.34 202.05 203.36 202.05C204.26 202.05 204.99 202.26 205.42 202.33C205.48 202.85 205.64 204.17 205.74 204.69L205.13 204.84Z" fill="#388D99"/>
<path d="M209.1 211.82C208.3 211.82 207.74 211.24 207.74 210.4C207.74 209.6 208.3 208.98 209.1 208.98C209.9 208.98 210.49 209.59 210.49 210.4C210.49 211.24 209.9 211.82 209.1 211.82Z" fill="#388D99"/>
<defs>
<linearGradient id="paint0_linear" x1="7.40169" y1="2.03428" x2="235.939" y2="297.055" gradientUnits="userSpaceOnUse">
<stop stop-color="#004A48"/>
<stop offset="0.1386" stop-color="#1B5B5C"/>
<stop offset="0.3173" stop-color="#287075"/>
<stop offset="0.4892" stop-color="#317F88"/>
<stop offset="0.6495" stop-color="#368994"/>
<stop offset="0.7867" stop-color="#388C98"/>
</linearGradient>
</defs>
</svg>
