<?xml version="1.0" encoding="utf-8"?>
<!-- Generator: Adobe Illustrator 23.0.1, SVG Export Plug-In . SVG Version: 6.00 Build 0)  -->
<svg version="1.1" id="Camada_1" xmlns="http://www.w3.org/2000/svg" xmlns:xlink="http://www.w3.org/1999/xlink" x="0px" y="0px"
	 viewBox="0 0 187.05 181.43" style="enable-background:new 0 0 187.05 181.43;" xml:space="preserve">
<style type="text/css">
	.st0{fill:url(#SVGID_1_);}
	.st1{fill:url(#SVGID_2_);}
	.st2{fill:url(#SVGID_3_);}
	.st3{fill:url(#SVGID_4_);}
	.st4{fill:url(#SVGID_5_);}
	.st5{fill:url(#SVGID_6_);}
	.st6{fill:url(#SVGID_7_);}
	.st7{fill:url(#SVGID_8_);}
	.st8{fill:url(#SVGID_9_);}
	.st9{fill:url(#SVGID_10_);}
	.st10{fill:url(#SVGID_11_);}
	.st11{fill:url(#SVGID_12_);}
	.st12{fill:url(#SVGID_13_);}
	.st13{fill:url(#SVGID_14_);}
	.st14{fill:url(#SVGID_15_);}
	.st15{fill:url(#SVGID_16_);}
	.st16{fill:url(#SVGID_17_);}
	.st17{fill:url(#SVGID_18_);}
	.st18{fill:url(#SVGID_19_);}
	.st19{fill:url(#SVGID_20_);}
	.st20{fill:url(#SVGID_21_);}
	.st21{fill:url(#SVGID_22_);}
	.st22{fill:url(#SVGID_23_);}
	.st23{fill:url(#SVGID_24_);}
	.st24{fill:url(#SVGID_25_);}
	.st25{fill:url(#SVGID_26_);}
	.st26{fill:url(#SVGID_27_);}
	.st27{fill:url(#SVGID_28_);}
	.st28{fill:url(#SVGID_29_);}
	.st29{fill:url(#SVGID_30_);}
	.st30{fill:url(#SVGID_31_);}
	.st31{fill:url(#SVGID_32_);}
	.st32{fill:url(#SVGID_33_);}
	.st33{fill:url(#SVGID_34_);}
	.st34{fill:url(#SVGID_35_);}
	.st35{fill:url(#SVGID_36_);}
	.st36{fill:url(#SVGID_37_);}
	.st37{fill:url(#SVGID_38_);}
	.st38{fill:url(#SVGID_39_);}
	.st39{fill:url(#SVGID_40_);}
	.st40{fill:url(#SVGID_41_);}
	.st41{fill:url(#SVGID_42_);}
	.st42{fill:url(#SVGID_43_);}
	.st43{fill:url(#SVGID_44_);}
	.st44{fill:url(#SVGID_45_);}
	.st45{fill:url(#SVGID_46_);}
	.st46{fill:url(#SVGID_47_);}
	.st47{fill:url(#SVGID_48_);}
	.st48{fill:url(#SVGID_49_);}
	.st49{fill:url(#SVGID_50_);}
	.st50{fill:url(#SVGID_51_);}
	.st51{clip-path:url(#SVGID_65_);fill:url(#SVGID_66_);}
	.st52{clip-path:url(#SVGID_65_);fill:url(#SVGID_67_);}
	.st53{clip-path:url(#SVGID_65_);fill:url(#SVGID_68_);}
	.st54{clip-path:url(#SVGID_65_);fill:url(#SVGID_69_);}
	.st55{clip-path:url(#SVGID_65_);fill:url(#SVGID_70_);}
	.st56{fill:none;stroke:#FFFFFF;stroke-miterlimit:10;}
	.st57{opacity:0.5;}
	.st58{fill:none;stroke:#FFFFFF;stroke-width:0.75;stroke-miterlimit:10;}
	.st59{fill:url(#SVGID_73_);}
	.st60{opacity:0.75;}
	.st61{fill:#004441;}
	.st62{fill:#008E9A;}
	.st63{fill:#003936;}
	.st64{fill:#FFFFFF;}
	.st65{fill:url(#SVGID_82_);}
	.st66{fill:url(#SVGID_83_);}
	.st67{fill:url(#SVGID_84_);}
	.st68{fill:url(#SVGID_85_);}
	.st69{fill:url(#SVGID_86_);}
	.st70{fill:url(#SVGID_87_);}
	.st71{fill:url(#SVGID_88_);}
	.st72{fill:url(#SVGID_89_);}
	.st73{fill:url(#SVGID_90_);}
	.st74{fill:url(#SVGID_91_);}
	.st75{fill:url(#SVGID_92_);}
	.st76{fill:#006D68;}
	.st77{fill:url(#SVGID_93_);}
	.st78{fill:url(#SVGID_94_);}
	.st79{fill:url(#SVGID_95_);}
	.st80{fill:url(#SVGID_96_);}
	.st81{fill:url(#SVGID_97_);}
	.st82{fill:url(#SVGID_98_);}
	.st83{fill:url(#SVGID_99_);}
	.st84{fill:url(#SVGID_100_);}
	.st85{fill:url(#SVGID_101_);}
	.st86{fill:url(#SVGID_102_);}
	.st87{fill:#005D57;}
	.st88{fill:#0096A4;}
	.st89{fill:none;stroke:#FFFFFF;stroke-width:2;stroke-miterlimit:10;}
	.st90{fill:none;stroke:#006D68;stroke-width:2;stroke-miterlimit:10;}
	.st91{fill:#004441;stroke:#004441;stroke-width:2;stroke-miterlimit:10;}
	.st92{fill:#FFFFFF;stroke:#008E9A;stroke-width:2;stroke-miterlimit:10;}
	.st93{fill:#004039;}
	.st94{fill:#C6E5EA;}
	.st95{fill:#79C4CF;}
	.st96{fill:#6CBFC4;}
	.st97{fill:#D2E9EC;}
	.st98{fill:#FADFD1;}
	.st99{fill:#EA7B59;}
	.st100{fill:#CFCFD9;}
	.st101{fill:#EC7E0B;}
	.st102{fill:#875B9F;}
	.st103{fill:#D24B51;}
	.st104{fill:#F5BB90;}
	.st105{fill:#54B8C0;}
	.st106{fill:#E5533A;}
	.st107{fill:#E3BC38;}
	.st108{fill:url(#SVGID_103_);}
	.st109{fill:url(#SVGID_104_);}
	.st110{fill:url(#SVGID_105_);}
	.st111{fill:url(#SVGID_106_);}
	.st112{fill:url(#SVGID_107_);}
	.st113{fill:url(#SVGID_108_);}
	.st114{fill:url(#SVGID_109_);}
	.st115{fill:url(#SVGID_110_);}
	.st116{fill:url(#SVGID_111_);}
	.st117{fill:url(#SVGID_112_);}
	.st118{fill:url(#SVGID_113_);}
	.st119{fill:url(#SVGID_114_);}
	.st120{fill:url(#SVGID_115_);}
	.st121{fill:url(#SVGID_116_);}
	.st122{fill:url(#SVGID_117_);}
	.st123{fill:url(#SVGID_118_);}
	.st124{fill:url(#SVGID_119_);}
	.st125{fill:url(#SVGID_120_);}
	.st126{fill:url(#SVGID_121_);}
	.st127{fill:url(#SVGID_122_);}
	.st128{fill:url(#SVGID_123_);}
	.st129{fill:url(#SVGID_124_);}
	.st130{fill:url(#SVGID_125_);}
	.st131{fill:url(#SVGID_126_);}
	.st132{fill:url(#SVGID_127_);}
	.st133{fill:url(#SVGID_128_);}
	.st134{fill:url(#SVGID_129_);}
	.st135{fill:url(#SVGID_130_);}
	.st136{fill:url(#SVGID_131_);}
	.st137{fill:url(#SVGID_132_);}
	.st138{fill:url(#SVGID_133_);}
	.st139{fill:url(#SVGID_134_);}
	.st140{fill:url(#SVGID_135_);}
	.st141{fill:url(#SVGID_136_);}
	.st142{fill:url(#SVGID_137_);}
	.st143{fill:url(#SVGID_138_);}
	.st144{fill:url(#SVGID_139_);}
	.st145{fill:url(#SVGID_140_);}
	.st146{fill:url(#SVGID_141_);}
	.st147{fill:url(#SVGID_142_);}
	.st148{fill:url(#SVGID_143_);}
	.st149{fill:url(#SVGID_144_);}
	.st150{fill:url(#SVGID_145_);}
	.st151{fill:url(#SVGID_146_);}
	.st152{fill:url(#SVGID_147_);}
	.st153{fill:url(#SVGID_148_);}
	.st154{fill:url(#SVGID_149_);}
	.st155{fill:url(#SVGID_150_);}
	.st156{fill:url(#SVGID_151_);}
	.st157{fill:url(#SVGID_152_);}
	.st158{fill:url(#SVGID_153_);}
	.st159{clip-path:url(#SVGID_167_);fill:url(#SVGID_168_);}
	.st160{clip-path:url(#SVGID_167_);fill:url(#SVGID_169_);}
	.st161{clip-path:url(#SVGID_167_);fill:url(#SVGID_170_);}
	.st162{clip-path:url(#SVGID_167_);fill:url(#SVGID_171_);}
	.st163{clip-path:url(#SVGID_167_);fill:url(#SVGID_172_);}
	.st164{fill:#A991B5;}
	.st165{fill:#EE8E34;}
	.st166{fill:#A07F0E;}
	.st167{fill:none;stroke:#54B8C0;stroke-width:4;stroke-miterlimit:10;}
	.st168{fill:none;stroke:#875B9F;stroke-width:5;stroke-miterlimit:10;}
	.st169{fill:#E76F80;}
	.st170{fill:#004745;}
</style>
<g>
	<g>
		<g class="st60">
			<rect x="20.14" y="15.48" class="st91" width="138.78" height="142.48"/>
		</g>
		<g>
			<g>
				<rect x="24.14" y="19.48" class="st92" width="138.78" height="142.48"/>
			</g>
		</g>
	</g>
	<g>
		<path class="st93" d="M54.94,32.93c0.83,0,1.66,0,2.48,0c2.04,0.73,3.59,1.95,4.27,4.12c0.08,0.24,0.53,0.47,0.84,0.52
			c4.07,0.66,8.15,1.3,12.24,1.88c0.4,0.06,1.02-0.22,1.28-0.55c1.92-2.4,5.16-2.97,7.63-1.2c0.57,0.41,1.02,0.44,1.64,0.24
			c2.99-0.96,6.07-1.36,9.21-1.25c4.99,0.17,9.58,1.63,13.83,4.25c0.32,0.2,0.93,0.2,1.28,0.04c2.52-1.13,5.05-0.56,6.91,1.56
			c0.24,0.28,0.82,0.46,1.19,0.4c1.48-0.26,2.93-0.63,4.39-0.96c5.7-1.3,11.4-2.59,17.1-3.9c0.36-0.08,0.93-0.3,0.98-0.55
			c0.51-2.44,2.14-3.76,4.33-4.59c0.83,0,1.66,0,2.48,0c2.07,0.79,3.5,2.22,4.29,4.29c0,0.83,0,1.66,0,2.48
			c-0.7,1.89-1.81,3.42-4.04,4.2c0,3.04-0.01,6.11,0.02,9.18c0,0.23,0.18,0.61,0.37,0.68c1.88,0.74,2.94,2.2,3.66,3.99
			c0,0.83,0,1.66,0,2.48c-0.05,0.05-0.13,0.09-0.16,0.15c-1.47,3.81-4.04,4.96-7.96,3.61c-0.3-0.1-0.81,0.03-1.08,0.23
			c-2.43,1.84-4.84,3.7-7.21,5.61c-0.3,0.24-0.52,0.83-0.46,1.2c0.3,1.63-0.08,3.09-1.06,4.35c-0.47,0.59-0.39,1.02-0.12,1.61
			c1.98,4.25,3.95,8.51,5.9,12.78c0.29,0.64,0.6,0.94,1.39,0.98c3.63,0.16,6.16,4.07,4.78,7.4c-0.33,0.8-0.18,1.28,0.3,1.89
			c1.98,2.54,3.48,5.35,4.36,8.46c0.53,1.87,0.88,3.78,1.32,5.68c0,1.81,0,3.61,0,5.42c-0.07,0.16-0.19,0.32-0.21,0.49
			c-1.61,11.89-9.82,21.05-21.39,23.86c-0.66,0.16-0.97,0.48-1.23,1.09c-0.86,2.03-2.43,3.23-4.64,3.41
			c-2.31,0.19-4.12-0.75-5.26-2.77c-0.4-0.7-0.82-0.9-1.58-0.9c-5.68,0.03-11.36,0.03-17.04,0c-0.81-0.01-1.24,0.21-1.66,0.95
			c-1.58,2.76-5.03,3.58-7.72,1.91c-2.64-1.64-3.6-5.23-1.69-7.64c1.12-1.42,0.96-2.51,0.4-3.91c-0.46-1.15-0.78-2.35-1.18-3.52
			c-0.1-0.3-0.26-0.57-0.49-1.08c-0.41,0.54-0.69,0.91-0.97,1.28c-7.08,9.33-16.38,13.41-28,11.49
			c-7.54-1.25-13.55-5.26-17.88-11.54c-4.77-6.92-6.15-14.56-4.13-22.76c1.3-5.25,4.01-9.67,7.88-13.42
			c0.35-0.33,0.66-0.95,0.61-1.4c-0.21-1.86,0.34-3.44,1.68-4.68c0.57-0.53,0.64-0.96,0.46-1.64c-2.06-7.75-4.1-15.52-6.13-23.28
			c-0.16-0.61-0.39-0.95-1.12-1.14c-3.73-0.94-5.43-5.07-3.42-8.29c1.47-2.37,3.7-3.02,6.36-2.5c2.78-3.82,5.55-7.61,8.28-11.44
			c0.19-0.26,0.14-0.84-0.01-1.17c-1.32-2.91-0.19-6.17,2.65-7.56C54.23,33.29,54.59,33.11,54.94,32.93z M135.78,91.74
			c-0.05-0.31-0.04-0.46-0.1-0.58c-1.99-4.33-3.98-8.66-6.02-12.96c-0.14-0.29-0.67-0.52-1.04-0.55c-2.43-0.21-4.06-1.47-4.92-3.7
			c-0.81-2.1-0.23-4.45,1.47-5.97c1.76-1.56,3.77-1.95,5.95-0.98c0.59,0.26,1,0.26,1.52-0.16c2.32-1.85,4.68-3.65,7.02-5.48
			c1.01-0.79,0.78-2.36-0.42-2.83c-6.92-2.69-13.84-5.38-20.77-8.06c-0.24-0.09-0.5-0.13-0.89-0.22
			c8.84,15.45,1.6,32.42-10.78,38.97c-6.34,3.36-13.06,4.34-19.97,2.51c-10.38-2.75-17.06-9.55-20.39-19.93
			c-3.7,6.16-7.27,12.12-10.98,18.3c4.79-1.45,9.38-1.66,13.96-0.68c14.91,3.2,24.14,17.37,21.92,31.33
			c-0.06,0.4,0.12,0.98,0.4,1.27c2.32,2.43,2.39,5.49,0.19,7.99c-0.24,0.27-0.4,0.82-0.3,1.15c0.55,1.83,1.15,3.65,1.82,5.44
			c0.12,0.33,0.57,0.7,0.91,0.76c1.88,0.34,3.27,1.33,4.1,3.01c0.3,0.6,0.67,0.68,1.23,0.67c2.86-0.02,5.72-0.01,8.57-0.01
			c0.27,0,0.54-0.05,0.94-0.08c-12.99-7.98-16.78-23.08-11.58-35.14c2.57-5.96,6.73-10.59,12.48-13.62
			C118.5,87.78,127.07,87.79,135.78,91.74z M141.94,131.71c0.25,0.02,0.31,0.04,0.32,0.02c0.1-0.11,0.21-0.22,0.3-0.33
			c2.56-3.34,4.18-7.09,4.73-11.28c0.88-6.61-0.71-12.58-4.7-17.91c-0.3-0.4-0.52-0.64-1.17-0.5c-4.19,0.91-7.08-2.5-6.87-5.58
			c0.02-0.33-0.29-0.85-0.58-0.99c-5.1-2.52-10.46-3.19-15.98-1.91c-13.73,3.18-21.66,17.05-17.88,30.21
			c0.89,3.09,2.33,5.9,4.62,8.67c0-1.33-0.02-2.33,0-3.32c0.1-3.97,2.09-6.52,5.92-7.62c1.91-0.55,3.82-1.09,5.73-1.63
			c1.54-0.44,1.95-2.16,0.76-3.28c-1.53-1.43-2.68-3.12-2.89-5.21c-0.21-2.05-0.24-4.13-0.14-6.18c0.21-4.25,3.78-7.94,8.02-8.47
			c4.45-0.56,8.9,2.06,9.96,6.3c0.58,2.32,0.48,4.82,0.52,7.25c0.04,2.2-0.82,4.18-2.43,5.63c-1.15,1.03-1.38,2.12-1.1,3.58
			c2.36,0.67,4.78,1.33,7.18,2.05c3.26,0.98,5.28,3.1,5.67,6.54C142.06,129.05,141.94,130.4,141.94,131.71z M47.47,99.06
			c-10.01,8.7-10.17,24.16-2.57,32.75c0.04-0.05,0.11-0.11,0.11-0.16c0.01-0.83,0.02-1.65,0.02-2.48c0.02-4.16,2.06-6.87,6.04-8.02
			c2.33-0.67,4.66-1.35,6.93-2.01c0.31-1.48,0-2.53-1.08-3.59c-0.94-0.93-1.76-2.25-2.06-3.53c-0.76-3.2-0.92-6.53,0.2-9.66
			c1.25-3.5,3.95-5.56,7.66-5.95c3.89-0.4,6.93,1.18,9.02,4.53c1.33,2.13,1.23,4.49,1.32,6.86c0.13,3.42-0.7,6.36-3.35,8.7
			c-0.91,0.8-0.37,2.62,0.78,2.95c1.98,0.57,3.96,1.14,5.94,1.72c3.87,1.12,5.85,3.69,5.93,7.72c0.02,0.98,0,1.96,0,2.94
			c0.09,0.01,0.18,0.02,0.27,0.03c0.44-0.59,0.87-1.17,1.28-1.73c-2.9-4.24-1.65-7.8,3.19-9.49c0.23-0.08,0.49-0.36,0.54-0.58
			c0.14-0.66,0.22-1.34,0.24-2.01c0.26-6.95-1.88-13.07-6.79-18c-6.7-6.72-14.75-8.85-23.96-6.49c-0.59,0.15-0.82,0.37-0.86,1.04
			c-0.14,2.27-1.21,4.01-3.34,4.95C51.03,100.38,49.19,100.11,47.47,99.06z M74.85,79.64c0-1.04-0.02-1.96,0-2.88
			c0.08-4.01,2.08-6.63,5.92-7.76c2.08-0.61,4.18-1.19,6.26-1.8c0.3-0.09,0.8-0.3,0.8-0.45c-0.01-0.96,0.41-1.95-0.6-2.79
			c-1.54-1.28-2.58-3-2.8-5c-0.22-2.01-0.21-4.05-0.14-6.07c0.13-4.23,3.62-8.1,7.69-8.64c4.74-0.64,9.21,1.96,10.32,6.38
			c0.55,2.21,0.45,4.6,0.5,6.92c0.06,2.33-0.84,4.4-2.52,5.95c-1.12,1.03-1.25,2.09-1.01,3.48c2.4,0.69,4.86,1.35,7.28,2.1
			c3.26,1,5.2,3.17,5.55,6.61c0.13,1.31,0.13,2.64,0.2,4.07c0.2-0.18,0.29-0.25,0.36-0.33c6.11-7.28,6.77-19.53,1.43-27.41
			c-0.21-0.31-0.87-0.5-1.28-0.46c-3.29,0.35-6.33-2.18-6.13-5.48c0.09-1.56-0.48-2.23-1.71-2.74c-0.35-0.14-0.66-0.35-1-0.51
			c-5.78-2.72-11.71-3.16-17.77-1.21c-0.04,0.16-0.08,0.23-0.08,0.3c0.15,4.68-4.79,7.38-8.4,5.23c-0.21-0.13-0.74-0.02-0.93,0.17
			c-3.96,3.84-6.3,8.51-7.15,13.98c1.97,1.06,3.25,2.57,3.39,4.86c0.13,2.27-0.97,3.93-2.69,5.19
			C71.51,75.04,73.2,78.17,74.85,79.64z M63.72,127.05c-1.31-1.35-2.45-2.59-3.68-3.74c-0.31-0.3-0.95-0.52-1.34-0.42
			c-2.32,0.59-4.62,1.26-6.91,1.94c-1.98,0.59-2.93,1.91-2.94,4.01c-0.01,2.03-0.05,4.06,0.03,6.08c0.02,0.5,0.33,1.16,0.73,1.45
			c8.28,6.15,20.1,6.11,28.33-0.08c0.33-0.25,0.62-0.77,0.63-1.17c0.06-2.1,0.05-4.21,0.02-6.31c-0.03-2.07-1.02-3.39-3-3.98
			c-2.26-0.67-4.52-1.33-6.8-1.91c-0.41-0.1-1.05,0.06-1.35,0.34C66.22,124.42,65.08,125.67,63.72,127.05z M108.32,79.76
			c0-0.94,0.02-1.88,0-2.82c-0.04-2.3-0.99-3.56-3.18-4.2c-2.12-0.62-4.27-1.18-6.38-1.84c-0.69-0.22-1.12-0.05-1.59,0.43
			c-0.96,1.01-1.98,1.95-2.94,2.96c-0.5,0.53-0.88,0.53-1.39,0c-0.98-1.04-1.99-2.05-3.04-3.02c-0.29-0.26-0.82-0.52-1.15-0.43
			c-2.47,0.65-4.92,1.36-7.36,2.12c-1.31,0.41-2.24,1.35-2.34,2.76c-0.15,2.21-0.12,4.42-0.23,6.63c-0.05,0.87,0.3,1.37,0.97,1.85
			c7.88,5.67,18.73,5.87,26.95,0.54c1.23-0.8,1.94-1.67,1.68-3.19C108.24,80.98,108.32,80.37,108.32,79.76z M123.35,127.04
			c-1.29-1.3-2.48-2.48-3.64-3.7c-0.43-0.46-0.83-0.6-1.48-0.4c-2.22,0.68-4.46,1.26-6.69,1.91c-1.64,0.48-2.85,1.5-2.95,3.28
			c-0.13,2.43-0.1,4.88-0.09,7.32c0,0.25,0.33,0.55,0.57,0.74c2.56,1.9,5.38,3.23,8.47,4c0.6,0.15,0.88,0.02,1.21-0.43
			c2.47-3.36,6.74-3.37,9.18-0.01c0.33,0.46,0.6,0.59,1.2,0.44c3.02-0.76,5.77-2.05,8.31-3.85c0.57-0.4,0.76-0.81,0.75-1.48
			c-0.04-1.99-0.01-3.98-0.02-5.97c-0.01-2.15-0.96-3.43-3.04-4.04c-2.19-0.64-4.4-1.2-6.58-1.89c-0.74-0.23-1.17-0.07-1.67,0.46
			C125.78,124.61,124.61,125.76,123.35,127.04z M51.27,89.28c0.48-0.56,0.8-0.86,1.02-1.22c3.33-5.53,6.63-11.08,9.99-16.59
			c0.57-0.94,0.95-1.71,0.13-2.68c-0.25-0.29-0.4-0.76-0.4-1.15c0-0.68-0.37-0.89-0.92-1.04c-4.79-1.36-9.58-2.73-14.38-4.09
			c-1.11-0.31-2.25,0.83-1.95,1.95c1.33,5.07,2.66,10.15,4,15.22C49.55,82.75,50.36,85.82,51.27,89.28z M119.02,46.55
			c0.45,0.2,0.71,0.33,0.98,0.44c6.81,2.66,13.63,5.31,20.44,7.97c1.37,0.53,3.04-0.57,3.09-2.08c0.07-2.41,0.07-4.81,0.16-7.22
			c0.05-1.17,0.09-2.24-1.32-2.7c-0.29-0.1-0.59-0.39-0.74-0.67c-0.42-0.77-1.04-0.68-1.72-0.52c-2.23,0.52-4.46,1.03-6.69,1.54
			C128.55,44.37,123.89,45.43,119.02,46.55z M54.81,44.01c-0.11,0.1-0.42,0.32-0.64,0.61c-2.22,3.03-4.4,6.09-6.65,9.09
			c-0.92,1.22-1.89,2.34-0.78,3.92c0.04,0.06,0.05,0.15,0.04,0.22c-0.03,0.66,0.37,0.88,0.94,1.04c4.76,1.34,9.51,2.7,14.27,4.07
			c0.51,0.15,1.08,0.41,1.35-0.26c0.15-0.38,0.18-0.91,0.03-1.28c-2.12-5.41-4.31-10.79-6.41-16.21
			C56.58,44.26,55.99,44,54.81,44.01z M129.01,107.48c-0.03,0-0.06,0-0.08-0.01c0-0.6,0.03-1.2,0-1.8
			c-0.17-3.19-2.46-5.57-5.49-5.57c-3.49-0.01-5.56,2.77-5.56,5.21c0,1.57-0.07,3.15,0.06,4.72c0.22,2.61,2.44,4.7,4.96,4.81
			c2.95,0.13,5.32-1.6,5.84-4.34C128.92,109.51,128.92,108.49,129.01,107.48z M58.07,107.38c0.03,0,0.05,0,0.08,0.01
			c0,0.64-0.03,1.28,0,1.91c0.16,3.07,2.37,5.44,5.15,5.54c3.26,0.12,5.57-1.85,5.87-5.18c0.14-1.56,0.09-3.15-0.04-4.71
			c-0.23-2.73-2.5-4.75-5.3-4.86c-2.57-0.11-5.01,1.81-5.5,4.39C58.16,105.43,58.15,106.41,58.07,107.38z M99.17,55.27
			c-0.07-0.9-0.09-1.8-0.22-2.69c-0.38-2.65-2.7-4.66-5.37-4.7c-2.67-0.04-5.17,2-5.44,4.71c-0.18,1.81-0.18,3.68,0.01,5.49
			c0.28,2.66,2.7,4.62,5.39,4.62c2.69,0,5.02-1.98,5.41-4.63C99.08,57.14,99.1,56.2,99.17,55.27z M66.34,58.41
			c1.43-6.03,4.47-10.84,8.8-14.85c-0.21-0.16-0.26-0.24-0.32-0.25c-4.33-0.68-8.66-1.38-12.99-2.03c-1.02-0.15-1.95,1.18-1.56,2.16
			c1.87,4.7,3.75,9.39,5.63,14.08C65.99,57.76,66.12,57.98,66.34,58.41z M145.77,40.31c0.98-0.04,1.72-0.87,1.67-1.89
			c-0.04-0.97-0.77-1.64-1.77-1.62c-0.99,0.02-1.81,0.88-1.73,1.83C144.01,39.5,144.93,40.34,145.77,40.31z M82.22,42.26
			c0-1.01-0.81-1.82-1.77-1.79c-0.88,0.03-1.73,0.89-1.74,1.77c-0.01,0.97,0.82,1.75,1.83,1.74C81.52,43.95,82.22,43.24,82.22,42.26
			z M123.31,144.62c0.99,0.02,1.74-0.66,1.78-1.62c0.05-1.01-0.71-1.85-1.69-1.89c-0.91-0.03-1.83,0.87-1.83,1.79
			C121.59,143.84,122.35,144.6,123.31,144.62z M56.29,36.8c-0.99-0.01-1.73,0.67-1.76,1.64c-0.04,1.01,0.72,1.85,1.7,1.87
			c0.91,0.02,1.83-0.9,1.81-1.81C58.03,37.57,57.25,36.81,56.29,36.8z M87.91,124.38c-0.94,0.02-1.73,0.8-1.75,1.72
			c-0.02,0.91,0.9,1.82,1.82,1.79c0.98-0.03,1.73-0.84,1.69-1.87C89.63,125.07,88.88,124.37,87.91,124.38z M95.29,142.95
			c0.03-0.95-0.82-1.83-1.76-1.83c-0.89,0-1.72,0.82-1.75,1.73c-0.03,0.95,0.7,1.73,1.65,1.77
			C94.46,144.67,95.27,143.94,95.29,142.95z M140.11,94.58c-0.97,0.01-1.71,0.73-1.73,1.69c-0.02,0.94,0.85,1.84,1.77,1.83
			c0.95-0.01,1.74-0.88,1.7-1.87C141.82,95.26,141.1,94.57,140.11,94.58z M130.72,72.02c-0.03-0.94-0.94-1.76-1.88-1.7
			c-0.94,0.06-1.66,0.85-1.63,1.8c0.03,1.01,0.81,1.71,1.85,1.67C129.99,73.74,130.75,72.93,130.72,72.02z M147.45,59.07
			c0.02-0.99-0.66-1.72-1.63-1.76c-1.01-0.04-1.86,0.71-1.89,1.68c-0.03,0.9,0.89,1.82,1.81,1.81
			C146.68,60.78,147.43,60.03,147.45,59.07z M41.37,60.79c0.93-0.02,1.82-0.94,1.76-1.84c-0.06-0.92-0.86-1.65-1.81-1.64
			c-1.02,0.01-1.74,0.76-1.7,1.8C39.66,60.06,40.43,60.81,41.37,60.79z M112.18,44.25c-0.98,0-1.7,0.7-1.73,1.67
			c-0.03,1,0.76,1.84,1.72,1.85c0.92,0.01,1.79-0.91,1.76-1.84C113.91,44.98,113.15,44.25,112.18,44.25z M52.41,94.47
			c0.02-0.96-0.7-1.71-1.66-1.76c-0.99-0.04-1.83,0.72-1.86,1.69c-0.02,0.91,0.75,1.72,1.68,1.76
			C51.59,96.21,52.4,95.47,52.41,94.47z M67.46,64.76c-1.01-0.01-1.81,0.78-1.78,1.76c0.03,0.91,0.85,1.73,1.75,1.74
			c0.97,0.01,1.76-0.81,1.74-1.82C69.15,65.46,68.44,64.76,67.46,64.76z M93.44,69.3c1.9-1.48,1.99-1.63,1.74-2.84
			c-1.14,0-2.27,0-3.37,0C91.42,67.99,92.81,68.36,93.44,69.3z M65.44,118.64c-1.21,0-2.31,0-3.43,0c-0.38,1.58,0.98,1.98,1.78,2.99
			C64.39,120.5,65.92,120.17,65.44,118.64z M125.06,118.64c-1.2,0-2.3,0-3.45,0c-0.38,1.54,1.01,1.95,1.75,2.91
			C124.12,120.6,125.46,120.17,125.06,118.64z"/>
		<path class="st64" d="M141.94,131.71c0-1.32,0.13-2.67-0.02-3.98c-0.39-3.43-2.41-5.56-5.67-6.54c-2.4-0.72-4.82-1.38-7.18-2.05
			c-0.28-1.46-0.05-2.54,1.1-3.58c1.62-1.45,2.47-3.44,2.43-5.63c-0.04-2.42,0.06-4.93-0.52-7.25c-1.06-4.24-5.51-6.86-9.96-6.3
			c-4.24,0.53-7.8,4.22-8.02,8.47c-0.1,2.06-0.07,4.14,0.14,6.18c0.21,2.09,1.36,3.78,2.89,5.21c1.19,1.11,0.78,2.84-0.76,3.28
			c-1.91,0.55-3.82,1.08-5.73,1.63c-3.83,1.1-5.82,3.66-5.92,7.62c-0.03,1,0,1.99,0,3.32c-2.29-2.77-3.73-5.58-4.62-8.67
			c-3.78-13.16,4.15-27.02,17.88-30.21c5.53-1.28,10.89-0.61,15.98,1.91c0.3,0.15,0.61,0.67,0.58,0.99
			c-0.21,3.08,2.68,6.49,6.87,5.58c0.65-0.14,0.87,0.1,1.17,0.5c3.99,5.34,5.58,11.3,4.7,17.91c-0.55,4.19-2.17,7.93-4.73,11.28
			c-0.09,0.12-0.2,0.23-0.3,0.33C142.24,131.75,142.19,131.73,141.94,131.71z"/>
		<path class="st64" d="M47.47,99.06c1.72,1.05,3.56,1.32,5.45,0.48c2.13-0.94,3.19-2.68,3.34-4.95c0.04-0.67,0.27-0.89,0.86-1.04
			c9.22-2.36,17.27-0.23,23.96,6.49c4.91,4.93,7.05,11.05,6.79,18c-0.02,0.67-0.11,1.35-0.24,2.01c-0.05,0.23-0.31,0.5-0.54,0.58
			c-4.84,1.69-6.09,5.25-3.19,9.49c-0.41,0.55-0.85,1.14-1.28,1.73c-0.09-0.01-0.18-0.02-0.27-0.03c0-0.98,0.02-1.96,0-2.94
			c-0.08-4.03-2.05-6.6-5.93-7.72c-1.98-0.57-3.96-1.14-5.94-1.72c-1.15-0.33-1.69-2.15-0.78-2.95c2.65-2.33,3.48-5.28,3.35-8.7
			c-0.09-2.37,0.01-4.74-1.32-6.86c-2.1-3.34-5.13-4.93-9.02-4.53c-3.71,0.38-6.41,2.45-7.66,5.95c-1.12,3.14-0.95,6.46-0.2,9.66
			c0.3,1.28,1.12,2.6,2.06,3.53c1.08,1.06,1.4,2.12,1.08,3.59c-2.27,0.66-4.6,1.33-6.93,2.01c-3.98,1.15-6.02,3.86-6.04,8.02
			c0,0.83-0.01,1.65-0.02,2.48c0,0.06-0.07,0.11-0.11,0.16C37.3,123.21,37.46,107.75,47.47,99.06z"/>
		<path class="st64" d="M74.85,79.64c-1.65-1.47-3.34-4.59-4.53-8.32c1.72-1.26,2.82-2.92,2.69-5.19c-0.13-2.28-1.42-3.8-3.39-4.86
			c0.85-5.47,3.19-10.14,7.15-13.98c0.19-0.19,0.72-0.29,0.93-0.17c3.61,2.15,8.55-0.55,8.4-5.23c0-0.07,0.04-0.14,0.08-0.3
			c6.06-1.94,11.99-1.51,17.77,1.21c0.34,0.16,0.66,0.37,1,0.51c1.24,0.5,1.81,1.18,1.71,2.74c-0.2,3.3,2.84,5.83,6.13,5.48
			c0.42-0.04,1.07,0.15,1.28,0.46c5.34,7.88,4.68,20.13-1.43,27.41c-0.07,0.08-0.16,0.15-0.36,0.33c-0.06-1.43-0.06-2.75-0.2-4.07
			c-0.35-3.45-2.3-5.61-5.55-6.61c-2.43-0.75-4.88-1.41-7.28-2.1c-0.24-1.39-0.1-2.46,1.01-3.48c1.68-1.55,2.57-3.62,2.52-5.95
			c-0.05-2.31,0.05-4.71-0.5-6.92c-1.11-4.42-5.58-7.02-10.32-6.38c-4.07,0.55-7.55,4.41-7.69,8.64c-0.06,2.02-0.08,4.07,0.14,6.07
			c0.22,2,1.26,3.72,2.8,5c1.01,0.84,0.59,1.84,0.6,2.79c0,0.15-0.5,0.36-0.8,0.45c-2.08,0.61-4.18,1.19-6.26,1.8
			c-3.84,1.13-5.83,3.75-5.92,7.76C74.83,77.67,74.85,78.6,74.85,79.64z"/>
		<path class="st101" d="M63.72,127.05c1.35-1.39,2.5-2.63,3.73-3.78c0.3-0.28,0.95-0.44,1.35-0.34c2.28,0.58,4.55,1.23,6.8,1.91
			c1.97,0.59,2.97,1.91,3,3.98c0.03,2.1,0.04,4.21-0.02,6.31c-0.01,0.4-0.3,0.93-0.63,1.17c-8.23,6.19-20.05,6.23-28.33,0.08
			c-0.4-0.29-0.71-0.95-0.73-1.45c-0.08-2.03-0.04-4.06-0.03-6.08c0.01-2.1,0.95-3.41,2.94-4.01c2.29-0.69,4.59-1.36,6.91-1.94
			c0.4-0.1,1.03,0.12,1.34,0.42C61.27,124.47,62.42,125.71,63.72,127.05z"/>
		<path class="st102" d="M108.32,79.76c0,0.6-0.08,1.22,0.02,1.8c0.25,1.52-0.45,2.39-1.68,3.19c-8.22,5.33-19.08,5.12-26.95-0.54
			c-0.67-0.48-1.02-0.98-0.97-1.85c0.12-2.21,0.08-4.43,0.23-6.63c0.1-1.41,1.02-2.35,2.34-2.76c2.43-0.77,4.89-1.47,7.36-2.12
			c0.33-0.09,0.86,0.17,1.15,0.43c1.05,0.97,2.06,1.98,3.04,3.02c0.5,0.53,0.88,0.53,1.39,0c0.96-1.01,1.98-1.96,2.94-2.96
			c0.46-0.49,0.89-0.65,1.59-0.43c2.11,0.66,4.26,1.22,6.38,1.84c2.19,0.64,3.14,1.9,3.18,4.2
			C108.34,77.88,108.32,78.82,108.32,79.76z"/>
		<path class="st103" d="M123.35,127.04c1.25-1.27,2.43-2.43,3.55-3.62c0.49-0.52,0.93-0.69,1.67-0.46
			c2.17,0.69,4.39,1.25,6.58,1.89c2.07,0.61,3.03,1.89,3.04,4.04c0.01,1.99-0.02,3.98,0.02,5.97c0.01,0.66-0.18,1.08-0.75,1.48
			c-2.54,1.8-5.29,3.09-8.31,3.85c-0.6,0.15-0.86,0.02-1.2-0.44c-2.45-3.36-6.72-3.35-9.18,0.01c-0.33,0.45-0.61,0.58-1.21,0.43
			c-3.1-0.78-5.92-2.11-8.47-4c-0.25-0.18-0.57-0.49-0.57-0.74c-0.01-2.44-0.05-4.88,0.09-7.32c0.1-1.79,1.3-2.8,2.95-3.28
			c2.22-0.65,4.47-1.23,6.69-1.91c0.65-0.2,1.04-0.05,1.48,0.4C120.87,124.55,122.07,125.73,123.35,127.04z"/>
		<path class="st104" d="M129.01,107.48c-0.09,1.01-0.09,2.03-0.28,3.02c-0.52,2.74-2.89,4.47-5.84,4.34
			c-2.52-0.11-4.74-2.2-4.96-4.81c-0.13-1.56-0.06-3.14-0.06-4.72c0-2.44,2.07-5.22,5.56-5.21c3.03,0.01,5.32,2.38,5.49,5.57
			c0.03,0.6,0,1.2,0,1.8C128.95,107.48,128.98,107.48,129.01,107.48z"/>
		<path class="st104" d="M58.07,107.38c0.09-0.97,0.1-1.95,0.28-2.9c0.49-2.58,2.93-4.49,5.5-4.39c2.8,0.12,5.07,2.13,5.3,4.86
			c0.13,1.56,0.18,3.16,0.04,4.71c-0.3,3.33-2.61,5.3-5.87,5.18c-2.78-0.1-4.99-2.46-5.15-5.54c-0.03-0.64,0-1.28,0-1.91
			C58.12,107.38,58.09,107.38,58.07,107.38z"/>
		<path class="st104" d="M99.17,55.27c-0.07,0.94-0.09,1.88-0.23,2.8c-0.38,2.65-2.72,4.63-5.41,4.63c-2.69,0-5.11-1.96-5.39-4.62
			c-0.19-1.81-0.19-3.68-0.01-5.49c0.27-2.71,2.77-4.75,5.44-4.71c2.67,0.04,4.99,2.05,5.37,4.7C99.08,53.46,99.1,54.36,99.17,55.27
			z"/>
		<path class="st105" d="M123.31,144.62c-0.96-0.02-1.72-0.78-1.73-1.72c-0.01-0.92,0.92-1.82,1.83-1.79
			c0.98,0.04,1.73,0.88,1.69,1.89C125.05,143.96,124.3,144.64,123.31,144.62z"/>
		<path class="st105" d="M87.91,124.38c0.97-0.02,1.72,0.68,1.76,1.65c0.04,1.02-0.7,1.84-1.69,1.87c-0.92,0.02-1.83-0.88-1.82-1.79
			C86.18,125.18,86.97,124.4,87.91,124.38z"/>
		<path class="st105" d="M95.29,142.95c-0.03,0.99-0.84,1.72-1.86,1.68c-0.95-0.04-1.68-0.83-1.65-1.77
			c0.03-0.91,0.85-1.73,1.75-1.73C94.47,141.11,95.32,141.99,95.29,142.95z"/>
		<g>
			<path class="st106" d="M145.77,40.31c-0.85,0.03-1.76-0.81-1.83-1.68c-0.07-0.95,0.74-1.8,1.73-1.83c1-0.02,1.73,0.65,1.77,1.62
				C147.49,39.44,146.75,40.27,145.77,40.31z"/>
			<path class="st106" d="M140.11,94.58c0.98-0.01,1.71,0.68,1.74,1.65c0.03,0.99-0.75,1.85-1.7,1.87
				c-0.92,0.01-1.79-0.88-1.77-1.83C138.41,95.31,139.14,94.59,140.11,94.58z"/>
			<path class="st106" d="M130.72,72.02c0.03,0.91-0.73,1.73-1.66,1.77c-1.04,0.05-1.82-0.66-1.85-1.67
				c-0.02-0.95,0.69-1.74,1.63-1.8C129.78,70.26,130.69,71.08,130.72,72.02z"/>
			<path class="st106" d="M147.45,59.07c-0.02,0.96-0.76,1.72-1.71,1.73c-0.92,0.01-1.84-0.91-1.81-1.81
				c0.03-0.96,0.88-1.72,1.89-1.68C146.79,57.35,147.47,58.07,147.45,59.07z"/>
			<path class="st106" d="M112.18,44.25c0.97,0,1.72,0.73,1.75,1.68c0.03,0.93-0.85,1.84-1.76,1.84c-0.96-0.01-1.74-0.85-1.72-1.85
				C110.48,44.94,111.21,44.24,112.18,44.25z"/>
		</g>
		<g>
			<path class="st107" d="M82.22,42.26c0,0.98-0.7,1.7-1.68,1.71c-1.01,0.02-1.84-0.77-1.83-1.74c0.01-0.87,0.86-1.74,1.74-1.77
				C81.41,40.44,82.22,41.25,82.22,42.26z"/>
			<path class="st107" d="M56.29,36.8c0.96,0.01,1.73,0.77,1.75,1.7c0.02,0.91-0.91,1.83-1.81,1.81c-0.98-0.02-1.74-0.86-1.7-1.87
				C54.56,37.47,55.3,36.78,56.29,36.8z"/>
			<path class="st107" d="M41.37,60.79c-0.94,0.02-1.71-0.72-1.74-1.68c-0.04-1.04,0.67-1.79,1.7-1.8c0.95-0.01,1.75,0.72,1.81,1.64
				C43.19,59.85,42.3,60.77,41.37,60.79z"/>
			<path class="st107" d="M52.41,94.47c-0.02,0.99-0.82,1.74-1.84,1.69c-0.93-0.04-1.7-0.85-1.68-1.76
				c0.02-0.97,0.86-1.73,1.86-1.69C51.72,92.76,52.43,93.51,52.41,94.47z"/>
			<path class="st107" d="M67.46,64.76c0.98,0.01,1.69,0.71,1.71,1.68c0.02,1-0.77,1.83-1.74,1.82c-0.9-0.01-1.72-0.83-1.75-1.74
				C65.65,65.54,66.45,64.75,67.46,64.76z"/>
		</g>
		<path class="st104" d="M93.44,69.3c-0.63-0.94-2.02-1.31-1.63-2.84c1.11,0,2.24,0,3.37,0C95.43,67.67,95.34,67.82,93.44,69.3z"/>
		<path class="st104" d="M65.44,118.64c0.48,1.54-1.05,1.87-1.66,2.99c-0.8-1-2.16-1.41-1.78-2.99
			C63.13,118.64,64.23,118.64,65.44,118.64z"/>
		<path class="st104" d="M125.06,118.64c0.39,1.54-0.95,1.96-1.7,2.91c-0.74-0.96-2.13-1.37-1.75-2.91
			C122.76,118.64,123.87,118.64,125.06,118.64z"/>
	</g>
</g>
</svg>
