<svg width="146" height="149" viewBox="0 0 146 149" fill="none" xmlns="http://www.w3.org/2000/svg">
<g opacity="0.75">
<path opacity="0.75" d="M140.48 1.25H1.70001V143.73H140.48V1.25Z" fill="#004543" stroke="#004543" stroke-width="2" stroke-miterlimit="10"/>
</g>
<path d="M144.48 5.25H5.70001V147.73H144.48V5.25Z" fill="white" stroke="#388D99" stroke-width="2" stroke-miterlimit="10"/>
<path d="M36.5 18.7C37.33 18.7 38.16 18.7 38.98 18.7C41.02 19.43 42.57 20.6499 43.25 22.8199C43.33 23.0599 43.78 23.29 44.09 23.34C48.16 24 52.24 24.64 56.33 25.22C56.73 25.28 57.35 25 57.61 24.67C59.53 22.27 62.77 21.7 65.24 23.47C65.81 23.88 66.26 23.91 66.88 23.71C69.87 22.75 72.95 22.35 76.09 22.46C81.08 22.63 85.67 24.09 89.92 26.71C90.24 26.91 90.85 26.91 91.2 26.75C93.72 25.62 96.25 26.1901 98.11 28.3101C98.35 28.5901 98.93 28.77 99.3 28.71C100.78 28.45 102.23 28.08 103.69 27.75C109.39 26.45 115.09 25.16 120.79 23.85C121.15 23.77 121.72 23.55 121.77 23.3C122.28 20.86 123.91 19.54 126.1 18.71C126.93 18.71 127.76 18.71 128.58 18.71C130.65 19.5 132.08 20.93 132.87 23C132.87 23.83 132.87 24.66 132.87 25.48C132.17 27.37 131.06 28.9001 128.83 29.6801C128.83 32.7201 128.82 35.79 128.85 38.86C128.85 39.09 129.03 39.47 129.22 39.54C131.1 40.28 132.16 41.74 132.88 43.53C132.88 44.36 132.88 45.19 132.88 46.01C132.83 46.06 132.75 46.1 132.72 46.16C131.25 49.97 128.68 51.12 124.76 49.77C124.46 49.67 123.95 49.8 123.68 50C121.25 51.84 118.84 53.7 116.47 55.61C116.17 55.85 115.95 56.4401 116.01 56.8101C116.31 58.4401 115.93 59.9 114.95 61.16C114.48 61.75 114.56 62.18 114.83 62.77C116.81 67.02 118.78 71.28 120.73 75.55C121.02 76.19 121.33 76.49 122.12 76.52C125.75 76.68 128.28 80.59 126.9 83.92C126.57 84.72 126.72 85.2001 127.2 85.8101C129.18 88.3501 130.68 91.16 131.56 94.27C132.09 96.14 132.44 98.0499 132.88 99.95C132.88 101.76 132.88 103.56 132.88 105.37C132.81 105.53 132.69 105.69 132.67 105.86C131.06 117.75 122.85 126.91 111.28 129.72C110.62 129.88 110.31 130.2 110.05 130.81C109.19 132.84 107.62 134.04 105.41 134.22C103.1 134.41 101.29 133.47 100.15 131.45C99.75 130.75 99.33 130.55 98.57 130.55C92.89 130.58 87.21 130.58 81.53 130.55C80.72 130.54 80.29 130.76 79.87 131.5C78.29 134.26 74.84 135.08 72.15 133.41C69.51 131.77 68.55 128.18 70.46 125.77C71.58 124.35 71.42 123.26 70.86 121.86C70.4 120.71 70.08 119.51 69.68 118.34C69.58 118.04 69.42 117.77 69.19 117.26C68.78 117.8 68.5 118.17 68.22 118.54C61.14 127.87 51.84 131.95 40.22 130.03C32.68 128.78 26.67 124.77 22.34 118.49C17.57 111.57 16.19 103.93 18.21 95.73C19.51 90.48 22.22 86.0601 26.09 82.3101C26.44 81.9801 26.75 81.36 26.7 80.91C26.49 79.05 27.04 77.47 28.38 76.23C28.95 75.7 29.02 75.27 28.84 74.59C26.78 66.84 24.74 59.0701 22.71 51.3101C22.55 50.7001 22.32 50.36 21.59 50.17C17.86 49.23 16.16 45.1 18.17 41.88C19.64 39.51 21.87 38.86 24.53 39.38C27.31 35.56 30.08 31.7699 32.81 27.9399C33 27.6799 32.95 27.1 32.8 26.77C31.48 23.86 32.61 20.6 35.45 19.22C35.79 19.06 36.15 18.88 36.5 18.7ZM117.34 77.51C117.29 77.2 117.3 77.0501 117.24 76.9301C115.25 72.6001 113.26 68.27 111.22 63.97C111.08 63.68 110.55 63.45 110.18 63.42C107.75 63.21 106.12 61.95 105.26 59.72C104.45 57.62 105.03 55.27 106.73 53.75C108.49 52.19 110.5 51.8 112.68 52.77C113.27 53.03 113.68 53.03 114.2 52.61C116.52 50.76 118.88 48.96 121.22 47.13C122.23 46.34 122 44.77 120.8 44.3C113.88 41.61 106.96 38.92 100.03 36.24C99.79 36.15 99.53 36.11 99.14 36.02C107.98 51.47 100.74 68.44 88.36 74.99C82.02 78.35 75.3 79.33 68.39 77.5C58.01 74.75 51.33 67.9499 48 57.5699C44.3 63.7299 40.73 69.69 37.02 75.87C41.81 74.42 46.4 74.2099 50.98 75.1899C65.89 78.3899 75.12 92.56 72.9 106.52C72.84 106.92 73.02 107.5 73.3 107.79C75.62 110.22 75.69 113.28 73.49 115.78C73.25 116.05 73.09 116.6 73.19 116.93C73.74 118.76 74.34 120.58 75.01 122.37C75.13 122.7 75.58 123.07 75.92 123.13C77.8 123.47 79.19 124.46 80.02 126.14C80.32 126.74 80.69 126.82 81.25 126.81C84.11 126.79 86.97 126.8 89.82 126.8C90.09 126.8 90.36 126.75 90.76 126.72C77.77 118.74 73.98 103.64 79.18 91.58C81.75 85.62 85.91 80.99 91.66 77.96C100.06 73.55 108.63 73.56 117.34 77.51ZM123.5 117.48C123.75 117.5 123.81 117.52 123.82 117.5C123.92 117.39 124.03 117.28 124.12 117.17C126.68 113.83 128.3 110.08 128.85 105.89C129.73 99.28 128.14 93.31 124.15 87.98C123.85 87.58 123.63 87.34 122.98 87.48C118.79 88.39 115.9 84.98 116.11 81.9C116.13 81.57 115.82 81.05 115.53 80.91C110.43 78.39 105.07 77.72 99.55 79C85.82 82.18 77.89 96.05 81.67 109.21C82.56 112.3 84 115.11 86.29 117.88C86.29 116.55 86.27 115.55 86.29 114.56C86.39 110.59 88.38 108.04 92.21 106.94C94.12 106.39 96.03 105.85 97.94 105.31C99.48 104.87 99.89 103.15 98.7 102.03C97.17 100.6 96.02 98.9099 95.81 96.8199C95.6 94.7699 95.57 92.69 95.67 90.64C95.88 86.39 99.45 82.7 103.69 82.17C108.14 81.61 112.59 84.23 113.65 88.47C114.23 90.79 114.13 93.29 114.17 95.72C114.21 97.92 113.35 99.9 111.74 101.35C110.59 102.38 110.36 103.47 110.64 104.93C113 105.6 115.42 106.26 117.82 106.98C121.08 107.96 123.1 110.08 123.49 113.52C123.62 114.82 123.5 116.17 123.5 117.48ZM29.03 84.83C19.02 93.53 18.86 108.99 26.46 117.58C26.5 117.53 26.57 117.47 26.57 117.42C26.58 116.59 26.59 115.77 26.59 114.94C26.61 110.78 28.65 108.07 32.63 106.92C34.96 106.25 37.29 105.57 39.56 104.91C39.87 103.43 39.56 102.38 38.48 101.32C37.54 100.39 36.72 99.07 36.42 97.79C35.66 94.59 35.5 91.26 36.62 88.13C37.87 84.63 40.57 82.5701 44.28 82.1801C48.17 81.7801 51.21 83.36 53.3 86.71C54.63 88.84 54.53 91.1999 54.62 93.5699C54.75 96.9899 53.92 99.93 51.27 102.27C50.36 103.07 50.9 104.89 52.05 105.22C54.03 105.79 56.01 106.36 57.99 106.94C61.86 108.06 63.84 110.63 63.92 114.66C63.94 115.64 63.92 116.62 63.92 117.6C64.01 117.61 64.1 117.62 64.19 117.63C64.63 117.04 65.06 116.46 65.47 115.9C62.57 111.66 63.82 108.1 68.66 106.41C68.89 106.33 69.15 106.05 69.2 105.83C69.34 105.17 69.42 104.49 69.44 103.82C69.7 96.8699 67.56 90.7499 62.65 85.8199C55.95 79.0999 47.9 76.97 38.69 79.33C38.1 79.48 37.87 79.7 37.83 80.37C37.69 82.64 36.62 84.3799 34.49 85.3199C32.59 86.1499 30.75 85.88 29.03 84.83ZM56.41 65.41C56.41 64.37 56.39 63.45 56.41 62.53C56.49 58.52 58.49 55.9 62.33 54.77C64.41 54.16 66.51 53.58 68.59 52.97C68.89 52.88 69.39 52.67 69.39 52.52C69.38 51.56 69.8 50.57 68.79 49.73C67.25 48.45 66.21 46.73 65.99 44.73C65.77 42.72 65.78 40.68 65.85 38.66C65.98 34.43 69.47 30.56 73.54 30.02C78.28 29.38 82.75 31.98 83.86 36.4C84.41 38.61 84.31 40.9999 84.36 43.3199C84.42 45.6499 83.52 47.72 81.84 49.27C80.72 50.3 80.59 51.36 80.83 52.75C83.23 53.44 85.69 54.1 88.11 54.85C91.37 55.85 93.31 58.02 93.66 61.46C93.79 62.77 93.79 64.1 93.86 65.53C94.06 65.35 94.15 65.28 94.22 65.2C100.33 57.92 100.99 45.67 95.65 37.79C95.44 37.48 94.78 37.29 94.37 37.33C91.08 37.68 88.04 35.15 88.24 31.85C88.33 30.29 87.76 29.62 86.53 29.11C86.18 28.97 85.87 28.76 85.53 28.6C79.75 25.88 73.82 25.44 67.76 27.39C67.72 27.55 67.68 27.6199 67.68 27.6899C67.83 32.3699 62.89 35.07 59.28 32.92C59.07 32.79 58.54 32.9 58.35 33.09C54.39 36.93 52.05 41.5999 51.2 47.0699C53.17 48.1299 54.45 49.6401 54.59 51.9301C54.72 54.2001 53.62 55.86 51.9 57.12C53.07 60.82 54.76 63.94 56.41 65.41ZM45.28 112.83C43.97 111.48 42.83 110.24 41.6 109.09C41.29 108.79 40.65 108.57 40.26 108.67C37.94 109.26 35.64 109.93 33.35 110.61C31.37 111.2 30.42 112.52 30.41 114.62C30.4 116.65 30.36 118.68 30.44 120.7C30.46 121.2 30.77 121.86 31.17 122.15C39.45 128.3 51.27 128.26 59.5 122.07C59.83 121.82 60.12 121.3 60.13 120.9C60.19 118.8 60.18 116.69 60.15 114.59C60.12 112.52 59.13 111.2 57.15 110.61C54.89 109.94 52.63 109.28 50.35 108.7C49.94 108.6 49.3 108.76 49 109.04C47.78 110.19 46.64 111.44 45.28 112.83ZM89.88 65.54C89.88 64.6 89.9 63.66 89.88 62.72C89.84 60.42 88.89 59.16 86.7 58.52C84.58 57.9 82.43 57.3401 80.32 56.6801C79.63 56.4601 79.2 56.63 78.73 57.11C77.77 58.12 76.75 59.0599 75.79 60.0699C75.29 60.5999 74.91 60.5999 74.4 60.0699C73.42 59.0299 72.41 58.0201 71.36 57.05C71.07 56.7901 70.54 56.53 70.21 56.62C67.74 57.27 65.29 57.98 62.85 58.74C61.54 59.15 60.61 60.09 60.51 61.5C60.36 63.71 60.39 65.92 60.28 68.13C60.23 69 60.58 69.5 61.25 69.98C69.13 75.65 79.98 75.85 88.2 70.52C89.43 69.72 90.14 68.85 89.88 67.33C89.8 66.75 89.88 66.14 89.88 65.54ZM104.91 112.81C103.62 111.51 102.43 110.33 101.27 109.11C100.84 108.65 100.44 108.51 99.79 108.71C97.57 109.39 95.33 109.97 93.1 110.62C91.46 111.1 90.25 112.12 90.15 113.9C90.02 116.33 90.05 118.78 90.06 121.22C90.06 121.47 90.39 121.77 90.63 121.95C93.19 123.85 96.01 125.18 99.1 125.96C99.7 126.11 99.98 125.98 100.31 125.53C102.78 122.17 107.05 122.16 109.49 125.52C109.82 125.98 110.09 126.11 110.69 125.96C113.71 125.2 116.46 123.91 119 122.11C119.57 121.71 119.76 121.3 119.75 120.63C119.71 118.64 119.74 116.65 119.73 114.66C119.72 112.51 118.77 111.23 116.69 110.62C114.5 109.98 112.29 109.42 110.11 108.73C109.37 108.5 108.94 108.66 108.44 109.19C107.34 110.38 106.17 111.53 104.91 112.81ZM32.83 75.05C33.31 74.49 33.63 74.19 33.85 73.83C37.18 68.3 40.48 62.75 43.84 57.24C44.41 56.3 44.79 55.5301 43.97 54.5601C43.72 54.2701 43.57 53.8 43.57 53.41C43.57 52.73 43.2 52.52 42.65 52.37C37.86 51.01 33.07 49.64 28.27 48.28C27.16 47.97 26.02 49.11 26.32 50.23C27.65 55.3 28.98 60.38 30.32 65.45C31.11 68.52 31.92 71.59 32.83 75.05ZM100.58 32.3199C101.03 32.5199 101.29 32.65 101.56 32.76C108.37 35.42 115.19 38.07 122 40.73C123.37 41.26 125.04 40.16 125.09 38.65C125.16 36.24 125.16 33.8401 125.25 31.4301C125.3 30.2601 125.34 29.19 123.93 28.73C123.64 28.63 123.34 28.3401 123.19 28.0601C122.77 27.2901 122.15 27.38 121.47 27.54C119.24 28.06 117.01 28.57 114.78 29.08C110.11 30.14 105.45 31.2099 100.58 32.3199ZM36.37 29.78C36.26 29.88 35.95 30.1 35.73 30.39C33.51 33.42 31.33 36.48 29.08 39.48C28.16 40.7 27.19 41.82 28.3 43.4C28.34 43.46 28.35 43.55 28.34 43.62C28.31 44.28 28.71 44.5 29.28 44.66C34.04 46 38.79 47.36 43.55 48.73C44.06 48.88 44.63 49.14 44.9 48.47C45.05 48.09 45.08 47.5599 44.93 47.1899C42.81 41.7799 40.62 36.4 38.52 30.98C38.14 30.04 37.55 29.77 36.37 29.78ZM110.57 93.25C110.54 93.25 110.51 93.25 110.49 93.24C110.49 92.64 110.52 92.0399 110.49 91.4399C110.32 88.2499 108.03 85.87 105 85.87C101.51 85.86 99.44 88.64 99.44 91.08C99.44 92.65 99.37 94.23 99.5 95.8C99.72 98.41 101.94 100.5 104.46 100.61C107.41 100.74 109.78 99.01 110.3 96.27C110.48 95.28 110.48 94.26 110.57 93.25ZM39.63 93.15C39.66 93.15 39.68 93.15 39.71 93.16C39.71 93.8 39.68 94.4399 39.71 95.0699C39.87 98.1399 42.08 100.51 44.86 100.61C48.12 100.73 50.43 98.7601 50.73 95.4301C50.87 93.8701 50.82 92.28 50.69 90.72C50.46 87.99 48.19 85.97 45.39 85.86C42.82 85.75 40.38 87.66 39.89 90.25C39.72 91.2 39.71 92.18 39.63 93.15ZM80.73 41.04C80.66 40.14 80.64 39.24 80.51 38.35C80.13 35.7 77.81 33.69 75.14 33.65C72.47 33.61 69.97 35.65 69.7 38.36C69.52 40.17 69.52 42.04 69.71 43.85C69.99 46.51 72.41 48.47 75.1 48.47C77.79 48.47 80.12 46.49 80.51 43.84C80.64 42.91 80.66 41.97 80.73 41.04ZM47.9 44.1899C49.33 38.1599 52.37 33.35 56.7 29.34C56.49 29.18 56.44 29.1 56.38 29.09C52.05 28.41 47.72 27.7101 43.39 27.0601C42.37 26.9101 41.44 28.24 41.83 29.22C43.7 33.92 45.58 38.61 47.46 43.3C47.55 43.53 47.68 43.7499 47.9 44.1899ZM127.33 26.08C128.31 26.04 129.05 25.2099 129 24.1899C128.96 23.2199 128.23 22.5499 127.23 22.5699C126.24 22.5899 125.42 23.45 125.5 24.4C125.57 25.27 126.49 26.12 127.33 26.08ZM63.78 28.03C63.78 27.02 62.97 26.21 62.01 26.24C61.13 26.27 60.28 27.13 60.27 28.01C60.26 28.98 61.09 29.76 62.1 29.75C63.08 29.73 63.78 29.02 63.78 28.03ZM104.87 130.39C105.86 130.41 106.61 129.73 106.65 128.77C106.7 127.76 105.94 126.92 104.96 126.88C104.05 126.85 103.13 127.75 103.13 128.67C103.15 129.61 103.91 130.37 104.87 130.39ZM37.85 22.5699C36.86 22.5599 36.12 23.24 36.09 24.21C36.05 25.22 36.81 26.06 37.79 26.08C38.7 26.1 39.62 25.18 39.6 24.27C39.59 23.34 38.81 22.5899 37.85 22.5699ZM69.47 110.16C68.53 110.18 67.74 110.96 67.72 111.88C67.7 112.79 68.62 113.7 69.54 113.67C70.52 113.64 71.27 112.83 71.23 111.8C71.19 110.84 70.44 110.14 69.47 110.16ZM76.85 128.72C76.88 127.77 76.03 126.89 75.09 126.89C74.2 126.89 73.37 127.71 73.34 128.62C73.31 129.57 74.04 130.35 74.99 130.39C76.02 130.44 76.83 129.71 76.85 128.72ZM121.67 80.35C120.7 80.36 119.96 81.08 119.94 82.04C119.92 82.98 120.79 83.88 121.71 83.87C122.66 83.86 123.45 82.99 123.41 82C123.38 81.03 122.66 80.34 121.67 80.35ZM112.28 57.79C112.25 56.85 111.34 56.03 110.4 56.09C109.46 56.15 108.74 56.94 108.77 57.89C108.8 58.9 109.58 59.6001 110.62 59.5601C111.55 59.5201 112.31 58.7 112.28 57.79ZM129.01 44.84C129.03 43.85 128.35 43.12 127.38 43.08C126.37 43.04 125.52 43.79 125.49 44.76C125.46 45.66 126.38 46.5799 127.3 46.5699C128.24 46.5599 128.99 45.8 129.01 44.84ZM22.93 46.5601C23.86 46.5401 24.75 45.62 24.69 44.72C24.63 43.8 23.83 43.07 22.88 43.08C21.86 43.09 21.14 43.84 21.18 44.88C21.22 45.84 21.99 46.5801 22.93 46.5601ZM93.74 30.02C92.76 30.02 92.04 30.7199 92.01 31.6899C91.98 32.6899 92.77 33.53 93.73 33.54C94.65 33.55 95.52 32.63 95.49 31.7C95.47 30.75 94.71 30.02 93.74 30.02ZM33.97 80.24C33.99 79.28 33.27 78.53 32.31 78.48C31.32 78.44 30.48 79.2 30.45 80.17C30.43 81.08 31.2 81.8901 32.13 81.9301C33.15 81.9801 33.96 81.24 33.97 80.24ZM49.02 50.53C48.01 50.52 47.21 51.31 47.24 52.29C47.27 53.2 48.09 54.02 48.99 54.03C49.96 54.04 50.75 53.22 50.73 52.21C50.71 51.24 50 50.54 49.02 50.53ZM75 55.0699C76.9 53.5899 76.99 53.44 76.74 52.23C75.6 52.23 74.47 52.23 73.37 52.23C72.98 53.76 74.37 54.1299 75 55.0699ZM47 104.41C45.79 104.41 44.69 104.41 43.57 104.41C43.19 105.99 44.55 106.39 45.35 107.4C45.95 106.28 47.48 105.94 47 104.41ZM106.62 104.41C105.42 104.41 104.32 104.41 103.17 104.41C102.79 105.95 104.18 106.36 104.92 107.32C105.68 106.37 107.02 105.95 106.62 104.41Z" fill="#00423C"/>
<path d="M123.5 117.48C123.5 116.16 123.63 114.81 123.48 113.5C123.09 110.07 121.07 107.94 117.81 106.96C115.41 106.24 112.99 105.58 110.63 104.91C110.35 103.45 110.58 102.37 111.73 101.33C113.35 99.88 114.2 97.89 114.16 95.7C114.12 93.28 114.22 90.77 113.64 88.45C112.58 84.21 108.13 81.5901 103.68 82.1501C99.44 82.6801 95.88 86.3701 95.66 90.6201C95.56 92.6801 95.59 94.7601 95.8 96.8001C96.01 98.8901 97.16 100.58 98.69 102.01C99.88 103.12 99.47 104.85 97.93 105.29C96.02 105.84 94.11 106.37 92.2 106.92C88.37 108.02 86.38 110.58 86.28 114.54C86.25 115.54 86.28 116.53 86.28 117.86C83.99 115.09 82.55 112.28 81.66 109.19C77.88 96.03 85.81 82.17 99.54 78.98C105.07 77.7 110.43 78.3701 115.52 80.8901C115.82 81.0401 116.13 81.5601 116.1 81.8801C115.89 84.9601 118.78 88.37 122.97 87.46C123.62 87.32 123.84 87.56 124.14 87.96C128.13 93.29 129.72 99.2601 128.84 105.87C128.29 110.06 126.67 113.8 124.11 117.15C124.02 117.27 123.91 117.38 123.81 117.48C123.8 117.52 123.75 117.5 123.5 117.48Z" fill="white"/>
<path d="M29.03 84.83C30.75 85.88 32.59 86.1501 34.48 85.3101C36.61 84.3701 37.67 82.63 37.82 80.36C37.86 79.69 38.09 79.47 38.68 79.32C47.9 76.96 55.95 79.0901 62.64 85.8101C67.55 90.7401 69.69 96.8601 69.43 103.81C69.41 104.48 69.32 105.16 69.19 105.82C69.14 106.05 68.88 106.32 68.65 106.4C63.81 108.09 62.56 111.65 65.46 115.89C65.05 116.44 64.61 117.03 64.18 117.62C64.09 117.61 64 117.6 63.91 117.59C63.91 116.61 63.93 115.63 63.91 114.65C63.83 110.62 61.86 108.05 57.98 106.93C56 106.36 54.02 105.79 52.04 105.21C50.89 104.88 50.35 103.06 51.26 102.26C53.91 99.93 54.74 96.9801 54.61 93.5601C54.52 91.1901 54.62 88.82 53.29 86.7C51.19 83.36 48.16 81.7701 44.27 82.1701C40.56 82.5501 37.86 84.62 36.61 88.12C35.49 91.26 35.66 94.5801 36.41 97.7801C36.71 99.0601 37.53 100.38 38.47 101.31C39.55 102.37 39.87 103.43 39.55 104.9C37.28 105.56 34.95 106.23 32.62 106.91C28.64 108.06 26.6 110.77 26.58 114.93C26.58 115.76 26.57 116.58 26.56 117.41C26.56 117.47 26.49 117.52 26.45 117.57C18.86 108.98 19.02 93.53 29.03 84.83Z" fill="white"/>
<path d="M56.41 65.4101C54.76 63.9401 53.07 60.82 51.88 57.09C53.6 55.83 54.7 54.1701 54.57 51.9001C54.44 49.6201 53.15 48.1001 51.18 47.0401C52.03 41.5701 54.37 36.9001 58.33 33.0601C58.52 32.8701 59.05 32.7701 59.26 32.8901C62.87 35.0401 67.81 32.3401 67.66 27.6601C67.66 27.5901 67.7 27.52 67.74 27.36C73.8 25.42 79.73 25.85 85.51 28.57C85.85 28.73 86.17 28.94 86.51 29.08C87.75 29.58 88.32 30.26 88.22 31.82C88.02 35.12 91.06 37.6501 94.35 37.3001C94.77 37.2601 95.42 37.45 95.63 37.76C100.97 45.64 100.31 57.8901 94.2 65.1701C94.13 65.2501 94.04 65.32 93.84 65.5C93.78 64.07 93.78 62.7501 93.64 61.4301C93.29 57.9801 91.34 55.82 88.09 54.82C85.66 54.07 83.21 53.41 80.81 52.72C80.57 51.33 80.71 50.26 81.82 49.24C83.5 47.69 84.39 45.6201 84.34 43.2901C84.29 40.9801 84.39 38.58 83.84 36.37C82.73 31.95 78.26 29.35 73.52 29.99C69.45 30.54 65.97 34.4 65.83 38.63C65.77 40.65 65.75 42.7 65.97 44.7C66.19 46.7 67.23 48.42 68.77 49.7C69.78 50.54 69.36 51.54 69.37 52.49C69.37 52.64 68.87 52.85 68.57 52.94C66.49 53.55 64.39 54.13 62.31 54.74C58.47 55.87 56.48 58.49 56.39 62.5C56.39 63.45 56.41 64.3701 56.41 65.4101Z" fill="white"/>
<path d="M45.28 112.83C46.63 111.44 47.78 110.2 49.01 109.05C49.31 108.77 49.96 108.61 50.36 108.71C52.64 109.29 54.91 109.94 57.16 110.62C59.13 111.21 60.13 112.53 60.16 114.6C60.19 116.7 60.2 118.81 60.14 120.91C60.13 121.31 59.84 121.84 59.51 122.08C51.28 128.27 39.46 128.31 31.18 122.16C30.78 121.87 30.47 121.21 30.45 120.71C30.37 118.68 30.41 116.65 30.42 114.63C30.43 112.53 31.37 111.22 33.36 110.62C35.65 109.93 37.95 109.26 40.27 108.68C40.67 108.58 41.3 108.8 41.61 109.1C42.83 110.24 43.98 111.48 45.28 112.83Z" fill="#92C3CD"/>
<path d="M89.88 65.54C89.88 66.14 89.8 66.7599 89.9 67.3399C90.15 68.8599 89.45 69.73 88.22 70.53C80 75.86 69.14 75.65 61.27 69.99C60.6 69.51 60.25 69.01 60.3 68.14C60.42 65.93 60.38 63.71 60.53 61.51C60.63 60.1 61.55 59.16 62.87 58.75C65.3 57.98 67.76 57.28 70.23 56.63C70.56 56.54 71.09 56.8 71.38 57.06C72.43 58.03 73.44 59.0399 74.42 60.0799C74.92 60.6099 75.3 60.6099 75.81 60.0799C76.77 59.0699 77.79 58.12 78.75 57.12C79.21 56.63 79.64 56.4699 80.34 56.6899C82.45 57.3499 84.6 57.91 86.72 58.53C88.91 59.17 89.86 60.4299 89.9 62.7299C89.9 63.6599 89.88 64.6 89.88 65.54Z" fill="#0A5D58"/>
<path d="M104.91 112.81C106.16 111.54 107.34 110.38 108.46 109.19C108.95 108.67 109.39 108.5 110.13 108.73C112.3 109.42 114.52 109.98 116.71 110.62C118.78 111.23 119.74 112.51 119.75 114.66C119.76 116.65 119.73 118.64 119.77 120.63C119.78 121.29 119.59 121.71 119.02 122.11C116.48 123.91 113.73 125.2 110.71 125.96C110.11 126.11 109.85 125.98 109.51 125.52C107.06 122.16 102.79 122.17 100.33 125.53C100 125.98 99.72 126.11 99.12 125.96C96.02 125.18 93.2 123.85 90.65 121.95C90.4 121.77 90.08 121.46 90.08 121.22C90.07 118.78 90.03 116.34 90.17 113.9C90.27 112.11 91.47 111.1 93.12 110.62C95.34 109.97 97.59 109.39 99.81 108.71C100.46 108.51 100.85 108.66 101.29 109.11C102.43 110.32 103.63 111.51 104.91 112.81Z" fill="#388D99"/>
<path d="M110.57 93.25C110.48 94.26 110.48 95.28 110.29 96.27C109.77 99.01 107.4 100.74 104.45 100.61C101.93 100.5 99.71 98.4101 99.49 95.8001C99.36 94.2401 99.43 92.66 99.43 91.08C99.43 88.64 101.5 85.86 104.99 85.87C108.02 85.88 110.31 88.25 110.48 91.44C110.51 92.04 110.48 92.64 110.48 93.24C110.51 93.25 110.54 93.25 110.57 93.25Z" fill="#CEE4EA"/>
<path d="M39.63 93.15C39.72 92.18 39.73 91.2 39.91 90.25C40.4 87.67 42.84 85.76 45.41 85.86C48.21 85.98 50.48 87.9899 50.71 90.7199C50.84 92.2799 50.89 93.88 50.75 95.43C50.45 98.76 48.14 100.73 44.88 100.61C42.1 100.51 39.89 98.1499 39.73 95.0699C39.7 94.4299 39.73 93.79 39.73 93.16C39.68 93.16 39.65 93.15 39.63 93.15Z" fill="#CEE4EA"/>
<path d="M80.73 41.04C80.66 41.98 80.64 42.9199 80.5 43.8399C80.12 46.4899 77.78 48.4699 75.09 48.4699C72.4 48.4699 69.98 46.5099 69.7 43.8499C69.51 42.0399 69.51 40.17 69.69 38.36C69.96 35.65 72.46 33.61 75.13 33.65C77.8 33.69 80.12 35.6999 80.5 38.3499C80.64 39.2299 80.66 40.14 80.73 41.04Z" fill="#CEE4EA"/>
<path d="M127.33 26.0799C126.48 26.1099 125.57 25.27 125.5 24.4C125.43 23.45 126.24 22.5999 127.23 22.5699C128.23 22.5499 128.96 23.2199 129 24.1899C129.05 25.2099 128.31 26.0499 127.33 26.0799Z" fill="#92C3CD"/>
<path d="M63.78 28.03C63.78 29.01 63.08 29.73 62.1 29.74C61.09 29.76 60.26 28.97 60.27 28C60.28 27.13 61.13 26.26 62.01 26.23C62.97 26.21 63.78 27.02 63.78 28.03Z" fill="#0A5D58"/>
<path d="M104.87 130.39C103.91 130.37 103.15 129.61 103.14 128.67C103.13 127.75 104.06 126.85 104.97 126.88C105.95 126.92 106.7 127.76 106.66 128.77C106.61 129.73 105.86 130.42 104.87 130.39Z" fill="#388D99"/>
<path d="M37.85 22.5699C38.81 22.5799 39.58 23.34 39.6 24.27C39.62 25.18 38.69 26.0999 37.79 26.0799C36.81 26.0599 36.05 25.2199 36.09 24.2099C36.12 23.2399 36.86 22.5599 37.85 22.5699Z" fill="#0A5D58"/>
<path d="M69.47 110.16C70.44 110.14 71.19 110.84 71.23 111.81C71.27 112.83 70.53 113.65 69.54 113.68C68.62 113.7 67.71 112.8 67.72 111.89C67.74 110.95 68.53 110.17 69.47 110.16Z" fill="#388D99"/>
<path d="M76.85 128.72C76.82 129.71 76.01 130.44 74.99 130.4C74.04 130.36 73.31 129.57 73.34 128.63C73.37 127.72 74.19 126.9 75.09 126.9C76.03 126.88 76.88 127.77 76.85 128.72Z" fill="#388D99"/>
<path d="M121.67 80.35C122.65 80.34 123.38 81.03 123.41 82C123.44 82.99 122.66 83.85 121.71 83.87C120.79 83.88 119.92 82.99 119.94 82.04C119.97 81.08 120.7 80.36 121.67 80.35Z" fill="#92C3CD"/>
<path d="M112.28 57.7901C112.31 58.7001 111.55 59.5201 110.62 59.5601C109.58 59.6101 108.8 58.9001 108.77 57.8901C108.75 56.9401 109.46 56.15 110.4 56.09C111.34 56.03 112.25 56.8501 112.28 57.7901Z" fill="#92C3CD"/>
<path d="M129.01 44.84C128.99 45.8 128.25 46.56 127.3 46.57C126.38 46.58 125.46 45.6601 125.49 44.7601C125.52 43.8001 126.37 43.04 127.38 43.08C128.35 43.12 129.03 43.85 129.01 44.84Z" fill="#92C3CD"/>
<path d="M22.93 46.56C21.99 46.58 21.22 45.84 21.19 44.88C21.15 43.84 21.86 43.0899 22.89 43.0799C23.84 43.0699 24.64 43.8 24.7 44.72C24.75 45.62 23.86 46.54 22.93 46.56Z" fill="#0A5D58"/>
<path d="M93.74 30.02C94.71 30.02 95.46 30.75 95.49 31.7C95.52 32.63 94.64 33.54 93.73 33.54C92.77 33.53 91.99 32.6899 92.01 31.6899C92.04 30.7199 92.77 30.02 93.74 30.02Z" fill="#92C3CD"/>
<path d="M33.97 80.24C33.95 81.23 33.15 81.9801 32.13 81.9301C31.2 81.8901 30.43 81.0801 30.45 80.1701C30.47 79.2001 31.31 78.44 32.31 78.48C33.28 78.53 33.99 79.29 33.97 80.24Z" fill="#0A5D58"/>
<path d="M49.02 50.53C50 50.54 50.71 51.2399 50.73 52.2099C50.75 53.2099 49.96 54.04 48.99 54.03C48.09 54.02 47.27 53.2 47.24 52.29C47.21 51.31 48.01 50.52 49.02 50.53Z" fill="#0A5D58"/>
<path d="M75 55.0699C74.37 54.1299 72.98 53.76 73.37 52.23C74.48 52.23 75.61 52.23 76.74 52.23C76.99 53.44 76.9 53.5899 75 55.0699Z" fill="#89BDC2"/>
<path d="M47 104.41C47.48 105.95 45.95 106.28 45.34 107.4C44.54 106.4 43.18 105.99 43.56 104.41C44.69 104.41 45.79 104.41 47 104.41Z" fill="#89BDC2"/>
<path d="M106.62 104.41C107.01 105.95 105.67 106.37 104.92 107.32C104.18 106.36 102.79 105.95 103.17 104.41C104.32 104.41 105.43 104.41 106.62 104.41Z" fill="#89BDC2"/>
</svg>
