<svg width="220" height="62" viewBox="0 0 220 62" fill="none" xmlns="http://www.w3.org/2000/svg">
<path d="M29.81 44.4299L0.73999 61.2199H69.97L40.9 44.4299L35.35 54.0299L29.81 44.4299Z" fill="url(#paint0_linear)"/>
<path d="M35.82 0.449951V19.29L50.29 25.52L35.82 0.449951Z" fill="url(#paint1_linear)"/>
<path d="M70.44 60.4098L51.06 26.8398L41.37 43.6198L70.44 60.4098Z" fill="url(#paint2_linear)"/>
<path d="M19.65 26.8398L0.269989 60.4098L29.34 43.6198L19.65 26.8398Z" fill="url(#paint3_linear)"/>
<path d="M34.89 0.449951L20.42 25.52L34.89 19.29V0.449951Z" fill="url(#paint4_linear)"/>
<path d="M30.62 43.96L35.35 52.17L40.09 43.96L35.35 41.23L30.62 43.96Z" fill="url(#paint5_linear)"/>
<path d="M40.56 43.15L50.04 26.73H35.82V40.42L40.56 43.15Z" fill="url(#paint6_linear)"/>
<path d="M34.89 40.42V26.73H20.67L30.15 43.15L34.89 40.42Z" fill="url(#paint7_linear)"/>
<path d="M35.82 25.8001H48.58L35.82 20.3101V25.8001Z" fill="url(#paint8_linear)"/>
<path d="M22.13 25.8001H34.89V20.3101L22.13 25.8001Z" fill="url(#paint9_linear)"/>
<path d="M111.19 9.34987C109.29 9.56987 108.74 9.82987 107.67 12.5099C106.82 14.6099 103.51 22.6099 101.64 27.3599H100.28C99.16 24.2899 95.87 15.5299 94.52 12.0599C93.66 9.91987 93.25 9.51987 91.42 9.33987V8.36987H99.67L99.65 9.33987C97.54 9.60987 97.5 9.85987 97.94 11.0099C98.77 13.3099 100.9 19.1599 102.17 22.4699C103.82 18.4999 105.49 14.3299 106.4 11.8499C107.09 9.97987 106.84 9.60987 104.44 9.33987V8.36987H111.19V9.34987Z" fill="#0A5D58"/>
<path d="M127.83 22.2698C127.68 23.0398 126.88 26.2198 126.61 27.0398H112.04V26.0898C114.67 25.8498 114.86 25.6698 114.86 23.2798V12.1798C114.86 9.69982 114.53 9.53982 112.5 9.34982V8.37982H121.64C124.54 8.37982 125.59 8.34982 125.97 8.31982C126 8.90982 126.13 11.1898 126.25 12.8798L125.22 13.0198C124.96 12.0398 124.54 11.0698 124.12 10.5198C123.62 9.81982 123.15 9.62982 121.59 9.62982H119.42C118.4 9.62982 118.3 9.69983 118.3 10.6198V16.7398H121.25C123.05 16.7398 123.29 16.3098 123.69 14.2998H124.73V20.5298H123.69C123.26 18.4198 123.03 18.0998 121.22 18.0998H118.3V23.3098C118.3 25.2998 118.56 25.7498 120.22 25.7798H122.48C124.14 25.7798 124.52 25.5598 125.15 24.7898C125.81 24.0398 126.39 22.9298 126.83 21.9998L127.83 22.2698Z" fill="#0A5D58"/>
<path d="M147.33 27.2399C147.09 27.2399 146.75 27.2299 146.4 27.1999C143.3 27.0399 142.21 26.3399 141.21 24.9399C140.09 23.3999 139.19 21.6299 138.23 19.9999C137.75 19.1699 137.36 18.9999 136.25 18.9999L135.53 18.9799V23.2799C135.53 25.6499 135.83 25.8299 138.03 26.0799V27.0499H129.63V26.0799C131.88 25.8399 132.12 25.6499 132.12 23.2799V12.1099C132.12 9.77987 131.82 9.54987 129.63 9.33987V8.36987H137.61C140.01 8.36987 141.45 8.64987 142.6 9.41987C143.76 10.1899 144.53 11.4599 144.53 13.2299C144.53 15.7599 142.88 17.1799 140.9 17.9799C141.36 18.8499 142.52 20.7399 143.38 22.0499C144.41 23.6099 145.01 24.3599 145.59 25.0299C146.29 25.8099 146.73 26.0699 147.5 26.3099L147.33 27.2399ZM136.51 17.8599C137.84 17.8599 138.78 17.6499 139.44 17.0799C140.45 16.2699 140.87 15.1499 140.87 13.6599C140.87 10.6099 139.02 9.49987 137.2 9.49987C136.4 9.49987 135.99 9.61987 135.81 9.78987C135.59 9.96987 135.52 10.2999 135.52 10.9299V17.8499H136.51V17.8599Z" fill="#0A5D58"/>
<path d="M148.49 27.0399V26.0699C150.73 25.8499 150.98 25.6999 150.98 23.2699V12.1699C150.98 9.73988 150.71 9.54988 148.49 9.34988V8.37988H156.95V9.34988C154.72 9.56988 154.45 9.73988 154.45 12.1699V23.2699C154.45 25.6799 154.7 25.8299 156.95 26.0699V27.0399H148.49Z" fill="#0A5D58"/>
<path d="M175.13 13.1799C174.83 11.9999 174.3 10.9599 174.01 10.5199C173.51 9.85994 173.26 9.63994 171.61 9.63994H169.41V23.3099C169.41 25.6599 169.68 25.8899 172.29 26.0799V27.0499H163.17V26.0799C165.69 25.8899 165.94 25.6799 165.94 23.3099V9.63994H163.89C162.29 9.63994 161.83 9.86994 161.31 10.6199C160.93 11.1799 160.59 12.0899 160.21 13.2099H159.2C159.39 11.2299 159.58 9.13994 159.65 7.68994H160.44C160.87 8.35994 161.2 8.38994 162.05 8.38994H173.5C174.28 8.38994 174.63 8.23994 175.1 7.68994H175.88C175.9 8.94994 176.01 11.3099 176.16 13.1099L175.13 13.1799Z" fill="#0A5D58"/>
<path d="M186.17 27.04V26.07C188 25.82 188.08 25.52 187.68 24.33C187.36 23.38 186.86 22.03 186.37 20.65H180.56C180.19 21.68 179.78 22.78 179.45 23.77C178.84 25.6 179.43 25.83 181.72 26.06V27.03H174.79V26.06C176.6 25.83 177.06 25.59 178.05 23.12L184.01 8.18996L185.23 7.95996C187.06 12.93 189.02 18.15 190.87 23.01C191.88 25.62 192.14 25.83 194.07 26.06V27.03H186.17V27.04ZM183.52 12.76C182.66 14.97 181.79 17.13 181.02 19.29H185.87L183.52 12.76Z" fill="#0A5D58"/>
<path d="M206.09 12.98C205.55 11.12 204.74 9.10997 202.08 9.10997C200.21 9.10997 199.23 10.45 199.23 12.02C199.23 13.74 200.36 14.71 202.84 15.96C206.04 17.57 207.84 19.01 207.84 21.81C207.84 25.07 205.1 27.48 201.13 27.48C199.33 27.48 197.75 26.99 196.46 26.57C196.27 25.86 195.83 23.23 195.63 21.81L196.67 21.56C197.25 23.41 198.73 26.32 201.61 26.32C203.47 26.32 204.6 25.11 204.6 23.26C204.6 21.4 203.52 20.46 201.06 19.13C198.06 17.51 196.2 16.1 196.2 13.22C196.2 10.36 198.48 7.96997 202.6 7.96997C204.45 7.96997 205.97 8.39997 206.6 8.49997C206.72 9.54997 206.89 10.93 207.12 12.76L206.09 12.98Z" fill="#0A5D58"/>
<path d="M79.81 55.5599V54.5899C82.05 54.3699 82.3 54.2199 82.3 51.7899V40.6899C82.3 38.2599 82.03 38.0699 79.81 37.8699V36.8999H88.27V37.8699C86.04 38.0899 85.77 38.2599 85.77 40.6899V51.7899C85.77 54.1999 86.02 54.3499 88.27 54.5899V55.5599H79.81Z" fill="#0A5D58"/>
<path d="M109.91 47.7C108.22 47.97 108.05 48.1 108.05 49.96V52.24C108.05 53.26 108.08 54.23 108.22 55.01C106.65 55.32 103.78 55.99 101.42 55.99C94.75 55.99 90.84 51.9 90.84 46.19C90.84 39.87 95.99 36.49 101.97 36.49C104.51 36.49 106.9 37.06 107.83 37.17C107.89 38.36 108.09 40.4 108.3 42.05L107.27 42.24C106.58 39.8 105.6 38.63 103.81 38.03C103.15 37.8 102.05 37.68 101.29 37.68C97.49 37.68 94.8 40.7 94.8 45.75C94.8 50.63 96.78 54.82 101.79 54.82C102.5 54.82 103.3 54.69 103.84 54.39C104.33 54.1 104.61 53.67 104.61 52.68V50.21C104.61 48.17 104.27 47.96 101.74 47.7V46.72H109.91V47.7Z" fill="#0A5D58"/>
<path d="M131.99 37.8699C130.21 38.0899 129.64 38.4299 129.56 39.7399C129.49 40.7899 129.42 41.8499 129.42 44.4099V55.8699H127.99L115.9 41.2799V47.9999C115.9 50.5299 115.97 51.7099 116.04 52.5399C116.13 53.8699 116.78 54.4499 118.88 54.5899V55.5599H111.81V54.5899C113.5 54.4499 114.2 54.0199 114.36 52.6499C114.46 51.6599 114.52 50.5299 114.52 47.9899V40.9999C114.52 40.0999 114.46 39.5299 113.93 38.8199C113.4 38.0999 112.74 37.9899 111.47 37.8599V36.8999H116.62L128 50.2299V44.3999C128 41.8399 127.96 40.7899 127.87 39.7999C127.78 38.5399 127.25 38.0099 124.9 37.8699V36.8999H131.99V37.8699Z" fill="#0A5D58"/>
<path d="M143.95 36.49C149.12 36.49 153.48 40.33 153.48 46C153.48 52.14 149.17 55.99 143.8 55.99C138.14 55.99 134.02 51.8 134.02 46.3C134.01 41.32 137.57 36.49 143.95 36.49ZM143.46 37.69C140.43 37.69 138 40.5 138 45.69C138 50.71 140.28 54.8 144.22 54.8C147.21 54.8 149.51 52.18 149.51 46.82C149.52 41 146.95 37.69 143.46 37.69Z" fill="#0A5D58"/>
<path d="M171.38 41.7C171.08 40.52 170.55 39.48 170.26 39.04C169.76 38.38 169.51 38.16 167.86 38.16H165.66V51.83C165.66 54.18 165.93 54.41 168.54 54.6V55.57H159.42V54.6C161.94 54.41 162.19 54.2 162.19 51.83V38.16H160.14C158.54 38.16 158.08 38.39 157.56 39.14C157.18 39.7 156.84 40.61 156.46 41.73H155.45C155.64 39.75 155.83 37.66 155.9 36.21H156.69C157.12 36.88 157.46 36.91 158.3 36.91H169.75C170.54 36.91 170.88 36.76 171.35 36.21H172.13C172.15 37.47 172.26 39.83 172.41 41.63L171.38 41.7Z" fill="#0A5D58"/>
<path d="M194.52 37.8699C192.69 38.0199 192.14 38.5399 192.05 39.6699C191.98 40.4599 191.93 41.5199 191.93 43.7499V47.2799C191.93 49.9099 191.55 52.3199 189.9 54.0499C188.57 55.4399 186.56 55.9799 184.54 55.9799C182.72 55.9799 180.87 55.5999 179.55 54.5499C177.87 53.2699 177.05 51.4299 177.05 48.1699V40.8799C177.05 38.2599 176.8 38.0699 174.58 37.8699V36.8999H182.99V37.8699C180.79 38.0499 180.54 38.2599 180.54 40.8799V48.3599C180.54 51.9199 182.26 54.0999 185.47 54.0999C189.12 54.0999 190.54 51.5699 190.54 47.0999V43.7399C190.54 41.5299 190.45 40.4699 190.4 39.6399C190.3 38.3299 189.54 37.9699 187.49 37.8599V36.8999H194.53V37.8699H194.52Z" fill="#0A5D58"/>
<path d="M211.09 55.5599V54.5899C213.33 54.3599 213.46 54.1699 213.45 51.4099L213.44 40.0299C211.27 45.0799 208.47 51.4999 206.77 55.5599H205.89C204.34 51.5999 201.87 45.3699 199.77 40.2799C199.36 49.6599 199.35 51.6099 199.35 52.4699C199.38 54.0399 200 54.3799 202.09 54.5799V55.5499H195.08V54.5799C196.73 54.4299 197.45 54.0999 197.68 52.4399C197.81 51.4399 197.9 50.0099 198.59 40.1799C198.69 38.7599 198.45 38.0899 195.96 37.8599V36.8999H201.74L207.57 50.2299L213.57 36.8999H219.27V37.8699C216.91 38.1199 216.63 38.3599 216.69 40.5599L216.88 51.4199C216.94 54.1799 217.04 54.2999 219.44 54.5999V55.5699H211.09V55.5599Z" fill="#0A5D58"/>
<defs>
<linearGradient id="paint0_linear" x1="35.1254" y1="33.2856" x2="35.3343" y2="58.7689" gradientUnits="userSpaceOnUse">
<stop stop-color="#004A48"/>
<stop offset="0.1799" stop-color="#135554"/>
<stop offset="0.5571" stop-color="#267578"/>
<stop offset="1" stop-color="#39A1B0"/>
</linearGradient>
<linearGradient id="paint1_linear" x1="15.9694" y1="28.1097" x2="41.035" y2="14.1147" gradientUnits="userSpaceOnUse">
<stop stop-color="#004A48"/>
<stop offset="0.1799" stop-color="#135554"/>
<stop offset="0.5571" stop-color="#267578"/>
<stop offset="1" stop-color="#39A1B0"/>
</linearGradient>
<linearGradient id="paint2_linear" x1="33.2144" y1="58.9961" x2="58.2799" y2="45.0012" gradientUnits="userSpaceOnUse">
<stop stop-color="#004A48"/>
<stop offset="0.1799" stop-color="#135554"/>
<stop offset="0.5571" stop-color="#267578"/>
<stop offset="1" stop-color="#39A1B0"/>
</linearGradient>
<linearGradient id="paint3_linear" x1="32.8916" y1="57.426" x2="11.3771" y2="44.4755" gradientUnits="userSpaceOnUse">
<stop stop-color="#004A48"/>
<stop offset="0.1799" stop-color="#135554"/>
<stop offset="0.5571" stop-color="#267578"/>
<stop offset="1" stop-color="#39A1B0"/>
</linearGradient>
<linearGradient id="paint4_linear" x1="51.1337" y1="27.1209" x2="29.6191" y2="14.1703" gradientUnits="userSpaceOnUse">
<stop stop-color="#004A48"/>
<stop offset="0.1799" stop-color="#135554"/>
<stop offset="0.5571" stop-color="#267578"/>
<stop offset="1" stop-color="#39A1B0"/>
</linearGradient>
<linearGradient id="paint5_linear" x1="35.3541" y1="10.0981" x2="35.3541" y2="45.6076" gradientUnits="userSpaceOnUse">
<stop stop-color="#004A48"/>
<stop offset="0.1799" stop-color="#135554"/>
<stop offset="0.5571" stop-color="#267578"/>
<stop offset="1" stop-color="#39A1B0"/>
</linearGradient>
<linearGradient id="paint6_linear" x1="42.93" y1="10.0981" x2="42.93" y2="45.6076" gradientUnits="userSpaceOnUse">
<stop stop-color="#004A48"/>
<stop offset="0.1799" stop-color="#135554"/>
<stop offset="0.5571" stop-color="#267578"/>
<stop offset="1" stop-color="#39A1B0"/>
</linearGradient>
<linearGradient id="paint7_linear" x1="27.7784" y1="10.0981" x2="27.7784" y2="45.6076" gradientUnits="userSpaceOnUse">
<stop stop-color="#004A48"/>
<stop offset="0.1799" stop-color="#135554"/>
<stop offset="0.5571" stop-color="#267578"/>
<stop offset="1" stop-color="#39A1B0"/>
</linearGradient>
<linearGradient id="paint8_linear" x1="42.2011" y1="32.0305" x2="42.2011" y2="22.2132" gradientUnits="userSpaceOnUse">
<stop stop-color="#004A48"/>
<stop offset="0.1799" stop-color="#135554"/>
<stop offset="0.5571" stop-color="#267578"/>
<stop offset="1" stop-color="#39A1B0"/>
</linearGradient>
<linearGradient id="paint9_linear" x1="28.5073" y1="32.0305" x2="28.5073" y2="22.2132" gradientUnits="userSpaceOnUse">
<stop stop-color="#004A48"/>
<stop offset="0.1799" stop-color="#135554"/>
<stop offset="0.5571" stop-color="#267578"/>
<stop offset="1" stop-color="#39A1B0"/>
</linearGradient>
</defs>
</svg>
