<?xml version="1.0" encoding="utf-8"?>
<!-- Generator: Adobe Illustrator 23.0.1, SVG Export Plug-In . SVG Version: 6.00 Build 0)  -->
<svg version="1.1" id="Camada_1" xmlns="http://www.w3.org/2000/svg" xmlns:xlink="http://www.w3.org/1999/xlink" x="0px" y="0px"
	 viewBox="0 0 187.05 181.43" style="enable-background:new 0 0 187.05 181.43;" xml:space="preserve">
<style type="text/css">
	.st0{fill:url(#SVGID_1_);}
	.st1{fill:url(#SVGID_2_);}
	.st2{fill:url(#SVGID_3_);}
	.st3{fill:url(#SVGID_4_);}
	.st4{fill:url(#SVGID_5_);}
	.st5{fill:url(#SVGID_6_);}
	.st6{fill:url(#SVGID_7_);}
	.st7{fill:url(#SVGID_8_);}
	.st8{fill:url(#SVGID_9_);}
	.st9{fill:url(#SVGID_10_);}
	.st10{fill:url(#SVGID_11_);}
	.st11{fill:url(#SVGID_12_);}
	.st12{fill:url(#SVGID_13_);}
	.st13{fill:url(#SVGID_14_);}
	.st14{fill:url(#SVGID_15_);}
	.st15{fill:url(#SVGID_16_);}
	.st16{fill:url(#SVGID_17_);}
	.st17{fill:url(#SVGID_18_);}
	.st18{fill:url(#SVGID_19_);}
	.st19{fill:url(#SVGID_20_);}
	.st20{fill:url(#SVGID_21_);}
	.st21{fill:url(#SVGID_22_);}
	.st22{fill:url(#SVGID_23_);}
	.st23{fill:url(#SVGID_24_);}
	.st24{fill:url(#SVGID_25_);}
	.st25{fill:url(#SVGID_26_);}
	.st26{fill:url(#SVGID_27_);}
	.st27{fill:url(#SVGID_28_);}
	.st28{fill:url(#SVGID_29_);}
	.st29{fill:url(#SVGID_30_);}
	.st30{fill:url(#SVGID_31_);}
	.st31{fill:url(#SVGID_32_);}
	.st32{fill:url(#SVGID_33_);}
	.st33{fill:url(#SVGID_34_);}
	.st34{fill:url(#SVGID_35_);}
	.st35{fill:url(#SVGID_36_);}
	.st36{fill:url(#SVGID_37_);}
	.st37{fill:url(#SVGID_38_);}
	.st38{fill:url(#SVGID_39_);}
	.st39{fill:url(#SVGID_40_);}
	.st40{fill:url(#SVGID_41_);}
	.st41{fill:url(#SVGID_42_);}
	.st42{fill:url(#SVGID_43_);}
	.st43{fill:url(#SVGID_44_);}
	.st44{fill:url(#SVGID_45_);}
	.st45{fill:url(#SVGID_46_);}
	.st46{fill:url(#SVGID_47_);}
	.st47{fill:url(#SVGID_48_);}
	.st48{fill:url(#SVGID_49_);}
	.st49{fill:url(#SVGID_50_);}
	.st50{fill:url(#SVGID_51_);}
	.st51{clip-path:url(#SVGID_65_);fill:url(#SVGID_66_);}
	.st52{clip-path:url(#SVGID_65_);fill:url(#SVGID_67_);}
	.st53{clip-path:url(#SVGID_65_);fill:url(#SVGID_68_);}
	.st54{clip-path:url(#SVGID_65_);fill:url(#SVGID_69_);}
	.st55{clip-path:url(#SVGID_65_);fill:url(#SVGID_70_);}
	.st56{fill:none;stroke:#FFFFFF;stroke-miterlimit:10;}
	.st57{opacity:0.5;}
	.st58{fill:none;stroke:#FFFFFF;stroke-width:0.75;stroke-miterlimit:10;}
	.st59{fill:url(#SVGID_73_);}
	.st60{opacity:0.75;}
	.st61{fill:#004441;}
	.st62{fill:#008E9A;}
	.st63{fill:#003936;}
	.st64{fill:#FFFFFF;}
	.st65{fill:url(#SVGID_82_);}
	.st66{fill:url(#SVGID_83_);}
	.st67{fill:url(#SVGID_84_);}
	.st68{fill:url(#SVGID_85_);}
	.st69{fill:url(#SVGID_86_);}
	.st70{fill:url(#SVGID_87_);}
	.st71{fill:url(#SVGID_88_);}
	.st72{fill:url(#SVGID_89_);}
	.st73{fill:url(#SVGID_90_);}
	.st74{fill:url(#SVGID_91_);}
	.st75{fill:url(#SVGID_92_);}
	.st76{fill:#006D68;}
	.st77{fill:url(#SVGID_93_);}
	.st78{fill:url(#SVGID_94_);}
	.st79{fill:url(#SVGID_95_);}
	.st80{fill:url(#SVGID_96_);}
	.st81{fill:url(#SVGID_97_);}
	.st82{fill:url(#SVGID_98_);}
	.st83{fill:url(#SVGID_99_);}
	.st84{fill:url(#SVGID_100_);}
	.st85{fill:url(#SVGID_101_);}
	.st86{fill:url(#SVGID_102_);}
	.st87{fill:#005D57;}
	.st88{fill:#0096A4;}
	.st89{fill:none;stroke:#FFFFFF;stroke-width:2;stroke-miterlimit:10;}
	.st90{fill:none;stroke:#006D68;stroke-width:2;stroke-miterlimit:10;}
	.st91{fill:#004441;stroke:#004441;stroke-width:2;stroke-miterlimit:10;}
	.st92{fill:#FFFFFF;stroke:#008E9A;stroke-width:2;stroke-miterlimit:10;}
	.st93{fill:#004039;}
	.st94{fill:#C6E5EA;}
	.st95{fill:#79C4CF;}
	.st96{fill:#6CBFC4;}
	.st97{fill:#D2E9EC;}
	.st98{fill:#FADFD1;}
	.st99{fill:#EA7B59;}
	.st100{fill:#CFCFD9;}
	.st101{fill:#EC7E0B;}
	.st102{fill:#875B9F;}
	.st103{fill:#D24B51;}
	.st104{fill:#F5BB90;}
	.st105{fill:#54B8C0;}
	.st106{fill:#E5533A;}
	.st107{fill:#E3BC38;}
	.st108{fill:url(#SVGID_103_);}
	.st109{fill:url(#SVGID_104_);}
	.st110{fill:url(#SVGID_105_);}
	.st111{fill:url(#SVGID_106_);}
	.st112{fill:url(#SVGID_107_);}
	.st113{fill:url(#SVGID_108_);}
	.st114{fill:url(#SVGID_109_);}
	.st115{fill:url(#SVGID_110_);}
	.st116{fill:url(#SVGID_111_);}
	.st117{fill:url(#SVGID_112_);}
	.st118{fill:url(#SVGID_113_);}
	.st119{fill:url(#SVGID_114_);}
	.st120{fill:url(#SVGID_115_);}
	.st121{fill:url(#SVGID_116_);}
	.st122{fill:url(#SVGID_117_);}
	.st123{fill:url(#SVGID_118_);}
	.st124{fill:url(#SVGID_119_);}
	.st125{fill:url(#SVGID_120_);}
	.st126{fill:url(#SVGID_121_);}
	.st127{fill:url(#SVGID_122_);}
	.st128{fill:url(#SVGID_123_);}
	.st129{fill:url(#SVGID_124_);}
	.st130{fill:url(#SVGID_125_);}
	.st131{fill:url(#SVGID_126_);}
	.st132{fill:url(#SVGID_127_);}
	.st133{fill:url(#SVGID_128_);}
	.st134{fill:url(#SVGID_129_);}
	.st135{fill:url(#SVGID_130_);}
	.st136{fill:url(#SVGID_131_);}
	.st137{fill:url(#SVGID_132_);}
	.st138{fill:url(#SVGID_133_);}
	.st139{fill:url(#SVGID_134_);}
	.st140{fill:url(#SVGID_135_);}
	.st141{fill:url(#SVGID_136_);}
	.st142{fill:url(#SVGID_137_);}
	.st143{fill:url(#SVGID_138_);}
	.st144{fill:url(#SVGID_139_);}
	.st145{fill:url(#SVGID_140_);}
	.st146{fill:url(#SVGID_141_);}
	.st147{fill:url(#SVGID_142_);}
	.st148{fill:url(#SVGID_143_);}
	.st149{fill:url(#SVGID_144_);}
	.st150{fill:url(#SVGID_145_);}
	.st151{fill:url(#SVGID_146_);}
	.st152{fill:url(#SVGID_147_);}
	.st153{fill:url(#SVGID_148_);}
	.st154{fill:url(#SVGID_149_);}
	.st155{fill:url(#SVGID_150_);}
	.st156{fill:url(#SVGID_151_);}
	.st157{fill:url(#SVGID_152_);}
	.st158{fill:url(#SVGID_153_);}
	.st159{clip-path:url(#SVGID_167_);fill:url(#SVGID_168_);}
	.st160{clip-path:url(#SVGID_167_);fill:url(#SVGID_169_);}
	.st161{clip-path:url(#SVGID_167_);fill:url(#SVGID_170_);}
	.st162{clip-path:url(#SVGID_167_);fill:url(#SVGID_171_);}
	.st163{clip-path:url(#SVGID_167_);fill:url(#SVGID_172_);}
	.st164{fill:#A991B5;}
	.st165{fill:#EE8E34;}
	.st166{fill:#A07F0E;}
	.st167{fill:none;stroke:#54B8C0;stroke-width:4;stroke-miterlimit:10;}
	.st168{fill:none;stroke:#875B9F;stroke-width:5;stroke-miterlimit:10;}
	.st169{fill:#E76F80;}
	.st170{fill:#004745;}
</style>
<g>
	<g>
		<g class="st60">
			<rect x="20.14" y="15.48" class="st91" width="138.78" height="142.48"/>
		</g>
		<g>
			<g>
				<rect x="24.14" y="19.48" class="st92" width="138.78" height="142.48"/>
			</g>
		</g>
	</g>
	<g>
		<path class="st93" d="M125.06,33.35c1.19,0.01,2.76-0.42,3.46,0.17c0.73,0.61,0.18,2.24,0.22,3.42c0.03,1.04,0.08,2.09-0.02,3.12
			c-0.08,0.88,0.29,1.16,1.07,1.35c5.03,1.22,10.05,2.49,15.07,3.74c4.02,1,6.11,3.68,6.12,7.81c0,6.1-0.02,12.2,0.02,18.29
			c0,0.81-0.19,1.04-1.01,1.01c-1.97-0.07-3.94,0.01-5.9-0.04c-0.79-0.02-1.18,0.18-1.49,0.98c-3.05,7.84-4.53,15.96-4.59,24.36
			c-0.02,3.59-0.03,7.18,0.02,10.77c0.01,0.83-0.23,1-1.02,0.99c-5.52-0.04-11.04-0.01-16.56-0.04c-0.76,0-1.25,0.23-1.77,0.78
			c-7.28,7.74-16.2,11.19-26.81,10.15c-4.91-0.48-9.42-2.16-13.54-4.84c-0.57-0.37-0.88-0.36-1.34,0.14
			c-1.11,1.18-2.26,2.32-3.44,3.44c-0.46,0.44-0.43,0.7,0.02,1.09c0.52,0.45,0.96,1.01,1.49,1.45c0.62,0.52,0.73,0.84,0.06,1.51
			c-7.45,7.39-14.84,14.85-22.3,22.24c-5.39,5.35-14.19,3.19-16.32-3.99c-1.11-3.77-0.13-7.07,2.63-9.84
			c5.18-5.19,10.37-10.37,15.55-15.56c2.21-2.21,4.44-4.41,6.62-6.64c0.52-0.54,0.84-0.71,1.43-0.06c0.66,0.72,1.3,1.96,2.17,1.87
			c0.75-0.07,1.4-1.22,2.08-1.9c0.76-0.76,1.91-1.43,2.15-2.34c0.26-0.93-0.89-1.83-1.4-2.75c-9.76-17.71-0.24-40.16,19.31-45.45
			c0.68-0.19,1.01-0.41,0.97-1.21c-0.08-1.54-0.03-3.09-0.02-4.63c0-3.8,2.2-6.63,5.87-7.55c5.1-1.27,10.21-2.54,15.32-3.77
			c0.78-0.19,1.11-0.48,1.07-1.36c-0.08-1.96,0-3.94-0.04-5.9c-0.01-0.63,0.12-0.89,0.81-0.85c0.96,0.07,1.93,0.03,2.89,0.04
			c0.01,3.24-0.01,6.48,0.03,9.72c0.01,0.73-0.15,1.04-0.94,1.23c-6.08,1.47-12.13,3.02-18.2,4.54c-2,0.5-3.08,1.84-3.11,3.88
			c-0.02,1.39,0.03,2.78-0.02,4.17c-0.02,0.62,0.16,0.78,0.78,0.71c4.08-0.51,8.06-0.02,11.98,1.16c0.51,0.15,0.94,0.2,1.5-0.09
			c3.86-2.03,7.56-1.67,10.98,1.03c0.56,0.44,0.83,0.51,1.41,0.02c2.19-1.88,4.79-2.67,7.63-2.21c3.9,0.63,6.63,2.85,7.86,6.62
			c1.25,3.83,0.27,7.21-2.53,10.07c-1.67,1.71-3.36,3.41-5.09,5.06c-0.49,0.47-0.57,0.9-0.41,1.52c2.22,8.37,1.1,16.31-3.11,23.84
			c-0.16,0.28-0.48,0.52-0.35,0.97c3.77,0,7.55-0.01,11.32,0.01c0.63,0,0.66-0.29,0.66-0.77c-0.02-2.39,0.01-4.79-0.01-7.18
			c-0.06-6.2,0.78-12.28,2.34-18.27c0.62-2.4,1.43-4.74,2.27-7.07c-0.96-0.21-2.16,0.35-2.62-0.28c-0.43-0.59-0.07-1.71-0.15-2.59
			c-0.08-0.81,0.27-0.93,0.98-0.92c3.05,0.03,6.1-0.01,9.15,0.03c0.79,0.01,1.04-0.16,1.03-0.99c-0.04-4.86-0.02-9.73-0.02-14.59
			c0-2.3-0.97-3.57-3.21-4.14c-6.06-1.54-12.12-3.08-18.2-4.57c-0.7-0.17-0.84-0.44-0.83-1.08
			C125.06,39.91,125.05,36.63,125.06,33.35z M75.16,90.77c0.04,0.57,0.04,1.04,0.12,1.49c2.07,12.73,15.67,20.46,27.61,15.59
			c7.01-2.86,11.16-8.21,12.62-15.62c0.29-1.45,0.24-1.46-1.18-1.46c-3.86,0-7.72-0.02-11.58,0.02c-0.71,0.01-1.13-0.21-1.48-0.8
			c-0.55-0.91-1.17-1.77-1.82-2.74c-1.33,3.11-2.68,6.03-3.81,9.05c-0.56,1.48-1.29,2.05-2.9,1.93c-2.31-0.16-2.32-0.04-3.14-2.23
			c-1.32-3.5-2.64-7-4.01-10.64c-1.18,1.56-2.31,2.96-3.33,4.45c-0.52,0.75-1.1,1.03-2,0.99C78.59,90.72,76.93,90.77,75.16,90.77z
			 M122.5,82.98c-1.05,1.05-1.93,1.96-2.84,2.85c-0.28,0.27-0.33,0.54-0.29,0.93c0.26,2.28,0.07,4.53-0.33,6.79
			c-2.32,13.09-16.01,22.01-28.96,18.87C76.75,109.18,68.9,96.48,72,83.13c2.78-11.98,15.27-20.23,27.28-18.01
			c1.7,0.31,1.7,0.31,2.26-1.24c0.13-0.36,0.24-0.75,0.46-1.05c0.48-0.67,0.22-0.87-0.47-1.02c-3.58-0.75-7.16-0.9-10.79-0.27
			c-15.15,2.61-25.27,16.87-22.7,32.03c2.77,16.37,19.3,26.81,35.16,21.94c10.84-3.33,17.34-10.82,19.56-21.97
			C123.44,90.1,123.29,86.66,122.5,82.98z M115.57,87.06c0.16-0.98-0.28-1.57-0.89-2.18c-3.57-3.52-7.1-7.09-10.66-10.63
			c-0.88-0.88-1.8-1.82-2.09-3c-0.42-1.74-1.54-2.29-3.09-2.43c-0.92-0.08-1.84-0.25-2.76-0.27c-5.39-0.14-10.15,1.55-14.18,5.12
			c-3.76,3.34-6,7.53-6.69,12.54c-0.11,0.77,0.13,0.9,0.81,0.86c0.88-0.05,1.78-0.06,2.66,0c0.7,0.05,1.13-0.2,1.54-0.76
			c1.45-1.99,2.92-3.97,4.42-5.93c0.66-0.86,1.2-1.83,2.08-2.58c1.99,5.29,3.94,10.48,5.95,15.84c1.07-2.51,2.04-4.8,3.02-7.09
			c0.99-2.3,1.99-4.6,3.06-7.06c1.6,2.39,3.09,4.63,4.59,6.86c0.23,0.34,0.37,0.72,0.93,0.72
			C108.04,87.05,111.82,87.06,115.57,87.06z M130.62,67.09c-0.18-2.47-1.3-4.4-3.63-5.43c-2.29-1.01-4.46-0.63-6.35,0.99
			c-0.91,0.78-1.72,1.66-2.55,2.53c-0.35,0.37-0.58,0.37-0.93,0c-0.77-0.81-1.56-1.61-2.37-2.38c-2.4-2.27-6-2.23-8.33,0.08
			c-2.34,2.32-2.47,5.96-0.17,8.32c3.56,3.65,7.2,7.21,10.78,10.83c0.43,0.43,0.67,0.44,1.1,0c3.58-3.62,7.2-7.21,10.79-10.83
			C130.07,70.09,130.52,68.67,130.62,67.09z M45.8,144.52c1.56-0.11,2.98-0.56,4.1-1.67c4.84-4.81,9.65-9.65,14.49-14.46
			c0.41-0.41,0.48-0.66,0.03-1.1c-2.48-2.43-4.93-4.89-7.37-7.36c-0.39-0.4-0.63-0.52-1.1-0.06c-4.83,4.87-9.73,9.69-14.52,14.6
			c-1.77,1.82-2.11,4.09-1.08,6.42C41.38,143.23,43.31,144.34,45.8,144.52z M61.95,113.94c-0.11,0.09-0.25,0.21-0.38,0.35
			c-0.63,0.63-1.23,1.28-1.89,1.87c-0.45,0.4-0.45,0.66-0.01,1.1c2.48,2.44,4.93,4.89,7.37,7.37c0.4,0.41,0.66,0.54,1.1,0.04
			c0.58-0.67,1.23-1.29,1.88-1.88c0.41-0.37,0.41-0.62,0.01-1.01c-2.5-2.47-4.98-4.96-7.46-7.44
			C62.4,114.17,62.28,113.94,61.95,113.94z M74.66,112.5c-0.36-0.31-0.66-0.6-0.99-0.85c-0.74-0.54-1.19-1.86-1.98-1.75
			c-0.73,0.09-1.34,1.17-2,1.82c-2.4,2.4-2.39,2.39,0.24,4.69c0.39,0.34,0.59,0.32,0.93-0.03c1.1-1.13,2.23-2.24,3.35-3.36
			C74.33,112.89,74.44,112.74,74.66,112.5z"/>
		<path class="st104" d="M125.06,33.35c-0.01,3.28,0,6.56-0.03,9.84c-0.01,0.63,0.13,0.9,0.83,1.08c6.08,1.48,12.14,3.02,18.2,4.57
			c2.25,0.57,3.21,1.84,3.21,4.14c0.01,4.86-0.02,9.73,0.02,14.59c0.01,0.84-0.24,1.01-1.03,0.99c-3.05-0.05-6.1,0-9.15-0.03
			c-0.71-0.01-1.06,0.11-0.98,0.92c0.09,0.88-0.27,2,0.15,2.59c0.46,0.63,1.66,0.07,2.62,0.28c-0.84,2.34-1.65,4.68-2.27,7.07
			c-1.56,5.99-2.4,12.07-2.34,18.27c0.02,2.39,0,4.79,0.01,7.18c0,0.48-0.02,0.78-0.66,0.77c-3.78-0.03-7.55-0.01-11.32-0.01
			c-0.13-0.46,0.19-0.69,0.35-0.97c4.22-7.53,5.34-15.47,3.11-23.84c-0.16-0.61-0.08-1.05,0.41-1.52c1.73-1.66,3.41-3.35,5.09-5.06
			c2.79-2.86,3.78-6.25,2.53-10.07c-1.23-3.77-3.97-5.99-7.86-6.62c-2.84-0.46-5.43,0.33-7.63,2.21c-0.57,0.49-0.85,0.42-1.41-0.02
			c-3.42-2.7-7.12-3.07-10.98-1.03c-0.56,0.3-0.99,0.25-1.5,0.09c-3.92-1.18-7.9-1.68-11.98-1.16c-0.62,0.08-0.79-0.09-0.78-0.71
			c0.04-1.39,0-2.78,0.02-4.17c0.02-2.04,1.11-3.38,3.11-3.88c6.06-1.52,12.12-3.07,18.2-4.54c0.79-0.19,0.95-0.5,0.94-1.23
			c-0.04-3.24-0.03-6.48-0.03-9.72C117.62,33.35,121.34,33.35,125.06,33.35z"/>
		<path class="st102" d="M75.16,90.77c1.77,0,3.43-0.05,5.08,0.02c0.9,0.04,1.48-0.24,2-0.99c1.02-1.48,2.16-2.89,3.33-4.45
			c1.37,3.63,2.69,7.13,4.01,10.64c0.82,2.19,0.83,2.07,3.14,2.23c1.61,0.11,2.34-0.45,2.9-1.93c1.13-3.01,2.49-5.94,3.81-9.05
			c0.65,0.97,1.27,1.84,1.82,2.74c0.36,0.59,0.78,0.8,1.48,0.8c3.86-0.04,7.72-0.02,11.58-0.02c1.42,0,1.47,0.01,1.18,1.46
			c-1.47,7.42-5.61,12.76-12.62,15.62c-11.93,4.87-25.53-2.86-27.61-15.59C75.2,91.81,75.2,91.34,75.16,90.77z"/>
		<path class="st165" d="M122.5,82.98c0.79,3.68,0.94,7.12,0.25,10.57c-2.22,11.15-8.72,18.64-19.56,21.97
			c-15.86,4.87-32.39-5.57-35.16-21.94c-2.57-15.17,7.55-29.42,22.7-32.03c3.63-0.63,7.21-0.48,10.79,0.27
			c0.69,0.14,0.95,0.35,0.47,1.02c-0.22,0.31-0.33,0.69-0.46,1.05c-0.56,1.55-0.56,1.55-2.26,1.24c-12-2.22-24.5,6.03-27.28,18.01
			c-3.09,13.34,4.75,26.05,18.08,29.28c12.96,3.14,26.64-5.78,28.96-18.87c0.4-2.26,0.59-4.51,0.33-6.79
			c-0.04-0.38,0.01-0.66,0.29-0.93C120.56,84.94,121.45,84.03,122.5,82.98z"/>
		<path class="st62" d="M115.57,87.06c-3.75,0-7.53-0.01-11.31,0.01c-0.56,0-0.7-0.38-0.93-0.72c-1.49-2.23-2.99-4.47-4.59-6.86
			c-1.07,2.46-2.07,4.76-3.06,7.06c-0.98,2.29-1.95,4.58-3.02,7.09c-2.01-5.36-3.96-10.55-5.95-15.84
			c-0.88,0.75-1.42,1.72-2.08,2.58c-1.5,1.95-2.97,3.93-4.42,5.93c-0.4,0.56-0.84,0.81-1.54,0.76c-0.88-0.06-1.78-0.06-2.66,0
			c-0.68,0.04-0.92-0.09-0.81-0.86c0.69-5.01,2.93-9.21,6.69-12.54c4.03-3.57,8.79-5.26,14.18-5.12c0.92,0.02,1.84,0.19,2.76,0.27
			c1.56,0.14,2.67,0.69,3.09,2.43c0.29,1.19,1.21,2.12,2.09,3c3.55,3.54,7.08,7.11,10.66,10.63
			C115.29,85.49,115.73,86.09,115.57,87.06z"/>
		<path class="st103" d="M130.62,67.09c-0.09,1.59-0.54,3-1.65,4.12c-3.59,3.62-7.2,7.21-10.79,10.83c-0.43,0.44-0.67,0.43-1.1,0
			c-3.58-3.62-7.23-7.18-10.78-10.83c-2.3-2.36-2.17-6,0.17-8.32c2.33-2.31,5.93-2.35,8.33-0.08c0.81,0.77,1.6,1.56,2.37,2.38
			c0.35,0.37,0.58,0.37,0.93,0c0.82-0.87,1.64-1.75,2.55-2.53c1.89-1.62,4.06-2.01,6.35-0.99
			C129.32,62.69,130.44,64.61,130.62,67.09z"/>
		<path class="st101" d="M45.8,144.52c-2.49-0.18-4.42-1.29-5.45-3.62c-1.03-2.33-0.69-4.6,1.08-6.42c4.8-4.91,9.69-9.72,14.52-14.6
			c0.47-0.47,0.71-0.34,1.1,0.06c2.44,2.47,4.89,4.92,7.37,7.36c0.45,0.45,0.39,0.69-0.03,1.1c-4.84,4.81-9.66,9.65-14.49,14.46
			C48.78,143.96,47.36,144.41,45.8,144.52z"/>
		<path class="st107" d="M61.95,113.94c0.34,0,0.45,0.24,0.61,0.39c2.49,2.48,4.96,4.97,7.46,7.44c0.4,0.4,0.4,0.64-0.01,1.01
			c-0.66,0.6-1.3,1.22-1.88,1.88c-0.44,0.5-0.7,0.36-1.1-0.04c-2.44-2.47-4.89-4.93-7.37-7.37c-0.44-0.43-0.44-0.69,0.01-1.1
			c0.66-0.59,1.26-1.25,1.89-1.87C61.7,114.15,61.84,114.03,61.95,113.94z"/>
		<path class="st97" d="M74.66,112.5c-0.21,0.24-0.33,0.38-0.46,0.51c-1.12,1.12-2.25,2.23-3.35,3.36
			c-0.34,0.35-0.54,0.37-0.93,0.03c-2.63-2.3-2.64-2.29-0.24-4.69c0.65-0.65,1.27-1.73,2-1.82c0.79-0.1,1.24,1.21,1.98,1.75
			C74,111.9,74.3,112.2,74.66,112.5z"/>
	</g>
</g>
</svg>
