<svg width="145" height="149" viewBox="0 0 145 149" fill="none" xmlns="http://www.w3.org/2000/svg">
<g opacity="0.75">
<path opacity="0.75" d="M139.88 1.25H1.09998V143.73H139.88V1.25Z" fill="#004543" stroke="#004543" stroke-width="2" stroke-miterlimit="10"/>
</g>
<path d="M143.88 5.25H5.09998V147.73H143.88V5.25Z" fill="white" stroke="#388D99" stroke-width="2" stroke-miterlimit="10"/>
<path d="M106.02 19.1199C107.21 19.1299 108.78 18.7 109.48 19.29C110.21 19.9 109.66 21.5299 109.7 22.7099C109.73 23.7499 109.78 24.7999 109.68 25.8299C109.6 26.7099 109.97 26.99 110.75 27.18C115.78 28.4 120.8 29.67 125.82 30.92C129.84 31.92 131.93 34.5999 131.94 38.7299C131.94 44.8299 131.92 50.93 131.96 57.02C131.97 57.83 131.77 58.06 130.95 58.03C128.98 57.96 127.01 58.0399 125.05 57.9899C124.26 57.9699 123.87 58.1699 123.56 58.9699C120.51 66.8099 119.03 74.9299 118.97 83.3299C118.95 86.9199 118.94 90.5099 118.99 94.0999C119 94.9299 118.76 95.0999 117.97 95.0899C112.45 95.0499 106.93 95.08 101.41 95.05C100.65 95.05 100.16 95.2799 99.64 95.8299C92.36 103.57 83.44 107.02 72.83 105.98C67.92 105.5 63.41 103.82 59.29 101.14C58.72 100.77 58.41 100.78 57.95 101.28C56.84 102.46 55.69 103.6 54.51 104.72C54.05 105.16 54.08 105.42 54.53 105.81C55.05 106.26 55.49 106.82 56.02 107.26C56.64 107.78 56.75 108.1 56.08 108.77C48.63 116.16 41.24 123.62 33.78 131.01C28.39 136.36 19.59 134.2 17.46 127.02C16.35 123.25 17.33 119.95 20.09 117.18C25.27 111.99 30.46 106.81 35.64 101.62C37.85 99.4099 40.08 97.2099 42.26 94.9799C42.78 94.4399 43.1 94.27 43.69 94.92C44.35 95.64 44.99 96.88 45.86 96.79C46.61 96.72 47.26 95.57 47.94 94.89C48.7 94.13 49.85 93.46 50.09 92.55C50.35 91.62 49.2 90.72 48.69 89.8C38.93 72.09 48.45 49.6399 68 44.3499C68.68 44.1599 69.01 43.94 68.97 43.14C68.89 41.6 68.94 40.05 68.95 38.51C68.95 34.71 71.15 31.8799 74.82 30.9599C79.92 29.6899 85.03 28.4199 90.14 27.1899C90.92 26.9999 91.25 26.7099 91.21 25.8299C91.13 23.8699 91.21 21.89 91.17 19.93C91.16 19.3 91.29 19.0399 91.98 19.0799C92.94 19.1499 93.91 19.1099 94.87 19.1199C94.88 22.3599 94.86 25.5999 94.9 28.8399C94.91 29.5699 94.75 29.8799 93.96 30.0699C87.88 31.5399 81.83 33.0899 75.76 34.6099C73.76 35.1099 72.68 36.4499 72.65 38.4899C72.63 39.8799 72.68 41.27 72.63 42.66C72.61 43.28 72.79 43.4399 73.41 43.3699C77.49 42.8599 81.47 43.35 85.39 44.53C85.9 44.68 86.33 44.7299 86.89 44.4399C90.75 42.4099 94.45 42.7699 97.87 45.4699C98.42 45.9099 98.7 45.9799 99.28 45.4899C101.47 43.6099 104.07 42.82 106.91 43.28C110.81 43.91 113.54 46.13 114.77 49.9C116.02 53.73 115.04 57.1099 112.24 59.9699C110.57 61.6799 108.88 63.38 107.15 65.03C106.66 65.5 106.58 65.93 106.74 66.55C108.96 74.92 107.84 82.86 103.63 90.39C103.47 90.67 103.15 90.9099 103.28 91.3599C107.05 91.3599 110.83 91.3499 114.6 91.3699C115.23 91.3699 115.26 91.0799 115.26 90.5999C115.24 88.2099 115.27 85.81 115.25 83.42C115.19 77.22 116.03 71.14 117.59 65.15C118.21 62.75 119.02 60.4099 119.86 58.0799C118.9 57.8699 117.7 58.43 117.24 57.8C116.81 57.21 117.17 56.0899 117.09 55.2099C117.01 54.3999 117.36 54.28 118.07 54.29C121.12 54.32 124.17 54.2799 127.22 54.3199C128.01 54.3299 128.26 54.1599 128.25 53.3299C128.21 48.4699 128.23 43.5999 128.23 38.7399C128.23 36.4399 127.26 35.1699 125.02 34.5999C118.96 33.0599 112.9 31.52 106.82 30.03C106.12 29.86 105.98 29.5899 105.99 28.9499C106.02 25.6799 106.02 22.3999 106.02 19.1199ZM56.13 76.54C56.17 77.11 56.17 77.58 56.25 78.03C58.32 90.76 71.92 98.4899 83.86 93.6199C90.87 90.7599 95.02 85.4099 96.48 77.9999C96.77 76.5499 96.72 76.54 95.3 76.54C91.44 76.54 87.58 76.52 83.72 76.56C83.01 76.57 82.59 76.35 82.24 75.76C81.69 74.85 81.07 73.99 80.42 73.02C79.09 76.13 77.74 79.0499 76.61 82.0699C76.05 83.5499 75.32 84.1199 73.71 83.9999C71.4 83.8399 71.39 83.96 70.57 81.77C69.25 78.27 67.93 74.7699 66.56 71.1299C65.38 72.6899 64.25 74.0899 63.23 75.5799C62.71 76.3299 62.13 76.6099 61.23 76.5699C59.56 76.4899 57.9 76.54 56.13 76.54ZM103.46 68.7499C102.41 69.7999 101.53 70.7099 100.62 71.5999C100.34 71.8699 100.29 72.14 100.33 72.53C100.59 74.81 100.4 77.0599 100 79.3199C97.68 92.4099 83.99 101.33 71.04 98.1899C57.71 94.9599 49.87 82.25 52.96 68.91C55.74 56.93 68.23 48.68 80.24 50.9C81.94 51.21 81.94 51.21 82.5 49.66C82.63 49.3 82.74 48.9099 82.96 48.6099C83.44 47.9399 83.18 47.7399 82.49 47.5899C78.91 46.8399 75.33 46.6899 71.7 47.3199C56.55 49.9299 46.43 64.1899 49 79.3499C51.77 95.7199 68.3 106.16 84.16 101.29C95 97.96 101.5 90.4699 103.72 79.3199C104.4 75.8699 104.25 72.4299 103.46 68.7499ZM96.53 72.8399C96.69 71.8599 96.25 71.27 95.64 70.66C92.07 67.14 88.54 63.57 84.98 60.03C84.1 59.15 83.18 58.21 82.89 57.03C82.47 55.29 81.35 54.7399 79.79 54.5999C78.87 54.5199 77.95 54.3499 77.03 54.3299C71.64 54.1899 66.88 55.8799 62.85 59.4499C59.09 62.7899 56.85 66.9799 56.16 71.9899C56.05 72.7599 56.29 72.8899 56.97 72.8499C57.85 72.7999 58.75 72.7899 59.63 72.8499C60.33 72.8999 60.76 72.6499 61.17 72.0899C62.62 70.0999 64.09 68.12 65.59 66.16C66.25 65.3 66.79 64.3299 67.67 63.5799C69.66 68.8699 71.61 74.06 73.62 79.42C74.69 76.91 75.66 74.6199 76.64 72.3299C77.63 70.0299 78.63 67.73 79.7 65.27C81.3 67.66 82.79 69.8999 84.29 72.1299C84.52 72.4699 84.66 72.8499 85.22 72.8499C89.01 72.8199 92.78 72.8399 96.53 72.8399ZM111.58 52.8599C111.4 50.3899 110.28 48.46 107.95 47.43C105.66 46.42 103.49 46.8 101.6 48.42C100.69 49.2 99.88 50.0799 99.05 50.9499C98.7 51.3199 98.47 51.3199 98.12 50.9499C97.35 50.1399 96.56 49.3399 95.75 48.5699C93.35 46.2999 89.75 46.34 87.42 48.65C85.08 50.97 84.95 54.6099 87.25 56.9699C90.81 60.6199 94.45 64.18 98.03 67.8C98.46 68.23 98.7 68.24 99.13 67.8C102.71 64.18 106.33 60.5899 109.92 56.9699C111.04 55.8599 111.49 54.4399 111.58 52.8599ZM26.77 130.29C28.33 130.18 29.75 129.74 30.87 128.62C35.71 123.81 40.52 118.97 45.36 114.16C45.77 113.75 45.84 113.5 45.39 113.06C42.91 110.63 40.46 108.17 38.02 105.7C37.63 105.3 37.39 105.18 36.92 105.64C32.09 110.51 27.19 115.33 22.4 120.24C20.63 122.06 20.29 124.33 21.32 126.66C22.34 129 24.27 130.11 26.77 130.29ZM42.91 99.7099C42.8 99.7999 42.66 99.92 42.53 100.06C41.9 100.69 41.3 101.34 40.64 101.93C40.19 102.33 40.19 102.59 40.63 103.03C43.11 105.46 45.56 107.92 48 110.4C48.4 110.81 48.66 110.94 49.1 110.44C49.68 109.77 50.33 109.15 50.98 108.56C51.39 108.19 51.39 107.94 50.99 107.55C48.49 105.08 46.01 102.59 43.53 100.11C43.36 99.9499 43.25 99.7099 42.91 99.7099ZM55.62 98.28C55.26 97.97 54.96 97.68 54.63 97.43C53.89 96.89 53.44 95.57 52.65 95.68C51.92 95.77 51.31 96.8499 50.65 97.4999C48.25 99.8999 48.26 99.8899 50.89 102.19C51.28 102.53 51.48 102.51 51.82 102.16C52.92 101.03 54.05 99.92 55.17 98.8C55.29 98.66 55.41 98.52 55.62 98.28Z" fill="#00423C"/>
<path d="M106.02 19.12C106.01 22.4 106.02 25.68 105.99 28.96C105.98 29.59 106.12 29.86 106.82 30.04C112.9 31.52 118.96 33.06 125.02 34.61C127.27 35.18 128.23 36.45 128.23 38.75C128.24 43.61 128.21 48.48 128.25 53.34C128.26 54.18 128.01 54.35 127.22 54.33C124.17 54.28 121.12 54.33 118.07 54.3C117.36 54.2901 117.01 54.41 117.09 55.22C117.18 56.1 116.82 57.2201 117.24 57.8101C117.7 58.4401 118.9 57.88 119.86 58.09C119.02 60.43 118.21 62.77 117.59 65.16C116.03 71.15 115.19 77.2301 115.25 83.4301C115.27 85.8201 115.25 88.22 115.26 90.61C115.26 91.09 115.24 91.39 114.6 91.38C110.82 91.35 107.05 91.37 103.28 91.37C103.15 90.91 103.47 90.68 103.63 90.4C107.85 82.87 108.97 74.9301 106.74 66.5601C106.58 65.9501 106.66 65.51 107.15 65.04C108.88 63.38 110.56 61.69 112.24 59.98C115.03 57.12 116.02 53.73 114.77 49.91C113.54 46.14 110.8 43.92 106.91 43.29C104.07 42.83 101.48 43.62 99.28 45.5C98.71 45.99 98.43 45.92 97.87 45.48C94.45 42.78 90.75 42.41 86.89 44.45C86.33 44.75 85.9 44.7 85.39 44.54C81.47 43.36 77.49 42.86 73.41 43.38C72.79 43.46 72.62 43.29 72.63 42.67C72.67 41.28 72.63 39.89 72.65 38.5C72.67 36.46 73.76 35.12 75.76 34.62C81.82 33.1 87.88 31.55 93.96 30.08C94.75 29.89 94.91 29.58 94.9 28.85C94.86 25.61 94.87 22.37 94.87 19.13C98.59 19.12 102.3 19.12 106.02 19.12Z" fill="#D8E8EC"/>
<path d="M56.13 76.54C57.9 76.54 59.56 76.4901 61.21 76.5601C62.11 76.6001 62.69 76.3199 63.21 75.5699C64.23 74.0899 65.37 72.68 66.54 71.12C67.91 74.75 69.23 78.25 70.55 81.76C71.37 83.95 71.38 83.83 73.69 83.99C75.3 84.1 76.03 83.5401 76.59 82.0601C77.72 79.0501 79.08 76.12 80.4 73.01C81.05 73.98 81.67 74.85 82.22 75.75C82.58 76.34 83 76.55 83.7 76.55C87.56 76.51 91.42 76.53 95.28 76.53C96.7 76.53 96.75 76.54 96.46 77.99C94.99 85.41 90.85 90.75 83.84 93.61C71.91 98.48 58.31 90.75 56.23 78.02C56.17 77.58 56.17 77.11 56.13 76.54Z" fill="#388D99"/>
<path d="M103.46 68.75C104.25 72.43 104.4 75.8699 103.71 79.3199C101.49 90.4699 94.99 97.96 84.15 101.29C68.29 106.16 51.76 95.72 48.99 79.35C46.42 64.18 56.54 49.9299 71.69 47.3199C75.32 46.6899 78.9 46.84 82.48 47.59C83.17 47.73 83.43 47.94 82.95 48.61C82.73 48.91 82.62 49.3 82.49 49.66C81.93 51.21 81.93 51.21 80.23 50.9C68.23 48.68 55.73 56.93 52.95 68.91C49.86 82.25 57.7001 94.9599 71.0301 98.1899C83.9901 101.33 97.67 92.4099 99.99 79.3199C100.39 77.0599 100.58 74.81 100.32 72.53C100.28 72.15 100.33 71.87 100.61 71.6C101.53 70.71 102.41 69.81 103.46 68.75Z" fill="#92C3CD"/>
<path d="M96.53 72.8399C92.78 72.8399 89 72.8299 85.22 72.8499C84.66 72.8499 84.52 72.47 84.29 72.13C82.8 69.9 81.3 67.66 79.7 65.27C78.63 67.73 77.63 70.0299 76.64 72.3299C75.66 74.6199 74.69 76.91 73.62 79.42C71.61 74.06 69.66 68.8699 67.67 63.5799C66.79 64.3299 66.25 65.3 65.59 66.16C64.09 68.11 62.62 70.0899 61.17 72.0899C60.77 72.6499 60.33 72.8999 59.63 72.8499C58.75 72.7899 57.85 72.7899 56.97 72.8499C56.29 72.8899 56.05 72.76 56.16 71.99C56.85 66.98 59.09 62.7799 62.85 59.4499C66.88 55.8799 71.64 54.1899 77.03 54.3299C77.95 54.3499 78.87 54.5199 79.79 54.5999C81.35 54.7399 82.46 55.29 82.89 57.03C83.18 58.22 84.1 59.15 84.98 60.03C88.53 63.57 92.06 67.14 95.64 70.66C96.26 71.26 96.7 71.8599 96.53 72.8399Z" fill="#388D99"/>
<path d="M111.58 52.8599C111.49 54.4499 111.04 55.8599 109.93 56.9799C106.34 60.5999 102.73 64.19 99.14 67.81C98.71 68.25 98.47 68.24 98.04 67.81C94.46 64.19 90.81 60.6299 87.26 56.9799C84.96 54.6199 85.09 50.98 87.43 48.66C89.76 46.35 93.36 46.3099 95.76 48.5799C96.57 49.3499 97.36 50.1399 98.13 50.9599C98.48 51.3299 98.71 51.3299 99.06 50.9599C99.88 50.0899 100.7 49.21 101.61 48.43C103.5 46.81 105.67 46.4199 107.96 47.4399C110.28 48.4599 111.4 50.3799 111.58 52.8599Z" fill="#0A5D58"/>
<path d="M26.77 130.29C24.28 130.11 22.35 129 21.32 126.67C20.29 124.34 20.63 122.07 22.4 120.25C27.2 115.34 32.09 110.53 36.92 105.65C37.39 105.18 37.63 105.31 38.02 105.71C40.46 108.18 42.91 110.63 45.39 113.07C45.84 113.52 45.78 113.76 45.36 114.17C40.52 118.98 35.7 123.82 30.87 128.63C29.75 129.73 28.33 130.18 26.77 130.29Z" fill="#92C3CD"/>
<path d="M42.91 99.71C43.25 99.71 43.36 99.94 43.52 100.1C46.01 102.58 48.48 105.07 50.98 107.54C51.38 107.94 51.38 108.18 50.97 108.55C50.31 109.15 49.67 109.77 49.09 110.43C48.65 110.93 48.39 110.79 47.99 110.39C45.55 107.92 43.1 105.46 40.62 103.02C40.18 102.59 40.18 102.33 40.63 101.92C41.29 101.33 41.89 100.67 42.52 100.05C42.66 99.92 42.81 99.81 42.91 99.71Z" fill="#388D99"/>
<path d="M55.62 98.2801C55.41 98.5201 55.29 98.6601 55.16 98.7901C54.04 99.9101 52.91 101.02 51.81 102.15C51.47 102.5 51.27 102.52 50.88 102.18C48.25 99.8801 48.24 99.89 50.64 97.49C51.29 96.84 51.91 95.7601 52.64 95.6701C53.43 95.5701 53.88 96.8801 54.62 97.4201C54.96 97.6701 55.26 97.9701 55.62 98.2801Z" fill="#D8E8EC"/>
</svg>
