<svg width="222" height="272" viewBox="0 0 222 272" fill="none" xmlns="http://www.w3.org/2000/svg">
<path d="M221.48 0.629883H0.839996V271.05H221.48V0.629883Z" fill="url(#paint0_linear)"/>
<path d="M220.97 5.63989H5.76001V270.55H220.97V5.63989Z" fill="white"/>
<path d="M220.48 6.13989V270.05H6.26001V6.13989H220.48ZM221.48 5.13989H5.26001V271.05H221.47V5.13989H221.48Z" fill="#388D99"/>
<path d="M221.47 224.98H5.26001V271.05H221.47V224.98Z" fill="#92C3CD"/>
<path d="M221.48 271.05V237.07L187.87 271.05H221.48Z" fill="#004947"/>
<path d="M77.07 253.72C76.87 253.72 76.59 253.71 76.29 253.69C73.7 253.56 72.79 252.97 71.95 251.8C71.01 250.51 70.26 249.03 69.46 247.67C69.06 246.98 68.73 246.84 67.8 246.84L67.19 246.82V250.42C67.19 252.4 67.44 252.55 69.28 252.76V253.57H62.26V252.76C64.14 252.56 64.34 252.4 64.34 250.42V241.09C64.34 239.14 64.09 238.95 62.26 238.78V237.97H68.93C70.93 237.97 72.14 238.2 73.1 238.85C74.07 239.49 74.72 240.55 74.72 242.03C74.72 244.14 73.34 245.33 71.69 246C72.08 246.73 73.04 248.3 73.76 249.4C74.62 250.7 75.12 251.33 75.61 251.89C76.2 252.54 76.56 252.76 77.21 252.96L77.07 253.72ZM68.03 245.88C69.14 245.88 69.93 245.7 70.48 245.23C71.32 244.55 71.68 243.62 71.68 242.37C71.68 239.82 70.13 238.9 68.61 238.9C67.95 238.9 67.6 239 67.45 239.14C67.26 239.29 67.21 239.56 67.21 240.09V245.88H68.03Z" fill="white"/>
<path d="M90.52 249.57C90.39 250.21 89.73 252.87 89.5 253.56H77.32V252.76C79.52 252.56 79.67 252.41 79.67 250.41V241.13C79.67 239.06 79.39 238.92 77.7 238.77V237.96H85.34C87.77 237.96 88.64 237.94 88.96 237.91C88.98 238.4 89.1 240.31 89.19 241.72L88.33 241.84C88.11 241.02 87.76 240.21 87.41 239.75C86.99 239.16 86.6 239.01 85.3 239.01H83.49C82.64 239.01 82.56 239.07 82.56 239.84V244.96H85.02C86.52 244.96 86.72 244.6 87.06 242.92H87.93V248.13H87.06C86.7 246.37 86.51 246.1 85 246.1H82.56V250.46C82.56 252.12 82.78 252.5 84.16 252.53H86.05C87.44 252.53 87.75 252.35 88.28 251.71C88.83 251.08 89.32 250.16 89.69 249.38L90.52 249.57Z" fill="white"/>
<path d="M100.77 241.81C100.32 240.26 99.64 238.57 97.42 238.57C95.86 238.57 95.04 239.69 95.04 241C95.04 242.44 95.99 243.25 98.06 244.29C100.74 245.64 102.23 246.83 102.23 249.18C102.23 251.9 99.94 253.92 96.62 253.92C95.12 253.92 93.79 253.51 92.71 253.16C92.55 252.57 92.18 250.37 92.02 249.18L92.89 248.97C93.37 250.52 94.61 252.95 97.02 252.95C98.58 252.95 99.52 251.94 99.52 250.39C99.52 248.84 98.61 248.05 96.56 246.94C94.06 245.59 92.5 244.4 92.5 242C92.5 239.61 94.4 237.61 97.85 237.61C99.4 237.61 100.67 237.97 101.19 238.05C101.29 238.93 101.43 240.08 101.62 241.61L100.77 241.81Z" fill="white"/>
<path d="M110.81 237.95C112.64 237.95 114.05 238.28 115.04 238.95C116.15 239.71 116.81 240.85 116.81 242.48C116.81 245.97 113.84 247.42 111.37 247.43C111.12 247.43 110.83 247.41 110.68 247.38L109.2 247V250.43C109.2 252.45 109.37 252.52 111.5 252.73V253.54H104.22V252.73C106.11 252.51 106.3 252.42 106.3 250.41V241.12C106.3 239.06 106.05 238.91 104.22 238.76V237.95H110.81ZM109.19 246.06C109.48 246.2 110.02 246.32 110.63 246.32C111.91 246.32 113.78 245.61 113.78 242.5C113.78 239.83 112.22 238.88 110.5 238.88C109.93 238.88 109.56 239 109.42 239.14C109.24 239.29 109.19 239.55 109.19 240.01V246.06Z" fill="white"/>
<path d="M131.53 249.57C131.4 250.21 130.74 252.87 130.51 253.56H118.33V252.76C120.53 252.56 120.68 252.41 120.68 250.41V241.13C120.68 239.06 120.4 238.92 118.71 238.77V237.96H126.35C128.78 237.96 129.65 237.94 129.97 237.91C129.99 238.4 130.11 240.31 130.2 241.72L129.34 241.84C129.12 241.02 128.77 240.21 128.42 239.75C128 239.16 127.61 239.01 126.31 239.01H124.5C123.65 239.01 123.57 239.07 123.57 239.84V244.96H126.03C127.53 244.96 127.73 244.6 128.07 242.92H128.94V248.13H128.07C127.71 246.37 127.52 246.1 126.01 246.1H123.57V250.46C123.57 252.12 123.79 252.5 125.17 252.53H127.06C128.45 252.53 128.76 252.35 129.29 251.71C129.84 251.08 130.33 250.16 130.7 249.38L131.53 249.57Z" fill="white"/>
<path d="M147.78 249.53C147.44 250.71 146.82 252.5 146.44 253.31C145.79 253.45 143.86 253.92 142.03 253.92C135.83 253.92 133.07 249.88 133.07 245.93C133.07 240.99 136.84 237.62 142.46 237.62C144.54 237.62 146.33 238.1 147 238.19C147.11 239.3 147.28 240.96 147.46 242.07L146.58 242.24C146.08 240.46 145.41 239.54 144.16 239.03C143.57 238.77 142.66 238.65 141.92 238.65C138.27 238.65 136.4 241.56 136.4 245.4C136.4 249.88 138.71 252.85 142.21 252.85C144.38 252.85 145.67 251.77 146.94 249.21L147.78 249.53Z" fill="white"/>
<path d="M162.69 241.97C162.44 240.98 162 240.11 161.75 239.74C161.33 239.19 161.13 239 159.74 239H157.9V250.42C157.9 252.39 158.12 252.57 160.31 252.73V253.54H152.69V252.73C154.8 252.57 155 252.39 155 250.42V239H153.28C151.94 239 151.56 239.19 151.12 239.82C150.8 240.28 150.52 241.05 150.2 241.98H149.36C149.52 240.33 149.68 238.58 149.74 237.36H150.4C150.76 237.92 151.04 237.94 151.74 237.94H161.31C161.97 237.94 162.25 237.81 162.64 237.36H163.29C163.31 238.41 163.4 240.39 163.52 241.89L162.69 241.97Z" fill="white"/>
<path d="M51.87 53.0601V52.4399C53.57 52.2599 53.74 52.1699 53.74 50.3899V42.1101C53.74 40.3101 53.56 40.21 51.87 40.04V39.4199H57.65V40.04C55.94 40.22 55.76 40.3201 55.76 42.1101V50.3899C55.76 52.1799 55.93 52.2599 57.65 52.4399V53.0601H51.87Z" fill="#388D99"/>
<path d="M65.28 53.0601V52.45C66.44 52.32 66.55 52.19 66.55 50.76V47.27C66.55 45.8 65.99 44.8999 64.72 44.8999C63.92 44.8999 63.16 45.3499 62.53 45.9099V50.8501C62.53 52.2701 62.65 52.3199 63.82 52.4399V53.05H59.22V52.4399C60.55 52.2899 60.68 52.2101 60.68 50.8301V46.5C60.68 45.15 60.53 45.0899 59.43 44.8999V44.3301C60.49 44.1701 61.6 43.89 62.53 43.5C62.53 43.95 62.52 44.6299 62.52 45.1299C62.94 44.8399 63.4 44.5199 63.93 44.1799C64.53 43.7999 65.04 43.5601 65.65 43.5601C67.33 43.5601 68.39 44.8001 68.39 46.8501V50.8401C68.39 52.2401 68.52 52.3099 69.7 52.4399V53.05H65.28V53.0601Z" fill="#388D99"/>
<path d="M78.93 51.1399C78 52.3899 76.59 53.3101 75.33 53.3101C72.62 53.3101 71.02 51.1399 71.02 48.8799C71.02 47.2399 71.75 45.84 73.14 44.78C74.3 43.89 75.57 43.5601 76.41 43.5601C77.33 43.5601 78.02 43.8401 78.34 44.1201C78.63 44.3501 78.69 44.51 78.69 44.76C78.69 45.28 78.15 45.75 77.9 45.75C77.79 45.75 77.69 45.7 77.49 45.54C76.79 44.92 76.08 44.6201 75.36 44.6201C74.08 44.6201 72.9 45.7299 72.9 47.9299C72.88 50.8299 74.89 51.78 76.05 51.78C76.93 51.78 77.63 51.5499 78.55 50.6699L78.93 51.1399Z" fill="#388D99"/>
<path d="M79.64 53.0601V52.45C80.96 52.31 81.1 52.2101 81.1 50.8301V40.8601C81.1 39.6101 80.99 39.4901 79.69 39.3101V38.74C80.88 38.61 82.21 38.29 82.94 38.03C82.94 39.01 82.94 40.01 82.94 40.99V50.8301C82.94 52.2201 83.05 52.32 84.39 52.45V53.0601H79.64Z" fill="#388D99"/>
<path d="M95.74 52.5701C94.69 52.7201 93.51 52.9901 92.39 53.3101C92.39 52.9501 92.39 52.24 92.39 51.73C91.31 52.63 90.39 53.3101 89.23 53.3101C87.76 53.3101 86.58 52.3999 86.58 50.1899V46.0701C86.58 44.9701 86.42 44.84 85.89 44.73L85.33 44.6201V44.05C86.26 44.01 87.7 43.8099 88.5 43.6799C88.44 44.3899 88.44 45.41 88.44 46.76V49.6499C88.44 51.4099 89.36 51.9199 90.26 51.9199C91 51.9199 91.72 51.62 92.39 50.98V46.0601C92.39 44.9601 92.16 44.81 91.47 44.7L90.81 44.6101V44.04C92.13 43.98 93.66 43.7599 94.24 43.6699V50.6699C94.24 51.7299 94.4 51.8899 95.18 51.9399L95.75 51.96V52.5701H95.74Z" fill="#388D99"/>
<path d="M102.33 46.3601C101.92 45.1001 101.35 44.29 100.12 44.29C99.41 44.29 98.85 44.8001 98.85 45.6101C98.85 46.4801 99.44 46.8999 100.6 47.4299C102.39 48.2699 103.33 48.9201 103.33 50.3501C103.33 52.3101 101.52 53.3101 99.84 53.3101C98.75 53.3101 97.75 52.96 97.31 52.71C97.21 52.12 97.02 50.92 96.94 50.22L97.56 50.1101C97.95 51.4501 98.71 52.5701 100.16 52.5701C100.96 52.5701 101.58 52.04 101.58 51.2C101.58 50.31 101.06 49.82 99.91 49.26C98.46 48.55 97.23 47.8701 97.23 46.3201C97.23 44.7601 98.54 43.5701 100.56 43.5701C101.46 43.5701 102.19 43.7801 102.62 43.8501C102.68 44.3701 102.84 45.69 102.94 46.21L102.33 46.3601Z" fill="#388D99"/>
<path d="M104.67 53.0601V52.45C105.96 52.32 106.1 52.22 106.1 50.78V46.5C106.1 45.18 106.03 45.0999 104.82 44.8999V44.3601C105.95 44.1801 107 43.9 107.95 43.53C107.95 44.41 107.95 45.2899 107.95 46.1699V50.78C107.95 52.21 108.09 52.32 109.42 52.45V53.0601H104.67ZM106.9 41.6201C106.27 41.6201 105.72 41.0699 105.72 40.4399C105.72 39.7299 106.28 39.23 106.93 39.23C107.56 39.23 108.08 39.7399 108.08 40.4399C108.07 41.0699 107.56 41.6201 106.9 41.6201Z" fill="#388D99"/>
<path d="M119.75 44.4199C118.62 44.5699 118.47 44.75 117.94 45.96C117.24 47.64 116.06 50.39 114.94 53.29H114.28C113.37 50.84 112.35 48.3499 111.36 45.8999C110.9 44.7399 110.72 44.5899 109.63 44.4199V43.8301H114.09V44.4199C112.97 44.5699 112.92 44.7201 113.24 45.5901C113.76 47.0401 114.62 49.2301 115.17 50.5901C115.85 48.8901 116.55 47.15 117.02 45.79C117.35 44.83 117.29 44.5699 115.92 44.4199V43.8301H119.76V44.4199H119.75Z" fill="#388D99"/>
<path d="M127.81 51.23C126.48 52.95 124.97 53.3201 124.26 53.3201C121.65 53.3201 120.09 51.22 120.09 48.79C120.09 47.35 120.63 46.0101 121.49 45.1001C122.38 44.1201 123.54 43.5801 124.64 43.5801C126.51 43.5801 127.9 45.1801 127.9 46.8701C127.88 47.2801 127.83 47.5001 127.51 47.5801C127.09 47.6701 124.36 47.8499 121.94 47.9299C121.9 50.6399 123.54 51.79 125.03 51.79C125.88 51.79 126.68 51.45 127.46 50.74L127.81 51.23ZM124.16 44.3799C123.22 44.3799 122.31 45.3 122.05 46.99C123.17 46.99 124.28 46.9799 125.45 46.9299C125.81 46.9299 125.94 46.83 125.94 46.51C125.96 45.41 125.27 44.3799 124.16 44.3799Z" fill="#388D99"/>
<path d="M138.81 43.5701C141.5 43.5701 143.43 45.61 143.43 48.28C143.43 51.68 140.93 53.3101 138.79 53.3101C135.84 53.3101 134.07 50.9701 134.07 48.6001C134.08 45.2201 136.74 43.5701 138.81 43.5701ZM138.56 44.3101C137.35 44.3101 136.24 45.5 136.24 47.96C136.24 50.62 137.36 52.5601 139.01 52.5601C140.22 52.5601 141.27 51.69 141.27 48.78C141.27 46.23 140.31 44.3101 138.56 44.3101Z" fill="#388D99"/>
<path d="M146.3 43.8201V43.28C146.3 41.78 146.87 40.2399 148.17 39.1399C148.91 38.4899 149.71 38.14 150.56 38.03C151.29 38.05 151.94 38.2999 152.28 38.6899C152.49 38.9299 152.52 39.16 152.42 39.46C152.35 39.7 152.1 39.9999 151.87 40.1799C151.62 40.3399 151.44 40.2899 151.23 40.1399C150.79 39.7399 150.2 39.22 149.53 39.22C148.15 39.22 148.14 41.0601 148.14 42.8601V43.8301H150.31C150.43 44.0201 150.33 44.57 150.08 44.72H148.13V50.77C148.13 52.24 148.35 52.28 149.88 52.45V53.0601H144.86V52.45C146.16 52.32 146.29 52.2301 146.29 50.8701V44.71H144.82L144.73 44.47L145.21 43.8101H146.3V43.8201Z" fill="#388D99"/>
<path d="M162.66 53.3101C162.3 53.3101 161.84 53.1399 161.62 52.8999C161.34 52.6299 161.21 52.34 161.11 51.98C160.28 52.54 159.25 53.3 158.64 53.3C157.09 53.3 156.03 52.0299 156.03 50.6899C156.03 49.6499 156.59 49.0001 157.73 48.6001C159 48.1601 160.59 47.62 161.06 47.23V46.72C161.06 45.3 160.37 44.49 159.31 44.49C158.85 44.49 158.56 44.71 158.35 44.96C158.12 45.26 157.98 45.7201 157.79 46.3301C157.68 46.7101 157.46 46.8501 157.13 46.8501C156.7 46.8501 156.15 46.4199 156.15 45.8999C156.15 45.5899 156.42 45.34 156.85 45.03C157.52 44.56 158.74 43.8101 159.93 43.5601C160.6 43.5601 161.26 43.7499 161.77 44.1299C162.54 44.7599 162.86 45.5001 162.86 46.5901V50.5701C162.86 51.5401 163.21 51.8301 163.58 51.8301C163.82 51.8301 164.09 51.7301 164.32 51.6101L164.53 52.22L162.66 53.3101ZM161.06 48C160.61 48.23 159.72 48.6301 159.25 48.8401C158.48 49.1901 158.01 49.5901 158.01 50.3501C158.01 51.4701 158.85 51.96 159.48 51.96C159.98 51.96 160.65 51.68 161.06 51.28C161.06 50.3 161.06 48.99 161.06 48Z" fill="#388D99"/>
<path d="M165.08 53.0601V52.45C166.4 52.31 166.54 52.2101 166.54 50.8301V40.8601C166.54 39.6101 166.43 39.4901 165.13 39.3101V38.74C166.32 38.61 167.65 38.29 168.38 38.03C168.38 39.01 168.38 40.01 168.38 40.99V50.8301C168.38 52.2201 168.49 52.32 169.83 52.45V53.0601H165.08Z" fill="#388D99"/>
<path d="M170.65 53.0601V52.45C171.97 52.31 172.11 52.2101 172.11 50.8301V40.8601C172.11 39.6101 172 39.4901 170.7 39.3101V38.74C171.89 38.61 173.22 38.29 173.95 38.03C173.95 39.01 173.95 40.01 173.95 40.99V50.8301C173.95 52.2201 174.06 52.32 175.4 52.45V53.0601H170.65Z" fill="#388D99"/>
<path d="M62.65 70.27C63.66 70.12 64.81 69.7601 65.84 69.3601C65.84 69.8501 65.84 70.52 65.84 71.01C65.9 70.97 67.52 70.03 67.6 69.99C68.11 69.71 68.55 69.5701 68.84 69.5701C71.15 69.5701 72.54 71.5401 72.54 73.6001C72.54 76.7701 70.04 78.7901 67.29 79.3101C66.68 79.2901 66.13 79.13 65.83 78.97V81.75C65.83 83.24 65.99 83.36 67.57 83.52V84.1299H62.48V83.52C63.83 83.38 63.98 83.2599 63.98 81.8999V72.3799C63.98 71.1399 63.92 71.0501 62.64 70.8701V70.27H62.65ZM65.84 77.48C66.31 77.95 67.12 78.29 67.79 78.29C69.49 78.29 70.6 76.79 70.6 74.45C70.6 72.13 69.28 70.8999 67.87 70.8999C67.17 70.8999 66.37 71.33 65.84 71.72V77.48Z" fill="#388D99"/>
<path d="M81.88 77.23C80.55 78.95 79.04 79.3201 78.33 79.3201C75.72 79.3201 74.16 77.22 74.16 74.79C74.16 73.35 74.7 72.0101 75.56 71.1001C76.45 70.1201 77.61 69.5801 78.71 69.5801C80.58 69.5801 81.97 71.1801 81.97 72.8701C81.95 73.2801 81.9 73.5001 81.58 73.5801C81.16 73.6701 78.43 73.8499 76.01 73.9299C75.97 76.6399 77.61 77.79 79.1 77.79C79.95 77.79 80.75 77.45 81.53 76.74L81.88 77.23ZM78.23 70.3799C77.29 70.3799 76.38 71.3 76.12 72.99C77.24 72.99 78.35 72.9799 79.52 72.9299C79.88 72.9299 80.01 72.83 80.01 72.51C80.03 71.41 79.34 70.3799 78.23 70.3799Z" fill="#388D99"/>
<path d="M88.02 69.5701C90.71 69.5701 92.64 71.61 92.64 74.28C92.64 77.68 90.14 79.3101 88 79.3101C85.05 79.3101 83.28 76.9701 83.28 74.6001C83.29 71.2201 85.95 69.5701 88.02 69.5701ZM87.77 70.3101C86.56 70.3101 85.45 71.5 85.45 73.96C85.45 76.62 86.57 78.5601 88.22 78.5601C89.43 78.5601 90.48 77.69 90.48 74.78C90.48 72.23 89.52 70.3101 87.77 70.3101Z" fill="#388D99"/>
<path d="M93.92 70.27C94.93 70.12 96.08 69.7601 97.11 69.3601C97.11 69.8501 97.11 70.52 97.11 71.01C97.17 70.97 98.79 70.03 98.87 69.99C99.38 69.71 99.82 69.5701 100.11 69.5701C102.42 69.5701 103.81 71.5401 103.81 73.6001C103.81 76.7701 101.31 78.7901 98.56 79.3101C97.95 79.2901 97.4 79.13 97.1 78.97V81.75C97.1 83.24 97.26 83.36 98.84 83.52V84.1299H93.75V83.52C95.1 83.38 95.25 83.2599 95.25 81.8999V72.3799C95.25 71.1399 95.19 71.0501 93.91 70.8701V70.27H93.92ZM97.11 77.48C97.58 77.95 98.39 78.29 99.06 78.29C100.76 78.29 101.87 76.79 101.87 74.45C101.87 72.13 100.55 70.8999 99.14 70.8999C98.44 70.8999 97.64 71.33 97.11 71.72V77.48Z" fill="#388D99"/>
<path d="M105.04 79.0601V78.45C106.36 78.31 106.5 78.2101 106.5 76.8301V66.8601C106.5 65.6101 106.39 65.4901 105.09 65.3101V64.74C106.28 64.61 107.61 64.29 108.34 64.03C108.34 65.01 108.34 66.01 108.34 66.99V76.8301C108.34 78.2201 108.45 78.32 109.79 78.45V79.0601H105.04Z" fill="#388D99"/>
<path d="M118.71 77.23C117.38 78.95 115.87 79.3201 115.16 79.3201C112.55 79.3201 110.99 77.22 110.99 74.79C110.99 73.35 111.53 72.0101 112.39 71.1001C113.28 70.1201 114.44 69.5801 115.54 69.5801C117.41 69.5801 118.8 71.1801 118.8 72.8701C118.78 73.2801 118.73 73.5001 118.41 73.5801C117.99 73.6701 115.26 73.8499 112.84 73.9299C112.8 76.6399 114.44 77.79 115.93 77.79C116.78 77.79 117.58 77.45 118.36 76.74L118.71 77.23ZM115.06 70.3799C114.12 70.3799 113.21 71.3 112.95 72.99C114.07 72.99 115.18 72.9799 116.35 72.9299C116.71 72.9299 116.84 72.83 116.84 72.51C116.86 71.41 116.17 70.3799 115.06 70.3799Z" fill="#388D99"/>
<path d="M125.59 72.3601C125.18 71.1001 124.61 70.29 123.38 70.29C122.67 70.29 122.11 70.8001 122.11 71.6101C122.11 72.4801 122.7 72.8999 123.86 73.4299C125.65 74.2699 126.59 74.9201 126.59 76.3501C126.59 78.3101 124.78 79.3101 123.1 79.3101C122.01 79.3101 121.01 78.96 120.57 78.71C120.47 78.12 120.28 76.92 120.2 76.22L120.82 76.1101C121.21 77.4501 121.97 78.5701 123.42 78.5701C124.22 78.5701 124.84 78.04 124.84 77.2C124.84 76.31 124.32 75.82 123.17 75.26C121.72 74.55 120.49 73.8701 120.49 72.3201C120.49 70.7601 121.8 69.5701 123.82 69.5701C124.72 69.5701 125.45 69.7801 125.88 69.8501C125.94 70.3701 126.1 71.69 126.2 72.21L125.59 72.3601Z" fill="#388D99"/>
<path d="M139.59 79.3101C139.23 79.3101 138.77 79.1399 138.55 78.8999C138.27 78.6299 138.14 78.34 138.04 77.98C137.21 78.54 136.18 79.3 135.57 79.3C134.02 79.3 132.96 78.0299 132.96 76.6899C132.96 75.6499 133.52 75.0001 134.66 74.6001C135.93 74.1601 137.52 73.62 137.99 73.23V72.72C137.99 71.3 137.3 70.49 136.24 70.49C135.78 70.49 135.49 70.71 135.28 70.96C135.05 71.26 134.91 71.7201 134.72 72.3301C134.61 72.7101 134.39 72.8501 134.06 72.8501C133.63 72.8501 133.08 72.4199 133.08 71.8999C133.08 71.5899 133.35 71.34 133.78 71.03C134.45 70.56 135.67 69.8101 136.86 69.5601C137.53 69.5601 138.19 69.7499 138.7 70.1299C139.47 70.7599 139.79 71.5001 139.79 72.5901V76.5701C139.79 77.5401 140.14 77.8301 140.51 77.8301C140.75 77.8301 141.02 77.7301 141.25 77.6101L141.46 78.22L139.59 79.3101ZM137.99 74C137.54 74.23 136.65 74.6301 136.18 74.8401C135.41 75.1901 134.94 75.5901 134.94 76.3501C134.94 77.4701 135.78 77.96 136.41 77.96C136.91 77.96 137.58 77.68 137.99 77.28C137.99 76.3 137.99 74.99 137.99 74Z" fill="#388D99"/>
<path d="M148.34 79.0601V78.45C149.5 78.32 149.61 78.19 149.61 76.76V73.27C149.61 71.8 149.05 70.8999 147.78 70.8999C146.98 70.8999 146.22 71.3499 145.59 71.9099V76.8501C145.59 78.2701 145.71 78.3199 146.88 78.4399V79.05H142.28V78.4399C143.61 78.2899 143.74 78.2101 143.74 76.8301V72.5C143.74 71.15 143.59 71.0899 142.49 70.8999V70.3301C143.55 70.1701 144.66 69.89 145.59 69.5C145.59 69.95 145.58 70.6299 145.58 71.1299C146 70.8399 146.46 70.5199 146.99 70.1799C147.59 69.7999 148.1 69.5601 148.71 69.5601C150.39 69.5601 151.45 70.8001 151.45 72.8501V76.8401C151.45 78.2401 151.58 78.3099 152.76 78.4399V79.05H148.34V79.0601Z" fill="#388D99"/>
<path d="M164.32 78.53C163.87 78.61 162.23 78.8701 160.91 79.3101C160.91 78.8801 160.91 78.41 160.91 77.97C160.53 78.21 159.99 78.5 159.61 78.74C158.83 79.19 158.31 79.3101 158.06 79.3101C156.36 79.3101 154.08 77.6599 154.08 74.6799C154.08 71.7699 156.64 69.5701 159.59 69.5701C159.86 69.5701 160.49 69.6 160.91 69.77V66.8C160.91 65.5 160.77 65.4401 159.31 65.3101V64.74C160.42 64.59 161.93 64.3 162.76 64.03C162.76 64.81 162.76 65.7001 162.76 66.5701V76.5801C162.76 77.6801 162.9 77.8201 163.68 77.8701L164.31 77.9199V78.53H164.32ZM160.91 71.48C160.47 70.77 159.63 70.4099 158.82 70.4099C157.88 70.4099 156.16 71.0401 156.16 74.0701C156.16 76.6501 157.73 77.93 159 77.95C159.69 77.95 160.42 77.63 160.91 77.27V71.48Z" fill="#388D99"/>
<path d="M80.53 96.27C81.54 96.12 82.69 95.7601 83.72 95.3601C83.72 95.8501 83.72 96.52 83.72 97.01C83.78 96.97 85.4 96.03 85.48 95.99C85.99 95.71 86.43 95.5701 86.72 95.5701C89.03 95.5701 90.42 97.5401 90.42 99.6001C90.42 102.77 87.92 104.79 85.17 105.31C84.56 105.29 84.01 105.13 83.71 104.97V107.75C83.71 109.24 83.87 109.36 85.45 109.52V110.13H80.36V109.52C81.71 109.38 81.86 109.26 81.86 107.9V98.3799C81.86 97.1399 81.8 97.0501 80.52 96.8701V96.27H80.53ZM83.72 103.48C84.19 103.95 85 104.29 85.67 104.29C87.37 104.29 88.48 102.79 88.48 100.45C88.48 98.13 87.16 96.8999 85.75 96.8999C85.05 96.8999 84.25 97.33 83.72 97.72V103.48Z" fill="#388D99"/>
<path d="M99.76 103.23C98.43 104.95 96.92 105.32 96.21 105.32C93.6 105.32 92.04 103.22 92.04 100.79C92.04 99.35 92.58 98.0101 93.44 97.1001C94.33 96.1201 95.49 95.5801 96.59 95.5801C98.46 95.5801 99.85 97.1801 99.85 98.8701C99.83 99.2801 99.78 99.5001 99.46 99.5801C99.04 99.6701 96.31 99.8499 93.89 99.9299C93.85 102.64 95.49 103.79 96.98 103.79C97.83 103.79 98.63 103.45 99.41 102.74L99.76 103.23ZM96.11 96.3799C95.17 96.3799 94.26 97.3 94 98.99C95.12 98.99 96.23 98.9799 97.4 98.9299C97.76 98.9299 97.89 98.83 97.89 98.51C97.91 97.41 97.22 96.3799 96.11 96.3799Z" fill="#388D99"/>
<path d="M106.04 105.06H101.08V104.45C102.36 104.32 102.49 104.22 102.49 102.87V98.46C102.49 97.13 102.41 97.0599 101.23 96.9099V96.3601C102.31 96.2001 103.29 95.94 104.34 95.51C104.34 96.2 104.34 97.1201 104.34 97.8101C105.11 96.6501 105.97 95.5701 106.99 95.5701C107.77 95.5701 108.23 96.0601 108.23 96.6201C108.23 97.2001 107.82 97.6899 107.45 97.8899C107.22 98.0199 107.05 97.9801 106.89 97.8401C106.57 97.5301 106.31 97.3 105.94 97.3C105.52 97.3 104.79 97.8799 104.34 98.8999V102.85C104.34 104.21 104.45 104.31 106.04 104.44V105.06Z" fill="#388D99"/>
<path d="M114.58 98.3601C114.17 97.1001 113.6 96.29 112.37 96.29C111.66 96.29 111.1 96.8001 111.1 97.6101C111.1 98.4801 111.69 98.8999 112.85 99.4299C114.64 100.27 115.58 100.92 115.58 102.35C115.58 104.31 113.77 105.31 112.09 105.31C111 105.31 110 104.96 109.56 104.71C109.46 104.12 109.27 102.92 109.19 102.22L109.81 102.11C110.2 103.45 110.96 104.57 112.41 104.57C113.21 104.57 113.83 104.04 113.83 103.2C113.83 102.31 113.31 101.82 112.16 101.26C110.71 100.55 109.48 99.8701 109.48 98.3201C109.48 96.7601 110.79 95.5701 112.81 95.5701C113.71 95.5701 114.44 95.7801 114.87 95.8501C114.93 96.3701 115.09 97.69 115.19 98.21L114.58 98.3601Z" fill="#388D99"/>
<path d="M121.76 95.5701C124.45 95.5701 126.38 97.61 126.38 100.28C126.38 103.68 123.88 105.31 121.74 105.31C118.79 105.31 117.02 102.97 117.02 100.6C117.03 97.2201 119.69 95.5701 121.76 95.5701ZM121.51 96.3101C120.3 96.3101 119.19 97.5 119.19 99.96C119.19 102.62 120.31 104.56 121.96 104.56C123.17 104.56 124.22 103.69 124.22 100.78C124.22 98.23 123.26 96.3101 121.51 96.3101Z" fill="#388D99"/>
<path d="M133.86 105.06V104.45C135.02 104.32 135.13 104.19 135.13 102.76V99.27C135.13 97.8 134.57 96.8999 133.3 96.8999C132.5 96.8999 131.74 97.3499 131.11 97.9099V102.85C131.11 104.27 131.23 104.32 132.4 104.44V105.05H127.8V104.44C129.13 104.29 129.26 104.21 129.26 102.83V98.5C129.26 97.15 129.11 97.0899 128.01 96.8999V96.3301C129.07 96.1701 130.18 95.89 131.11 95.5C131.11 95.95 131.1 96.6299 131.1 97.1299C131.52 96.8399 131.98 96.5199 132.51 96.1799C133.11 95.7999 133.62 95.5601 134.23 95.5601C135.91 95.5601 136.97 96.8001 136.97 98.8501V102.84C136.97 104.24 137.1 104.31 138.28 104.44V105.05H133.86V105.06Z" fill="#388D99"/>
<path d="M145.07 98.3601C144.66 97.1001 144.09 96.29 142.86 96.29C142.15 96.29 141.59 96.8001 141.59 97.6101C141.59 98.4801 142.18 98.8999 143.34 99.4299C145.13 100.27 146.07 100.92 146.07 102.35C146.07 104.31 144.26 105.31 142.58 105.31C141.49 105.31 140.49 104.96 140.05 104.71C139.95 104.12 139.76 102.92 139.68 102.22L140.3 102.11C140.69 103.45 141.45 104.57 142.9 104.57C143.7 104.57 144.32 104.04 144.32 103.2C144.32 102.31 143.8 101.82 142.65 101.26C141.2 100.55 139.97 99.8701 139.97 98.3201C139.97 96.7601 141.28 95.5701 143.3 95.5701C144.2 95.5701 144.93 95.7801 145.36 95.8501C145.42 96.3701 145.58 97.69 145.68 98.21L145.07 98.3601Z" fill="#388D99"/>
<path d="M59.13 122.27C60.14 122.12 61.29 121.76 62.32 121.36C62.32 121.85 62.32 122.52 62.32 123.01C62.38 122.97 64 122.03 64.08 121.99C64.59 121.71 65.03 121.57 65.32 121.57C67.63 121.57 69.02 123.54 69.02 125.6C69.02 128.77 66.52 130.79 63.77 131.31C63.16 131.29 62.61 131.13 62.31 130.97V133.75C62.31 135.24 62.47 135.36 64.05 135.52V136.13H58.96V135.52C60.31 135.38 60.46 135.26 60.46 133.9V124.38C60.46 123.14 60.4 123.05 59.12 122.87V122.27H59.13ZM62.33 129.48C62.8 129.95 63.61 130.29 64.28 130.29C65.98 130.29 67.09 128.79 67.09 126.45C67.09 124.13 65.77 122.9 64.36 122.9C63.66 122.9 62.86 123.33 62.33 123.72V129.48Z" fill="#388D99"/>
<path d="M75.51 131.06H70.55V130.45C71.83 130.32 71.96 130.22 71.96 128.87V124.46C71.96 123.13 71.88 123.06 70.7 122.91V122.36C71.78 122.2 72.76 121.94 73.81 121.51C73.81 122.2 73.81 123.12 73.81 123.81C74.58 122.65 75.44 121.57 76.46 121.57C77.24 121.57 77.7 122.06 77.7 122.62C77.7 123.2 77.29 123.69 76.92 123.89C76.69 124.02 76.52 123.98 76.36 123.84C76.04 123.53 75.78 123.3 75.41 123.3C74.99 123.3 74.26 123.88 73.81 124.9V128.85C73.81 130.21 73.92 130.31 75.51 130.44V131.06Z" fill="#388D99"/>
<path d="M83.31 121.57C86 121.57 87.93 123.61 87.93 126.28C87.93 129.68 85.43 131.31 83.29 131.31C80.34 131.31 78.57 128.97 78.57 126.6C78.58 123.22 81.24 121.57 83.31 121.57ZM83.06 122.31C81.85 122.31 80.74 123.5 80.74 125.96C80.74 128.62 81.86 130.56 83.51 130.56C84.72 130.56 85.77 129.69 85.77 126.78C85.77 124.23 84.81 122.31 83.06 122.31Z" fill="#388D99"/>
<path d="M90.79 121.82V121.28C90.79 119.78 91.36 118.24 92.66 117.14C93.4 116.49 94.2 116.14 95.05 116.03C95.78 116.05 96.43 116.3 96.77 116.69C96.98 116.93 97.01 117.16 96.91 117.46C96.84 117.7 96.59 118 96.36 118.18C96.11 118.34 95.93 118.29 95.72 118.14C95.28 117.74 94.69 117.22 94.02 117.22C92.64 117.22 92.63 119.06 92.63 120.86V121.83H94.8C94.92 122.02 94.82 122.57 94.57 122.72H92.62V128.77C92.62 130.24 92.84 130.28 94.37 130.45V131.06H89.35V130.45C90.65 130.32 90.78 130.23 90.78 128.87V122.71H89.31L89.22 122.47L89.7 121.81H90.79V121.82Z" fill="#388D99"/>
<path d="M103.33 129.23C102 130.95 100.49 131.32 99.78 131.32C97.17 131.32 95.61 129.22 95.61 126.79C95.61 125.35 96.15 124.01 97.01 123.1C97.9 122.12 99.06 121.58 100.16 121.58C102.03 121.58 103.42 123.18 103.42 124.87C103.4 125.28 103.35 125.5 103.03 125.58C102.61 125.67 99.88 125.85 97.46 125.93C97.42 128.64 99.06 129.79 100.55 129.79C101.4 129.79 102.2 129.45 102.98 128.74L103.33 129.23ZM99.68 122.38C98.74 122.38 97.83 123.3 97.57 124.99C98.69 124.99 99.8 124.98 100.97 124.93C101.33 124.93 101.46 124.83 101.46 124.51C101.48 123.41 100.79 122.38 99.68 122.38Z" fill="#388D99"/>
<path d="M110.21 124.36C109.8 123.1 109.23 122.29 108 122.29C107.29 122.29 106.73 122.8 106.73 123.61C106.73 124.48 107.32 124.9 108.48 125.43C110.27 126.27 111.21 126.92 111.21 128.35C111.21 130.31 109.4 131.31 107.72 131.31C106.63 131.31 105.63 130.96 105.19 130.71C105.09 130.12 104.9 128.92 104.82 128.22L105.44 128.11C105.83 129.45 106.59 130.57 108.04 130.57C108.84 130.57 109.46 130.04 109.46 129.2C109.46 128.31 108.94 127.82 107.79 127.26C106.34 126.55 105.11 125.87 105.11 124.32C105.11 122.76 106.42 121.57 108.44 121.57C109.34 121.57 110.07 121.78 110.5 121.85C110.56 122.37 110.72 123.69 110.82 124.21L110.21 124.36Z" fill="#388D99"/>
<path d="M118.13 124.36C117.72 123.1 117.15 122.29 115.92 122.29C115.21 122.29 114.65 122.8 114.65 123.61C114.65 124.48 115.24 124.9 116.4 125.43C118.19 126.27 119.13 126.92 119.13 128.35C119.13 130.31 117.32 131.31 115.64 131.31C114.55 131.31 113.55 130.96 113.11 130.71C113.01 130.12 112.82 128.92 112.74 128.22L113.36 128.11C113.75 129.45 114.51 130.57 115.96 130.57C116.76 130.57 117.38 130.04 117.38 129.2C117.38 128.31 116.86 127.82 115.71 127.26C114.26 126.55 113.03 125.87 113.03 124.32C113.03 122.76 114.34 121.57 116.36 121.57C117.26 121.57 117.99 121.78 118.42 121.85C118.48 122.37 118.64 123.69 118.74 124.21L118.13 124.36Z" fill="#388D99"/>
<path d="M120.46 131.06V130.45C121.75 130.32 121.89 130.22 121.89 128.78V124.5C121.89 123.18 121.82 123.1 120.61 122.9V122.36C121.74 122.18 122.79 121.9 123.74 121.53C123.74 122.41 123.74 123.29 123.74 124.17V128.78C123.74 130.21 123.88 130.32 125.21 130.45V131.06H120.46ZM122.7 119.62C122.07 119.62 121.52 119.07 121.52 118.44C121.52 117.73 122.08 117.23 122.73 117.23C123.36 117.23 123.88 117.74 123.88 118.44C123.87 119.07 123.35 119.62 122.7 119.62Z" fill="#388D99"/>
<path d="M131.08 121.57C133.77 121.57 135.7 123.61 135.7 126.28C135.7 129.68 133.2 131.31 131.06 131.31C128.11 131.31 126.34 128.97 126.34 126.6C126.35 123.22 129.01 121.57 131.08 121.57ZM130.83 122.31C129.62 122.31 128.51 123.5 128.51 125.96C128.51 128.62 129.63 130.56 131.28 130.56C132.49 130.56 133.54 129.69 133.54 126.78C133.54 124.23 132.58 122.31 130.83 122.31Z" fill="#388D99"/>
<path d="M143.19 131.06V130.45C144.35 130.32 144.46 130.19 144.46 128.76V125.27C144.46 123.8 143.9 122.9 142.63 122.9C141.83 122.9 141.07 123.35 140.44 123.91V128.85C140.44 130.27 140.56 130.32 141.73 130.44V131.05H137.13V130.44C138.46 130.29 138.59 130.21 138.59 128.83V124.5C138.59 123.15 138.44 123.09 137.34 122.9V122.33C138.4 122.17 139.51 121.89 140.44 121.5C140.44 121.95 140.43 122.63 140.43 123.13C140.85 122.84 141.31 122.52 141.84 122.18C142.44 121.8 142.95 121.56 143.56 121.56C145.24 121.56 146.3 122.8 146.3 124.85V128.84C146.3 130.24 146.43 130.31 147.61 130.44V131.05H143.19V131.06Z" fill="#388D99"/>
<path d="M155.63 131.31C155.27 131.31 154.81 131.14 154.59 130.9C154.31 130.63 154.18 130.34 154.08 129.98C153.25 130.54 152.22 131.3 151.61 131.3C150.06 131.3 149 130.03 149 128.69C149 127.65 149.56 127 150.7 126.6C151.97 126.16 153.56 125.62 154.03 125.23V124.72C154.03 123.3 153.34 122.49 152.28 122.49C151.82 122.49 151.53 122.71 151.32 122.96C151.09 123.26 150.95 123.72 150.76 124.33C150.65 124.71 150.43 124.85 150.1 124.85C149.67 124.85 149.12 124.42 149.12 123.9C149.12 123.59 149.39 123.34 149.82 123.03C150.49 122.56 151.71 121.81 152.9 121.56C153.57 121.56 154.23 121.75 154.74 122.13C155.51 122.76 155.83 123.5 155.83 124.59V128.57C155.83 129.54 156.18 129.83 156.55 129.83C156.79 129.83 157.06 129.73 157.29 129.61L157.5 130.22L155.63 131.31ZM154.02 126C153.57 126.23 152.68 126.63 152.21 126.84C151.44 127.19 150.97 127.59 150.97 128.35C150.97 129.47 151.81 129.96 152.44 129.96C152.94 129.96 153.61 129.68 154.02 129.28C154.02 128.3 154.02 126.99 154.02 126Z" fill="#388D99"/>
<path d="M158.05 131.06V130.45C159.37 130.31 159.51 130.21 159.51 128.83V118.86C159.51 117.61 159.4 117.49 158.1 117.31V116.74C159.29 116.61 160.62 116.29 161.35 116.03C161.35 117.01 161.35 118.01 161.35 118.99V128.83C161.35 130.22 161.46 130.32 162.8 130.45V131.06H158.05Z" fill="#388D99"/>
<path d="M164.14 133C165.14 132.54 165.88 131.96 165.88 131.15C165.88 130.41 165.28 130.18 164.48 129.99C164.35 129.97 164.14 129.71 164.14 129.3C164.14 128.75 164.57 128.19 165.38 128.19C166.2 128.19 167.24 128.94 167.24 130.49C167.24 132.21 165.71 133.26 164.42 133.63L164.14 133Z" fill="#388D99"/>
<path d="M71.01 155.14C70.08 156.39 68.67 157.31 67.41 157.31C64.7 157.31 63.1 155.14 63.1 152.88C63.1 151.24 63.83 149.84 65.22 148.78C66.38 147.89 67.65 147.56 68.49 147.56C69.41 147.56 70.1 147.84 70.42 148.12C70.71 148.35 70.77 148.51 70.77 148.76C70.77 149.28 70.23 149.75 69.98 149.75C69.87 149.75 69.77 149.7 69.57 149.54C68.87 148.92 68.16 148.62 67.44 148.62C66.16 148.62 64.98 149.73 64.98 151.93C64.96 154.83 66.97 155.78 68.13 155.78C69.01 155.78 69.71 155.55 70.63 154.67L71.01 155.14Z" fill="#388D99"/>
<path d="M82.26 156.57C81.21 156.72 80.03 156.99 78.91 157.31C78.91 156.95 78.91 156.24 78.91 155.73C77.83 156.63 76.91 157.31 75.75 157.31C74.28 157.31 73.1 156.4 73.1 154.19V150.07C73.1 148.97 72.94 148.84 72.41 148.73L71.85 148.62V148.05C72.78 148.01 74.22 147.81 75.02 147.68C74.96 148.39 74.96 149.41 74.96 150.76V153.65C74.96 155.41 75.88 155.92 76.78 155.92C77.52 155.92 78.24 155.62 78.91 154.98V150.06C78.91 148.96 78.68 148.81 77.99 148.7L77.33 148.61V148.04C78.65 147.98 80.18 147.76 80.76 147.67V154.67C80.76 155.73 80.92 155.89 81.7 155.94L82.27 155.96V156.57H82.26Z" fill="#388D99"/>
<path d="M83 157.06V156.45C84.32 156.31 84.46 156.21 84.46 154.83V144.86C84.46 143.61 84.35 143.49 83.05 143.31V142.74C84.24 142.61 85.57 142.29 86.3 142.03C86.3 143.01 86.3 144.01 86.3 144.99V154.83C86.3 156.22 86.41 156.32 87.75 156.45V157.06H83Z" fill="#388D99"/>
<path d="M93.06 157.05C92.7 157.24 92.37 157.32 92.17 157.32C90.78 157.32 90.02 156.51 90.02 154.79V148.72H88.59L88.5 148.47L89.07 147.83H90.02V146.07C90.48 145.64 91.16 145.07 91.62 144.63L91.93 144.69C91.89 145.52 91.87 146.71 91.87 147.82H94.21C94.4 148.03 94.33 148.53 94.08 148.71H91.87V154.04C91.87 155.73 92.54 156.02 93.06 156.02C93.54 156.02 93.98 155.85 94.29 155.71L94.48 156.29L93.06 157.05Z" fill="#388D99"/>
<path d="M105.61 156.57C104.56 156.72 103.38 156.99 102.26 157.31C102.26 156.95 102.26 156.24 102.26 155.73C101.18 156.63 100.26 157.31 99.1 157.31C97.63 157.31 96.45 156.4 96.45 154.19V150.07C96.45 148.97 96.29 148.84 95.76 148.73L95.2 148.62V148.05C96.13 148.01 97.57 147.81 98.37 147.68C98.31 148.39 98.31 149.41 98.31 150.76V153.65C98.31 155.41 99.23 155.92 100.13 155.92C100.87 155.92 101.59 155.62 102.26 154.98V150.06C102.26 148.96 102.03 148.81 101.34 148.7L100.68 148.61V148.04C102 147.98 103.53 147.76 104.11 147.67V154.67C104.11 155.73 104.27 155.89 105.05 155.94L105.62 155.96V156.57H105.61Z" fill="#388D99"/>
<path d="M111.61 157.06H106.65V156.45C107.93 156.32 108.06 156.22 108.06 154.87V150.46C108.06 149.13 107.98 149.06 106.8 148.91V148.36C107.88 148.2 108.86 147.94 109.91 147.51C109.91 148.2 109.91 149.12 109.91 149.81C110.68 148.65 111.54 147.57 112.56 147.57C113.34 147.57 113.8 148.06 113.8 148.62C113.8 149.2 113.39 149.69 113.02 149.89C112.79 150.02 112.62 149.98 112.46 149.84C112.14 149.53 111.88 149.3 111.51 149.3C111.09 149.3 110.36 149.88 109.91 150.9V154.85C109.91 156.21 110.02 156.31 111.61 156.44V157.06Z" fill="#388D99"/>
<path d="M121.38 157.31C121.02 157.31 120.56 157.14 120.34 156.9C120.06 156.63 119.93 156.34 119.83 155.98C119 156.54 117.97 157.3 117.36 157.3C115.81 157.3 114.75 156.03 114.75 154.69C114.75 153.65 115.31 153 116.45 152.6C117.72 152.16 119.31 151.62 119.78 151.23V150.72C119.78 149.3 119.09 148.49 118.03 148.49C117.57 148.49 117.28 148.71 117.07 148.96C116.84 149.26 116.7 149.72 116.51 150.33C116.4 150.71 116.18 150.85 115.85 150.85C115.42 150.85 114.87 150.42 114.87 149.9C114.87 149.59 115.14 149.34 115.57 149.03C116.24 148.56 117.46 147.81 118.65 147.56C119.32 147.56 119.98 147.75 120.49 148.13C121.26 148.76 121.58 149.5 121.58 150.59V154.57C121.58 155.54 121.93 155.83 122.3 155.83C122.54 155.83 122.81 155.73 123.04 155.61L123.25 156.22L121.38 157.31ZM119.77 152C119.32 152.23 118.43 152.63 117.96 152.84C117.19 153.19 116.72 153.59 116.72 154.35C116.72 155.47 117.56 155.96 118.19 155.96C118.69 155.96 119.36 155.68 119.77 155.28C119.77 154.3 119.77 152.99 119.77 152Z" fill="#388D99"/>
<path d="M123.8 157.06V156.45C125.12 156.31 125.26 156.21 125.26 154.83V144.86C125.26 143.61 125.15 143.49 123.85 143.31V142.74C125.04 142.61 126.37 142.29 127.1 142.03C127.1 143.01 127.1 144.01 127.1 144.99V154.83C127.1 156.22 127.21 156.32 128.55 156.45V157.06H123.8Z" fill="#388D99"/>
<path d="M129.36 157.06V156.45C130.68 156.31 130.82 156.21 130.82 154.83V144.86C130.82 143.61 130.71 143.49 129.41 143.31V142.74C130.6 142.61 131.93 142.29 132.66 142.03C132.66 143.01 132.66 144.01 132.66 144.99V154.83C132.66 156.22 132.77 156.32 134.11 156.45V157.06H129.36Z" fill="#388D99"/>
<path d="M144.49 148.42C143.41 148.58 143.19 148.76 142.66 149.95C142.14 151.11 141.56 152.56 140.16 156.09C138.78 159.46 138.4 160.77 138.06 161.88C137.93 162.33 137.7 162.44 137.41 162.44C136.71 162.44 136.06 161.93 136.06 161.37C136.06 161.09 136.2 160.9 136.54 160.63C137.24 160.12 137.74 159.63 138.01 159.08C138.41 158.29 138.71 157.59 138.81 157.32C138.89 157.01 138.89 156.82 138.76 156.47C137.89 153.96 136.72 151.33 136.14 149.93C135.69 148.82 135.49 148.57 134.36 148.43V147.84H138.78V148.43C137.83 148.58 137.71 148.78 137.98 149.53L139.94 154.56C140.51 153.16 141.33 150.91 141.76 149.61C142 148.83 141.83 148.6 140.65 148.43V147.84H144.49V148.42Z" fill="#388D99"/>
<path d="M164.03 148.75C162.58 148.91 162.33 149.27 161.63 150.29C161.07 151.08 160.5 151.91 159.77 153C160.76 153.94 162.7 156.1 163.37 157.21L163.25 157.44C161.93 157.36 160.73 156.87 160.47 156.6C160.21 156.31 159.26 155.4 158.58 154.67C157.08 156.65 155.72 157.35 154.21 157.35C151.46 157.35 149.98 155.36 149.98 153.53C150 151.61 151.08 150.84 153.1 149.57C152.12 148.72 151.5 147.76 151.5 146.58C151.52 144.69 153.1 143.23 155.05 143.23C156.86 143.23 158.25 144.45 158.25 146.15C158.23 146.99 157.83 147.62 157.34 148C156.92 148.33 156.31 148.71 155.55 149.16C156.22 149.73 157.86 151.1 159.23 152.44C159.69 151.72 160.11 151.06 160.49 150.16C160.9 149.2 160.75 148.92 159.22 148.75V148.11H164.04V148.75H164.03ZM154.8 155.82C156.16 155.82 157.01 155.34 158.02 154.07C156.85 152.79 155.47 151.62 153.67 150.08C152.32 151 151.93 151.85 151.93 152.91C151.94 154.89 153.43 155.82 154.8 155.82ZM154.82 143.98C153.8 143.98 153.17 144.8 153.17 145.98C153.17 147.05 153.7 147.69 154.99 148.71C156.08 147.92 156.58 147.26 156.58 146.15C156.56 144.97 155.97 143.98 154.82 143.98Z" fill="#388D99"/>
<path d="M85.46 176.36C85.05 175.1 84.48 174.29 83.25 174.29C82.54 174.29 81.98 174.8 81.98 175.61C81.98 176.48 82.57 176.9 83.73 177.43C85.52 178.27 86.46 178.92 86.46 180.35C86.46 182.31 84.65 183.31 82.97 183.31C81.88 183.31 80.88 182.96 80.44 182.71C80.34 182.12 80.15 180.92 80.07 180.22L80.69 180.11C81.08 181.45 81.84 182.57 83.29 182.57C84.09 182.57 84.71 182.04 84.71 181.2C84.71 180.31 84.19 179.82 83.04 179.26C81.59 178.55 80.36 177.87 80.36 176.32C80.36 174.76 81.67 173.57 83.69 173.57C84.59 173.57 85.32 173.78 85.75 173.85C85.81 174.37 85.97 175.69 86.07 176.21L85.46 176.36Z" fill="#388D99"/>
<path d="M92.65 173.57C95.34 173.57 97.27 175.61 97.27 178.28C97.27 181.68 94.77 183.31 92.63 183.31C89.68 183.31 87.91 180.97 87.91 178.6C87.91 175.22 90.57 173.57 92.65 173.57ZM92.39 174.31C91.18 174.31 90.07 175.5 90.07 177.96C90.07 180.62 91.19 182.56 92.84 182.56C94.05 182.56 95.1 181.69 95.1 178.78C95.1 176.23 94.14 174.31 92.39 174.31Z" fill="#388D99"/>
<path d="M106.72 181.14C105.79 182.39 104.38 183.31 103.12 183.31C100.41 183.31 98.81 181.14 98.81 178.88C98.81 177.24 99.54 175.84 100.93 174.78C102.09 173.89 103.36 173.56 104.2 173.56C105.12 173.56 105.81 173.84 106.13 174.12C106.42 174.35 106.48 174.51 106.48 174.76C106.48 175.28 105.94 175.75 105.69 175.75C105.58 175.75 105.48 175.7 105.28 175.54C104.58 174.92 103.87 174.62 103.15 174.62C101.87 174.62 100.69 175.73 100.69 177.93C100.67 180.83 102.68 181.78 103.84 181.78C104.72 181.78 105.42 181.55 106.34 180.67L106.72 181.14Z" fill="#388D99"/>
<path d="M107.71 183.06V182.45C109 182.32 109.14 182.22 109.14 180.78V176.5C109.14 175.18 109.07 175.1 107.86 174.9V174.36C108.99 174.18 110.04 173.9 110.99 173.53C110.99 174.41 110.99 175.29 110.99 176.17V180.78C110.99 182.21 111.13 182.32 112.46 182.45V183.06H107.71ZM109.94 171.62C109.31 171.62 108.76 171.07 108.76 170.44C108.76 169.73 109.32 169.23 109.97 169.23C110.6 169.23 111.12 169.74 111.12 170.44C111.11 171.07 110.59 171.62 109.94 171.62Z" fill="#388D99"/>
<path d="M120.29 183.31C119.93 183.31 119.47 183.14 119.25 182.9C118.97 182.63 118.84 182.34 118.74 181.98C117.91 182.54 116.88 183.3 116.27 183.3C114.72 183.3 113.66 182.03 113.66 180.69C113.66 179.65 114.22 179 115.36 178.6C116.63 178.16 118.22 177.62 118.69 177.23V176.72C118.69 175.3 118 174.49 116.94 174.49C116.48 174.49 116.19 174.71 115.98 174.96C115.75 175.26 115.61 175.72 115.42 176.33C115.31 176.71 115.09 176.85 114.76 176.85C114.33 176.85 113.78 176.42 113.78 175.9C113.78 175.59 114.05 175.34 114.48 175.03C115.15 174.56 116.37 173.81 117.56 173.56C118.23 173.56 118.89 173.75 119.4 174.13C120.17 174.76 120.49 175.5 120.49 176.59V180.57C120.49 181.54 120.84 181.83 121.21 181.83C121.45 181.83 121.72 181.73 121.95 181.61L122.16 182.22L120.29 183.31ZM118.69 178C118.24 178.23 117.35 178.63 116.88 178.84C116.11 179.19 115.64 179.59 115.64 180.35C115.64 181.47 116.48 181.96 117.11 181.96C117.61 181.96 118.28 181.68 118.69 181.28C118.69 180.3 118.69 178.99 118.69 178Z" fill="#388D99"/>
<path d="M122.72 183.06V182.45C124.04 182.31 124.18 182.21 124.18 180.83V170.86C124.18 169.61 124.07 169.49 122.77 169.31V168.74C123.96 168.61 125.29 168.29 126.02 168.03C126.02 169.01 126.02 170.01 126.02 170.99V180.83C126.02 182.22 126.13 182.32 127.47 182.45V183.06H122.72Z" fill="#388D99"/>
<path d="M128.28 183.06V182.45C129.6 182.31 129.74 182.21 129.74 180.83V170.86C129.74 169.61 129.63 169.49 128.33 169.31V168.74C129.52 168.61 130.85 168.29 131.58 168.03C131.58 169.01 131.58 170.01 131.58 170.99V180.83C131.58 182.22 131.69 182.32 133.03 182.45V183.06H128.28Z" fill="#388D99"/>
<path d="M143.41 174.42C142.33 174.58 142.11 174.76 141.58 175.95C141.06 177.11 140.48 178.56 139.08 182.09C137.7 185.46 137.32 186.77 136.98 187.88C136.85 188.33 136.62 188.44 136.33 188.44C135.63 188.44 134.98 187.93 134.98 187.37C134.98 187.09 135.12 186.9 135.46 186.63C136.16 186.12 136.66 185.63 136.93 185.08C137.33 184.29 137.63 183.59 137.73 183.32C137.81 183.01 137.81 182.82 137.68 182.47C136.81 179.96 135.64 177.33 135.06 175.93C134.61 174.82 134.41 174.57 133.28 174.43V173.84H137.7V174.43C136.75 174.58 136.63 174.78 136.9 175.53L138.86 180.56C139.43 179.16 140.25 176.91 140.68 175.61C140.92 174.83 140.75 174.6 139.57 174.43V173.84H143.41V174.42Z" fill="#388D99"/>
<path d="M145.24 183.35C144.44 183.35 143.88 182.77 143.88 181.93C143.88 181.13 144.44 180.51 145.24 180.51C146.04 180.51 146.63 181.12 146.63 181.93C146.64 182.77 146.04 183.35 145.24 183.35Z" fill="#388D99"/>
<defs>
<linearGradient id="paint0_linear" x1="7.5071" y1="2.03428" x2="236.044" y2="297.055" gradientUnits="userSpaceOnUse">
<stop stop-color="#004A48"/>
<stop offset="0.1386" stop-color="#1B5B5C"/>
<stop offset="0.3173" stop-color="#287075"/>
<stop offset="0.4892" stop-color="#317F88"/>
<stop offset="0.6495" stop-color="#368994"/>
<stop offset="0.7867" stop-color="#388C98"/>
</linearGradient>
</defs>
</svg>
