<?xml version="1.0" encoding="utf-8"?>
<!-- Generator: Adobe Illustrator 23.0.1, SVG Export Plug-In . SVG Version: 6.00 Build 0)  -->
<svg version="1.1" id="Camada_1" xmlns="http://www.w3.org/2000/svg" xmlns:xlink="http://www.w3.org/1999/xlink" x="0px" y="0px"
	 viewBox="0 0 220.64 270.42" style="enable-background:new 0 0 220.64 270.42;" xml:space="preserve">
<style type="text/css">
	.st0{fill:url(#SVGID_1_);}
	.st1{fill:url(#SVGID_2_);}
	.st2{fill:url(#SVGID_3_);}
	.st3{fill:url(#SVGID_4_);}
	.st4{fill:url(#SVGID_5_);}
	.st5{fill:url(#SVGID_6_);}
	.st6{fill:url(#SVGID_7_);}
	.st7{fill:url(#SVGID_8_);}
	.st8{fill:url(#SVGID_9_);}
	.st9{fill:url(#SVGID_10_);}
	.st10{fill:url(#SVGID_11_);}
	.st11{fill:url(#SVGID_12_);}
	.st12{fill:url(#SVGID_13_);}
	.st13{fill:url(#SVGID_14_);}
	.st14{fill:url(#SVGID_15_);}
	.st15{fill:url(#SVGID_16_);}
	.st16{fill:url(#SVGID_17_);}
	.st17{fill:url(#SVGID_18_);}
	.st18{fill:url(#SVGID_19_);}
	.st19{fill:url(#SVGID_20_);}
	.st20{fill:url(#SVGID_21_);}
	.st21{fill:url(#SVGID_22_);}
	.st22{fill:url(#SVGID_23_);}
	.st23{fill:url(#SVGID_24_);}
	.st24{fill:url(#SVGID_25_);}
	.st25{fill:url(#SVGID_26_);}
	.st26{fill:url(#SVGID_27_);}
	.st27{fill:url(#SVGID_28_);}
	.st28{fill:url(#SVGID_29_);}
	.st29{fill:url(#SVGID_30_);}
	.st30{fill:url(#SVGID_31_);}
	.st31{fill:url(#SVGID_32_);}
	.st32{fill:url(#SVGID_33_);}
	.st33{fill:url(#SVGID_34_);}
	.st34{fill:url(#SVGID_35_);}
	.st35{fill:url(#SVGID_36_);}
	.st36{fill:url(#SVGID_37_);}
	.st37{fill:url(#SVGID_38_);}
	.st38{fill:url(#SVGID_39_);}
	.st39{fill:url(#SVGID_40_);}
	.st40{fill:url(#SVGID_41_);}
	.st41{fill:url(#SVGID_42_);}
	.st42{fill:url(#SVGID_43_);}
	.st43{fill:url(#SVGID_44_);}
	.st44{fill:url(#SVGID_45_);}
	.st45{fill:url(#SVGID_46_);}
	.st46{fill:url(#SVGID_47_);}
	.st47{fill:url(#SVGID_48_);}
	.st48{fill:url(#SVGID_49_);}
	.st49{fill:url(#SVGID_50_);}
	.st50{fill:url(#SVGID_51_);}
	.st51{clip-path:url(#SVGID_65_);fill:url(#SVGID_66_);}
	.st52{clip-path:url(#SVGID_65_);fill:url(#SVGID_67_);}
	.st53{clip-path:url(#SVGID_65_);fill:url(#SVGID_68_);}
	.st54{clip-path:url(#SVGID_65_);fill:url(#SVGID_69_);}
	.st55{clip-path:url(#SVGID_65_);fill:url(#SVGID_70_);}
	.st56{fill:none;stroke:#FFFFFF;stroke-miterlimit:10;}
	.st57{opacity:0.5;}
	.st58{fill:none;stroke:#FFFFFF;stroke-width:0.75;stroke-miterlimit:10;}
	.st59{fill:url(#SVGID_73_);}
	.st60{opacity:0.75;}
	.st61{fill:#004543;}
	.st62{fill:#388D99;}
	.st63{fill:#003C39;}
	.st64{fill:#FFFFFF;}
	.st65{fill:url(#SVGID_82_);}
	.st66{fill:url(#SVGID_83_);}
	.st67{fill:url(#SVGID_84_);}
	.st68{fill:url(#SVGID_85_);}
	.st69{fill:url(#SVGID_86_);}
	.st70{fill:url(#SVGID_87_);}
	.st71{fill:url(#SVGID_88_);}
	.st72{fill:url(#SVGID_89_);}
	.st73{fill:url(#SVGID_90_);}
	.st74{fill:url(#SVGID_91_);}
	.st75{fill:url(#SVGID_92_);}
	.st76{fill:#3B6C68;}
	.st77{fill:url(#SVGID_93_);}
	.st78{fill:url(#SVGID_94_);}
	.st79{fill:url(#SVGID_95_);}
	.st80{fill:url(#SVGID_96_);}
	.st81{fill:url(#SVGID_97_);}
	.st82{fill:url(#SVGID_98_);}
	.st83{fill:url(#SVGID_99_);}
	.st84{fill:url(#SVGID_100_);}
	.st85{fill:url(#SVGID_101_);}
	.st86{fill:url(#SVGID_102_);}
	.st87{fill:#0A5D58;}
	.st88{fill:#3995A2;}
	.st89{fill:none;stroke:#FFFFFF;stroke-width:2;stroke-miterlimit:10;}
	.st90{fill:none;stroke:#3B6C68;stroke-width:2;stroke-miterlimit:10;}
	.st91{fill:#004543;stroke:#004543;stroke-width:2;stroke-miterlimit:10;}
	.st92{fill:#FFFFFF;stroke:#388D99;stroke-width:2;stroke-miterlimit:10;}
	.st93{fill:#00423C;}
	.st94{fill:#CEE4EA;}
	.st95{fill:#92C3CD;}
	.st96{fill:#89BDC2;}
	.st97{fill:#D8E8EC;}
	.st98{fill:#F2DED1;}
	.st99{fill:#D17A5B;}
	.st100{fill:#CECED8;}
	.st101{fill:#D37D22;}
	.st102{fill:#7B5B9B;}
	.st103{fill:#B74C52;}
	.st104{fill:#E6B991;}
	.st105{fill:#7BB7BE;}
	.st106{fill:#C8543E;}
	.st107{fill:#D7BB46;}
	.st108{fill:url(#SVGID_103_);}
	.st109{fill:url(#SVGID_104_);}
	.st110{fill:url(#SVGID_105_);}
	.st111{fill:url(#SVGID_106_);}
	.st112{fill:url(#SVGID_107_);}
	.st113{fill:url(#SVGID_108_);}
	.st114{fill:url(#SVGID_109_);}
	.st115{fill:url(#SVGID_110_);}
	.st116{fill:url(#SVGID_111_);}
	.st117{fill:url(#SVGID_112_);}
	.st118{fill:url(#SVGID_113_);}
	.st119{fill:url(#SVGID_114_);}
	.st120{fill:url(#SVGID_115_);}
	.st121{fill:url(#SVGID_116_);}
	.st122{fill:url(#SVGID_117_);}
	.st123{fill:url(#SVGID_118_);}
	.st124{fill:url(#SVGID_119_);}
	.st125{fill:url(#SVGID_120_);}
	.st126{fill:url(#SVGID_121_);}
	.st127{fill:url(#SVGID_122_);}
	.st128{fill:url(#SVGID_123_);}
	.st129{fill:url(#SVGID_124_);}
	.st130{fill:url(#SVGID_125_);}
	.st131{fill:url(#SVGID_126_);}
	.st132{fill:url(#SVGID_127_);}
	.st133{fill:url(#SVGID_128_);}
	.st134{fill:url(#SVGID_129_);}
	.st135{fill:url(#SVGID_130_);}
	.st136{fill:url(#SVGID_131_);}
	.st137{fill:url(#SVGID_132_);}
	.st138{fill:url(#SVGID_133_);}
	.st139{fill:url(#SVGID_134_);}
	.st140{fill:url(#SVGID_135_);}
	.st141{fill:url(#SVGID_136_);}
	.st142{fill:url(#SVGID_137_);}
	.st143{fill:url(#SVGID_138_);}
	.st144{fill:url(#SVGID_139_);}
	.st145{fill:url(#SVGID_140_);}
	.st146{fill:url(#SVGID_141_);}
	.st147{fill:url(#SVGID_142_);}
	.st148{fill:url(#SVGID_143_);}
	.st149{fill:url(#SVGID_144_);}
	.st150{fill:url(#SVGID_145_);}
	.st151{fill:url(#SVGID_146_);}
	.st152{fill:url(#SVGID_147_);}
	.st153{fill:url(#SVGID_148_);}
	.st154{fill:url(#SVGID_149_);}
	.st155{fill:url(#SVGID_150_);}
	.st156{fill:url(#SVGID_151_);}
	.st157{fill:url(#SVGID_152_);}
	.st158{fill:url(#SVGID_153_);}
	.st159{clip-path:url(#SVGID_167_);fill:url(#SVGID_168_);}
	.st160{clip-path:url(#SVGID_167_);fill:url(#SVGID_169_);}
	.st161{clip-path:url(#SVGID_167_);fill:url(#SVGID_170_);}
	.st162{clip-path:url(#SVGID_167_);fill:url(#SVGID_171_);}
	.st163{clip-path:url(#SVGID_167_);fill:url(#SVGID_172_);}
	.st164{fill:#A18FB2;}
	.st165{fill:#D88D3D;}
	.st166{fill:#967E23;}
	.st167{fill:none;stroke:#7BB7BE;stroke-width:4;stroke-miterlimit:10;}
	.st168{fill:none;stroke:#7B5B9B;stroke-width:5;stroke-miterlimit:10;}
	.st169{fill:#CD6E7F;}
	.st170{fill:#004947;}
	.st171{fill:url(#SVGID_175_);}
	.st172{fill:url(#SVGID_176_);}
	.st173{fill:url(#SVGID_177_);}
	.st174{fill:url(#SVGID_178_);}
</style>
<g>
	<g>
		<g>
			<g>
				<linearGradient id="SVGID_1_" gradientUnits="userSpaceOnUse" x1="6.6666" y1="1.4037" x2="235.2038" y2="296.4244">
					<stop  offset="0" style="stop-color:#004A48"/>
					<stop  offset="0.1386" style="stop-color:#1B5B5C"/>
					<stop  offset="0.3173" style="stop-color:#287075"/>
					<stop  offset="0.4892" style="stop-color:#317F88"/>
					<stop  offset="0.6495" style="stop-color:#368994"/>
					<stop  offset="0.7867" style="stop-color:#388C98"/>
				</linearGradient>
				<rect class="st0" width="220.64" height="270.42"/>
				<g>
					<rect x="4.92" y="5.01" class="st64" width="215.21" height="264.91"/>
					<path class="st62" d="M219.64,5.51v263.91H5.42V5.51H219.64 M220.64,4.51H4.42v265.91h216.21V4.51L220.64,4.51z"/>
				</g>
			</g>
		</g>
		<rect x="4.42" y="224.35" class="st95" width="216.21" height="46.07"/>
		<polygon class="st170" points="220.64,270.42 220.64,236.44 187.03,270.42 		"/>
		<g>
			<g>
				<path class="st64" d="M76.23,253.09c-0.2,0-0.48-0.01-0.78-0.03c-2.59-0.13-3.5-0.72-4.34-1.89c-0.94-1.29-1.69-2.77-2.49-4.13
					c-0.4-0.69-0.73-0.83-1.66-0.83l-0.61-0.02v3.6c0,1.98,0.25,2.13,2.09,2.34v0.81h-7.02v-0.81c1.88-0.2,2.08-0.36,2.08-2.34
					v-9.33c0-1.95-0.25-2.14-2.08-2.31v-0.81h6.67c2,0,3.21,0.23,4.17,0.88c0.97,0.64,1.62,1.7,1.62,3.18c0,2.11-1.38,3.3-3.03,3.97
					c0.38,0.73,1.35,2.3,2.07,3.4c0.86,1.3,1.36,1.93,1.85,2.49c0.59,0.65,0.95,0.87,1.6,1.07L76.23,253.09z M67.19,245.25
					c1.11,0,1.9-0.18,2.45-0.65c0.84-0.68,1.2-1.61,1.2-2.86c0-2.55-1.55-3.47-3.07-3.47c-0.67,0-1.01,0.1-1.16,0.24
					c-0.18,0.15-0.24,0.42-0.24,0.95v5.79H67.19z"/>
				<path class="st64" d="M89.68,248.94c-0.13,0.64-0.79,3.3-1.02,3.99H76.48v-0.8c2.2-0.2,2.35-0.35,2.35-2.35v-9.28
					c0-2.07-0.28-2.21-1.97-2.36v-0.81h7.64c2.43,0,3.3-0.02,3.62-0.05c0.02,0.49,0.14,2.4,0.23,3.81l-0.86,0.12
					c-0.22-0.82-0.57-1.63-0.92-2.09c-0.42-0.59-0.81-0.74-2.11-0.74h-1.81c-0.85,0-0.93,0.06-0.93,0.83v5.12h2.46
					c1.5,0,1.7-0.36,2.04-2.04h0.87v5.21h-0.87c-0.36-1.76-0.55-2.03-2.06-2.03h-2.44v4.36c0,1.66,0.22,2.04,1.6,2.07h1.89
					c1.39,0,1.7-0.18,2.23-0.82c0.55-0.63,1.04-1.55,1.41-2.33L89.68,248.94z"/>
				<path class="st64" d="M99.92,241.17c-0.45-1.55-1.13-3.24-3.35-3.24c-1.56,0-2.38,1.12-2.38,2.43c0,1.44,0.95,2.25,3.02,3.29
					c2.68,1.35,4.17,2.54,4.17,4.89c0,2.72-2.29,4.74-5.61,4.74c-1.5,0-2.83-0.41-3.91-0.76c-0.16-0.59-0.53-2.79-0.69-3.98
					l0.87-0.21c0.48,1.55,1.72,3.98,4.13,3.98c1.56,0,2.5-1.01,2.5-2.56c0-1.55-0.91-2.34-2.96-3.45c-2.5-1.35-4.06-2.54-4.06-4.94
					c0-2.39,1.9-4.39,5.35-4.39c1.55,0,2.82,0.36,3.34,0.44c0.1,0.88,0.24,2.03,0.43,3.56L99.92,241.17z"/>
				<path class="st64" d="M109.97,237.32c1.83,0,3.24,0.33,4.23,1c1.11,0.76,1.77,1.9,1.77,3.53c0,3.49-2.97,4.94-5.44,4.95
					c-0.25,0-0.54-0.02-0.69-0.05l-1.48-0.38v3.43c0,2.02,0.17,2.09,2.3,2.3v0.81h-7.28v-0.81c1.89-0.22,2.08-0.31,2.08-2.32v-9.29
					c0-2.06-0.25-2.21-2.08-2.36v-0.81H109.97z M108.35,245.43c0.29,0.14,0.83,0.26,1.44,0.26c1.28,0,3.15-0.71,3.15-3.82
					c0-2.67-1.56-3.62-3.28-3.62c-0.57,0-0.94,0.12-1.08,0.26c-0.18,0.15-0.23,0.41-0.23,0.87V245.43z"/>
				<path class="st64" d="M130.69,248.94c-0.13,0.64-0.79,3.3-1.02,3.99H117.5v-0.8c2.2-0.2,2.35-0.35,2.35-2.35v-9.28
					c0-2.07-0.28-2.21-1.97-2.36v-0.81h7.64c2.43,0,3.3-0.02,3.62-0.05c0.02,0.49,0.14,2.4,0.23,3.81l-0.86,0.12
					c-0.22-0.82-0.57-1.63-0.92-2.09c-0.42-0.59-0.81-0.74-2.11-0.74h-1.81c-0.85,0-0.93,0.06-0.93,0.83v5.12h2.46
					c1.5,0,1.7-0.36,2.04-2.04h0.87v5.21h-0.87c-0.36-1.76-0.55-2.03-2.06-2.03h-2.44v4.36c0,1.66,0.22,2.04,1.6,2.07h1.89
					c1.39,0,1.7-0.18,2.23-0.82c0.55-0.63,1.04-1.55,1.41-2.33L130.69,248.94z"/>
				<path class="st64" d="M146.94,248.9c-0.34,1.18-0.96,2.97-1.34,3.78c-0.65,0.14-2.58,0.61-4.41,0.61c-6.2,0-8.96-4.04-8.96-7.99
					c0-4.94,3.77-8.31,9.39-8.31c2.08,0,3.87,0.48,4.54,0.57c0.11,1.11,0.28,2.77,0.46,3.88l-0.88,0.17
					c-0.5-1.78-1.17-2.7-2.42-3.21c-0.59-0.26-1.5-0.38-2.24-0.38c-3.65,0-5.52,2.91-5.52,6.75c0,4.48,2.31,7.45,5.8,7.45
					c2.17,0,3.46-1.08,4.73-3.64L146.94,248.9z"/>
				<path class="st64" d="M161.85,241.34c-0.25-0.99-0.69-1.86-0.94-2.23c-0.42-0.55-0.62-0.74-2.01-0.74h-1.84v11.42
					c0,1.97,0.22,2.15,2.41,2.31v0.81h-7.62v-0.81c2.11-0.16,2.31-0.34,2.31-2.31v-11.42h-1.72c-1.34,0-1.72,0.19-2.16,0.82
					c-0.32,0.46-0.6,1.23-0.92,2.16h-0.84c0.16-1.65,0.32-3.4,0.38-4.62h0.66c0.36,0.56,0.64,0.58,1.34,0.58h9.57
					c0.66,0,0.94-0.13,1.33-0.58h0.65c0.02,1.05,0.11,3.03,0.23,4.53L161.85,241.34z"/>
			</g>
		</g>
	</g>
	<g>
		<g>
			<g>
				<path class="st62" d="M51.03,52.43v-0.62c1.7-0.18,1.87-0.27,1.87-2.05v-8.28c0-1.8-0.18-1.9-1.87-2.07v-0.62h5.78v0.62
					c-1.71,0.18-1.89,0.28-1.89,2.07v8.28c0,1.79,0.17,1.87,1.89,2.05v0.62H51.03z"/>
				<path class="st62" d="M64.44,52.43v-0.61c1.16-0.13,1.27-0.26,1.27-1.69v-3.49c0-1.47-0.56-2.37-1.83-2.37
					c-0.8,0-1.56,0.45-2.19,1.01v4.94c0,1.42,0.12,1.47,1.29,1.59v0.61h-4.6v-0.61c1.33-0.15,1.46-0.23,1.46-1.61v-4.33
					c0-1.35-0.15-1.41-1.25-1.6v-0.57c1.06-0.16,2.17-0.44,3.1-0.83c0,0.45-0.01,1.13-0.01,1.63c0.42-0.29,0.88-0.61,1.41-0.95
					c0.6-0.38,1.12-0.62,1.72-0.62c1.68,0,2.74,1.24,2.74,3.29v3.99c0,1.4,0.13,1.47,1.31,1.6v0.61H64.44z"/>
				<path class="st62" d="M78.08,50.51c-0.93,1.25-2.34,2.17-3.6,2.17c-2.71,0-4.31-2.17-4.31-4.43c0-1.64,0.73-3.04,2.12-4.1
					c1.16-0.89,2.43-1.22,3.27-1.22c0.92,0,1.61,0.28,1.93,0.56c0.29,0.23,0.35,0.39,0.35,0.64c0,0.52-0.54,0.99-0.79,0.99
					c-0.11,0-0.21-0.05-0.41-0.21c-0.7-0.62-1.41-0.92-2.13-0.92c-1.28,0-2.46,1.11-2.46,3.31c-0.02,2.9,1.99,3.85,3.15,3.85
					c0.88,0,1.58-0.23,2.5-1.11L78.08,50.51z"/>
				<path class="st62" d="M78.8,52.43v-0.61c1.32-0.14,1.46-0.24,1.46-1.62v-9.97c0-1.25-0.11-1.37-1.41-1.55v-0.57
					c1.19-0.13,2.52-0.45,3.25-0.71c0,0.98,0,1.98,0,2.96v9.84c0,1.39,0.11,1.49,1.45,1.62v0.61H78.8z"/>
				<path class="st62" d="M94.9,51.94c-1.05,0.15-2.22,0.42-3.35,0.74c0-0.36,0-1.07,0-1.58c-1.08,0.9-2,1.58-3.16,1.58
					c-1.47,0-2.65-0.91-2.65-3.12v-4.12c0-1.1-0.16-1.23-0.69-1.34l-0.56-0.11v-0.57c0.93-0.04,2.37-0.24,3.17-0.37
					c-0.06,0.71-0.06,1.73-0.06,3.08v2.89c0,1.76,0.92,2.27,1.82,2.27c0.74,0,1.46-0.3,2.13-0.94v-4.92c0-1.1-0.23-1.25-0.92-1.36
					l-0.67-0.09v-0.57c1.32-0.06,2.85-0.28,3.43-0.37v7c0,1.06,0.16,1.22,0.94,1.27l0.57,0.02V51.94z"/>
				<path class="st62" d="M101.49,45.73c-0.41-1.26-0.98-2.07-2.21-2.07c-0.71,0-1.27,0.51-1.27,1.32c0,0.87,0.59,1.29,1.75,1.82
					c1.79,0.84,2.74,1.49,2.74,2.92c0,1.96-1.81,2.96-3.49,2.96c-1.09,0-2.09-0.35-2.53-0.6c-0.1-0.59-0.29-1.79-0.37-2.49
					l0.62-0.11c0.39,1.34,1.15,2.46,2.6,2.46c0.8,0,1.42-0.53,1.42-1.37c0-0.89-0.52-1.38-1.67-1.94c-1.45-0.71-2.68-1.39-2.68-2.94
					c0-1.56,1.31-2.75,3.33-2.75c0.9,0,1.63,0.21,2.06,0.28c0.06,0.52,0.22,1.84,0.32,2.36L101.49,45.73z"/>
				<path class="st62" d="M103.83,52.43v-0.61c1.29-0.13,1.43-0.23,1.43-1.67v-4.28c0-1.32-0.07-1.4-1.28-1.6v-0.54
					c1.13-0.18,2.18-0.46,3.13-0.83c0,0.88,0,1.76,0,2.64v4.61c0,1.43,0.14,1.54,1.47,1.67v0.61H103.83z M106.06,40.99
					c-0.63,0-1.18-0.55-1.18-1.18c0-0.71,0.56-1.21,1.21-1.21c0.63,0,1.15,0.51,1.15,1.21C107.23,40.43,106.72,40.99,106.06,40.99z"
					/>
				<path class="st62" d="M118.91,43.79c-1.13,0.15-1.28,0.33-1.81,1.54c-0.7,1.68-1.88,4.43-3,7.33h-0.66
					c-0.91-2.45-1.93-4.94-2.92-7.39c-0.46-1.16-0.64-1.31-1.73-1.48v-0.59h4.46v0.59c-1.12,0.15-1.17,0.3-0.85,1.17
					c0.53,1.45,1.38,3.64,1.93,5c0.68-1.7,1.38-3.44,1.85-4.8c0.33-0.96,0.27-1.22-1.1-1.37v-0.59h3.84V43.79z"/>
				<path class="st62" d="M126.97,50.6c-1.33,1.72-2.84,2.09-3.55,2.09c-2.61,0-4.17-2.1-4.17-4.53c0-1.44,0.54-2.78,1.4-3.69
					c0.89-0.98,2.05-1.52,3.16-1.52c1.87,0,3.26,1.6,3.26,3.29c-0.02,0.41-0.07,0.63-0.39,0.71c-0.42,0.09-3.15,0.27-5.57,0.35
					c-0.04,2.71,1.6,3.86,3.09,3.86c0.85,0,1.66-0.34,2.43-1.05L126.97,50.6z M123.32,43.75c-0.94,0-1.85,0.92-2.11,2.61
					c1.12,0,2.23-0.01,3.4-0.06c0.36,0,0.49-0.1,0.49-0.42C125.12,44.78,124.43,43.75,123.32,43.75z"/>
				<path class="st62" d="M137.97,42.94c2.68,0,4.62,2.04,4.62,4.71c0,3.4-2.5,5.03-4.64,5.03c-2.95,0-4.72-2.34-4.72-4.71
					C133.24,44.59,135.9,42.94,137.97,42.94z M137.72,43.68c-1.21,0-2.32,1.19-2.32,3.65c0,2.66,1.12,4.6,2.77,4.6
					c1.21,0,2.26-0.87,2.26-3.78C140.43,45.6,139.47,43.68,137.72,43.68z"/>
				<path class="st62" d="M145.46,43.19v-0.54c0-1.5,0.57-3.04,1.87-4.14c0.74-0.65,1.54-1,2.39-1.11c0.73,0.02,1.38,0.27,1.72,0.66
					c0.21,0.24,0.24,0.47,0.14,0.77c-0.08,0.24-0.32,0.54-0.55,0.72c-0.25,0.16-0.43,0.11-0.64-0.04c-0.44-0.4-1.03-0.92-1.71-0.92
					c-1.38,0-1.39,1.84-1.39,3.64v0.97h2.17c0.12,0.19,0.02,0.74-0.22,0.89h-1.95v6.05c0,1.47,0.22,1.51,1.75,1.68v0.61h-5.03v-0.61
					c1.3-0.13,1.43-0.22,1.43-1.58v-6.16h-1.47l-0.09-0.24l0.48-0.66H145.46z"/>
				<path class="st62" d="M161.82,52.68c-0.36,0-0.82-0.17-1.04-0.41c-0.28-0.27-0.41-0.56-0.51-0.92
					c-0.83,0.56-1.86,1.32-2.47,1.32c-1.55,0-2.61-1.27-2.61-2.61c0-1.04,0.56-1.69,1.7-2.09c1.27-0.44,2.86-0.98,3.33-1.37v-0.51
					c0-1.42-0.69-2.23-1.75-2.23c-0.46,0-0.75,0.22-0.96,0.47c-0.24,0.3-0.37,0.76-0.56,1.37c-0.11,0.38-0.33,0.52-0.66,0.52
					c-0.43,0-0.98-0.43-0.98-0.95c0-0.31,0.27-0.56,0.7-0.87c0.67-0.47,1.89-1.22,3.08-1.47c0.67,0,1.33,0.19,1.84,0.57
					c0.76,0.63,1.09,1.37,1.09,2.46v3.98c0,0.97,0.35,1.26,0.72,1.26c0.24,0,0.51-0.1,0.74-0.22l0.21,0.61L161.82,52.68z
					 M160.21,47.37c-0.45,0.23-1.34,0.63-1.81,0.84c-0.77,0.35-1.24,0.75-1.24,1.51c0,1.12,0.84,1.61,1.47,1.61
					c0.5,0,1.17-0.28,1.58-0.68C160.21,49.67,160.21,48.36,160.21,47.37z"/>
				<path class="st62" d="M164.24,52.43v-0.61c1.32-0.14,1.46-0.24,1.46-1.62v-9.97c0-1.25-0.11-1.37-1.41-1.55v-0.57
					c1.19-0.13,2.52-0.45,3.25-0.71c0,0.98,0,1.98,0,2.96v9.84c0,1.39,0.12,1.49,1.45,1.62v0.61H164.24z"/>
				<path class="st62" d="M169.81,52.43v-0.61c1.32-0.14,1.46-0.24,1.46-1.62v-9.97c0-1.25-0.11-1.37-1.41-1.55v-0.57
					c1.19-0.13,2.52-0.45,3.25-0.71c0,0.98,0,1.98,0,2.96v9.84c0,1.39,0.11,1.49,1.45,1.62v0.61H169.81z"/>
				<path class="st62" d="M61.81,69.64c1.01-0.15,2.16-0.51,3.19-0.91c0,0.49,0,1.16,0,1.65c0.06-0.04,1.68-0.98,1.76-1.02
					c0.51-0.28,0.95-0.42,1.24-0.42c2.31,0,3.7,1.97,3.7,4.03c0,3.17-2.5,5.19-5.25,5.71c-0.61-0.02-1.16-0.18-1.46-0.34v2.78
					c0,1.49,0.16,1.61,1.74,1.77v0.61h-5.09v-0.61c1.35-0.14,1.5-0.26,1.5-1.62v-9.52c0-1.24-0.06-1.33-1.34-1.51V69.64z M65,76.85
					c0.47,0.47,1.28,0.81,1.95,0.81c1.7,0,2.81-1.5,2.81-3.84c0-2.32-1.32-3.55-2.73-3.55c-0.7,0-1.5,0.43-2.03,0.82V76.85z"/>
				<path class="st62" d="M81.03,76.6c-1.33,1.72-2.84,2.09-3.55,2.09c-2.61,0-4.17-2.1-4.17-4.53c0-1.44,0.54-2.78,1.4-3.69
					c0.89-0.98,2.05-1.52,3.15-1.52c1.87,0,3.26,1.6,3.26,3.29c-0.02,0.41-0.07,0.63-0.39,0.71c-0.42,0.09-3.15,0.27-5.57,0.35
					c-0.04,2.71,1.6,3.86,3.09,3.86c0.85,0,1.65-0.34,2.43-1.05L81.03,76.6z M77.39,69.75c-0.94,0-1.85,0.92-2.11,2.61
					c1.12,0,2.23-0.01,3.4-0.06c0.36,0,0.49-0.1,0.49-0.42C79.19,70.78,78.5,69.75,77.39,69.75z"/>
				<path class="st62" d="M87.18,68.94c2.69,0,4.62,2.04,4.62,4.71c0,3.4-2.5,5.03-4.64,5.03c-2.95,0-4.72-2.34-4.72-4.71
					C82.45,70.59,85.11,68.94,87.18,68.94z M86.93,69.68c-1.21,0-2.32,1.19-2.32,3.65c0,2.66,1.12,4.6,2.77,4.6
					c1.21,0,2.26-0.87,2.26-3.78C89.64,71.6,88.68,69.68,86.93,69.68z"/>
				<path class="st62" d="M93.08,69.64c1.01-0.15,2.16-0.51,3.19-0.91c0,0.49,0,1.16,0,1.65c0.06-0.04,1.68-0.98,1.76-1.02
					c0.51-0.28,0.95-0.42,1.24-0.42c2.31,0,3.7,1.97,3.7,4.03c0,3.17-2.5,5.19-5.25,5.71c-0.61-0.02-1.16-0.18-1.46-0.34v2.78
					c0,1.49,0.16,1.61,1.74,1.77v0.61h-5.09v-0.61c1.35-0.14,1.5-0.26,1.5-1.62v-9.52c0-1.24-0.06-1.33-1.34-1.51V69.64z
					 M96.27,76.85c0.47,0.47,1.28,0.81,1.95,0.81c1.7,0,2.81-1.5,2.81-3.84c0-2.32-1.32-3.55-2.73-3.55c-0.7,0-1.5,0.43-2.03,0.82
					V76.85z"/>
				<path class="st62" d="M104.2,78.43v-0.61c1.32-0.14,1.46-0.24,1.46-1.62v-9.97c0-1.25-0.11-1.37-1.41-1.55v-0.57
					c1.19-0.13,2.52-0.45,3.25-0.71c0,0.98,0,1.98,0,2.96v9.84c0,1.39,0.12,1.49,1.45,1.62v0.61H104.2z"/>
				<path class="st62" d="M117.87,76.6c-1.33,1.72-2.84,2.09-3.55,2.09c-2.61,0-4.17-2.1-4.17-4.53c0-1.44,0.54-2.78,1.4-3.69
					c0.89-0.98,2.05-1.52,3.16-1.52c1.87,0,3.26,1.6,3.26,3.29c-0.02,0.41-0.07,0.63-0.39,0.71c-0.42,0.09-3.15,0.27-5.57,0.35
					c-0.04,2.71,1.6,3.86,3.09,3.86c0.85,0,1.66-0.34,2.43-1.05L117.87,76.6z M114.22,69.75c-0.94,0-1.85,0.92-2.11,2.61
					c1.12,0,2.23-0.01,3.4-0.06c0.36,0,0.49-0.1,0.49-0.42C116.02,70.78,115.33,69.75,114.22,69.75z"/>
				<path class="st62" d="M124.75,71.73c-0.41-1.26-0.98-2.07-2.21-2.07c-0.71,0-1.27,0.51-1.27,1.32c0,0.87,0.59,1.29,1.75,1.82
					c1.79,0.84,2.74,1.49,2.74,2.92c0,1.96-1.81,2.96-3.49,2.96c-1.09,0-2.09-0.35-2.53-0.6c-0.1-0.59-0.29-1.79-0.37-2.49
					l0.62-0.11c0.39,1.34,1.15,2.46,2.6,2.46c0.8,0,1.42-0.53,1.42-1.37c0-0.89-0.52-1.38-1.67-1.94c-1.45-0.71-2.68-1.39-2.68-2.94
					c0-1.56,1.31-2.75,3.33-2.75c0.9,0,1.63,0.21,2.06,0.28c0.06,0.52,0.22,1.84,0.32,2.36L124.75,71.73z"/>
				<path class="st62" d="M138.75,78.68c-0.36,0-0.82-0.17-1.04-0.41c-0.28-0.27-0.41-0.56-0.51-0.92
					c-0.83,0.56-1.86,1.32-2.47,1.32c-1.55,0-2.61-1.27-2.61-2.61c0-1.04,0.56-1.69,1.7-2.09c1.27-0.44,2.86-0.98,3.33-1.37v-0.51
					c0-1.42-0.69-2.23-1.75-2.23c-0.46,0-0.75,0.22-0.96,0.47c-0.23,0.3-0.37,0.76-0.56,1.37c-0.11,0.38-0.33,0.52-0.66,0.52
					c-0.43,0-0.98-0.43-0.98-0.95c0-0.31,0.27-0.56,0.7-0.87c0.67-0.47,1.89-1.22,3.08-1.47c0.67,0,1.33,0.19,1.83,0.57
					c0.77,0.63,1.09,1.37,1.09,2.46v3.98c0,0.97,0.35,1.26,0.72,1.26c0.24,0,0.51-0.1,0.74-0.22l0.21,0.61L138.75,78.68z
					 M137.15,73.37c-0.45,0.23-1.34,0.63-1.81,0.84c-0.77,0.35-1.24,0.75-1.24,1.51c0,1.12,0.84,1.61,1.47,1.61
					c0.5,0,1.17-0.28,1.58-0.68C137.15,75.67,137.15,74.36,137.15,73.37z"/>
				<path class="st62" d="M147.5,78.43v-0.61c1.16-0.13,1.27-0.26,1.27-1.69v-3.49c0-1.47-0.56-2.37-1.83-2.37
					c-0.8,0-1.56,0.45-2.19,1.01v4.94c0,1.42,0.12,1.47,1.29,1.59v0.61h-4.6v-0.61c1.33-0.15,1.46-0.23,1.46-1.61v-4.33
					c0-1.35-0.15-1.41-1.25-1.6v-0.57c1.06-0.16,2.17-0.44,3.1-0.83c0,0.45-0.01,1.13-0.01,1.63c0.42-0.29,0.88-0.61,1.41-0.95
					c0.6-0.38,1.12-0.62,1.72-0.62c1.68,0,2.74,1.24,2.74,3.29v3.99c0,1.4,0.13,1.47,1.31,1.6v0.61H147.5z"/>
				<path class="st62" d="M163.48,77.9c-0.45,0.08-2.09,0.34-3.41,0.78c0-0.43,0-0.9,0-1.34c-0.38,0.24-0.92,0.53-1.3,0.77
					c-0.78,0.45-1.3,0.57-1.55,0.57c-1.7,0-3.98-1.65-3.98-4.63c0-2.91,2.56-5.11,5.51-5.11c0.27,0,0.9,0.03,1.32,0.2v-2.97
					c0-1.3-0.14-1.36-1.6-1.49v-0.57c1.11-0.15,2.62-0.44,3.45-0.71c0,0.78,0,1.67,0,2.54v10.01c0,1.1,0.14,1.24,0.92,1.29
					l0.63,0.05V77.9z M160.07,70.85c-0.44-0.71-1.28-1.07-2.09-1.07c-0.94,0-2.66,0.63-2.66,3.66c0,2.58,1.57,3.86,2.84,3.88
					c0.69,0,1.42-0.32,1.91-0.68V70.85z"/>
				<path class="st62" d="M79.69,95.64c1.01-0.15,2.16-0.51,3.19-0.91c0,0.49,0,1.16,0,1.65c0.06-0.04,1.68-0.98,1.76-1.02
					c0.51-0.28,0.95-0.42,1.24-0.42c2.31,0,3.7,1.97,3.7,4.03c0,3.17-2.5,5.19-5.25,5.71c-0.61-0.02-1.16-0.18-1.46-0.34v2.78
					c0,1.49,0.16,1.61,1.74,1.77v0.61h-5.09v-0.61c1.35-0.14,1.5-0.26,1.5-1.62v-9.52c0-1.24-0.06-1.33-1.34-1.51V95.64z
					 M82.88,102.85c0.47,0.47,1.28,0.81,1.95,0.81c1.7,0,2.81-1.5,2.81-3.84c0-2.32-1.32-3.55-2.73-3.55c-0.7,0-1.5,0.43-2.03,0.82
					V102.85z"/>
				<path class="st62" d="M98.92,102.6c-1.33,1.72-2.84,2.09-3.55,2.09c-2.61,0-4.17-2.1-4.17-4.53c0-1.44,0.54-2.78,1.4-3.69
					c0.89-0.98,2.05-1.52,3.15-1.52c1.87,0,3.26,1.6,3.26,3.29c-0.02,0.41-0.07,0.63-0.39,0.71c-0.42,0.09-3.15,0.27-5.57,0.35
					c-0.04,2.71,1.6,3.86,3.09,3.86c0.85,0,1.65-0.34,2.43-1.05L98.92,102.6z M95.27,95.75c-0.94,0-1.85,0.92-2.11,2.61
					c1.12,0,2.23-0.01,3.4-0.06c0.36,0,0.49-0.1,0.49-0.42C97.07,96.78,96.38,95.75,95.27,95.75z"/>
				<path class="st62" d="M105.2,104.43h-4.96v-0.61c1.28-0.13,1.41-0.23,1.41-1.58v-4.41c0-1.33-0.08-1.4-1.26-1.55v-0.55
					c1.08-0.16,2.06-0.42,3.11-0.85c0,0.69,0,1.61,0,2.3c0.77-1.16,1.63-2.24,2.65-2.24c0.78,0,1.24,0.49,1.24,1.05
					c0,0.58-0.41,1.07-0.78,1.27c-0.22,0.13-0.4,0.09-0.56-0.05c-0.32-0.31-0.58-0.54-0.95-0.54c-0.42,0-1.15,0.58-1.6,1.6v3.95
					c0,1.36,0.11,1.46,1.7,1.59V104.43z"/>
				<path class="st62" d="M113.74,97.73c-0.41-1.26-0.98-2.07-2.21-2.07c-0.71,0-1.27,0.51-1.27,1.32c0,0.87,0.59,1.29,1.75,1.82
					c1.79,0.84,2.74,1.49,2.74,2.92c0,1.96-1.81,2.96-3.49,2.96c-1.09,0-2.09-0.35-2.53-0.6c-0.1-0.59-0.29-1.79-0.37-2.49
					l0.62-0.11c0.39,1.34,1.15,2.46,2.6,2.46c0.8,0,1.42-0.53,1.42-1.37c0-0.89-0.52-1.38-1.67-1.94c-1.45-0.71-2.68-1.39-2.68-2.94
					c0-1.56,1.31-2.75,3.33-2.75c0.9,0,1.63,0.21,2.06,0.28c0.06,0.52,0.22,1.84,0.32,2.36L113.74,97.73z"/>
				<path class="st62" d="M120.92,94.94c2.68,0,4.62,2.04,4.62,4.71c0,3.4-2.5,5.03-4.64,5.03c-2.95,0-4.72-2.34-4.72-4.71
					C116.19,96.59,118.85,94.94,120.92,94.94z M120.67,95.68c-1.21,0-2.32,1.19-2.32,3.65c0,2.66,1.12,4.6,2.77,4.6
					c1.21,0,2.26-0.87,2.26-3.78C123.38,97.6,122.42,95.68,120.67,95.68z"/>
				<path class="st62" d="M133.02,104.43v-0.61c1.16-0.13,1.27-0.26,1.27-1.69v-3.49c0-1.47-0.56-2.37-1.83-2.37
					c-0.8,0-1.56,0.45-2.19,1.01v4.94c0,1.42,0.12,1.47,1.29,1.59v0.61h-4.6v-0.61c1.33-0.15,1.46-0.23,1.46-1.61v-4.33
					c0-1.35-0.15-1.41-1.25-1.6v-0.57c1.06-0.16,2.17-0.44,3.1-0.83c0,0.45-0.01,1.13-0.01,1.63c0.42-0.29,0.88-0.61,1.41-0.95
					c0.59-0.38,1.11-0.62,1.72-0.62c1.68,0,2.74,1.24,2.74,3.29v3.99c0,1.4,0.13,1.47,1.31,1.6v0.61H133.02z"/>
				<path class="st62" d="M144.23,97.73c-0.41-1.26-0.98-2.07-2.21-2.07c-0.71,0-1.27,0.51-1.27,1.32c0,0.87,0.59,1.29,1.75,1.82
					c1.79,0.84,2.73,1.49,2.73,2.92c0,1.96-1.8,2.96-3.49,2.96c-1.09,0-2.09-0.35-2.53-0.6c-0.1-0.59-0.29-1.79-0.37-2.49l0.62-0.11
					c0.39,1.34,1.15,2.46,2.6,2.46c0.8,0,1.42-0.53,1.42-1.37c0-0.89-0.52-1.38-1.67-1.94c-1.46-0.71-2.68-1.39-2.68-2.94
					c0-1.56,1.31-2.75,3.33-2.75c0.9,0,1.63,0.21,2.06,0.28c0.06,0.52,0.22,1.84,0.32,2.36L144.23,97.73z"/>
				<path class="st62" d="M50.76,121.64c1.01-0.15,2.16-0.51,3.19-0.91c0,0.49,0,1.16,0,1.65c0.06-0.04,1.68-0.98,1.76-1.02
					c0.51-0.28,0.95-0.42,1.24-0.42c2.31,0,3.7,1.97,3.7,4.03c0,3.17-2.5,5.19-5.25,5.71c-0.61-0.02-1.16-0.18-1.46-0.34v2.78
					c0,1.49,0.16,1.61,1.74,1.77v0.61h-5.09v-0.61c1.35-0.14,1.5-0.26,1.5-1.62v-9.52c0-1.24-0.06-1.33-1.34-1.51V121.64z
					 M53.96,128.85c0.47,0.47,1.28,0.81,1.95,0.81c1.7,0,2.81-1.5,2.81-3.84c0-2.32-1.32-3.55-2.73-3.55c-0.7,0-1.5,0.43-2.03,0.82
					V128.85z"/>
				<path class="st62" d="M67.14,130.43h-4.96v-0.61c1.28-0.13,1.41-0.23,1.41-1.58v-4.41c0-1.33-0.08-1.4-1.26-1.55v-0.55
					c1.08-0.16,2.06-0.42,3.11-0.85c0,0.69,0,1.61,0,2.3c0.77-1.16,1.63-2.24,2.65-2.24c0.78,0,1.24,0.49,1.24,1.05
					c0,0.58-0.41,1.07-0.78,1.27c-0.22,0.13-0.4,0.09-0.56-0.05c-0.32-0.31-0.58-0.54-0.95-0.54c-0.42,0-1.15,0.58-1.6,1.6v3.95
					c0,1.36,0.11,1.46,1.7,1.59V130.43z"/>
				<path class="st62" d="M74.94,120.94c2.68,0,4.62,2.04,4.62,4.71c0,3.4-2.5,5.03-4.64,5.03c-2.95,0-4.72-2.34-4.72-4.71
					C70.21,122.59,72.87,120.94,74.94,120.94z M74.69,121.68c-1.21,0-2.32,1.19-2.32,3.65c0,2.66,1.12,4.6,2.77,4.6
					c1.21,0,2.26-0.87,2.26-3.78C77.4,123.6,76.44,121.68,74.69,121.68z"/>
				<path class="st62" d="M82.43,121.19v-0.54c0-1.5,0.57-3.04,1.87-4.14c0.74-0.65,1.54-1,2.39-1.11c0.73,0.02,1.38,0.27,1.72,0.66
					c0.21,0.24,0.24,0.47,0.14,0.77c-0.08,0.24-0.32,0.54-0.55,0.72c-0.25,0.16-0.43,0.11-0.64-0.04c-0.44-0.4-1.03-0.92-1.71-0.92
					c-1.38,0-1.39,1.84-1.39,3.64v0.97h2.17c0.12,0.19,0.02,0.74-0.22,0.89h-1.95v6.05c0,1.47,0.22,1.51,1.75,1.68v0.61H81v-0.61
					c1.3-0.13,1.43-0.22,1.43-1.58v-6.16h-1.47l-0.09-0.24l0.48-0.66H82.43z"/>
				<path class="st62" d="M94.96,128.6c-1.33,1.72-2.84,2.09-3.55,2.09c-2.61,0-4.17-2.1-4.17-4.53c0-1.44,0.54-2.78,1.4-3.69
					c0.89-0.98,2.05-1.52,3.15-1.52c1.87,0,3.26,1.6,3.26,3.29c-0.02,0.41-0.07,0.63-0.39,0.71c-0.42,0.09-3.15,0.27-5.57,0.35
					c-0.04,2.71,1.6,3.86,3.09,3.86c0.85,0,1.65-0.34,2.43-1.05L94.96,128.6z M91.31,121.75c-0.94,0-1.85,0.92-2.11,2.61
					c1.12,0,2.23-0.01,3.4-0.06c0.36,0,0.49-0.1,0.49-0.42C93.11,122.78,92.42,121.75,91.31,121.75z"/>
				<path class="st62" d="M101.84,123.73c-0.41-1.26-0.98-2.07-2.21-2.07c-0.71,0-1.27,0.51-1.27,1.32c0,0.87,0.59,1.29,1.75,1.82
					c1.79,0.84,2.73,1.49,2.73,2.92c0,1.96-1.8,2.96-3.49,2.96c-1.09,0-2.09-0.35-2.53-0.6c-0.1-0.59-0.29-1.79-0.37-2.49l0.62-0.11
					c0.39,1.34,1.15,2.46,2.6,2.46c0.8,0,1.42-0.53,1.42-1.37c0-0.89-0.52-1.38-1.67-1.94c-1.46-0.71-2.68-1.39-2.68-2.94
					c0-1.56,1.31-2.75,3.33-2.75c0.9,0,1.63,0.21,2.06,0.28c0.06,0.52,0.22,1.84,0.32,2.36L101.84,123.73z"/>
				<path class="st62" d="M109.76,123.73c-0.41-1.26-0.98-2.07-2.21-2.07c-0.71,0-1.27,0.51-1.27,1.32c0,0.87,0.59,1.29,1.75,1.82
					c1.79,0.84,2.73,1.49,2.73,2.92c0,1.96-1.8,2.96-3.49,2.96c-1.09,0-2.09-0.35-2.53-0.6c-0.1-0.59-0.29-1.79-0.37-2.49l0.62-0.11
					c0.39,1.34,1.15,2.46,2.6,2.46c0.8,0,1.42-0.53,1.42-1.37c0-0.89-0.52-1.38-1.67-1.94c-1.46-0.71-2.68-1.39-2.68-2.94
					c0-1.56,1.31-2.75,3.33-2.75c0.9,0,1.63,0.21,2.06,0.28c0.06,0.52,0.22,1.84,0.32,2.36L109.76,123.73z"/>
				<path class="st62" d="M112.09,130.43v-0.61c1.29-0.13,1.43-0.23,1.43-1.67v-4.28c0-1.32-0.07-1.4-1.28-1.6v-0.54
					c1.13-0.18,2.18-0.46,3.13-0.83c0,0.88,0,1.76,0,2.64v4.61c0,1.43,0.13,1.54,1.47,1.67v0.61H112.09z M114.33,118.99
					c-0.63,0-1.18-0.55-1.18-1.18c0-0.71,0.56-1.21,1.21-1.21c0.63,0,1.15,0.51,1.15,1.21C115.5,118.43,114.98,118.99,114.33,118.99
					z"/>
				<path class="st62" d="M122.72,120.94c2.68,0,4.62,2.04,4.62,4.71c0,3.4-2.5,5.03-4.64,5.03c-2.95,0-4.72-2.34-4.72-4.71
					C117.98,122.59,120.65,120.94,122.72,120.94z M122.46,121.68c-1.21,0-2.32,1.19-2.32,3.65c0,2.66,1.12,4.6,2.77,4.6
					c1.21,0,2.26-0.87,2.26-3.78C125.18,123.6,124.21,121.68,122.46,121.68z"/>
				<path class="st62" d="M134.82,130.43v-0.61c1.16-0.13,1.27-0.26,1.27-1.69v-3.49c0-1.47-0.56-2.37-1.83-2.37
					c-0.8,0-1.56,0.45-2.19,1.01v4.94c0,1.42,0.12,1.47,1.29,1.59v0.61h-4.6v-0.61c1.33-0.15,1.46-0.23,1.46-1.61v-4.33
					c0-1.35-0.15-1.41-1.25-1.6v-0.57c1.06-0.16,2.17-0.44,3.1-0.83c0,0.45-0.01,1.13-0.01,1.63c0.42-0.29,0.88-0.61,1.41-0.95
					c0.59-0.38,1.11-0.62,1.72-0.62c1.68,0,2.74,1.24,2.74,3.29v3.99c0,1.4,0.13,1.47,1.31,1.6v0.61H134.82z"/>
				<path class="st62" d="M147.26,130.68c-0.36,0-0.82-0.17-1.04-0.41c-0.28-0.27-0.41-0.56-0.51-0.92
					c-0.83,0.56-1.86,1.32-2.47,1.32c-1.55,0-2.61-1.27-2.61-2.61c0-1.04,0.56-1.69,1.7-2.09c1.27-0.44,2.86-0.98,3.33-1.37v-0.51
					c0-1.42-0.69-2.23-1.75-2.23c-0.46,0-0.75,0.22-0.96,0.47c-0.24,0.3-0.37,0.76-0.56,1.37c-0.11,0.38-0.33,0.52-0.66,0.52
					c-0.43,0-0.98-0.43-0.98-0.95c0-0.31,0.27-0.56,0.7-0.87c0.67-0.47,1.89-1.22,3.08-1.47c0.67,0,1.33,0.19,1.84,0.57
					c0.76,0.63,1.09,1.37,1.09,2.46v3.98c0,0.97,0.35,1.26,0.72,1.26c0.24,0,0.51-0.1,0.74-0.22l0.21,0.61L147.26,130.68z
					 M145.65,125.37c-0.45,0.23-1.34,0.63-1.81,0.84c-0.77,0.35-1.24,0.75-1.24,1.51c0,1.12,0.84,1.61,1.47,1.61
					c0.5,0,1.17-0.28,1.58-0.68C145.65,127.67,145.65,126.36,145.65,125.37z"/>
				<path class="st62" d="M149.68,130.43v-0.61c1.32-0.14,1.46-0.24,1.46-1.62v-9.97c0-1.25-0.11-1.37-1.41-1.55v-0.57
					c1.19-0.13,2.52-0.45,3.25-0.71c0,0.98,0,1.98,0,2.96v9.84c0,1.39,0.12,1.49,1.45,1.62v0.61H149.68z"/>
				<path class="st62" d="M155.25,130.43v-0.61c1.32-0.14,1.46-0.24,1.46-1.62v-9.97c0-1.25-0.11-1.37-1.41-1.55v-0.57
					c1.19-0.13,2.52-0.45,3.25-0.71c0,0.98,0,1.98,0,2.96v9.84c0,1.39,0.11,1.49,1.45,1.62v0.61H155.25z"/>
				<path class="st62" d="M170.37,121.79c-1.08,0.16-1.3,0.34-1.83,1.53c-0.53,1.16-1.1,2.61-2.5,6.14
					c-1.38,3.37-1.76,4.68-2.11,5.79c-0.13,0.45-0.36,0.56-0.65,0.56c-0.7,0-1.35-0.51-1.35-1.07c0-0.28,0.14-0.47,0.48-0.74
					c0.7-0.51,1.2-1,1.47-1.55c0.4-0.79,0.7-1.49,0.8-1.76c0.08-0.31,0.08-0.5-0.05-0.85c-0.87-2.51-2.04-5.14-2.62-6.54
					c-0.45-1.11-0.65-1.36-1.78-1.5v-0.59h4.42v0.59c-0.95,0.15-1.07,0.35-0.8,1.1l1.96,5.03c0.57-1.4,1.39-3.65,1.82-4.95
					c0.25-0.78,0.08-1.01-1.11-1.18v-0.59h3.84V121.79z"/>
				<path class="st62" d="M170.83,132.36c1-0.46,1.74-1.04,1.74-1.85c0-0.74-0.6-0.97-1.4-1.16c-0.13-0.02-0.34-0.28-0.34-0.69
					c0-0.55,0.43-1.11,1.24-1.11c0.82,0,1.86,0.75,1.86,2.3c0,1.72-1.53,2.77-2.82,3.14L170.83,132.36z"/>
				<path class="st62" d="M70.17,154.51c-0.93,1.25-2.34,2.17-3.6,2.17c-2.71,0-4.31-2.17-4.31-4.43c0-1.64,0.73-3.04,2.12-4.1
					c1.16-0.89,2.43-1.22,3.27-1.22c0.92,0,1.61,0.28,1.93,0.56c0.29,0.23,0.35,0.39,0.35,0.64c0,0.52-0.54,0.99-0.79,0.99
					c-0.11,0-0.21-0.05-0.41-0.21c-0.7-0.62-1.41-0.92-2.13-0.92c-1.28,0-2.46,1.11-2.46,3.31c-0.02,2.9,1.99,3.85,3.15,3.85
					c0.88,0,1.58-0.23,2.5-1.11L70.17,154.51z"/>
				<path class="st62" d="M81.42,155.94c-1.05,0.15-2.23,0.42-3.35,0.74c0-0.36,0-1.07,0-1.58c-1.08,0.9-2,1.58-3.16,1.58
					c-1.47,0-2.65-0.91-2.65-3.12v-4.12c0-1.1-0.16-1.23-0.69-1.34l-0.56-0.11v-0.57c0.93-0.04,2.37-0.24,3.17-0.37
					c-0.06,0.71-0.06,1.73-0.06,3.08v2.89c0,1.76,0.92,2.27,1.82,2.27c0.74,0,1.46-0.3,2.13-0.94v-4.92c0-1.1-0.23-1.25-0.92-1.36
					l-0.66-0.09v-0.57c1.32-0.06,2.85-0.28,3.43-0.37v7c0,1.06,0.16,1.22,0.94,1.27l0.57,0.02V155.94z"/>
				<path class="st62" d="M82.16,156.43v-0.61c1.32-0.14,1.46-0.24,1.46-1.62v-9.97c0-1.25-0.11-1.37-1.41-1.55v-0.57
					c1.19-0.13,2.52-0.45,3.25-0.71c0,0.98,0,1.98,0,2.96v9.84c0,1.39,0.12,1.49,1.45,1.62v0.61H82.16z"/>
				<path class="st62" d="M92.22,156.42c-0.36,0.19-0.69,0.27-0.89,0.27c-1.39,0-2.15-0.81-2.15-2.53v-6.07h-1.43l-0.09-0.25
					l0.57-0.64h0.95v-1.76c0.46-0.43,1.14-1,1.6-1.44l0.31,0.06c-0.04,0.83-0.06,2.02-0.06,3.13h2.34c0.19,0.21,0.12,0.71-0.13,0.89
					h-2.21v5.33c0,1.69,0.67,1.98,1.19,1.98c0.48,0,0.92-0.17,1.23-0.31l0.19,0.58L92.22,156.42z"/>
				<path class="st62" d="M104.77,155.94c-1.05,0.15-2.23,0.42-3.35,0.74c0-0.36,0-1.07,0-1.58c-1.08,0.9-2,1.58-3.16,1.58
					c-1.47,0-2.65-0.91-2.65-3.12v-4.12c0-1.1-0.16-1.23-0.69-1.34l-0.56-0.11v-0.57c0.93-0.04,2.37-0.24,3.17-0.37
					c-0.06,0.71-0.06,1.73-0.06,3.08v2.89c0,1.76,0.92,2.27,1.82,2.27c0.74,0,1.46-0.3,2.13-0.94v-4.92c0-1.1-0.23-1.25-0.92-1.36
					l-0.66-0.09v-0.57c1.32-0.06,2.85-0.28,3.43-0.37v7c0,1.06,0.16,1.22,0.94,1.27l0.57,0.02V155.94z"/>
				<path class="st62" d="M110.77,156.43h-4.96v-0.61c1.28-0.13,1.41-0.23,1.41-1.58v-4.41c0-1.33-0.08-1.4-1.26-1.55v-0.55
					c1.08-0.16,2.06-0.42,3.11-0.85c0,0.69,0,1.61,0,2.3c0.77-1.16,1.63-2.24,2.65-2.24c0.78,0,1.24,0.49,1.24,1.05
					c0,0.58-0.41,1.07-0.78,1.27c-0.22,0.13-0.4,0.09-0.56-0.05c-0.32-0.31-0.58-0.54-0.95-0.54c-0.42,0-1.15,0.58-1.6,1.6v3.95
					c0,1.36,0.11,1.46,1.7,1.59V156.43z"/>
				<path class="st62" d="M120.53,156.68c-0.36,0-0.82-0.17-1.04-0.41c-0.28-0.27-0.41-0.56-0.51-0.92
					c-0.83,0.56-1.86,1.32-2.47,1.32c-1.55,0-2.61-1.27-2.61-2.61c0-1.04,0.56-1.69,1.7-2.09c1.27-0.44,2.86-0.98,3.33-1.37v-0.51
					c0-1.42-0.69-2.23-1.75-2.23c-0.46,0-0.75,0.22-0.96,0.47c-0.23,0.3-0.37,0.76-0.56,1.37c-0.11,0.38-0.33,0.52-0.66,0.52
					c-0.43,0-0.98-0.43-0.98-0.95c0-0.31,0.27-0.56,0.7-0.87c0.67-0.47,1.89-1.22,3.08-1.47c0.67,0,1.33,0.19,1.83,0.57
					c0.77,0.63,1.09,1.37,1.09,2.46v3.98c0,0.97,0.35,1.26,0.72,1.26c0.24,0,0.51-0.1,0.74-0.22l0.21,0.61L120.53,156.68z
					 M118.93,151.37c-0.45,0.23-1.34,0.63-1.81,0.84c-0.77,0.35-1.24,0.75-1.24,1.51c0,1.12,0.84,1.61,1.47,1.61
					c0.5,0,1.17-0.28,1.58-0.68C118.93,153.67,118.93,152.36,118.93,151.37z"/>
				<path class="st62" d="M122.96,156.43v-0.61c1.32-0.14,1.46-0.24,1.46-1.62v-9.97c0-1.25-0.11-1.37-1.41-1.55v-0.57
					c1.19-0.13,2.52-0.45,3.25-0.71c0,0.98,0,1.98,0,2.96v9.84c0,1.39,0.11,1.49,1.45,1.62v0.61H122.96z"/>
				<path class="st62" d="M128.52,156.43v-0.61c1.32-0.14,1.46-0.24,1.46-1.62v-9.97c0-1.25-0.11-1.37-1.41-1.55v-0.57
					c1.19-0.13,2.52-0.45,3.25-0.71c0,0.98,0,1.98,0,2.96v9.84c0,1.39,0.12,1.49,1.45,1.62v0.61H128.52z"/>
				<path class="st62" d="M143.65,147.79c-1.08,0.16-1.3,0.34-1.83,1.53c-0.52,1.16-1.1,2.61-2.5,6.14
					c-1.38,3.37-1.76,4.68-2.1,5.79c-0.13,0.45-0.36,0.56-0.65,0.56c-0.7,0-1.35-0.51-1.35-1.07c0-0.28,0.14-0.47,0.48-0.74
					c0.7-0.51,1.2-1,1.47-1.55c0.4-0.79,0.7-1.49,0.8-1.76c0.08-0.31,0.08-0.5-0.05-0.85c-0.87-2.51-2.04-5.14-2.62-6.54
					c-0.45-1.11-0.65-1.36-1.78-1.5v-0.59h4.42v0.59c-0.96,0.15-1.07,0.35-0.8,1.1l1.96,5.03c0.57-1.4,1.39-3.65,1.82-4.95
					c0.24-0.78,0.07-1.01-1.11-1.18v-0.59h3.84V147.79z"/>
				<path class="st62" d="M163.19,148.12c-1.46,0.16-1.7,0.52-2.4,1.54c-0.56,0.79-1.13,1.62-1.87,2.71c0.99,0.94,2.93,3.1,3.6,4.21
					l-0.12,0.23c-1.33-0.08-2.52-0.57-2.78-0.84c-0.26-0.29-1.21-1.2-1.89-1.93c-1.5,1.98-2.86,2.68-4.37,2.68
					c-2.75,0-4.23-1.99-4.23-3.82c0.02-1.92,1.1-2.69,3.12-3.96c-0.98-0.85-1.6-1.81-1.6-2.99c0.02-1.89,1.6-3.35,3.55-3.35
					c1.81,0,3.2,1.22,3.2,2.92c-0.02,0.84-0.42,1.47-0.91,1.85c-0.42,0.33-1.03,0.71-1.79,1.16c0.67,0.57,2.31,1.94,3.67,3.28
					c0.46-0.72,0.88-1.38,1.26-2.28c0.41-0.96,0.26-1.24-1.27-1.41v-0.64h4.82V148.12z M153.96,155.19c1.36,0,2.21-0.48,3.22-1.75
					c-1.17-1.28-2.55-2.45-4.35-3.99c-1.35,0.92-1.74,1.77-1.74,2.83C151.09,154.26,152.59,155.19,153.96,155.19z M153.98,143.35
					c-1.02,0-1.65,0.82-1.65,2c0,1.07,0.53,1.71,1.82,2.73c1.09-0.79,1.59-1.45,1.59-2.56
					C155.72,144.34,155.13,143.35,153.98,143.35z"/>
				<path class="st62" d="M84.62,175.73c-0.41-1.26-0.98-2.07-2.21-2.07c-0.71,0-1.27,0.51-1.27,1.32c0,0.87,0.59,1.29,1.75,1.82
					c1.79,0.84,2.73,1.49,2.73,2.92c0,1.96-1.8,2.96-3.49,2.96c-1.09,0-2.09-0.35-2.53-0.6c-0.1-0.59-0.29-1.79-0.37-2.49l0.62-0.11
					c0.39,1.34,1.15,2.46,2.6,2.46c0.8,0,1.42-0.53,1.42-1.37c0-0.89-0.52-1.38-1.67-1.94c-1.46-0.71-2.68-1.39-2.68-2.94
					c0-1.56,1.31-2.75,3.33-2.75c0.9,0,1.63,0.21,2.06,0.28c0.06,0.52,0.22,1.84,0.32,2.36L84.62,175.73z"/>
				<path class="st62" d="M91.8,172.94c2.69,0,4.62,2.04,4.62,4.71c0,3.4-2.5,5.03-4.64,5.03c-2.95,0-4.72-2.34-4.72-4.71
					C87.07,174.59,89.73,172.94,91.8,172.94z M91.55,173.68c-1.21,0-2.32,1.19-2.32,3.65c0,2.66,1.12,4.6,2.77,4.6
					c1.21,0,2.26-0.87,2.26-3.78C94.26,175.6,93.3,173.68,91.55,173.68z"/>
				<path class="st62" d="M105.88,180.51c-0.93,1.25-2.34,2.17-3.6,2.17c-2.71,0-4.31-2.17-4.31-4.43c0-1.64,0.73-3.04,2.12-4.1
					c1.16-0.89,2.43-1.22,3.27-1.22c0.92,0,1.61,0.28,1.93,0.56c0.29,0.23,0.35,0.39,0.35,0.64c0,0.52-0.54,0.99-0.79,0.99
					c-0.11,0-0.21-0.05-0.41-0.21c-0.7-0.62-1.41-0.92-2.13-0.92c-1.28,0-2.46,1.11-2.46,3.31c-0.02,2.9,1.99,3.85,3.15,3.85
					c0.88,0,1.58-0.23,2.5-1.11L105.88,180.51z"/>
				<path class="st62" d="M106.86,182.43v-0.61c1.29-0.13,1.43-0.23,1.43-1.67v-4.28c0-1.32-0.07-1.4-1.28-1.6v-0.54
					c1.13-0.18,2.18-0.46,3.13-0.83c0,0.88,0,1.76,0,2.64v4.61c0,1.43,0.14,1.54,1.47,1.67v0.61H106.86z M109.1,170.99
					c-0.63,0-1.18-0.55-1.18-1.18c0-0.71,0.56-1.21,1.21-1.21c0.63,0,1.15,0.51,1.15,1.21C110.27,170.43,109.75,170.99,109.1,170.99
					z"/>
				<path class="st62" d="M119.45,182.68c-0.36,0-0.82-0.17-1.04-0.41c-0.28-0.27-0.41-0.56-0.51-0.92
					c-0.83,0.56-1.86,1.32-2.47,1.32c-1.55,0-2.61-1.27-2.61-2.61c0-1.04,0.56-1.69,1.7-2.09c1.27-0.44,2.86-0.98,3.33-1.37v-0.51
					c0-1.42-0.69-2.23-1.75-2.23c-0.46,0-0.75,0.22-0.96,0.47c-0.24,0.3-0.37,0.76-0.56,1.37c-0.11,0.38-0.33,0.52-0.66,0.52
					c-0.43,0-0.98-0.43-0.98-0.95c0-0.31,0.27-0.56,0.7-0.87c0.67-0.47,1.89-1.22,3.08-1.47c0.67,0,1.33,0.19,1.84,0.57
					c0.76,0.63,1.09,1.37,1.09,2.46v3.98c0,0.97,0.35,1.26,0.72,1.26c0.24,0,0.51-0.1,0.74-0.22l0.21,0.61L119.45,182.68z
					 M117.85,177.37c-0.45,0.23-1.34,0.63-1.81,0.84c-0.77,0.35-1.24,0.75-1.24,1.51c0,1.12,0.84,1.61,1.47,1.61
					c0.5,0,1.17-0.28,1.58-0.68C117.85,179.67,117.85,178.36,117.85,177.37z"/>
				<path class="st62" d="M121.88,182.43v-0.61c1.32-0.14,1.46-0.24,1.46-1.62v-9.97c0-1.25-0.11-1.37-1.41-1.55v-0.57
					c1.19-0.13,2.52-0.45,3.25-0.71c0,0.98,0,1.98,0,2.96v9.84c0,1.39,0.12,1.49,1.45,1.62v0.61H121.88z"/>
				<path class="st62" d="M127.44,182.43v-0.61c1.32-0.14,1.46-0.24,1.46-1.62v-9.97c0-1.25-0.11-1.37-1.41-1.55v-0.57
					c1.19-0.13,2.52-0.45,3.25-0.71c0,0.98,0,1.98,0,2.96v9.84c0,1.39,0.11,1.49,1.45,1.62v0.61H127.44z"/>
				<path class="st62" d="M142.57,173.79c-1.08,0.16-1.3,0.34-1.83,1.53c-0.53,1.16-1.1,2.61-2.5,6.14
					c-1.38,3.37-1.76,4.68-2.11,5.79c-0.13,0.45-0.36,0.56-0.65,0.56c-0.7,0-1.35-0.51-1.35-1.07c0-0.28,0.14-0.47,0.48-0.74
					c0.7-0.51,1.2-1,1.47-1.55c0.4-0.79,0.7-1.49,0.8-1.76c0.08-0.31,0.08-0.5-0.05-0.85c-0.87-2.51-2.04-5.14-2.62-6.54
					c-0.45-1.11-0.65-1.36-1.78-1.5v-0.59h4.42v0.59c-0.95,0.15-1.07,0.35-0.8,1.1l1.96,5.03c0.57-1.4,1.39-3.65,1.82-4.95
					c0.25-0.78,0.08-1.01-1.11-1.18v-0.59h3.84V173.79z"/>
				<path class="st62" d="M144.4,182.72c-0.8,0-1.36-0.58-1.36-1.42c0-0.8,0.56-1.42,1.36-1.42c0.8,0,1.39,0.61,1.39,1.42
					C145.8,182.14,145.2,182.72,144.4,182.72z"/>
			</g>
		</g>
	</g>
</g>
</svg>
