<?xml version="1.0" encoding="utf-8"?>
<!-- Generator: Adobe Illustrator 23.0.1, SVG Export Plug-In . SVG Version: 6.00 Build 0)  -->
<svg version="1.1" id="Camada_1" xmlns="http://www.w3.org/2000/svg" xmlns:xlink="http://www.w3.org/1999/xlink" x="0px" y="0px"
	 viewBox="0 0 187.05 181.43" style="enable-background:new 0 0 187.05 181.43;" xml:space="preserve">
<style type="text/css">
	.st0{fill:url(#SVGID_1_);}
	.st1{fill:url(#SVGID_2_);}
	.st2{fill:url(#SVGID_3_);}
	.st3{fill:url(#SVGID_4_);}
	.st4{fill:url(#SVGID_5_);}
	.st5{fill:url(#SVGID_6_);}
	.st6{fill:url(#SVGID_7_);}
	.st7{fill:url(#SVGID_8_);}
	.st8{fill:url(#SVGID_9_);}
	.st9{fill:url(#SVGID_10_);}
	.st10{fill:url(#SVGID_11_);}
	.st11{fill:url(#SVGID_12_);}
	.st12{fill:url(#SVGID_13_);}
	.st13{fill:url(#SVGID_14_);}
	.st14{fill:url(#SVGID_15_);}
	.st15{fill:url(#SVGID_16_);}
	.st16{fill:url(#SVGID_17_);}
	.st17{fill:url(#SVGID_18_);}
	.st18{fill:url(#SVGID_19_);}
	.st19{fill:url(#SVGID_20_);}
	.st20{fill:url(#SVGID_21_);}
	.st21{fill:url(#SVGID_22_);}
	.st22{fill:url(#SVGID_23_);}
	.st23{fill:url(#SVGID_24_);}
	.st24{fill:url(#SVGID_25_);}
	.st25{fill:url(#SVGID_26_);}
	.st26{fill:url(#SVGID_27_);}
	.st27{fill:url(#SVGID_28_);}
	.st28{fill:url(#SVGID_29_);}
	.st29{fill:url(#SVGID_30_);}
	.st30{fill:url(#SVGID_31_);}
	.st31{fill:url(#SVGID_32_);}
	.st32{fill:url(#SVGID_33_);}
	.st33{fill:url(#SVGID_34_);}
	.st34{fill:url(#SVGID_35_);}
	.st35{fill:url(#SVGID_36_);}
	.st36{fill:url(#SVGID_37_);}
	.st37{fill:url(#SVGID_38_);}
	.st38{fill:url(#SVGID_39_);}
	.st39{fill:url(#SVGID_40_);}
	.st40{fill:url(#SVGID_41_);}
	.st41{fill:url(#SVGID_42_);}
	.st42{fill:url(#SVGID_43_);}
	.st43{fill:url(#SVGID_44_);}
	.st44{fill:url(#SVGID_45_);}
	.st45{fill:url(#SVGID_46_);}
	.st46{fill:url(#SVGID_47_);}
	.st47{fill:url(#SVGID_48_);}
	.st48{fill:url(#SVGID_49_);}
	.st49{fill:url(#SVGID_50_);}
	.st50{fill:url(#SVGID_51_);}
	.st51{clip-path:url(#SVGID_65_);fill:url(#SVGID_66_);}
	.st52{clip-path:url(#SVGID_65_);fill:url(#SVGID_67_);}
	.st53{clip-path:url(#SVGID_65_);fill:url(#SVGID_68_);}
	.st54{clip-path:url(#SVGID_65_);fill:url(#SVGID_69_);}
	.st55{clip-path:url(#SVGID_65_);fill:url(#SVGID_70_);}
	.st56{fill:none;stroke:#FFFFFF;stroke-miterlimit:10;}
	.st57{opacity:0.5;}
	.st58{fill:none;stroke:#FFFFFF;stroke-width:0.75;stroke-miterlimit:10;}
	.st59{fill:url(#SVGID_73_);}
	.st60{opacity:0.75;}
	.st61{fill:#004441;}
	.st62{fill:#008E9A;}
	.st63{fill:#003936;}
	.st64{fill:#FFFFFF;}
	.st65{fill:url(#SVGID_82_);}
	.st66{fill:url(#SVGID_83_);}
	.st67{fill:url(#SVGID_84_);}
	.st68{fill:url(#SVGID_85_);}
	.st69{fill:url(#SVGID_86_);}
	.st70{fill:url(#SVGID_87_);}
	.st71{fill:url(#SVGID_88_);}
	.st72{fill:url(#SVGID_89_);}
	.st73{fill:url(#SVGID_90_);}
	.st74{fill:url(#SVGID_91_);}
	.st75{fill:url(#SVGID_92_);}
	.st76{fill:#006D68;}
	.st77{fill:url(#SVGID_93_);}
	.st78{fill:url(#SVGID_94_);}
	.st79{fill:url(#SVGID_95_);}
	.st80{fill:url(#SVGID_96_);}
	.st81{fill:url(#SVGID_97_);}
	.st82{fill:url(#SVGID_98_);}
	.st83{fill:url(#SVGID_99_);}
	.st84{fill:url(#SVGID_100_);}
	.st85{fill:url(#SVGID_101_);}
	.st86{fill:url(#SVGID_102_);}
	.st87{fill:#005D57;}
	.st88{fill:#0096A4;}
	.st89{fill:none;stroke:#FFFFFF;stroke-width:2;stroke-miterlimit:10;}
	.st90{fill:none;stroke:#006D68;stroke-width:2;stroke-miterlimit:10;}
	.st91{fill:#004441;stroke:#004441;stroke-width:2;stroke-miterlimit:10;}
	.st92{fill:#FFFFFF;stroke:#008E9A;stroke-width:2;stroke-miterlimit:10;}
	.st93{fill:#004039;}
	.st94{fill:#C6E5EA;}
	.st95{fill:#79C4CF;}
	.st96{fill:#6CBFC4;}
	.st97{fill:#D2E9EC;}
	.st98{fill:#FADFD1;}
	.st99{fill:#EA7B59;}
	.st100{fill:#CFCFD9;}
	.st101{fill:#EC7E0B;}
	.st102{fill:#875B9F;}
	.st103{fill:#D24B51;}
	.st104{fill:#F5BB90;}
	.st105{fill:#54B8C0;}
	.st106{fill:#E5533A;}
	.st107{fill:#E3BC38;}
	.st108{fill:url(#SVGID_103_);}
	.st109{fill:url(#SVGID_104_);}
	.st110{fill:url(#SVGID_105_);}
	.st111{fill:url(#SVGID_106_);}
	.st112{fill:url(#SVGID_107_);}
	.st113{fill:url(#SVGID_108_);}
	.st114{fill:url(#SVGID_109_);}
	.st115{fill:url(#SVGID_110_);}
	.st116{fill:url(#SVGID_111_);}
	.st117{fill:url(#SVGID_112_);}
	.st118{fill:url(#SVGID_113_);}
	.st119{fill:url(#SVGID_114_);}
	.st120{fill:url(#SVGID_115_);}
	.st121{fill:url(#SVGID_116_);}
	.st122{fill:url(#SVGID_117_);}
	.st123{fill:url(#SVGID_118_);}
	.st124{fill:url(#SVGID_119_);}
	.st125{fill:url(#SVGID_120_);}
	.st126{fill:url(#SVGID_121_);}
	.st127{fill:url(#SVGID_122_);}
	.st128{fill:url(#SVGID_123_);}
	.st129{fill:url(#SVGID_124_);}
	.st130{fill:url(#SVGID_125_);}
	.st131{fill:url(#SVGID_126_);}
	.st132{fill:url(#SVGID_127_);}
	.st133{fill:url(#SVGID_128_);}
	.st134{fill:url(#SVGID_129_);}
	.st135{fill:url(#SVGID_130_);}
	.st136{fill:url(#SVGID_131_);}
	.st137{fill:url(#SVGID_132_);}
	.st138{fill:url(#SVGID_133_);}
	.st139{fill:url(#SVGID_134_);}
	.st140{fill:url(#SVGID_135_);}
	.st141{fill:url(#SVGID_136_);}
	.st142{fill:url(#SVGID_137_);}
	.st143{fill:url(#SVGID_138_);}
	.st144{fill:url(#SVGID_139_);}
	.st145{fill:url(#SVGID_140_);}
	.st146{fill:url(#SVGID_141_);}
	.st147{fill:url(#SVGID_142_);}
	.st148{fill:url(#SVGID_143_);}
	.st149{fill:url(#SVGID_144_);}
	.st150{fill:url(#SVGID_145_);}
	.st151{fill:url(#SVGID_146_);}
	.st152{fill:url(#SVGID_147_);}
	.st153{fill:url(#SVGID_148_);}
	.st154{fill:url(#SVGID_149_);}
	.st155{fill:url(#SVGID_150_);}
	.st156{fill:url(#SVGID_151_);}
	.st157{fill:url(#SVGID_152_);}
	.st158{fill:url(#SVGID_153_);}
	.st159{clip-path:url(#SVGID_167_);fill:url(#SVGID_168_);}
	.st160{clip-path:url(#SVGID_167_);fill:url(#SVGID_169_);}
	.st161{clip-path:url(#SVGID_167_);fill:url(#SVGID_170_);}
	.st162{clip-path:url(#SVGID_167_);fill:url(#SVGID_171_);}
	.st163{clip-path:url(#SVGID_167_);fill:url(#SVGID_172_);}
	.st164{fill:#A991B5;}
	.st165{fill:#EE8E34;}
	.st166{fill:#A07F0E;}
	.st167{fill:none;stroke:#54B8C0;stroke-width:4;stroke-miterlimit:10;}
	.st168{fill:none;stroke:#875B9F;stroke-width:5;stroke-miterlimit:10;}
	.st169{fill:#E76F80;}
	.st170{fill:#004745;}
</style>
<g>
	<g>
		<g class="st60">
			<rect x="20.14" y="15.48" class="st91" width="138.78" height="142.48"/>
		</g>
		<g>
			<g>
				<rect x="24.14" y="19.48" class="st92" width="138.78" height="142.48"/>
			</g>
		</g>
	</g>
	<g>
		<path class="st101" d="M89.45,142.8c-0.93-0.57-1.17-1.43-1.17-2.48c0.02-15.72,0.01-31.44,0.02-47.16c0-0.4,0.01-0.82,0.12-1.2
			c0.23-0.81,0.83-1.24,1.67-1.21c0.87,0.03,1.46,0.5,1.63,1.39c0.07,0.36,0.06,0.74,0.06,1.11c0,15.69,0,31.37,0.02,47.06
			c0,1.05-0.22,1.9-1.12,2.5C90.26,142.8,89.86,142.8,89.45,142.8z"/>
		<path class="st101" d="M96.37,142.8c-0.87-0.57-1.12-1.37-1.12-2.4c0.02-15.75,0.01-31.51,0.02-47.26c0-0.34,0-0.68,0.06-1.01
			c0.17-0.89,0.75-1.36,1.63-1.39c0.83-0.03,1.43,0.4,1.67,1.21c0.11,0.38,0.12,0.8,0.12,1.2c0.01,15.72,0,31.44,0.02,47.16
			c0,1.05-0.24,1.91-1.17,2.48C97.18,142.8,96.77,142.8,96.37,142.8z"/>
		<path class="st101" d="M41.45,114.52c0.49-0.86,1.16-1.47,2.21-1.16c1.04,0.31,1.31,1.16,1.26,2.17c-0.04,0.81-0.04,1.63,0,2.44
			c0.05,1.01-0.21,1.86-1.26,2.17c-1.06,0.32-1.72-0.3-2.22-1.15C41.45,117.51,41.45,116.01,41.45,114.52z"/>
		<path class="st93" d="M117.79,38.65c5.63,0,11.25,0,16.88,0c6.45,0.01,10.92,4.46,10.92,10.91c0.01,7.76,0.01,15.52,0,23.28
			c0,6.45-4.47,10.93-10.91,10.94c-4.2,0.01-8.41,0.01-12.61-0.01c-0.61,0-1.09,0.14-1.58,0.5c-5.03,3.68-10.07,7.33-15.1,11
			c-0.73,0.53-1.46,0.89-2.33,0.39c-0.84-0.48-0.91-1.27-0.8-2.13c0.37-2.92,0.66-5.86,1.12-8.77c0.15-0.97-0.16-1.04-0.94-1.01
			c-1.9,0.07-3.79,0.03-5.61-0.66c-4.03-1.54-6.74-5.29-6.76-9.6c-0.04-8.2-0.05-16.4,0-24.61c0.03-5.63,4.59-10.19,10.23-10.24
			C106.13,38.61,111.96,38.66,117.79,38.65C117.79,38.65,117.79,38.65,117.79,38.65z"/>
		<path class="st101" d="M102.21,116.78c0-4.37,0-8.73,0-13.1c0-0.34-0.01-0.68,0.03-1.01c0.1-0.9,0.67-1.42,1.52-1.51
			c0.86-0.1,1.49,0.33,1.8,1.17c0.16,0.43,0.12,0.87,0.12,1.3c0,8.73,0,17.47,0,26.2c0,0.1,0,0.2,0,0.3
			c-0.01,1.42-0.68,2.27-1.78,2.25c-1.07-0.02-1.69-0.81-1.69-2.2C102.21,125.72,102.21,121.25,102.21,116.78z"/>
		<path class="st101" d="M84.82,116.75c0,4.54,0.01,9.07-0.01,13.61c-0.01,1.59-1.29,2.49-2.53,1.81c-0.66-0.36-0.92-0.96-0.93-1.69
			c-0.01-1.02,0-2.03,0-3.05c0-7.85,0-15.71,0-23.56c0-0.24-0.01-0.47,0-0.71c0.04-1.24,0.76-2.06,1.79-2.03
			c1.01,0.03,1.67,0.79,1.67,2.01C84.83,107.68,84.82,112.21,84.82,116.75z"/>
		<path class="st101" d="M77.88,116.81c0,3.29,0,6.57,0,9.86c0,1.43-0.66,2.27-1.75,2.25c-1.06-0.02-1.71-0.85-1.72-2.21
			c0-6.67-0.01-13.34,0-20.02c0-1.64,1.33-2.58,2.59-1.86c0.69,0.4,0.88,1.04,0.88,1.81C77.87,110.04,77.88,113.42,77.88,116.81z"/>
		<path class="st101" d="M109.15,116.7c0-3.32,0-6.64,0-9.96c0-1.34,0.69-2.17,1.76-2.14c1.03,0.03,1.71,0.84,1.71,2.11
			c0.01,6.71,0.01,13.41,0,20.12c0,1.26-0.7,2.08-1.73,2.09c-1.03,0.01-1.73-0.8-1.73-2.06
			C109.15,123.47,109.15,120.08,109.15,116.7z"/>
		<path class="st101" d="M60.55,116.66c0-2.17-0.01-4.34,0-6.51c0-1.27,0.68-2.08,1.72-2.08c1.04,0,1.74,0.81,1.74,2.07
			c0.01,4.41,0.01,8.81,0,13.22c0,1.26-0.7,2.08-1.74,2.08c-1.04,0-1.72-0.81-1.73-2.08C60.54,121.13,60.55,118.9,60.55,116.66z"/>
		<path class="st101" d="M126.48,116.66c0,2.24,0.01,4.47,0,6.71c0,1.27-0.69,2.08-1.73,2.08c-1.04,0-1.73-0.82-1.74-2.08
			c-0.01-4.41-0.01-8.81,0-13.22c0-1.26,0.7-2.08,1.74-2.07c1.04,0,1.72,0.8,1.72,2.08C126.49,112.32,126.48,114.49,126.48,116.66z"
			/>
		<path class="st101" d="M133.42,116.77c0,2.2,0.01,4.41,0,6.61c-0.01,1.28-0.69,2.07-1.73,2.07c-1.04-0.01-1.73-0.82-1.74-2.08
			c-0.01-4.41-0.01-8.81,0-13.22c0-1.26,0.71-2.07,1.75-2.06c1.04,0.01,1.71,0.8,1.71,2.08
			C133.43,112.36,133.42,114.56,133.42,116.77z"/>
		<path class="st101" d="M53.61,116.7c0-2.2-0.01-4.41,0-6.61c0.01-1.22,0.66-1.98,1.68-2.01c1.04-0.03,1.78,0.78,1.79,2.03
			c0.01,4.44,0.01,8.88,0,13.32c0,1.24-0.76,2.05-1.8,2.01c-1.01-0.04-1.65-0.81-1.66-2.03C53.6,121.17,53.61,118.94,53.61,116.7z"
			/>
		<path class="st101" d="M70.95,116.75c0,1.12,0.02,2.23,0,3.35c-0.02,1.11-0.74,1.86-1.72,1.87c-0.98,0-1.72-0.76-1.73-1.86
			c-0.02-2.23-0.02-4.46,0-6.7c0.01-1.1,0.74-1.86,1.72-1.87c0.98,0,1.71,0.76,1.73,1.86C70.96,114.52,70.95,115.64,70.95,116.75z"
			/>
		<path class="st101" d="M119.55,116.76c0,1.12,0.02,2.23-0.01,3.35c-0.02,1.1-0.75,1.86-1.73,1.86c-0.98,0-1.71-0.76-1.72-1.86
			c-0.02-2.23-0.02-4.46,0-6.7c0.01-1.1,0.74-1.86,1.72-1.86c0.98,0,1.71,0.76,1.73,1.86C119.57,114.53,119.55,115.64,119.55,116.76
			z"/>
		<path class="st101" d="M46.67,116.76c0-1.12-0.02-2.23,0.01-3.35c0.03-1.13,0.73-1.86,1.72-1.86c0.98,0,1.72,0.74,1.74,1.86
			c0.04,2.23,0.04,4.46,0,6.69c-0.02,1.12-0.76,1.86-1.74,1.86c-0.98,0-1.69-0.74-1.72-1.86C46.65,118.99,46.67,117.87,46.67,116.76
			z"/>
		<path class="st101" d="M140.37,116.73c0,1.12,0.02,2.23,0,3.35c-0.03,1.13-0.71,1.87-1.69,1.88c-0.98,0.01-1.74-0.72-1.76-1.83
			c-0.04-2.26-0.04-4.53,0-6.79c0.02-1.1,0.83-1.83,1.81-1.78c0.95,0.05,1.61,0.75,1.64,1.83
			C140.39,114.5,140.37,115.62,140.37,116.73z"/>
		<path class="st101" d="M142.13,116.72c0-0.61-0.04-1.22,0.01-1.82c0.07-0.92,0.77-1.57,1.65-1.6c0.92-0.03,1.73,0.63,1.77,1.58
			c0.06,1.25,0.06,2.5,0,3.74c-0.04,0.95-0.84,1.62-1.75,1.6c-0.92-0.02-1.62-0.7-1.68-1.68
			C142.1,117.93,142.13,117.33,142.13,116.72C142.13,116.72,142.13,116.72,142.13,116.72z"/>
		<path class="st103" d="M106.14,90.44c0.41-3.2,0.79-6.15,1.16-9.1c0.04-0.34,0.07-0.68,0.07-1.01c0-0.95-0.5-1.55-1.4-1.73
			c-0.87-0.18-1.59,0.2-1.86,1.03c-0.21,0.62-0.53,0.74-1.09,0.71c-1.25-0.07-2.5,0.08-3.75-0.14c-3.27-0.59-5.73-3.34-5.74-6.66
			c-0.04-8.2-0.04-16.4,0-24.6c0.02-3.7,3.03-6.77,6.72-6.79c11.72-0.05,23.45-0.05,35.17,0c3.61,0.02,6.63,3.01,6.67,6.63
			c0.07,8.3,0.08,16.6,0,24.9c-0.03,3.68-3.12,6.57-6.88,6.64c-3.25,0.06-6.51,0.02-9.76,0.01c-0.32,0-0.61,0.07-0.8-0.4
			c-0.61-1.52-1.6-1.77-2.94-0.81c-2.55,1.84-5.09,3.7-7.64,5.55C111.49,86.56,108.89,88.44,106.14,90.44z"/>
		<path class="st107" d="M98.75,61.22c0-2.86,2.28-5.18,5.13-5.22c2.85-0.04,5.27,2.35,5.27,5.21c0,2.87-2.39,5.24-5.26,5.21
			C101.02,66.39,98.75,64.08,98.75,61.22z"/>
		<path class="st107" d="M123.02,61.25c-0.01,2.85-2.33,5.16-5.19,5.17c-2.88,0.01-5.22-2.34-5.2-5.25
			c0.01-2.84,2.34-5.17,5.18-5.18C120.67,55.98,123.03,58.36,123.02,61.25z"/>
		<path class="st107" d="M136.89,61.18c0.02,2.91-2.32,5.26-5.21,5.24c-2.84-0.02-5.18-2.34-5.19-5.18
			c-0.02-2.86,2.37-5.26,5.23-5.25C134.56,56.01,136.87,58.33,136.89,61.18z"/>
	</g>
</g>
</svg>
