<svg width="146" height="149" viewBox="0 0 146 149" fill="none" xmlns="http://www.w3.org/2000/svg">
<g opacity="0.75">
<path opacity="0.75" d="M140.16 1.25H1.38V143.73H140.16V1.25Z" fill="#004543" stroke="#004543" stroke-width="2" stroke-miterlimit="10"/>
</g>
<path d="M144.16 5.25H5.38V147.73H144.16V5.25Z" fill="white" stroke="#388D99" stroke-width="2" stroke-miterlimit="10"/>
<path d="M70.69 128.57C69.76 128 69.52 127.14 69.52 126.09C69.54 110.37 69.53 94.6501 69.54 78.9301C69.54 78.5301 69.55 78.11 69.66 77.73C69.89 76.92 70.49 76.49 71.33 76.52C72.2 76.55 72.79 77.02 72.96 77.91C73.03 78.27 73.02 78.65 73.02 79.02C73.02 94.71 73.02 110.39 73.04 126.08C73.04 127.13 72.82 127.98 71.92 128.58C71.5 128.57 71.1 128.57 70.69 128.57Z" fill="#00423C"/>
<path d="M77.61 128.57C76.74 128 76.49 127.2 76.49 126.17C76.51 110.42 76.5 94.66 76.51 78.91C76.51 78.57 76.51 78.23 76.57 77.9C76.74 77.01 77.32 76.54 78.2 76.51C79.03 76.48 79.63 76.91 79.87 77.72C79.98 78.1 79.99 78.52 79.99 78.92C80 94.64 79.99 110.36 80.01 126.08C80.01 127.13 79.77 127.99 78.84 128.56C78.42 128.57 78.01 128.57 77.61 128.57Z" fill="#00423C"/>
<path d="M22.69 100.29C23.18 99.43 23.85 98.82 24.9 99.13C25.94 99.44 26.21 100.29 26.16 101.3C26.12 102.11 26.12 102.93 26.16 103.74C26.21 104.75 25.95 105.6 24.9 105.91C23.84 106.23 23.18 105.61 22.68 104.76C22.69 103.28 22.69 101.79 22.69 100.29Z" fill="#00423C"/>
<path d="M99.03 24.42C104.66 24.42 110.28 24.42 115.91 24.42C122.36 24.43 126.83 28.8799 126.83 35.3299C126.84 43.0899 126.84 50.8499 126.83 58.6099C126.83 65.0599 122.36 69.54 115.92 69.55C111.72 69.56 107.51 69.56 103.31 69.54C102.7 69.54 102.22 69.68 101.73 70.04C96.7 73.72 91.66 77.37 86.63 81.04C85.9 81.57 85.17 81.93 84.3 81.43C83.46 80.95 83.39 80.16 83.5 79.3C83.87 76.38 84.16 73.44 84.62 70.53C84.77 69.56 84.46 69.49 83.68 69.52C81.78 69.59 79.89 69.5499 78.07 68.8599C74.04 67.3199 71.33 63.57 71.31 59.26C71.27 51.06 71.26 42.86 71.31 34.65C71.34 29.02 75.9 24.46 81.54 24.41C87.37 24.38 93.2 24.43 99.03 24.42C99.03 24.43 99.03 24.43 99.03 24.42Z" fill="#00423C"/>
<path d="M83.45 102.56C83.45 98.19 83.45 93.8299 83.45 89.4599C83.45 89.1199 83.44 88.7799 83.48 88.4499C83.58 87.5499 84.15 87.0299 85 86.9399C85.86 86.8399 86.49 87.27 86.8 88.11C86.96 88.54 86.92 88.98 86.92 89.41C86.92 98.14 86.92 106.88 86.92 115.61C86.92 115.71 86.92 115.81 86.92 115.91C86.91 117.33 86.24 118.18 85.14 118.16C84.07 118.14 83.45 117.35 83.45 115.96C83.45 111.49 83.45 107.02 83.45 102.56Z" fill="#00423C"/>
<path d="M66.06 102.52C66.06 107.06 66.07 111.59 66.05 116.13C66.04 117.72 64.76 118.62 63.52 117.94C62.86 117.58 62.6 116.98 62.59 116.25C62.58 115.23 62.59 114.22 62.59 113.2C62.59 105.35 62.59 97.49 62.59 89.64C62.59 89.4 62.58 89.17 62.59 88.93C62.63 87.69 63.35 86.87 64.38 86.9C65.39 86.93 66.05 87.69 66.05 88.91C66.07 93.45 66.06 97.99 66.06 102.52Z" fill="#00423C"/>
<path d="M59.12 102.58C59.12 105.87 59.12 109.15 59.12 112.44C59.12 113.87 58.46 114.71 57.37 114.69C56.31 114.67 55.66 113.84 55.65 112.48C55.65 105.81 55.64 99.1399 55.65 92.4599C55.65 90.8199 56.98 89.8799 58.24 90.5999C58.93 90.9999 59.12 91.64 59.12 92.41C59.11 95.81 59.12 99.1999 59.12 102.58Z" fill="#00423C"/>
<path d="M90.4 102.47C90.4 99.15 90.4 95.8301 90.4 92.5101C90.4 91.1701 91.09 90.34 92.16 90.37C93.19 90.4 93.87 91.21 93.87 92.48C93.88 99.19 93.88 105.89 93.87 112.6C93.87 113.86 93.17 114.68 92.14 114.69C91.11 114.7 90.41 113.89 90.41 112.63C90.39 109.24 90.4 105.86 90.4 102.47Z" fill="#00423C"/>
<path d="M41.79 102.43C41.79 100.26 41.78 98.09 41.79 95.92C41.79 94.65 42.47 93.84 43.51 93.84C44.55 93.84 45.25 94.65 45.25 95.91C45.26 100.32 45.26 104.72 45.25 109.13C45.25 110.39 44.55 111.21 43.51 111.21C42.47 111.21 41.79 110.4 41.78 109.13C41.79 106.91 41.79 104.67 41.79 102.43Z" fill="#00423C"/>
<path d="M107.73 102.43C107.73 104.67 107.74 106.9 107.73 109.14C107.73 110.41 107.04 111.22 106 111.22C104.96 111.22 104.27 110.4 104.26 109.14C104.25 104.73 104.25 100.33 104.26 95.92C104.26 94.66 104.96 93.8399 106 93.8499C107.04 93.8499 107.72 94.65 107.72 95.93C107.73 98.09 107.73 100.26 107.73 102.43Z" fill="#00423C"/>
<path d="M114.66 102.54C114.66 104.74 114.67 106.95 114.66 109.15C114.65 110.43 113.97 111.22 112.93 111.22C111.89 111.21 111.2 110.4 111.19 109.14C111.18 104.73 111.18 100.33 111.19 95.92C111.19 94.66 111.9 93.85 112.94 93.86C113.98 93.87 114.65 94.6599 114.65 95.9399C114.67 98.1299 114.66 100.34 114.66 102.54Z" fill="#00423C"/>
<path d="M34.85 102.47C34.85 100.27 34.84 98.0599 34.85 95.8599C34.86 94.6399 35.51 93.8799 36.53 93.8499C37.57 93.8199 38.31 94.63 38.32 95.88C38.33 100.32 38.33 104.76 38.32 109.2C38.32 110.44 37.56 111.25 36.52 111.21C35.51 111.17 34.87 110.4 34.86 109.18C34.85 106.95 34.85 104.71 34.85 102.47Z" fill="#00423C"/>
<path d="M52.19 102.53C52.19 103.65 52.21 104.76 52.19 105.88C52.17 106.99 51.45 107.74 50.47 107.75C49.49 107.75 48.75 106.99 48.74 105.89C48.72 103.66 48.72 101.43 48.74 99.1899C48.75 98.0899 49.48 97.3299 50.46 97.3199C51.44 97.3199 52.17 98.0801 52.19 99.1801C52.2 100.29 52.19 101.41 52.19 102.53Z" fill="#00423C"/>
<path d="M100.79 102.53C100.79 103.65 100.81 104.76 100.78 105.88C100.76 106.98 100.03 107.74 99.05 107.74C98.07 107.74 97.34 106.98 97.33 105.88C97.31 103.65 97.31 101.42 97.33 99.1801C97.34 98.0801 98.07 97.3199 99.05 97.3199C100.03 97.3199 100.76 98.0801 100.78 99.1801C100.81 100.3 100.79 101.41 100.79 102.53Z" fill="#00423C"/>
<path d="M27.91 102.53C27.91 101.41 27.89 100.3 27.92 99.1801C27.95 98.0501 28.65 97.3199 29.64 97.3199C30.62 97.3199 31.36 98.0601 31.38 99.1801C31.42 101.41 31.42 103.64 31.38 105.87C31.36 106.99 30.62 107.73 29.64 107.73C28.66 107.73 27.95 106.99 27.92 105.87C27.89 104.76 27.91 103.65 27.91 102.53Z" fill="#00423C"/>
<path d="M121.61 102.51C121.61 103.63 121.63 104.74 121.61 105.86C121.58 106.99 120.9 107.73 119.92 107.74C118.94 107.75 118.18 107.02 118.16 105.91C118.12 103.65 118.12 101.38 118.16 99.12C118.18 98.02 118.99 97.2899 119.97 97.3399C120.92 97.3899 121.58 98.09 121.61 99.17C121.63 100.28 121.61 101.39 121.61 102.51Z" fill="#00423C"/>
<path d="M123.37 102.49C123.37 101.88 123.33 101.27 123.38 100.67C123.45 99.75 124.15 99.1 125.03 99.07C125.95 99.04 126.76 99.7 126.8 100.65C126.86 101.9 126.86 103.15 126.8 104.39C126.76 105.34 125.96 106.01 125.05 105.99C124.13 105.97 123.43 105.29 123.37 104.31C123.34 103.71 123.37 103.1 123.37 102.49Z" fill="#00423C"/>
<path d="M87.39 76.21C87.8 73.01 88.18 70.06 88.55 67.11C88.59 66.77 88.62 66.43 88.62 66.1C88.62 65.15 88.12 64.55 87.22 64.37C86.35 64.19 85.63 64.57 85.36 65.4C85.15 66.02 84.83 66.14 84.27 66.11C83.02 66.04 81.77 66.19 80.52 65.97C77.25 65.38 74.79 62.6301 74.78 59.3101C74.74 51.1101 74.74 42.91 74.78 34.71C74.8 31.01 77.81 27.9401 81.5 27.9201C93.22 27.8701 104.95 27.8701 116.67 27.9201C120.28 27.9401 123.3 30.9301 123.34 34.5501C123.41 42.8501 123.42 51.15 123.34 59.45C123.31 63.13 120.22 66.02 116.46 66.09C113.21 66.15 109.95 66.11 106.7 66.1C106.38 66.1 106.09 66.17 105.9 65.7C105.29 64.18 104.3 63.93 102.96 64.89C100.41 66.73 97.87 68.59 95.32 70.44C92.73 72.33 90.13 74.21 87.39 76.21Z" fill="#CEE4EA"/>
<path d="M79.99 46.99C79.99 44.13 82.27 41.81 85.12 41.77C87.97 41.73 90.39 44.12 90.39 46.98C90.39 49.85 88 52.2199 85.13 52.1899C82.27 52.1599 79.99 49.86 79.99 46.99Z" fill="#388D99"/>
<path d="M104.26 47.0301C104.25 49.8801 101.93 52.19 99.07 52.2C96.19 52.21 93.85 49.86 93.87 46.95C93.88 44.11 96.21 41.7801 99.05 41.7701C101.91 41.7601 104.27 44.1401 104.26 47.0301Z" fill="#388D99"/>
<path d="M118.13 46.96C118.15 49.87 115.81 52.22 112.92 52.2C110.08 52.18 107.74 49.8601 107.73 47.0201C107.71 44.1601 110.1 41.7601 112.96 41.7701C115.8 41.7801 118.11 44.1 118.13 46.96Z" fill="#388D99"/>
</svg>
